Time,Note,Duration,Velocity,Instrument,Channel,Track,Tempo,Pan,Volume,Expression
0.0,62,0.5,52.91,1,0,0,120.0,64,100,80
0.5,71,2.0,52.91,1,0,0,120.0,64,100,80
2.5,69,2.0,52.91,49,9,0,120.0,64,100,80
4.5,62,0.5,52.91,1,0,0,120.0,64,100,80
5.0,62,0.5,52.91,1,0,0,144.9,64,100,80
5.5,71,2.0,52.91,1,0,0,126.0,64,100,80
7.5,60,1.0,52.91,1,0,0,126.0,64,100,80
8.5,69,2.0,52.91,50,9,0,126.0,64,100,80
10.5,62,0.5,52.91,1,0,0,126.0,64,100,80
11.0,71,2.0,52.91,51,9,0,126.0,64,100,80
13.0,64,0.5,52.91,1,0,0,126.0,64,100,80
13.5,60,1.0,52.91,1,0,0,126.0,64,100,80
14.5,64,0.5,63.5,1,0,0,126.0,64,100,80
15.0,64,0.5,63.5,1,0,0,126.0,64,100,80
15.5,60,1.0,63.5,1,0,0,126.0,64,100,80
16.5,64,0.5,63.5,1,0,0,126.0,64,100,80
17.0,64,0.5,63.5,1,0,0,152.14499999999998,64,100,80
17.5,60,1.0,63.5,1,0,0,132.3,64,100,80
18.5,67,0.25,63.5,1,0,0,132.3,64,100,80
18.75,64,0.5,63.5,1,0,0,132.3,64,100,80
19.25,62,0.5,63.5,1,0,0,132.3,64,100,80
19.75,64,0.5,63.5,50,9,0,132.3,64,100,80
20.25,60,1.0,63.5,1,0,0,132.3,64,100,80
21.25,69,2.0,63.5,1,0,0,132.3,64,100,80
23.25,69,2.0,63.5,1,0,0,132.3,64,100,80
25.25,64,1.0,63.5,50,9,0,132.3,64,100,80
26.25,64,1.0,63.5,1,0,0,132.3,64,100,80
27.25,59,1.0,63.5,1,0,0,132.3,64,100,80
28.25,68,2.0,63.5,1,0,0,132.3,64,100,80
30.25,66,0.25,63.5,1,0,0,132.3,64,100,80
30.5,59,1.0,63.5,1,0,0,132.3,64,100,80
31.5,70,2.0,63.5,1,0,0,132.3,64,100,80
33.5,63,0.5,63.5,1,0,0,132.3,64,100,80
34.0,59,1.0,63.5,1,0,0,132.3,64,100,80
35.0,59,1.0,63.5,1,0,0,132.3,64,100,80
36.0,68,2.0,63.5,1,0,0,132.3,64,100,80
38.0,59,1.0,74.08,1,0,0,132.3,64,100,80
39.0,68,2.0,74.08,1,0,0,132.3,64,100,80
41.0,59,1.0,74.08,1,0,0,132.3,64,100,80
42.0,68,2.0,74.08,1,0,0,132.3,64,100,80
44.0,59,1.0,74.08,1,0,0,132.3,64,100,80
45.0,63,0.5,74.08,1,0,0,132.3,64,100,80
45.5,63,0.5,74.08,1,0,0,132.3,64,100,80
46.0,59,1.0,74.08,1,0,0,132.3,64,100,80
47.0,66,0.25,74.08,1,0,0,132.3,64,100,80
47.25,63,0.5,74.08,1,0,0,132.3,64,100,80
47.75,0,1.0,74.08,49,9,0,120.0,64,100,80
48.75,60,1.0,74.08,1,0,0,120.0,64,100,80
49.75,69,2.0,74.08,49,9,0,120.0,64,100,80
51.75,62,0.5,74.08,1,0,0,120.0,64,100,80
52.25,64,0.5,74.08,1,0,0,120.0,64,100,80
52.75,69,2.0,74.08,1,0,0,120.0,64,100,80
54.75,60,1.0,74.08,1,0,0,120.0,64,100,80
55.75,60,1.0,74.08,1,0,0,120.0,64,100,80
56.75,64,0.5,74.08,49,9,0,120.0,64,100,80
57.25,64,0.5,74.08,1,0,0,120.0,64,100,80
57.75,65,1.0,74.08,49,9,0,120.0,64,100,80
58.75,60,1.0,74.08,1,0,0,120.0,64,100,80
59.75,69,2.0,74.08,1,0,0,120.0,64,100,80
61.75,69,2.0,74.08,1,0,0,144.9,64,100,80
63.75,67,0.25,84.66,51,9,0,126.0,64,100,80
64.0,67,0.25,84.66,49,9,0,126.0,64,100,80
64.25,64,0.5,84.66,1,0,0,126.0,64,100,80
64.75,67,0.25,84.66,1,0,0,126.0,64,100,80
65.0,64,0.5,84.66,1,0,0,126.0,64,100,80
65.5,67,0.25,84.66,1,0,0,126.0,64,100,80
65.75,69,2.0,84.66,49,9,0,126.0,64,100,80
67.75,62,0.5,84.66,1,0,0,126.0,64,100,80
68.25,69,2.0,84.66,1,0,0,126.0,64,100,80
70.25,71,2.0,84.66,1,0,0,126.0,64,100,80
72.25,0,1.0,84.66,49,9,0,120.0,64,100,80
73.25,65,1.0,84.66,1,0,0,120.0,64,100,80
74.25,71,2.0,63.5,49,9,0,120.0,64,100,80
76.25,67,0.25,63.5,50,9,0,120.0,64,100,80
76.5,60,1.0,63.5,1,0,0,120.0,64,100,80
77.5,67,0.25,63.5,49,9,0,120.0,64,100,80
77.75,65,1.0,63.5,1,0,0,120.0,64,100,80
78.75,69,2.0,63.5,51,9,0,120.0,64,100,80
80.75,64,1.0,63.5,50,9,0,120.0,64,100,80
81.75,68,2.0,63.5,1,0,0,120.0,64,100,80
83.75,63,0.5,63.5,1,0,0,120.0,64,100,80
84.25,68,2.0,63.5,1,0,0,120.0,64,100,80
86.25,70,2.0,63.5,1,0,0,120.0,64,100,80
88.25,61,0.5,63.5,1,0,0,120.0,64,100,80
88.75,68,2.0,84.66,1,0,0,120.0,64,100,80
90.75,61,0.5,84.66,1,0,0,120.0,64,100,80
91.25,68,2.0,84.66,1,0,0,120.0,64,100,80
93.25,59,1.0,84.66,1,0,0,120.0,64,100,80
94.25,68,2.0,84.66,1,0,0,120.0,64,100,80
96.25,63,0.5,84.66,1,0,0,120.0,64,100,80
96.75,68,2.0,84.66,1,0,0,120.0,64,100,80
98.75,64,1.0,84.66,1,0,0,120.0,64,100,80
99.75,64,1.0,84.66,1,0,0,144.9,64,100,80
100.75,68,2.0,84.66,1,0,0,126.0,64,100,80
102.75,68,2.0,84.66,1,0,0,126.0,64,100,80
104.75,64,1.0,84.66,1,0,0,126.0,64,100,80
105.75,59,1.0,84.66,1,0,0,126.0,64,100,80
106.75,63,0.5,84.66,1,0,0,126.0,64,100,80
107.25,68,2.0,84.66,50,9,0,126.0,64,100,80
109.25,61,0.5,84.66,1,0,0,126.0,64,100,80
109.75,61,0.5,84.66,1,0,0,152.14499999999998,64,100,80
110.25,64,1.0,84.66,1,0,0,132.3,64,100,80
111.25,61,0.5,84.66,1,0,0,132.3,64,100,80
111.75,59,1.0,84.66,1,0,0,132.3,64,100,80
112.75,59,1.0,84.66,1,0,0,132.3,64,100,80
113.75,0,1.0,84.66,49,9,0,120.0,64,100,80
114.75,62,0.5,84.66,1,0,0,120.0,64,100,80
115.25,64,0.5,84.66,50,9,0,120.0,64,100,80
115.75,60,1.0,105.83,50,9,0,120.0,64,100,80
116.75,62,0.5,105.83,1,0,0,120.0,64,100,80
117.25,71,2.0,105.83,1,0,0,120.0,64,100,80
119.25,62,0.5,105.83,1,0,0,120.0,64,100,80
119.75,65,1.0,105.83,1,0,0,120.0,64,100,80
120.75,60,1.0,105.83,1,0,0,120.0,64,100,80
121.75,69,2.0,105.83,1,0,0,120.0,64,100,80
123.75,71,2.0,105.83,1,0,0,120.0,64,100,80
125.75,64,0.5,105.83,1,0,0,120.0,64,100,80
126.25,60,1.0,105.83,1,0,0,120.0,64,100,80
127.25,62,0.5,105.83,1,0,0,120.0,64,100,80
127.75,71,2.0,105.83,1,0,0,120.0,64,100,80
129.75,62,0.5,95.25,1,0,0,120.0,64,100,80
130.25,60,1.0,95.25,1,0,0,120.0,64,100,80
131.25,67,0.25,95.25,1,0,0,120.0,64,100,80
131.5,69,2.0,95.25,1,0,0,120.0,64,100,80
133.5,60,1.0,95.25,1,0,0,120.0,64,100,80
134.5,60,1.0,95.25,1,0,0,120.0,64,100,80
135.5,69,2.0,95.25,1,0,0,120.0,64,100,80
137.5,64,1.0,95.25,49,9,0,120.0,64,100,80
138.5,61,0.5,95.25,1,0,0,120.0,64,100,80
139.0,61,0.5,95.25,1,0,0,120.0,64,100,80
139.5,70,2.0,95.25,1,0,0,120.0,64,100,80
141.5,61,0.5,95.25,1,0,0,120.0,64,100,80
142.0,61,0.5,63.5,1,0,0,120.0,64,100,80
142.5,64,1.0,63.5,1,0,0,120.0,64,100,80
143.5,0,1.0,63.5,49,9,0,120.0,64,100,80
144.5,62,0.5,63.5,1,0,0,120.0,64,100,80
145.0,67,0.25,63.5,1,0,0,120.0,64,100,80
145.25,69,2.0,63.5,1,0,0,120.0,64,100,80
147.25,60,1.0,63.5,1,0,0,120.0,64,100,80
148.25,64,0.5,63.5,1,0,0,120.0,64,100,80
148.75,69,2.0,63.5,1,0,0,120.0,64,100,80
150.75,67,0.25,63.5,1,0,0,120.0,64,100,80
151.0,64,0.5,63.5,1,0,0,120.0,64,100,80
151.5,69,2.0,63.5,1,0,0,120.0,64,100,80
153.5,60,1.0,74.08,1,0,0,120.0,64,100,80
154.5,60,1.0,74.08,49,9,0,120.0,64,100,80
155.5,62,0.5,74.08,1,0,0,120.0,64,100,80
156.0,62,0.5,74.08,1,0,0,120.0,64,100,80
156.5,60,1.0,74.08,1,0,0,120.0,64,100,80
157.5,62,0.5,74.08,1,0,0,120.0,64,100,80
158.0,65,1.0,74.08,1,0,0,120.0,64,100,80
159.0,60,1.0,74.08,1,0,0,120.0,64,100,80
160.0,71,2.0,74.08,1,0,0,120.0,64,100,80
162.0,67,0.25,74.08,1,0,0,120.0,64,100,80
162.25,60,1.0,74.08,1,0,0,120.0,64,100,80
163.25,64,0.5,74.08,1,0,0,120.0,64,100,80
163.75,60,1.0,95.25,1,0,0,120.0,64,100,80
164.75,64,0.5,95.25,1,0,0,120.0,64,100,80
165.25,69,2.0,95.25,1,0,0,120.0,64,100,80
167.25,64,0.5,95.25,1,0,0,120.0,64,100,80
167.75,64,0.5,95.25,1,0,0,120.0,64,100,80
168.25,62,0.5,95.25,1,0,0,120.0,64,100,80
168.75,64,0.5,95.25,1,0,0,120.0,64,100,80
169.25,62,0.5,95.25,1,0,0,120.0,64,100,80
169.75,62,0.5,95.25,1,0,0,144.9,64,100,80
170.25,71,2.0,95.25,1,0,0,126.0,64,100,80
172.25,64,0.5,95.25,1,0,0,126.0,64,100,80
172.75,60,1.0,95.25,1,0,0,126.0,64,100,80
173.75,60,1.0,95.25,1,0,0,126.0,64,100,80
174.75,64,0.5,95.25,1,0,0,126.0,64,100,80
175.25,69,2.0,95.25,1,0,0,126.0,64,100,80
177.25,67,0.25,95.25,1,0,0,126.0,64,100,80
177.5,64,0.5,95.25,51,9,0,126.0,64,100,80
178.0,60,1.0,95.25,49,9,0,126.0,64,100,80
179.0,67,0.25,95.25,1,0,0,126.0,64,100,80
179.25,60,1.0,95.25,1,0,0,126.0,64,100,80
180.25,62,0.5,95.25,1,0,0,126.0,64,100,80
180.75,62,0.5,95.25,1,0,0,152.14499999999998,64,100,80
181.25,60,1.0,95.25,49,9,0,132.3,64,100,80
182.25,62,0.5,95.25,1,0,0,132.3,64,100,80
182.75,62,0.5,31.75,1,0,0,159.75225,64,100,80
183.25,67,0.25,31.75,1,0,0,138.91500000000002,64,100,80
183.5,67,0.25,31.75,1,0,0,138.91500000000002,64,100,80
183.75,64,0.5,31.75,49,9,0,138.91500000000002,64,100,80
184.25,64,0.5,31.75,51,9,0,138.91500000000002,64,100,80
184.75,64,1.0,31.75,50,9,0,138.91500000000002,64,100,80
185.75,64,1.0,31.75,1,0,0,138.91500000000002,64,100,80
186.75,59,1.0,31.75,1,0,0,138.91500000000002,64,100,80
187.75,68,2.0,31.75,1,0,0,138.91500000000002,64,100,80
189.75,61,0.5,31.75,1,0,0,138.91500000000002,64,100,80
190.25,68,2.0,31.75,1,0,0,138.91500000000002,64,100,80
192.25,66,0.25,31.75,1,0,0,138.91500000000002,64,100,80
192.5,68,2.0,52.91,1,0,0,138.91500000000002,64,100,80
194.5,63,0.5,52.91,1,0,0,138.91500000000002,64,100,80
195.0,66,0.25,52.91,1,0,0,138.91500000000002,64,100,80
195.25,64,1.0,52.91,50,9,0,138.91500000000002,64,100,80
196.25,64,1.0,52.91,1,0,0,138.91500000000002,64,100,80
197.25,68,2.0,52.91,1,0,0,138.91500000000002,64,100,80
199.25,59,1.0,52.91,1,0,0,138.91500000000002,64,100,80
200.25,63,0.5,52.91,1,0,0,138.91500000000002,64,100,80
200.75,63,0.5,52.91,1,0,0,167.73986250000002,64,100,80
201.25,68,2.0,52.91,1,0,0,145.86075000000002,64,100,80
203.25,70,2.0,52.91,1,0,0,145.86075000000002,64,100,80
205.25,63,0.5,52.91,1,0,0,145.86075000000002,64,100,80
205.75,68,2.0,74.08,1,0,0,145.86075000000002,64,100,80
207.75,68,2.0,74.08,1,0,0,176.12685562500005,64,100,80
209.75,61,0.5,74.08,1,0,0,153.15378750000005,64,100,80
210.25,63,0.5,74.08,1,0,0,153.15378750000005,64,100,80
210.75,63,0.5,74.08,1,0,0,153.15378750000005,64,100,80
211.25,61,0.5,74.08,1,0,0,153.15378750000005,64,100,80
211.75,59,1.0,74.08,50,9,0,153.15378750000005,64,100,80
212.75,0,1.0,74.08,49,9,0,120.0,64,100,80
213.75,64,0.5,74.08,1,0,0,120.0,64,100,80
214.25,60,1.0,74.08,1,0,0,120.0,64,100,80
215.25,62,0.5,74.08,1,0,0,120.0,64,100,80
215.75,65,1.0,74.08,1,0,0,120.0,64,100,80
216.75,64,0.5,42.33,1,0,0,120.0,64,100,80
217.25,60,1.0,42.33,1,0,0,120.0,64,100,80
218.25,0,1.0,42.33,49,9,0,120.0,64,100,80
219.25,67,0.25,42.33,1,0,0,120.0,64,100,80
219.5,60,1.0,42.33,1,0,0,120.0,64,100,80
220.5,69,2.0,42.33,1,0,0,120.0,64,100,80
222.5,65,1.0,42.33,1,0,0,120.0,64,100,80
223.5,69,2.0,42.33,1,0,0,120.0,64,100,80
225.5,62,0.5,42.33,1,0,0,120.0,64,100,80
226.0,65,1.0,42.33,1,0,0,120.0,64,100,80
227.0,60,1.0,42.33,1,0,0,120.0,64,100,80
228.0,60,1.0,42.33,1,0,0,120.0,64,100,80
229.0,64,0.5,74.08,1,0,0,120.0,64,100,80
229.5,62,0.5,74.08,1,0,0,120.0,64,100,80
230.0,69,2.0,74.08,1,0,0,120.0,64,100,80
232.0,60,1.0,74.08,1,0,0,120.0,64,100,80
233.0,60,1.0,74.08,1,0,0,120.0,64,100,80
234.0,60,1.0,74.08,1,0,0,144.9,64,100,80
235.0,62,0.5,74.08,1,0,0,126.0,64,100,80
235.5,60,1.0,74.08,1,0,0,126.0,64,100,80
236.5,64,0.5,74.08,1,0,0,126.0,64,100,80
237.0,0,1.0,74.08,49,9,0,120.0,64,100,80
238.0,64,0.5,74.08,1,0,0,120.0,64,100,80
238.5,69,2.0,74.08,1,0,0,120.0,64,100,80
240.5,65,1.0,42.33,1,0,0,120.0,64,100,80
241.5,60,1.0,42.33,1,0,0,120.0,64,100,80
242.5,62,0.5,42.33,1,0,0,120.0,64,100,80
243.0,64,0.5,42.33,1,0,0,120.0,64,100,80
243.5,67,0.25,42.33,1,0,0,120.0,64,100,80
243.75,62,0.5,42.33,1,0,0,120.0,64,100,80
244.25,64,0.5,42.33,1,0,0,120.0,64,100,80
244.75,60,1.0,42.33,1,0,0,120.0,64,100,80
245.75,64,0.5,42.33,1,0,0,120.0,64,100,80
246.25,65,1.0,42.33,1,0,0,120.0,64,100,80
247.25,65,1.0,42.33,1,0,0,144.9,64,100,80
248.25,65,1.0,42.33,1,0,0,126.0,64,100,80
249.25,65,1.0,74.08,1,0,0,126.0,64,100,80
250.25,60,1.0,74.08,1,0,0,126.0,64,100,80
251.25,69,2.0,74.08,1,0,0,126.0,64,100,80
253.25,64,0.5,74.08,1,0,0,126.0,64,100,80
253.75,62,0.5,74.08,50,9,0,126.0,64,100,80
254.25,62,0.5,74.08,1,0,0,126.0,64,100,80
254.75,64,0.5,74.08,1,0,0,126.0,64,100,80
255.25,69,2.0,74.08,1,0,0,126.0,64,100,80
257.25,64,0.5,74.08,1,0,0,126.0,64,100,80
257.75,65,1.0,74.08,1,0,0,126.0,64,100,80
258.75,64,0.5,74.08,1,0,0,126.0,64,100,80
259.25,69,2.0,74.08,1,0,0,126.0,64,100,80
261.25,60,1.0,74.08,1,0,0,126.0,64,100,80
262.25,60,1.0,74.08,1,0,0,126.0,64,100,80
263.25,71,2.0,74.08,1,0,0,126.0,64,100,80
265.25,60,1.0,74.08,50,9,0,126.0,64,100,80
266.25,0,1.0,74.08,49,9,0,120.0,64,100,80
267.25,60,1.0,74.08,1,0,0,120.0,64,100,80
268.25,69,2.0,74.08,1,0,0,120.0,64,100,80
270.25,67,0.25,74.08,1,0,0,120.0,64,100,80
270.5,71,2.0,74.08,1,0,0,120.0,64,100,80
272.5,64,0.5,74.08,1,0,0,120.0,64,100,80
273.0,62,0.5,74.08,1,0,0,120.0,64,100,80
273.5,71,2.0,74.08,1,0,0,120.0,64,100,80
275.5,60,1.0,74.08,1,0,0,120.0,64,100,80
276.5,60,1.0,74.08,1,0,0,120.0,64,100,80
277.5,0,1.0,74.08,49,9,0,120.0,64,100,80
278.5,60,1.0,74.08,1,0,0,120.0,64,100,80
279.5,0,1.0,74.08,49,9,0,120.0,64,100,80
280.5,69,2.0,74.08,1,0,0,120.0,64,100,80
282.5,64,0.5,74.08,1,0,0,120.0,64,100,80
283.0,64,0.5,74.08,1,0,0,120.0,64,100,80
283.5,60,1.0,74.08,1,0,0,120.0,64,100,80
284.5,71,2.0,74.08,40,9,0,120.0,64,100,80
286.5,60,1.0,74.08,1,0,0,120.0,64,100,80
287.5,67,0.25,74.08,1,0,0,120.0,64,100,80
287.75,60,1.0,74.08,1,0,0,120.0,64,100,80
288.75,60,1.0,74.08,1,0,0,120.0,64,100,80
289.75,60,1.0,74.08,1,0,0,144.9,64,100,80
290.75,62,0.5,74.08,1,0,0,126.0,64,100,80
291.25,62,0.5,74.08,1,0,0,152.14499999999998,64,100,80
291.75,60,1.0,74.08,50,9,0,132.3,64,100,80
292.75,62,0.5,74.08,1,0,0,132.3,64,100,80
293.25,67,0.25,74.08,1,0,0,132.3,64,100,80
293.5,60,1.0,74.08,1,0,0,132.3,64,100,80
294.5,60,1.0,74.08,1,0,0,159.75225,64,100,80
295.5,64,0.5,74.08,1,0,0,138.91500000000002,64,100,80
296.0,64,1.0,74.08,50,9,0,138.91500000000002,64,100,80
297.0,63,0.5,63.5,1,0,0,138.91500000000002,64,100,80
297.5,0,1.0,63.5,49,9,0,120.0,64,100,80
298.5,67,0.25,63.5,1,0,0,120.0,64,100,80
298.75,60,1.0,63.5,1,0,0,120.0,64,100,80
299.75,64,0.5,63.5,1,0,0,120.0,64,100,80
300.25,71,2.0,63.5,1,0,0,120.0,64,100,80
302.25,64,0.5,63.5,1,0,0,120.0,64,100,80
302.75,64,0.5,63.5,1,0,0,120.0,64,100,80
303.25,60,1.0,63.5,1,0,0,120.0,64,100,80
304.25,60,1.0,63.5,1,0,0,120.0,64,100,80
305.25,67,0.25,63.5,1,0,0,120.0,64,100,80
305.5,60,1.0,63.5,39,9,0,120.0,64,100,80
306.5,60,1.0,63.5,1,0,0,120.0,64,100,80
307.5,60,1.0,63.5,1,0,0,120.0,64,100,80
308.5,62,0.5,63.5,1,0,0,120.0,64,100,80
309.0,60,1.0,63.5,1,0,0,120.0,64,100,80
310.0,67,0.25,63.5,1,0,0,120.0,64,100,80
310.25,64,0.5,63.5,1,0,0,120.0,64,100,80
310.75,71,2.0,63.5,51,9,0,120.0,64,100,80
312.75,64,0.5,63.5,1,0,0,120.0,64,100,80
313.25,71,2.0,63.5,1,0,0,120.0,64,100,80
315.25,64,0.5,63.5,49,9,0,120.0,64,100,80
315.75,65,1.0,63.5,1,0,0,120.0,64,100,80
316.75,62,0.5,63.5,1,0,0,120.0,64,100,80
317.25,65,1.0,74.08,1,0,0,120.0,64,100,80
318.25,60,1.0,74.08,1,0,0,120.0,64,100,80
319.25,69,2.0,74.08,1,0,0,120.0,64,100,80
321.25,64,0.5,74.08,1,0,0,120.0,64,100,80
321.75,67,0.25,74.08,1,0,0,120.0,64,100,80
322.0,71,2.0,74.08,1,0,0,120.0,64,100,80
324.0,69,2.0,74.08,1,0,0,120.0,64,100,80
326.0,62,0.5,74.08,1,0,0,120.0,64,100,80
326.5,65,1.0,74.08,1,0,0,120.0,64,100,80
327.5,62,0.5,74.08,1,0,0,120.0,64,100,80
328.0,60,1.0,74.08,1,0,0,120.0,64,100,80
329.0,64,0.5,74.08,1,0,0,120.0,64,100,80
329.5,71,2.0,63.5,50,9,0,120.0,64,100,80
331.5,62,0.5,63.5,1,0,0,120.0,64,100,80
332.0,67,0.25,63.5,49,9,0,120.0,64,100,80
332.25,65,1.0,63.5,1,0,0,120.0,64,100,80
333.25,64,0.5,63.5,1,0,0,120.0,64,100,80
333.75,0,1.0,63.5,49,9,0,120.0,64,100,80
334.75,0,1.0,63.5,49,9,0,144.9,64,100,80
335.75,0,1.0,63.5,49,9,0,289.8,64,100,80
336.75,60,1.0,63.5,1,0,0,126.0,64,100,80
337.75,69,2.0,63.5,1,0,0,126.0,64,100,80
339.75,60,1.0,63.5,1,0,0,126.0,64,100,80
340.75,0,1.0,63.5,49,9,0,120.0,64,100,80
341.75,64,0.5,63.5,49,9,0,120.0,64,100,80
342.25,60,1.0,63.5,1,0,0,120.0,64,100,80
343.25,71,2.0,63.5,1,0,0,120.0,64,100,80
345.25,60,1.0,63.5,1,0,0,120.0,64,100,80
346.25,62,0.5,63.5,1,0,0,120.0,64,100,80
346.75,64,0.5,63.5,1,0,0,120.0,64,100,80
347.25,64,0.5,63.5,1,0,0,144.9,64,100,80
347.75,60,1.0,63.5,1,0,0,126.0,64,100,80
348.75,67,0.25,63.5,1,0,0,126.0,64,100,80
349.0,60,1.0,63.5,1,0,0,126.0,64,100,80
350.0,71,2.0,63.5,1,0,0,126.0,64,100,80
352.0,60,1.0,63.5,1,0,0,126.0,64,100,80
353.0,64,0.5,84.66,1,0,0,126.0,64,100,80
353.5,71,2.0,84.66,1,0,0,126.0,64,100,80
355.5,65,1.0,84.66,1,0,0,126.0,64,100,80
356.5,69,2.0,84.66,1,0,0,126.0,64,100,80
358.5,69,2.0,84.66,51,9,0,152.14499999999998,64,100,80
360.5,60,1.0,84.66,1,0,0,132.3,64,100,80
361.5,69,2.0,84.66,1,0,0,132.3,64,100,80
363.5,60,1.0,84.66,1,0,0,132.3,64,100,80
364.5,69,2.0,84.66,1,0,0,132.3,64,100,80
366.5,71,2.0,84.66,50,9,0,132.3,64,100,80
368.5,65,1.0,84.66,1,0,0,132.3,64,100,80
369.5,64,0.5,84.66,1,0,0,132.3,64,100,80
370.0,64,0.5,74.08,1,0,0,132.3,64,100,80
370.5,71,2.0,74.08,1,0,0,132.3,64,100,80
372.5,67,0.25,74.08,1,0,0,132.3,64,100,80
372.75,71,2.0,74.08,51,9,0,132.3,64,100,80
374.75,67,0.25,74.08,1,0,0,132.3,64,100,80
375.0,69,2.0,74.08,1,0,0,132.3,64,100,80
377.0,60,1.0,74.08,49,9,0,132.3,64,100,80
378.0,60,1.0,74.08,1,0,0,132.3,64,100,80
379.0,62,0.5,74.08,1,0,0,132.3,64,100,80
379.5,69,2.0,74.08,1,0,0,132.3,64,100,80
381.5,71,2.0,74.08,1,0,0,132.3,64,100,80
383.5,62,0.5,74.08,1,0,0,132.3,64,100,80
384.0,60,1.0,52.91,1,0,0,132.3,64,100,80
385.0,71,2.0,52.91,1,0,0,132.3,64,100,80
387.0,64,0.5,52.91,1,0,0,132.3,64,100,80
387.5,64,0.5,52.91,49,9,0,159.75225,64,100,80
388.0,62,0.5,52.91,1,0,0,138.91500000000002,64,100,80
388.5,60,1.0,52.91,1,0,0,138.91500000000002,64,100,80
389.5,69,2.0,52.91,50,9,0,138.91500000000002,64,100,80
391.5,62,0.5,52.91,1,0,0,138.91500000000002,64,100,80
392.0,60,1.0,52.91,1,0,0,138.91500000000002,64,100,80
393.0,71,2.0,52.91,1,0,0,138.91500000000002,64,100,80
395.0,69,2.0,52.91,1,0,0,138.91500000000002,64,100,80
397.0,62,0.5,52.91,1,0,0,138.91500000000002,64,100,80
397.5,69,2.0,42.33,1,0,0,138.91500000000002,64,100,80
399.5,64,0.5,42.33,1,0,0,138.91500000000002,64,100,80
400.0,62,0.5,42.33,1,0,0,138.91500000000002,64,100,80
400.5,62,0.5,42.33,1,0,0,138.91500000000002,64,100,80
401.0,71,2.0,42.33,1,0,0,138.91500000000002,64,100,80
403.0,60,1.0,42.33,1,0,0,138.91500000000002,64,100,80
404.0,71,2.0,42.33,1,0,0,138.91500000000002,64,100,80
406.0,65,1.0,42.33,1,0,0,138.91500000000002,64,100,80
407.0,0,1.0,42.33,49,9,0,120.0,64,100,80
408.0,69,2.0,42.33,1,0,0,120.0,64,100,80
410.0,60,1.0,42.33,1,0,0,120.0,64,100,80
411.0,64,0.5,42.33,1,0,0,120.0,64,100,80
411.5,60,1.0,95.25,1,0,0,120.0,64,100,80
412.5,69,2.0,95.25,1,0,0,120.0,64,100,80
414.5,60,1.0,95.25,1,0,0,120.0,64,100,80
415.5,64,0.5,95.25,1,0,0,120.0,64,100,80
416.0,65,1.0,95.25,1,0,0,120.0,64,100,80
417.0,69,2.0,95.25,1,0,0,120.0,64,100,80
419.0,69,2.0,95.25,1,0,0,144.9,64,100,80
421.0,60,1.0,95.25,1,0,0,126.0,64,100,80
422.0,60,1.0,95.25,1,0,0,126.0,64,100,80
423.0,62,0.5,95.25,1,0,0,126.0,64,100,80
423.5,64,0.5,95.25,1,0,0,126.0,64,100,80
424.0,64,0.5,95.25,1,0,0,126.0,64,100,80
424.5,64,0.5,74.08,50,9,0,152.14499999999998,64,100,80
425.0,69,2.0,74.08,1,0,0,132.3,64,100,80
427.0,65,1.0,74.08,1,0,0,132.3,64,100,80
428.0,60,1.0,74.08,1,0,0,132.3,64,100,80
429.0,69,2.0,74.08,1,0,0,132.3,64,100,80
431.0,62,0.5,74.08,1,0,0,132.3,64,100,80
431.5,62,0.5,74.08,1,0,0,132.3,64,100,80
432.0,62,0.5,74.08,1,0,0,159.75225,64,100,80
432.5,64,0.5,74.08,49,9,0,138.91500000000002,64,100,80
433.0,60,1.0,74.08,1,0,0,138.91500000000002,64,100,80
434.0,65,1.0,74.08,1,0,0,138.91500000000002,64,100,80
435.0,65,1.0,74.08,1,0,0,167.73986250000002,64,100,80
436.0,62,0.5,84.66,1,0,0,145.86075000000002,64,100,80
436.5,65,1.0,84.66,1,0,0,145.86075000000002,64,100,80
437.5,60,1.0,84.66,1,0,0,145.86075000000002,64,100,80
438.5,69,2.0,84.66,1,0,0,145.86075000000002,64,100,80
440.5,67,0.25,84.66,1,0,0,145.86075000000002,64,100,80
440.75,69,2.0,84.66,1,0,0,145.86075000000002,64,100,80
442.75,60,1.0,84.66,1,0,0,145.86075000000002,64,100,80
443.75,69,2.0,84.66,1,0,0,145.86075000000002,64,100,80
445.75,67,0.25,84.66,1,0,0,145.86075000000002,64,100,80
446.0,64,0.5,84.66,1,0,0,145.86075000000002,64,100,80
446.5,71,2.0,84.66,1,0,0,145.86075000000002,64,100,80
448.5,69,2.0,84.66,1,0,0,145.86075000000002,64,100,80
450.5,62,0.5,84.66,51,9,0,145.86075000000002,64,100,80
451.0,60,1.0,84.66,1,0,0,145.86075000000002,64,100,80
452.0,60,1.0,84.66,1,0,0,145.86075000000002,64,100,80
453.0,62,0.5,84.66,1,0,0,145.86075000000002,64,100,80
453.5,60,1.0,84.66,1,0,0,145.86075000000002,64,100,80
454.5,64,0.5,84.66,1,0,0,145.86075000000002,64,100,80
455.0,71,2.0,84.66,1,0,0,145.86075000000002,64,100,80
457.0,62,0.5,84.66,1,0,0,145.86075000000002,64,100,80
457.5,60,1.0,84.66,1,0,0,145.86075000000002,64,100,80
458.5,60,1.0,84.66,1,0,0,176.12685562500005,64,100,80
459.5,60,1.0,84.66,1,0,0,369.86639681250006,64,100,80
460.5,60,1.0,84.66,1,0,0,160.81147687500004,64,100,80
461.5,60,1.0,63.5,1,0,0,160.81147687500004,64,100,80
462.5,64,0.5,63.5,1,0,0,160.81147687500004,64,100,80
463.0,67,0.25,63.5,1,0,0,160.81147687500004,64,100,80
463.25,67,0.25,63.5,1,0,0,160.81147687500004,64,100,80
463.5,60,1.0,63.5,50,9,0,160.81147687500004,64,100,80
464.5,62,0.5,63.5,1,0,0,160.81147687500004,64,100,80
465.0,67,0.25,63.5,1,0,0,160.81147687500004,64,100,80
465.25,60,1.0,63.5,1,0,0,160.81147687500004,64,100,80
466.25,69,2.0,63.5,1,0,0,160.81147687500004,64,100,80
468.25,67,0.25,63.5,1,0,0,160.81147687500004,64,100,80
468.5,64,0.5,63.5,49,9,0,160.81147687500004,64,100,80
469.0,64,0.5,63.5,49,9,0,160.81147687500004,64,100,80
469.5,62,0.5,95.25,1,0,0,160.81147687500004,64,100,80
470.0,69,2.0,95.25,1,0,0,160.81147687500004,64,100,80
472.0,60,1.0,95.25,1,0,0,160.81147687500004,64,100,80
473.0,67,0.25,95.25,1,0,0,160.81147687500004,64,100,80
473.25,71,2.0,95.25,1,0,0,160.81147687500004,64,100,80
475.25,64,0.5,95.25,1,0,0,160.81147687500004,64,100,80
475.75,62,0.5,95.25,50,9,0,160.81147687500004,64,100,80
476.25,62,0.5,95.25,1,0,0,160.81147687500004,64,100,80
476.75,64,0.5,95.25,1,0,0,160.81147687500004,64,100,80
477.25,69,2.0,95.25,1,0,0,160.81147687500004,64,100,80
479.25,60,1.0,95.25,1,0,0,160.81147687500004,64,100,80
480.25,62,0.5,95.25,1,0,0,160.81147687500004,64,100,80
480.75,62,0.5,74.08,1,0,0,160.81147687500004,64,100,80
481.25,0,1.0,74.08,49,9,0,120.0,64,100,80
482.25,64,0.5,74.08,1,0,0,120.0,64,100,80
482.75,69,2.0,74.08,1,0,0,120.0,64,100,80
484.75,0,1.0,74.08,49,9,0,120.0,64,100,80
485.75,64,0.5,74.08,1,0,0,120.0,64,100,80
486.25,69,2.0,74.08,1,0,0,120.0,64,100,80
488.25,60,1.0,74.08,1,0,0,120.0,64,100,80
489.25,60,1.0,74.08,1,0,0,144.9,64,100,80
490.25,71,2.0,74.08,1,0,0,126.0,64,100,80
492.25,67,0.25,74.08,1,0,0,126.0,64,100,80
492.5,69,2.0,74.08,49,9,0,126.0,64,100,80
494.5,65,1.0,84.66,1,0,0,126.0,64,100,80
495.5,60,1.0,84.66,1,0,0,126.0,64,100,80
496.5,62,0.5,84.66,1,0,0,126.0,64,100,80
497.0,62,0.5,84.66,1,0,0,126.0,64,100,80
497.5,67,0.25,84.66,1,0,0,126.0,64,100,80
497.75,69,2.0,84.66,1,0,0,126.0,64,100,80
499.75,69,2.0,84.66,1,0,0,126.0,64,100,80
501.75,69,2.0,84.66,1,0,0,126.0,64,100,80
503.75,64,0.5,84.66,1,0,0,126.0,64,100,80
504.25,62,0.5,84.66,1,0,0,126.0,64,100,80
504.75,64,0.5,84.66,1,0,0,126.0,64,100,80
505.25,60,1.0,84.66,50,9,0,126.0,64,100,80
506.25,67,0.25,84.66,1,0,0,126.0,64,100,80
506.5,60,1.0,84.66,49,9,0,126.0,64,100,80
507.5,65,1.0,84.66,1,0,0,126.0,64,100,80
508.5,60,1.0,84.66,1,0,0,126.0,64,100,80
509.5,60,1.0,84.66,1,0,0,126.0,64,100,80
510.5,0,1.0,84.66,49,9,0,120.0,64,100,80
511.5,62,0.5,84.66,1,0,0,120.0,64,100,80
512.0,62,0.5,84.66,1,0,0,120.0,64,100,80
512.5,0,1.0,84.66,49,9,0,120.0,64,100,80
513.5,69,2.0,84.66,1,0,0,120.0,64,100,80
515.5,60,1.0,84.66,1,0,0,120.0,64,100,80
516.5,69,2.0,84.66,1,0,0,120.0,64,100,80
518.5,64,0.5,31.75,1,0,0,120.0,64,100,80
519.0,69,2.0,31.75,1,0,0,120.0,64,100,80
521.0,62,0.5,31.75,1,0,0,120.0,64,100,80
521.5,60,1.0,31.75,1,0,0,120.0,64,100,80
522.5,64,0.5,31.75,1,0,0,120.0,64,100,80
523.0,65,1.0,31.75,49,9,0,120.0,64,100,80
524.0,64,0.5,31.75,1,0,0,120.0,64,100,80
524.5,60,1.0,31.75,1,0,0,120.0,64,100,80
525.5,0,1.0,31.75,49,9,0,120.0,64,100,80
526.5,62,0.5,31.75,1,0,0,120.0,64,100,80
527.0,60,1.0,31.75,1,0,0,120.0,64,100,80
528.0,64,0.5,31.75,1,0,0,120.0,64,100,80
528.5,65,1.0,42.33,1,0,0,120.0,64,100,80
529.5,65,1.0,42.33,1,0,0,144.9,64,100,80
530.5,60,1.0,42.33,1,0,0,126.0,64,100,80
531.5,64,0.5,42.33,1,0,0,126.0,64,100,80
532.0,65,1.0,42.33,1,0,0,126.0,64,100,80
533.0,64,0.5,42.33,1,0,0,126.0,64,100,80
533.5,62,0.5,42.33,50,9,0,126.0,64,100,80
534.0,67,0.25,42.33,1,0,0,126.0,64,100,80
534.25,62,0.5,42.33,1,0,0,126.0,64,100,80
534.75,62,0.5,42.33,1,0,0,126.0,64,100,80
535.25,60,1.0,42.33,1,0,0,126.0,64,100,80
536.25,0,1.0,42.33,49,9,0,120.0,64,100,80
537.25,67,0.25,42.33,1,0,0,120.0,64,100,80
537.5,64,0.5,42.33,1,0,0,120.0,64,100,80
538.0,60,1.0,42.33,1,0,0,120.0,64,100,80
539.0,62,0.5,42.33,1,0,0,120.0,64,100,80
539.5,62,0.5,42.33,1,0,0,144.9,64,100,80
540.0,65,1.0,42.33,1,0,0,126.0,64,100,80
541.0,64,0.5,42.33,1,0,0,126.0,64,100,80
541.5,65,1.0,42.33,1,0,0,126.0,64,100,80
542.5,62,0.5,42.33,1,0,0,126.0,64,100,80
543.0,60,1.0,42.33,1,0,0,126.0,64,100,80
544.0,64,0.5,42.33,1,0,0,126.0,64,100,80
544.5,0,1.0,42.33,49,9,0,120.0,64,100,80
545.5,62,0.5,42.33,1,0,0,120.0,64,100,80
546.0,60,1.0,42.33,50,9,0,120.0,64,100,80
547.0,62,0.5,42.33,1,0,0,120.0,64,100,80
547.5,71,2.0,42.33,1,0,0,120.0,64,100,80
549.5,69,2.0,42.33,1,0,0,120.0,64,100,80
551.5,62,0.5,42.33,1,0,0,120.0,64,100,80
552.0,64,0.5,42.33,1,0,0,120.0,64,100,80
552.5,67,0.25,42.33,1,0,0,120.0,64,100,80
552.75,71,2.0,42.33,1,0,0,120.0,64,100,80
554.75,62,0.5,42.33,1,0,0,120.0,64,100,80
555.25,62,0.5,42.33,1,0,0,144.9,64,100,80
555.75,60,1.0,42.33,1,0,0,126.0,64,100,80
556.75,64,0.5,74.08,1,0,0,126.0,64,100,80
557.25,64,0.5,74.08,1,0,0,152.14499999999998,64,100,80
557.75,64,0.5,74.08,1,0,0,319.5045,64,100,80
558.25,69,2.0,74.08,1,0,0,138.91500000000002,64,100,80
560.25,0,1.0,74.08,49,9,0,120.0,64,100,80
561.25,60,1.0,74.08,1,0,0,120.0,64,100,80
562.25,62,0.5,74.08,1,0,0,120.0,64,100,80
562.75,69,2.0,74.08,1,0,0,120.0,64,100,80
564.75,71,2.0,74.08,1,0,0,120.0,64,100,80
566.75,64,0.5,74.08,1,0,0,120.0,64,100,80
567.25,67,0.25,74.08,51,9,0,120.0,64,100,80
567.5,71,2.0,74.08,50,9,0,120.0,64,100,80
569.5,62,0.5,63.5,1,0,0,120.0,64,100,80
570.0,71,2.0,63.5,1,0,0,120.0,64,100,80
572.0,0,1.0,63.5,49,9,0,120.0,64,100,80
573.0,62,0.5,63.5,1,0,0,120.0,64,100,80
573.5,65,1.0,63.5,1,0,0,120.0,64,100,80
574.5,71,2.0,63.5,1,0,0,120.0,64,100,80
576.5,62,0.5,63.5,1,0,0,120.0,64,100,80
577.0,65,1.0,63.5,1,0,0,120.0,64,100,80
578.0,71,2.0,63.5,1,0,0,120.0,64,100,80
580.0,60,1.0,63.5,1,0,0,120.0,64,100,80
581.0,64,0.5,63.5,49,9,0,120.0,64,100,80
581.5,64,0.5,63.5,1,0,0,120.0,64,100,80
582.0,65,1.0,74.08,1,0,0,120.0,64,100,80
583.0,64,0.5,74.08,1,0,0,120.0,64,100,80
583.5,60,1.0,74.08,1,0,0,120.0,64,100,80
584.5,64,0.5,74.08,1,0,0,120.0,64,100,80
585.0,64,0.5,74.08,1,0,0,120.0,64,100,80
585.5,60,1.0,74.08,1,0,0,120.0,64,100,80
586.5,65,1.0,74.08,1,0,0,120.0,64,100,80
587.5,71,2.0,74.08,1,0,0,120.0,64,100,80
589.5,64,0.5,74.08,50,9,0,120.0,64,100,80
590.0,0,1.0,74.08,49,9,0,120.0,64,100,80
591.0,62,0.5,74.08,1,0,0,120.0,64,100,80
591.5,65,1.0,74.08,1,0,0,120.0,64,100,80
592.5,62,0.5,74.08,1,0,0,120.0,64,100,80
593.0,65,1.0,74.08,1,0,0,120.0,64,100,80
594.0,71,2.0,74.08,1,0,0,120.0,64,100,80
596.0,60,1.0,74.08,1,0,0,120.0,64,100,80
597.0,65,1.0,74.08,1,0,0,120.0,64,100,80
598.0,62,0.5,74.08,1,0,0,120.0,64,100,80
598.5,65,1.0,74.08,1,0,0,120.0,64,100,80
599.5,62,0.5,74.08,1,0,0,120.0,64,100,80
600.0,62,0.5,74.08,1,0,0,144.9,64,100,80
600.5,0,1.0,74.08,49,9,0,120.0,64,100,80
601.5,62,0.5,74.08,1,0,0,120.0,64,100,80
602.0,60,1.0,74.08,1,0,0,120.0,64,100,80
603.0,65,1.0,84.66,49,9,0,120.0,64,100,80
604.0,64,1.0,84.66,50,9,0,120.0,64,100,80
605.0,59,1.0,84.66,1,0,0,120.0,64,100,80
606.0,0,1.0,84.66,49,9,0,120.0,64,100,80
607.0,62,0.5,84.66,1,0,0,120.0,64,100,80
607.5,64,0.5,84.66,1,0,0,120.0,64,100,80
608.0,60,1.0,84.66,1,0,0,120.0,64,100,80
609.0,64,0.5,84.66,1,0,0,120.0,64,100,80
609.5,60,1.0,84.66,1,0,0,120.0,64,100,80
610.5,62,0.5,84.66,1,0,0,120.0,64,100,80
611.0,67,0.25,84.66,1,0,0,120.0,64,100,80
611.25,69,2.0,84.66,1,0,0,120.0,64,100,80
613.25,60,1.0,52.91,1,0,0,120.0,64,100,80
614.25,60,1.0,52.91,1,0,0,120.0,64,100,80
615.25,62,0.5,52.91,1,0,0,120.0,64,100,80
615.75,64,0.5,52.91,1,0,0,120.0,64,100,80
616.25,62,0.5,52.91,1,0,0,120.0,64,100,80
616.75,67,0.25,52.91,51,9,0,120.0,64,100,80
617.0,67,0.25,52.91,1,0,0,144.9,64,100,80
617.25,69,2.0,52.91,1,0,0,126.0,64,100,80
619.25,60,1.0,52.91,1,0,0,126.0,64,100,80
620.25,69,2.0,52.91,1,0,0,126.0,64,100,80
622.25,64,0.5,52.91,1,0,0,126.0,64,100,80
622.75,64,0.5,52.91,49,9,0,152.14499999999998,64,100,80
623.25,64,0.5,63.5,1,0,0,132.3,64,100,80
623.75,65,1.0,63.5,1,0,0,132.3,64,100,80
624.75,62,0.5,63.5,1,0,0,132.3,64,100,80
625.25,60,1.0,63.5,1,0,0,132.3,64,100,80
626.25,69,2.0,63.5,1,0,0,132.3,64,100,80
628.25,64,0.5,63.5,1,0,0,132.3,64,100,80
628.75,64,0.5,63.5,1,0,0,159.75225,64,100,80
629.25,60,1.0,63.5,1,0,0,138.91500000000002,64,100,80
630.25,65,1.0,63.5,1,0,0,138.91500000000002,64,100,80
631.25,65,1.0,63.5,49,9,0,167.73986250000002,64,100,80
632.25,62,0.5,63.5,1,0,0,145.86075000000002,64,100,80
632.75,65,1.0,63.5,1,0,0,145.86075000000002,64,100,80
633.75,69,2.0,52.91,1,0,0,145.86075000000002,64,100,80
635.75,62,0.5,52.91,1,0,0,145.86075000000002,64,100,80
636.25,69,2.0,52.91,1,0,0,145.86075000000002,64,100,80
638.25,62,0.5,52.91,1,0,0,145.86075000000002,64,100,80
638.75,65,1.0,52.91,1,0,0,145.86075000000002,64,100,80
639.75,64,0.5,52.91,1,0,0,145.86075000000002,64,100,80
640.25,62,0.5,52.91,1,0,0,145.86075000000002,64,100,80
640.75,65,1.0,52.91,1,0,0,145.86075000000002,64,100,80
641.75,60,1.0,52.91,1,0,0,145.86075000000002,64,100,80
642.75,62,0.5,52.91,1,0,0,145.86075000000002,64,100,80
643.25,64,0.5,52.91,1,0,0,145.86075000000002,64,100,80
643.75,64,1.0,52.91,50,9,0,145.86075000000002,64,100,80
644.75,64,1.0,95.25,49,9,0,145.86075000000002,64,100,80
645.75,66,0.25,95.25,1,0,0,145.86075000000002,64,100,80
646.0,59,1.0,95.25,1,0,0,145.86075000000002,64,100,80
647.0,68,2.0,95.25,1,0,0,145.86075000000002,64,100,80
649.0,61,0.5,95.25,1,0,0,145.86075000000002,64,100,80
649.5,59,1.0,95.25,1,0,0,145.86075000000002,64,100,80
650.5,64,1.0,95.25,49,9,0,145.86075000000002,64,100,80
651.5,59,1.0,95.25,1,0,0,145.86075000000002,64,100,80
652.5,66,0.25,95.25,1,0,0,145.86075000000002,64,100,80
652.75,61,0.5,95.25,1,0,0,145.86075000000002,64,100,80
653.25,61,0.5,95.25,49,9,0,176.12685562500005,64,100,80
653.75,66,0.25,95.25,1,0,0,153.15378750000005,64,100,80
654.0,59,1.0,74.08,1,0,0,153.15378750000005,64,100,80
655.0,66,0.25,74.08,1,0,0,153.15378750000005,64,100,80
655.25,68,2.0,74.08,1,0,0,153.15378750000005,64,100,80
657.25,59,1.0,74.08,1,0,0,153.15378750000005,64,100,80
658.25,64,1.0,74.08,1,0,0,153.15378750000005,64,100,80
659.25,63,0.5,74.08,49,9,0,153.15378750000005,64,100,80
659.75,59,1.0,74.08,1,0,0,153.15378750000005,64,100,80
660.75,66,0.25,74.08,1,0,0,153.15378750000005,64,100,80
661.0,64,1.0,74.08,1,0,0,153.15378750000005,64,100,80
662.0,64,1.0,74.08,1,0,0,184.93319840625003,64,100,80
663.0,68,2.0,74.08,49,9,0,160.81147687500004,64,100,80
665.0,63,0.5,74.08,1,0,0,160.81147687500004,64,100,80
665.5,0,1.0,95.25,49,9,0,120.0,64,100,80
666.5,62,0.5,95.25,1,0,0,120.0,64,100,80
667.0,62,0.5,95.25,1,0,0,144.9,64,100,80
667.5,62,0.5,95.25,1,0,0,304.28999999999996,64,100,80
668.0,65,1.0,95.25,1,0,0,132.3,64,100,80
669.0,67,0.25,95.25,1,0,0,132.3,64,100,80
669.25,64,0.5,95.25,49,9,0,132.3,64,100,80
669.75,62,0.5,95.25,1,0,0,132.3,64,100,80
670.25,64,0.5,95.25,1,0,0,132.3,64,100,80
670.75,0,1.0,95.25,49,9,0,120.0,64,100,80
671.75,64,0.5,95.25,1,0,0,120.0,64,100,80
672.25,60,1.0,95.25,1,0,0,120.0,64,100,80
673.25,64,0.5,105.83,1,0,0,120.0,64,100,80
673.75,62,0.5,105.83,1,0,0,120.0,64,100,80
674.25,62,0.5,105.83,1,0,0,144.9,64,100,80
674.75,69,2.0,105.83,1,0,0,126.0,64,100,80
676.75,62,0.5,105.83,1,0,0,126.0,64,100,80
677.25,65,1.0,105.83,1,0,0,126.0,64,100,80
678.25,69,2.0,105.83,1,0,0,126.0,64,100,80
680.25,60,1.0,105.83,1,0,0,126.0,64,100,80
681.25,60,1.0,105.83,1,0,0,152.14499999999998,64,100,80
682.25,71,2.0,105.83,1,0,0,132.3,64,100,80
684.25,62,0.5,105.83,1,0,0,132.3,64,100,80
684.75,64,0.5,105.83,1,0,0,132.3,64,100,80
685.25,62,0.5,52.91,1,0,0,132.3,64,100,80
685.75,71,2.0,52.91,50,9,0,132.3,64,100,80
687.75,60,1.0,52.91,1,0,0,132.3,64,100,80
688.75,67,0.25,52.91,1,0,0,132.3,64,100,80
689.0,60,1.0,52.91,1,0,0,132.3,64,100,80
690.0,69,2.0,52.91,51,9,0,132.3,64,100,80
692.0,60,1.0,52.91,1,0,0,132.3,64,100,80
693.0,62,0.5,52.91,1,0,0,132.3,64,100,80
693.5,65,1.0,52.91,49,9,0,132.3,64,100,80
694.5,67,0.25,52.91,1,0,0,132.3,64,100,80
694.75,64,0.5,52.91,1,0,0,132.3,64,100,80
695.25,62,0.5,52.91,1,0,0,132.3,64,100,80
695.75,67,0.25,63.5,1,0,0,132.3,64,100,80
696.0,69,2.0,63.5,1,0,0,132.3,64,100,80
698.0,60,1.0,63.5,1,0,0,132.3,64,100,80
699.0,62,0.5,63.5,1,0,0,132.3,64,100,80
699.5,62,0.5,63.5,1,0,0,159.75225,64,100,80
700.0,64,0.5,63.5,1,0,0,138.91500000000002,64,100,80
700.5,60,1.0,63.5,1,0,0,138.91500000000002,64,100,80
701.5,60,1.0,63.5,1,0,0,167.73986250000002,64,100,80
702.5,64,1.0,63.5,49,9,0,145.86075000000002,64,100,80
703.5,66,0.25,63.5,1,0,0,145.86075000000002,64,100,80
703.75,61,0.5,63.5,1,0,0,145.86075000000002,64,100,80
704.25,63,0.5,63.5,1,0,0,145.86075000000002,64,100,80
704.75,59,1.0,52.91,1,0,0,145.86075000000002,64,100,80
705.75,61,0.5,52.91,1,0,0,145.86075000000002,64,100,80
706.25,64,1.0,52.91,50,9,0,145.86075000000002,64,100,80
707.25,68,2.0,52.91,1,0,0,145.86075000000002,64,100,80
709.25,66,0.25,52.91,1,0,0,145.86075000000002,64,100,80
709.5,61,0.5,52.91,1,0,0,145.86075000000002,64,100,80
710.0,61,0.5,52.91,1,0,0,145.86075000000002,64,100,80
710.5,61,0.5,52.91,1,0,0,176.12685562500005,64,100,80
711.0,61,0.5,52.91,1,0,0,369.86639681250006,64,100,80
711.5,63,0.5,52.91,51,9,0,160.81147687500004,64,100,80
712.0,64,1.0,52.91,49,9,0,160.81147687500004,64,100,80
713.0,63,0.5,52.91,1,0,0,160.81147687500004,64,100,80
713.5,63,0.5,63.5,1,0,0,160.81147687500004,64,100,80
714.0,59,1.0,63.5,1,0,0,160.81147687500004,64,100,80
715.0,63,0.5,63.5,1,0,0,160.81147687500004,64,100,80
715.5,64,1.0,63.5,1,0,0,160.81147687500004,64,100,80
716.5,61,0.5,63.5,1,0,0,160.81147687500004,64,100,80
717.0,61,0.5,63.5,1,0,0,194.17985832656254,64,100,80
717.5,64,1.0,63.5,49,9,0,168.85205071875006,64,100,80
718.5,63,0.5,63.5,1,0,0,168.85205071875006,64,100,80
719.0,64,1.0,63.5,49,9,0,168.85205071875006,64,100,80
720.0,63,0.5,63.5,51,9,0,168.85205071875006,64,100,80
720.5,59,1.0,63.5,1,0,0,168.85205071875006,64,100,80
721.5,66,0.25,63.5,1,0,0,168.85205071875006,64,100,80
721.75,66,0.25,95.25,1,0,0,168.85205071875006,64,100,80
722.0,63,0.5,95.25,1,0,0,168.85205071875006,64,100,80
722.5,0,1.0,95.25,49,9,0,120.0,64,100,80
723.5,62,0.5,95.25,1,0,0,120.0,64,100,80
724.0,64,0.5,95.25,1,0,0,120.0,64,100,80
724.5,64,0.5,95.25,1,0,0,120.0,64,100,80
725.0,62,0.5,95.25,1,0,0,120.0,64,100,80
725.5,64,1.0,95.25,50,9,0,120.0,64,100,80
726.5,63,0.5,95.25,1,0,0,120.0,64,100,80
727.0,68,2.0,95.25,1,0,0,120.0,64,100,80
729.0,59,1.0,95.25,1,0,0,120.0,64,100,80
730.0,63,0.5,95.25,1,0,0,120.0,64,100,80
730.5,61,0.5,63.5,1,0,0,120.0,64,100,80
731.0,66,0.25,63.5,1,0,0,120.0,64,100,80
731.25,64,1.0,63.5,1,0,0,120.0,64,100,80
732.25,0,1.0,63.5,49,9,0,120.0,64,100,80
733.25,0,1.0,63.5,49,9,0,144.9,64,100,80
734.25,65,1.0,63.5,1,0,0,126.0,64,100,80
735.25,71,2.0,63.5,1,0,0,126.0,64,100,80
737.25,69,2.0,63.5,1,0,0,126.0,64,100,80
739.25,60,1.0,63.5,1,0,0,126.0,64,100,80
740.25,60,1.0,63.5,1,0,0,152.14499999999998,64,100,80
741.25,60,1.0,63.5,1,0,0,132.3,64,100,80
742.25,62,0.5,63.5,1,0,0,132.3,64,100,80
742.75,69,2.0,63.5,1,0,0,132.3,64,100,80
744.75,62,0.5,63.5,1,0,0,132.3,64,100,80
745.25,69,2.0,63.5,1,0,0,132.3,64,100,80
747.25,64,0.5,63.5,1,0,0,132.3,64,100,80
747.75,60,1.0,63.5,1,0,0,132.3,64,100,80
748.75,64,1.0,63.5,50,9,0,132.3,64,100,80
749.75,64,1.0,63.5,1,0,0,132.3,64,100,80
750.75,0,1.0,63.5,49,9,0,120.0,64,100,80
751.75,60,1.0,63.5,1,0,0,120.0,64,100,80
752.75,67,0.25,63.5,1,0,0,120.0,64,100,80
753.0,60,1.0,63.5,1,0,0,120.0,64,100,80
754.0,65,1.0,63.5,1,0,0,120.0,64,100,80
755.0,62,0.5,74.08,1,0,0,120.0,64,100,80
755.5,60,1.0,74.08,1,0,0,120.0,64,100,80
756.5,69,2.0,74.08,1,0,0,120.0,64,100,80
758.5,62,0.5,74.08,1,0,0,120.0,64,100,80
759.0,60,1.0,74.08,1,0,0,120.0,64,100,80
760.0,64,0.5,74.08,1,0,0,120.0,64,100,80
760.5,71,2.0,74.08,1,0,0,120.0,64,100,80
762.5,60,1.0,74.08,1,0,0,120.0,64,100,80
763.5,60,1.0,74.08,1,0,0,120.0,64,100,80
764.5,65,1.0,74.08,49,9,0,120.0,64,100,80
765.5,64,0.5,74.08,1,0,0,120.0,64,100,80
766.0,67,0.25,74.08,1,0,0,120.0,64,100,80
766.25,69,2.0,74.08,1,0,0,120.0,64,100,80
768.25,65,1.0,74.08,1,0,0,120.0,64,100,80
769.25,69,2.0,74.08,1,0,0,120.0,64,100,80
771.25,64,0.5,74.08,1,0,0,120.0,64,100,80
771.75,0,1.0,74.08,49,9,0,120.0,64,100,80
772.75,69,2.0,74.08,1,0,0,120.0,64,100,80
774.75,60,1.0,74.08,1,0,0,120.0,64,100,80
775.75,60,1.0,74.08,1,0,0,120.0,64,100,80
776.75,62,0.5,74.08,1,0,0,120.0,64,100,80
777.25,65,1.0,74.08,1,0,0,120.0,64,100,80
778.25,60,1.0,74.08,1,0,0,120.0,64,100,80
779.25,64,1.0,74.08,50,9,0,120.0,64,100,80
780.25,63,0.5,63.5,1,0,0,120.0,64,100,80
780.75,59,1.0,63.5,1,0,0,120.0,64,100,80
781.75,66,0.25,63.5,1,0,0,120.0,64,100,80
782.0,63,0.5,63.5,1,0,0,120.0,64,100,80
782.5,61,0.5,63.5,1,0,0,120.0,64,100,80
783.0,63,0.5,63.5,1,0,0,120.0,64,100,80
783.5,59,1.0,63.5,1,0,0,120.0,64,100,80
784.5,66,0.25,63.5,1,0,0,120.0,64,100,80
784.75,64,1.0,63.5,1,0,0,120.0,64,100,80
785.75,68,2.0,63.5,1,0,0,120.0,64,100,80
787.75,63,0.5,63.5,49,9,0,120.0,64,100,80
788.25,61,0.5,63.5,1,0,0,120.0,64,100,80
788.75,61,0.5,74.08,1,0,0,144.9,64,100,80
789.25,66,0.25,74.08,1,0,0,126.0,64,100,80
789.5,63,0.5,74.08,1,0,0,126.0,64,100,80
790.0,0,1.0,74.08,49,9,0,120.0,64,100,80
791.0,67,0.25,74.08,1,0,0,120.0,64,100,80
791.25,64,0.5,74.08,1,0,0,120.0,64,100,80
791.75,64,0.5,74.08,1,0,0,144.9,64,100,80
792.25,64,0.5,74.08,1,0,0,304.28999999999996,64,100,80
792.75,62,0.5,74.08,1,0,0,132.3,64,100,80
793.25,65,1.0,74.08,49,9,0,132.3,64,100,80
794.25,65,1.0,74.08,1,0,0,159.75225,64,100,80
795.25,69,2.0,74.08,1,0,0,138.91500000000002,64,100,80
797.25,60,1.0,74.08,1,0,0,138.91500000000002,64,100,80
798.25,65,1.0,74.08,49,9,0,138.91500000000002,64,100,80
799.25,60,1.0,74.08,1,0,0,138.91500000000002,64,100,80
800.25,62,0.5,74.08,1,0,0,138.91500000000002,64,100,80
800.75,69,2.0,74.08,1,0,0,138.91500000000002,64,100,80
802.75,71,2.0,74.08,50,9,0,138.91500000000002,64,100,80
804.75,65,1.0,74.08,1,0,0,138.91500000000002,64,100,80
805.75,64,0.5,74.08,1,0,0,138.91500000000002,64,100,80
806.25,62,0.5,74.08,1,0,0,138.91500000000002,64,100,80
806.75,60,1.0,74.08,1,0,0,138.91500000000002,64,100,80
807.75,65,1.0,74.08,1,0,0,138.91500000000002,64,100,80
808.75,62,0.5,74.08,1,0,0,138.91500000000002,64,100,80
809.25,69,2.0,31.75,1,0,0,138.91500000000002,64,100,80
811.25,69,2.0,31.75,1,0,0,167.73986250000002,64,100,80
813.25,60,1.0,31.75,1,0,0,145.86075000000002,64,100,80
814.25,60,1.0,31.75,1,0,0,145.86075000000002,64,100,80
815.25,71,2.0,31.75,1,0,0,145.86075000000002,64,100,80
817.25,64,0.5,31.75,50,9,0,145.86075000000002,64,100,80
817.75,60,1.0,31.75,1,0,0,145.86075000000002,64,100,80
818.75,69,2.0,31.75,1,0,0,145.86075000000002,64,100,80
820.75,64,1.0,31.75,50,9,0,145.86075000000002,64,100,80
821.75,70,2.0,31.75,1,0,0,145.86075000000002,64,100,80
823.75,63,0.5,31.75,1,0,0,145.86075000000002,64,100,80
824.25,59,1.0,31.75,1,0,0,145.86075000000002,64,100,80
825.25,63,0.5,95.25,1,0,0,145.86075000000002,64,100,80
825.75,68,2.0,95.25,1,0,0,145.86075000000002,64,100,80
827.75,59,1.0,95.25,1,0,0,145.86075000000002,64,100,80
828.75,68,2.0,95.25,1,0,0,145.86075000000002,64,100,80
830.75,59,1.0,95.25,1,0,0,145.86075000000002,64,100,80
831.75,68,2.0,95.25,1,0,0,145.86075000000002,64,100,80
833.75,70,2.0,95.25,1,0,0,145.86075000000002,64,100,80
835.75,59,1.0,95.25,1,0,0,145.86075000000002,64,100,80
836.75,61,0.5,95.25,1,0,0,145.86075000000002,64,100,80
837.25,59,1.0,95.25,1,0,0,145.86075000000002,64,100,80
838.25,64,1.0,95.25,50,9,0,145.86075000000002,64,100,80
839.25,63,0.5,95.25,1,0,0,145.86075000000002,64,100,80
839.75,59,1.0,42.33,49,9,0,145.86075000000002,64,100,80
840.75,63,0.5,42.33,1,0,0,145.86075000000002,64,100,80
841.25,59,1.0,42.33,1,0,0,145.86075000000002,64,100,80
842.25,66,0.25,42.33,1,0,0,145.86075000000002,64,100,80
842.5,63,0.5,42.33,1,0,0,145.86075000000002,64,100,80
843.0,61,0.5,42.33,1,0,0,145.86075000000002,64,100,80
843.5,66,0.25,42.33,1,0,0,145.86075000000002,64,100,80
843.75,0,1.0,42.33,49,9,0,120.0,64,100,80
844.75,69,2.0,42.33,1,0,0,120.0,64,100,80
846.75,67,0.25,42.33,1,0,0,120.0,64,100,80
847.0,60,1.0,42.33,1,0,0,120.0,64,100,80
848.0,64,1.0,42.33,49,9,0,120.0,64,100,80
849.0,63,0.5,63.5,1,0,0,120.0,64,100,80
849.5,59,1.0,63.5,1,0,0,120.0,64,100,80
850.5,59,1.0,63.5,1,0,0,120.0,64,100,80
851.5,59,1.0,63.5,1,0,0,120.0,64,100,80
852.5,66,0.25,63.5,49,9,0,120.0,64,100,80
852.75,63,0.5,63.5,1,0,0,120.0,64,100,80
853.25,63,0.5,63.5,1,0,0,120.0,64,100,80
853.75,63,0.5,63.5,49,9,0,120.0,64,100,80
854.25,61,0.5,63.5,1,0,0,120.0,64,100,80
854.75,66,0.25,63.5,1,0,0,120.0,64,100,80
855.0,59,1.0,63.5,49,9,0,120.0,64,100,80
856.0,66,0.25,63.5,1,0,0,120.0,64,100,80
856.25,59,1.0,63.5,1,0,0,120.0,64,100,80
857.25,63,0.5,63.5,1,0,0,120.0,64,100,80
857.75,61,0.5,63.5,1,0,0,120.0,64,100,80
858.25,63,0.5,63.5,1,0,0,120.0,64,100,80
858.75,59,1.0,63.5,1,0,0,120.0,64,100,80
859.75,68,2.0,63.5,1,0,0,120.0,64,100,80
861.75,64,1.0,63.5,1,0,0,120.0,64,100,80
862.75,68,2.0,63.5,1,0,0,120.0,64,100,80
864.75,68,2.0,63.5,1,0,0,144.9,64,100,80
866.75,59,1.0,63.5,1,0,0,126.0,64,100,80
867.75,70,2.0,63.5,1,0,0,126.0,64,100,80
869.75,59,1.0,63.5,49,9,0,126.0,64,100,80
870.75,64,1.0,63.5,1,0,0,126.0,64,100,80
871.75,59,1.0,63.5,1,0,0,126.0,64,100,80
872.75,64,1.0,63.5,1,0,0,126.0,64,100,80
873.75,59,1.0,63.5,1,0,0,126.0,64,100,80
874.75,64,1.0,63.5,1,0,0,126.0,64,100,80
875.75,64,1.0,63.5,1,0,0,126.0,64,100,80
876.75,66,0.25,63.5,1,0,0,126.0,64,100,80
877.0,59,1.0,63.5,1,0,0,126.0,64,100,80
878.0,63,0.5,63.5,1,0,0,126.0,64,100,80
878.5,59,1.0,63.5,1,0,0,126.0,64,100,80
879.5,66,0.25,63.5,1,0,0,126.0,64,100,80
879.75,64,1.0,63.5,1,0,0,126.0,64,100,80
880.75,59,1.0,52.91,1,0,0,126.0,64,100,80
881.75,66,0.25,52.91,1,0,0,126.0,64,100,80
882.0,63,0.5,52.91,1,0,0,126.0,64,100,80
882.5,66,0.25,52.91,1,0,0,126.0,64,100,80
882.75,70,2.0,52.91,1,0,0,126.0,64,100,80
884.75,63,0.5,52.91,1,0,0,126.0,64,100,80
885.25,64,1.0,52.91,49,9,0,126.0,64,100,80
886.25,63,0.5,52.91,49,9,0,126.0,64,100,80
886.75,61,0.5,52.91,1,0,0,126.0,64,100,80
887.25,59,1.0,52.91,1,0,0,126.0,64,100,80
888.25,63,0.5,52.91,1,0,0,126.0,64,100,80
888.75,63,0.5,52.91,1,0,0,126.0,64,100,80
889.25,70,2.0,84.66,1,0,0,126.0,64,100,80
891.25,59,1.0,84.66,49,9,0,126.0,64,100,80
892.25,64,1.0,84.66,1,0,0,126.0,64,100,80
893.25,63,0.5,84.66,1,0,0,126.0,64,100,80
893.75,64,1.0,84.66,1,0,0,126.0,64,100,80
894.75,61,0.5,84.66,1,0,0,126.0,64,100,80
895.25,63,0.5,84.66,49,9,0,126.0,64,100,80
895.75,64,1.0,84.66,1,0,0,126.0,64,100,80
896.75,61,0.5,84.66,1,0,0,126.0,64,100,80
897.25,59,1.0,84.66,1,0,0,126.0,64,100,80
898.25,63,0.5,84.66,1,0,0,126.0,64,100,80
898.75,63,0.5,84.66,50,9,0,126.0,64,100,80
899.25,64,1.0,31.75,1,0,0,126.0,64,100,80
900.25,70,2.0,31.75,1,0,0,126.0,64,100,80
902.25,64,1.0,31.75,50,9,0,126.0,64,100,80
903.25,63,0.5,31.75,1,0,0,126.0,64,100,80
903.75,59,1.0,31.75,1,0,0,126.0,64,100,80
904.75,70,2.0,31.75,1,0,0,126.0,64,100,80
906.75,63,0.5,31.75,49,9,0,126.0,64,100,80
907.25,63,0.5,31.75,49,9,0,126.0,64,100,80
907.75,63,0.5,31.75,1,0,0,126.0,64,100,80
908.25,63,0.5,31.75,1,0,0,126.0,64,100,80
908.75,64,1.0,31.75,1,0,0,126.0,64,100,80
909.75,63,0.5,31.75,1,0,0,126.0,64,100,80
910.25,61,0.5,42.33,1,0,0,126.0,64,100,80
910.75,59,1.0,42.33,49,9,0,126.0,64,100,80
911.75,63,0.5,42.33,1,0,0,126.0,64,100,80
912.25,61,0.5,42.33,1,0,0,126.0,64,100,80
912.75,59,1.0,42.33,1,0,0,126.0,64,100,80
913.75,66,0.25,42.33,1,0,0,126.0,64,100,80
914.0,59,1.0,42.33,1,0,0,126.0,64,100,80
915.0,64,1.0,42.33,1,0,0,126.0,64,100,80
916.0,64,1.0,42.33,50,9,0,126.0,64,100,80
917.0,63,0.5,42.33,49,9,0,126.0,64,100,80
917.5,59,1.0,42.33,1,0,0,126.0,64,100,80
918.5,59,1.0,42.33,1,0,0,152.14499999999998,64,100,80
919.5,63,0.5,95.25,1,0,0,132.3,64,100,80
920.0,59,1.0,95.25,1,0,0,132.3,64,100,80
921.0,64,1.0,95.25,1,0,0,132.3,64,100,80
922.0,63,0.5,95.25,1,0,0,132.3,64,100,80
922.5,63,0.5,95.25,50,9,0,132.3,64,100,80
923.0,59,1.0,95.25,1,0,0,132.3,64,100,80
924.0,61,0.5,95.25,1,0,0,132.3,64,100,80
924.5,64,1.0,95.25,1,0,0,132.3,64,100,80
925.5,63,0.5,95.25,1,0,0,132.3,64,100,80
926.0,61,0.5,95.25,1,0,0,132.3,64,100,80
926.5,68,2.0,95.25,1,0,0,132.3,64,100,80
928.5,66,0.25,95.25,1,0,0,132.3,64,100,80
928.75,59,1.0,52.91,1,0,0,132.3,64,100,80
929.75,64,1.0,52.91,1,0,0,132.3,64,100,80
930.75,64,1.0,52.91,1,0,0,132.3,64,100,80
931.75,61,0.5,52.91,1,0,0,132.3,64,100,80
932.25,61,0.5,52.91,1,0,0,132.3,64,100,80
932.75,64,1.0,52.91,1,0,0,132.3,64,100,80
933.75,63,0.5,52.91,49,9,0,132.3,64,100,80
934.25,63,0.5,52.91,49,9,0,132.3,64,100,80
934.75,61,0.5,52.91,1,0,0,132.3,64,100,80
935.25,59,1.0,52.91,1,0,0,132.3,64,100,80
936.25,66,0.25,52.91,1,0,0,132.3,64,100,80
936.5,59,1.0,52.91,1,0,0,132.3,64,100,80
937.5,64,1.0,52.91,1,0,0,132.3,64,100,80
938.5,64,1.0,52.91,1,0,0,132.3,64,100,80
939.5,59,1.0,52.91,1,0,0,132.3,64,100,80
940.5,68,2.0,52.91,1,0,0,132.3,64,100,80
942.5,63,0.5,52.91,1,0,0,132.3,64,100,80
943.0,63,0.5,52.91,49,9,0,132.3,64,100,80
943.5,63,0.5,52.91,49,9,0,132.3,64,100,80
944.0,61,0.5,52.91,1,0,0,132.3,64,100,80
944.5,59,1.0,52.91,1,0,0,132.3,64,100,80
945.5,66,0.25,52.91,1,0,0,132.3,64,100,80
945.75,59,1.0,52.91,1,0,0,132.3,64,100,80
946.75,64,1.0,52.91,1,0,0,132.3,64,100,80
947.75,59,1.0,42.33,1,0,0,132.3,64,100,80
948.75,61,0.5,42.33,1,0,0,132.3,64,100,80
949.25,68,2.0,42.33,1,0,0,132.3,64,100,80
951.25,64,1.0,42.33,1,0,0,132.3,64,100,80
952.25,59,1.0,42.33,1,0,0,132.3,64,100,80
953.25,63,0.5,42.33,1,0,0,132.3,64,100,80
953.75,63,0.5,42.33,1,0,0,159.75225,64,100,80
954.25,63,0.5,42.33,1,0,0,335.47972500000003,64,100,80
954.75,61,0.5,42.33,50,9,0,145.86075000000002,64,100,80
955.25,66,0.25,42.33,1,0,0,145.86075000000002,64,100,80
955.5,64,1.0,42.33,50,9,0,145.86075000000002,64,100,80
956.5,63,0.5,42.33,1,0,0,145.86075000000002,64,100,80
957.0,68,2.0,31.75,1,0,0,145.86075000000002,64,100,80
959.0,64,1.0,31.75,49,9,0,145.86075000000002,64,100,80
960.0,63,0.5,31.75,1,0,0,145.86075000000002,64,100,80
960.5,64,1.0,31.75,1,0,0,145.86075000000002,64,100,80
961.5,59,1.0,31.75,49,9,0,145.86075000000002,64,100,80
962.5,61,0.5,31.75,1,0,0,145.86075000000002,64,100,80
963.0,63,0.5,31.75,1,0,0,145.86075000000002,64,100,80
963.5,63,0.5,31.75,1,0,0,176.12685562500005,64,100,80
964.0,61,0.5,31.75,1,0,0,153.15378750000005,64,100,80
964.5,63,0.5,31.75,1,0,0,153.15378750000005,64,100,80
965.0,63,0.5,31.75,49,9,0,184.93319840625003,64,100,80
965.5,59,1.0,31.75,1,0,0,160.81147687500004,64,100,80
966.5,59,1.0,74.08,1,0,0,160.81147687500004,64,100,80
967.5,61,0.5,74.08,1,0,0,160.81147687500004,64,100,80
968.0,66,0.25,74.08,1,0,0,160.81147687500004,64,100,80
968.25,66,0.25,74.08,1,0,0,194.17985832656254,64,100,80
968.5,0,1.0,74.08,49,9,0,120.0,64,100,80
969.5,60,1.0,74.08,1,0,0,120.0,64,100,80
970.5,62,0.5,74.08,49,9,0,120.0,64,100,80
971.0,67,0.25,74.08,1,0,0,120.0,64,100,80
971.25,64,0.5,74.08,1,0,0,120.0,64,100,80
971.75,67,0.25,74.08,1,0,0,120.0,64,100,80
972.0,60,1.0,74.08,1,0,0,120.0,64,100,80
973.0,71,2.0,74.08,1,0,0,120.0,64,100,80
975.0,64,0.5,52.91,1,0,0,120.0,64,100,80
975.5,60,1.0,52.91,50,9,0,120.0,64,100,80
976.5,0,1.0,52.91,49,9,0,120.0,64,100,80
977.5,69,2.0,52.91,1,0,0,120.0,64,100,80
979.5,60,1.0,52.91,1,0,0,120.0,64,100,80
980.5,60,1.0,52.91,1,0,0,120.0,64,100,80
981.5,62,0.5,52.91,1,0,0,120.0,64,100,80
982.0,69,2.0,52.91,1,0,0,120.0,64,100,80
984.0,64,0.5,52.91,1,0,0,120.0,64,100,80
984.5,62,0.5,52.91,1,0,0,120.0,64,100,80
985.0,60,1.0,52.91,1,0,0,120.0,64,100,80
986.0,67,0.25,52.91,1,0,0,120.0,64,100,80
986.25,64,0.5,74.08,1,0,0,120.0,64,100,80
986.75,64,0.5,74.08,51,9,0,144.9,64,100,80
987.25,60,1.0,74.08,51,9,0,126.0,64,100,80
988.25,67,0.25,74.08,1,0,0,126.0,64,100,80
988.5,64,0.5,74.08,1,0,0,126.0,64,100,80
989.0,69,2.0,74.08,49,9,0,126.0,64,100,80
991.0,62,0.5,74.08,1,0,0,126.0,64,100,80
991.5,65,1.0,74.08,49,9,0,126.0,64,100,80
992.5,60,1.0,74.08,1,0,0,126.0,64,100,80
993.5,60,1.0,74.08,1,0,0,126.0,64,100,80
994.5,62,0.5,74.08,1,0,0,126.0,64,100,80
995.0,71,2.0,74.08,50,9,0,126.0,64,100,80
997.0,60,1.0,52.91,1,0,0,126.0,64,100,80
998.0,62,0.5,52.91,1,0,0,126.0,64,100,80
998.5,60,1.0,52.91,1,0,0,126.0,64,100,80
999.5,64,0.5,52.91,1,0,0,126.0,64,100,80
1000.0,60,1.0,52.91,1,0,0,126.0,64,100,80
1001.0,64,0.5,52.91,1,0,0,126.0,64,100,80
1001.5,62,0.5,52.91,1,0,0,126.0,64,100,80
1002.0,64,0.5,52.91,1,0,0,126.0,64,100,80
1002.5,60,1.0,52.91,1,0,0,126.0,64,100,80
1003.5,69,2.0,52.91,1,0,0,126.0,64,100,80
1005.5,64,0.5,52.91,1,0,0,126.0,64,100,80
1006.0,60,1.0,52.91,1,0,0,126.0,64,100,80
1007.0,60,1.0,52.91,1,0,0,152.14499999999998,64,100,80
1008.0,62,0.5,52.91,1,0,0,132.3,64,100,80
1008.5,60,1.0,52.91,1,0,0,132.3,64,100,80
1009.5,60,1.0,52.91,1,0,0,132.3,64,100,80
1010.5,62,0.5,52.91,1,0,0,132.3,64,100,80
1011.0,71,2.0,52.91,1,0,0,132.3,64,100,80
1013.0,62,0.5,52.91,1,0,0,132.3,64,100,80
1013.5,69,2.0,52.91,1,0,0,132.3,64,100,80
1015.5,69,2.0,52.91,1,0,0,159.75225,64,100,80
1017.5,65,1.0,52.91,49,9,0,138.91500000000002,64,100,80
1018.5,64,1.0,52.91,50,9,0,138.91500000000002,64,100,80
1019.5,61,0.5,52.91,1,0,0,138.91500000000002,64,100,80
1020.0,63,0.5,63.5,1,0,0,138.91500000000002,64,100,80
1020.5,59,1.0,63.5,1,0,0,138.91500000000002,64,100,80
1021.5,61,0.5,63.5,1,0,0,138.91500000000002,64,100,80
1022.0,66,0.25,63.5,49,9,0,138.91500000000002,64,100,80
1022.25,59,1.0,63.5,1,0,0,138.91500000000002,64,100,80
1023.25,68,2.0,63.5,1,0,0,138.91500000000002,64,100,80
1025.25,59,1.0,63.5,1,0,0,138.91500000000002,64,100,80
1026.25,68,2.0,63.5,1,0,0,138.91500000000002,64,100,80
1028.25,61,0.5,63.5,1,0,0,138.91500000000002,64,100,80
1028.75,63,0.5,63.5,1,0,0,138.91500000000002,64,100,80
1029.25,63,0.5,63.5,1,0,0,167.73986250000002,64,100,80
1029.75,61,0.5,63.5,1,0,0,145.86075000000002,64,100,80
1030.25,59,1.0,74.08,1,0,0,145.86075000000002,64,100,80
1031.25,63,0.5,74.08,49,9,0,145.86075000000002,64,100,80
1031.75,59,1.0,74.08,1,0,0,145.86075000000002,64,100,80
1032.75,64,1.0,74.08,1,0,0,145.86075000000002,64,100,80
1033.75,59,1.0,74.08,1,0,0,145.86075000000002,64,100,80
1034.75,63,0.5,74.08,1,0,0,145.86075000000002,64,100,80
1035.25,63,0.5,74.08,1,0,0,176.12685562500005,64,100,80
1035.75,59,1.0,74.08,1,0,0,153.15378750000005,64,100,80
1036.75,61,0.5,74.08,1,0,0,153.15378750000005,64,100,80
1037.25,64,1.0,74.08,1,0,0,153.15378750000005,64,100,80
1038.25,59,1.0,74.08,1,0,0,153.15378750000005,64,100,80
1039.25,68,2.0,74.08,1,0,0,153.15378750000005,64,100,80
1041.25,66,0.25,52.91,1,0,0,153.15378750000005,64,100,80
1041.5,0,1.0,52.91,49,9,0,120.0,64,100,80
1042.5,60,1.0,52.91,1,0,0,120.0,64,100,80
1043.5,67,0.25,52.91,49,9,0,120.0,64,100,80
1043.75,64,0.5,52.91,1,0,0,120.0,64,100,80
1044.25,60,1.0,52.91,1,0,0,120.0,64,100,80
1045.25,60,1.0,52.91,1,0,0,120.0,64,100,80
1046.25,64,0.5,52.91,49,9,0,120.0,64,100,80
1046.75,62,0.5,52.91,1,0,0,120.0,64,100,80
1047.25,67,0.25,52.91,1,0,0,120.0,64,100,80
1047.5,62,0.5,52.91,1,0,0,120.0,64,100,80
1048.0,67,0.25,52.91,1,0,0,120.0,64,100,80
1048.25,62,0.5,42.33,1,0,0,120.0,64,100,80
1048.75,60,1.0,42.33,1,0,0,120.0,64,100,80
1049.75,64,0.5,42.33,1,0,0,120.0,64,100,80
1050.25,65,1.0,42.33,1,0,0,120.0,64,100,80
1051.25,71,2.0,42.33,1,0,0,120.0,64,100,80
1053.25,60,1.0,42.33,1,0,0,120.0,64,100,80
1054.25,65,1.0,42.33,1,0,0,120.0,64,100,80
1055.25,71,2.0,42.33,1,0,0,120.0,64,100,80
1057.25,71,2.0,42.33,51,9,0,120.0,64,100,80
1059.25,67,0.25,42.33,50,9,0,120.0,64,100,80
1059.5,60,1.0,42.33,1,0,0,120.0,64,100,80
1060.5,67,0.25,42.33,49,9,0,120.0,64,100,80
1060.75,64,0.5,63.5,1,0,0,120.0,64,100,80
1061.25,71,2.0,63.5,1,0,0,120.0,64,100,80
1063.25,60,1.0,63.5,1,0,0,120.0,64,100,80
1064.25,60,1.0,63.5,1,0,0,120.0,64,100,80
1065.25,62,0.5,63.5,1,0,0,120.0,64,100,80
1065.75,64,0.5,63.5,49,9,0,120.0,64,100,80
1066.25,62,0.5,63.5,1,0,0,120.0,64,100,80
1066.75,65,1.0,63.5,1,0,0,120.0,64,100,80
1067.75,60,1.0,63.5,1,0,0,120.0,64,100,80
1068.75,71,2.0,63.5,1,0,0,120.0,64,100,80
1070.75,71,2.0,63.5,1,0,0,120.0,64,100,80
1072.75,69,2.0,63.5,50,9,0,120.0,64,100,80
1074.75,62,0.5,63.5,1,0,0,120.0,64,100,80
1075.25,69,2.0,63.5,1,0,0,120.0,64,100,80
1077.25,60,1.0,63.5,1,0,0,120.0,64,100,80
1078.25,71,2.0,63.5,1,0,0,120.0,64,100,80
1080.25,60,1.0,63.5,1,0,0,120.0,64,100,80
1081.25,67,0.25,63.5,1,0,0,120.0,64,100,80
1081.5,60,1.0,63.5,1,0,0,120.0,64,100,80
1082.5,65,1.0,63.5,1,0,0,120.0,64,100,80
1083.5,64,0.5,63.5,1,0,0,120.0,64,100,80
1084.0,60,1.0,63.5,1,0,0,120.0,64,100,80
1085.0,64,0.5,63.5,1,0,0,120.0,64,100,80
1085.5,71,2.0,63.5,1,0,0,120.0,64,100,80
1087.5,60,1.0,52.91,1,0,0,120.0,64,100,80
1088.5,60,1.0,52.91,1,0,0,120.0,64,100,80
1089.5,64,1.0,52.91,50,9,0,120.0,64,100,80
1090.5,70,2.0,52.91,1,0,0,120.0,64,100,80
1092.5,68,2.0,52.91,1,0,0,120.0,64,100,80
1094.5,59,1.0,52.91,1,0,0,120.0,64,100,80
1095.5,70,2.0,52.91,1,0,0,120.0,64,100,80
1097.5,63,0.5,52.91,50,9,0,120.0,64,100,80
1098.0,64,1.0,52.91,1,0,0,120.0,64,100,80
1099.0,64,1.0,52.91,1,0,0,144.9,64,100,80
1100.0,59,1.0,52.91,1,0,0,126.0,64,100,80
1101.0,59,1.0,52.91,1,0,0,126.0,64,100,80
1102.0,70,2.0,84.66,1,0,0,126.0,64,100,80
1104.0,68,2.0,84.66,1,0,0,126.0,64,100,80
1106.0,64,1.0,84.66,49,9,0,126.0,64,100,80
1107.0,63,0.5,84.66,1,0,0,126.0,64,100,80
1107.5,63,0.5,84.66,1,0,0,126.0,64,100,80
1108.0,59,1.0,84.66,1,0,0,126.0,64,100,80
1109.0,61,0.5,84.66,1,0,0,126.0,64,100,80
1109.5,64,1.0,84.66,1,0,0,126.0,64,100,80
1110.5,63,0.5,84.66,1,0,0,126.0,64,100,80
1111.0,63,0.5,84.66,1,0,0,152.14499999999998,64,100,80
1111.5,66,0.25,84.66,1,0,0,132.3,64,100,80
1111.75,68,2.0,84.66,1,0,0,132.3,64,100,80
1113.75,63,0.5,74.08,50,9,0,132.3,64,100,80
1114.25,68,2.0,74.08,1,0,0,132.3,64,100,80
1116.25,59,1.0,74.08,1,0,0,132.3,64,100,80
1117.25,63,0.5,74.08,49,9,0,132.3,64,100,80
1117.75,64,1.0,74.08,1,0,0,132.3,64,100,80
1118.75,66,0.25,74.08,1,0,0,132.3,64,100,80
1119.0,59,1.0,74.08,1,0,0,132.3,64,100,80
1120.0,63,0.5,74.08,1,0,0,132.3,64,100,80
1120.5,63,0.5,74.08,1,0,0,132.3,64,100,80
1121.0,59,1.0,74.08,1,0,0,132.3,64,100,80
1122.0,63,0.5,74.08,1,0,0,132.3,64,100,80
1122.5,68,2.0,74.08,1,0,0,132.3,64,100,80
1124.5,64,1.0,95.25,1,0,0,132.3,64,100,80
1125.5,61,0.5,95.25,39,9,0,132.3,64,100,80
1126.0,59,1.0,95.25,1,0,0,132.3,64,100,80
1127.0,63,0.5,95.25,1,0,0,132.3,64,100,80
1127.5,64,1.0,95.25,1,0,0,132.3,64,100,80
1128.5,70,2.0,95.25,1,0,0,132.3,64,100,80
1130.5,66,0.25,95.25,1,0,0,132.3,64,100,80
1130.75,68,2.0,95.25,1,0,0,132.3,64,100,80
1132.75,63,0.5,95.25,1,0,0,132.3,64,100,80
1133.25,66,0.25,95.25,1,0,0,132.3,64,100,80
1133.5,59,1.0,95.25,1,0,0,132.3,64,100,80
1134.5,68,2.0,95.25,1,0,0,132.3,64,100,80
1136.5,64,1.0,84.66,49,9,0,132.3,64,100,80
1137.5,59,1.0,84.66,1,0,0,132.3,64,100,80
1138.5,64,1.0,84.66,49,9,0,132.3,64,100,80
1139.5,64,1.0,84.66,1,0,0,159.75225,64,100,80
1140.5,63,0.5,84.66,1,0,0,138.91500000000002,64,100,80
1141.0,61,0.5,84.66,1,0,0,138.91500000000002,64,100,80
1141.5,63,0.5,84.66,1,0,0,138.91500000000002,64,100,80
1142.0,64,1.0,84.66,1,0,0,138.91500000000002,64,100,80
1143.0,68,2.0,84.66,1,0,0,138.91500000000002,64,100,80
1145.0,59,1.0,84.66,1,0,0,138.91500000000002,64,100,80
1146.0,61,0.5,84.66,1,0,0,138.91500000000002,64,100,80
1146.5,59,1.0,84.66,49,9,0,138.91500000000002,64,100,80
1147.5,64,1.0,84.66,1,0,0,138.91500000000002,64,100,80
1148.5,68,2.0,84.66,1,0,0,138.91500000000002,64,100,80
1150.5,70,2.0,84.66,49,9,0,138.91500000000002,64,100,80
1152.5,61,0.5,84.66,1,0,0,138.91500000000002,64,100,80
1153.0,61,0.5,84.66,1,0,0,138.91500000000002,64,100,80
1153.5,63,0.5,84.66,1,0,0,138.91500000000002,64,100,80
1154.0,63,0.5,84.66,1,0,0,167.73986250000002,64,100,80
1154.5,68,2.0,84.66,1,0,0,145.86075000000002,64,100,80
1156.5,63,0.5,84.66,1,0,0,145.86075000000002,64,100,80
1157.0,63,0.5,84.66,49,9,0,176.12685562500005,64,100,80
1157.5,59,1.0,84.66,49,9,0,153.15378750000005,64,100,80
1158.5,61,0.5,84.66,1,0,0,153.15378750000005,64,100,80
1159.0,59,1.0,105.83,1,0,0,153.15378750000005,64,100,80
1160.0,59,1.0,105.83,1,0,0,184.93319840625003,64,100,80
1161.0,68,2.0,105.83,1,0,0,160.81147687500004,64,100,80
1163.0,59,1.0,105.83,1,0,0,160.81147687500004,64,100,80
1164.0,59,1.0,105.83,1,0,0,194.17985832656254,64,100,80
1165.0,66,0.25,105.83,1,0,0,168.85205071875006,64,100,80
1165.25,61,0.5,105.83,1,0,0,168.85205071875006,64,100,80
1165.75,68,2.0,105.83,1,0,0,168.85205071875006,64,100,80
1167.75,0,1.0,105.83,49,9,0,120.0,64,100,80
1168.75,62,0.5,105.83,1,0,0,120.0,64,100,80
1169.25,64,0.5,105.83,1,0,0,120.0,64,100,80
1169.75,64,0.5,105.83,1,0,0,120.0,64,100,80
1170.25,69,2.0,74.08,1,0,0,120.0,64,100,80
1172.25,69,2.0,74.08,1,0,0,120.0,64,100,80
1174.25,64,1.0,74.08,50,9,0,120.0,64,100,80
1175.25,70,2.0,74.08,1,0,0,120.0,64,100,80
1177.25,68,2.0,74.08,1,0,0,120.0,64,100,80
1179.25,0,1.0,74.08,49,9,0,120.0,64,100,80
1180.25,67,0.25,74.08,1,0,0,120.0,64,100,80
1180.5,62,0.5,74.08,1,0,0,120.0,64,100,80
1181.0,60,1.0,74.08,1,0,0,120.0,64,100,80
1182.0,60,1.0,74.08,1,0,0,120.0,64,100,80
1183.0,60,1.0,74.08,1,0,0,120.0,64,100,80
1184.0,64,0.5,74.08,49,9,0,120.0,64,100,80
1184.5,65,1.0,84.66,40,9,0,120.0,64,100,80
1185.5,60,1.0,84.66,1,0,0,120.0,64,100,80
1186.5,0,1.0,84.66,49,9,0,120.0,64,100,80
1187.5,65,1.0,84.66,1,0,0,120.0,64,100,80
1188.5,64,0.5,84.66,1,0,0,120.0,64,100,80
1189.0,65,1.0,84.66,1,0,0,120.0,64,100,80
1190.0,65,1.0,84.66,1,0,0,144.9,64,100,80
1191.0,67,0.25,84.66,1,0,0,126.0,64,100,80
1191.25,62,0.5,84.66,49,9,0,126.0,64,100,80
1191.75,62,0.5,84.66,50,9,0,126.0,64,100,80
1192.25,0,1.0,84.66,49,9,0,120.0,64,100,80
1193.25,60,1.0,84.66,1,0,0,120.0,64,100,80
1194.25,62,0.5,42.33,49,9,0,120.0,64,100,80
1194.75,62,0.5,42.33,1,0,0,120.0,64,100,80
1195.25,60,1.0,42.33,1,0,0,120.0,64,100,80
1196.25,60,1.0,42.33,1,0,0,120.0,64,100,80
1197.25,64,0.5,42.33,1,0,0,120.0,64,100,80
1197.75,64,0.5,42.33,1,0,0,144.9,64,100,80
1198.25,0,1.0,42.33,49,9,0,120.0,64,100,80
1199.25,60,1.0,42.33,1,0,0,120.0,64,100,80
1200.25,60,1.0,42.33,1,0,0,120.0,64,100,80
1201.25,69,2.0,42.33,1,0,0,120.0,64,100,80
1203.25,60,1.0,42.33,1,0,0,120.0,64,100,80
1204.25,60,1.0,42.33,1,0,0,144.9,64,100,80
1205.25,64,0.5,52.91,1,0,0,126.0,64,100,80
1205.75,69,2.0,52.91,50,9,0,126.0,64,100,80
1207.75,60,1.0,52.91,1,0,0,126.0,64,100,80
1208.75,67,0.25,52.91,1,0,0,126.0,64,100,80
1209.0,67,0.25,52.91,1,0,0,152.14499999999998,64,100,80
1209.25,65,1.0,52.91,39,9,0,132.3,64,100,80
1210.25,60,1.0,52.91,39,9,0,132.3,64,100,80
1211.25,60,1.0,52.91,1,0,0,132.3,64,100,80
1212.25,64,0.5,52.91,1,0,0,132.3,64,100,80
1212.75,67,0.25,52.91,1,0,0,132.3,64,100,80
1213.0,62,0.5,52.91,49,9,0,132.3,64,100,80
1213.5,62,0.5,52.91,1,0,0,132.3,64,100,80
1214.0,69,2.0,74.08,1,0,0,132.3,64,100,80
1216.0,71,2.0,74.08,1,0,0,132.3,64,100,80
1218.0,67,0.25,74.08,1,0,0,132.3,64,100,80
1218.25,60,1.0,74.08,1,0,0,132.3,64,100,80
1219.25,60,1.0,74.08,1,0,0,132.3,64,100,80
1220.25,69,2.0,74.08,1,0,0,132.3,64,100,80
1222.25,62,0.5,74.08,1,0,0,132.3,64,100,80
1222.75,64,0.5,74.08,1,0,0,132.3,64,100,80
1223.25,64,0.5,74.08,1,0,0,132.3,64,100,80
1223.75,64,0.5,74.08,1,0,0,132.3,64,100,80
1224.25,0,1.0,74.08,49,9,0,120.0,64,100,80
1225.25,60,1.0,74.08,1,0,0,120.0,64,100,80
1226.25,71,2.0,42.33,1,0,0,120.0,64,100,80
1228.25,69,2.0,42.33,1,0,0,120.0,64,100,80
1230.25,69,2.0,42.33,1,0,0,144.9,64,100,80
1232.25,69,2.0,42.33,1,0,0,126.0,64,100,80
1234.25,64,0.5,42.33,1,0,0,126.0,64,100,80
1234.75,60,1.0,42.33,1,0,0,126.0,64,100,80
1235.75,60,1.0,42.33,1,0,0,152.14499999999998,64,100,80
1236.75,64,0.5,42.33,1,0,0,132.3,64,100,80
1237.25,69,2.0,42.33,49,9,0,132.3,64,100,80
1239.25,64,0.5,42.33,50,9,0,132.3,64,100,80
1239.75,60,1.0,42.33,1,0,0,132.3,64,100,80
1240.75,69,2.0,42.33,1,0,0,132.3,64,100,80
1242.75,62,0.5,63.5,1,0,0,132.3,64,100,80
1243.25,62,0.5,63.5,1,0,0,159.75225,64,100,80
1243.75,69,2.0,63.5,1,0,0,138.91500000000002,64,100,80
1245.75,67,0.25,63.5,1,0,0,138.91500000000002,64,100,80
1246.0,64,0.5,63.5,1,0,0,138.91500000000002,64,100,80
1246.5,60,1.0,63.5,1,0,0,138.91500000000002,64,100,80
1247.5,60,1.0,63.5,1,0,0,167.73986250000002,64,100,80
1248.5,62,0.5,63.5,1,0,0,145.86075000000002,64,100,80
1249.0,62,0.5,63.5,1,0,0,176.12685562500005,64,100,80
1249.5,60,1.0,63.5,1,0,0,153.15378750000005,64,100,80
1250.5,60,1.0,63.5,1,0,0,153.15378750000005,64,100,80
1251.5,62,0.5,63.5,1,0,0,153.15378750000005,64,100,80
1252.0,65,1.0,74.08,49,9,0,153.15378750000005,64,100,80
1253.0,64,0.5,74.08,1,0,0,153.15378750000005,64,100,80
1253.5,67,0.25,74.08,1,0,0,153.15378750000005,64,100,80
1253.75,65,1.0,74.08,1,0,0,153.15378750000005,64,100,80
1254.75,60,1.0,74.08,1,0,0,153.15378750000005,64,100,80
1255.75,62,0.5,74.08,1,0,0,153.15378750000005,64,100,80
1256.25,62,0.5,74.08,1,0,0,153.15378750000005,64,100,80
1256.75,62,0.5,74.08,1,0,0,153.15378750000005,64,100,80
1257.25,69,2.0,74.08,1,0,0,153.15378750000005,64,100,80
1259.25,65,1.0,74.08,49,9,0,153.15378750000005,64,100,80
1260.25,60,1.0,74.08,51,9,0,153.15378750000005,64,100,80
1261.25,67,0.25,74.08,1,0,0,153.15378750000005,64,100,80
1261.5,64,0.5,42.33,1,0,0,153.15378750000005,64,100,80
1262.0,62,0.5,42.33,1,0,0,153.15378750000005,64,100,80
1262.5,60,1.0,42.33,1,0,0,153.15378750000005,64,100,80
1263.5,0,1.0,42.33,49,9,0,120.0,64,100,80
1264.5,60,1.0,42.33,1,0,0,120.0,64,100,80
1265.5,69,2.0,42.33,1,0,0,120.0,64,100,80
1267.5,60,1.0,42.33,1,0,0,120.0,64,100,80
1268.5,62,0.5,42.33,1,0,0,120.0,64,100,80
1269.0,69,2.0,42.33,1,0,0,120.0,64,100,80
1271.0,65,1.0,42.33,1,0,0,120.0,64,100,80
1272.0,64,0.5,42.33,1,0,0,120.0,64,100,80
1272.5,67,0.25,42.33,1,0,0,120.0,64,100,80
1272.75,60,1.0,105.83,1,0,0,120.0,64,100,80
1273.75,69,2.0,105.83,1,0,0,120.0,64,100,80
1275.75,62,0.5,105.83,1,0,0,120.0,64,100,80
1276.25,64,0.5,105.83,49,9,0,120.0,64,100,80
1276.75,60,1.0,105.83,1,0,0,120.0,64,100,80
1277.75,60,1.0,105.83,1,0,0,120.0,64,100,80
1278.75,69,2.0,105.83,1,0,0,120.0,64,100,80
1280.75,64,1.0,105.83,50,9,0,120.0,64,100,80
1281.75,59,1.0,105.83,1,0,0,120.0,64,100,80
1282.75,61,0.5,105.83,1,0,0,120.0,64,100,80
1283.25,68,2.0,105.83,1,0,0,120.0,64,100,80
1285.25,66,0.25,105.83,1,0,0,120.0,64,100,80
1285.5,66,0.25,63.5,1,0,0,120.0,64,100,80
1285.75,64,1.0,63.5,1,0,0,120.0,64,100,80
1286.75,59,1.0,63.5,1,0,0,120.0,64,100,80
1287.75,70,2.0,63.5,50,9,0,120.0,64,100,80
1289.75,59,1.0,63.5,50,9,0,120.0,64,100,80
1290.75,0,1.0,63.5,49,9,0,120.0,64,100,80
1291.75,64,0.5,63.5,1,0,0,120.0,64,100,80
1292.25,60,1.0,63.5,1,0,0,120.0,64,100,80
1293.25,64,0.5,63.5,1,0,0,120.0,64,100,80
1293.75,64,0.5,63.5,49,9,0,144.9,64,100,80
1294.25,62,0.5,63.5,1,0,0,126.0,64,100,80
1294.75,60,1.0,63.5,1,0,0,126.0,64,100,80
1295.75,60,1.0,74.08,1,0,0,126.0,64,100,80
1296.75,69,2.0,74.08,1,0,0,126.0,64,100,80
1298.75,65,1.0,74.08,1,0,0,126.0,64,100,80
1299.75,64,0.5,74.08,1,0,0,126.0,64,100,80
1300.25,69,2.0,74.08,1,0,0,126.0,64,100,80
1302.25,69,2.0,74.08,1,0,0,126.0,64,100,80
1304.25,71,2.0,74.08,1,0,0,126.0,64,100,80
1306.25,64,0.5,74.08,1,0,0,126.0,64,100,80
1306.75,65,1.0,74.08,1,0,0,126.0,64,100,80
1307.75,64,0.5,74.08,1,0,0,126.0,64,100,80
1308.25,64,0.5,74.08,49,9,0,152.14499999999998,64,100,80
1308.75,62,0.5,74.08,49,9,0,132.3,64,100,80
1309.25,67,0.25,31.75,1,0,0,132.3,64,100,80
1309.5,69,2.0,31.75,49,9,0,132.3,64,100,80
1311.5,62,0.5,31.75,51,9,0,132.3,64,100,80
1312.0,67,0.25,31.75,1,0,0,132.3,64,100,80
1312.25,64,1.0,31.75,50,9,0,132.3,64,100,80
1313.25,63,0.5,31.75,49,9,0,132.3,64,100,80
1313.75,66,0.25,31.75,1,0,0,132.3,64,100,80
1314.0,61,0.5,31.75,1,0,0,132.3,64,100,80
1314.5,0,1.0,31.75,49,9,0,120.0,64,100,80
1315.5,71,2.0,31.75,1,0,0,120.0,64,100,80
1317.5,65,1.0,31.75,1,0,0,120.0,64,100,80
1318.5,62,0.5,31.75,1,0,0,120.0,64,100,80
1319.0,67,0.25,63.5,1,0,0,120.0,64,100,80
1319.25,62,0.5,63.5,1,0,0,120.0,64,100,80
1319.75,71,2.0,63.5,1,0,0,120.0,64,100,80
1321.75,65,1.0,63.5,1,0,0,120.0,64,100,80
1322.75,64,0.5,63.5,49,9,0,120.0,64,100,80
1323.25,62,0.5,63.5,1,0,0,120.0,64,100,80
1323.75,67,0.25,63.5,38,9,0,120.0,64,100,80
1324.0,60,1.0,63.5,1,0,0,120.0,64,100,80
1325.0,69,2.0,63.5,1,0,0,120.0,64,100,80
1327.0,62,0.5,63.5,1,0,0,120.0,64,100,80
1327.5,62,0.5,63.5,1,0,0,144.9,64,100,80
1328.0,60,1.0,63.5,1,0,0,126.0,64,100,80
1329.0,60,1.0,42.33,1,0,0,126.0,64,100,80
1330.0,64,0.5,42.33,1,0,0,126.0,64,100,80
1330.5,71,2.0,42.33,1,0,0,126.0,64,100,80
1332.5,60,1.0,42.33,1,0,0,126.0,64,100,80
1333.5,60,1.0,42.33,1,0,0,126.0,64,100,80
1334.5,60,1.0,42.33,1,0,0,126.0,64,100,80
1335.5,62,0.5,42.33,1,0,0,126.0,64,100,80
1336.0,69,2.0,42.33,1,0,0,126.0,64,100,80
1338.0,64,0.5,42.33,49,9,0,126.0,64,100,80
1338.5,69,2.0,42.33,1,0,0,126.0,64,100,80
1340.5,64,0.5,42.33,49,9,0,126.0,64,100,80
1341.0,64,0.5,42.33,1,0,0,126.0,64,100,80
1341.5,60,1.0,63.5,1,0,0,126.0,64,100,80
1342.5,0,1.0,63.5,49,9,0,120.0,64,100,80
1343.5,60,1.0,63.5,1,0,0,120.0,64,100,80
1344.5,69,2.0,63.5,1,0,0,120.0,64,100,80
1346.5,60,1.0,63.5,1,0,0,120.0,64,100,80
1347.5,62,0.5,63.5,1,0,0,120.0,64,100,80
1348.0,62,0.5,63.5,1,0,0,120.0,64,100,80
1348.5,69,2.0,63.5,1,0,0,120.0,64,100,80
1350.5,64,0.5,63.5,49,9,0,120.0,64,100,80
1351.0,62,0.5,63.5,1,0,0,120.0,64,100,80
1351.5,64,0.5,63.5,50,9,0,120.0,64,100,80
1352.0,60,1.0,63.5,1,0,0,120.0,64,100,80
1353.0,69,2.0,42.33,1,0,0,120.0,64,100,80
1355.0,69,2.0,42.33,1,0,0,144.9,64,100,80
1357.0,71,2.0,42.33,50,9,0,126.0,64,100,80
1359.0,69,2.0,42.33,1,0,0,126.0,64,100,80
1361.0,64,0.5,42.33,1,0,0,126.0,64,100,80
1361.5,64,0.5,42.33,1,0,0,152.14499999999998,64,100,80
1362.0,62,0.5,42.33,1,0,0,132.3,64,100,80
1362.5,69,2.0,42.33,1,0,0,132.3,64,100,80
1364.5,69,2.0,42.33,1,0,0,159.75225,64,100,80
1366.5,69,2.0,42.33,1,0,0,335.47972500000003,64,100,80
1368.5,62,0.5,42.33,1,0,0,145.86075000000002,64,100,80
1369.0,62,0.5,42.33,1,0,0,145.86075000000002,64,100,80
1369.5,65,1.0,74.08,1,0,0,145.86075000000002,64,100,80
1370.5,65,1.0,74.08,1,0,0,176.12685562500005,64,100,80
1371.5,62,0.5,74.08,1,0,0,153.15378750000005,64,100,80
1372.0,65,1.0,74.08,1,0,0,153.15378750000005,64,100,80
1373.0,62,0.5,74.08,1,0,0,153.15378750000005,64,100,80
1373.5,64,0.5,74.08,1,0,0,153.15378750000005,64,100,80
1374.0,60,1.0,74.08,49,9,0,153.15378750000005,64,100,80
1375.0,62,0.5,74.08,1,0,0,153.15378750000005,64,100,80
1375.5,60,1.0,74.08,49,9,0,153.15378750000005,64,100,80
1376.5,60,1.0,74.08,1,0,0,153.15378750000005,64,100,80
1377.5,60,1.0,74.08,1,0,0,184.93319840625003,64,100,80
1378.5,60,1.0,74.08,1,0,0,160.81147687500004,64,100,80
1379.5,60,1.0,52.91,1,0,0,194.17985832656254,64,100,80
1380.5,71,2.0,52.91,1,0,0,168.85205071875006,64,100,80
1382.5,60,1.0,52.91,1,0,0,168.85205071875006,64,100,80
1383.5,67,0.25,52.91,1,0,0,168.85205071875006,64,100,80
1383.75,64,0.5,52.91,1,0,0,168.85205071875006,64,100,80
1384.25,62,0.5,52.91,1,0,0,168.85205071875006,64,100,80
1384.75,62,0.5,52.91,1,0,0,168.85205071875006,64,100,80
1385.25,62,0.5,52.91,1,0,0,203.8888512428907,64,100,80
1385.75,62,0.5,52.91,1,0,0,177.29465325468757,64,100,80
1386.25,60,1.0,52.91,1,0,0,177.29465325468757,64,100,80
1387.25,62,0.5,52.91,1,0,0,177.29465325468757,64,100,80
1387.75,64,0.5,52.91,1,0,0,177.29465325468757,64,100,80
1388.25,62,0.5,74.08,1,0,0,177.29465325468757,64,100,80
1388.75,71,2.0,74.08,50,9,0,177.29465325468757,64,100,80
1390.75,65,1.0,74.08,1,0,0,177.29465325468757,64,100,80
1391.75,62,0.5,74.08,1,0,0,177.29465325468757,64,100,80
1392.25,71,2.0,74.08,1,0,0,177.29465325468757,64,100,80
1394.25,69,2.0,74.08,1,0,0,177.29465325468757,64,100,80
1396.25,64,0.5,74.08,1,0,0,177.29465325468757,64,100,80
1396.75,62,0.5,74.08,1,0,0,177.29465325468757,64,100,80
1397.25,65,1.0,74.08,1,0,0,177.29465325468757,64,100,80
1398.25,69,2.0,74.08,1,0,0,177.29465325468757,64,100,80
1400.25,64,0.5,74.08,1,0,0,177.29465325468757,64,100,80
1400.75,67,0.25,74.08,1,0,0,177.29465325468757,64,100,80
1401.0,60,1.0,84.66,1,0,0,177.29465325468757,64,100,80
1402.0,67,0.25,84.66,1,0,0,177.29465325468757,64,100,80
1402.25,69,2.0,84.66,1,0,0,177.29465325468757,64,100,80
1404.25,62,0.5,84.66,1,0,0,177.29465325468757,64,100,80
1404.75,64,1.0,84.66,50,9,0,177.29465325468757,64,100,80
1405.75,59,1.0,84.66,1,0,0,177.29465325468757,64,100,80
1406.75,68,2.0,84.66,49,9,0,177.29465325468757,64,100,80
1408.75,59,1.0,84.66,1,0,0,177.29465325468757,64,100,80
1409.75,63,0.5,84.66,1,0,0,177.29465325468757,64,100,80
1410.25,64,1.0,84.66,1,0,0,177.29465325468757,64,100,80
1411.25,59,1.0,84.66,1,0,0,177.29465325468757,64,100,80
1412.25,63,0.5,84.66,1,0,0,177.29465325468757,64,100,80
1412.75,63,0.5,42.33,1,0,0,214.08329380503523,64,100,80
1413.25,61,0.5,42.33,1,0,0,186.15938591742196,64,100,80
1413.75,59,1.0,42.33,1,0,0,186.15938591742196,64,100,80
1414.75,64,1.0,42.33,1,0,0,186.15938591742196,64,100,80
1415.75,63,0.5,42.33,1,0,0,186.15938591742196,64,100,80
1416.25,64,1.0,42.33,50,9,0,186.15938591742196,64,100,80
1417.25,61,0.5,42.33,1,0,0,186.15938591742196,64,100,80
1417.75,61,0.5,42.33,1,0,0,186.15938591742196,64,100,80
1418.25,68,2.0,42.33,1,0,0,186.15938591742196,64,100,80
1420.25,66,0.25,42.33,1,0,0,186.15938591742196,64,100,80
1420.5,61,0.5,42.33,1,0,0,186.15938591742196,64,100,80
1421.0,70,2.0,42.33,1,0,0,186.15938591742196,64,100,80
1423.0,66,0.25,84.66,1,0,0,186.15938591742196,64,100,80
1423.25,59,1.0,84.66,1,0,0,186.15938591742196,64,100,80
1424.25,0,1.0,84.66,49,9,0,120.0,64,100,80
1425.25,71,2.0,84.66,50,9,0,120.0,64,100,80
1427.25,67,0.25,84.66,1,0,0,120.0,64,100,80
1427.5,62,0.5,84.66,50,9,0,120.0,64,100,80
1428.0,0,1.0,84.66,49,9,0,120.0,64,100,80
1429.0,60,1.0,84.66,1,0,0,120.0,64,100,80
1430.0,62,0.5,84.66,1,0,0,120.0,64,100,80
1430.5,69,2.0,84.66,1,0,0,120.0,64,100,80
1432.5,60,1.0,84.66,1,0,0,120.0,64,100,80
1433.5,65,1.0,84.66,1,0,0,120.0,64,100,80
1434.5,64,0.5,74.08,1,0,0,120.0,64,100,80
1435.0,69,2.0,74.08,1,0,0,120.0,64,100,80
1437.0,65,1.0,74.08,1,0,0,120.0,64,100,80
1438.0,69,2.0,74.08,50,9,0,120.0,64,100,80
1440.0,69,2.0,74.08,51,9,0,120.0,64,100,80
1442.0,67,0.25,74.08,1,0,0,120.0,64,100,80
1442.25,60,1.0,74.08,50,9,0,120.0,64,100,80
1443.25,62,0.5,74.08,1,0,0,120.0,64,100,80
1443.75,69,2.0,74.08,1,0,0,120.0,64,100,80
1445.75,67,0.25,74.08,1,0,0,120.0,64,100,80
1446.0,65,1.0,74.08,1,0,0,120.0,64,100,80
1447.0,67,0.25,74.08,1,0,0,120.0,64,100,80
1447.25,67,0.25,74.08,1,0,0,144.9,64,100,80
1447.5,67,0.25,74.08,1,0,0,304.28999999999996,64,100,80
1447.75,64,0.5,74.08,1,0,0,132.3,64,100,80
1448.25,62,0.5,74.08,1,0,0,132.3,64,100,80
1448.75,69,2.0,74.08,1,0,0,132.3,64,100,80
1450.75,64,0.5,74.08,1,0,0,132.3,64,100,80
1451.25,64,0.5,74.08,1,0,0,132.3,64,100,80
1451.75,69,2.0,74.08,1,0,0,132.3,64,100,80
1453.75,60,1.0,74.08,1,0,0,132.3,64,100,80
1454.75,69,2.0,74.08,1,0,0,132.3,64,100,80
1456.75,60,1.0,74.08,1,0,0,132.3,64,100,80
1457.75,62,0.5,74.08,1,0,0,132.3,64,100,80
1458.25,65,1.0,84.66,1,0,0,132.3,64,100,80
1459.25,60,1.0,84.66,49,9,0,132.3,64,100,80
1460.25,60,1.0,84.66,1,0,0,159.75225,64,100,80
1461.25,60,1.0,84.66,1,0,0,138.91500000000002,64,100,80
1462.25,0,1.0,84.66,49,9,0,120.0,64,100,80
1463.25,62,0.5,84.66,1,0,0,120.0,64,100,80
1463.75,64,0.5,84.66,1,0,0,120.0,64,100,80
1464.25,69,2.0,84.66,1,0,0,120.0,64,100,80
1466.25,60,1.0,84.66,51,9,0,120.0,64,100,80
1467.25,60,1.0,84.66,1,0,0,120.0,64,100,80
1468.25,64,0.5,84.66,1,0,0,120.0,64,100,80
1468.75,60,1.0,84.66,1,0,0,120.0,64,100,80
1469.75,62,0.5,52.91,1,0,0,120.0,64,100,80
1470.25,60,1.0,52.91,1,0,0,120.0,64,100,80
1471.25,62,0.5,52.91,1,0,0,120.0,64,100,80
1471.75,60,1.0,52.91,1,0,0,120.0,64,100,80
1472.75,69,2.0,52.91,1,0,0,120.0,64,100,80
1474.75,69,2.0,52.91,1,0,0,144.9,64,100,80
1476.75,64,0.5,52.91,1,0,0,126.0,64,100,80
1477.25,67,0.25,52.91,1,0,0,126.0,64,100,80
1477.5,62,0.5,52.91,51,9,0,126.0,64,100,80
1478.0,60,1.0,52.91,1,0,0,126.0,64,100,80
1479.0,62,0.5,52.91,51,9,0,126.0,64,100,80
1479.5,60,1.0,52.91,1,0,0,126.0,64,100,80
1480.5,60,1.0,63.5,1,0,0,126.0,64,100,80
1481.5,60,1.0,63.5,1,0,0,152.14499999999998,64,100,80
1482.5,62,0.5,63.5,1,0,0,132.3,64,100,80
1483.0,60,1.0,63.5,1,0,0,132.3,64,100,80
1484.0,65,1.0,63.5,1,0,0,132.3,64,100,80
1485.0,62,0.5,63.5,1,0,0,132.3,64,100,80
1485.5,60,1.0,63.5,1,0,0,132.3,64,100,80
1486.5,60,1.0,63.5,1,0,0,132.3,64,100,80
1487.5,69,2.0,63.5,1,0,0,132.3,64,100,80
1489.5,69,2.0,63.5,1,0,0,159.75225,64,100,80
1491.5,65,1.0,63.5,1,0,0,138.91500000000002,64,100,80
1492.5,60,1.0,63.5,1,0,0,138.91500000000002,64,100,80
1493.5,67,0.25,74.08,1,0,0,138.91500000000002,64,100,80
1493.75,62,0.5,74.08,1,0,0,138.91500000000002,64,100,80
1494.25,60,1.0,74.08,1,0,0,138.91500000000002,64,100,80
1495.25,65,1.0,74.08,1,0,0,138.91500000000002,64,100,80
1496.25,62,0.5,74.08,1,0,0,138.91500000000002,64,100,80
1496.75,60,1.0,74.08,1,0,0,138.91500000000002,64,100,80
1497.75,62,0.5,74.08,49,9,0,138.91500000000002,64,100,80
1498.25,67,0.25,74.08,1,0,0,138.91500000000002,64,100,80
1498.5,64,0.5,74.08,49,9,0,138.91500000000002,64,100,80
1499.0,60,1.0,74.08,1,0,0,138.91500000000002,64,100,80
1500.0,60,1.0,74.08,1,0,0,138.91500000000002,64,100,80
1501.0,60,1.0,74.08,1,0,0,167.73986250000002,64,100,80
1502.0,62,0.5,63.5,1,0,0,145.86075000000002,64,100,80
1502.5,60,1.0,63.5,1,0,0,145.86075000000002,64,100,80
1503.5,60,1.0,63.5,49,9,0,145.86075000000002,64,100,80
1504.5,65,1.0,63.5,1,0,0,145.86075000000002,64,100,80
1505.5,69,2.0,63.5,1,0,0,145.86075000000002,64,100,80
1507.5,67,0.25,63.5,1,0,0,145.86075000000002,64,100,80
1507.75,64,0.5,63.5,1,0,0,145.86075000000002,64,100,80
1508.25,62,0.5,63.5,1,0,0,145.86075000000002,64,100,80
1508.75,69,2.0,63.5,1,0,0,145.86075000000002,64,100,80
1510.75,0,1.0,63.5,49,9,0,120.0,64,100,80
1511.75,67,0.25,63.5,1,0,0,120.0,64,100,80
1512.0,60,1.0,63.5,1,0,0,120.0,64,100,80
1513.0,62,0.5,63.5,1,0,0,120.0,64,100,80
1513.5,60,1.0,63.5,1,0,0,120.0,64,100,80
1514.5,64,0.5,63.5,1,0,0,120.0,64,100,80
1515.0,67,0.25,63.5,1,0,0,120.0,64,100,80
1515.25,69,2.0,63.5,1,0,0,120.0,64,100,80
1517.25,64,0.5,63.5,49,9,0,120.0,64,100,80
1517.75,64,0.5,63.5,1,0,0,120.0,64,100,80
1518.25,62,0.5,63.5,1,0,0,120.0,64,100,80
1518.75,62,0.5,63.5,1,0,0,120.0,64,100,80
1519.25,62,0.5,63.5,1,0,0,144.9,64,100,80
1519.75,62,0.5,63.5,50,9,0,304.28999999999996,64,100,80
1520.25,62,0.5,63.5,49,9,0,132.3,64,100,80
1520.75,64,0.5,52.91,1,0,0,132.3,64,100,80
1521.25,67,0.25,52.91,1,0,0,132.3,64,100,80
1521.5,62,0.5,52.91,1,0,0,132.3,64,100,80
1522.0,60,1.0,52.91,1,0,0,132.3,64,100,80
1523.0,71,2.0,52.91,1,0,0,132.3,64,100,80
1525.0,69,2.0,52.91,1,0,0,132.3,64,100,80
1527.0,62,0.5,52.91,1,0,0,132.3,64,100,80
1527.5,60,1.0,52.91,1,0,0,132.3,64,100,80
1528.5,62,0.5,52.91,1,0,0,132.3,64,100,80
1529.0,69,2.0,52.91,1,0,0,132.3,64,100,80
1531.0,64,1.0,52.91,50,9,0,132.3,64,100,80
1532.0,59,1.0,52.91,1,0,0,132.3,64,100,80
1533.0,66,0.25,74.08,1,0,0,132.3,64,100,80
1533.25,61,0.5,74.08,1,0,0,132.3,64,100,80
1533.75,64,1.0,74.08,50,9,0,132.3,64,100,80
1534.75,59,1.0,74.08,1,0,0,132.3,64,100,80
1535.75,59,1.0,74.08,1,0,0,159.75225,64,100,80
1536.75,59,1.0,74.08,1,0,0,138.91500000000002,64,100,80
1537.75,64,1.0,74.08,50,9,0,138.91500000000002,64,100,80
1538.75,61,0.5,74.08,1,0,0,138.91500000000002,64,100,80
1539.25,61,0.5,74.08,1,0,0,167.73986250000002,64,100,80
1539.75,68,2.0,74.08,1,0,0,145.86075000000002,64,100,80
1541.75,59,1.0,74.08,49,9,0,145.86075000000002,64,100,80
1542.75,64,1.0,74.08,1,0,0,145.86075000000002,64,100,80
1543.75,59,1.0,63.5,1,0,0,145.86075000000002,64,100,80
1544.75,61,0.5,63.5,1,0,0,145.86075000000002,64,100,80
1545.25,59,1.0,63.5,1,0,0,145.86075000000002,64,100,80
1546.25,68,2.0,63.5,1,0,0,145.86075000000002,64,100,80
1548.25,64,1.0,63.5,1,0,0,145.86075000000002,64,100,80
1549.25,63,0.5,63.5,1,0,0,145.86075000000002,64,100,80
1549.75,63,0.5,63.5,1,0,0,176.12685562500005,64,100,80
1550.25,66,0.25,63.5,1,0,0,153.15378750000005,64,100,80
1550.5,68,2.0,63.5,1,0,0,153.15378750000005,64,100,80
1552.5,61,0.5,63.5,1,0,0,153.15378750000005,64,100,80
1553.0,59,1.0,63.5,1,0,0,153.15378750000005,64,100,80
1554.0,64,1.0,63.5,1,0,0,153.15378750000005,64,100,80
1555.0,66,0.25,74.08,1,0,0,153.15378750000005,64,100,80
1555.25,63,0.5,74.08,1,0,0,153.15378750000005,64,100,80
1555.75,0,1.0,74.08,49,9,0,120.0,64,100,80
1556.75,64,0.5,74.08,49,9,0,120.0,64,100,80
1557.25,62,0.5,74.08,1,0,0,120.0,64,100,80
1557.75,0,1.0,74.08,49,9,0,120.0,64,100,80
1558.75,60,1.0,74.08,1,0,0,120.0,64,100,80
1559.75,69,2.0,74.08,49,9,0,120.0,64,100,80
1561.75,64,0.5,74.08,1,0,0,120.0,64,100,80
1562.25,64,0.5,74.08,1,0,0,120.0,64,100,80
1562.75,69,2.0,74.08,1,0,0,120.0,64,100,80
1564.75,60,1.0,74.08,1,0,0,120.0,64,100,80
1565.75,60,1.0,84.66,1,0,0,144.9,64,100,80
1566.75,62,0.5,84.66,1,0,0,126.0,64,100,80
1567.25,60,1.0,84.66,1,0,0,126.0,64,100,80
1568.25,62,0.5,84.66,1,0,0,126.0,64,100,80
1568.75,62,0.5,84.66,1,0,0,126.0,64,100,80
1569.25,65,1.0,84.66,1,0,0,126.0,64,100,80
1570.25,62,0.5,84.66,49,9,0,126.0,64,100,80
1570.75,65,1.0,84.66,1,0,0,126.0,64,100,80
1571.75,69,2.0,84.66,1,0,0,126.0,64,100,80
1573.75,67,0.25,84.66,1,0,0,126.0,64,100,80
1574.0,64,1.0,84.66,50,9,0,126.0,64,100,80
1575.0,59,1.0,84.66,1,0,0,126.0,64,100,80
1576.0,61,0.5,74.08,51,9,0,126.0,64,100,80
1576.5,59,1.0,74.08,1,0,0,126.0,64,100,80
1577.5,59,1.0,74.08,1,0,0,126.0,64,100,80
1578.5,61,0.5,74.08,1,0,0,126.0,64,100,80
1579.0,66,0.25,74.08,1,0,0,126.0,64,100,80
1579.25,59,1.0,74.08,1,0,0,126.0,64,100,80
1580.25,63,0.5,74.08,1,0,0,126.0,64,100,80
1580.75,63,0.5,74.08,1,0,0,152.14499999999998,64,100,80
1581.25,59,1.0,74.08,1,0,0,132.3,64,100,80
1582.25,63,0.5,74.08,49,9,0,132.3,64,100,80
1582.75,59,1.0,74.08,1,0,0,132.3,64,100,80
1583.75,61,0.5,74.08,1,0,0,132.3,64,100,80
1584.25,59,1.0,84.66,51,9,0,132.3,64,100,80
1585.25,59,1.0,84.66,1,0,0,132.3,64,100,80
1586.25,64,1.0,84.66,1,0,0,132.3,64,100,80
1587.25,66,0.25,84.66,1,0,0,132.3,64,100,80
1587.5,64,1.0,84.66,50,9,0,132.3,64,100,80
1588.5,59,1.0,84.66,1,0,0,132.3,64,100,80
1589.5,70,2.0,84.66,1,0,0,132.3,64,100,80
1591.5,59,1.0,84.66,1,0,0,132.3,64,100,80
1592.5,59,1.0,84.66,1,0,0,132.3,64,100,80
1593.5,0,1.0,84.66,49,9,0,120.0,64,100,80
1594.5,60,1.0,84.66,1,0,0,120.0,64,100,80
1595.5,0,1.0,84.66,49,9,0,120.0,64,100,80
1596.5,64,0.5,52.91,49,9,0,120.0,64,100,80
1597.0,67,0.25,52.91,1,0,0,120.0,64,100,80
1597.25,62,0.5,52.91,1,0,0,120.0,64,100,80
1597.75,69,2.0,52.91,1,0,0,120.0,64,100,80
1599.75,67,0.25,52.91,50,9,0,120.0,64,100,80
1600.0,65,1.0,52.91,1,0,0,120.0,64,100,80
1601.0,69,2.0,52.91,1,0,0,120.0,64,100,80
1603.0,60,1.0,52.91,1,0,0,120.0,64,100,80
1604.0,60,1.0,52.91,1,0,0,120.0,64,100,80
1605.0,60,1.0,52.91,49,9,0,120.0,64,100,80
1606.0,64,0.5,52.91,1,0,0,120.0,64,100,80
1606.5,64,1.0,52.91,50,9,0,120.0,64,100,80
1607.5,68,2.0,42.33,1,0,0,120.0,64,100,80
1609.5,63,0.5,42.33,49,9,0,120.0,64,100,80
1610.0,59,1.0,42.33,51,9,0,120.0,64,100,80
1611.0,59,1.0,42.33,1,0,0,120.0,64,100,80
1612.0,61,0.5,42.33,1,0,0,120.0,64,100,80
1612.5,68,2.0,42.33,1,0,0,120.0,64,100,80
1614.5,59,1.0,42.33,1,0,0,120.0,64,100,80
1615.5,59,1.0,42.33,1,0,0,120.0,64,100,80
1616.5,59,1.0,42.33,1,0,0,144.9,64,100,80
1617.5,66,0.25,42.33,1,0,0,126.0,64,100,80
1617.75,59,1.0,42.33,1,0,0,126.0,64,100,80
1618.75,63,0.5,42.33,49,9,0,126.0,64,100,80
1619.25,61,0.5,63.5,1,0,0,126.0,64,100,80
1619.75,70,2.0,63.5,1,0,0,126.0,64,100,80
1621.75,63,0.5,63.5,1,0,0,126.0,64,100,80
1622.25,66,0.25,63.5,1,0,0,126.0,64,100,80
1622.5,63,0.5,63.5,49,9,0,126.0,64,100,80
1623.0,59,1.0,63.5,1,0,0,126.0,64,100,80
1624.0,61,0.5,63.5,1,0,0,126.0,64,100,80
1624.5,59,1.0,63.5,1,0,0,126.0,64,100,80
1625.5,64,1.0,63.5,1,0,0,126.0,64,100,80
1626.5,59,1.0,63.5,1,0,0,126.0,64,100,80
1627.5,0,1.0,63.5,49,9,0,120.0,64,100,80
1628.5,69,2.0,63.5,1,0,0,120.0,64,100,80
1630.5,60,1.0,74.08,1,0,0,120.0,64,100,80
1631.5,62,0.5,74.08,1,0,0,120.0,64,100,80
1632.0,60,1.0,74.08,1,0,0,120.0,64,100,80
1633.0,65,1.0,74.08,1,0,0,120.0,64,100,80
1634.0,62,0.5,74.08,1,0,0,120.0,64,100,80
1634.5,62,0.5,74.08,1,0,0,120.0,64,100,80
1635.0,60,1.0,74.08,1,0,0,120.0,64,100,80
1636.0,64,0.5,74.08,1,0,0,120.0,64,100,80
1636.5,64,1.0,74.08,50,9,0,120.0,64,100,80
1637.5,68,2.0,74.08,1,0,0,120.0,64,100,80
1639.5,63,0.5,74.08,49,9,0,120.0,64,100,80
1640.0,63,0.5,74.08,1,0,0,120.0,64,100,80
1640.5,63,0.5,74.08,49,9,0,120.0,64,100,80
1641.0,64,1.0,74.08,1,0,0,120.0,64,100,80
1642.0,68,2.0,74.08,1,0,0,120.0,64,100,80
1644.0,68,2.0,74.08,1,0,0,144.9,64,100,80
1646.0,63,0.5,74.08,1,0,0,126.0,64,100,80
1646.5,70,2.0,74.08,1,0,0,126.0,64,100,80
1648.5,59,1.0,74.08,1,0,0,126.0,64,100,80
1649.5,59,1.0,74.08,1,0,0,126.0,64,100,80
1650.5,63,0.5,74.08,1,0,0,126.0,64,100,80
1651.0,63,0.5,74.08,1,0,0,126.0,64,100,80
1651.5,68,2.0,74.08,1,0,0,126.0,64,100,80
1653.5,63,0.5,74.08,1,0,0,126.0,64,100,80
1654.0,66,0.25,74.08,1,0,0,126.0,64,100,80
1654.25,61,0.5,74.08,1,0,0,126.0,64,100,80
1654.75,63,0.5,74.08,1,0,0,126.0,64,100,80
1655.25,68,2.0,74.08,1,0,0,126.0,64,100,80
1657.25,68,2.0,74.08,1,0,0,152.14499999999998,64,100,80
1659.25,59,1.0,74.08,1,0,0,132.3,64,100,80
1660.25,63,0.5,74.08,49,9,0,132.3,64,100,80
1660.75,61,0.5,74.08,1,0,0,132.3,64,100,80
1661.25,59,1.0,74.08,1,0,0,132.3,64,100,80
1662.25,59,1.0,74.08,1,0,0,132.3,64,100,80
1663.25,63,0.5,74.08,1,0,0,132.3,64,100,80
1663.75,68,2.0,74.08,1,0,0,132.3,64,100,80
1665.75,59,1.0,63.5,1,0,0,132.3,64,100,80
1666.75,61,0.5,63.5,1,0,0,132.3,64,100,80
1667.25,63,0.5,63.5,1,0,0,132.3,64,100,80
1667.75,70,2.0,63.5,1,0,0,132.3,64,100,80
1669.75,59,1.0,63.5,1,0,0,132.3,64,100,80
1670.75,61,0.5,63.5,1,0,0,132.3,64,100,80
1671.25,66,0.25,63.5,1,0,0,132.3,64,100,80
1671.5,68,2.0,63.5,1,0,0,132.3,64,100,80
1673.5,61,0.5,63.5,1,0,0,132.3,64,100,80
1674.0,68,2.0,63.5,1,0,0,132.3,64,100,80
1676.0,63,0.5,63.5,1,0,0,132.3,64,100,80
1676.5,61,0.5,63.5,1,0,0,132.3,64,100,80
1677.0,68,2.0,42.33,1,0,0,132.3,64,100,80
1679.0,64,1.0,42.33,1,0,0,132.3,64,100,80
1680.0,61,0.5,42.33,1,0,0,132.3,64,100,80
1680.5,66,0.25,42.33,1,0,0,132.3,64,100,80
1680.75,68,2.0,42.33,1,0,0,132.3,64,100,80
1682.75,63,0.5,42.33,49,9,0,132.3,64,100,80
1683.25,66,0.25,42.33,1,0,0,132.3,64,100,80
1683.5,63,0.5,42.33,1,0,0,132.3,64,100,80
1684.0,70,2.0,42.33,1,0,0,132.3,64,100,80
1686.0,0,1.0,42.33,49,9,0,120.0,64,100,80
1687.0,62,0.5,42.33,1,0,0,120.0,64,100,80
1687.5,69,2.0,42.33,1,0,0,120.0,64,100,80
1689.5,62,0.5,84.66,51,9,0,120.0,64,100,80
1690.0,60,1.0,84.66,49,9,0,120.0,64,100,80
1691.0,65,1.0,84.66,1,0,0,120.0,64,100,80
1692.0,60,1.0,84.66,50,9,0,120.0,64,100,80
1693.0,62,0.5,84.66,1,0,0,120.0,64,100,80
1693.5,60,1.0,84.66,49,9,0,120.0,64,100,80
1694.5,64,0.5,84.66,49,9,0,120.0,64,100,80
1695.0,67,0.25,84.66,1,0,0,120.0,64,100,80
1695.25,71,2.0,84.66,1,0,0,120.0,64,100,80
1697.25,64,0.5,84.66,49,9,0,120.0,64,100,80
1697.75,60,1.0,84.66,1,0,0,120.0,64,100,80
1698.75,60,1.0,84.66,1,0,0,120.0,64,100,80
1699.75,60,1.0,63.5,1,0,0,144.9,64,100,80
1700.75,67,0.25,63.5,1,0,0,126.0,64,100,80
1701.0,64,0.5,63.5,1,0,0,126.0,64,100,80
1701.5,71,2.0,63.5,1,0,0,126.0,64,100,80
1703.5,60,1.0,63.5,1,0,0,126.0,64,100,80
1704.5,60,1.0,63.5,1,0,0,126.0,64,100,80
1705.5,69,2.0,63.5,1,0,0,126.0,64,100,80
1707.5,64,0.5,63.5,1,0,0,126.0,64,100,80
1708.0,60,1.0,63.5,1,0,0,126.0,64,100,80
1709.0,60,1.0,63.5,1,0,0,152.14499999999998,64,100,80
1710.0,64,0.5,63.5,1,0,0,132.3,64,100,80
1710.5,71,2.0,63.5,1,0,0,132.3,64,100,80
1712.5,60,1.0,63.5,1,0,0,132.3,64,100,80
1713.5,62,0.5,63.5,1,0,0,132.3,64,100,80
1714.0,69,2.0,63.5,1,0,0,132.3,64,100,80
1716.0,0,1.0,63.5,49,9,0,120.0,64,100,80
1717.0,60,1.0,63.5,1,0,0,120.0,64,100,80
1718.0,62,0.5,63.5,51,9,0,120.0,64,100,80
1718.5,71,2.0,63.5,51,9,0,120.0,64,100,80
1720.5,69,2.0,63.5,1,0,0,120.0,64,100,80
1722.5,0,1.0,63.5,49,9,0,120.0,64,100,80
1723.5,64,0.5,63.5,1,0,0,120.0,64,100,80
1724.0,64,0.5,63.5,1,0,0,120.0,64,100,80
1724.5,64,0.5,63.5,1,0,0,144.9,64,100,80
1725.0,67,0.25,74.08,49,9,0,126.0,64,100,80
1725.25,62,0.5,74.08,40,9,0,126.0,64,100,80
1725.75,64,0.5,74.08,1,0,0,126.0,64,100,80
1726.25,69,2.0,74.08,1,0,0,126.0,64,100,80
1728.25,65,1.0,74.08,1,0,0,126.0,64,100,80
1729.25,62,0.5,74.08,1,0,0,126.0,64,100,80
1729.75,60,1.0,74.08,1,0,0,126.0,64,100,80
1730.75,69,2.0,74.08,40,9,0,126.0,64,100,80
1732.75,62,0.5,74.08,1,0,0,126.0,64,100,80
1733.25,64,0.5,74.08,49,9,0,126.0,64,100,80
1733.75,67,0.25,74.08,1,0,0,126.0,64,100,80
1734.0,65,1.0,74.08,1,0,0,126.0,64,100,80
1735.0,69,2.0,95.25,1,0,0,126.0,64,100,80
1737.0,69,2.0,95.25,49,9,0,126.0,64,100,80
1739.0,64,0.5,95.25,1,0,0,126.0,64,100,80
1739.5,62,0.5,95.25,1,0,0,126.0,64,100,80
1740.0,60,1.0,95.25,1,0,0,126.0,64,100,80
1741.0,0,1.0,95.25,49,9,0,120.0,64,100,80
1742.0,71,2.0,95.25,1,0,0,120.0,64,100,80
1744.0,65,1.0,95.25,1,0,0,120.0,64,100,80
1745.0,60,1.0,95.25,1,0,0,120.0,64,100,80
1746.0,64,0.5,95.25,1,0,0,120.0,64,100,80
1746.5,62,0.5,95.25,1,0,0,120.0,64,100,80
1747.0,64,1.0,95.25,49,9,0,120.0,64,100,80
1748.0,59,1.0,63.5,1,0,0,120.0,64,100,80
1749.0,64,1.0,63.5,1,0,0,120.0,64,100,80
1750.0,63,0.5,63.5,1,0,0,120.0,64,100,80
1750.5,68,2.0,63.5,1,0,0,120.0,64,100,80
1752.5,68,2.0,63.5,1,0,0,144.9,64,100,80
1754.5,64,1.0,63.5,1,0,0,126.0,64,100,80
1755.5,64,1.0,63.5,1,0,0,152.14499999999998,64,100,80
1756.5,59,1.0,63.5,1,0,0,132.3,64,100,80
1757.5,63,0.5,63.5,1,0,0,132.3,64,100,80
1758.0,63,0.5,63.5,49,9,0,159.75225,64,100,80
1758.5,63,0.5,63.5,1,0,0,138.91500000000002,64,100,80
1759.0,64,1.0,63.5,1,0,0,138.91500000000002,64,100,80
1760.0,68,2.0,63.5,1,0,0,138.91500000000002,64,100,80
1762.0,59,1.0,63.5,1,0,0,138.91500000000002,64,100,80
1763.0,68,2.0,63.5,1,0,0,138.91500000000002,64,100,80
1765.0,64,1.0,63.5,1,0,0,138.91500000000002,64,100,80
1766.0,61,0.5,63.5,1,0,0,138.91500000000002,64,100,80
1766.5,63,0.5,63.5,1,0,0,138.91500000000002,64,100,80
1767.0,70,2.0,63.5,1,0,0,138.91500000000002,64,100,80
1769.0,63,0.5,63.5,1,0,0,138.91500000000002,64,100,80
1769.5,66,0.25,63.5,1,0,0,138.91500000000002,64,100,80
1769.75,63,0.5,63.5,49,9,0,138.91500000000002,64,100,80
1770.25,61,0.5,63.5,1,0,0,138.91500000000002,64,100,80
1770.75,64,1.0,63.5,1,0,0,138.91500000000002,64,100,80
1771.75,63,0.5,63.5,1,0,0,138.91500000000002,64,100,80
1772.25,64,1.0,63.5,50,9,0,138.91500000000002,64,100,80
1773.25,68,2.0,63.5,1,0,0,138.91500000000002,64,100,80
1775.25,63,0.5,63.5,49,9,0,138.91500000000002,64,100,80
1775.75,61,0.5,63.5,1,0,0,138.91500000000002,64,100,80
1776.25,63,0.5,63.5,1,0,0,138.91500000000002,64,100,80
1776.75,68,2.0,63.5,1,0,0,138.91500000000002,64,100,80
1778.75,61,0.5,63.5,49,9,0,138.91500000000002,64,100,80
1779.25,66,0.25,63.5,1,0,0,138.91500000000002,64,100,80
1779.5,59,1.0,63.5,1,0,0,138.91500000000002,64,100,80
1780.5,61,0.5,63.5,50,9,0,138.91500000000002,64,100,80
1781.0,66,0.25,63.5,1,0,0,138.91500000000002,64,100,80
1781.25,70,2.0,42.33,1,0,0,138.91500000000002,64,100,80
1783.25,63,0.5,42.33,1,0,0,138.91500000000002,64,100,80
1783.75,61,0.5,42.33,1,0,0,138.91500000000002,64,100,80
1784.25,66,0.25,42.33,1,0,0,138.91500000000002,64,100,80
1784.5,66,0.25,42.33,1,0,0,138.91500000000002,64,100,80
1784.75,68,2.0,42.33,1,0,0,138.91500000000002,64,100,80
1786.75,59,1.0,42.33,1,0,0,138.91500000000002,64,100,80
1787.75,66,0.25,42.33,1,0,0,138.91500000000002,64,100,80
1788.0,66,0.25,42.33,1,0,0,167.73986250000002,64,100,80
1788.25,63,0.5,42.33,1,0,0,145.86075000000002,64,100,80
1788.75,63,0.5,42.33,1,0,0,145.86075000000002,64,100,80
1789.25,63,0.5,42.33,1,0,0,176.12685562500005,64,100,80
1789.75,59,1.0,74.08,1,0,0,153.15378750000005,64,100,80
1790.75,63,0.5,74.08,1,0,0,153.15378750000005,64,100,80
1791.25,61,0.5,74.08,1,0,0,153.15378750000005,64,100,80
1791.75,59,1.0,74.08,1,0,0,153.15378750000005,64,100,80
1792.75,66,0.25,74.08,49,9,0,153.15378750000005,64,100,80
1793.0,63,0.5,74.08,1,0,0,153.15378750000005,64,100,80
1793.5,64,1.0,74.08,49,9,0,153.15378750000005,64,100,80
1794.5,59,1.0,74.08,50,9,0,153.15378750000005,64,100,80
1795.5,61,0.5,74.08,1,0,0,153.15378750000005,64,100,80
1796.0,59,1.0,74.08,1,0,0,153.15378750000005,64,100,80
1797.0,63,0.5,74.08,50,9,0,153.15378750000005,64,100,80
1797.5,59,1.0,74.08,1,0,0,153.15378750000005,64,100,80
1798.5,59,1.0,74.08,1,0,0,184.93319840625003,64,100,80
1799.5,59,1.0,74.08,1,0,0,160.81147687500004,64,100,80
1800.5,63,0.5,74.08,49,9,0,160.81147687500004,64,100,80
1801.0,64,1.0,74.08,1,0,0,160.81147687500004,64,100,80
1802.0,63,0.5,74.08,49,9,0,160.81147687500004,64,100,80
1802.5,61,0.5,74.08,1,0,0,160.81147687500004,64,100,80
1803.0,59,1.0,74.08,1,0,0,160.81147687500004,64,100,80
1804.0,68,2.0,74.08,1,0,0,160.81147687500004,64,100,80
1806.0,63,0.5,74.08,50,9,0,160.81147687500004,64,100,80
1806.5,59,1.0,74.08,1,0,0,160.81147687500004,64,100,80
1807.5,59,1.0,74.08,1,0,0,194.17985832656254,64,100,80
1808.5,59,1.0,74.08,1,0,0,168.85205071875006,64,100,80
1809.5,68,2.0,74.08,1,0,0,168.85205071875006,64,100,80
1811.5,70,2.0,74.08,1,0,0,168.85205071875006,64,100,80
1813.5,63,0.5,74.08,1,0,0,168.85205071875006,64,100,80
1814.0,63,0.5,74.08,1,0,0,168.85205071875006,64,100,80
1814.5,70,2.0,74.08,1,0,0,168.85205071875006,64,100,80
1816.5,59,1.0,74.08,1,0,0,168.85205071875006,64,100,80
1817.5,59,1.0,74.08,1,0,0,203.8888512428907,64,100,80
1818.5,59,1.0,74.08,1,0,0,177.29465325468757,64,100,80
1819.5,63,0.5,74.08,1,0,0,177.29465325468757,64,100,80
1820.0,64,1.0,74.08,1,0,0,177.29465325468757,64,100,80
1821.0,59,1.0,74.08,49,9,0,177.29465325468757,64,100,80
1822.0,63,0.5,74.08,1,0,0,177.29465325468757,64,100,80
1822.5,61,0.5,63.5,1,0,0,177.29465325468757,64,100,80
1823.0,68,2.0,63.5,1,0,0,177.29465325468757,64,100,80
1825.0,70,2.0,63.5,1,0,0,177.29465325468757,64,100,80
1827.0,68,2.0,63.5,1,0,0,177.29465325468757,64,100,80
1829.0,68,2.0,63.5,1,0,0,214.08329380503523,64,100,80
1831.0,64,1.0,63.5,1,0,0,186.15938591742196,64,100,80
1832.0,61,0.5,63.5,1,0,0,186.15938591742196,64,100,80
1832.5,59,1.0,63.5,1,0,0,186.15938591742196,64,100,80
1833.5,63,0.5,63.5,50,9,0,186.15938591742196,64,100,80
1834.0,64,1.0,63.5,1,0,0,186.15938591742196,64,100,80
1835.0,59,1.0,63.5,1,0,0,186.15938591742196,64,100,80
1836.0,66,0.25,63.5,1,0,0,186.15938591742196,64,100,80
1836.25,68,2.0,84.66,1,0,0,186.15938591742196,64,100,80
1838.25,59,1.0,84.66,1,0,0,186.15938591742196,64,100,80
1839.25,70,2.0,84.66,1,0,0,186.15938591742196,64,100,80
1841.25,64,1.0,84.66,1,0,0,186.15938591742196,64,100,80
1842.25,63,0.5,84.66,1,0,0,186.15938591742196,64,100,80
1842.75,59,1.0,84.66,1,0,0,186.15938591742196,64,100,80
1843.75,59,1.0,84.66,1,0,0,224.78745849528698,64,100,80
1844.75,61,0.5,84.66,1,0,0,195.46735521329305,64,100,80
1845.25,59,1.0,84.66,1,0,0,195.46735521329305,64,100,80
1846.25,68,2.0,84.66,1,0,0,195.46735521329305,64,100,80
1848.25,70,2.0,84.66,1,0,0,195.46735521329305,64,100,80
1850.25,59,1.0,84.66,1,0,0,195.46735521329305,64,100,80
1851.25,59,1.0,84.66,1,0,0,236.02683142005134,64,100,80
1852.25,59,1.0,84.66,1,0,0,495.65634598210784,64,100,80
1853.25,59,1.0,84.66,1,0,0,780.6587449218199,64,100,80
1854.25,68,2.0,84.66,1,0,0,226.27789707878838,64,100,80
1856.25,59,1.0,84.66,1,0,0,226.27789707878838,64,100,80
1857.25,64,1.0,84.66,1,0,0,226.27789707878838,64,100,80
1858.25,64,1.0,84.66,1,0,0,273.230560722637,64,100,80
1859.25,59,1.0,84.66,1,0,0,237.59179193272783,64,100,80
1860.25,70,2.0,84.66,1,0,0,237.59179193272783,64,100,80
1862.25,70,2.0,84.66,1,0,0,286.89208875876886,64,100,80
1864.25,70,2.0,84.66,1,0,0,249.47138152936424,64,100,80
1866.25,61,0.5,84.66,1,0,0,249.47138152936424,64,100,80
1866.75,59,1.0,63.5,1,0,0,249.47138152936424,64,100,80
1867.75,68,2.0,63.5,1,0,0,249.47138152936424,64,100,80
1869.75,63,0.5,63.5,1,0,0,249.47138152936424,64,100,80
1870.25,63,0.5,63.5,1,0,0,249.47138152936424,64,100,80
1870.75,63,0.5,63.5,1,0,0,301.23669319670734,64,100,80
1871.25,68,2.0,63.5,1,0,0,261.9449506058325,64,100,80
1873.25,68,2.0,63.5,1,0,0,316.2985278565427,64,100,80
1875.25,68,2.0,63.5,1,0,0,275.0421981361241,64,100,80
1877.25,70,2.0,63.5,1,0,0,275.0421981361241,64,100,80
1879.25,59,1.0,63.5,49,9,0,275.0421981361241,64,100,80
1880.25,61,0.5,63.5,1,0,0,275.0421981361241,64,100,80
1880.75,59,1.0,63.5,1,0,0,275.0421981361241,64,100,80
1881.75,63,0.5,63.5,1,0,0,275.0421981361241,64,100,80
1882.25,70,2.0,63.5,50,9,0,275.0421981361241,64,100,80
1884.25,68,2.0,63.5,1,0,0,275.0421981361241,64,100,80
1886.25,63,0.5,63.5,1,0,0,275.0421981361241,64,100,80
1886.75,64,1.0,63.5,1,0,0,275.0421981361241,64,100,80
1887.75,59,1.0,63.5,1,0,0,275.0421981361241,64,100,80
1888.75,70,2.0,63.5,1,0,0,275.0421981361241,64,100,80
1890.75,59,1.0,63.5,1,0,0,275.0421981361241,64,100,80
1891.75,68,2.0,63.5,1,0,0,275.0421981361241,64,100,80
1893.75,59,1.0,63.5,1,0,0,275.0421981361241,64,100,80
1894.75,64,1.0,63.5,49,9,0,275.0421981361241,64,100,80
1895.75,63,0.5,63.5,1,0,0,275.0421981361241,64,100,80
1896.25,63,0.5,52.91,1,0,0,275.0421981361241,64,100,80
1896.75,59,1.0,52.91,1,0,0,275.0421981361241,64,100,80
1897.75,68,2.0,52.91,1,0,0,275.0421981361241,64,100,80
1899.75,68,2.0,52.91,1,0,0,275.0421981361241,64,100,80
1901.75,64,1.0,52.91,1,0,0,275.0421981361241,64,100,80
1902.75,59,1.0,52.91,1,0,0,275.0421981361241,64,100,80
1903.75,59,1.0,52.91,1,0,0,275.0421981361241,64,100,80
1904.75,64,1.0,52.91,50,9,0,275.0421981361241,64,100,80
1905.75,0,1.0,52.91,49,9,0,120.0,64,100,80
1906.75,69,2.0,52.91,1,0,0,120.0,64,100,80
1908.75,69,2.0,52.91,1,0,0,120.0,64,100,80
1910.75,69,2.0,52.91,1,0,0,120.0,64,100,80
1912.75,60,1.0,52.91,1,0,0,120.0,64,100,80
1913.75,0,1.0,52.91,49,9,0,120.0,64,100,80
1914.75,64,0.5,52.91,1,0,0,120.0,64,100,80
1915.25,60,1.0,52.91,1,0,0,120.0,64,100,80
1916.25,64,0.5,52.91,50,9,0,120.0,64,100,80
1916.75,69,2.0,52.91,1,0,0,120.0,64,100,80
1918.75,60,1.0,52.91,1,0,0,120.0,64,100,80
1919.75,60,1.0,52.91,1,0,0,144.9,64,100,80
1920.75,62,0.5,52.91,1,0,0,126.0,64,100,80
1921.25,60,1.0,52.91,1,0,0,126.0,64,100,80
1922.25,69,2.0,52.91,1,0,0,126.0,64,100,80
1924.25,69,2.0,52.91,1,0,0,126.0,64,100,80
1926.25,60,1.0,52.91,1,0,0,126.0,64,100,80
1927.25,60,1.0,52.91,1,0,0,126.0,64,100,80
1928.25,65,1.0,52.91,1,0,0,126.0,64,100,80
1929.25,67,0.25,52.91,1,0,0,126.0,64,100,80
1929.5,60,1.0,52.91,1,0,0,126.0,64,100,80
1930.5,60,1.0,52.91,1,0,0,152.14499999999998,64,100,80
1931.5,64,0.5,52.91,1,0,0,132.3,64,100,80
1932.0,60,1.0,52.91,1,0,0,132.3,64,100,80
1933.0,60,1.0,52.91,1,0,0,132.3,64,100,80
1934.0,69,2.0,52.91,1,0,0,132.3,64,100,80
1936.0,62,0.5,52.91,1,0,0,132.3,64,100,80
1936.5,71,2.0,52.91,50,9,0,132.3,64,100,80
1938.5,60,1.0,84.66,1,0,0,132.3,64,100,80
1939.5,60,1.0,84.66,1,0,0,159.75225,64,100,80
1940.5,71,2.0,84.66,1,0,0,138.91500000000002,64,100,80
1942.5,65,1.0,84.66,1,0,0,138.91500000000002,64,100,80
1943.5,60,1.0,84.66,1,0,0,138.91500000000002,64,100,80
1944.5,60,1.0,84.66,49,9,0,167.73986250000002,64,100,80
1945.5,64,0.5,84.66,1,0,0,145.86075000000002,64,100,80
1946.0,69,2.0,84.66,1,0,0,145.86075000000002,64,100,80
1948.0,65,1.0,84.66,1,0,0,145.86075000000002,64,100,80
1949.0,64,0.5,84.66,50,9,0,145.86075000000002,64,100,80
1949.5,69,2.0,84.66,1,0,0,145.86075000000002,64,100,80
1951.5,64,1.0,84.66,49,9,0,145.86075000000002,64,100,80
1952.5,61,0.5,52.91,1,0,0,145.86075000000002,64,100,80
1953.0,61,0.5,52.91,1,0,0,176.12685562500005,64,100,80
1953.5,59,1.0,52.91,1,0,0,153.15378750000005,64,100,80
1954.5,70,2.0,52.91,1,0,0,153.15378750000005,64,100,80
1956.5,61,0.5,52.91,1,0,0,153.15378750000005,64,100,80
1957.0,63,0.5,52.91,1,0,0,153.15378750000005,64,100,80
1957.5,63,0.5,52.91,49,9,0,153.15378750000005,64,100,80
1958.0,59,1.0,52.91,49,9,0,153.15378750000005,64,100,80
1959.0,64,1.0,52.91,1,0,0,153.15378750000005,64,100,80
1960.0,59,1.0,52.91,1,0,0,153.15378750000005,64,100,80
1961.0,70,2.0,52.91,1,0,0,153.15378750000005,64,100,80
1963.0,59,1.0,52.91,1,0,0,153.15378750000005,64,100,80
1964.0,66,0.25,84.66,1,0,0,153.15378750000005,64,100,80
1964.25,59,1.0,84.66,1,0,0,153.15378750000005,64,100,80
1965.25,59,1.0,84.66,1,0,0,184.93319840625003,64,100,80
1966.25,59,1.0,84.66,1,0,0,388.3597166531251,64,100,80
1967.25,61,0.5,84.66,1,0,0,168.85205071875006,64,100,80
1967.75,64,1.0,84.66,1,0,0,168.85205071875006,64,100,80
1968.75,64,1.0,84.66,1,0,0,203.8888512428907,64,100,80
1969.75,66,0.25,84.66,1,0,0,177.29465325468757,64,100,80
1970.0,63,0.5,84.66,1,0,0,177.29465325468757,64,100,80
1970.5,61,0.5,84.66,1,0,0,177.29465325468757,64,100,80
1971.0,68,2.0,84.66,1,0,0,177.29465325468757,64,100,80
1973.0,66,0.25,84.66,1,0,0,177.29465325468757,64,100,80
1973.25,61,0.5,63.5,1,0,0,177.29465325468757,64,100,80
1973.75,59,1.0,63.5,1,0,0,177.29465325468757,64,100,80
1974.75,63,0.5,63.5,1,0,0,177.29465325468757,64,100,80
1975.25,70,2.0,63.5,1,0,0,177.29465325468757,64,100,80
1977.25,59,1.0,63.5,1,0,0,177.29465325468757,64,100,80
1978.25,70,2.0,63.5,1,0,0,177.29465325468757,64,100,80
1980.25,68,2.0,63.5,1,0,0,177.29465325468757,64,100,80
1982.25,61,0.5,63.5,39,9,0,177.29465325468757,64,100,80
1982.75,59,1.0,63.5,39,9,0,177.29465325468757,64,100,80
1983.75,59,1.0,63.5,1,0,0,177.29465325468757,64,100,80
1984.75,59,1.0,63.5,1,0,0,177.29465325468757,64,100,80
1985.75,59,1.0,63.5,1,0,0,214.08329380503523,64,100,80
1986.75,70,2.0,84.66,1,0,0,186.15938591742196,64,100,80
1988.75,70,2.0,84.66,50,9,0,224.78745849528698,64,100,80
1990.75,59,1.0,84.66,1,0,0,195.46735521329305,64,100,80
1991.75,0,1.0,84.66,49,9,0,120.0,64,100,80
1992.75,64,0.5,84.66,1,0,0,120.0,64,100,80
1993.25,65,1.0,84.66,1,0,0,120.0,64,100,80
1994.25,65,1.0,84.66,1,0,0,120.0,64,100,80
1995.25,64,0.5,84.66,49,9,0,120.0,64,100,80
1995.75,64,0.5,84.66,1,0,0,120.0,64,100,80
1996.25,64,0.5,84.66,1,0,0,144.9,64,100,80
1996.75,60,1.0,84.66,49,9,0,126.0,64,100,80
1997.75,62,0.5,84.66,1,0,0,126.0,64,100,80
1998.25,65,1.0,84.66,1,0,0,126.0,64,100,80
1999.25,60,1.0,84.66,1,0,0,126.0,64,100,80
2000.25,71,2.0,84.66,1,0,0,126.0,64,100,80
2002.25,71,2.0,84.66,49,9,0,152.14499999999998,64,100,80
2004.25,60,1.0,84.66,1,0,0,132.3,64,100,80
2005.25,60,1.0,84.66,1,0,0,159.75225,64,100,80
2006.25,64,0.5,84.66,49,9,0,138.91500000000002,64,100,80
2006.75,67,0.25,84.66,50,9,0,138.91500000000002,64,100,80
2007.0,69,2.0,84.66,1,0,0,138.91500000000002,64,100,80
2009.0,60,1.0,84.66,49,9,0,138.91500000000002,64,100,80
2010.0,62,0.5,84.66,1,0,0,138.91500000000002,64,100,80
2010.5,71,2.0,84.66,50,9,0,138.91500000000002,64,100,80
2012.5,69,2.0,84.66,1,0,0,138.91500000000002,64,100,80
2014.5,69,2.0,84.66,1,0,0,138.91500000000002,64,100,80
2016.5,62,0.5,84.66,1,0,0,138.91500000000002,64,100,80
2017.0,64,0.5,84.66,1,0,0,138.91500000000002,64,100,80
2017.5,62,0.5,84.66,1,0,0,138.91500000000002,64,100,80
2018.0,71,2.0,84.66,1,0,0,138.91500000000002,64,100,80
2020.0,71,2.0,84.66,1,0,0,138.91500000000002,64,100,80
2022.0,60,1.0,84.66,1,0,0,138.91500000000002,64,100,80
2023.0,60,1.0,84.66,1,0,0,138.91500000000002,64,100,80
2024.0,71,2.0,84.66,1,0,0,138.91500000000002,64,100,80
2026.0,69,2.0,84.66,50,9,0,138.91500000000002,64,100,80
2028.0,69,2.0,84.66,1,0,0,138.91500000000002,64,100,80
2030.0,62,0.5,84.66,1,0,0,138.91500000000002,64,100,80
2030.5,60,1.0,84.66,1,0,0,138.91500000000002,64,100,80
2031.5,69,2.0,84.66,1,0,0,138.91500000000002,64,100,80
2033.5,67,0.25,84.66,49,9,0,138.91500000000002,64,100,80
2033.75,62,0.5,84.66,1,0,0,138.91500000000002,64,100,80
2034.25,60,1.0,84.66,1,0,0,138.91500000000002,64,100,80
2035.25,65,1.0,84.66,1,0,0,138.91500000000002,64,100,80
2036.25,69,2.0,84.66,40,9,0,138.91500000000002,64,100,80
2038.25,62,0.5,84.66,1,0,0,138.91500000000002,64,100,80
2038.75,65,1.0,84.66,1,0,0,138.91500000000002,64,100,80
2039.75,62,0.5,84.66,1,0,0,138.91500000000002,64,100,80
2040.25,69,2.0,84.66,1,0,0,138.91500000000002,64,100,80
2042.25,64,0.5,74.08,1,0,0,138.91500000000002,64,100,80
2042.75,69,2.0,74.08,1,0,0,138.91500000000002,64,100,80
2044.75,67,0.25,74.08,1,0,0,138.91500000000002,64,100,80
2045.0,71,2.0,74.08,1,0,0,138.91500000000002,64,100,80
2047.0,64,0.5,74.08,1,0,0,138.91500000000002,64,100,80
2047.5,62,0.5,74.08,1,0,0,138.91500000000002,64,100,80
2048.0,65,1.0,74.08,1,0,0,138.91500000000002,64,100,80
2049.0,64,0.5,74.08,50,9,0,138.91500000000002,64,100,80
2049.5,60,1.0,74.08,1,0,0,138.91500000000002,64,100,80
2050.5,69,2.0,74.08,1,0,0,138.91500000000002,64,100,80
2052.5,69,2.0,74.08,1,0,0,167.73986250000002,64,100,80
2054.5,62,0.5,74.08,1,0,0,145.86075000000002,64,100,80
2055.0,60,1.0,42.33,1,0,0,145.86075000000002,64,100,80
2056.0,60,1.0,42.33,1,0,0,176.12685562500005,64,100,80
2057.0,69,2.0,42.33,1,0,0,153.15378750000005,64,100,80
2059.0,62,0.5,42.33,1,0,0,153.15378750000005,64,100,80
2059.5,0,1.0,42.33,49,9,0,120.0,64,100,80
2060.5,60,1.0,42.33,1,0,0,120.0,64,100,80
2061.5,62,0.5,42.33,1,0,0,120.0,64,100,80
2062.0,64,0.5,42.33,1,0,0,120.0,64,100,80
2062.5,65,1.0,42.33,1,0,0,120.0,64,100,80
2063.5,65,1.0,42.33,1,0,0,144.9,64,100,80
2064.5,64,0.5,42.33,1,0,0,126.0,64,100,80
2065.0,71,2.0,42.33,1,0,0,126.0,64,100,80
2067.0,62,0.5,63.5,49,9,0,126.0,64,100,80
2067.5,65,1.0,63.5,1,0,0,126.0,64,100,80
2068.5,62,0.5,63.5,1,0,0,126.0,64,100,80
2069.0,60,1.0,63.5,1,0,0,126.0,64,100,80
2070.0,60,1.0,63.5,1,0,0,152.14499999999998,64,100,80
2071.0,65,1.0,63.5,50,9,0,132.3,64,100,80
2072.0,0,1.0,63.5,49,9,0,120.0,64,100,80
2073.0,60,1.0,63.5,50,9,0,120.0,64,100,80
2074.0,62,0.5,63.5,1,0,0,120.0,64,100,80
2074.5,69,2.0,63.5,1,0,0,120.0,64,100,80
2076.5,60,1.0,63.5,1,0,0,120.0,64,100,80
2077.5,69,2.0,63.5,50,9,0,120.0,64,100,80
2079.5,62,0.5,105.83,1,0,0,120.0,64,100,80
2080.0,64,0.5,105.83,1,0,0,120.0,64,100,80
2080.5,60,1.0,105.83,1,0,0,120.0,64,100,80
2081.5,0,1.0,105.83,49,9,0,120.0,64,100,80
2082.5,0,1.0,105.83,49,9,0,144.9,64,100,80
2083.5,64,0.5,105.83,1,0,0,126.0,64,100,80
2084.0,60,1.0,105.83,1,0,0,126.0,64,100,80
2085.0,65,1.0,105.83,1,0,0,126.0,64,100,80
2086.0,71,2.0,105.83,1,0,0,126.0,64,100,80
2088.0,69,2.0,105.83,1,0,0,126.0,64,100,80
2090.0,67,0.25,105.83,1,0,0,126.0,64,100,80
2090.25,71,2.0,105.83,1,0,0,126.0,64,100,80
2092.25,62,0.5,42.33,1,0,0,126.0,64,100,80
2092.75,60,1.0,42.33,1,0,0,126.0,64,100,80
2093.75,65,1.0,42.33,1,0,0,126.0,64,100,80
2094.75,71,2.0,42.33,1,0,0,126.0,64,100,80
2096.75,60,1.0,42.33,1,0,0,126.0,64,100,80
2097.75,64,0.5,42.33,1,0,0,126.0,64,100,80
2098.25,67,0.25,42.33,1,0,0,126.0,64,100,80
2098.5,60,1.0,42.33,1,0,0,126.0,64,100,80
2099.5,60,1.0,42.33,1,0,0,152.14499999999998,64,100,80
2100.5,60,1.0,42.33,1,0,0,132.3,64,100,80
2101.5,71,2.0,42.33,1,0,0,132.3,64,100,80
2103.5,62,0.5,42.33,1,0,0,132.3,64,100,80
2104.0,67,0.25,74.08,1,0,0,132.3,64,100,80
2104.25,62,0.5,74.08,49,9,0,132.3,64,100,80
2104.75,64,0.5,74.08,1,0,0,132.3,64,100,80
2105.25,65,1.0,74.08,1,0,0,132.3,64,100,80
2106.25,67,0.25,74.08,49,9,0,132.3,64,100,80
2106.5,65,1.0,74.08,1,0,0,132.3,64,100,80
2107.5,60,1.0,74.08,1,0,0,132.3,64,100,80
2108.5,62,0.5,74.08,1,0,0,132.3,64,100,80
2109.0,65,1.0,74.08,1,0,0,132.3,64,100,80
2110.0,60,1.0,74.08,1,0,0,132.3,64,100,80
2111.0,60,1.0,74.08,1,0,0,159.75225,64,100,80
2112.0,64,0.5,74.08,1,0,0,138.91500000000002,64,100,80
2112.5,65,1.0,74.08,1,0,0,138.91500000000002,64,100,80
2113.5,60,1.0,74.08,1,0,0,138.91500000000002,64,100,80
2114.5,67,0.25,74.08,1,0,0,138.91500000000002,64,100,80
2114.75,60,1.0,74.08,1,0,0,138.91500000000002,64,100,80
2115.75,65,1.0,74.08,1,0,0,138.91500000000002,64,100,80
2116.75,60,1.0,74.08,1,0,0,138.91500000000002,64,100,80
2117.75,64,0.5,74.08,1,0,0,138.91500000000002,64,100,80
2118.25,64,0.5,74.08,1,0,0,138.91500000000002,64,100,80
2118.75,64,0.5,74.08,1,0,0,167.73986250000002,64,100,80
2119.25,64,0.5,74.08,1,0,0,145.86075000000002,64,100,80
2119.75,65,1.0,74.08,1,0,0,145.86075000000002,64,100,80
2120.75,69,2.0,74.08,1,0,0,145.86075000000002,64,100,80
2122.75,60,1.0,63.5,1,0,0,145.86075000000002,64,100,80
2123.75,64,0.5,63.5,1,0,0,145.86075000000002,64,100,80
2124.25,62,0.5,63.5,1,0,0,145.86075000000002,64,100,80
2124.75,69,2.0,63.5,1,0,0,145.86075000000002,64,100,80
2126.75,71,2.0,63.5,1,0,0,145.86075000000002,64,100,80
2128.75,69,2.0,63.5,49,9,0,145.86075000000002,64,100,80
2130.75,60,1.0,63.5,1,0,0,145.86075000000002,64,100,80
2131.75,71,2.0,63.5,1,0,0,145.86075000000002,64,100,80
2133.75,62,0.5,63.5,1,0,0,145.86075000000002,64,100,80
2134.25,64,0.5,63.5,1,0,0,145.86075000000002,64,100,80
2134.75,0,1.0,63.5,49,9,0,120.0,64,100,80
2135.75,69,2.0,63.5,1,0,0,120.0,64,100,80
2137.75,67,0.25,84.66,1,0,0,120.0,64,100,80
2138.0,69,2.0,84.66,49,9,0,120.0,64,100,80
2140.0,65,1.0,84.66,1,0,0,120.0,64,100,80
2141.0,69,2.0,84.66,1,0,0,120.0,64,100,80
2143.0,64,0.5,84.66,1,0,0,120.0,64,100,80
2143.5,60,1.0,84.66,1,0,0,120.0,64,100,80
2144.5,64,0.5,84.66,1,0,0,120.0,64,100,80
2145.0,71,2.0,84.66,1,0,0,120.0,64,100,80
2147.0,60,1.0,84.66,1,0,0,120.0,64,100,80
2148.0,64,0.5,84.66,1,0,0,120.0,64,100,80
2148.5,62,0.5,84.66,1,0,0,120.0,64,100,80
2149.0,64,0.5,84.66,1,0,0,120.0,64,100,80
2149.5,67,0.25,74.08,1,0,0,120.0,64,100,80
2149.75,69,2.0,74.08,1,0,0,120.0,64,100,80
2151.75,64,0.5,74.08,1,0,0,120.0,64,100,80
2152.25,69,2.0,74.08,1,0,0,120.0,64,100,80
2154.25,64,0.5,74.08,1,0,0,120.0,64,100,80
2154.75,0,1.0,74.08,49,9,0,120.0,64,100,80
2155.75,67,0.25,74.08,1,0,0,120.0,64,100,80
2156.0,62,0.5,74.08,49,9,0,120.0,64,100,80
2156.5,64,0.5,74.08,1,0,0,120.0,64,100,80
2157.0,0,1.0,74.08,49,9,0,120.0,64,100,80
2158.0,60,1.0,74.08,1,0,0,120.0,64,100,80
2159.0,60,1.0,74.08,49,9,0,120.0,64,100,80
2160.0,64,0.5,42.33,1,0,0,120.0,64,100,80
2160.5,0,1.0,42.33,49,9,0,120.0,64,100,80
2161.5,64,0.5,42.33,1,0,0,120.0,64,100,80
2162.0,62,0.5,42.33,49,9,0,120.0,64,100,80
2162.5,64,0.5,42.33,1,0,0,120.0,64,100,80
2163.0,69,2.0,42.33,1,0,0,120.0,64,100,80
2165.0,0,1.0,42.33,49,9,0,120.0,64,100,80
2166.0,0,1.0,42.33,49,9,0,144.9,64,100,80
2167.0,67,0.25,42.33,1,0,0,126.0,64,100,80
2167.25,69,2.0,42.33,1,0,0,126.0,64,100,80
2169.25,67,0.25,42.33,1,0,0,126.0,64,100,80
2169.5,64,0.5,42.33,1,0,0,126.0,64,100,80
2170.0,69,2.0,63.5,1,0,0,126.0,64,100,80
2172.0,64,0.5,63.5,1,0,0,126.0,64,100,80
2172.5,62,0.5,63.5,1,0,0,126.0,64,100,80
2173.0,65,1.0,63.5,1,0,0,126.0,64,100,80
2174.0,69,2.0,63.5,1,0,0,126.0,64,100,80
2176.0,69,2.0,63.5,1,0,0,152.14499999999998,64,100,80
2178.0,60,1.0,63.5,1,0,0,132.3,64,100,80
2179.0,64,0.5,63.5,1,0,0,132.3,64,100,80
2179.5,62,0.5,63.5,1,0,0,132.3,64,100,80
2180.0,62,0.5,63.5,40,9,0,159.75225,64,100,80
2180.5,60,1.0,63.5,1,0,0,138.91500000000002,64,100,80
2181.5,0,1.0,63.5,49,9,0,120.0,64,100,80
2182.5,62,0.5,63.5,1,0,0,120.0,64,100,80
2183.0,69,2.0,63.5,1,0,0,120.0,64,100,80
2185.0,62,0.5,63.5,1,0,0,120.0,64,100,80
2185.5,60,1.0,63.5,1,0,0,120.0,64,100,80
2186.5,60,1.0,63.5,1,0,0,144.9,64,100,80
2187.5,62,0.5,63.5,1,0,0,126.0,64,100,80
2188.0,60,1.0,63.5,1,0,0,126.0,64,100,80
2189.0,64,0.5,63.5,1,0,0,126.0,64,100,80
2189.5,67,0.25,63.5,1,0,0,126.0,64,100,80
2189.75,60,1.0,63.5,1,0,0,126.0,64,100,80
2190.75,64,0.5,63.5,1,0,0,126.0,64,100,80
2191.25,64,0.5,63.5,1,0,0,126.0,64,100,80
2191.75,60,1.0,84.66,1,0,0,126.0,64,100,80
2192.75,60,1.0,84.66,1,0,0,126.0,64,100,80
2193.75,64,0.5,84.66,1,0,0,126.0,64,100,80
2194.25,60,1.0,84.66,1,0,0,126.0,64,100,80
2195.25,64,0.5,84.66,1,0,0,126.0,64,100,80
2195.75,62,0.5,84.66,1,0,0,126.0,64,100,80
2196.25,64,0.5,84.66,1,0,0,126.0,64,100,80
2196.75,69,2.0,84.66,1,0,0,126.0,64,100,80
2198.75,60,1.0,84.66,1,0,0,126.0,64,100,80
2199.75,69,2.0,84.66,1,0,0,126.0,64,100,80
2201.75,60,1.0,84.66,1,0,0,126.0,64,100,80
2202.75,60,1.0,84.66,1,0,0,126.0,64,100,80
2203.75,60,1.0,63.5,1,0,0,152.14499999999998,64,100,80
2204.75,65,1.0,63.5,1,0,0,132.3,64,100,80
2205.75,60,1.0,63.5,1,0,0,132.3,64,100,80
2206.75,69,2.0,63.5,1,0,0,132.3,64,100,80
2208.75,60,1.0,63.5,1,0,0,132.3,64,100,80
2209.75,0,1.0,63.5,49,9,0,120.0,64,100,80
2210.75,60,1.0,63.5,1,0,0,120.0,64,100,80
2211.75,65,1.0,63.5,1,0,0,120.0,64,100,80
2212.75,69,2.0,63.5,1,0,0,120.0,64,100,80
2214.75,71,2.0,63.5,50,9,0,120.0,64,100,80
2216.75,67,0.25,63.5,1,0,0,120.0,64,100,80
2217.0,69,2.0,63.5,1,0,0,120.0,64,100,80
2219.0,60,1.0,52.91,1,0,0,120.0,64,100,80
2220.0,60,1.0,52.91,1,0,0,120.0,64,100,80
2221.0,60,1.0,52.91,1,0,0,120.0,64,100,80
2222.0,60,1.0,52.91,1,0,0,144.9,64,100,80
2223.0,65,1.0,52.91,1,0,0,126.0,64,100,80
2224.0,60,1.0,52.91,1,0,0,126.0,64,100,80
2225.0,60,1.0,52.91,1,0,0,152.14499999999998,64,100,80
2226.0,69,2.0,52.91,1,0,0,132.3,64,100,80
2228.0,67,0.25,52.91,1,0,0,132.3,64,100,80
2228.25,71,2.0,52.91,1,0,0,132.3,64,100,80
2230.25,69,2.0,52.91,1,0,0,132.3,64,100,80
2232.25,69,2.0,52.91,1,0,0,159.75225,64,100,80
2234.25,62,0.5,74.08,1,0,0,138.91500000000002,64,100,80
2234.75,60,1.0,74.08,1,0,0,138.91500000000002,64,100,80
2235.75,69,2.0,74.08,1,0,0,138.91500000000002,64,100,80
2237.75,62,0.5,74.08,49,9,0,138.91500000000002,64,100,80
2238.25,62,0.5,74.08,1,0,0,138.91500000000002,64,100,80
2238.75,60,1.0,74.08,1,0,0,138.91500000000002,64,100,80
2239.75,64,0.5,74.08,1,0,0,138.91500000000002,64,100,80
2240.25,65,1.0,74.08,1,0,0,138.91500000000002,64,100,80
2241.25,60,1.0,74.08,1,0,0,138.91500000000002,64,100,80
2242.25,69,2.0,74.08,1,0,0,138.91500000000002,64,100,80
2244.25,71,2.0,74.08,1,0,0,138.91500000000002,64,100,80
2246.25,71,2.0,74.08,51,9,0,167.73986250000002,64,100,80
2248.25,0,1.0,84.66,49,9,0,120.0,64,100,80
2249.25,60,1.0,84.66,1,0,0,120.0,64,100,80
2250.25,64,0.5,84.66,1,0,0,120.0,64,100,80
2250.75,64,0.5,84.66,1,0,0,144.9,64,100,80
2251.25,60,1.0,84.66,1,0,0,126.0,64,100,80
2252.25,60,1.0,84.66,1,0,0,126.0,64,100,80
2253.25,62,0.5,84.66,1,0,0,126.0,64,100,80
2253.75,64,0.5,84.66,50,9,0,126.0,64,100,80
2254.25,60,1.0,84.66,1,0,0,126.0,64,100,80
2255.25,62,0.5,84.66,1,0,0,126.0,64,100,80
2255.75,69,2.0,84.66,1,0,0,126.0,64,100,80
2257.75,69,2.0,84.66,1,0,0,152.14499999999998,64,100,80
2259.75,64,0.5,74.08,1,0,0,132.3,64,100,80
2260.25,69,2.0,74.08,1,0,0,132.3,64,100,80
2262.25,60,1.0,74.08,1,0,0,132.3,64,100,80
2263.25,69,2.0,74.08,1,0,0,132.3,64,100,80
2265.25,60,1.0,74.08,1,0,0,132.3,64,100,80
2266.25,60,1.0,74.08,1,0,0,159.75225,64,100,80
2267.25,69,2.0,74.08,1,0,0,138.91500000000002,64,100,80
2269.25,62,0.5,74.08,1,0,0,138.91500000000002,64,100,80
2269.75,65,1.0,74.08,49,9,0,138.91500000000002,64,100,80
2270.75,65,1.0,74.08,1,0,0,138.91500000000002,64,100,80
2271.75,64,0.5,74.08,1,0,0,138.91500000000002,64,100,80
2272.25,69,2.0,74.08,1,0,0,138.91500000000002,64,100,80
2274.25,64,1.0,63.5,50,9,0,138.91500000000002,64,100,80
2275.25,68,2.0,63.5,49,9,0,138.91500000000002,64,100,80
2277.25,63,0.5,63.5,1,0,0,138.91500000000002,64,100,80
2277.75,61,0.5,63.5,1,0,0,138.91500000000002,64,100,80
2278.25,61,0.5,63.5,1,0,0,138.91500000000002,64,100,80
2278.75,70,2.0,63.5,1,0,0,138.91500000000002,64,100,80
2280.75,68,2.0,63.5,49,9,0,138.91500000000002,64,100,80
2282.75,63,0.5,63.5,1,0,0,138.91500000000002,64,100,80
2283.25,59,1.0,63.5,1,0,0,138.91500000000002,64,100,80
2284.25,63,0.5,63.5,1,0,0,138.91500000000002,64,100,80
2284.75,59,1.0,63.5,1,0,0,138.91500000000002,64,100,80
2285.75,68,2.0,63.5,1,0,0,138.91500000000002,64,100,80
2287.75,63,0.5,84.66,1,0,0,138.91500000000002,64,100,80
2288.25,59,1.0,84.66,1,0,0,138.91500000000002,64,100,80
2289.25,68,2.0,84.66,1,0,0,138.91500000000002,64,100,80
2291.25,68,2.0,84.66,1,0,0,167.73986250000002,64,100,80
2293.25,61,0.5,84.66,1,0,0,145.86075000000002,64,100,80
2293.75,64,1.0,84.66,1,0,0,145.86075000000002,64,100,80
2294.75,59,1.0,84.66,1,0,0,145.86075000000002,64,100,80
2295.75,68,2.0,84.66,1,0,0,145.86075000000002,64,100,80
2297.75,63,0.5,84.66,1,0,0,145.86075000000002,64,100,80
2298.25,68,2.0,84.66,1,0,0,145.86075000000002,64,100,80
2300.25,0,1.0,84.66,49,9,0,120.0,64,100,80
2301.25,69,2.0,84.66,50,9,0,120.0,64,100,80
2303.25,65,1.0,63.5,1,0,0,120.0,64,100,80
2304.25,64,0.5,63.5,1,0,0,120.0,64,100,80
2304.75,60,1.0,63.5,1,0,0,120.0,64,100,80
2305.75,67,0.25,63.5,1,0,0,120.0,64,100,80
2306.0,69,2.0,63.5,1,0,0,120.0,64,100,80
2308.0,60,1.0,63.5,1,0,0,120.0,64,100,80
2309.0,69,2.0,63.5,50,9,0,120.0,64,100,80
2311.0,62,0.5,63.5,1,0,0,120.0,64,100,80
2311.5,69,2.0,63.5,1,0,0,120.0,64,100,80
2313.5,69,2.0,63.5,1,0,0,144.9,64,100,80
2315.5,69,2.0,63.5,1,0,0,304.28999999999996,64,100,80
2317.5,71,2.0,63.5,50,9,0,132.3,64,100,80
2319.5,67,0.25,63.5,1,0,0,132.3,64,100,80
2319.75,60,1.0,63.5,1,0,0,132.3,64,100,80
2320.75,60,1.0,63.5,1,0,0,159.75225,64,100,80
2321.75,64,0.5,63.5,49,9,0,138.91500000000002,64,100,80
2322.25,64,0.5,63.5,1,0,0,138.91500000000002,64,100,80
2322.75,0,1.0,63.5,49,9,0,120.0,64,100,80
2323.75,62,0.5,63.5,1,0,0,120.0,64,100,80
2324.25,60,1.0,63.5,1,0,0,120.0,64,100,80
2325.25,60,1.0,63.5,1,0,0,144.9,64,100,80
2326.25,67,0.25,63.5,1,0,0,126.0,64,100,80
2326.5,60,1.0,63.5,1,0,0,126.0,64,100,80
2327.5,69,2.0,63.5,1,0,0,126.0,64,100,80
2329.5,60,1.0,95.25,1,0,0,126.0,64,100,80
2330.5,69,2.0,95.25,1,0,0,126.0,64,100,80
2332.5,67,0.25,95.25,1,0,0,126.0,64,100,80
2332.75,62,0.5,95.25,1,0,0,126.0,64,100,80
2333.25,60,1.0,95.25,1,0,0,126.0,64,100,80
2334.25,60,1.0,95.25,1,0,0,152.14499999999998,64,100,80
2335.25,71,2.0,95.25,1,0,0,132.3,64,100,80
2337.25,64,0.5,95.25,1,0,0,132.3,64,100,80
2337.75,0,1.0,95.25,49,9,0,120.0,64,100,80
2338.75,60,1.0,95.25,1,0,0,120.0,64,100,80
2339.75,62,0.5,95.25,1,0,0,120.0,64,100,80
2340.25,60,1.0,95.25,1,0,0,120.0,64,100,80
2341.25,71,2.0,63.5,1,0,0,120.0,64,100,80
2343.25,69,2.0,63.5,1,0,0,120.0,64,100,80
2345.25,60,1.0,63.5,50,9,0,120.0,64,100,80
2346.25,62,0.5,63.5,1,0,0,120.0,64,100,80
2346.75,67,0.25,63.5,1,0,0,120.0,64,100,80
2347.0,67,0.25,63.5,1,0,0,144.9,64,100,80
2347.25,64,0.5,63.5,49,9,0,126.0,64,100,80
2347.75,60,1.0,63.5,1,0,0,126.0,64,100,80
2348.75,67,0.25,63.5,1,0,0,126.0,64,100,80
2349.0,60,1.0,63.5,1,0,0,126.0,64,100,80
2350.0,60,1.0,63.5,1,0,0,152.14499999999998,64,100,80
2351.0,64,0.5,63.5,49,9,0,132.3,64,100,80
2351.5,64,0.5,74.08,1,0,0,132.3,64,100,80
2352.0,62,0.5,74.08,1,0,0,132.3,64,100,80
2352.5,62,0.5,74.08,1,0,0,132.3,64,100,80
2353.0,71,2.0,74.08,1,0,0,132.3,64,100,80
2355.0,0,1.0,74.08,49,9,0,120.0,64,100,80
2356.0,64,0.5,74.08,1,0,0,120.0,64,100,80
2356.5,64,0.5,74.08,1,0,0,144.9,64,100,80
2357.0,60,1.0,74.08,1,0,0,126.0,64,100,80
2358.0,62,0.5,74.08,1,0,0,126.0,64,100,80
2358.5,60,1.0,74.08,1,0,0,126.0,64,100,80
2359.5,67,0.25,74.08,50,9,0,126.0,64,100,80
2359.75,65,1.0,74.08,49,9,0,126.0,64,100,80
2360.75,64,0.5,52.91,1,0,0,126.0,64,100,80
2361.25,60,1.0,52.91,1,0,0,126.0,64,100,80
2362.25,60,1.0,52.91,1,0,0,126.0,64,100,80
2363.25,62,0.5,52.91,1,0,0,126.0,64,100,80
2363.75,62,0.5,52.91,1,0,0,126.0,64,100,80
2364.25,60,1.0,52.91,1,0,0,126.0,64,100,80
2365.25,69,2.0,52.91,1,0,0,126.0,64,100,80
2367.25,0,1.0,52.91,49,9,0,120.0,64,100,80
2368.25,60,1.0,52.91,1,0,0,120.0,64,100,80
2369.25,62,0.5,52.91,1,0,0,120.0,64,100,80
2369.75,60,1.0,52.91,1,0,0,120.0,64,100,80
2370.75,60,1.0,52.91,1,0,0,144.9,64,100,80
2371.75,62,0.5,63.5,1,0,0,126.0,64,100,80
2372.25,62,0.5,63.5,1,0,0,126.0,64,100,80
2372.75,71,2.0,63.5,1,0,0,126.0,64,100,80
2374.75,69,2.0,63.5,1,0,0,126.0,64,100,80
2376.75,64,0.5,63.5,49,9,0,126.0,64,100,80
2377.25,64,0.5,63.5,1,0,0,126.0,64,100,80
2377.75,64,1.0,63.5,50,9,0,126.0,64,100,80
2378.75,59,1.0,63.5,1,0,0,126.0,64,100,80
2379.75,64,1.0,63.5,1,0,0,126.0,64,100,80
2380.75,70,2.0,63.5,1,0,0,126.0,64,100,80
2382.75,68,2.0,63.5,1,0,0,126.0,64,100,80
2384.75,59,1.0,63.5,1,0,0,126.0,64,100,80
2385.75,59,1.0,63.5,1,0,0,152.14499999999998,64,100,80
2386.75,59,1.0,63.5,1,0,0,319.5045,64,100,80
2387.75,70,2.0,63.5,50,9,0,138.91500000000002,64,100,80
2389.75,68,2.0,63.5,1,0,0,138.91500000000002,64,100,80
2391.75,70,2.0,63.5,1,0,0,138.91500000000002,64,100,80
2393.75,59,1.0,63.5,1,0,0,138.91500000000002,64,100,80
2394.75,61,0.5,63.5,1,0,0,138.91500000000002,64,100,80
2395.25,59,1.0,63.5,1,0,0,138.91500000000002,64,100,80
2396.25,64,1.0,63.5,49,9,0,138.91500000000002,64,100,80
2397.25,63,0.5,63.5,1,0,0,138.91500000000002,64,100,80
2397.75,68,2.0,63.5,51,9,0,138.91500000000002,64,100,80
2399.75,64,1.0,63.5,50,9,0,138.91500000000002,64,100,80
2400.75,59,1.0,31.75,1,0,0,138.91500000000002,64,100,80
2401.75,59,1.0,31.75,1,0,0,167.73986250000002,64,100,80
2402.75,61,0.5,31.75,50,9,0,145.86075000000002,64,100,80
2403.25,0,1.0,31.75,49,9,0,120.0,64,100,80
2404.25,0,1.0,31.75,49,9,0,144.9,64,100,80
2405.25,69,2.0,31.75,1,0,0,126.0,64,100,80
2407.25,64,0.5,31.75,1,0,0,126.0,64,100,80
2407.75,60,1.0,31.75,50,9,0,126.0,64,100,80
2408.75,67,0.25,31.75,1,0,0,126.0,64,100,80
2409.0,60,1.0,31.75,1,0,0,126.0,64,100,80
2410.0,60,1.0,31.75,1,0,0,152.14499999999998,64,100,80
2411.0,69,2.0,31.75,1,0,0,132.3,64,100,80
2413.0,69,2.0,63.5,1,0,0,132.3,64,100,80
2415.0,60,1.0,63.5,1,0,0,132.3,64,100,80
2416.0,62,0.5,63.5,1,0,0,132.3,64,100,80
2416.5,62,0.5,63.5,1,0,0,132.3,64,100,80
2417.0,60,1.0,63.5,1,0,0,132.3,64,100,80
2418.0,64,0.5,63.5,1,0,0,132.3,64,100,80
2418.5,62,0.5,63.5,1,0,0,132.3,64,100,80
2419.0,0,1.0,63.5,49,9,0,120.0,64,100,80
2420.0,60,1.0,63.5,1,0,0,120.0,64,100,80
2421.0,62,0.5,63.5,1,0,0,120.0,64,100,80
2421.5,69,2.0,63.5,1,0,0,120.0,64,100,80
2423.5,67,0.25,63.5,1,0,0,120.0,64,100,80
2423.75,60,1.0,84.66,1,0,0,120.0,64,100,80
2424.75,67,0.25,84.66,1,0,0,120.0,64,100,80
2425.0,60,1.0,84.66,1,0,0,120.0,64,100,80
2426.0,64,0.5,84.66,1,0,0,120.0,64,100,80
2426.5,65,1.0,84.66,50,9,0,120.0,64,100,80
2427.5,67,0.25,84.66,1,0,0,120.0,64,100,80
2427.75,60,1.0,84.66,1,0,0,120.0,64,100,80
2428.75,62,0.5,84.66,1,0,0,120.0,64,100,80
2429.25,67,0.25,84.66,1,0,0,120.0,64,100,80
2429.5,62,0.5,84.66,1,0,0,120.0,64,100,80
2430.0,71,2.0,84.66,1,0,0,120.0,64,100,80
2432.0,64,0.5,84.66,1,0,0,120.0,64,100,80
2432.5,60,1.0,74.08,1,0,0,120.0,64,100,80
2433.5,69,2.0,74.08,1,0,0,120.0,64,100,80
2435.5,0,1.0,74.08,49,9,0,120.0,64,100,80
2436.5,0,1.0,74.08,49,9,0,144.9,64,100,80
2437.5,60,1.0,74.08,1,0,0,126.0,64,100,80
2438.5,64,0.5,74.08,39,9,0,126.0,64,100,80
2439.0,60,1.0,74.08,1,0,0,126.0,64,100,80
2440.0,60,1.0,74.08,1,0,0,126.0,64,100,80
2441.0,64,0.5,74.08,1,0,0,126.0,64,100,80
2441.5,71,2.0,74.08,1,0,0,126.0,64,100,80
2443.5,69,2.0,74.08,1,0,0,126.0,64,100,80
2445.5,62,0.5,74.08,1,0,0,126.0,64,100,80
2446.0,69,2.0,63.5,1,0,0,126.0,64,100,80
2448.0,62,0.5,63.5,1,0,0,126.0,64,100,80
2448.5,64,0.5,63.5,50,9,0,126.0,64,100,80
2449.0,69,2.0,63.5,1,0,0,126.0,64,100,80
2451.0,64,0.5,63.5,1,0,0,126.0,64,100,80
2451.5,71,2.0,63.5,1,0,0,126.0,64,100,80
2453.5,60,1.0,63.5,1,0,0,126.0,64,100,80
2454.5,67,0.25,63.5,1,0,0,126.0,64,100,80
2454.75,69,2.0,63.5,1,0,0,126.0,64,100,80
2456.75,62,0.5,63.5,1,0,0,126.0,64,100,80
2457.25,64,0.5,63.5,1,0,0,126.0,64,100,80
2457.75,60,1.0,63.5,1,0,0,126.0,64,100,80
2458.75,64,0.5,63.5,1,0,0,126.0,64,100,80
2459.25,67,0.25,63.5,1,0,0,126.0,64,100,80
2459.5,67,0.25,63.5,1,0,0,152.14499999999998,64,100,80
2459.75,69,2.0,63.5,1,0,0,132.3,64,100,80
2461.75,60,1.0,63.5,1,0,0,132.3,64,100,80
2462.75,64,0.5,63.5,1,0,0,132.3,64,100,80
2463.25,62,0.5,63.5,1,0,0,132.3,64,100,80
2463.75,60,1.0,63.5,1,0,0,132.3,64,100,80
2464.75,65,1.0,63.5,1,0,0,132.3,64,100,80
2465.75,60,1.0,63.5,1,0,0,132.3,64,100,80
2466.75,64,0.5,63.5,49,9,0,132.3,64,100,80
2467.25,60,1.0,63.5,1,0,0,132.3,64,100,80
2468.25,60,1.0,84.66,1,0,0,159.75225,64,100,80
2469.25,60,1.0,84.66,1,0,0,138.91500000000002,64,100,80
2470.25,65,1.0,84.66,1,0,0,138.91500000000002,64,100,80
2471.25,0,1.0,84.66,49,9,0,120.0,64,100,80
2472.25,60,1.0,84.66,1,0,0,120.0,64,100,80
2473.25,69,2.0,84.66,1,0,0,120.0,64,100,80
2475.25,62,0.5,84.66,1,0,0,120.0,64,100,80
2475.75,64,0.5,84.66,1,0,0,120.0,64,100,80
2476.25,69,2.0,84.66,1,0,0,120.0,64,100,80
2478.25,60,1.0,84.66,1,0,0,120.0,64,100,80
2479.25,60,1.0,84.66,1,0,0,144.9,64,100,80
2480.25,69,2.0,84.66,1,0,0,126.0,64,100,80
2482.25,62,0.5,95.25,1,0,0,126.0,64,100,80
2482.75,69,2.0,95.25,1,0,0,126.0,64,100,80
2484.75,71,2.0,95.25,1,0,0,126.0,64,100,80
2486.75,69,2.0,95.25,1,0,0,126.0,64,100,80
2488.75,0,1.0,95.25,49,9,0,120.0,64,100,80
2489.75,64,0.5,95.25,1,0,0,120.0,64,100,80
2490.25,64,0.5,95.25,1,0,0,120.0,64,100,80
2490.75,60,1.0,95.25,1,0,0,120.0,64,100,80
2491.75,0,1.0,95.25,49,9,0,120.0,64,100,80
2492.75,64,0.5,95.25,1,0,0,120.0,64,100,80
2493.25,62,0.5,95.25,1,0,0,120.0,64,100,80
2493.75,62,0.5,95.25,1,0,0,144.9,64,100,80
2494.25,62,0.5,63.5,1,0,0,126.0,64,100,80
2494.75,0,1.0,63.5,49,9,0,120.0,64,100,80
2495.75,69,2.0,63.5,1,0,0,120.0,64,100,80
2497.75,65,1.0,63.5,1,0,0,120.0,64,100,80
2498.75,64,0.5,63.5,1,0,0,120.0,64,100,80
2499.25,71,2.0,63.5,1,0,0,120.0,64,100,80
2501.25,69,2.0,63.5,1,0,0,120.0,64,100,80
2503.25,69,2.0,63.5,1,0,0,144.9,64,100,80
2505.25,62,0.5,63.5,1,0,0,126.0,64,100,80
2505.75,62,0.5,63.5,1,0,0,126.0,64,100,80
2506.25,60,1.0,63.5,1,0,0,126.0,64,100,80
2507.25,62,0.5,63.5,51,9,0,126.0,64,100,80
2507.75,67,0.25,105.83,1,0,0,126.0,64,100,80
2508.0,71,2.0,105.83,1,0,0,126.0,64,100,80
2510.0,71,2.0,105.83,1,0,0,126.0,64,100,80
2512.0,60,1.0,105.83,1,0,0,126.0,64,100,80
2513.0,64,0.5,105.83,1,0,0,126.0,64,100,80
2513.5,69,2.0,105.83,1,0,0,126.0,64,100,80
2515.5,60,1.0,105.83,1,0,0,126.0,64,100,80
2516.5,64,0.5,105.83,1,0,0,126.0,64,100,80
2517.0,60,1.0,105.83,1,0,0,126.0,64,100,80
2518.0,67,0.25,105.83,1,0,0,126.0,64,100,80
2518.25,60,1.0,105.83,49,9,0,126.0,64,100,80
2519.25,64,0.5,105.83,1,0,0,126.0,64,100,80
2519.75,64,0.5,63.5,1,0,0,126.0,64,100,80
2520.25,60,1.0,63.5,1,0,0,126.0,64,100,80
2521.25,60,1.0,63.5,1,0,0,126.0,64,100,80
2522.25,0,1.0,63.5,49,9,0,120.0,64,100,80
2523.25,60,1.0,63.5,1,0,0,120.0,64,100,80
2524.25,62,0.5,63.5,1,0,0,120.0,64,100,80
2524.75,64,0.5,63.5,50,9,0,120.0,64,100,80
2525.25,67,0.25,63.5,1,0,0,120.0,64,100,80
2525.5,64,0.5,63.5,1,0,0,120.0,64,100,80
2526.0,60,1.0,63.5,1,0,0,120.0,64,100,80
2527.0,62,0.5,63.5,1,0,0,120.0,64,100,80
2527.5,65,1.0,63.5,49,9,0,120.0,64,100,80
2528.5,62,0.5,63.5,1,0,0,120.0,64,100,80
2529.0,60,1.0,63.5,1,0,0,120.0,64,100,80
2530.0,62,0.5,63.5,1,0,0,120.0,64,100,80
2530.5,62,0.5,63.5,1,0,0,144.9,64,100,80
2531.0,60,1.0,63.5,1,0,0,126.0,64,100,80
2532.0,62,0.5,63.5,1,0,0,126.0,64,100,80
2532.5,71,2.0,63.5,49,9,0,126.0,64,100,80
2534.5,65,1.0,63.5,1,0,0,126.0,64,100,80
2535.5,60,1.0,63.5,1,0,0,126.0,64,100,80
2536.5,71,2.0,63.5,1,0,0,126.0,64,100,80
2538.5,71,2.0,63.5,1,0,0,152.14499999999998,64,100,80
2540.5,65,1.0,63.5,49,9,0,132.3,64,100,80
2541.5,64,0.5,63.5,1,0,0,132.3,64,100,80
2542.0,65,1.0,63.5,49,9,0,132.3,64,100,80
2543.0,60,1.0,63.5,1,0,0,132.3,64,100,80
2544.0,60,1.0,63.5,1,0,0,159.75225,64,100,80
2545.0,60,1.0,63.5,1,0,0,138.91500000000002,64,100,80
2546.0,60,1.0,63.5,1,0,0,138.91500000000002,64,100,80
2547.0,62,0.5,63.5,1,0,0,138.91500000000002,64,100,80
2547.5,71,2.0,63.5,1,0,0,138.91500000000002,64,100,80
2549.5,60,1.0,63.5,1,0,0,138.91500000000002,64,100,80
2550.5,60,1.0,63.5,1,0,0,138.91500000000002,64,100,80
2551.5,62,0.5,63.5,51,9,0,138.91500000000002,64,100,80
2552.0,67,0.25,63.5,49,9,0,138.91500000000002,64,100,80
2552.25,62,0.5,52.91,1,0,0,138.91500000000002,64,100,80
2552.75,69,2.0,52.91,49,9,0,138.91500000000002,64,100,80
2554.75,67,0.25,52.91,1,0,0,138.91500000000002,64,100,80
2555.0,69,2.0,52.91,1,0,0,138.91500000000002,64,100,80
2557.0,62,0.5,52.91,1,0,0,138.91500000000002,64,100,80
2557.5,69,2.0,52.91,1,0,0,138.91500000000002,64,100,80
2559.5,62,0.5,52.91,1,0,0,138.91500000000002,64,100,80
2560.0,64,0.5,52.91,50,9,0,138.91500000000002,64,100,80
2560.5,0,1.0,52.91,49,9,0,120.0,64,100,80
2561.5,64,0.5,52.91,1,0,0,120.0,64,100,80
2562.0,65,1.0,52.91,1,0,0,120.0,64,100,80
2563.0,60,1.0,52.91,49,9,0,120.0,64,100,80
2564.0,64,0.5,52.91,1,0,0,120.0,64,100,80
2564.5,60,1.0,52.91,1,0,0,120.0,64,100,80
2565.5,60,1.0,52.91,1,0,0,144.9,64,100,80
2566.5,62,0.5,52.91,1,0,0,126.0,64,100,80
2567.0,64,1.0,52.91,49,9,0,126.0,64,100,80
2568.0,61,0.5,52.91,1,0,0,126.0,64,100,80
2568.5,66,0.25,52.91,1,0,0,126.0,64,100,80
2568.75,64,1.0,52.91,1,0,0,126.0,64,100,80
2569.75,61,0.5,52.91,1,0,0,126.0,64,100,80
2570.25,59,1.0,52.91,1,0,0,126.0,64,100,80
2571.25,68,2.0,52.91,1,0,0,126.0,64,100,80
2573.25,63,0.5,52.91,49,9,0,126.0,64,100,80
2573.75,61,0.5,95.25,1,0,0,126.0,64,100,80
2574.25,68,2.0,95.25,1,0,0,126.0,64,100,80
2576.25,59,1.0,95.25,1,0,0,126.0,64,100,80
2577.25,68,2.0,95.25,1,0,0,126.0,64,100,80
2579.25,59,1.0,95.25,1,0,0,126.0,64,100,80
2580.25,68,2.0,95.25,1,0,0,126.0,64,100,80
2582.25,63,0.5,95.25,1,0,0,126.0,64,100,80
2582.75,66,0.25,95.25,1,0,0,126.0,64,100,80
2583.0,64,1.0,95.25,50,9,0,126.0,64,100,80
2584.0,70,2.0,95.25,1,0,0,126.0,64,100,80
2586.0,70,2.0,95.25,1,0,0,152.14499999999998,64,100,80
2588.0,61,0.5,95.25,1,0,0,132.3,64,100,80
2588.5,68,2.0,52.91,1,0,0,132.3,64,100,80
2590.5,59,1.0,52.91,1,0,0,132.3,64,100,80
2591.5,61,0.5,52.91,1,0,0,132.3,64,100,80
2592.0,59,1.0,52.91,1,0,0,132.3,64,100,80
2593.0,66,0.25,52.91,1,0,0,132.3,64,100,80
2593.25,61,0.5,52.91,1,0,0,132.3,64,100,80
2593.75,68,2.0,52.91,1,0,0,132.3,64,100,80
2595.75,68,2.0,52.91,1,0,0,132.3,64,100,80
2597.75,63,0.5,52.91,49,9,0,132.3,64,100,80
2598.25,64,1.0,52.91,1,0,0,132.3,64,100,80
2599.25,66,0.25,52.91,1,0,0,132.3,64,100,80
2599.5,59,1.0,52.91,1,0,0,132.3,64,100,80
2600.5,70,2.0,31.75,1,0,0,132.3,64,100,80
2602.5,68,2.0,31.75,1,0,0,132.3,64,100,80
2604.5,66,0.25,31.75,1,0,0,132.3,64,100,80
2604.75,59,1.0,31.75,1,0,0,132.3,64,100,80
2605.75,64,1.0,31.75,49,9,0,132.3,64,100,80
2606.75,61,0.5,31.75,1,0,0,132.3,64,100,80
2607.25,64,1.0,31.75,49,9,0,132.3,64,100,80
2608.25,64,1.0,31.75,50,9,0,132.3,64,100,80
2609.25,59,1.0,31.75,1,0,0,132.3,64,100,80
2610.25,66,0.25,31.75,1,0,0,132.3,64,100,80
2610.5,0,1.0,31.75,49,9,0,120.0,64,100,80
2611.5,64,1.0,31.75,50,9,0,120.0,64,100,80
2612.5,63,0.5,84.66,1,0,0,120.0,64,100,80
2613.0,59,1.0,84.66,1,0,0,120.0,64,100,80
2614.0,0,1.0,84.66,49,9,0,120.0,64,100,80
2615.0,60,1.0,84.66,1,0,0,120.0,64,100,80
2616.0,69,2.0,84.66,1,0,0,120.0,64,100,80
2618.0,62,0.5,84.66,1,0,0,120.0,64,100,80
2618.5,64,0.5,84.66,50,9,0,120.0,64,100,80
2619.0,67,0.25,84.66,1,0,0,120.0,64,100,80
2619.25,60,1.0,84.66,1,0,0,120.0,64,100,80
2620.25,0,1.0,84.66,49,9,0,120.0,64,100,80
2621.25,60,1.0,84.66,1,0,0,120.0,64,100,80
2622.25,71,2.0,84.66,1,0,0,120.0,64,100,80
2624.25,64,0.5,95.25,1,0,0,120.0,64,100,80
2624.75,71,2.0,95.25,1,0,0,120.0,64,100,80
2626.75,62,0.5,95.25,1,0,0,120.0,64,100,80
2627.25,69,2.0,95.25,1,0,0,120.0,64,100,80
2629.25,64,0.5,95.25,1,0,0,120.0,64,100,80
2629.75,69,2.0,95.25,1,0,0,120.0,64,100,80
2631.75,67,0.25,95.25,1,0,0,120.0,64,100,80
2632.0,60,1.0,95.25,1,0,0,120.0,64,100,80
2633.0,60,1.0,95.25,1,0,0,144.9,64,100,80
2634.0,62,0.5,95.25,50,9,0,126.0,64,100,80
2634.5,67,0.25,95.25,1,0,0,126.0,64,100,80
2634.75,71,2.0,95.25,1,0,0,126.0,64,100,80
2636.75,62,0.5,95.25,1,0,0,126.0,64,100,80
2637.25,60,1.0,95.25,1,0,0,126.0,64,100,80
2638.25,67,0.25,95.25,1,0,0,126.0,64,100,80
2638.5,60,1.0,95.25,1,0,0,126.0,64,100,80
2639.5,64,0.5,95.25,1,0,0,126.0,64,100,80
2640.0,62,0.5,95.25,1,0,0,126.0,64,100,80
2640.5,60,1.0,95.25,1,0,0,126.0,64,100,80
2641.5,60,1.0,95.25,1,0,0,126.0,64,100,80
2642.5,64,0.5,95.25,49,9,0,126.0,64,100,80
2643.0,67,0.25,95.25,1,0,0,126.0,64,100,80
2643.25,65,1.0,95.25,1,0,0,126.0,64,100,80
2644.25,71,2.0,95.25,1,0,0,126.0,64,100,80
2646.25,69,2.0,95.25,1,0,0,126.0,64,100,80
2648.25,64,1.0,95.25,49,9,0,126.0,64,100,80
2649.25,66,0.25,95.25,1,0,0,126.0,64,100,80
2649.5,66,0.25,95.25,1,0,0,126.0,64,100,80
2649.75,59,1.0,95.25,1,0,0,126.0,64,100,80
2650.75,63,0.5,95.25,1,0,0,126.0,64,100,80
2651.25,59,1.0,95.25,1,0,0,126.0,64,100,80
2652.25,59,1.0,95.25,50,9,0,126.0,64,100,80
2653.25,66,0.25,95.25,1,0,0,126.0,64,100,80
2653.5,64,1.0,95.25,1,0,0,126.0,64,100,80
2654.5,66,0.25,95.25,1,0,0,126.0,64,100,80
2654.75,61,0.5,95.25,1,0,0,126.0,64,100,80
2655.25,61,0.5,74.08,1,0,0,126.0,64,100,80
2655.75,68,2.0,74.08,1,0,0,126.0,64,100,80
2657.75,61,0.5,74.08,1,0,0,126.0,64,100,80
2658.25,59,1.0,74.08,1,0,0,126.0,64,100,80
2659.25,68,2.0,74.08,1,0,0,126.0,64,100,80
2661.25,61,0.5,74.08,1,0,0,126.0,64,100,80
2661.75,68,2.0,74.08,1,0,0,126.0,64,100,80
2663.75,59,1.0,74.08,1,0,0,126.0,64,100,80
2664.75,64,1.0,74.08,50,9,0,126.0,64,100,80
2665.75,61,0.5,74.08,1,0,0,126.0,64,100,80
2666.25,64,1.0,74.08,50,9,0,126.0,64,100,80
2667.25,70,2.0,74.08,1,0,0,126.0,64,100,80
2669.25,68,2.0,42.33,1,0,0,126.0,64,100,80
2671.25,70,2.0,42.33,1,0,0,126.0,64,100,80
2673.25,63,0.5,42.33,1,0,0,126.0,64,100,80
2673.75,59,1.0,42.33,1,0,0,126.0,64,100,80
2674.75,0,1.0,42.33,49,9,0,120.0,64,100,80
2675.75,62,0.5,42.33,1,0,0,120.0,64,100,80
2676.25,65,1.0,42.33,1,0,0,120.0,64,100,80
2677.25,60,1.0,42.33,1,0,0,120.0,64,100,80
2678.25,69,2.0,42.33,1,0,0,120.0,64,100,80
2680.25,62,0.5,42.33,1,0,0,120.0,64,100,80
2680.75,60,1.0,42.33,1,0,0,120.0,64,100,80
2681.75,62,0.5,42.33,49,9,0,120.0,64,100,80
2682.25,65,1.0,74.08,1,0,0,120.0,64,100,80
2683.25,64,0.5,74.08,1,0,0,120.0,64,100,80
2683.75,64,0.5,74.08,49,9,0,120.0,64,100,80
2684.25,60,1.0,74.08,1,0,0,120.0,64,100,80
2685.25,60,1.0,74.08,1,0,0,120.0,64,100,80
2686.25,67,0.25,74.08,1,0,0,120.0,64,100,80
2686.5,60,1.0,74.08,1,0,0,120.0,64,100,80
2687.5,60,1.0,74.08,1,0,0,144.9,64,100,80
2688.5,71,2.0,74.08,1,0,0,126.0,64,100,80
2690.5,60,1.0,74.08,1,0,0,126.0,64,100,80
2691.5,69,2.0,74.08,1,0,0,126.0,64,100,80
2693.5,64,0.5,74.08,1,0,0,126.0,64,100,80
2694.0,62,0.5,63.5,1,0,0,126.0,64,100,80
2694.5,60,1.0,63.5,1,0,0,126.0,64,100,80
2695.5,60,1.0,63.5,1,0,0,152.14499999999998,64,100,80
2696.5,67,0.25,63.5,1,0,0,132.3,64,100,80
2696.75,69,2.0,63.5,1,0,0,132.3,64,100,80
2698.75,60,1.0,63.5,1,0,0,132.3,64,100,80
2699.75,60,1.0,63.5,1,0,0,132.3,64,100,80
2700.75,64,0.5,63.5,1,0,0,132.3,64,100,80
2701.25,64,0.5,63.5,1,0,0,159.75225,64,100,80
2701.75,60,1.0,63.5,1,0,0,138.91500000000002,64,100,80
2702.75,64,1.0,63.5,50,9,0,138.91500000000002,64,100,80
2703.75,59,1.0,63.5,1,0,0,138.91500000000002,64,100,80
2704.75,61,0.5,63.5,1,0,0,138.91500000000002,64,100,80
2705.25,64,1.0,63.5,1,0,0,138.91500000000002,64,100,80
2706.25,68,2.0,63.5,1,0,0,138.91500000000002,64,100,80
2708.25,61,0.5,63.5,1,0,0,138.91500000000002,64,100,80
2708.75,61,0.5,63.5,1,0,0,167.73986250000002,64,100,80
2709.25,59,1.0,63.5,1,0,0,145.86075000000002,64,100,80
2710.25,63,0.5,63.5,49,9,0,145.86075000000002,64,100,80
2710.75,59,1.0,63.5,51,9,0,145.86075000000002,64,100,80
2711.75,59,1.0,63.5,49,9,0,145.86075000000002,64,100,80
2712.75,59,1.0,63.5,1,0,0,176.12685562500005,64,100,80
2713.75,63,0.5,63.5,1,0,0,153.15378750000005,64,100,80
2714.25,70,2.0,63.5,51,9,0,153.15378750000005,64,100,80
2716.25,61,0.5,84.66,1,0,0,153.15378750000005,64,100,80
2716.75,68,2.0,84.66,1,0,0,153.15378750000005,64,100,80
2718.75,63,0.5,84.66,1,0,0,153.15378750000005,64,100,80
2719.25,59,1.0,84.66,1,0,0,153.15378750000005,64,100,80
2720.25,68,2.0,84.66,1,0,0,153.15378750000005,64,100,80
2722.25,66,0.25,84.66,1,0,0,153.15378750000005,64,100,80
2722.5,70,2.0,84.66,1,0,0,153.15378750000005,64,100,80
2724.5,61,0.5,84.66,1,0,0,153.15378750000005,64,100,80
2725.0,59,1.0,84.66,1,0,0,153.15378750000005,64,100,80
2726.0,68,2.0,84.66,1,0,0,153.15378750000005,64,100,80
2728.0,61,0.5,84.66,1,0,0,153.15378750000005,64,100,80
2728.5,59,1.0,84.66,1,0,0,153.15378750000005,64,100,80
2729.5,64,1.0,42.33,1,0,0,153.15378750000005,64,100,80
2730.5,68,2.0,42.33,1,0,0,153.15378750000005,64,100,80
2732.5,63,0.5,42.33,49,9,0,153.15378750000005,64,100,80
2733.0,59,1.0,42.33,1,0,0,153.15378750000005,64,100,80
2734.0,59,1.0,42.33,1,0,0,153.15378750000005,64,100,80
2735.0,61,0.5,42.33,1,0,0,153.15378750000005,64,100,80
2735.5,68,2.0,42.33,51,9,0,153.15378750000005,64,100,80
2737.5,64,1.0,42.33,50,9,0,153.15378750000005,64,100,80
2738.5,63,0.5,42.33,1,0,0,153.15378750000005,64,100,80
2739.0,59,1.0,42.33,1,0,0,153.15378750000005,64,100,80
2740.0,68,2.0,42.33,1,0,0,153.15378750000005,64,100,80
2742.0,61,0.5,42.33,1,0,0,153.15378750000005,64,100,80
2742.5,61,0.5,84.66,1,0,0,184.93319840625003,64,100,80
2743.0,59,1.0,84.66,1,0,0,160.81147687500004,64,100,80
2744.0,63,0.5,84.66,1,0,0,160.81147687500004,64,100,80
2744.5,63,0.5,84.66,1,0,0,160.81147687500004,64,100,80
2745.0,63,0.5,84.66,1,0,0,160.81147687500004,64,100,80
2745.5,59,1.0,84.66,1,0,0,160.81147687500004,64,100,80
2746.5,61,0.5,84.66,50,9,0,160.81147687500004,64,100,80
2747.0,61,0.5,84.66,49,9,0,160.81147687500004,64,100,80
2747.5,59,1.0,84.66,1,0,0,160.81147687500004,64,100,80
2748.5,61,0.5,84.66,1,0,0,160.81147687500004,64,100,80
2749.0,59,1.0,84.66,1,0,0,160.81147687500004,64,100,80
2750.0,61,0.5,84.66,1,0,0,160.81147687500004,64,100,80
2750.5,59,1.0,74.08,1,0,0,160.81147687500004,64,100,80
2751.5,59,1.0,74.08,1,0,0,160.81147687500004,64,100,80
2752.5,59,1.0,74.08,1,0,0,194.17985832656254,64,100,80
2753.5,59,1.0,74.08,1,0,0,168.85205071875006,64,100,80
2754.5,68,2.0,74.08,1,0,0,168.85205071875006,64,100,80
2756.5,61,0.5,74.08,1,0,0,168.85205071875006,64,100,80
2757.0,68,2.0,74.08,1,0,0,168.85205071875006,64,100,80
2759.0,61,0.5,74.08,1,0,0,168.85205071875006,64,100,80
2759.5,61,0.5,74.08,1,0,0,203.8888512428907,64,100,80
2760.0,61,0.5,74.08,1,0,0,428.16658761007045,64,100,80
2760.5,63,0.5,74.08,49,9,0,186.15938591742196,64,100,80
2761.0,59,1.0,74.08,1,0,0,186.15938591742196,64,100,80
2762.0,66,0.25,52.91,1,0,0,186.15938591742196,64,100,80
2762.25,63,0.5,52.91,1,0,0,186.15938591742196,64,100,80
2762.75,59,1.0,52.91,1,0,0,186.15938591742196,64,100,80
2763.75,59,1.0,52.91,1,0,0,186.15938591742196,64,100,80
2764.75,59,1.0,52.91,1,0,0,186.15938591742196,64,100,80
2765.75,63,0.5,52.91,1,0,0,186.15938591742196,64,100,80
2766.25,63,0.5,52.91,49,9,0,186.15938591742196,64,100,80
2766.75,66,0.25,52.91,1,0,0,186.15938591742196,64,100,80
2767.0,61,0.5,52.91,1,0,0,186.15938591742196,64,100,80
2767.5,63,0.5,52.91,1,0,0,186.15938591742196,64,100,80
2768.0,66,0.25,52.91,1,0,0,186.15938591742196,64,100,80
2768.25,70,2.0,52.91,50,9,0,186.15938591742196,64,100,80
2770.25,59,1.0,63.5,1,0,0,186.15938591742196,64,100,80
2771.25,59,1.0,63.5,49,9,0,186.15938591742196,64,100,80
2772.25,64,1.0,63.5,1,0,0,186.15938591742196,64,100,80
2773.25,66,0.25,63.5,1,0,0,186.15938591742196,64,100,80
2773.5,70,2.0,63.5,1,0,0,186.15938591742196,64,100,80
2775.5,68,2.0,63.5,1,0,0,186.15938591742196,64,100,80
2777.5,63,0.5,63.5,1,0,0,186.15938591742196,64,100,80
2778.0,66,0.25,63.5,1,0,0,186.15938591742196,64,100,80
2778.25,64,1.0,63.5,1,0,0,186.15938591742196,64,100,80
2779.25,59,1.0,63.5,1,0,0,186.15938591742196,64,100,80
2780.25,61,0.5,63.5,1,0,0,186.15938591742196,64,100,80
2780.75,68,2.0,63.5,1,0,0,186.15938591742196,64,100,80
2782.75,59,1.0,42.33,1,0,0,186.15938591742196,64,100,80
2783.75,59,1.0,42.33,1,0,0,186.15938591742196,64,100,80
2784.75,66,0.25,42.33,1,0,0,186.15938591742196,64,100,80
2785.0,61,0.5,42.33,1,0,0,186.15938591742196,64,100,80
2785.5,59,1.0,42.33,39,9,0,186.15938591742196,64,100,80
2786.5,59,1.0,42.33,1,0,0,186.15938591742196,64,100,80
2787.5,63,0.5,42.33,1,0,0,186.15938591742196,64,100,80
2788.0,59,1.0,42.33,1,0,0,186.15938591742196,64,100,80
2789.0,66,0.25,42.33,1,0,0,186.15938591742196,64,100,80
2789.25,61,0.5,42.33,1,0,0,186.15938591742196,64,100,80
2789.75,63,0.5,42.33,1,0,0,186.15938591742196,64,100,80
2790.25,63,0.5,42.33,1,0,0,186.15938591742196,64,100,80
2790.75,63,0.5,84.66,1,0,0,186.15938591742196,64,100,80
2791.25,68,2.0,84.66,1,0,0,186.15938591742196,64,100,80
2793.25,70,2.0,84.66,1,0,0,186.15938591742196,64,100,80
2795.25,64,1.0,84.66,1,0,0,186.15938591742196,64,100,80
2796.25,70,2.0,84.66,1,0,0,186.15938591742196,64,100,80
2798.25,59,1.0,84.66,1,0,0,186.15938591742196,64,100,80
2799.25,63,0.5,84.66,1,0,0,186.15938591742196,64,100,80
2799.75,61,0.5,84.66,1,0,0,186.15938591742196,64,100,80
2800.25,64,1.0,84.66,1,0,0,186.15938591742196,64,100,80
2801.25,64,1.0,84.66,1,0,0,224.78745849528698,64,100,80
2802.25,64,1.0,84.66,1,0,0,195.46735521329305,64,100,80
2803.25,64,1.0,84.66,50,9,0,195.46735521329305,64,100,80
2804.25,66,0.25,52.91,1,0,0,195.46735521329305,64,100,80
2804.5,59,1.0,52.91,1,0,0,195.46735521329305,64,100,80
2805.5,66,0.25,52.91,1,0,0,195.46735521329305,64,100,80
2805.75,59,1.0,52.91,1,0,0,195.46735521329305,64,100,80
2806.75,63,0.5,52.91,1,0,0,195.46735521329305,64,100,80
2807.25,68,2.0,52.91,49,9,0,195.46735521329305,64,100,80
2809.25,63,0.5,52.91,50,9,0,195.46735521329305,64,100,80
2809.75,64,1.0,52.91,49,9,0,195.46735521329305,64,100,80
2810.75,61,0.5,52.91,1,0,0,195.46735521329305,64,100,80
2811.25,59,1.0,52.91,1,0,0,195.46735521329305,64,100,80
2812.25,63,0.5,52.91,1,0,0,195.46735521329305,64,100,80
2812.75,68,2.0,52.91,1,0,0,195.46735521329305,64,100,80
2814.75,59,1.0,63.5,1,0,0,195.46735521329305,64,100,80
2815.75,68,2.0,63.5,1,0,0,195.46735521329305,64,100,80
2817.75,68,2.0,63.5,1,0,0,195.46735521329305,64,100,80
2819.75,70,2.0,63.5,1,0,0,195.46735521329305,64,100,80
2821.75,66,0.25,63.5,1,0,0,195.46735521329305,64,100,80
2822.0,68,2.0,63.5,1,0,0,195.46735521329305,64,100,80
2824.0,70,2.0,63.5,1,0,0,195.46735521329305,64,100,80
2826.0,64,1.0,63.5,1,0,0,195.46735521329305,64,100,80
2827.0,63,0.5,63.5,1,0,0,195.46735521329305,64,100,80
2827.5,70,2.0,63.5,1,0,0,195.46735521329305,64,100,80
2829.5,68,2.0,63.5,1,0,0,195.46735521329305,64,100,80
2831.5,68,2.0,63.5,1,0,0,195.46735521329305,64,100,80
2833.5,66,0.25,74.08,1,0,0,195.46735521329305,64,100,80
2833.75,70,2.0,74.08,1,0,0,195.46735521329305,64,100,80
2835.75,59,1.0,74.08,1,0,0,195.46735521329305,64,100,80
2836.75,59,1.0,74.08,49,9,0,195.46735521329305,64,100,80
2837.75,59,1.0,74.08,1,0,0,195.46735521329305,64,100,80
2838.75,70,2.0,74.08,1,0,0,195.46735521329305,64,100,80
2840.75,61,0.5,74.08,1,0,0,195.46735521329305,64,100,80
2841.25,66,0.25,74.08,1,0,0,195.46735521329305,64,100,80
2841.5,0,1.0,74.08,49,9,0,120.0,64,100,80
2842.5,62,0.5,74.08,1,0,0,120.0,64,100,80
2843.0,69,2.0,74.08,1,0,0,120.0,64,100,80
2845.0,71,2.0,74.08,49,9,0,120.0,64,100,80
2847.0,62,0.5,63.5,1,0,0,120.0,64,100,80
2847.5,60,1.0,63.5,1,0,0,120.0,64,100,80
2848.5,64,0.5,63.5,1,0,0,120.0,64,100,80
2849.0,64,0.5,63.5,1,0,0,144.9,64,100,80
2849.5,64,0.5,63.5,1,0,0,304.28999999999996,64,100,80
2850.0,69,2.0,63.5,1,0,0,132.3,64,100,80
2852.0,0,1.0,63.5,49,9,0,120.0,64,100,80
2853.0,62,0.5,63.5,49,9,0,120.0,64,100,80
2853.5,64,0.5,63.5,1,0,0,120.0,64,100,80
2854.0,64,0.5,63.5,1,0,0,120.0,64,100,80
2854.5,62,0.5,63.5,1,0,0,120.0,64,100,80
2855.0,60,1.0,63.5,1,0,0,120.0,64,100,80
2856.0,65,1.0,84.66,1,0,0,120.0,64,100,80
2857.0,71,2.0,84.66,1,0,0,120.0,64,100,80
2859.0,69,2.0,84.66,1,0,0,120.0,64,100,80
2861.0,67,0.25,84.66,1,0,0,120.0,64,100,80
2861.25,60,1.0,84.66,1,0,0,120.0,64,100,80
2862.25,62,0.5,84.66,1,0,0,120.0,64,100,80
2862.75,60,1.0,84.66,1,0,0,120.0,64,100,80
2863.75,62,0.5,84.66,40,9,0,120.0,64,100,80
2864.25,64,0.5,84.66,1,0,0,120.0,64,100,80
2864.75,67,0.25,84.66,1,0,0,120.0,64,100,80
2865.0,62,0.5,84.66,1,0,0,120.0,64,100,80
2865.5,64,0.5,84.66,49,9,0,120.0,64,100,80
2866.0,65,1.0,63.5,1,0,0,120.0,64,100,80
2867.0,67,0.25,63.5,1,0,0,120.0,64,100,80
2867.25,69,2.0,63.5,1,0,0,120.0,64,100,80
2869.25,60,1.0,63.5,1,0,0,120.0,64,100,80
2870.25,67,0.25,63.5,1,0,0,120.0,64,100,80
2870.5,64,0.5,63.5,49,9,0,120.0,64,100,80
2871.0,69,2.0,63.5,1,0,0,120.0,64,100,80
2873.0,60,1.0,63.5,1,0,0,120.0,64,100,80
2874.0,60,1.0,63.5,50,9,0,144.9,64,100,80
2875.0,0,1.0,63.5,49,9,0,120.0,64,100,80
2876.0,0,1.0,63.5,49,9,0,144.9,64,100,80
2877.0,64,0.5,63.5,1,0,0,126.0,64,100,80
2877.5,67,0.25,63.5,1,0,0,126.0,64,100,80
2877.75,0,1.0,63.5,49,9,0,120.0,64,100,80
2878.75,60,1.0,63.5,1,0,0,120.0,64,100,80
2879.75,64,1.0,63.5,50,9,0,120.0,64,100,80
2880.75,68,2.0,63.5,1,0,0,120.0,64,100,80
2882.75,63,0.5,63.5,1,0,0,120.0,64,100,80
2883.25,61,0.5,63.5,1,0,0,120.0,64,100,80
2883.75,61,0.5,63.5,1,0,0,120.0,64,100,80
2884.25,66,0.25,63.5,1,0,0,120.0,64,100,80
2884.5,61,0.5,63.5,1,0,0,120.0,64,100,80
2885.0,66,0.25,63.5,1,0,0,120.0,64,100,80
2885.25,70,2.0,63.5,1,0,0,120.0,64,100,80
2887.25,63,0.5,84.66,1,0,0,120.0,64,100,80
2887.75,68,2.0,84.66,1,0,0,120.0,64,100,80
2889.75,61,0.5,84.66,1,0,0,120.0,64,100,80
2890.25,63,0.5,84.66,49,9,0,120.0,64,100,80
2890.75,66,0.25,84.66,1,0,0,120.0,64,100,80
2891.0,0,1.0,84.66,49,9,0,120.0,64,100,80
2892.0,62,0.5,84.66,1,0,0,120.0,64,100,80
2892.5,60,1.0,84.66,1,0,0,120.0,64,100,80
2893.5,0,1.0,84.66,49,9,0,120.0,64,100,80
2894.5,62,0.5,84.66,1,0,0,120.0,64,100,80
2895.0,64,0.5,84.66,1,0,0,120.0,64,100,80
2895.5,62,0.5,84.66,50,9,0,120.0,64,100,80
2896.0,62,0.5,52.91,49,9,0,120.0,64,100,80
2896.5,67,0.25,52.91,1,0,0,120.0,64,100,80
2896.75,60,1.0,52.91,1,0,0,120.0,64,100,80
2897.75,64,1.0,52.91,50,9,0,120.0,64,100,80
2898.75,0,1.0,52.91,49,9,0,120.0,64,100,80
2899.75,0,1.0,52.91,49,9,0,144.9,64,100,80
2900.75,64,1.0,52.91,50,9,0,126.0,64,100,80
2901.75,0,1.0,52.91,49,9,0,120.0,64,100,80
2902.75,64,0.5,52.91,1,0,0,120.0,64,100,80
2903.25,67,0.25,52.91,1,0,0,120.0,64,100,80
2903.5,0,1.0,52.91,49,9,0,120.0,64,100,80
2904.5,67,0.25,52.91,1,0,0,120.0,64,100,80
2904.75,64,0.5,63.5,1,0,0,120.0,64,100,80
2905.25,0,1.0,63.5,49,9,0,120.0,64,100,80
2906.25,0,1.0,63.5,49,9,0,144.9,64,100,80
2907.25,62,0.5,63.5,1,0,0,126.0,64,100,80
2907.75,67,0.25,63.5,1,0,0,126.0,64,100,80
2908.0,64,0.5,63.5,1,0,0,126.0,64,100,80
2908.5,67,0.25,63.5,1,0,0,126.0,64,100,80
2908.75,62,0.5,63.5,1,0,0,126.0,64,100,80
2909.25,69,2.0,63.5,1,0,0,126.0,64,100,80
2911.25,65,1.0,63.5,1,0,0,126.0,64,100,80
2912.25,67,0.25,63.5,1,0,0,126.0,64,100,80
2912.5,62,0.5,63.5,1,0,0,126.0,64,100,80
2913.0,60,1.0,74.08,1,0,0,126.0,64,100,80
2914.0,65,1.0,74.08,1,0,0,126.0,64,100,80
2915.0,62,0.5,74.08,49,9,0,126.0,64,100,80
2915.5,65,1.0,74.08,1,0,0,126.0,64,100,80
2916.5,60,1.0,74.08,1,0,0,126.0,64,100,80
2917.5,64,0.5,74.08,1,0,0,126.0,64,100,80
2918.0,64,0.5,74.08,1,0,0,126.0,64,100,80
2918.5,67,0.25,74.08,49,9,0,126.0,64,100,80
2918.75,64,0.5,74.08,1,0,0,126.0,64,100,80
2919.25,65,1.0,74.08,1,0,0,126.0,64,100,80
2920.25,71,2.0,74.08,1,0,0,126.0,64,100,80
2922.25,64,0.5,74.08,1,0,0,126.0,64,100,80
2922.75,62,0.5,84.66,1,0,0,126.0,64,100,80
2923.25,71,2.0,84.66,1,0,0,126.0,64,100,80
2925.25,60,1.0,84.66,1,0,0,126.0,64,100,80
2926.25,65,1.0,84.66,49,9,0,126.0,64,100,80
2927.25,65,1.0,84.66,1,0,0,126.0,64,100,80
2928.25,60,1.0,84.66,1,0,0,126.0,64,100,80
2929.25,60,1.0,84.66,1,0,0,152.14499999999998,64,100,80
2930.25,64,0.5,84.66,1,0,0,132.3,64,100,80
2930.75,67,0.25,84.66,1,0,0,132.3,64,100,80
2931.0,0,1.0,84.66,49,9,0,120.0,64,100,80
2932.0,60,1.0,84.66,1,0,0,120.0,64,100,80
2933.0,64,0.5,84.66,49,9,0,120.0,64,100,80
2933.5,62,0.5,52.91,1,0,0,120.0,64,100,80
2934.0,60,1.0,52.91,1,0,0,120.0,64,100,80
2935.0,65,1.0,52.91,49,9,0,120.0,64,100,80
2936.0,67,0.25,52.91,1,0,0,120.0,64,100,80
2936.25,60,1.0,52.91,1,0,0,120.0,64,100,80
2937.25,69,2.0,52.91,1,0,0,120.0,64,100,80
2939.25,69,2.0,52.91,1,0,0,120.0,64,100,80
2941.25,64,0.5,52.91,1,0,0,120.0,64,100,80
2941.75,67,0.25,52.91,1,0,0,120.0,64,100,80
2942.0,62,0.5,52.91,1,0,0,120.0,64,100,80
2942.5,0,1.0,52.91,49,9,0,120.0,64,100,80
2943.5,69,2.0,52.91,1,0,0,120.0,64,100,80
2945.5,64,0.5,74.08,1,0,0,120.0,64,100,80
2946.0,71,2.0,74.08,1,0,0,120.0,64,100,80
2948.0,60,1.0,74.08,1,0,0,120.0,64,100,80
2949.0,69,2.0,74.08,1,0,0,120.0,64,100,80
2951.0,62,0.5,74.08,1,0,0,120.0,64,100,80
2951.5,60,1.0,74.08,1,0,0,120.0,64,100,80
2952.5,69,2.0,74.08,1,0,0,120.0,64,100,80
2954.5,62,0.5,74.08,1,0,0,120.0,64,100,80
2955.0,69,2.0,74.08,1,0,0,120.0,64,100,80
2957.0,60,1.0,74.08,49,9,0,120.0,64,100,80
2958.0,60,1.0,74.08,1,0,0,144.9,64,100,80
2959.0,69,2.0,74.08,1,0,0,126.0,64,100,80
2961.0,69,2.0,74.08,1,0,0,126.0,64,100,80
2963.0,71,2.0,74.08,1,0,0,126.0,64,100,80
2965.0,60,1.0,74.08,1,0,0,126.0,64,100,80
2966.0,65,1.0,74.08,49,9,0,126.0,64,100,80
2967.0,65,1.0,74.08,1,0,0,126.0,64,100,80
2968.0,62,0.5,74.08,1,0,0,126.0,64,100,80
2968.5,69,2.0,74.08,1,0,0,126.0,64,100,80
2970.5,71,2.0,74.08,1,0,0,126.0,64,100,80
2972.5,71,2.0,74.08,1,0,0,152.14499999999998,64,100,80
2974.5,69,2.0,74.08,1,0,0,132.3,64,100,80
2976.5,60,1.0,74.08,1,0,0,132.3,64,100,80
2977.5,71,2.0,74.08,1,0,0,132.3,64,100,80
2979.5,62,0.5,52.91,1,0,0,132.3,64,100,80
2980.0,65,1.0,52.91,1,0,0,132.3,64,100,80
2981.0,62,0.5,52.91,40,9,0,132.3,64,100,80
2981.5,64,0.5,52.91,1,0,0,132.3,64,100,80
2982.0,0,1.0,52.91,49,9,0,120.0,64,100,80
2983.0,67,0.25,52.91,1,0,0,120.0,64,100,80
2983.25,62,0.5,52.91,1,0,0,120.0,64,100,80
2983.75,60,1.0,52.91,1,0,0,120.0,64,100,80
2984.75,71,2.0,52.91,1,0,0,120.0,64,100,80
2986.75,69,2.0,52.91,1,0,0,120.0,64,100,80
2988.75,60,1.0,52.91,1,0,0,120.0,64,100,80
2989.75,64,0.5,52.91,1,0,0,120.0,64,100,80
2990.25,60,1.0,42.33,49,9,0,120.0,64,100,80
2991.25,64,0.5,42.33,1,0,0,120.0,64,100,80
2991.75,69,2.0,42.33,1,0,0,120.0,64,100,80
2993.75,60,1.0,42.33,1,0,0,120.0,64,100,80
2994.75,0,1.0,42.33,49,9,0,120.0,64,100,80
2995.75,60,1.0,42.33,1,0,0,120.0,64,100,80
2996.75,65,1.0,42.33,50,9,0,120.0,64,100,80
2997.75,0,1.0,42.33,49,9,0,120.0,64,100,80
2998.75,64,0.5,42.33,1,0,0,120.0,64,100,80
2999.25,62,0.5,42.33,49,9,0,120.0,64,100,80
2999.75,62,0.5,42.33,49,9,0,120.0,64,100,80
3000.25,62,0.5,42.33,1,0,0,144.9,64,100,80
3000.75,71,2.0,42.33,1,0,0,126.0,64,100,80
3002.75,71,2.0,42.33,1,0,0,126.0,64,100,80
3004.75,62,0.5,42.33,1,0,0,126.0,64,100,80
3005.25,65,1.0,42.33,1,0,0,126.0,64,100,80
3006.25,65,1.0,42.33,1,0,0,152.14499999999998,64,100,80
3007.25,60,1.0,42.33,49,9,0,132.3,64,100,80
3008.25,62,0.5,42.33,1,0,0,132.3,64,100,80
3008.75,60,1.0,42.33,1,0,0,132.3,64,100,80
3009.75,62,0.5,42.33,1,0,0,132.3,64,100,80
3010.25,60,1.0,42.33,1,0,0,132.3,64,100,80
3011.25,69,2.0,42.33,1,0,0,132.3,64,100,80
3013.25,67,0.25,42.33,1,0,0,132.3,64,100,80
3013.5,60,1.0,52.91,1,0,0,132.3,64,100,80
3014.5,0,1.0,52.91,49,9,0,120.0,64,100,80
3015.5,71,2.0,52.91,1,0,0,120.0,64,100,80
3017.5,60,1.0,52.91,1,0,0,120.0,64,100,80
3018.5,64,0.5,52.91,1,0,0,120.0,64,100,80
3019.0,69,2.0,52.91,1,0,0,120.0,64,100,80
3021.0,64,0.5,52.91,1,0,0,120.0,64,100,80
3021.5,62,0.5,52.91,1,0,0,120.0,64,100,80
3022.0,62,0.5,52.91,1,0,0,120.0,64,100,80
3022.5,67,0.25,52.91,1,0,0,120.0,64,100,80
3022.75,71,2.0,52.91,1,0,0,120.0,64,100,80
3024.75,69,2.0,52.91,1,0,0,120.0,64,100,80
3026.75,64,0.5,84.66,1,0,0,120.0,64,100,80
3027.25,69,2.0,84.66,1,0,0,120.0,64,100,80
3029.25,0,1.0,84.66,49,9,0,120.0,64,100,80
3030.25,69,2.0,84.66,1,0,0,120.0,64,100,80
3032.25,60,1.0,84.66,1,0,0,120.0,64,100,80
3033.25,69,2.0,84.66,1,0,0,120.0,64,100,80
3035.25,60,1.0,84.66,1,0,0,120.0,64,100,80
3036.25,64,0.5,84.66,1,0,0,120.0,64,100,80
3036.75,64,0.5,84.66,1,0,0,120.0,64,100,80
3037.25,67,0.25,84.66,1,0,0,120.0,64,100,80
3037.5,62,0.5,84.66,1,0,0,120.0,64,100,80
3038.0,69,2.0,84.66,1,0,0,120.0,64,100,80
3040.0,64,0.5,74.08,1,0,0,120.0,64,100,80
3040.5,69,2.0,74.08,1,0,0,120.0,64,100,80
3042.5,62,0.5,74.08,1,0,0,120.0,64,100,80
3043.0,60,1.0,74.08,1,0,0,120.0,64,100,80
3044.0,71,2.0,74.08,1,0,0,120.0,64,100,80
3046.0,65,1.0,74.08,1,0,0,120.0,64,100,80
3047.0,60,1.0,74.08,49,9,0,120.0,64,100,80
3048.0,62,0.5,74.08,50,9,0,120.0,64,100,80
3048.5,0,1.0,74.08,49,9,0,120.0,64,100,80
3049.5,62,0.5,74.08,1,0,0,120.0,64,100,80
3050.0,67,0.25,74.08,1,0,0,120.0,64,100,80
3050.25,62,0.5,74.08,1,0,0,120.0,64,100,80
3050.75,69,2.0,52.91,1,0,0,120.0,64,100,80
3052.75,69,2.0,52.91,1,0,0,120.0,64,100,80
3054.75,69,2.0,52.91,1,0,0,120.0,64,100,80
3056.75,69,2.0,52.91,1,0,0,144.9,64,100,80
3058.75,64,0.5,52.91,49,9,0,126.0,64,100,80
3059.25,64,0.5,52.91,1,0,0,126.0,64,100,80
3059.75,62,0.5,52.91,1,0,0,126.0,64,100,80
3060.25,69,2.0,52.91,1,0,0,126.0,64,100,80
3062.25,69,2.0,52.91,1,0,0,152.14499999999998,64,100,80
3064.25,64,0.5,52.91,49,9,0,132.3,64,100,80
3064.75,65,1.0,52.91,1,0,0,132.3,64,100,80
3065.75,64,0.5,52.91,49,9,0,132.3,64,100,80
3066.25,60,1.0,31.75,1,0,0,132.3,64,100,80
3067.25,69,2.0,31.75,1,0,0,132.3,64,100,80
3069.25,60,1.0,31.75,1,0,0,132.3,64,100,80
3070.25,67,0.25,31.75,1,0,0,132.3,64,100,80
3070.5,71,2.0,31.75,1,0,0,132.3,64,100,80
3072.5,60,1.0,31.75,1,0,0,132.3,64,100,80
3073.5,60,1.0,31.75,1,0,0,159.75225,64,100,80
3074.5,67,0.25,31.75,1,0,0,138.91500000000002,64,100,80
3074.75,69,2.0,31.75,1,0,0,138.91500000000002,64,100,80
3076.75,64,0.5,31.75,1,0,0,138.91500000000002,64,100,80
3077.25,64,0.5,31.75,1,0,0,138.91500000000002,64,100,80
3077.75,71,2.0,31.75,1,0,0,138.91500000000002,64,100,80
3079.75,67,0.25,84.66,1,0,0,138.91500000000002,64,100,80
3080.0,71,2.0,84.66,50,9,0,138.91500000000002,64,100,80
3082.0,65,1.0,84.66,1,0,0,138.91500000000002,64,100,80
3083.0,71,2.0,84.66,51,9,0,138.91500000000002,64,100,80
3085.0,67,0.25,84.66,1,0,0,138.91500000000002,64,100,80
3085.25,69,2.0,84.66,1,0,0,138.91500000000002,64,100,80
3087.25,64,0.5,84.66,1,0,0,138.91500000000002,64,100,80
3087.75,64,1.0,84.66,50,9,0,138.91500000000002,64,100,80
3088.75,63,0.5,84.66,49,9,0,138.91500000000002,64,100,80
3089.25,64,1.0,84.66,50,9,0,138.91500000000002,64,100,80
3090.25,68,2.0,84.66,51,9,0,138.91500000000002,64,100,80
3092.25,59,1.0,84.66,1,0,0,138.91500000000002,64,100,80
3093.25,59,1.0,42.33,1,0,0,138.91500000000002,64,100,80
3094.25,66,0.25,42.33,51,9,0,138.91500000000002,64,100,80
3094.5,66,0.25,42.33,1,0,0,167.73986250000002,64,100,80
3094.75,63,0.5,42.33,1,0,0,145.86075000000002,64,100,80
3095.25,70,2.0,42.33,50,9,0,145.86075000000002,64,100,80
3097.25,64,1.0,42.33,1,0,0,145.86075000000002,64,100,80
3098.25,68,2.0,42.33,1,0,0,145.86075000000002,64,100,80
3100.25,59,1.0,42.33,1,0,0,145.86075000000002,64,100,80
3101.25,66,0.25,42.33,1,0,0,145.86075000000002,64,100,80
3101.5,68,2.0,42.33,38,9,0,145.86075000000002,64,100,80
3103.5,59,1.0,42.33,49,9,0,145.86075000000002,64,100,80
3104.5,64,1.0,42.33,1,0,0,145.86075000000002,64,100,80
3105.5,64,1.0,105.83,1,0,0,145.86075000000002,64,100,80
3106.5,0,1.0,105.83,49,9,0,120.0,64,100,80
3107.5,60,1.0,105.83,1,0,0,120.0,64,100,80
3108.5,64,0.5,105.83,1,0,0,120.0,64,100,80
3109.0,67,0.25,105.83,1,0,0,120.0,64,100,80
3109.25,64,0.5,105.83,1,0,0,120.0,64,100,80
3109.75,64,0.5,105.83,1,0,0,144.9,64,100,80
3110.25,60,1.0,105.83,1,0,0,126.0,64,100,80
3111.25,0,1.0,105.83,49,9,0,120.0,64,100,80
3112.25,71,2.0,105.83,1,0,0,120.0,64,100,80
3114.25,71,2.0,105.83,1,0,0,144.9,64,100,80
3116.25,69,2.0,105.83,1,0,0,126.0,64,100,80
3118.25,69,2.0,84.66,1,0,0,126.0,64,100,80
3120.25,69,2.0,84.66,1,0,0,152.14499999999998,64,100,80
3122.25,64,0.5,84.66,1,0,0,132.3,64,100,80
3122.75,64,0.5,84.66,49,9,0,132.3,64,100,80
3123.25,60,1.0,84.66,1,0,0,132.3,64,100,80
3124.25,64,0.5,84.66,1,0,0,132.3,64,100,80
3124.75,62,0.5,84.66,1,0,0,132.3,64,100,80
3125.25,62,0.5,84.66,1,0,0,159.75225,64,100,80
3125.75,60,1.0,84.66,1,0,0,138.91500000000002,64,100,80
3126.75,62,0.5,84.66,1,0,0,138.91500000000002,64,100,80
3127.25,0,1.0,84.66,49,9,0,120.0,64,100,80
3128.25,71,2.0,84.66,1,0,0,120.0,64,100,80
3130.25,64,0.5,63.5,1,0,0,120.0,64,100,80
3130.75,64,1.0,63.5,49,9,0,120.0,64,100,80
3131.75,63,0.5,63.5,1,0,0,120.0,64,100,80
3132.25,61,0.5,63.5,1,0,0,120.0,64,100,80
3132.75,63,0.5,63.5,49,9,0,120.0,64,100,80
3133.25,66,0.25,63.5,1,0,0,120.0,64,100,80
3133.5,66,0.25,63.5,1,0,0,120.0,64,100,80
3133.75,70,2.0,63.5,1,0,0,120.0,64,100,80
3135.75,61,0.5,63.5,1,0,0,120.0,64,100,80
3136.25,63,0.5,63.5,1,0,0,120.0,64,100,80
3136.75,61,0.5,63.5,1,0,0,120.0,64,100,80
3137.25,61,0.5,63.5,1,0,0,120.0,64,100,80
3137.75,61,0.5,74.08,1,0,0,144.9,64,100,80
3138.25,63,0.5,74.08,49,9,0,126.0,64,100,80
3138.75,64,1.0,74.08,1,0,0,126.0,64,100,80
3139.75,66,0.25,74.08,1,0,0,126.0,64,100,80
3140.0,0,1.0,74.08,49,9,0,120.0,64,100,80
3141.0,62,0.5,74.08,1,0,0,120.0,64,100,80
3141.5,67,0.25,74.08,1,0,0,120.0,64,100,80
3141.75,62,0.5,74.08,1,0,0,120.0,64,100,80
3142.25,0,1.0,74.08,49,9,0,120.0,64,100,80
3143.25,60,1.0,74.08,1,0,0,120.0,64,100,80
3144.25,67,0.25,74.08,1,0,0,120.0,64,100,80
3144.5,69,2.0,74.08,1,0,0,120.0,64,100,80
3146.5,62,0.5,95.25,1,0,0,120.0,64,100,80
3147.0,71,2.0,95.25,1,0,0,120.0,64,100,80
3149.0,62,0.5,95.25,1,0,0,120.0,64,100,80
3149.5,64,0.5,95.25,49,9,0,120.0,64,100,80
3150.0,64,0.5,95.25,1,0,0,120.0,64,100,80
3150.5,62,0.5,95.25,1,0,0,120.0,64,100,80
3151.0,67,0.25,95.25,1,0,0,120.0,64,100,80
3151.25,0,1.0,95.25,49,9,0,120.0,64,100,80
3152.25,64,0.5,95.25,49,9,0,120.0,64,100,80
3152.75,67,0.25,95.25,1,0,0,120.0,64,100,80
3153.0,64,0.5,95.25,1,0,0,120.0,64,100,80
3153.5,62,0.5,95.25,1,0,0,120.0,64,100,80
3154.0,64,0.5,84.66,1,0,0,120.0,64,100,80
3154.5,64,0.5,84.66,1,0,0,120.0,64,100,80
3155.0,64,0.5,84.66,49,9,0,120.0,64,100,80
3155.5,62,0.5,84.66,1,0,0,120.0,64,100,80
3156.0,62,0.5,84.66,1,0,0,144.9,64,100,80
3156.5,60,1.0,84.66,1,0,0,126.0,64,100,80
3157.5,60,1.0,84.66,1,0,0,126.0,64,100,80
3158.5,67,0.25,84.66,1,0,0,126.0,64,100,80
3158.75,64,0.5,84.66,1,0,0,126.0,64,100,80
3159.25,64,0.5,84.66,1,0,0,152.14499999999998,64,100,80
3159.75,64,0.5,84.66,1,0,0,319.5045,64,100,80
3160.25,71,2.0,84.66,1,0,0,138.91500000000002,64,100,80
3162.25,60,1.0,52.91,1,0,0,138.91500000000002,64,100,80
3163.25,64,0.5,52.91,51,9,0,138.91500000000002,64,100,80
3163.75,60,1.0,52.91,1,0,0,138.91500000000002,64,100,80
3164.75,64,0.5,52.91,49,9,0,138.91500000000002,64,100,80
3165.25,60,1.0,52.91,1,0,0,138.91500000000002,64,100,80
3166.25,62,0.5,52.91,1,0,0,138.91500000000002,64,100,80
3166.75,60,1.0,52.91,1,0,0,138.91500000000002,64,100,80
3167.75,64,0.5,52.91,1,0,0,138.91500000000002,64,100,80
3168.25,0,1.0,52.91,49,9,0,120.0,64,100,80
3169.25,60,1.0,52.91,1,0,0,120.0,64,100,80
3170.25,60,1.0,52.91,1,0,0,120.0,64,100,80
3171.25,0,1.0,52.91,49,9,0,120.0,64,100,80
3172.25,60,1.0,105.83,1,0,0,120.0,64,100,80
3173.25,64,0.5,105.83,1,0,0,120.0,64,100,80
3173.75,60,1.0,105.83,1,0,0,120.0,64,100,80
3174.75,67,0.25,105.83,1,0,0,120.0,64,100,80
3175.0,64,0.5,105.83,1,0,0,120.0,64,100,80
3175.5,62,0.5,105.83,1,0,0,120.0,64,100,80
3176.0,67,0.25,105.83,1,0,0,120.0,64,100,80
3176.25,65,1.0,105.83,1,0,0,120.0,64,100,80
3177.25,67,0.25,105.83,1,0,0,120.0,64,100,80
3177.5,60,1.0,105.83,1,0,0,120.0,64,100,80
3178.5,67,0.25,105.83,1,0,0,120.0,64,100,80
3178.75,62,0.5,105.83,1,0,0,120.0,64,100,80
3179.25,60,1.0,52.91,1,0,0,120.0,64,100,80
3180.25,62,0.5,52.91,1,0,0,120.0,64,100,80
3180.75,67,0.25,52.91,50,9,0,120.0,64,100,80
3181.0,69,2.0,52.91,1,0,0,120.0,64,100,80
3183.0,62,0.5,52.91,1,0,0,120.0,64,100,80
3183.5,60,1.0,52.91,49,9,0,120.0,64,100,80
3184.5,64,0.5,52.91,1,0,0,120.0,64,100,80
3185.0,64,1.0,52.91,50,9,0,120.0,64,100,80
3186.0,63,0.5,52.91,49,9,0,120.0,64,100,80
3186.5,61,0.5,52.91,1,0,0,120.0,64,100,80
3187.0,63,0.5,52.91,1,0,0,120.0,64,100,80
3187.5,63,0.5,52.91,1,0,0,120.0,64,100,80
3188.0,59,1.0,74.08,1,0,0,120.0,64,100,80
3189.0,63,0.5,74.08,1,0,0,120.0,64,100,80
3189.5,61,0.5,74.08,1,0,0,120.0,64,100,80
3190.0,63,0.5,74.08,49,9,0,120.0,64,100,80
3190.5,64,1.0,74.08,50,9,0,120.0,64,100,80
3191.5,63,0.5,74.08,49,9,0,120.0,64,100,80
3192.0,61,0.5,74.08,1,0,0,120.0,64,100,80
3192.5,66,0.25,74.08,1,0,0,120.0,64,100,80
3192.75,66,0.25,74.08,1,0,0,120.0,64,100,80
3193.0,66,0.25,74.08,1,0,0,120.0,64,100,80
3193.25,63,0.5,74.08,49,9,0,120.0,64,100,80
3193.75,61,0.5,74.08,1,0,0,120.0,64,100,80
3194.25,68,2.0,52.91,1,0,0,120.0,64,100,80
3196.25,59,1.0,52.91,1,0,0,120.0,64,100,80
3197.25,66,0.25,52.91,1,0,0,120.0,64,100,80
3197.5,64,1.0,52.91,1,0,0,120.0,64,100,80
3198.5,0,1.0,52.91,49,9,0,120.0,64,100,80
3199.5,62,0.5,52.91,1,0,0,120.0,64,100,80
3200.0,60,1.0,52.91,1,0,0,120.0,64,100,80
3201.0,71,2.0,52.91,1,0,0,120.0,64,100,80
3203.0,62,0.5,52.91,1,0,0,120.0,64,100,80
3203.5,62,0.5,52.91,1,0,0,120.0,64,100,80
3204.0,62,0.5,52.91,40,9,0,144.9,64,100,80
3204.5,64,0.5,52.91,1,0,0,126.0,64,100,80
3205.0,64,0.5,74.08,1,0,0,126.0,64,100,80
3205.5,69,2.0,74.08,1,0,0,126.0,64,100,80
3207.5,71,2.0,74.08,1,0,0,126.0,64,100,80
3209.5,67,0.25,74.08,1,0,0,126.0,64,100,80
3209.75,67,0.25,74.08,1,0,0,126.0,64,100,80
3210.0,64,0.5,74.08,1,0,0,126.0,64,100,80
3210.5,60,1.0,74.08,49,9,0,126.0,64,100,80
3211.5,60,1.0,74.08,1,0,0,152.14499999999998,64,100,80
3212.5,67,0.25,74.08,1,0,0,132.3,64,100,80
3212.75,62,0.5,74.08,51,9,0,132.3,64,100,80
3213.25,60,1.0,74.08,1,0,0,132.3,64,100,80
3214.25,62,0.5,74.08,1,0,0,132.3,64,100,80
3214.75,60,1.0,10.58,1,0,0,132.3,64,100,80
3215.75,65,1.0,10.58,1,0,0,132.3,64,100,80
3216.75,65,1.0,10.58,49,9,0,159.75225,64,100,80
3217.75,60,1.0,10.58,1,0,0,138.91500000000002,64,100,80
3218.75,65,1.0,10.58,49,9,0,138.91500000000002,64,100,80
3219.75,64,1.0,10.58,50,9,0,138.91500000000002,64,100,80
3220.75,70,2.0,10.58,1,0,0,138.91500000000002,64,100,80
3222.75,68,2.0,10.58,1,0,0,138.91500000000002,64,100,80
3224.75,61,0.5,10.58,1,0,0,138.91500000000002,64,100,80
3225.25,70,2.0,10.58,50,9,0,138.91500000000002,64,100,80
3227.25,61,0.5,10.58,1,0,0,138.91500000000002,64,100,80
3227.75,0,1.0,10.58,49,9,0,120.0,64,100,80
3228.75,64,0.5,63.5,1,0,0,120.0,64,100,80
3229.25,69,2.0,63.5,1,0,0,120.0,64,100,80
3231.25,64,0.5,63.5,1,0,0,120.0,64,100,80
3231.75,65,1.0,63.5,1,0,0,120.0,64,100,80
3232.75,64,0.5,63.5,1,0,0,120.0,64,100,80
3233.25,65,1.0,63.5,49,9,0,120.0,64,100,80
3234.25,60,1.0,63.5,1,0,0,120.0,64,100,80
3235.25,62,0.5,63.5,1,0,0,120.0,64,100,80
3235.75,64,1.0,63.5,49,9,0,120.0,64,100,80
3236.75,63,0.5,63.5,1,0,0,120.0,64,100,80
3237.25,63,0.5,63.5,1,0,0,120.0,64,100,80
3237.75,66,0.25,63.5,1,0,0,120.0,64,100,80
3238.0,63,0.5,52.91,49,9,0,120.0,64,100,80
3238.5,63,0.5,52.91,51,9,0,120.0,64,100,80
3239.0,59,1.0,52.91,49,9,0,120.0,64,100,80
3240.0,61,0.5,52.91,1,0,0,120.0,64,100,80
3240.5,0,1.0,52.91,49,9,0,120.0,64,100,80
3241.5,62,0.5,52.91,1,0,0,120.0,64,100,80
3242.0,0,1.0,52.91,49,9,0,120.0,64,100,80
3243.0,64,0.5,52.91,1,0,0,120.0,64,100,80
3243.5,64,0.5,52.91,49,9,0,144.9,64,100,80
3244.0,65,1.0,52.91,49,9,0,126.0,64,100,80
3245.0,64,0.5,52.91,1,0,0,126.0,64,100,80
3245.5,65,1.0,52.91,1,0,0,126.0,64,100,80
3246.5,67,0.25,74.08,1,0,0,126.0,64,100,80
3246.75,64,0.5,74.08,1,0,0,126.0,64,100,80
3247.25,64,0.5,74.08,1,0,0,152.14499999999998,64,100,80
3247.75,64,0.5,74.08,1,0,0,132.3,64,100,80
3248.25,71,2.0,74.08,1,0,0,132.3,64,100,80
3250.25,64,0.5,74.08,1,0,0,132.3,64,100,80
3250.75,60,1.0,74.08,51,9,0,132.3,64,100,80
3251.75,67,0.25,74.08,1,0,0,132.3,64,100,80
3252.0,64,0.5,74.08,1,0,0,132.3,64,100,80
3252.5,60,1.0,74.08,1,0,0,132.3,64,100,80
3253.5,64,1.0,74.08,50,9,0,132.3,64,100,80
3254.5,61,0.5,74.08,1,0,0,132.3,64,100,80
3255.0,70,2.0,74.08,51,9,0,132.3,64,100,80
3257.0,61,0.5,74.08,51,9,0,132.3,64,100,80
3257.5,59,1.0,74.08,1,0,0,132.3,64,100,80
3258.5,63,0.5,74.08,1,0,0,132.3,64,100,80
3259.0,64,1.0,74.08,1,0,0,132.3,64,100,80
3260.0,59,1.0,74.08,1,0,0,132.3,64,100,80
3261.0,0,1.0,74.08,49,9,0,120.0,64,100,80
3262.0,62,0.5,74.08,1,0,0,120.0,64,100,80
3262.5,64,1.0,74.08,50,9,0,120.0,64,100,80
3263.5,64,1.0,74.08,49,9,0,120.0,64,100,80
3264.5,64,1.0,74.08,1,0,0,120.0,64,100,80
3265.5,59,1.0,74.08,1,0,0,120.0,64,100,80
3266.5,70,2.0,42.33,1,0,0,120.0,64,100,80
3268.5,63,0.5,42.33,1,0,0,120.0,64,100,80
3269.0,63,0.5,42.33,1,0,0,144.9,64,100,80
3269.5,68,2.0,42.33,1,0,0,126.0,64,100,80
3271.5,59,1.0,42.33,1,0,0,126.0,64,100,80
3272.5,66,0.25,42.33,1,0,0,126.0,64,100,80
3272.75,64,1.0,42.33,1,0,0,126.0,64,100,80
3273.75,64,1.0,42.33,49,9,0,152.14499999999998,64,100,80
3274.75,59,1.0,42.33,1,0,0,132.3,64,100,80
3275.75,59,1.0,42.33,1,0,0,159.75225,64,100,80
3276.75,63,0.5,42.33,1,0,0,138.91500000000002,64,100,80
3277.25,59,1.0,42.33,50,9,0,138.91500000000002,64,100,80
3278.25,66,0.25,95.25,1,0,0,138.91500000000002,64,100,80
3278.5,61,0.5,95.25,1,0,0,138.91500000000002,64,100,80
3279.0,66,0.25,95.25,1,0,0,138.91500000000002,64,100,80
3279.25,66,0.25,95.25,1,0,0,167.73986250000002,64,100,80
3279.5,61,0.5,95.25,1,0,0,145.86075000000002,64,100,80
3280.0,61,0.5,95.25,1,0,0,176.12685562500005,64,100,80
3280.5,68,2.0,95.25,1,0,0,153.15378750000005,64,100,80
3282.5,64,1.0,95.25,1,0,0,153.15378750000005,64,100,80
3283.5,59,1.0,95.25,1,0,0,153.15378750000005,64,100,80
3284.5,59,1.0,95.25,1,0,0,184.93319840625003,64,100,80
3285.5,63,0.5,95.25,1,0,0,160.81147687500004,64,100,80
3286.0,63,0.5,95.25,1,0,0,160.81147687500004,64,100,80
3286.5,64,1.0,63.5,50,9,0,160.81147687500004,64,100,80
3287.5,0,1.0,63.5,49,9,0,120.0,64,100,80
3288.5,67,0.25,63.5,51,9,0,120.0,64,100,80
3288.75,67,0.25,63.5,1,0,0,120.0,64,100,80
3289.0,0,1.0,63.5,49,9,0,120.0,64,100,80
3290.0,60,1.0,63.5,1,0,0,120.0,64,100,80
3291.0,62,0.5,63.5,1,0,0,120.0,64,100,80
3291.5,62,0.5,63.5,1,0,0,144.9,64,100,80
3292.0,60,1.0,63.5,49,9,0,126.0,64,100,80
3293.0,62,0.5,63.5,57,9,0,126.0,64,100,80
3293.5,0,1.0,63.5,49,9,0,120.0,64,100,80
3294.5,67,0.25,63.5,1,0,0,120.0,64,100,80
3294.75,62,0.5,84.66,1,0,0,120.0,64,100,80
3295.25,67,0.25,84.66,1,0,0,120.0,64,100,80
3295.5,60,1.0,84.66,1,0,0,120.0,64,100,80
3296.5,64,0.5,84.66,1,0,0,120.0,64,100,80
3297.0,0,1.0,84.66,49,9,0,120.0,64,100,80
3298.0,62,0.5,84.66,51,9,0,120.0,64,100,80
3298.5,60,1.0,84.66,49,9,0,120.0,64,100,80
3299.5,62,0.5,84.66,1,0,0,120.0,64,100,80
3300.0,62,0.5,84.66,1,0,0,120.0,64,100,80
3300.5,67,0.25,84.66,1,0,0,120.0,64,100,80
3300.75,62,0.5,84.66,1,0,0,120.0,64,100,80
3301.25,60,1.0,84.66,49,9,0,120.0,64,100,80
3302.25,62,0.5,95.25,1,0,0,120.0,64,100,80
3302.75,67,0.25,95.25,1,0,0,120.0,64,100,80
3303.0,60,1.0,95.25,49,9,0,120.0,64,100,80
3304.0,60,1.0,95.25,1,0,0,120.0,64,100,80
3305.0,67,0.25,95.25,1,0,0,120.0,64,100,80
3305.25,64,0.5,95.25,49,9,0,120.0,64,100,80
3305.75,60,1.0,95.25,1,0,0,120.0,64,100,80
3306.75,60,1.0,95.25,49,9,0,144.9,64,100,80
3307.75,65,1.0,95.25,1,0,0,126.0,64,100,80
3308.75,65,1.0,95.25,1,0,0,152.14499999999998,64,100,80
3309.75,64,0.5,95.25,1,0,0,132.3,64,100,80
3310.25,64,0.5,95.25,49,9,0,159.75225,64,100,80
3310.75,60,1.0,95.25,1,0,0,138.91500000000002,64,100,80
3311.75,62,0.5,95.25,1,0,0,138.91500000000002,64,100,80
3312.25,62,0.5,95.25,1,0,0,167.73986250000002,64,100,80
3312.75,62,0.5,95.25,1,0,0,352.2537112500001,64,100,80
3313.25,64,0.5,95.25,1,0,0,153.15378750000005,64,100,80
3313.75,62,0.5,95.25,1,0,0,153.15378750000005,64,100,80
3314.25,64,0.5,95.25,49,9,0,153.15378750000005,64,100,80
3314.75,60,1.0,95.25,1,0,0,153.15378750000005,64,100,80
3315.75,64,0.5,95.25,1,0,0,153.15378750000005,64,100,80
3316.25,65,1.0,95.25,1,0,0,153.15378750000005,64,100,80
3317.25,64,0.5,95.25,49,9,0,153.15378750000005,64,100,80
3317.75,64,0.5,95.25,1,0,0,153.15378750000005,64,100,80
3318.25,64,0.5,63.5,1,0,0,153.15378750000005,64,100,80
3318.75,64,0.5,63.5,49,9,0,184.93319840625003,64,100,80
3319.25,60,1.0,63.5,1,0,0,160.81147687500004,64,100,80
3320.25,60,1.0,63.5,1,0,0,160.81147687500004,64,100,80
3321.25,65,1.0,63.5,1,0,0,160.81147687500004,64,100,80
3322.25,69,2.0,63.5,1,0,0,160.81147687500004,64,100,80
3324.25,64,0.5,63.5,1,0,0,160.81147687500004,64,100,80
3324.75,64,0.5,63.5,1,0,0,194.17985832656254,64,100,80
3325.25,65,1.0,63.5,1,0,0,168.85205071875006,64,100,80
3326.25,71,2.0,63.5,38,9,0,168.85205071875006,64,100,80
3328.25,69,2.0,63.5,1,0,0,168.85205071875006,64,100,80
3330.25,60,1.0,63.5,1,0,0,168.85205071875006,64,100,80
3331.25,64,0.5,74.08,1,0,0,168.85205071875006,64,100,80
3331.75,71,2.0,74.08,1,0,0,168.85205071875006,64,100,80
3333.75,64,0.5,74.08,49,9,0,168.85205071875006,64,100,80
3334.25,60,1.0,74.08,1,0,0,168.85205071875006,64,100,80
3335.25,64,0.5,74.08,49,9,0,168.85205071875006,64,100,80
3335.75,60,1.0,74.08,49,9,0,168.85205071875006,64,100,80
3336.75,60,1.0,74.08,1,0,0,203.8888512428907,64,100,80
3337.75,67,0.25,74.08,1,0,0,177.29465325468757,64,100,80
3338.0,0,1.0,74.08,49,9,0,120.0,64,100,80
3339.0,62,0.5,74.08,1,0,0,120.0,64,100,80
3339.5,60,1.0,74.08,1,0,0,120.0,64,100,80
3340.5,71,2.0,74.08,1,0,0,120.0,64,100,80
3342.5,67,0.25,95.25,1,0,0,120.0,64,100,80
3342.75,60,1.0,95.25,1,0,0,120.0,64,100,80
3343.75,62,0.5,95.25,1,0,0,120.0,64,100,80
3344.25,62,0.5,95.25,1,0,0,144.9,64,100,80
3344.75,60,1.0,95.25,1,0,0,126.0,64,100,80
3345.75,0,1.0,95.25,49,9,0,120.0,64,100,80
3346.75,60,1.0,95.25,1,0,0,120.0,64,100,80
3347.75,71,2.0,95.25,1,0,0,120.0,64,100,80
3349.75,64,0.5,95.25,1,0,0,120.0,64,100,80
3350.25,71,2.0,95.25,1,0,0,120.0,64,100,80
3352.25,60,1.0,95.25,1,0,0,120.0,64,100,80
3353.25,60,1.0,95.25,49,9,0,120.0,64,100,80
3354.25,62,0.5,63.5,1,0,0,120.0,64,100,80
3354.75,65,1.0,63.5,1,0,0,120.0,64,100,80
3355.75,62,0.5,63.5,1,0,0,120.0,64,100,80
3356.25,64,1.0,63.5,50,9,0,120.0,64,100,80
3357.25,64,1.0,63.5,1,0,0,120.0,64,100,80
3358.25,64,1.0,63.5,49,9,0,120.0,64,100,80
3359.25,61,0.5,63.5,1,0,0,120.0,64,100,80
3359.75,59,1.0,63.5,1,0,0,120.0,64,100,80
3360.75,59,1.0,63.5,1,0,0,120.0,64,100,80
3361.75,66,0.25,63.5,49,9,0,120.0,64,100,80
3362.0,66,0.25,63.5,1,0,0,120.0,64,100,80
3362.25,70,2.0,63.5,1,0,0,120.0,64,100,80
3364.25,59,1.0,74.08,1,0,0,120.0,64,100,80
3365.25,61,0.5,74.08,1,0,0,120.0,64,100,80
3365.75,61,0.5,74.08,1,0,0,144.9,64,100,80
3366.25,70,2.0,74.08,1,0,0,126.0,64,100,80
3368.25,59,1.0,74.08,1,0,0,126.0,64,100,80
3369.25,70,2.0,74.08,1,0,0,126.0,64,100,80
3371.25,68,2.0,74.08,1,0,0,126.0,64,100,80
3373.25,63,0.5,74.08,49,9,0,126.0,64,100,80
3373.75,63,0.5,74.08,49,9,0,126.0,64,100,80
3374.25,61,0.5,74.08,1,0,0,126.0,64,100,80
3374.75,68,2.0,74.08,1,0,0,126.0,64,100,80
3376.75,0,1.0,74.08,49,9,0,120.0,64,100,80
3377.75,60,1.0,63.5,1,0,0,120.0,64,100,80
3378.75,71,2.0,63.5,1,0,0,120.0,64,100,80
3380.75,67,0.25,63.5,1,0,0,120.0,64,100,80
3381.0,71,2.0,63.5,1,0,0,120.0,64,100,80
3383.0,60,1.0,63.5,1,0,0,120.0,64,100,80
3384.0,69,2.0,63.5,1,0,0,120.0,64,100,80
3386.0,62,0.5,63.5,51,9,0,120.0,64,100,80
3386.5,67,0.25,63.5,49,9,0,120.0,64,100,80
3386.75,65,1.0,63.5,1,0,0,120.0,64,100,80
3387.75,62,0.5,63.5,1,0,0,120.0,64,100,80
3388.25,60,1.0,63.5,1,0,0,120.0,64,100,80
3389.25,60,1.0,63.5,1,0,0,120.0,64,100,80
3390.25,64,0.5,63.5,1,0,0,120.0,64,100,80
3390.75,69,2.0,63.5,1,0,0,120.0,64,100,80
3392.75,60,1.0,63.5,1,0,0,120.0,64,100,80
3393.75,60,1.0,63.5,1,0,0,120.0,64,100,80
3394.75,64,0.5,63.5,1,0,0,120.0,64,100,80
3395.25,69,2.0,63.5,1,0,0,120.0,64,100,80
3397.25,60,1.0,63.5,49,9,0,120.0,64,100,80
3398.25,64,0.5,63.5,1,0,0,120.0,64,100,80
3398.75,0,1.0,63.5,49,9,0,120.0,64,100,80
3399.75,69,2.0,63.5,1,0,0,120.0,64,100,80
3401.75,64,0.5,63.5,1,0,0,120.0,64,100,80
3402.25,62,0.5,63.5,1,0,0,120.0,64,100,80
3402.75,64,0.5,74.08,1,0,0,120.0,64,100,80
3403.25,69,2.0,74.08,1,0,0,120.0,64,100,80
3405.25,64,0.5,74.08,1,0,0,120.0,64,100,80
3405.75,64,0.5,74.08,1,0,0,144.9,64,100,80
3406.25,65,1.0,74.08,1,0,0,126.0,64,100,80
3407.25,71,2.0,74.08,1,0,0,126.0,64,100,80
3409.25,62,0.5,74.08,1,0,0,126.0,64,100,80
3409.75,62,0.5,74.08,1,0,0,152.14499999999998,64,100,80
3410.25,69,2.0,74.08,1,0,0,132.3,64,100,80
3412.25,62,0.5,74.08,1,0,0,132.3,64,100,80
3412.75,62,0.5,74.08,49,9,0,132.3,64,100,80
3413.25,64,0.5,74.08,1,0,0,132.3,64,100,80
3413.75,0,1.0,63.5,49,9,0,120.0,64,100,80
3414.75,71,2.0,63.5,1,0,0,120.0,64,100,80
3416.75,64,0.5,63.5,49,9,0,120.0,64,100,80
3417.25,67,0.25,63.5,1,0,0,120.0,64,100,80
3417.5,64,0.5,63.5,1,0,0,120.0,64,100,80
3418.0,62,0.5,63.5,1,0,0,120.0,64,100,80
3418.5,60,1.0,63.5,1,0,0,120.0,64,100,80
3419.5,64,0.5,63.5,1,0,0,120.0,64,100,80
3420.0,64,0.5,63.5,1,0,0,144.9,64,100,80
3420.5,65,1.0,63.5,1,0,0,126.0,64,100,80
3421.5,0,1.0,63.5,49,9,0,120.0,64,100,80
3422.5,64,0.5,63.5,1,0,0,120.0,64,100,80
3423.0,67,0.25,95.25,1,0,0,120.0,64,100,80
3423.25,67,0.25,95.25,1,0,0,144.9,64,100,80
3423.5,64,0.5,95.25,1,0,0,126.0,64,100,80
3424.0,69,2.0,95.25,1,0,0,126.0,64,100,80
3426.0,71,2.0,95.25,1,0,0,126.0,64,100,80
3428.0,64,0.5,95.25,1,0,0,126.0,64,100,80
3428.5,60,1.0,95.25,1,0,0,126.0,64,100,80
3429.5,65,1.0,95.25,1,0,0,126.0,64,100,80
3430.5,71,2.0,95.25,1,0,0,126.0,64,100,80
3432.5,60,1.0,95.25,1,0,0,126.0,64,100,80
3433.5,71,2.0,95.25,1,0,0,126.0,64,100,80
3435.5,69,2.0,95.25,1,0,0,126.0,64,100,80
3437.5,60,1.0,95.25,1,0,0,126.0,64,100,80
3438.5,71,2.0,95.25,1,0,0,126.0,64,100,80
3440.5,60,1.0,95.25,1,0,0,126.0,64,100,80
3441.5,64,0.5,95.25,1,0,0,126.0,64,100,80
3442.0,64,0.5,95.25,1,0,0,152.14499999999998,64,100,80
3442.5,0,1.0,95.25,49,9,0,120.0,64,100,80
3443.5,65,1.0,95.25,49,9,0,120.0,64,100,80
3444.5,62,0.5,95.25,1,0,0,120.0,64,100,80
3445.0,65,1.0,95.25,49,9,0,120.0,64,100,80
3446.0,64,0.5,95.25,1,0,0,120.0,64,100,80
3446.5,64,0.5,95.25,1,0,0,120.0,64,100,80
3447.0,67,0.25,95.25,1,0,0,120.0,64,100,80
3447.25,0,1.0,74.08,49,9,0,120.0,64,100,80
3448.25,62,0.5,74.08,1,0,0,120.0,64,100,80
3448.75,60,1.0,74.08,1,0,0,120.0,64,100,80
3449.75,60,1.0,74.08,1,0,0,144.9,64,100,80
3450.75,65,1.0,74.08,1,0,0,126.0,64,100,80
3451.75,69,2.0,74.08,49,9,0,126.0,64,100,80
3453.75,65,1.0,74.08,1,0,0,126.0,64,100,80
3454.75,67,0.25,74.08,1,0,0,126.0,64,100,80
3455.0,64,0.5,74.08,49,9,0,126.0,64,100,80
3455.5,60,1.0,74.08,1,0,0,126.0,64,100,80
3456.5,67,0.25,74.08,1,0,0,126.0,64,100,80
3456.75,64,0.5,74.08,1,0,0,126.0,64,100,80
3457.25,69,2.0,84.66,1,0,0,126.0,64,100,80
3459.25,60,1.0,84.66,1,0,0,126.0,64,100,80
3460.25,60,1.0,84.66,1,0,0,126.0,64,100,80
3461.25,60,1.0,84.66,1,0,0,126.0,64,100,80
3462.25,64,0.5,84.66,1,0,0,126.0,64,100,80
3462.75,64,0.5,84.66,49,9,0,126.0,64,100,80
3463.25,62,0.5,84.66,1,0,0,126.0,64,100,80
3463.75,62,0.5,84.66,50,9,0,126.0,64,100,80
3464.25,67,0.25,84.66,1,0,0,126.0,64,100,80
3464.5,69,2.0,84.66,1,0,0,126.0,64,100,80
3466.5,62,0.5,84.66,1,0,0,126.0,64,100,80
3467.0,64,0.5,84.66,1,0,0,126.0,64,100,80
3467.5,0,1.0,74.08,49,9,0,120.0,64,100,80
3468.5,62,0.5,74.08,1,0,0,120.0,64,100,80
3469.0,64,0.5,74.08,1,0,0,120.0,64,100,80
3469.5,69,2.0,74.08,1,0,0,120.0,64,100,80
3471.5,69,2.0,74.08,1,0,0,120.0,64,100,80
3473.5,64,0.5,74.08,49,9,0,120.0,64,100,80
3474.0,62,0.5,74.08,1,0,0,120.0,64,100,80
3474.5,60,1.0,74.08,49,9,0,120.0,64,100,80
3475.5,60,1.0,74.08,1,0,0,120.0,64,100,80
3476.5,60,1.0,74.08,1,0,0,120.0,64,100,80
3477.5,0,1.0,74.08,49,9,0,120.0,64,100,80
3478.5,71,2.0,74.08,1,0,0,120.0,64,100,80
3480.5,71,2.0,74.08,1,0,0,144.9,64,100,80
3482.5,71,2.0,74.08,1,0,0,304.28999999999996,64,100,80
3484.5,64,0.5,74.08,49,9,0,132.3,64,100,80
3485.0,62,0.5,74.08,1,0,0,132.3,64,100,80
3485.5,64,0.5,74.08,49,9,0,132.3,64,100,80
3486.0,62,0.5,74.08,1,0,0,132.3,64,100,80
3486.5,0,1.0,74.08,49,9,0,120.0,64,100,80
3487.5,69,2.0,74.08,1,0,0,120.0,64,100,80
3489.5,67,0.25,74.08,1,0,0,120.0,64,100,80
3489.75,62,0.5,74.08,1,0,0,120.0,64,100,80
3490.25,69,2.0,74.08,1,0,0,120.0,64,100,80
3492.25,71,2.0,74.08,1,0,0,120.0,64,100,80
3494.25,64,0.5,31.75,1,0,0,120.0,64,100,80
3494.75,71,2.0,31.75,1,0,0,120.0,64,100,80
3496.75,60,1.0,31.75,1,0,0,120.0,64,100,80
3497.75,0,1.0,31.75,49,9,0,120.0,64,100,80
3498.75,71,2.0,31.75,1,0,0,120.0,64,100,80
3500.75,60,1.0,31.75,1,0,0,120.0,64,100,80
3501.75,60,1.0,31.75,1,0,0,120.0,64,100,80
3502.75,60,1.0,31.75,1,0,0,144.9,64,100,80
3503.75,62,0.5,31.75,1,0,0,126.0,64,100,80
3504.25,71,2.0,31.75,1,0,0,126.0,64,100,80
3506.25,60,1.0,31.75,40,9,0,126.0,64,100,80
3507.25,62,0.5,31.75,1,0,0,126.0,64,100,80
3507.75,64,0.5,74.08,1,0,0,126.0,64,100,80
3508.25,69,2.0,74.08,1,0,0,126.0,64,100,80
3510.25,60,1.0,74.08,1,0,0,126.0,64,100,80
3511.25,60,1.0,74.08,1,0,0,152.14499999999998,64,100,80
3512.25,71,2.0,74.08,1,0,0,132.3,64,100,80
3514.25,71,2.0,74.08,1,0,0,132.3,64,100,80
3516.25,64,0.5,74.08,49,9,0,132.3,64,100,80
3516.75,62,0.5,74.08,1,0,0,132.3,64,100,80
3517.25,67,0.25,74.08,1,0,0,132.3,64,100,80
3517.5,64,0.5,74.08,1,0,0,132.3,64,100,80
3518.0,71,2.0,74.08,1,0,0,132.3,64,100,80
3520.0,62,0.5,74.08,1,0,0,132.3,64,100,80
3520.5,62,0.5,63.5,1,0,0,132.3,64,100,80
3521.0,69,2.0,63.5,1,0,0,132.3,64,100,80
3523.0,62,0.5,63.5,49,9,0,132.3,64,100,80
3523.5,67,0.25,63.5,1,0,0,132.3,64,100,80
3523.75,67,0.25,63.5,1,0,0,132.3,64,100,80
3524.0,60,1.0,63.5,1,0,0,132.3,64,100,80
3525.0,69,2.0,63.5,1,0,0,132.3,64,100,80
3527.0,60,1.0,63.5,1,0,0,132.3,64,100,80
3528.0,62,0.5,63.5,1,0,0,132.3,64,100,80
3528.5,0,1.0,63.5,49,9,0,120.0,64,100,80
3529.5,64,0.5,63.5,1,0,0,120.0,64,100,80
3530.0,67,0.25,63.5,1,0,0,120.0,64,100,80
3530.25,67,0.25,31.75,1,0,0,120.0,64,100,80
3530.5,60,1.0,31.75,1,0,0,120.0,64,100,80
3531.5,64,0.5,31.75,1,0,0,120.0,64,100,80
3532.0,64,0.5,31.75,49,9,0,144.9,64,100,80
3532.5,64,1.0,31.75,50,9,0,126.0,64,100,80
3533.5,70,2.0,31.75,1,0,0,126.0,64,100,80
3535.5,59,1.0,31.75,1,0,0,126.0,64,100,80
3536.5,70,2.0,31.75,1,0,0,126.0,64,100,80
3538.5,59,1.0,31.75,1,0,0,126.0,64,100,80
3539.5,59,1.0,31.75,1,0,0,126.0,64,100,80
3540.5,68,2.0,31.75,1,0,0,126.0,64,100,80
3542.5,63,0.5,31.75,1,0,0,126.0,64,100,80
3543.0,59,1.0,74.08,1,0,0,126.0,64,100,80
3544.0,68,2.0,74.08,1,0,0,126.0,64,100,80
3546.0,59,1.0,74.08,1,0,0,126.0,64,100,80
3547.0,70,2.0,74.08,1,0,0,126.0,64,100,80
3549.0,68,2.0,74.08,1,0,0,126.0,64,100,80
3551.0,68,2.0,74.08,50,9,0,152.14499999999998,64,100,80
3553.0,61,0.5,74.08,1,0,0,132.3,64,100,80
3553.5,64,1.0,74.08,50,9,0,132.3,64,100,80
3554.5,63,0.5,74.08,1,0,0,132.3,64,100,80
3555.0,66,0.25,74.08,1,0,0,132.3,64,100,80
3555.25,59,1.0,74.08,1,0,0,132.3,64,100,80
3556.25,61,0.5,74.08,1,0,0,132.3,64,100,80
3556.75,68,2.0,63.5,1,0,0,132.3,64,100,80
3558.75,66,0.25,63.5,1,0,0,132.3,64,100,80
3559.0,61,0.5,63.5,1,0,0,132.3,64,100,80
3559.5,59,1.0,63.5,1,0,0,132.3,64,100,80
3560.5,61,0.5,63.5,1,0,0,132.3,64,100,80
3561.0,61,0.5,63.5,1,0,0,132.3,64,100,80
3561.5,61,0.5,63.5,1,0,0,132.3,64,100,80
3562.0,59,1.0,63.5,1,0,0,132.3,64,100,80
3563.0,59,1.0,63.5,1,0,0,159.75225,64,100,80
3564.0,61,0.5,63.5,1,0,0,138.91500000000002,64,100,80
3564.5,59,1.0,63.5,1,0,0,138.91500000000002,64,100,80
3565.5,59,1.0,63.5,1,0,0,138.91500000000002,64,100,80
3566.5,61,0.5,42.33,1,0,0,138.91500000000002,64,100,80
3567.0,59,1.0,42.33,1,0,0,138.91500000000002,64,100,80
3568.0,64,1.0,42.33,1,0,0,138.91500000000002,64,100,80
3569.0,59,1.0,42.33,1,0,0,138.91500000000002,64,100,80
3570.0,63,0.5,42.33,1,0,0,138.91500000000002,64,100,80
3570.5,61,0.5,42.33,1,0,0,138.91500000000002,64,100,80
3571.0,66,0.25,42.33,1,0,0,138.91500000000002,64,100,80
3571.25,59,1.0,42.33,1,0,0,138.91500000000002,64,100,80
3572.25,61,0.5,42.33,1,0,0,138.91500000000002,64,100,80
3572.75,61,0.5,42.33,1,0,0,138.91500000000002,64,100,80
3573.25,59,1.0,42.33,1,0,0,138.91500000000002,64,100,80
3574.25,59,1.0,42.33,1,0,0,167.73986250000002,64,100,80
3575.25,64,1.0,63.5,1,0,0,145.86075000000002,64,100,80
3576.25,61,0.5,63.5,51,9,0,145.86075000000002,64,100,80
3576.75,59,1.0,63.5,1,0,0,145.86075000000002,64,100,80
3577.75,66,0.25,63.5,1,0,0,145.86075000000002,64,100,80
3578.0,61,0.5,63.5,1,0,0,145.86075000000002,64,100,80
3578.5,63,0.5,63.5,1,0,0,145.86075000000002,64,100,80
3579.0,61,0.5,63.5,1,0,0,145.86075000000002,64,100,80
3579.5,59,1.0,63.5,1,0,0,145.86075000000002,64,100,80
3580.5,61,0.5,63.5,1,0,0,145.86075000000002,64,100,80
3581.0,68,2.0,63.5,49,9,0,145.86075000000002,64,100,80
3583.0,61,0.5,63.5,1,0,0,145.86075000000002,64,100,80
3583.5,63,0.5,63.5,49,9,0,145.86075000000002,64,100,80
3584.0,59,1.0,21.16,1,0,0,145.86075000000002,64,100,80
3585.0,63,0.5,21.16,49,9,0,145.86075000000002,64,100,80
3585.5,61,0.5,21.16,1,0,0,145.86075000000002,64,100,80
3586.0,59,1.0,21.16,1,0,0,145.86075000000002,64,100,80
3587.0,63,0.5,21.16,1,0,0,145.86075000000002,64,100,80
3587.5,59,1.0,21.16,1,0,0,145.86075000000002,64,100,80
3588.5,66,0.25,21.16,1,0,0,145.86075000000002,64,100,80
3588.75,59,1.0,21.16,1,0,0,145.86075000000002,64,100,80
3589.75,63,0.5,21.16,49,9,0,145.86075000000002,64,100,80
3590.25,59,1.0,21.16,1,0,0,145.86075000000002,64,100,80
3591.25,63,0.5,21.16,1,0,0,145.86075000000002,64,100,80
3591.75,64,1.0,21.16,1,0,0,145.86075000000002,64,100,80
3592.75,59,1.0,74.08,1,0,0,145.86075000000002,64,100,80
3593.75,61,0.5,74.08,1,0,0,145.86075000000002,64,100,80
3594.25,64,1.0,74.08,50,9,0,145.86075000000002,64,100,80
3595.25,61,0.5,74.08,1,0,0,145.86075000000002,64,100,80
3595.75,66,0.25,74.08,49,9,0,145.86075000000002,64,100,80
3596.0,66,0.25,74.08,1,0,0,176.12685562500005,64,100,80
3596.25,59,1.0,74.08,1,0,0,153.15378750000005,64,100,80
3597.25,70,2.0,74.08,1,0,0,153.15378750000005,64,100,80
3599.25,63,0.5,74.08,1,0,0,153.15378750000005,64,100,80
3599.75,68,2.0,74.08,1,0,0,153.15378750000005,64,100,80
3601.75,68,2.0,74.08,1,0,0,184.93319840625003,64,100,80
3603.75,63,0.5,74.08,1,0,0,160.81147687500004,64,100,80
3604.25,68,2.0,52.91,1,0,0,160.81147687500004,64,100,80
3606.25,61,0.5,52.91,1,0,0,160.81147687500004,64,100,80
3606.75,68,2.0,52.91,50,9,0,160.81147687500004,64,100,80
3608.75,61,0.5,52.91,1,0,0,160.81147687500004,64,100,80
3609.25,61,0.5,52.91,1,0,0,194.17985832656254,64,100,80
3609.75,64,1.0,52.91,1,0,0,168.85205071875006,64,100,80
3610.75,61,0.5,52.91,1,0,0,168.85205071875006,64,100,80
3611.25,59,1.0,52.91,1,0,0,168.85205071875006,64,100,80
3612.25,61,0.5,52.91,1,0,0,168.85205071875006,64,100,80
3612.75,61,0.5,52.91,1,0,0,203.8888512428907,64,100,80
3613.25,68,2.0,52.91,1,0,0,177.29465325468757,64,100,80
3615.25,64,1.0,52.91,1,0,0,177.29465325468757,64,100,80
3616.25,68,2.0,52.91,1,0,0,177.29465325468757,64,100,80
3618.25,61,0.5,52.91,1,0,0,177.29465325468757,64,100,80
3618.75,68,2.0,52.91,1,0,0,177.29465325468757,64,100,80
3620.75,59,1.0,52.91,1,0,0,177.29465325468757,64,100,80
3621.75,64,1.0,52.91,1,0,0,177.29465325468757,64,100,80
3622.75,68,2.0,52.91,1,0,0,177.29465325468757,64,100,80
3624.75,61,0.5,52.91,1,0,0,177.29465325468757,64,100,80
3625.25,61,0.5,52.91,1,0,0,214.08329380503523,64,100,80
3625.75,68,2.0,52.91,1,0,0,186.15938591742196,64,100,80
3627.75,61,0.5,52.91,1,0,0,186.15938591742196,64,100,80
3628.25,61,0.5,52.91,50,9,0,186.15938591742196,64,100,80
3628.75,61,0.5,52.91,1,0,0,186.15938591742196,64,100,80
3629.25,59,1.0,52.91,1,0,0,186.15938591742196,64,100,80
3630.25,61,0.5,52.91,1,0,0,186.15938591742196,64,100,80
3630.75,63,0.5,52.91,1,0,0,186.15938591742196,64,100,80
3631.25,59,1.0,52.91,1,0,0,186.15938591742196,64,100,80
3632.25,61,0.5,52.91,1,0,0,186.15938591742196,64,100,80
3632.75,66,0.25,52.91,1,0,0,186.15938591742196,64,100,80
3633.0,63,0.5,52.91,1,0,0,186.15938591742196,64,100,80
3633.5,59,1.0,52.91,1,0,0,186.15938591742196,64,100,80
3634.5,63,0.5,52.91,1,0,0,186.15938591742196,64,100,80
3635.0,68,2.0,52.91,1,0,0,186.15938591742196,64,100,80
3637.0,61,0.5,52.91,1,0,0,186.15938591742196,64,100,80
3637.5,61,0.5,52.91,1,0,0,224.78745849528698,64,100,80
3638.0,64,1.0,95.25,1,0,0,195.46735521329305,64,100,80
3639.0,70,2.0,95.25,1,0,0,195.46735521329305,64,100,80
3641.0,63,0.5,95.25,1,0,0,195.46735521329305,64,100,80
3641.5,61,0.5,95.25,1,0,0,195.46735521329305,64,100,80
3642.0,59,1.0,95.25,1,0,0,195.46735521329305,64,100,80
3643.0,59,1.0,95.25,1,0,0,236.02683142005134,64,100,80
3644.0,59,1.0,95.25,1,0,0,495.65634598210784,64,100,80
3645.0,61,0.5,95.25,1,0,0,215.50275912265562,64,100,80
3645.5,70,2.0,95.25,1,0,0,215.50275912265562,64,100,80
3647.5,68,2.0,95.25,1,0,0,215.50275912265562,64,100,80
3649.5,68,2.0,95.25,1,0,0,215.50275912265562,64,100,80
3651.5,61,0.5,95.25,1,0,0,215.50275912265562,64,100,80
3652.0,61,0.5,63.5,1,0,0,215.50275912265562,64,100,80
3652.5,68,2.0,63.5,1,0,0,215.50275912265562,64,100,80
3654.5,66,0.25,63.5,50,9,0,215.50275912265562,64,100,80
3654.75,64,1.0,63.5,49,9,0,215.50275912265562,64,100,80
3655.75,63,0.5,63.5,1,0,0,215.50275912265562,64,100,80
3656.25,68,2.0,63.5,50,9,0,215.50275912265562,64,100,80
3658.25,66,0.25,63.5,1,0,0,215.50275912265562,64,100,80
3658.5,59,1.0,63.5,50,9,0,215.50275912265562,64,100,80
3659.5,61,0.5,63.5,1,0,0,215.50275912265562,64,100,80
3660.0,63,0.5,63.5,1,0,0,215.50275912265562,64,100,80
3660.5,59,1.0,63.5,1,0,0,215.50275912265562,64,100,80
3661.5,61,0.5,63.5,1,0,0,215.50275912265562,64,100,80
3662.0,68,2.0,63.5,1,0,0,215.50275912265562,64,100,80
3664.0,63,0.5,63.5,50,9,0,215.50275912265562,64,100,80
3664.5,66,0.25,63.5,1,0,0,215.50275912265562,64,100,80
3664.75,63,0.5,63.5,1,0,0,215.50275912265562,64,100,80
3665.25,0,1.0,63.5,49,9,0,120.0,64,100,80
3666.25,62,0.5,63.5,1,0,0,120.0,64,100,80
3666.75,69,2.0,63.5,48,9,0,120.0,64,100,80
3668.75,0,1.0,63.5,49,9,0,120.0,64,100,80
3669.75,62,0.5,63.5,1,0,0,120.0,64,100,80
3670.25,60,1.0,63.5,49,9,0,120.0,64,100,80
3671.25,69,2.0,63.5,1,0,0,120.0,64,100,80
3673.25,67,0.25,63.5,1,0,0,120.0,64,100,80
3673.5,64,0.5,52.91,1,0,0,120.0,64,100,80
3674.0,62,0.5,52.91,1,0,0,120.0,64,100,80
3674.5,62,0.5,52.91,1,0,0,120.0,64,100,80
3675.0,64,0.5,52.91,1,0,0,120.0,64,100,80
3675.5,60,1.0,52.91,1,0,0,120.0,64,100,80
3676.5,69,2.0,52.91,1,0,0,120.0,64,100,80
3678.5,71,2.0,52.91,1,0,0,120.0,64,100,80
3680.5,67,0.25,52.91,1,0,0,120.0,64,100,80
3680.75,62,0.5,52.91,1,0,0,120.0,64,100,80
3681.25,69,2.0,52.91,1,0,0,120.0,64,100,80
3683.25,60,1.0,52.91,1,0,0,120.0,64,100,80
3684.25,62,0.5,52.91,1,0,0,120.0,64,100,80
3684.75,67,0.25,84.66,1,0,0,120.0,64,100,80
3685.0,60,1.0,84.66,1,0,0,120.0,64,100,80
3686.0,60,1.0,84.66,1,0,0,120.0,64,100,80
3687.0,64,0.5,84.66,39,9,0,120.0,64,100,80
3687.5,60,1.0,84.66,1,0,0,120.0,64,100,80
3688.5,60,1.0,84.66,1,0,0,120.0,64,100,80
3689.5,64,0.5,84.66,1,0,0,120.0,64,100,80
3690.0,69,2.0,84.66,1,0,0,120.0,64,100,80
3692.0,60,1.0,84.66,1,0,0,120.0,64,100,80
3693.0,69,2.0,84.66,1,0,0,120.0,64,100,80
3695.0,60,1.0,84.66,1,0,0,120.0,64,100,80
3696.0,62,0.5,84.66,1,0,0,120.0,64,100,80
3696.5,67,0.25,42.33,1,0,0,120.0,64,100,80
3696.75,67,0.25,42.33,1,0,0,144.9,64,100,80
3697.0,69,2.0,42.33,1,0,0,126.0,64,100,80
3699.0,67,0.25,42.33,1,0,0,126.0,64,100,80
3699.25,69,2.0,42.33,1,0,0,126.0,64,100,80
3701.25,64,0.5,42.33,1,0,0,126.0,64,100,80
3701.75,65,1.0,42.33,49,9,0,126.0,64,100,80
3702.75,64,0.5,42.33,1,0,0,126.0,64,100,80
3703.25,64,0.5,42.33,1,0,0,126.0,64,100,80
3703.75,64,0.5,42.33,1,0,0,152.14499999999998,64,100,80
3704.25,60,1.0,42.33,1,0,0,132.3,64,100,80
3705.25,0,1.0,42.33,49,9,0,120.0,64,100,80
3706.25,64,0.5,95.25,1,0,0,120.0,64,100,80
3706.75,64,0.5,95.25,49,9,0,120.0,64,100,80
3707.25,62,0.5,95.25,1,0,0,120.0,64,100,80
3707.75,0,1.0,95.25,49,9,0,120.0,64,100,80
3708.75,64,0.5,95.25,1,0,0,120.0,64,100,80
3709.25,67,0.25,95.25,1,0,0,120.0,64,100,80
3709.5,0,1.0,95.25,49,9,0,120.0,64,100,80
3710.5,67,0.25,95.25,1,0,0,120.0,64,100,80
3710.75,64,0.5,95.25,1,0,0,120.0,64,100,80
3711.25,0,1.0,95.25,49,9,0,120.0,64,100,80
3712.25,0,1.0,95.25,49,9,0,144.9,64,100,80
3713.25,62,0.5,95.25,1,0,0,126.0,64,100,80
3713.75,67,0.25,31.75,1,0,0,126.0,64,100,80
3714.0,64,0.5,31.75,1,0,0,126.0,64,100,80
3714.5,67,0.25,31.75,1,0,0,126.0,64,100,80
3714.75,62,0.5,31.75,1,0,0,126.0,64,100,80
3715.25,69,2.0,31.75,1,0,0,126.0,64,100,80
3717.25,65,1.0,31.75,1,0,0,126.0,64,100,80
3718.25,67,0.25,31.75,1,0,0,126.0,64,100,80
3718.5,62,0.5,31.75,1,0,0,126.0,64,100,80
3719.0,60,1.0,31.75,1,0,0,126.0,64,100,80
3720.0,65,1.0,31.75,1,0,0,126.0,64,100,80
3721.0,62,0.5,31.75,49,9,0,126.0,64,100,80
3721.5,65,1.0,31.75,1,0,0,126.0,64,100,80
3722.5,60,1.0,31.75,1,0,0,126.0,64,100,80
3723.5,64,0.5,31.75,1,0,0,126.0,64,100,80
3724.0,64,0.5,31.75,1,0,0,126.0,64,100,80
3724.5,67,0.25,31.75,49,9,0,126.0,64,100,80
3724.75,64,0.5,31.75,1,0,0,126.0,64,100,80
3725.25,65,1.0,31.75,1,0,0,126.0,64,100,80
3726.25,71,2.0,31.75,1,0,0,126.0,64,100,80
3728.25,64,0.5,31.75,1,0,0,126.0,64,100,80
3728.75,62,0.5,31.75,1,0,0,126.0,64,100,80
3729.25,71,2.0,31.75,1,0,0,126.0,64,100,80
3731.25,60,1.0,31.75,1,0,0,126.0,64,100,80
3732.25,65,1.0,31.75,49,9,0,126.0,64,100,80
3733.25,65,1.0,105.83,1,0,0,126.0,64,100,80
3734.25,60,1.0,105.83,1,0,0,126.0,64,100,80
3735.25,60,1.0,105.83,1,0,0,152.14499999999998,64,100,80
3736.25,64,0.5,105.83,1,0,0,132.3,64,100,80
3736.75,67,0.25,105.83,1,0,0,132.3,64,100,80
3737.0,71,2.0,105.83,1,0,0,132.3,64,100,80
3739.0,60,1.0,105.83,1,0,0,132.3,64,100,80
3740.0,64,0.5,105.83,49,9,0,132.3,64,100,80
3740.5,62,0.5,105.83,1,0,0,132.3,64,100,80
3741.0,60,1.0,105.83,1,0,0,132.3,64,100,80
3742.0,65,1.0,105.83,51,9,0,132.3,64,100,80
3743.0,67,0.25,105.83,1,0,0,132.3,64,100,80
3743.25,60,1.0,95.25,1,0,0,132.3,64,100,80
3744.25,69,2.0,95.25,1,0,0,132.3,64,100,80
3746.25,69,2.0,95.25,1,0,0,132.3,64,100,80
3748.25,64,0.5,95.25,1,0,0,132.3,64,100,80
3748.75,67,0.25,95.25,1,0,0,132.3,64,100,80
3749.0,62,0.5,95.25,1,0,0,132.3,64,100,80
3749.5,0,1.0,95.25,49,9,0,120.0,64,100,80
3750.5,69,2.0,95.25,1,0,0,120.0,64,100,80
3752.5,64,0.5,95.25,1,0,0,120.0,64,100,80
3753.0,71,2.0,95.25,1,0,0,120.0,64,100,80
3755.0,60,1.0,95.25,1,0,0,120.0,64,100,80
3756.0,69,2.0,95.25,1,0,0,120.0,64,100,80
3758.0,62,0.5,84.66,1,0,0,120.0,64,100,80
3758.5,60,1.0,84.66,1,0,0,120.0,64,100,80
3759.5,69,2.0,84.66,1,0,0,120.0,64,100,80
3761.5,62,0.5,84.66,1,0,0,120.0,64,100,80
3762.0,69,2.0,84.66,1,0,0,120.0,64,100,80
3764.0,60,1.0,84.66,49,9,0,120.0,64,100,80
3765.0,60,1.0,84.66,1,0,0,144.9,64,100,80
3766.0,69,2.0,84.66,1,0,0,126.0,64,100,80
3768.0,69,2.0,84.66,1,0,0,126.0,64,100,80
3770.0,71,2.0,84.66,1,0,0,126.0,64,100,80
3772.0,60,1.0,84.66,1,0,0,126.0,64,100,80
3773.0,65,1.0,84.66,49,9,0,126.0,64,100,80
3774.0,65,1.0,63.5,1,0,0,126.0,64,100,80
3775.0,62,0.5,63.5,1,0,0,126.0,64,100,80
3775.5,69,2.0,63.5,1,0,0,126.0,64,100,80
3777.5,0,1.0,63.5,49,9,0,120.0,64,100,80
3778.5,71,2.0,63.5,1,0,0,120.0,64,100,80
3780.5,69,2.0,63.5,1,0,0,120.0,64,100,80
3782.5,60,1.0,63.5,1,0,0,120.0,64,100,80
3783.5,71,2.0,63.5,1,0,0,120.0,64,100,80
3785.5,62,0.5,63.5,1,0,0,120.0,64,100,80
3786.0,65,1.0,63.5,1,0,0,120.0,64,100,80
3787.0,62,0.5,63.5,40,9,0,120.0,64,100,80
3787.5,64,0.5,63.5,1,0,0,120.0,64,100,80
3788.0,0,1.0,105.83,49,9,0,120.0,64,100,80
3789.0,67,0.25,105.83,1,0,0,120.0,64,100,80
3789.25,62,0.5,105.83,1,0,0,120.0,64,100,80
3789.75,60,1.0,105.83,1,0,0,120.0,64,100,80
3790.75,71,2.0,105.83,1,0,0,120.0,64,100,80
3792.75,69,2.0,105.83,1,0,0,120.0,64,100,80
3794.75,60,1.0,105.83,1,0,0,120.0,64,100,80
3795.75,64,0.5,105.83,1,0,0,120.0,64,100,80
3796.25,60,1.0,105.83,49,9,0,120.0,64,100,80
3797.25,64,0.5,105.83,1,0,0,120.0,64,100,80
3797.75,69,2.0,105.83,1,0,0,120.0,64,100,80
3799.75,60,1.0,105.83,1,0,0,120.0,64,100,80
3800.75,0,1.0,63.5,49,9,0,120.0,64,100,80
3801.75,60,1.0,63.5,1,0,0,120.0,64,100,80
3802.75,65,1.0,63.5,50,9,0,120.0,64,100,80
3803.75,0,1.0,63.5,49,9,0,120.0,64,100,80
3804.75,64,0.5,63.5,1,0,0,120.0,64,100,80
3805.25,62,0.5,63.5,49,9,0,120.0,64,100,80
3805.75,62,0.5,63.5,49,9,0,120.0,64,100,80
3806.25,62,0.5,63.5,1,0,0,144.9,64,100,80
3806.75,71,2.0,63.5,1,0,0,126.0,64,100,80
3808.75,71,2.0,63.5,1,0,0,126.0,64,100,80
3810.75,62,0.5,63.5,1,0,0,126.0,64,100,80
3811.25,65,1.0,63.5,1,0,0,126.0,64,100,80
3812.25,65,1.0,63.5,1,0,0,152.14499999999998,64,100,80
3813.25,60,1.0,63.5,49,9,0,132.3,64,100,80
3814.25,62,0.5,63.5,1,0,0,132.3,64,100,80
3814.75,60,1.0,63.5,1,0,0,132.3,64,100,80
3815.75,62,0.5,63.5,1,0,0,132.3,64,100,80
3816.25,60,1.0,63.5,1,0,0,132.3,64,100,80
3817.25,69,2.0,63.5,1,0,0,132.3,64,100,80
3819.25,67,0.25,63.5,1,0,0,132.3,64,100,80
3819.5,60,1.0,63.5,1,0,0,132.3,64,100,80
3820.5,0,1.0,63.5,49,9,0,120.0,64,100,80
3821.5,71,2.0,63.5,1,0,0,120.0,64,100,80
3823.5,60,1.0,63.5,1,0,0,120.0,64,100,80
3824.5,62,0.5,74.08,1,0,0,120.0,64,100,80
3825.0,69,2.0,74.08,1,0,0,120.0,64,100,80
3827.0,64,0.5,74.08,1,0,0,120.0,64,100,80
3827.5,62,0.5,74.08,1,0,0,120.0,64,100,80
3828.0,62,0.5,74.08,1,0,0,120.0,64,100,80
3828.5,60,1.0,74.08,49,9,0,120.0,64,100,80
3829.5,67,0.25,74.08,1,0,0,120.0,64,100,80
3829.75,69,2.0,74.08,1,0,0,120.0,64,100,80
3831.75,64,0.5,74.08,1,0,0,120.0,64,100,80
3832.25,65,1.0,74.08,1,0,0,120.0,64,100,80
3833.25,71,2.0,74.08,51,9,0,120.0,64,100,80
3835.25,62,0.5,74.08,1,0,0,120.0,64,100,80
3835.75,65,1.0,74.08,1,0,0,120.0,64,100,80
3836.75,69,2.0,74.08,1,0,0,120.0,64,100,80
3838.75,62,0.5,74.08,1,0,0,120.0,64,100,80
3839.25,71,2.0,74.08,49,9,0,120.0,64,100,80
3841.25,65,1.0,74.08,1,0,0,120.0,64,100,80
3842.25,0,1.0,74.08,49,9,0,120.0,64,100,80
3843.25,60,1.0,74.08,1,0,0,120.0,64,100,80
3844.25,64,0.5,74.08,49,9,0,120.0,64,100,80
3844.75,60,1.0,74.08,1,0,0,120.0,64,100,80
3845.75,67,0.25,74.08,1,0,0,120.0,64,100,80
3846.0,62,0.5,74.08,1,0,0,120.0,64,100,80
3846.5,64,0.5,74.08,49,9,0,120.0,64,100,80
3847.0,69,2.0,74.08,1,0,0,120.0,64,100,80
3849.0,62,0.5,74.08,1,0,0,120.0,64,100,80
3849.5,62,0.5,74.08,1,0,0,120.0,64,100,80
3850.0,69,2.0,74.08,50,9,0,120.0,64,100,80
3852.0,0,1.0,74.08,49,9,0,120.0,64,100,80
3853.0,62,0.5,74.08,1,0,0,120.0,64,100,80
3853.5,0,1.0,74.08,49,9,0,120.0,64,100,80
3854.5,60,1.0,74.08,1,0,0,120.0,64,100,80
3855.5,62,0.5,74.08,50,9,0,120.0,64,100,80
3856.0,62,0.5,74.08,1,0,0,120.0,64,100,80
3856.5,71,2.0,74.08,1,0,0,120.0,64,100,80
3858.5,64,0.5,74.08,1,0,0,120.0,64,100,80
3859.0,62,0.5,95.25,1,0,0,120.0,64,100,80
3859.5,69,2.0,95.25,1,0,0,120.0,64,100,80
3861.5,67,0.25,95.25,1,0,0,120.0,64,100,80
3861.75,69,2.0,95.25,1,0,0,120.0,64,100,80
3863.75,60,1.0,95.25,1,0,0,120.0,64,100,80
3864.75,69,2.0,95.25,50,9,0,120.0,64,100,80
3866.75,69,2.0,95.25,1,0,0,120.0,64,100,80
3868.75,64,0.5,95.25,1,0,0,120.0,64,100,80
3869.25,67,0.25,95.25,1,0,0,120.0,64,100,80
3869.5,60,1.0,95.25,1,0,0,120.0,64,100,80
3870.5,62,0.5,95.25,1,0,0,120.0,64,100,80
3871.0,60,1.0,95.25,1,0,0,120.0,64,100,80
3872.0,62,0.5,74.08,1,0,0,120.0,64,100,80
3872.5,69,2.0,74.08,1,0,0,120.0,64,100,80
3874.5,67,0.25,74.08,1,0,0,120.0,64,100,80
3874.75,69,2.0,74.08,1,0,0,120.0,64,100,80
3876.75,60,1.0,74.08,1,0,0,120.0,64,100,80
3877.75,62,0.5,74.08,1,0,0,120.0,64,100,80
3878.25,64,0.5,74.08,49,9,0,120.0,64,100,80
3878.75,67,0.25,74.08,1,0,0,120.0,64,100,80
3879.0,69,2.0,74.08,1,0,0,120.0,64,100,80
3881.0,62,0.5,74.08,1,0,0,120.0,64,100,80
3881.5,65,1.0,74.08,1,0,0,120.0,64,100,80
3882.5,67,0.25,74.08,1,0,0,120.0,64,100,80
3882.75,62,0.5,84.66,1,0,0,120.0,64,100,80
3883.25,64,0.5,84.66,1,0,0,120.0,64,100,80
3883.75,64,0.5,84.66,1,0,0,120.0,64,100,80
3884.25,60,1.0,84.66,49,9,0,120.0,64,100,80
3885.25,62,0.5,84.66,1,0,0,120.0,64,100,80
3885.75,62,0.5,84.66,49,9,0,120.0,64,100,80
3886.25,65,1.0,84.66,1,0,0,120.0,64,100,80
3887.25,65,1.0,84.66,1,0,0,120.0,64,100,80
3888.25,69,2.0,84.66,1,0,0,120.0,64,100,80
3890.25,60,1.0,84.66,1,0,0,120.0,64,100,80
3891.25,67,0.25,84.66,1,0,0,120.0,64,100,80
3891.5,64,0.5,84.66,1,0,0,120.0,64,100,80
3892.0,64,0.5,95.25,1,0,0,144.9,64,100,80
3892.5,62,0.5,95.25,1,0,0,126.0,64,100,80
3893.0,69,2.0,95.25,1,0,0,126.0,64,100,80
3895.0,62,0.5,95.25,1,0,0,126.0,64,100,80
3895.5,64,0.5,95.25,1,0,0,126.0,64,100,80
3896.0,65,1.0,95.25,1,0,0,126.0,64,100,80
3897.0,60,1.0,95.25,1,0,0,126.0,64,100,80
3898.0,60,1.0,95.25,1,0,0,126.0,64,100,80
3899.0,69,2.0,95.25,1,0,0,126.0,64,100,80
3901.0,69,2.0,95.25,1,0,0,126.0,64,100,80
3903.0,60,1.0,95.25,1,0,0,126.0,64,100,80
3904.0,64,0.5,95.25,49,9,0,126.0,64,100,80
3904.5,64,0.5,84.66,1,0,0,126.0,64,100,80
3905.0,60,1.0,84.66,49,9,0,126.0,64,100,80
3906.0,64,0.5,84.66,1,0,0,126.0,64,100,80
3906.5,60,1.0,84.66,1,0,0,126.0,64,100,80
3907.5,62,0.5,84.66,1,0,0,126.0,64,100,80
3908.0,64,1.0,84.66,49,9,0,126.0,64,100,80
3909.0,66,0.25,84.66,1,0,0,126.0,64,100,80
3909.25,61,0.5,84.66,1,0,0,126.0,64,100,80
3909.75,63,0.5,84.66,1,0,0,126.0,64,100,80
3910.25,63,0.5,84.66,50,9,0,126.0,64,100,80
3910.75,59,1.0,84.66,1,0,0,126.0,64,100,80
3911.75,68,2.0,84.66,1,0,0,126.0,64,100,80
3913.75,59,1.0,74.08,1,0,0,126.0,64,100,80
3914.75,64,1.0,74.08,1,0,0,126.0,64,100,80
3915.75,68,2.0,74.08,1,0,0,126.0,64,100,80
3917.75,59,1.0,74.08,1,0,0,126.0,64,100,80
3918.75,59,1.0,74.08,1,0,0,152.14499999999998,64,100,80
3919.75,63,0.5,74.08,1,0,0,132.3,64,100,80
3920.25,59,1.0,74.08,49,9,0,132.3,64,100,80
3921.25,66,0.25,74.08,50,9,0,132.3,64,100,80
3921.5,59,1.0,74.08,1,0,0,132.3,64,100,80
3922.5,59,1.0,74.08,1,0,0,159.75225,64,100,80
3923.5,63,0.5,74.08,49,9,0,138.91500000000002,64,100,80
3924.0,59,1.0,74.08,1,0,0,138.91500000000002,64,100,80
3925.0,64,1.0,63.5,49,9,0,138.91500000000002,64,100,80
3926.0,59,1.0,63.5,1,0,0,138.91500000000002,64,100,80
3927.0,59,1.0,63.5,1,0,0,167.73986250000002,64,100,80
3928.0,68,2.0,63.5,1,0,0,145.86075000000002,64,100,80
3930.0,66,0.25,63.5,1,0,0,145.86075000000002,64,100,80
3930.25,68,2.0,63.5,49,9,0,145.86075000000002,64,100,80
3932.25,61,0.5,63.5,1,0,0,145.86075000000002,64,100,80
3932.75,59,1.0,63.5,1,0,0,145.86075000000002,64,100,80
3933.75,59,1.0,63.5,1,0,0,176.12685562500005,64,100,80
3934.75,63,0.5,63.5,49,9,0,153.15378750000005,64,100,80
3935.25,64,1.0,63.5,50,9,0,153.15378750000005,64,100,80
3936.25,66,0.25,63.5,1,0,0,153.15378750000005,64,100,80
3936.5,59,1.0,31.75,1,0,0,153.15378750000005,64,100,80
3937.5,59,1.0,31.75,1,0,0,153.15378750000005,64,100,80
3938.5,59,1.0,31.75,1,0,0,153.15378750000005,64,100,80
3939.5,66,0.25,31.75,1,0,0,153.15378750000005,64,100,80
3939.75,66,0.25,31.75,1,0,0,184.93319840625003,64,100,80
3940.0,0,1.0,31.75,49,9,0,120.0,64,100,80
3941.0,62,0.5,31.75,1,0,0,120.0,64,100,80
3941.5,60,1.0,31.75,1,0,0,120.0,64,100,80
3942.5,60,1.0,31.75,1,0,0,144.9,64,100,80
3943.5,69,2.0,31.75,1,0,0,126.0,64,100,80
3945.5,62,0.5,31.75,50,9,0,126.0,64,100,80
3946.0,62,0.5,31.75,1,0,0,126.0,64,100,80
3946.5,60,1.0,74.08,1,0,0,126.0,64,100,80
3947.5,67,0.25,74.08,1,0,0,126.0,64,100,80
3947.75,60,1.0,74.08,1,0,0,126.0,64,100,80
3948.75,62,0.5,74.08,1,0,0,126.0,64,100,80
3949.25,64,0.5,74.08,1,0,0,126.0,64,100,80
3949.75,64,0.5,74.08,1,0,0,126.0,64,100,80
3950.25,65,1.0,74.08,1,0,0,126.0,64,100,80
3951.25,62,0.5,74.08,1,0,0,126.0,64,100,80
3951.75,60,1.0,74.08,51,9,0,126.0,64,100,80
3952.75,60,1.0,74.08,1,0,0,126.0,64,100,80
3953.75,67,0.25,74.08,1,0,0,126.0,64,100,80
3954.0,64,0.5,74.08,50,9,0,126.0,64,100,80
3954.5,62,0.5,95.25,1,0,0,126.0,64,100,80
3955.0,64,0.5,95.25,50,9,0,126.0,64,100,80
3955.5,62,0.5,95.25,1,0,0,126.0,64,100,80
3956.0,60,1.0,95.25,1,0,0,126.0,64,100,80
3957.0,0,1.0,95.25,49,9,0,120.0,64,100,80
3958.0,64,1.0,95.25,50,9,0,120.0,64,100,80
3959.0,64,1.0,95.25,1,0,0,120.0,64,100,80
3960.0,68,2.0,95.25,1,0,0,120.0,64,100,80
3962.0,68,2.0,95.25,1,0,0,120.0,64,100,80
3964.0,63,0.5,95.25,1,0,0,120.0,64,100,80
3964.5,59,1.0,95.25,49,9,0,120.0,64,100,80
3965.5,59,1.0,95.25,1,0,0,120.0,64,100,80
3966.5,59,1.0,63.5,1,0,0,144.9,64,100,80
3967.5,61,0.5,63.5,1,0,0,126.0,64,100,80
3968.0,68,2.0,63.5,1,0,0,126.0,64,100,80
3970.0,59,1.0,63.5,1,0,0,126.0,64,100,80
3971.0,68,2.0,63.5,1,0,0,126.0,64,100,80
3973.0,66,0.25,63.5,1,0,0,126.0,64,100,80
3973.25,66,0.25,63.5,1,0,0,152.14499999999998,64,100,80
3973.5,59,1.0,63.5,1,0,0,132.3,64,100,80
3974.5,0,1.0,63.5,49,9,0,120.0,64,100,80
3975.5,69,2.0,63.5,1,0,0,120.0,64,100,80
3977.5,64,0.5,63.5,1,0,0,120.0,64,100,80
3978.0,71,2.0,63.5,1,0,0,120.0,64,100,80
3980.0,60,1.0,31.75,1,0,0,120.0,64,100,80
3981.0,69,2.0,31.75,1,0,0,120.0,64,100,80
3983.0,62,0.5,31.75,1,0,0,120.0,64,100,80
3983.5,60,1.0,31.75,1,0,0,120.0,64,100,80
3984.5,69,2.0,31.75,1,0,0,120.0,64,100,80
3986.5,60,1.0,31.75,1,0,0,120.0,64,100,80
3987.5,69,2.0,31.75,1,0,0,120.0,64,100,80
3989.5,60,1.0,31.75,49,9,0,120.0,64,100,80
3990.5,60,1.0,31.75,1,0,0,144.9,64,100,80
3991.5,62,0.5,31.75,1,0,0,126.0,64,100,80
3992.0,69,2.0,31.75,1,0,0,126.0,64,100,80
3994.0,71,2.0,31.75,1,0,0,126.0,64,100,80
3996.0,60,1.0,42.33,1,0,0,126.0,64,100,80
3997.0,64,0.5,42.33,1,0,0,126.0,64,100,80
3997.5,65,1.0,42.33,1,0,0,126.0,64,100,80
3998.5,62,0.5,42.33,1,0,0,126.0,64,100,80
3999.0,69,2.0,42.33,1,0,0,126.0,64,100,80
4001.0,71,2.0,42.33,1,0,0,126.0,64,100,80
4003.0,71,2.0,42.33,1,0,0,152.14499999999998,64,100,80
4005.0,69,2.0,42.33,1,0,0,132.3,64,100,80
4007.0,60,1.0,42.33,1,0,0,132.3,64,100,80
4008.0,71,2.0,42.33,1,0,0,132.3,64,100,80
4010.0,62,0.5,42.33,1,0,0,132.3,64,100,80
4010.5,60,1.0,42.33,1,0,0,132.3,64,100,80
4011.5,62,0.5,31.75,1,0,0,132.3,64,100,80
4012.0,62,0.5,31.75,1,0,0,132.3,64,100,80
4012.5,64,0.5,31.75,1,0,0,132.3,64,100,80
4013.0,69,2.0,31.75,1,0,0,132.3,64,100,80
4015.0,67,0.25,31.75,1,0,0,132.3,64,100,80
4015.25,62,0.5,31.75,1,0,0,132.3,64,100,80
4015.75,65,1.0,31.75,1,0,0,132.3,64,100,80
4016.75,60,1.0,31.75,49,9,0,132.3,64,100,80
4017.75,60,1.0,31.75,1,0,0,132.3,64,100,80
4018.75,60,1.0,31.75,1,0,0,132.3,64,100,80
4019.75,60,1.0,31.75,1,0,0,132.3,64,100,80
4020.75,62,0.5,31.75,1,0,0,132.3,64,100,80
4021.25,60,1.0,52.91,1,0,0,132.3,64,100,80
4022.25,69,2.0,52.91,1,0,0,132.3,64,100,80
4024.25,64,0.5,52.91,49,9,0,132.3,64,100,80
4024.75,62,0.5,52.91,1,0,0,132.3,64,100,80
4025.25,60,1.0,52.91,1,0,0,132.3,64,100,80
4026.25,60,1.0,52.91,1,0,0,132.3,64,100,80
4027.25,69,2.0,52.91,1,0,0,132.3,64,100,80
4029.25,65,1.0,52.91,1,0,0,132.3,64,100,80
4030.25,67,0.25,52.91,1,0,0,132.3,64,100,80
4030.5,60,1.0,52.91,1,0,0,132.3,64,100,80
4031.5,69,2.0,52.91,1,0,0,132.3,64,100,80
4033.5,65,1.0,52.91,1,0,0,132.3,64,100,80
4034.5,60,1.0,10.58,1,0,0,132.3,64,100,80
4035.5,69,2.0,10.58,1,0,0,132.3,64,100,80
4037.5,67,0.25,10.58,1,0,0,132.3,64,100,80
4037.75,64,0.5,10.58,1,0,0,132.3,64,100,80
4038.25,60,1.0,10.58,1,0,0,132.3,64,100,80
4039.25,60,1.0,10.58,1,0,0,159.75225,64,100,80
4040.25,62,0.5,10.58,49,9,0,138.91500000000002,64,100,80
4040.75,67,0.25,10.58,1,0,0,138.91500000000002,64,100,80
4041.0,60,1.0,10.58,1,0,0,138.91500000000002,64,100,80
4042.0,65,1.0,10.58,1,0,0,138.91500000000002,64,100,80
4043.0,0,1.0,10.58,49,9,0,120.0,64,100,80
4044.0,64,0.5,10.58,1,0,0,120.0,64,100,80
4044.5,71,2.0,52.91,1,0,0,120.0,64,100,80
4046.5,64,0.5,52.91,1,0,0,120.0,64,100,80
4047.0,60,1.0,52.91,1,0,0,120.0,64,100,80
4048.0,69,2.0,52.91,1,0,0,120.0,64,100,80
4050.0,71,2.0,52.91,51,9,0,120.0,64,100,80
4052.0,62,0.5,52.91,1,0,0,120.0,64,100,80
4052.5,62,0.5,52.91,1,0,0,144.9,64,100,80
4053.0,60,1.0,52.91,50,9,0,126.0,64,100,80
4054.0,62,0.5,52.91,1,0,0,126.0,64,100,80
4054.5,60,1.0,52.91,1,0,0,126.0,64,100,80
4055.5,62,0.5,52.91,1,0,0,126.0,64,100,80
4056.0,60,1.0,52.91,1,0,0,126.0,64,100,80
4057.0,60,1.0,95.25,1,0,0,126.0,64,100,80
4058.0,60,1.0,95.25,1,0,0,126.0,64,100,80
4059.0,64,0.5,95.25,1,0,0,126.0,64,100,80
4059.5,62,0.5,95.25,1,0,0,126.0,64,100,80
4060.0,64,0.5,95.25,1,0,0,126.0,64,100,80
4060.5,64,0.5,95.25,49,9,0,126.0,64,100,80
4061.0,60,1.0,95.25,1,0,0,126.0,64,100,80
4062.0,67,0.25,95.25,1,0,0,126.0,64,100,80
4062.25,67,0.25,95.25,1,0,0,126.0,64,100,80
4062.5,64,0.5,95.25,1,0,0,126.0,64,100,80
4063.0,69,2.0,95.25,1,0,0,126.0,64,100,80
4065.0,64,0.5,95.25,1,0,0,126.0,64,100,80
4065.5,69,2.0,74.08,1,0,0,126.0,64,100,80
4067.5,60,1.0,74.08,1,0,0,126.0,64,100,80
4068.5,62,0.5,74.08,1,0,0,126.0,64,100,80
4069.0,62,0.5,74.08,1,0,0,152.14499999999998,64,100,80
4069.5,62,0.5,74.08,1,0,0,319.5045,64,100,80
4070.0,60,1.0,74.08,51,9,0,138.91500000000002,64,100,80
4071.0,60,1.0,74.08,1,0,0,138.91500000000002,64,100,80
4072.0,60,1.0,74.08,1,0,0,138.91500000000002,64,100,80
4073.0,64,0.5,74.08,1,0,0,138.91500000000002,64,100,80
4073.5,60,1.0,74.08,1,0,0,138.91500000000002,64,100,80
4074.5,65,1.0,74.08,1,0,0,138.91500000000002,64,100,80
4075.5,65,1.0,74.08,1,0,0,167.73986250000002,64,100,80
4076.5,60,1.0,63.5,1,0,0,145.86075000000002,64,100,80
4077.5,64,0.5,63.5,1,0,0,145.86075000000002,64,100,80
4078.0,69,2.0,63.5,1,0,0,145.86075000000002,64,100,80
4080.0,64,0.5,63.5,1,0,0,145.86075000000002,64,100,80
4080.5,67,0.25,63.5,1,0,0,145.86075000000002,64,100,80
4080.75,64,0.5,63.5,1,0,0,145.86075000000002,64,100,80
4081.25,62,0.5,63.5,1,0,0,145.86075000000002,64,100,80
4081.75,67,0.25,63.5,1,0,0,145.86075000000002,64,100,80
4082.0,69,2.0,63.5,1,0,0,145.86075000000002,64,100,80
4084.0,60,1.0,63.5,1,0,0,145.86075000000002,64,100,80
4085.0,60,1.0,63.5,1,0,0,176.12685562500005,64,100,80
4086.0,62,0.5,63.5,1,0,0,153.15378750000005,64,100,80
4086.5,62,0.5,63.5,1,0,0,153.15378750000005,64,100,80
4087.0,62,0.5,63.5,1,0,0,184.93319840625003,64,100,80
4087.5,60,1.0,63.5,1,0,0,160.81147687500004,64,100,80
4088.5,64,1.0,63.5,50,9,0,160.81147687500004,64,100,80
4089.5,59,1.0,63.5,1,0,0,160.81147687500004,64,100,80
4090.5,61,0.5,63.5,1,0,0,160.81147687500004,64,100,80
4091.0,59,1.0,63.5,1,0,0,160.81147687500004,64,100,80
4092.0,61,0.5,63.5,1,0,0,160.81147687500004,64,100,80
4092.5,59,1.0,63.5,1,0,0,160.81147687500004,64,100,80
4093.5,59,1.0,63.5,1,0,0,194.17985832656254,64,100,80
4094.5,59,1.0,63.5,49,9,0,168.85205071875006,64,100,80
4095.5,59,1.0,63.5,1,0,0,168.85205071875006,64,100,80
4096.5,61,0.5,63.5,1,0,0,168.85205071875006,64,100,80
4097.0,64,1.0,63.5,1,0,0,168.85205071875006,64,100,80
4098.0,59,1.0,63.5,1,0,0,168.85205071875006,64,100,80
4099.0,63,0.5,63.5,49,9,0,168.85205071875006,64,100,80
4099.5,61,0.5,63.5,1,0,0,168.85205071875006,64,100,80
4100.0,68,2.0,63.5,1,0,0,168.85205071875006,64,100,80
4102.0,59,1.0,63.5,1,0,0,168.85205071875006,64,100,80
4103.0,59,1.0,63.5,1,0,0,168.85205071875006,64,100,80
4104.0,61,0.5,63.5,1,0,0,168.85205071875006,64,100,80
4104.5,61,0.5,63.5,1,0,0,203.8888512428907,64,100,80
4105.0,59,1.0,63.5,1,0,0,177.29465325468757,64,100,80
4106.0,63,0.5,63.5,1,0,0,177.29465325468757,64,100,80
4106.5,59,1.0,74.08,1,0,0,177.29465325468757,64,100,80
4107.5,59,1.0,74.08,1,0,0,214.08329380503523,64,100,80
4108.5,59,1.0,74.08,1,0,0,186.15938591742196,64,100,80
4109.5,61,0.5,74.08,1,0,0,186.15938591742196,64,100,80
4110.0,63,0.5,74.08,1,0,0,186.15938591742196,64,100,80
4110.5,64,1.0,74.08,1,0,0,186.15938591742196,64,100,80
4111.5,0,1.0,74.08,49,9,0,120.0,64,100,80
4112.5,65,1.0,74.08,1,0,0,120.0,64,100,80
4113.5,62,0.5,74.08,1,0,0,120.0,64,100,80
4114.0,64,1.0,74.08,50,9,0,120.0,64,100,80
4115.0,59,1.0,74.08,1,0,0,120.0,64,100,80
4116.0,59,1.0,74.08,1,0,0,120.0,64,100,80
4117.0,59,1.0,84.66,1,0,0,120.0,64,100,80
4118.0,63,0.5,84.66,1,0,0,120.0,64,100,80
4118.5,0,1.0,84.66,49,9,0,120.0,64,100,80
4119.5,65,1.0,84.66,1,0,0,120.0,64,100,80
4120.5,62,0.5,84.66,1,0,0,120.0,64,100,80
4121.0,60,1.0,84.66,1,0,0,120.0,64,100,80
4122.0,65,1.0,84.66,1,0,0,120.0,64,100,80
4123.0,64,0.5,84.66,1,0,0,120.0,64,100,80
4123.5,64,1.0,84.66,50,9,0,120.0,64,100,80
4124.5,64,1.0,84.66,1,0,0,120.0,64,100,80
4125.5,59,1.0,84.66,1,0,0,120.0,64,100,80
4126.5,68,2.0,84.66,1,0,0,120.0,64,100,80
4128.5,0,1.0,74.08,49,9,0,120.0,64,100,80
4129.5,62,0.5,74.08,1,0,0,120.0,64,100,80
4130.0,69,2.0,74.08,1,0,0,120.0,64,100,80
4132.0,62,0.5,74.08,1,0,0,120.0,64,100,80
4132.5,0,1.0,74.08,49,9,0,120.0,64,100,80
4133.5,64,0.5,74.08,51,9,0,120.0,64,100,80
4134.0,67,0.25,74.08,1,0,0,120.0,64,100,80
4134.25,62,0.5,74.08,49,9,0,120.0,64,100,80
4134.75,62,0.5,74.08,1,0,0,120.0,64,100,80
4135.25,71,2.0,74.08,51,9,0,120.0,64,100,80
4137.25,67,0.25,74.08,1,0,0,120.0,64,100,80
4137.5,64,0.5,74.08,49,9,0,120.0,64,100,80
4138.0,64,0.5,95.25,1,0,0,120.0,64,100,80
4138.5,64,0.5,95.25,1,0,0,144.9,64,100,80
4139.0,67,0.25,95.25,1,0,0,126.0,64,100,80
4139.25,71,2.0,95.25,1,0,0,126.0,64,100,80
4141.25,65,1.0,95.25,1,0,0,126.0,64,100,80
4142.25,69,2.0,95.25,1,0,0,126.0,64,100,80
4144.25,67,0.25,95.25,1,0,0,126.0,64,100,80
4144.5,64,0.5,95.25,49,9,0,126.0,64,100,80
4145.0,64,0.5,95.25,1,0,0,152.14499999999998,64,100,80
4145.5,71,2.0,95.25,49,9,0,132.3,64,100,80
4147.5,62,0.5,95.25,1,0,0,132.3,64,100,80
4148.0,60,1.0,95.25,1,0,0,132.3,64,100,80
4149.0,69,2.0,52.91,1,0,0,132.3,64,100,80
4151.0,67,0.25,52.91,1,0,0,132.3,64,100,80
4151.25,64,0.5,52.91,1,0,0,132.3,64,100,80
4151.75,64,0.5,52.91,1,0,0,159.75225,64,100,80
4152.25,65,1.0,52.91,1,0,0,138.91500000000002,64,100,80
4153.25,64,0.5,52.91,1,0,0,138.91500000000002,64,100,80
4153.75,60,1.0,52.91,1,0,0,138.91500000000002,64,100,80
4154.75,64,1.0,52.91,49,9,0,138.91500000000002,64,100,80
4155.75,63,0.5,52.91,1,0,0,138.91500000000002,64,100,80
4156.25,63,0.5,52.91,49,9,0,138.91500000000002,64,100,80
4156.75,66,0.25,52.91,1,0,0,138.91500000000002,64,100,80
4157.0,61,0.5,52.91,1,0,0,138.91500000000002,64,100,80
4157.5,63,0.5,84.66,1,0,0,138.91500000000002,64,100,80
4158.0,59,1.0,84.66,1,0,0,138.91500000000002,64,100,80
4159.0,63,0.5,84.66,1,0,0,138.91500000000002,64,100,80
4159.5,59,1.0,84.66,1,0,0,138.91500000000002,64,100,80
4160.5,59,1.0,84.66,1,0,0,138.91500000000002,64,100,80
4161.5,61,0.5,84.66,1,0,0,138.91500000000002,64,100,80
4162.0,70,2.0,84.66,1,0,0,138.91500000000002,64,100,80
4164.0,59,1.0,84.66,1,0,0,138.91500000000002,64,100,80
4165.0,68,2.0,84.66,1,0,0,138.91500000000002,64,100,80
4167.0,61,0.5,84.66,1,0,0,138.91500000000002,64,100,80
4167.5,68,2.0,84.66,1,0,0,138.91500000000002,64,100,80
4169.5,66,0.25,84.66,1,0,0,138.91500000000002,64,100,80
4169.75,59,1.0,84.66,1,0,0,138.91500000000002,64,100,80
4170.75,61,0.5,84.66,1,0,0,138.91500000000002,64,100,80
4171.25,68,2.0,84.66,1,0,0,138.91500000000002,64,100,80
4173.25,70,2.0,84.66,1,0,0,138.91500000000002,64,100,80
4175.25,63,0.5,84.66,1,0,0,138.91500000000002,64,100,80
4175.75,68,2.0,84.66,1,0,0,138.91500000000002,64,100,80
4177.75,66,0.25,84.66,1,0,0,138.91500000000002,64,100,80
4178.0,68,2.0,84.66,1,0,0,138.91500000000002,64,100,80
4180.0,61,0.5,84.66,1,0,0,138.91500000000002,64,100,80
4180.5,68,2.0,84.66,1,0,0,138.91500000000002,64,100,80
4182.5,59,1.0,84.66,1,0,0,138.91500000000002,64,100,80
4183.5,68,2.0,84.66,49,9,0,138.91500000000002,64,100,80
4185.5,61,0.5,63.5,1,0,0,138.91500000000002,64,100,80
4186.0,59,1.0,63.5,1,0,0,138.91500000000002,64,100,80
4187.0,63,0.5,63.5,1,0,0,138.91500000000002,64,100,80
4187.5,70,2.0,63.5,1,0,0,138.91500000000002,64,100,80
4189.5,64,1.0,63.5,1,0,0,138.91500000000002,64,100,80
4190.5,64,1.0,63.5,1,0,0,167.73986250000002,64,100,80
4191.5,63,0.5,63.5,1,0,0,145.86075000000002,64,100,80
4192.0,63,0.5,63.5,1,0,0,145.86075000000002,64,100,80
4192.5,63,0.5,63.5,49,9,0,145.86075000000002,64,100,80
4193.0,59,1.0,63.5,1,0,0,145.86075000000002,64,100,80
4194.0,59,1.0,63.5,1,0,0,145.86075000000002,64,100,80
4195.0,59,1.0,63.5,1,0,0,176.12685562500005,64,100,80
4196.0,61,0.5,63.5,1,0,0,153.15378750000005,64,100,80
4196.5,61,0.5,63.5,1,0,0,153.15378750000005,64,100,80
4197.0,59,1.0,63.5,1,0,0,153.15378750000005,64,100,80
4198.0,61,0.5,63.5,1,0,0,153.15378750000005,64,100,80
4198.5,63,0.5,63.5,1,0,0,153.15378750000005,64,100,80
4199.0,63,0.5,63.5,49,9,0,153.15378750000005,64,100,80
4199.5,63,0.5,63.5,50,9,0,153.15378750000005,64,100,80
4200.0,59,1.0,63.5,1,0,0,153.15378750000005,64,100,80
4201.0,63,0.5,63.5,49,9,0,153.15378750000005,64,100,80
4201.5,64,1.0,63.5,1,0,0,153.15378750000005,64,100,80
4202.5,64,1.0,63.5,49,9,0,153.15378750000005,64,100,80
4203.5,59,1.0,63.5,1,0,0,153.15378750000005,64,100,80
4204.5,64,1.0,74.08,1,0,0,153.15378750000005,64,100,80
4205.5,61,0.5,74.08,51,9,0,153.15378750000005,64,100,80
4206.0,59,1.0,74.08,1,0,0,153.15378750000005,64,100,80
4207.0,64,1.0,74.08,50,9,0,153.15378750000005,64,100,80
4208.0,64,1.0,74.08,1,0,0,153.15378750000005,64,100,80
4209.0,68,2.0,74.08,1,0,0,153.15378750000005,64,100,80
4211.0,68,2.0,74.08,1,0,0,184.93319840625003,64,100,80
4213.0,63,0.5,74.08,49,9,0,160.81147687500004,64,100,80
4213.5,66,0.25,74.08,1,0,0,160.81147687500004,64,100,80
4213.75,64,1.0,74.08,1,0,0,160.81147687500004,64,100,80
4214.75,59,1.0,74.08,1,0,0,160.81147687500004,64,100,80
4215.75,66,0.25,74.08,1,0,0,160.81147687500004,64,100,80
4216.0,59,1.0,74.08,1,0,0,160.81147687500004,64,100,80
4217.0,63,0.5,74.08,1,0,0,160.81147687500004,64,100,80
4217.5,61,0.5,74.08,1,0,0,160.81147687500004,64,100,80
4218.0,59,1.0,74.08,1,0,0,160.81147687500004,64,100,80
4219.0,59,1.0,74.08,1,0,0,194.17985832656254,64,100,80
4220.0,63,0.5,74.08,1,0,0,168.85205071875006,64,100,80
4220.5,59,1.0,74.08,1,0,0,168.85205071875006,64,100,80
4221.5,59,1.0,74.08,1,0,0,168.85205071875006,64,100,80
4222.5,59,1.0,74.08,1,0,0,203.8888512428907,64,100,80
4223.5,64,1.0,74.08,1,0,0,177.29465325468757,64,100,80
4224.5,59,1.0,74.08,1,0,0,177.29465325468757,64,100,80
4225.5,68,2.0,74.08,1,0,0,177.29465325468757,64,100,80
4227.5,68,2.0,63.5,50,9,0,177.29465325468757,64,100,80
4229.5,68,2.0,63.5,1,0,0,177.29465325468757,64,100,80
4231.5,61,0.5,63.5,1,0,0,177.29465325468757,64,100,80
4232.0,68,2.0,63.5,1,0,0,177.29465325468757,64,100,80
4234.0,64,1.0,63.5,1,0,0,177.29465325468757,64,100,80
4235.0,70,2.0,63.5,1,0,0,177.29465325468757,64,100,80
4237.0,68,2.0,63.5,1,0,0,177.29465325468757,64,100,80
4239.0,64,1.0,63.5,1,0,0,177.29465325468757,64,100,80
4240.0,64,1.0,63.5,1,0,0,177.29465325468757,64,100,80
4241.0,63,0.5,63.5,49,9,0,177.29465325468757,64,100,80
4241.5,68,2.0,63.5,1,0,0,177.29465325468757,64,100,80
4243.5,68,2.0,63.5,1,0,0,214.08329380503523,64,100,80
4245.5,63,0.5,63.5,1,0,0,186.15938591742196,64,100,80
4246.0,68,2.0,63.5,1,0,0,186.15938591742196,64,100,80
4248.0,68,2.0,63.5,1,0,0,224.78745849528698,64,100,80
4250.0,68,2.0,63.5,1,0,0,472.0536628401027,64,100,80
4252.0,68,2.0,63.5,1,0,0,205.2407229739577,64,100,80
4254.0,59,1.0,63.5,1,0,0,205.2407229739577,64,100,80
4255.0,70,2.0,63.5,1,0,0,205.2407229739577,64,100,80
4257.0,61,0.5,63.5,1,0,0,205.2407229739577,64,100,80
4257.5,59,1.0,63.5,49,9,0,205.2407229739577,64,100,80
4258.5,66,0.25,63.5,1,0,0,205.2407229739577,64,100,80
4258.75,64,1.0,63.5,50,9,0,205.2407229739577,64,100,80
4259.75,68,2.0,63.5,1,0,0,205.2407229739577,64,100,80
4261.75,68,2.0,84.66,1,0,0,247.82817299105392,64,100,80
4263.75,63,0.5,84.66,49,9,0,215.50275912265562,64,100,80
4264.25,61,0.5,84.66,1,0,0,215.50275912265562,64,100,80
4264.75,66,0.25,84.66,1,0,0,215.50275912265562,64,100,80
4265.0,66,0.25,84.66,1,0,0,215.50275912265562,64,100,80
4265.25,64,1.0,84.66,1,0,0,215.50275912265562,64,100,80
4266.25,59,1.0,84.66,1,0,0,215.50275912265562,64,100,80
4267.25,59,1.0,84.66,1,0,0,215.50275912265562,64,100,80
4268.25,61,0.5,84.66,1,0,0,215.50275912265562,64,100,80
4268.75,63,0.5,84.66,1,0,0,215.50275912265562,64,100,80
4269.25,59,1.0,84.66,1,0,0,215.50275912265562,64,100,80
4270.25,59,1.0,84.66,1,0,0,215.50275912265562,64,100,80
4271.25,63,0.5,52.91,49,9,0,215.50275912265562,64,100,80
4271.75,64,1.0,52.91,1,0,0,215.50275912265562,64,100,80
4272.75,59,1.0,52.91,1,0,0,215.50275912265562,64,100,80
4273.75,0,1.0,52.91,49,9,0,120.0,64,100,80
4274.75,64,0.5,52.91,50,9,0,120.0,64,100,80
4275.25,62,0.5,52.91,1,0,0,120.0,64,100,80
4275.75,60,1.0,52.91,1,0,0,120.0,64,100,80
4276.75,71,2.0,52.91,1,0,0,120.0,64,100,80
4278.75,62,0.5,52.91,1,0,0,120.0,64,100,80
4279.25,60,1.0,52.91,1,0,0,120.0,64,100,80
4280.25,60,1.0,52.91,1,0,0,120.0,64,100,80
4281.25,64,0.5,52.91,1,0,0,120.0,64,100,80
4281.75,67,0.25,42.33,1,0,0,120.0,64,100,80
4282.0,64,0.5,42.33,1,0,0,120.0,64,100,80
4282.5,62,0.5,42.33,1,0,0,120.0,64,100,80
4283.0,60,1.0,42.33,1,0,0,120.0,64,100,80
4284.0,64,0.5,42.33,1,0,0,120.0,64,100,80
4284.5,71,2.0,42.33,1,0,0,120.0,64,100,80
4286.5,60,1.0,42.33,50,9,0,120.0,64,100,80
4287.5,67,0.25,42.33,1,0,0,120.0,64,100,80
4287.75,71,2.0,42.33,1,0,0,120.0,64,100,80
4289.75,62,0.5,42.33,1,0,0,120.0,64,100,80
4290.25,60,1.0,42.33,1,0,0,120.0,64,100,80
4291.25,64,0.5,42.33,1,0,0,120.0,64,100,80
4291.75,62,0.5,74.08,1,0,0,120.0,64,100,80
4292.25,64,0.5,74.08,1,0,0,120.0,64,100,80
4292.75,62,0.5,74.08,1,0,0,120.0,64,100,80
4293.25,62,0.5,74.08,1,0,0,144.9,64,100,80
4293.75,60,1.0,74.08,1,0,0,126.0,64,100,80
4294.75,60,1.0,74.08,1,0,0,126.0,64,100,80
4295.75,69,2.0,74.08,50,9,0,126.0,64,100,80
4297.75,62,0.5,74.08,1,0,0,126.0,64,100,80
4298.25,62,0.5,74.08,1,0,0,126.0,64,100,80
4298.75,60,1.0,74.08,1,0,0,126.0,64,100,80
4299.75,62,0.5,74.08,1,0,0,126.0,64,100,80
4300.25,60,1.0,74.08,1,0,0,126.0,64,100,80
4301.25,60,1.0,63.5,1,0,0,152.14499999999998,64,100,80
4302.25,69,2.0,63.5,1,0,0,132.3,64,100,80
4304.25,64,0.5,63.5,1,0,0,132.3,64,100,80
4304.75,62,0.5,63.5,1,0,0,132.3,64,100,80
4305.25,69,2.0,63.5,1,0,0,132.3,64,100,80
4307.25,62,0.5,63.5,1,0,0,132.3,64,100,80
4307.75,60,1.0,63.5,1,0,0,132.3,64,100,80
4308.75,60,1.0,63.5,1,0,0,159.75225,64,100,80
4309.75,60,1.0,63.5,1,0,0,138.91500000000002,64,100,80
4310.75,64,0.5,63.5,1,0,0,138.91500000000002,64,100,80
4311.25,64,0.5,63.5,1,0,0,167.73986250000002,64,100,80
4311.75,62,0.5,63.5,1,0,0,145.86075000000002,64,100,80
4312.25,71,2.0,63.5,51,9,0,145.86075000000002,64,100,80
4314.25,62,0.5,63.5,1,0,0,145.86075000000002,64,100,80
4314.75,60,1.0,63.5,1,0,0,145.86075000000002,64,100,80
4315.75,64,1.0,63.5,50,9,0,145.86075000000002,64,100,80
4316.75,59,1.0,63.5,1,0,0,145.86075000000002,64,100,80
4317.75,0,1.0,63.5,49,9,0,120.0,64,100,80
4318.75,62,0.5,63.5,1,0,0,120.0,64,100,80
4319.25,65,1.0,63.5,1,0,0,120.0,64,100,80
4320.25,62,0.5,63.5,1,0,0,120.0,64,100,80
4320.75,67,0.25,63.5,1,0,0,120.0,64,100,80
4321.0,62,0.5,63.5,1,0,0,120.0,64,100,80
4321.5,65,1.0,63.5,49,9,0,120.0,64,100,80
4322.5,60,1.0,31.75,1,0,0,120.0,64,100,80
4323.5,62,0.5,31.75,1,0,0,120.0,64,100,80
4324.0,64,0.5,31.75,1,0,0,120.0,64,100,80
4324.5,69,2.0,31.75,1,0,0,120.0,64,100,80
4326.5,0,1.0,31.75,49,9,0,120.0,64,100,80
4327.5,62,0.5,31.75,1,0,0,120.0,64,100,80
4328.0,62,0.5,31.75,1,0,0,144.9,64,100,80
4328.5,64,0.5,31.75,1,0,0,126.0,64,100,80
4329.0,69,2.0,31.75,1,0,0,126.0,64,100,80
4331.0,60,1.0,31.75,1,0,0,126.0,64,100,80
4332.0,69,2.0,31.75,1,0,0,126.0,64,100,80
4334.0,64,0.5,31.75,1,0,0,126.0,64,100,80
4334.5,60,1.0,52.91,1,0,0,126.0,64,100,80
4335.5,71,2.0,52.91,1,0,0,126.0,64,100,80
4337.5,62,0.5,52.91,1,0,0,126.0,64,100,80
4338.0,64,0.5,52.91,49,9,0,126.0,64,100,80
4338.5,67,0.25,52.91,1,0,0,126.0,64,100,80
4338.75,62,0.5,52.91,1,0,0,126.0,64,100,80
4339.25,60,1.0,52.91,1,0,0,126.0,64,100,80
4340.25,0,1.0,52.91,49,9,0,120.0,64,100,80
4341.25,62,0.5,52.91,1,0,0,120.0,64,100,80
4341.75,64,0.5,52.91,1,0,0,120.0,64,100,80
4342.25,64,0.5,52.91,1,0,0,120.0,64,100,80
4342.75,62,0.5,52.91,1,0,0,120.0,64,100,80
4343.25,64,0.5,95.25,1,0,0,120.0,64,100,80
4343.75,69,2.0,95.25,1,0,0,120.0,64,100,80
4345.75,71,2.0,95.25,1,0,0,120.0,64,100,80
4347.75,62,0.5,95.25,1,0,0,120.0,64,100,80
4348.25,64,0.5,95.25,1,0,0,120.0,64,100,80
4348.75,60,1.0,95.25,1,0,0,120.0,64,100,80
4349.75,69,2.0,95.25,1,0,0,120.0,64,100,80
4351.75,69,2.0,95.25,1,0,0,120.0,64,100,80
4353.75,64,1.0,95.25,50,9,0,120.0,64,100,80
4354.75,68,2.0,95.25,1,0,0,120.0,64,100,80
4356.75,61,0.5,95.25,1,0,0,120.0,64,100,80
4357.25,61,0.5,95.25,1,0,0,144.9,64,100,80
4357.75,61,0.5,63.5,1,0,0,304.28999999999996,64,100,80
4358.25,63,0.5,63.5,1,0,0,132.3,64,100,80
4358.75,59,1.0,63.5,1,0,0,132.3,64,100,80
4359.75,59,1.0,63.5,1,0,0,132.3,64,100,80
4360.75,63,0.5,63.5,1,0,0,132.3,64,100,80
4361.25,63,0.5,63.5,1,0,0,132.3,64,100,80
4361.75,70,2.0,63.5,1,0,0,132.3,64,100,80
4363.75,70,2.0,63.5,1,0,0,159.75225,64,100,80
4365.75,66,0.25,63.5,1,0,0,138.91500000000002,64,100,80
4366.0,68,2.0,63.5,1,0,0,138.91500000000002,64,100,80
4368.0,59,1.0,63.5,1,0,0,138.91500000000002,64,100,80
4369.0,59,1.0,63.5,49,9,0,138.91500000000002,64,100,80
4370.0,63,0.5,63.5,1,0,0,138.91500000000002,64,100,80
4370.5,59,1.0,63.5,1,0,0,138.91500000000002,64,100,80
4371.5,68,2.0,63.5,1,0,0,138.91500000000002,64,100,80
4373.5,63,0.5,63.5,1,0,0,138.91500000000002,64,100,80
4374.0,61,0.5,63.5,1,0,0,138.91500000000002,64,100,80
4374.5,59,1.0,63.5,1,0,0,138.91500000000002,64,100,80
4375.5,59,1.0,63.5,1,0,0,138.91500000000002,64,100,80
4376.5,61,0.5,63.5,1,0,0,138.91500000000002,64,100,80
4377.0,61,0.5,63.5,1,0,0,138.91500000000002,64,100,80
4377.5,66,0.25,63.5,1,0,0,138.91500000000002,64,100,80
4377.75,63,0.5,63.5,1,0,0,138.91500000000002,64,100,80
4378.25,59,1.0,63.5,1,0,0,138.91500000000002,64,100,80
4379.25,63,0.5,31.75,1,0,0,138.91500000000002,64,100,80
4379.75,63,0.5,31.75,1,0,0,138.91500000000002,64,100,80
4380.25,61,0.5,31.75,1,0,0,138.91500000000002,64,100,80
4380.75,59,1.0,31.75,1,0,0,138.91500000000002,64,100,80
4381.75,66,0.25,31.75,1,0,0,138.91500000000002,64,100,80
4382.0,61,0.5,31.75,1,0,0,138.91500000000002,64,100,80
4382.5,70,2.0,31.75,1,0,0,138.91500000000002,64,100,80
4384.5,68,2.0,31.75,1,0,0,138.91500000000002,64,100,80
4386.5,59,1.0,31.75,1,0,0,138.91500000000002,64,100,80
4387.5,59,1.0,31.75,1,0,0,167.73986250000002,64,100,80
4388.5,0,1.0,31.75,49,9,0,120.0,64,100,80
4389.5,64,0.5,31.75,1,0,0,120.0,64,100,80
4390.0,60,1.0,52.91,1,0,0,120.0,64,100,80
4391.0,64,0.5,52.91,1,0,0,120.0,64,100,80
4391.5,60,1.0,52.91,1,0,0,120.0,64,100,80
4392.5,62,0.5,52.91,1,0,0,120.0,64,100,80
4393.0,60,1.0,52.91,1,0,0,120.0,64,100,80
4394.0,64,0.5,52.91,1,0,0,120.0,64,100,80
4394.5,69,2.0,52.91,1,0,0,120.0,64,100,80
4396.5,64,0.5,52.91,1,0,0,120.0,64,100,80
4397.0,69,2.0,52.91,1,0,0,120.0,64,100,80
4399.0,69,2.0,52.91,1,0,0,144.9,64,100,80
4401.0,60,1.0,52.91,1,0,0,126.0,64,100,80
4402.0,65,1.0,52.91,1,0,0,126.0,64,100,80
4403.0,60,1.0,84.66,1,0,0,126.0,64,100,80
4404.0,0,1.0,84.66,49,9,0,120.0,64,100,80
4405.0,62,0.5,84.66,1,0,0,120.0,64,100,80
4405.5,64,0.5,84.66,1,0,0,120.0,64,100,80
4406.0,69,2.0,84.66,1,0,0,120.0,64,100,80
4408.0,64,0.5,84.66,1,0,0,120.0,64,100,80
4408.5,65,1.0,84.66,1,0,0,120.0,64,100,80
4409.5,69,2.0,84.66,1,0,0,120.0,64,100,80
4411.5,69,2.0,84.66,1,0,0,120.0,64,100,80
4413.5,65,1.0,84.66,1,0,0,120.0,64,100,80
4414.5,60,1.0,84.66,1,0,0,120.0,64,100,80
4415.5,64,0.5,84.66,1,0,0,120.0,64,100,80
4416.0,64,0.5,116.41,1,0,0,144.9,64,100,80
4416.5,60,1.0,116.41,1,0,0,126.0,64,100,80
4417.5,64,0.5,116.41,1,0,0,126.0,64,100,80
4418.0,65,1.0,116.41,1,0,0,126.0,64,100,80
4419.0,60,1.0,116.41,1,0,0,126.0,64,100,80
4420.0,60,1.0,116.41,1,0,0,126.0,64,100,80
4421.0,62,0.5,116.41,1,0,0,126.0,64,100,80
4421.5,64,0.5,116.41,1,0,0,126.0,64,100,80
4422.0,60,1.0,116.41,1,0,0,126.0,64,100,80
4423.0,60,1.0,116.41,1,0,0,126.0,64,100,80
4424.0,60,1.0,116.41,1,0,0,126.0,64,100,80
4425.0,64,0.5,116.41,1,0,0,126.0,64,100,80
4425.5,60,1.0,63.5,1,0,0,126.0,64,100,80
4426.5,60,1.0,63.5,1,0,0,152.14499999999998,64,100,80
4427.5,60,1.0,63.5,1,0,0,132.3,64,100,80
4428.5,62,0.5,63.5,1,0,0,132.3,64,100,80
4429.0,62,0.5,63.5,1,0,0,159.75225,64,100,80
4429.5,64,0.5,63.5,49,9,0,138.91500000000002,64,100,80
4430.0,64,1.0,63.5,49,9,0,138.91500000000002,64,100,80
4431.0,63,0.5,63.5,1,0,0,138.91500000000002,64,100,80
4431.5,59,1.0,63.5,1,0,0,138.91500000000002,64,100,80
4432.5,63,0.5,63.5,1,0,0,138.91500000000002,64,100,80
4433.0,61,0.5,63.5,1,0,0,138.91500000000002,64,100,80
4433.5,68,2.0,63.5,1,0,0,138.91500000000002,64,100,80
4435.5,63,0.5,63.5,1,0,0,138.91500000000002,64,100,80
4436.0,61,0.5,63.5,1,0,0,138.91500000000002,64,100,80
4436.5,68,2.0,63.5,1,0,0,138.91500000000002,64,100,80
4438.5,59,1.0,63.5,1,0,0,138.91500000000002,64,100,80
4439.5,59,1.0,63.5,1,0,0,138.91500000000002,64,100,80
4440.5,64,1.0,63.5,50,9,0,138.91500000000002,64,100,80
4441.5,61,0.5,63.5,1,0,0,138.91500000000002,64,100,80
4442.0,66,0.25,63.5,1,0,0,138.91500000000002,64,100,80
4442.25,63,0.5,63.5,1,0,0,138.91500000000002,64,100,80
4442.75,59,1.0,63.5,1,0,0,138.91500000000002,64,100,80
4443.75,59,1.0,63.5,1,0,0,138.91500000000002,64,100,80
4444.75,61,0.5,63.5,1,0,0,138.91500000000002,64,100,80
4445.25,61,0.5,63.5,1,0,0,167.73986250000002,64,100,80
4445.75,59,1.0,63.5,1,0,0,145.86075000000002,64,100,80
4446.75,68,2.0,63.5,1,0,0,145.86075000000002,64,100,80
4448.75,66,0.25,63.5,1,0,0,145.86075000000002,64,100,80
4449.0,59,1.0,63.5,1,0,0,145.86075000000002,64,100,80
4450.0,63,0.5,63.5,1,0,0,145.86075000000002,64,100,80
4450.5,59,1.0,63.5,1,0,0,145.86075000000002,64,100,80
4451.5,66,0.25,63.5,1,0,0,145.86075000000002,64,100,80
4451.75,59,1.0,63.5,1,0,0,145.86075000000002,64,100,80
4452.75,59,1.0,63.5,1,0,0,145.86075000000002,64,100,80
4453.75,59,1.0,63.5,1,0,0,176.12685562500005,64,100,80
4454.75,59,1.0,63.5,1,0,0,153.15378750000005,64,100,80
4455.75,63,0.5,74.08,1,0,0,153.15378750000005,64,100,80
4456.25,59,1.0,74.08,1,0,0,153.15378750000005,64,100,80
4457.25,59,1.0,74.08,1,0,0,153.15378750000005,64,100,80
4458.25,63,0.5,74.08,1,0,0,153.15378750000005,64,100,80
4458.75,70,2.0,74.08,1,0,0,153.15378750000005,64,100,80
4460.75,59,1.0,74.08,1,0,0,153.15378750000005,64,100,80
4461.75,61,0.5,74.08,1,0,0,153.15378750000005,64,100,80
4462.25,61,0.5,74.08,1,0,0,184.93319840625003,64,100,80
4462.75,0,1.0,74.08,49,9,0,120.0,64,100,80
4463.75,62,0.5,74.08,50,9,0,120.0,64,100,80
4464.25,62,0.5,74.08,1,0,0,120.0,64,100,80
4464.75,62,0.5,74.08,1,0,0,120.0,64,100,80
4465.25,60,1.0,74.08,1,0,0,120.0,64,100,80
4466.25,67,0.25,74.08,1,0,0,120.0,64,100,80
4466.5,64,1.0,74.08,49,9,0,120.0,64,100,80
4467.5,61,0.5,74.08,1,0,0,120.0,64,100,80
4468.0,59,1.0,74.08,1,0,0,120.0,64,100,80
4469.0,63,0.5,74.08,1,0,0,120.0,64,100,80
4469.5,66,0.25,74.08,1,0,0,120.0,64,100,80
4469.75,70,2.0,74.08,1,0,0,120.0,64,100,80
4471.75,59,1.0,74.08,1,0,0,120.0,64,100,80
4472.75,68,2.0,74.08,1,0,0,120.0,64,100,80
4474.75,68,2.0,74.08,1,0,0,120.0,64,100,80
4476.75,61,0.5,74.08,1,0,0,120.0,64,100,80
4477.25,64,1.0,31.75,50,9,0,120.0,64,100,80
4478.25,64,1.0,31.75,1,0,0,120.0,64,100,80
4479.25,59,1.0,31.75,1,0,0,120.0,64,100,80
4480.25,63,0.5,31.75,1,0,0,120.0,64,100,80
4480.75,64,1.0,31.75,1,0,0,120.0,64,100,80
4481.75,66,0.25,31.75,1,0,0,120.0,64,100,80
4482.0,59,1.0,31.75,1,0,0,120.0,64,100,80
4483.0,68,2.0,31.75,1,0,0,120.0,64,100,80
4485.0,61,0.5,31.75,1,0,0,120.0,64,100,80
4485.5,63,0.5,31.75,1,0,0,120.0,64,100,80
4486.0,66,0.25,31.75,1,0,0,120.0,64,100,80
4486.25,64,1.0,31.75,1,0,0,120.0,64,100,80
4487.25,61,0.5,74.08,1,0,0,120.0,64,100,80
4487.75,63,0.5,74.08,1,0,0,120.0,64,100,80
4488.25,70,2.0,74.08,51,9,0,120.0,64,100,80
4490.25,66,0.25,74.08,1,0,0,120.0,64,100,80
4490.5,61,0.5,74.08,1,0,0,120.0,64,100,80
4491.0,63,0.5,74.08,1,0,0,120.0,64,100,80
4491.5,64,1.0,74.08,50,9,0,120.0,64,100,80
4492.5,59,1.0,74.08,1,0,0,120.0,64,100,80
4493.5,59,1.0,74.08,1,0,0,120.0,64,100,80
4494.5,59,1.0,74.08,1,0,0,144.9,64,100,80
4495.5,68,2.0,74.08,50,9,0,126.0,64,100,80
4497.5,68,2.0,74.08,1,0,0,126.0,64,100,80
4499.5,59,1.0,63.5,1,0,0,126.0,64,100,80
4500.5,59,1.0,63.5,1,0,0,152.14499999999998,64,100,80
4501.5,66,0.25,63.5,1,0,0,132.3,64,100,80
4501.75,59,1.0,63.5,1,0,0,132.3,64,100,80
4502.75,68,2.0,63.5,1,0,0,132.3,64,100,80
4504.75,63,0.5,63.5,49,9,0,132.3,64,100,80
4505.25,64,1.0,63.5,49,9,0,132.3,64,100,80
4506.25,59,1.0,63.5,1,0,0,132.3,64,100,80
4507.25,0,1.0,63.5,49,9,0,120.0,64,100,80
4508.25,64,0.5,63.5,1,0,0,120.0,64,100,80
4508.75,69,2.0,63.5,50,9,0,120.0,64,100,80
4510.75,67,0.25,63.5,1,0,0,120.0,64,100,80
4511.0,62,0.5,84.66,1,0,0,120.0,64,100,80
4511.5,62,0.5,84.66,1,0,0,120.0,64,100,80
4512.0,64,0.5,84.66,1,0,0,120.0,64,100,80
4512.5,64,0.5,84.66,1,0,0,144.9,64,100,80
4513.0,69,2.0,84.66,1,0,0,126.0,64,100,80
4515.0,64,1.0,84.66,50,9,0,126.0,64,100,80
4516.0,61,0.5,84.66,1,0,0,126.0,64,100,80
4516.5,63,0.5,84.66,1,0,0,126.0,64,100,80
4517.0,70,2.0,84.66,1,0,0,126.0,64,100,80
4519.0,68,2.0,84.66,51,9,0,126.0,64,100,80
4521.0,66,0.25,84.66,1,0,0,126.0,64,100,80
4521.25,63,0.5,84.66,1,0,0,126.0,64,100,80
4521.75,61,0.5,31.75,1,0,0,126.0,64,100,80
4522.25,66,0.25,31.75,1,0,0,126.0,64,100,80
4522.5,59,1.0,31.75,1,0,0,126.0,64,100,80
4523.5,70,2.0,31.75,1,0,0,126.0,64,100,80
4525.5,63,0.5,31.75,1,0,0,126.0,64,100,80
4526.0,70,2.0,31.75,1,0,0,126.0,64,100,80
4528.0,59,1.0,31.75,1,0,0,126.0,64,100,80
4529.0,64,1.0,31.75,50,9,0,126.0,64,100,80
4530.0,64,1.0,31.75,1,0,0,126.0,64,100,80
4531.0,59,1.0,31.75,1,0,0,126.0,64,100,80
4532.0,61,0.5,31.75,1,0,0,126.0,64,100,80
4532.5,61,0.5,31.75,1,0,0,152.14499999999998,64,100,80
4533.0,61,0.5,63.5,1,0,0,319.5045,64,100,80
4533.5,59,1.0,63.5,1,0,0,138.91500000000002,64,100,80
4534.5,63,0.5,63.5,1,0,0,138.91500000000002,64,100,80
4535.0,70,2.0,63.5,51,9,0,138.91500000000002,64,100,80
4537.0,61,0.5,63.5,1,0,0,138.91500000000002,64,100,80
4537.5,59,1.0,63.5,1,0,0,138.91500000000002,64,100,80
4538.5,70,2.0,63.5,51,9,0,138.91500000000002,64,100,80
4540.5,61,0.5,63.5,1,0,0,138.91500000000002,64,100,80
4541.0,63,0.5,63.5,1,0,0,138.91500000000002,64,100,80
4541.5,59,1.0,63.5,1,0,0,138.91500000000002,64,100,80
4542.5,68,2.0,63.5,1,0,0,138.91500000000002,64,100,80
4544.5,63,0.5,63.5,1,0,0,138.91500000000002,64,100,80
4545.0,59,1.0,84.66,1,0,0,138.91500000000002,64,100,80
4546.0,59,1.0,84.66,1,0,0,138.91500000000002,64,100,80
4547.0,59,1.0,84.66,1,0,0,138.91500000000002,64,100,80
4548.0,61,0.5,84.66,1,0,0,138.91500000000002,64,100,80
4548.5,66,0.25,84.66,50,9,0,138.91500000000002,64,100,80
4548.75,68,2.0,84.66,1,0,0,138.91500000000002,64,100,80
4550.75,61,0.5,84.66,1,0,0,138.91500000000002,64,100,80
4551.25,59,1.0,84.66,1,0,0,138.91500000000002,64,100,80
4552.25,59,1.0,84.66,1,0,0,167.73986250000002,64,100,80
4553.25,68,2.0,84.66,1,0,0,145.86075000000002,64,100,80
4555.25,59,1.0,84.66,1,0,0,145.86075000000002,64,100,80
4556.25,66,0.25,84.66,1,0,0,145.86075000000002,64,100,80
4556.5,68,2.0,74.08,1,0,0,145.86075000000002,64,100,80
4558.5,59,1.0,74.08,1,0,0,145.86075000000002,64,100,80
4559.5,68,2.0,74.08,1,0,0,145.86075000000002,64,100,80
4561.5,61,0.5,74.08,1,0,0,145.86075000000002,64,100,80
4562.0,63,0.5,74.08,1,0,0,145.86075000000002,64,100,80
4562.5,59,1.0,74.08,1,0,0,145.86075000000002,64,100,80
4563.5,63,0.5,74.08,1,0,0,145.86075000000002,64,100,80
4564.0,59,1.0,74.08,1,0,0,145.86075000000002,64,100,80
4565.0,59,1.0,74.08,1,0,0,145.86075000000002,64,100,80
4566.0,59,1.0,74.08,1,0,0,176.12685562500005,64,100,80
4567.0,59,1.0,74.08,1,0,0,153.15378750000005,64,100,80
4568.0,59,1.0,74.08,1,0,0,153.15378750000005,64,100,80
4569.0,61,0.5,52.91,1,0,0,153.15378750000005,64,100,80
4569.5,66,0.25,52.91,1,0,0,153.15378750000005,64,100,80
4569.75,59,1.0,52.91,1,0,0,153.15378750000005,64,100,80
4570.75,61,0.5,52.91,1,0,0,153.15378750000005,64,100,80
4571.25,66,0.25,52.91,1,0,0,153.15378750000005,64,100,80
4571.5,59,1.0,52.91,1,0,0,153.15378750000005,64,100,80
4572.5,64,1.0,52.91,50,9,0,153.15378750000005,64,100,80
4573.5,59,1.0,52.91,1,0,0,153.15378750000005,64,100,80
4574.5,59,1.0,52.91,1,0,0,184.93319840625003,64,100,80
4575.5,63,0.5,52.91,1,0,0,160.81147687500004,64,100,80
4576.0,61,0.5,52.91,1,0,0,160.81147687500004,64,100,80
4576.5,63,0.5,52.91,1,0,0,160.81147687500004,64,100,80
4577.0,63,0.5,63.5,49,9,0,194.17985832656254,64,100,80
4577.5,63,0.5,63.5,1,0,0,168.85205071875006,64,100,80
4578.0,66,0.25,63.5,1,0,0,168.85205071875006,64,100,80
4578.25,0,1.0,63.5,49,9,0,120.0,64,100,80
4579.25,69,2.0,63.5,1,0,0,120.0,64,100,80
4581.25,62,0.5,63.5,1,0,0,120.0,64,100,80
4581.75,60,1.0,63.5,1,0,0,120.0,64,100,80
4582.75,60,1.0,63.5,1,0,0,144.9,64,100,80
4583.75,65,1.0,63.5,1,0,0,126.0,64,100,80
4584.75,69,2.0,63.5,1,0,0,126.0,64,100,80
4586.75,64,0.5,63.5,1,0,0,126.0,64,100,80
4587.25,62,0.5,63.5,1,0,0,126.0,64,100,80
4587.75,69,2.0,74.08,1,0,0,126.0,64,100,80
4589.75,64,0.5,74.08,1,0,0,126.0,64,100,80
4590.25,60,1.0,74.08,1,0,0,126.0,64,100,80
4591.25,71,2.0,74.08,1,0,0,126.0,64,100,80
4593.25,0,1.0,74.08,49,9,0,120.0,64,100,80
4594.25,60,1.0,74.08,1,0,0,120.0,64,100,80
4595.25,64,0.5,74.08,1,0,0,120.0,64,100,80
4595.75,71,2.0,74.08,1,0,0,120.0,64,100,80
4597.75,69,2.0,74.08,1,0,0,120.0,64,100,80
4599.75,64,0.5,74.08,1,0,0,120.0,64,100,80
4600.25,60,1.0,74.08,1,0,0,120.0,64,100,80
4601.25,64,1.0,74.08,50,9,0,120.0,64,100,80
4602.25,59,1.0,52.91,1,0,0,120.0,64,100,80
4603.25,66,0.25,52.91,1,0,0,120.0,64,100,80
4603.5,59,1.0,52.91,1,0,0,120.0,64,100,80
4604.5,61,0.5,52.91,1,0,0,120.0,64,100,80
4605.0,59,1.0,52.91,1,0,0,120.0,64,100,80
4606.0,63,0.5,52.91,49,9,0,120.0,64,100,80
4606.5,59,1.0,52.91,1,0,0,120.0,64,100,80
4607.5,61,0.5,52.91,1,0,0,120.0,64,100,80
4608.0,59,1.0,52.91,1,0,0,120.0,64,100,80
4609.0,61,0.5,52.91,1,0,0,120.0,64,100,80
4609.5,63,0.5,52.91,1,0,0,120.0,64,100,80
4610.0,59,1.0,52.91,1,0,0,120.0,64,100,80
4611.0,64,1.0,42.33,1,0,0,120.0,64,100,80
4612.0,59,1.0,42.33,1,0,0,120.0,64,100,80
4613.0,68,2.0,42.33,1,0,0,120.0,64,100,80
4615.0,59,1.0,42.33,1,0,0,120.0,64,100,80
4616.0,59,1.0,42.33,1,0,0,120.0,64,100,80
4617.0,63,0.5,42.33,1,0,0,120.0,64,100,80
4617.5,59,1.0,42.33,1,0,0,120.0,64,100,80
4618.5,59,1.0,42.33,1,0,0,144.9,64,100,80
4619.5,68,2.0,42.33,1,0,0,126.0,64,100,80
4621.5,63,0.5,42.33,1,0,0,126.0,64,100,80
4622.0,0,1.0,42.33,49,9,0,120.0,64,100,80
4623.0,69,2.0,42.33,1,0,0,120.0,64,100,80
4625.0,60,1.0,63.5,1,0,0,120.0,64,100,80
4626.0,62,0.5,63.5,1,0,0,120.0,64,100,80
4626.5,67,0.25,63.5,1,0,0,120.0,64,100,80
4626.75,60,1.0,63.5,1,0,0,120.0,64,100,80
4627.75,60,1.0,63.5,1,0,0,120.0,64,100,80
4628.75,64,0.5,63.5,1,0,0,120.0,64,100,80
4629.25,60,1.0,63.5,1,0,0,120.0,64,100,80
4630.25,62,0.5,63.5,1,0,0,120.0,64,100,80
4630.75,69,2.0,63.5,1,0,0,120.0,64,100,80
4632.75,69,2.0,63.5,1,0,0,144.9,64,100,80
4634.75,60,1.0,63.5,1,0,0,126.0,64,100,80
4635.75,71,2.0,63.5,1,0,0,126.0,64,100,80
4637.75,67,0.25,74.08,1,0,0,126.0,64,100,80
4638.0,69,2.0,74.08,1,0,0,126.0,64,100,80
4640.0,60,1.0,74.08,1,0,0,126.0,64,100,80
4641.0,64,0.5,74.08,1,0,0,126.0,64,100,80
4641.5,60,1.0,74.08,1,0,0,126.0,64,100,80
4642.5,60,1.0,74.08,1,0,0,152.14499999999998,64,100,80
4643.5,71,2.0,74.08,1,0,0,132.3,64,100,80
4645.5,69,2.0,74.08,1,0,0,132.3,64,100,80
4647.5,64,0.5,74.08,49,9,0,132.3,64,100,80
4648.0,67,0.25,74.08,1,0,0,132.3,64,100,80
4648.25,60,1.0,74.08,1,0,0,132.3,64,100,80
4649.25,67,0.25,74.08,1,0,0,132.3,64,100,80
4649.5,69,2.0,74.08,1,0,0,132.3,64,100,80
4651.5,60,1.0,74.08,1,0,0,132.3,64,100,80
4652.5,60,1.0,74.08,1,0,0,159.75225,64,100,80
4653.5,62,0.5,74.08,1,0,0,138.91500000000002,64,100,80
4654.0,64,0.5,74.08,1,0,0,138.91500000000002,64,100,80
4654.5,62,0.5,74.08,1,0,0,138.91500000000002,64,100,80
4655.0,65,1.0,74.08,49,9,0,138.91500000000002,64,100,80
4656.0,64,1.0,74.08,50,9,0,138.91500000000002,64,100,80
4657.0,61,0.5,74.08,1,0,0,138.91500000000002,64,100,80
4657.5,63,0.5,74.08,50,9,0,138.91500000000002,64,100,80
4658.0,61,0.5,74.08,1,0,0,138.91500000000002,64,100,80
4658.5,61,0.5,74.08,1,0,0,167.73986250000002,64,100,80
4659.0,59,1.0,63.5,1,0,0,145.86075000000002,64,100,80
4660.0,64,1.0,63.5,1,0,0,145.86075000000002,64,100,80
4661.0,59,1.0,63.5,1,0,0,145.86075000000002,64,100,80
4662.0,68,2.0,63.5,1,0,0,145.86075000000002,64,100,80
4664.0,63,0.5,63.5,1,0,0,145.86075000000002,64,100,80
4664.5,63,0.5,63.5,1,0,0,176.12685562500005,64,100,80
4665.0,68,2.0,63.5,1,0,0,153.15378750000005,64,100,80
4667.0,61,0.5,63.5,1,0,0,153.15378750000005,64,100,80
4667.5,63,0.5,63.5,49,9,0,153.15378750000005,64,100,80
4668.0,63,0.5,63.5,1,0,0,153.15378750000005,64,100,80
4668.5,61,0.5,63.5,50,9,0,153.15378750000005,64,100,80
4669.0,61,0.5,63.5,1,0,0,153.15378750000005,64,100,80
4669.5,63,0.5,74.08,1,0,0,153.15378750000005,64,100,80
4670.0,61,0.5,74.08,1,0,0,153.15378750000005,64,100,80
4670.5,61,0.5,74.08,1,0,0,153.15378750000005,64,100,80
4671.0,59,1.0,74.08,1,0,0,153.15378750000005,64,100,80
4672.0,64,1.0,74.08,50,9,0,153.15378750000005,64,100,80
4673.0,59,1.0,74.08,1,0,0,153.15378750000005,64,100,80
4674.0,59,1.0,74.08,1,0,0,153.15378750000005,64,100,80
4675.0,64,1.0,74.08,49,9,0,153.15378750000005,64,100,80
4676.0,64,1.0,74.08,49,9,0,184.93319840625003,64,100,80
4677.0,63,0.5,74.08,1,0,0,160.81147687500004,64,100,80
4677.5,59,1.0,74.08,1,0,0,160.81147687500004,64,100,80
4678.5,61,0.5,74.08,1,0,0,160.81147687500004,64,100,80
4679.0,64,1.0,63.5,50,9,0,160.81147687500004,64,100,80
4680.0,59,1.0,63.5,1,0,0,160.81147687500004,64,100,80
4681.0,59,1.0,63.5,1,0,0,160.81147687500004,64,100,80
4682.0,70,2.0,63.5,39,9,0,160.81147687500004,64,100,80
4684.0,59,1.0,63.5,1,0,0,160.81147687500004,64,100,80
4685.0,59,1.0,63.5,1,0,0,160.81147687500004,64,100,80
4686.0,61,0.5,63.5,1,0,0,160.81147687500004,64,100,80
4686.5,63,0.5,63.5,49,9,0,160.81147687500004,64,100,80
4687.0,61,0.5,63.5,1,0,0,160.81147687500004,64,100,80
4687.5,61,0.5,63.5,50,9,0,160.81147687500004,64,100,80
4688.0,66,0.25,63.5,1,0,0,160.81147687500004,64,100,80
4688.25,61,0.5,63.5,1,0,0,160.81147687500004,64,100,80
4688.75,63,0.5,95.25,1,0,0,160.81147687500004,64,100,80
4689.25,61,0.5,95.25,1,0,0,160.81147687500004,64,100,80
4689.75,59,1.0,95.25,1,0,0,160.81147687500004,64,100,80
4690.75,59,1.0,95.25,1,0,0,194.17985832656254,64,100,80
4691.75,61,0.5,95.25,1,0,0,168.85205071875006,64,100,80
4692.25,61,0.5,95.25,1,0,0,203.8888512428907,64,100,80
4692.75,59,1.0,95.25,1,0,0,177.29465325468757,64,100,80
4693.75,66,0.25,95.25,1,0,0,177.29465325468757,64,100,80
4694.0,59,1.0,95.25,49,9,0,177.29465325468757,64,100,80
4695.0,61,0.5,95.25,1,0,0,177.29465325468757,64,100,80
4695.5,63,0.5,95.25,1,0,0,177.29465325468757,64,100,80
4696.0,63,0.5,95.25,1,0,0,177.29465325468757,64,100,80
4696.5,64,1.0,63.5,50,9,0,177.29465325468757,64,100,80
4697.5,66,0.25,63.5,1,0,0,177.29465325468757,64,100,80
4697.75,66,0.25,63.5,1,0,0,177.29465325468757,64,100,80
4698.0,66,0.25,63.5,1,0,0,177.29465325468757,64,100,80
4698.25,63,0.5,63.5,1,0,0,177.29465325468757,64,100,80
4698.75,59,1.0,63.5,1,0,0,177.29465325468757,64,100,80
4699.75,59,1.0,63.5,1,0,0,214.08329380503523,64,100,80
4700.75,61,0.5,63.5,1,0,0,186.15938591742196,64,100,80
4701.25,63,0.5,63.5,49,9,0,186.15938591742196,64,100,80
4701.75,64,1.0,63.5,1,0,0,186.15938591742196,64,100,80
4702.75,68,2.0,63.5,1,0,0,186.15938591742196,64,100,80
4704.75,68,2.0,63.5,1,0,0,224.78745849528698,64,100,80
4706.75,70,2.0,84.66,1,0,0,195.46735521329305,64,100,80
4708.75,59,1.0,84.66,1,0,0,195.46735521329305,64,100,80
4709.75,68,2.0,84.66,1,0,0,195.46735521329305,64,100,80
4711.75,64,1.0,84.66,1,0,0,195.46735521329305,64,100,80
4712.75,63,0.5,84.66,1,0,0,195.46735521329305,64,100,80
4713.25,68,2.0,84.66,1,0,0,195.46735521329305,64,100,80
4715.25,61,0.5,84.66,1,0,0,195.46735521329305,64,100,80
4715.75,61,0.5,84.66,1,0,0,195.46735521329305,64,100,80
4716.25,68,2.0,84.66,1,0,0,195.46735521329305,64,100,80
4718.25,68,2.0,84.66,1,0,0,236.02683142005134,64,100,80
4720.25,66,0.25,84.66,1,0,0,205.2407229739577,64,100,80
4720.5,66,0.25,84.66,1,0,0,247.82817299105392,64,100,80
4720.75,63,0.5,31.75,1,0,0,215.50275912265562,64,100,80
4721.25,63,0.5,31.75,1,0,0,260.21958164060663,64,100,80
4721.75,64,1.0,31.75,1,0,0,226.27789707878838,64,100,80
4722.75,70,2.0,31.75,1,0,0,226.27789707878838,64,100,80
4724.75,63,0.5,31.75,1,0,0,226.27789707878838,64,100,80
4725.25,63,0.5,31.75,1,0,0,226.27789707878838,64,100,80
4725.75,59,1.0,31.75,1,0,0,226.27789707878838,64,100,80
4726.75,64,1.0,31.75,1,0,0,226.27789707878838,64,100,80
4727.75,68,2.0,31.75,1,0,0,226.27789707878838,64,100,80
4729.75,70,2.0,31.75,1,0,0,226.27789707878838,64,100,80
4731.75,63,0.5,31.75,49,9,0,226.27789707878838,64,100,80
4732.25,64,1.0,31.75,1,0,0,226.27789707878838,64,100,80
4733.25,59,1.0,63.5,1,0,0,226.27789707878838,64,100,80
4734.25,66,0.25,63.5,1,0,0,226.27789707878838,64,100,80
4734.5,59,1.0,63.5,1,0,0,226.27789707878838,64,100,80
4735.5,70,2.0,63.5,1,0,0,226.27789707878838,64,100,80
4737.5,63,0.5,63.5,1,0,0,226.27789707878838,64,100,80
4738.0,70,2.0,63.5,1,0,0,226.27789707878838,64,100,80
4740.0,59,1.0,63.5,1,0,0,226.27789707878838,64,100,80
4741.0,61,0.5,63.5,1,0,0,226.27789707878838,64,100,80
4741.5,63,0.5,63.5,1,0,0,226.27789707878838,64,100,80
4742.0,66,0.25,63.5,1,0,0,226.27789707878838,64,100,80
4742.25,70,2.0,63.5,1,0,0,226.27789707878838,64,100,80
4744.25,59,1.0,63.5,1,0,0,226.27789707878838,64,100,80
4745.25,61,0.5,74.08,1,0,0,226.27789707878838,64,100,80
4745.75,64,1.0,74.08,1,0,0,226.27789707878838,64,100,80
4746.75,59,1.0,74.08,1,0,0,226.27789707878838,64,100,80
4747.75,63,0.5,74.08,49,9,0,226.27789707878838,64,100,80
4748.25,63,0.5,74.08,1,0,0,273.230560722637,64,100,80
4748.75,66,0.25,74.08,1,0,0,237.59179193272783,64,100,80
4749.0,61,0.5,74.08,1,0,0,237.59179193272783,64,100,80
4749.5,59,1.0,74.08,1,0,0,237.59179193272783,64,100,80
4750.5,59,1.0,74.08,1,0,0,286.89208875876886,64,100,80
4751.5,68,2.0,74.08,1,0,0,249.47138152936424,64,100,80
4753.5,59,1.0,74.08,1,0,0,249.47138152936424,64,100,80
4754.5,68,2.0,74.08,1,0,0,249.47138152936424,64,100,80
4756.5,64,1.0,95.25,50,9,0,249.47138152936424,64,100,80
4757.5,63,0.5,95.25,1,0,0,249.47138152936424,64,100,80
4758.0,59,1.0,95.25,1,0,0,249.47138152936424,64,100,80
4759.0,66,0.25,95.25,1,0,0,249.47138152936424,64,100,80
4759.25,64,1.0,95.25,1,0,0,249.47138152936424,64,100,80
4760.25,63,0.5,95.25,49,9,0,249.47138152936424,64,100,80
4760.75,64,1.0,95.25,1,0,0,249.47138152936424,64,100,80
4761.75,66,0.25,95.25,1,0,0,249.47138152936424,64,100,80
4762.0,61,0.5,95.25,1,0,0,249.47138152936424,64,100,80
4762.5,64,1.0,95.25,1,0,0,249.47138152936424,64,100,80
4763.5,61,0.5,95.25,1,0,0,249.47138152936424,64,100,80
4764.0,59,1.0,95.25,1,0,0,249.47138152936424,64,100,80
4765.0,59,1.0,74.08,1,0,0,249.47138152936424,64,100,80
4766.0,59,1.0,74.08,51,9,0,249.47138152936424,64,100,80
4767.0,64,1.0,74.08,50,9,0,249.47138152936424,64,100,80
4768.0,63,0.5,74.08,1,0,0,249.47138152936424,64,100,80
4768.5,59,1.0,74.08,1,0,0,249.47138152936424,64,100,80
4769.5,70,2.0,74.08,1,0,0,249.47138152936424,64,100,80
4771.5,64,1.0,74.08,1,0,0,249.47138152936424,64,100,80
4772.5,66,0.25,74.08,1,0,0,249.47138152936424,64,100,80
4772.75,64,1.0,74.08,50,9,0,249.47138152936424,64,100,80
4773.75,68,2.0,74.08,1,0,0,249.47138152936424,64,100,80
4775.75,59,1.0,74.08,1,0,0,249.47138152936424,64,100,80
4776.75,59,1.0,74.08,1,0,0,301.23669319670734,64,100,80
4777.75,70,2.0,84.66,1,0,0,261.9449506058325,64,100,80
4779.75,64,1.0,84.66,1,0,0,261.9449506058325,64,100,80
4780.75,68,2.0,84.66,1,0,0,261.9449506058325,64,100,80
4782.75,66,0.25,84.66,1,0,0,261.9449506058325,64,100,80
4783.0,68,2.0,84.66,1,0,0,261.9449506058325,64,100,80
4785.0,59,1.0,84.66,1,0,0,261.9449506058325,64,100,80
4786.0,61,0.5,84.66,1,0,0,261.9449506058325,64,100,80
4786.5,70,2.0,84.66,1,0,0,261.9449506058325,64,100,80
4788.5,61,0.5,84.66,1,0,0,261.9449506058325,64,100,80
4789.0,66,0.25,84.66,1,0,0,261.9449506058325,64,100,80
4789.25,59,1.0,84.66,1,0,0,261.9449506058325,64,100,80
4790.25,68,2.0,84.66,1,0,0,261.9449506058325,64,100,80
4792.25,68,2.0,74.08,1,0,0,261.9449506058325,64,100,80
4794.25,70,2.0,74.08,1,0,0,261.9449506058325,64,100,80
4796.25,63,0.5,74.08,1,0,0,261.9449506058325,64,100,80
4796.75,61,0.5,74.08,39,9,0,261.9449506058325,64,100,80
4797.25,59,1.0,74.08,1,0,0,261.9449506058325,64,100,80
4798.25,63,0.5,74.08,49,9,0,261.9449506058325,64,100,80
4798.75,59,1.0,74.08,1,0,0,261.9449506058325,64,100,80
4799.75,59,1.0,74.08,1,0,0,261.9449506058325,64,100,80
4800.75,70,2.0,74.08,1,0,0,261.9449506058325,64,100,80
4802.75,70,2.0,74.08,1,0,0,261.9449506058325,64,100,80
4804.75,66,0.25,74.08,1,0,0,261.9449506058325,64,100,80
4805.0,63,0.5,74.08,1,0,0,261.9449506058325,64,100,80
4805.5,64,1.0,63.5,49,9,0,261.9449506058325,64,100,80
4806.5,63,0.5,63.5,49,9,0,261.9449506058325,64,100,80
4807.0,61,0.5,63.5,1,0,0,261.9449506058325,64,100,80
4807.5,59,1.0,63.5,50,9,0,261.9449506058325,64,100,80
4808.5,61,0.5,63.5,1,0,0,261.9449506058325,64,100,80
4809.0,59,1.0,63.5,1,0,0,261.9449506058325,64,100,80
4810.0,64,1.0,63.5,50,9,0,261.9449506058325,64,100,80
4811.0,68,2.0,63.5,1,0,0,261.9449506058325,64,100,80
4813.0,68,2.0,63.5,49,9,0,261.9449506058325,64,100,80
4815.0,61,0.5,63.5,1,0,0,261.9449506058325,64,100,80
4815.5,63,0.5,63.5,50,9,0,261.9449506058325,64,100,80
4816.0,59,1.0,63.5,51,9,0,261.9449506058325,64,100,80
4817.0,59,1.0,63.5,1,0,0,261.9449506058325,64,100,80
4818.0,59,1.0,63.5,51,9,0,261.9449506058325,64,100,80
4819.0,66,0.25,63.5,50,9,0,261.9449506058325,64,100,80
4819.25,68,2.0,63.5,1,0,0,261.9449506058325,64,100,80
4821.25,68,2.0,63.5,1,0,0,261.9449506058325,64,100,80
4823.25,63,0.5,63.5,1,0,0,261.9449506058325,64,100,80
4823.75,64,1.0,63.5,1,0,0,261.9449506058325,64,100,80
4824.75,63,0.5,63.5,1,0,0,261.9449506058325,64,100,80
4825.25,64,1.0,63.5,51,9,0,261.9449506058325,64,100,80
4826.25,66,0.25,63.5,49,9,0,261.9449506058325,64,100,80
4826.5,63,0.5,63.5,1,0,0,261.9449506058325,64,100,80
4827.0,68,2.0,63.5,1,0,0,261.9449506058325,64,100,80
4829.0,63,0.5,63.5,1,0,0,261.9449506058325,64,100,80
4829.5,59,1.0,63.5,1,0,0,261.9449506058325,64,100,80
4830.5,64,1.0,63.5,49,9,0,261.9449506058325,64,100,80
4831.5,63,0.5,63.5,50,9,0,261.9449506058325,64,100,80
4832.0,59,1.0,63.5,1,0,0,261.9449506058325,64,100,80
4833.0,68,2.0,63.5,1,0,0,261.9449506058325,64,100,80
4835.0,64,1.0,63.5,1,0,0,261.9449506058325,64,100,80
4836.0,59,1.0,63.5,49,9,0,261.9449506058325,64,100,80
4837.0,63,0.5,63.5,1,0,0,261.9449506058325,64,100,80
4837.5,59,1.0,63.5,51,9,0,261.9449506058325,64,100,80
4838.5,59,1.0,63.5,1,0,0,261.9449506058325,64,100,80
4839.5,59,1.0,63.5,1,0,0,261.9449506058325,64,100,80
4840.5,61,0.5,52.91,1,0,0,261.9449506058325,64,100,80
4841.0,64,1.0,52.91,1,0,0,261.9449506058325,64,100,80
4842.0,63,0.5,52.91,49,9,0,261.9449506058325,64,100,80
4842.5,61,0.5,52.91,1,0,0,261.9449506058325,64,100,80
4843.0,59,1.0,52.91,1,0,0,261.9449506058325,64,100,80
4844.0,66,0.25,52.91,1,0,0,261.9449506058325,64,100,80
4844.25,59,1.0,52.91,1,0,0,261.9449506058325,64,100,80
4845.25,59,1.0,52.91,1,0,0,261.9449506058325,64,100,80
4846.25,66,0.25,52.91,1,0,0,261.9449506058325,64,100,80
4846.5,70,2.0,52.91,1,0,0,261.9449506058325,64,100,80
4848.5,70,2.0,52.91,1,0,0,261.9449506058325,64,100,80
4850.5,64,1.0,52.91,50,9,0,261.9449506058325,64,100,80
4851.5,59,1.0,63.5,1,0,0,261.9449506058325,64,100,80
4852.5,64,1.0,63.5,1,0,0,261.9449506058325,64,100,80
4853.5,66,0.25,63.5,1,0,0,261.9449506058325,64,100,80
4853.75,64,1.0,63.5,1,0,0,261.9449506058325,64,100,80
4854.75,59,1.0,63.5,1,0,0,261.9449506058325,64,100,80
4855.75,64,1.0,63.5,50,9,0,261.9449506058325,64,100,80
4856.75,68,2.0,63.5,1,0,0,261.9449506058325,64,100,80
4858.75,59,1.0,63.5,1,0,0,261.9449506058325,64,100,80
4859.75,64,1.0,63.5,1,0,0,261.9449506058325,64,100,80
4860.75,66,0.25,63.5,1,0,0,261.9449506058325,64,100,80
4861.0,68,2.0,63.5,1,0,0,261.9449506058325,64,100,80
4863.0,59,1.0,63.5,1,0,0,261.9449506058325,64,100,80
4864.0,59,1.0,42.33,1,0,0,261.9449506058325,64,100,80
4865.0,59,1.0,42.33,1,0,0,261.9449506058325,64,100,80
4866.0,59,1.0,42.33,1,0,0,261.9449506058325,64,100,80
4867.0,64,1.0,42.33,50,9,0,261.9449506058325,64,100,80
4868.0,66,0.25,42.33,1,0,0,261.9449506058325,64,100,80
4868.25,64,1.0,42.33,1,0,0,261.9449506058325,64,100,80
4869.25,64,1.0,42.33,1,0,0,316.2985278565427,64,100,80
4870.25,70,2.0,42.33,1,0,0,275.0421981361241,64,100,80
4872.25,61,0.5,42.33,1,0,0,275.0421981361241,64,100,80
4872.75,63,0.5,42.33,1,0,0,275.0421981361241,64,100,80
4873.25,63,0.5,42.33,1,0,0,275.0421981361241,64,100,80
4873.75,68,2.0,42.33,49,9,0,275.0421981361241,64,100,80
4875.75,64,1.0,42.33,1,0,0,275.0421981361241,64,100,80
4876.75,68,2.0,42.33,1,0,0,275.0421981361241,64,100,80
4878.75,68,2.0,42.33,50,9,0,332.11345424936985,64,100,80
4880.75,59,1.0,42.33,1,0,0,288.7943080429303,64,100,80
4881.75,61,0.5,42.33,1,0,0,288.7943080429303,64,100,80
4882.25,68,2.0,42.33,1,0,0,288.7943080429303,64,100,80
4884.25,66,0.25,42.33,49,9,0,288.7943080429303,64,100,80
4884.5,66,0.25,42.33,1,0,0,288.7943080429303,64,100,80
4884.75,68,2.0,42.33,1,0,0,288.7943080429303,64,100,80
4886.75,63,0.5,42.33,50,9,0,288.7943080429303,64,100,80
4887.25,68,2.0,42.33,1,0,0,288.7943080429303,64,100,80
4889.25,64,1.0,42.33,49,9,0,288.7943080429303,64,100,80
4890.25,63,0.5,42.33,1,0,0,288.7943080429303,64,100,80
4890.75,68,2.0,42.33,1,0,0,288.7943080429303,64,100,80
4892.75,68,2.0,42.33,1,0,0,288.7943080429303,64,100,80
4894.75,61,0.5,42.33,1,0,0,288.7943080429303,64,100,80
4895.25,68,2.0,42.33,1,0,0,288.7943080429303,64,100,80
4897.25,61,0.5,42.33,1,0,0,288.7943080429303,64,100,80
4897.75,68,2.0,42.33,1,0,0,288.7943080429303,64,100,80
4899.75,59,1.0,42.33,1,0,0,288.7943080429303,64,100,80
4900.75,59,1.0,42.33,1,0,0,288.7943080429303,64,100,80
4901.75,70,2.0,42.33,1,0,0,288.7943080429303,64,100,80
4903.75,59,1.0,42.33,49,9,0,288.7943080429303,64,100,80
4904.75,63,0.5,42.33,1,0,0,288.7943080429303,64,100,80
4905.25,68,2.0,21.16,1,0,0,288.7943080429303,64,100,80
4907.25,68,2.0,21.16,1,0,0,288.7943080429303,64,100,80
4909.25,66,0.25,21.16,1,0,0,288.7943080429303,64,100,80
4909.5,59,1.0,21.16,1,0,0,288.7943080429303,64,100,80
4910.5,64,1.0,21.16,1,0,0,288.7943080429303,64,100,80
4911.5,68,2.0,21.16,1,0,0,288.7943080429303,64,100,80
4913.5,64,1.0,21.16,1,0,0,288.7943080429303,64,100,80
4914.5,63,0.5,21.16,49,9,0,288.7943080429303,64,100,80
4915.0,61,0.5,21.16,1,0,0,288.7943080429303,64,100,80
4915.5,61,0.5,21.16,1,0,0,348.71912696183836,64,100,80
4916.0,63,0.5,21.16,1,0,0,303.23402344507684,64,100,80
4916.5,59,1.0,21.16,1,0,0,303.23402344507684,64,100,80
4917.5,64,1.0,52.91,49,9,0,303.23402344507684,64,100,80
4918.5,63,0.5,52.91,1,0,0,303.23402344507684,64,100,80
4919.0,63,0.5,52.91,1,0,0,303.23402344507684,64,100,80
4919.5,68,2.0,52.91,1,0,0,303.23402344507684,64,100,80
4921.5,63,0.5,52.91,1,0,0,303.23402344507684,64,100,80
4922.0,61,0.5,52.91,1,0,0,303.23402344507684,64,100,80
4922.5,63,0.5,52.91,1,0,0,303.23402344507684,64,100,80
4923.0,70,2.0,52.91,1,0,0,303.23402344507684,64,100,80
4925.0,66,0.25,52.91,1,0,0,303.23402344507684,64,100,80
4925.25,68,2.0,52.91,49,9,0,303.23402344507684,64,100,80
4927.25,64,1.0,52.91,1,0,0,303.23402344507684,64,100,80
4928.25,68,2.0,52.91,1,0,0,303.23402344507684,64,100,80
4930.25,63,0.5,52.91,1,0,0,303.23402344507684,64,100,80
4930.75,68,2.0,52.91,1,0,0,303.23402344507684,64,100,80
4932.75,66,0.25,52.91,1,0,0,303.23402344507684,64,100,80
4933.0,59,1.0,52.91,1,0,0,303.23402344507684,64,100,80
4934.0,59,1.0,52.91,51,9,0,303.23402344507684,64,100,80
4935.0,66,0.25,52.91,50,9,0,303.23402344507684,64,100,80
4935.25,68,2.0,52.91,1,0,0,303.23402344507684,64,100,80
4937.25,61,0.5,52.91,1,0,0,303.23402344507684,64,100,80
4937.75,68,2.0,52.91,1,0,0,303.23402344507684,64,100,80
4939.75,59,1.0,52.91,1,0,0,303.23402344507684,64,100,80
4940.75,70,2.0,52.91,1,0,0,303.23402344507684,64,100,80
4942.75,70,2.0,52.91,1,0,0,366.1550833099303,64,100,80
4944.75,61,0.5,42.33,1,0,0,318.3957246173307,64,100,80
4945.25,70,2.0,42.33,1,0,0,318.3957246173307,64,100,80
4947.25,63,0.5,42.33,49,9,0,318.3957246173307,64,100,80
4947.75,59,1.0,42.33,1,0,0,318.3957246173307,64,100,80
4948.75,59,1.0,42.33,1,0,0,384.46283747542685,64,100,80
4949.75,63,0.5,42.33,1,0,0,334.3155108481973,64,100,80
4950.25,59,1.0,42.33,1,0,0,334.3155108481973,64,100,80
4951.25,59,1.0,42.33,1,0,0,334.3155108481973,64,100,80
4952.25,68,2.0,42.33,1,0,0,334.3155108481973,64,100,80
4954.25,64,1.0,42.33,1,0,0,334.3155108481973,64,100,80
4955.25,64,1.0,42.33,1,0,0,334.3155108481973,64,100,80
4956.25,68,2.0,42.33,1,0,0,334.3155108481973,64,100,80
4958.25,63,0.5,74.08,50,9,0,334.3155108481973,64,100,80
4958.75,64,1.0,74.08,1,0,0,334.3155108481973,64,100,80
4959.75,63,0.5,74.08,49,9,0,334.3155108481973,64,100,80
4960.25,61,0.5,74.08,1,0,0,334.3155108481973,64,100,80
4960.75,68,2.0,74.08,1,0,0,334.3155108481973,64,100,80
4962.75,63,0.5,74.08,1,0,0,334.3155108481973,64,100,80
4963.25,68,2.0,74.08,1,0,0,334.3155108481973,64,100,80
4965.25,68,2.0,74.08,1,0,0,403.6859793491982,64,100,80
4967.25,68,2.0,74.08,1,0,0,847.7405566333163,64,100,80
4969.25,68,2.0,74.08,1,0,0,368.58285071013756,64,100,80
4971.25,68,2.0,74.08,1,0,0,445.0637922324911,64,100,80
4973.25,64,1.0,74.08,1,0,0,387.0119932456445,64,100,80
4974.25,68,2.0,95.25,1,0,0,387.0119932456445,64,100,80
4976.25,64,1.0,95.25,1,0,0,387.0119932456445,64,100,80
4977.25,68,2.0,95.25,1,0,0,387.0119932456445,64,100,80
4979.25,70,2.0,95.25,1,0,0,387.0119932456445,64,100,80
4981.25,61,0.5,95.25,1,0,0,387.0119932456445,64,100,80
4981.75,59,1.0,95.25,1,0,0,387.0119932456445,64,100,80
4982.75,66,0.25,95.25,1,0,0,387.0119932456445,64,100,80
4983.0,64,1.0,95.25,1,0,0,387.0119932456445,64,100,80
4984.0,59,1.0,95.25,1,0,0,387.0119932456445,64,100,80
4985.0,64,1.0,95.25,1,0,0,387.0119932456445,64,100,80
4986.0,68,2.0,95.25,50,9,0,387.0119932456445,64,100,80
4988.0,59,1.0,95.25,1,0,0,387.0119932456445,64,100,80
4989.0,61,0.5,63.5,1,0,0,387.0119932456445,64,100,80
4989.5,64,1.0,63.5,1,0,0,387.0119932456445,64,100,80
4990.5,59,1.0,63.5,1,0,0,387.0119932456445,64,100,80
4991.5,63,0.5,63.5,1,0,0,387.0119932456445,64,100,80
4992.0,59,1.0,63.5,1,0,0,387.0119932456445,64,100,80
4993.0,66,0.25,63.5,1,0,0,387.0119932456445,64,100,80
4993.25,64,1.0,63.5,1,0,0,387.0119932456445,64,100,80
4994.25,59,1.0,63.5,1,0,0,387.0119932456445,64,100,80
4995.25,68,2.0,63.5,1,0,0,387.0119932456445,64,100,80
4997.25,63,0.5,63.5,1,0,0,387.0119932456445,64,100,80
4997.75,63,0.5,63.5,1,0,0,467.3169818441157,64,100,80
4998.25,59,1.0,63.5,1,0,0,406.3625929079267,64,100,80
4999.25,64,1.0,74.08,50,9,0,406.3625929079267,64,100,80
5000.25,61,0.5,74.08,1,0,0,406.3625929079267,64,100,80
5000.75,61,0.5,74.08,1,0,0,406.3625929079267,64,100,80
5001.25,59,1.0,74.08,1,0,0,406.3625929079267,64,100,80
5002.25,61,0.5,74.08,1,0,0,406.3625929079267,64,100,80
5002.75,63,0.5,74.08,1,0,0,406.3625929079267,64,100,80
5003.25,64,1.0,74.08,1,0,0,406.3625929079267,64,100,80
5004.25,59,1.0,74.08,1,0,0,406.3625929079267,64,100,80
5005.25,70,2.0,74.08,1,0,0,406.3625929079267,64,100,80
5007.25,64,1.0,74.08,50,9,0,406.3625929079267,64,100,80
5008.25,63,0.5,74.08,50,9,0,406.3625929079267,64,100,80
5008.75,64,1.0,74.08,1,0,0,406.3625929079267,64,100,80
5009.75,64,1.0,74.08,1,0,0,406.3625929079267,64,100,80
5010.75,66,0.25,74.08,50,9,0,406.3625929079267,64,100,80
5011.0,59,1.0,74.08,1,0,0,406.3625929079267,64,100,80
5012.0,64,1.0,74.08,1,0,0,406.3625929079267,64,100,80
5013.0,59,1.0,74.08,51,9,0,406.3625929079267,64,100,80
5014.0,66,0.25,74.08,1,0,0,406.3625929079267,64,100,80
5014.25,70,2.0,74.08,1,0,0,406.3625929079267,64,100,80
5016.25,59,1.0,74.08,1,0,0,406.3625929079267,64,100,80
5017.25,61,0.5,74.08,1,0,0,406.3625929079267,64,100,80
5017.75,66,0.25,74.08,1,0,0,406.3625929079267,64,100,80
5018.0,64,1.0,74.08,1,0,0,406.3625929079267,64,100,80
5019.0,70,2.0,74.08,1,0,0,406.3625929079267,64,100,80
5021.0,59,1.0,74.08,1,0,0,406.3625929079267,64,100,80
5022.0,64,1.0,74.08,50,9,0,406.3625929079267,64,100,80
5023.0,59,1.0,74.08,1,0,0,406.3625929079267,64,100,80
5024.0,63,0.5,74.08,1,0,0,406.3625929079267,64,100,80
5024.5,66,0.25,74.08,1,0,0,406.3625929079267,64,100,80
5024.75,59,1.0,74.08,1,0,0,406.3625929079267,64,100,80
5025.75,70,2.0,74.08,1,0,0,406.3625929079267,64,100,80
5027.75,68,2.0,74.08,1,0,0,406.3625929079267,64,100,80
5029.75,59,1.0,74.08,1,0,0,406.3625929079267,64,100,80
5030.75,63,0.5,74.08,1,0,0,406.3625929079267,64,100,80
5031.25,66,0.25,74.08,1,0,0,406.3625929079267,64,100,80
5031.5,70,2.0,74.08,1,0,0,406.3625929079267,64,100,80
5033.5,68,2.0,63.5,1,0,0,406.3625929079267,64,100,80
5035.5,59,1.0,63.5,1,0,0,406.3625929079267,64,100,80
5036.5,61,0.5,63.5,1,0,0,406.3625929079267,64,100,80
5037.0,64,1.0,63.5,1,0,0,406.3625929079267,64,100,80
5038.0,64,1.0,63.5,1,0,0,490.68283093632135,64,100,80
5039.0,68,2.0,63.5,1,0,0,426.680722553323,64,100,80
5041.0,63,0.5,63.5,1,0,0,426.680722553323,64,100,80
5041.5,64,1.0,63.5,1,0,0,426.680722553323,64,100,80
5042.5,64,1.0,63.5,1,0,0,515.2169724831375,64,100,80
5043.5,70,2.0,63.5,1,0,0,448.0147586809892,64,100,80
5045.5,59,1.0,63.5,1,0,0,448.0147586809892,64,100,80
5046.5,64,1.0,63.5,1,0,0,448.0147586809892,64,100,80
5047.5,70,2.0,63.5,1,0,0,448.0147586809892,64,100,80
5049.5,66,0.25,63.5,1,0,0,448.0147586809892,64,100,80
5049.75,63,0.5,63.5,1,0,0,448.0147586809892,64,100,80
5050.25,63,0.5,63.5,1,0,0,448.0147586809892,64,100,80
5050.75,59,1.0,63.5,1,0,0,448.0147586809892,64,100,80
5051.75,63,0.5,63.5,1,0,0,448.0147586809892,64,100,80
5052.25,59,1.0,63.5,1,0,0,448.0147586809892,64,100,80
5053.25,63,0.5,63.5,1,0,0,448.0147586809892,64,100,80
5053.75,66,0.25,63.5,1,0,0,448.0147586809892,64,100,80
5054.0,63,0.5,63.5,50,9,0,448.0147586809892,64,100,80
5054.5,59,1.0,63.5,1,0,0,448.0147586809892,64,100,80
5055.5,64,1.0,63.5,1,0,0,448.0147586809892,64,100,80
5056.5,59,1.0,52.91,1,0,0,448.0147586809892,64,100,80
5057.5,64,1.0,52.91,49,9,0,448.0147586809892,64,100,80
5058.5,63,0.5,52.91,1,0,0,448.0147586809892,64,100,80
5059.0,70,2.0,52.91,1,0,0,448.0147586809892,64,100,80
5061.0,68,2.0,52.91,1,0,0,448.0147586809892,64,100,80
5063.0,70,2.0,52.91,1,0,0,448.0147586809892,64,100,80
5065.0,63,0.5,52.91,1,0,0,448.0147586809892,64,100,80
5065.5,64,1.0,52.91,1,0,0,448.0147586809892,64,100,80
5066.5,59,1.0,52.91,1,0,0,448.0147586809892,64,100,80
5067.5,59,1.0,52.91,1,0,0,540.9778211072944,64,100,80
5068.5,59,1.0,52.91,1,0,0,1136.0534243253182,64,100,80
5069.5,59,1.0,52.91,1,0,0,1789.2841433123765,64,100,80
5070.5,66,0.25,84.66,1,0,0,518.6330850180801,64,100,80
5070.75,64,1.0,84.66,1,0,0,518.6330850180801,64,100,80
5071.75,68,2.0,84.66,1,0,0,518.6330850180801,64,100,80
5073.75,59,1.0,84.66,1,0,0,518.6330850180801,64,100,80
5074.75,63,0.5,84.66,1,0,0,518.6330850180801,64,100,80
5075.25,61,0.5,84.66,1,0,0,518.6330850180801,64,100,80
5075.75,63,0.5,84.66,1,0,0,518.6330850180801,64,100,80
5076.25,63,0.5,84.66,1,0,0,626.2494501593318,64,100,80
5076.75,68,2.0,84.66,1,0,0,544.5647392689842,64,100,80
5078.75,63,0.5,84.66,1,0,0,544.5647392689842,64,100,80
5079.25,61,0.5,84.66,1,0,0,544.5647392689842,64,100,80
5079.75,68,2.0,84.66,1,0,0,544.5647392689842,64,100,80
5081.75,61,0.5,95.25,1,0,0,544.5647392689842,64,100,80
5082.25,68,2.0,95.25,1,0,0,544.5647392689842,64,100,80
5084.25,66,0.25,95.25,49,9,0,544.5647392689842,64,100,80
5084.5,66,0.25,95.25,1,0,0,544.5647392689842,64,100,80
5084.75,59,1.0,95.25,1,0,0,544.5647392689842,64,100,80
5085.75,63,0.5,95.25,1,0,0,544.5647392689842,64,100,80
5086.25,68,2.0,95.25,1,0,0,544.5647392689842,64,100,80
5088.25,64,1.0,95.25,1,0,0,544.5647392689842,64,100,80
5089.25,66,0.25,95.25,1,0,0,544.5647392689842,64,100,80
5089.5,64,1.0,95.25,1,0,0,544.5647392689842,64,100,80
5090.5,64,1.0,95.25,1,0,0,657.5619226672984,64,100,80
5091.5,59,1.0,95.25,1,0,0,571.7929762324335,64,100,80
5092.5,61,0.5,74.08,1,0,0,571.7929762324335,64,100,80
5093.0,68,2.0,74.08,1,0,0,571.7929762324335,64,100,80
5095.0,70,2.0,74.08,1,0,0,571.7929762324335,64,100,80
5097.0,64,1.0,74.08,1,0,0,571.7929762324335,64,100,80
5098.0,64,1.0,74.08,1,0,0,690.4400188006633,64,100,80
5099.0,63,0.5,74.08,1,0,0,600.3826250440551,64,100,80
5099.5,64,1.0,74.08,1,0,0,600.3826250440551,64,100,80
5100.5,61,0.5,74.08,1,0,0,600.3826250440551,64,100,80
5101.0,59,1.0,74.08,1,0,0,600.3826250440551,64,100,80
5102.0,70,2.0,74.08,1,0,0,600.3826250440551,64,100,80
5104.0,59,1.0,74.08,1,0,0,600.3826250440551,64,100,80
5105.0,70,2.0,74.08,49,9,0,600.3826250440551,64,100,80
5107.0,63,0.5,42.33,1,0,0,600.3826250440551,64,100,80
5107.5,63,0.5,42.33,49,9,0,600.3826250440551,64,100,80
5108.0,63,0.5,42.33,1,0,0,600.3826250440551,64,100,80
5108.5,68,2.0,42.33,1,0,0,600.3826250440551,64,100,80
5110.5,63,0.5,42.33,1,0,0,600.3826250440551,64,100,80
5111.0,63,0.5,42.33,49,9,0,724.9620197406966,64,100,80
5111.5,63,0.5,42.33,1,0,0,630.4017562962579,64,100,80
5112.0,59,1.0,42.33,1,0,0,630.4017562962579,64,100,80
5113.0,70,2.0,42.33,1,0,0,630.4017562962579,64,100,80
5115.0,70,2.0,42.33,1,0,0,761.2101207277315,64,100,80
5117.0,63,0.5,42.33,1,0,0,661.9218441110709,64,100,80
5117.5,63,0.5,42.33,1,0,0,799.2706267641181,64,100,80
5118.0,64,1.0,74.08,1,0,0,695.0179363166245,64,100,80
5119.0,59,1.0,74.08,1,0,0,695.0179363166245,64,100,80
5120.0,59,1.0,74.08,1,0,0,695.0179363166245,64,100,80
5121.0,61,0.5,74.08,1,0,0,695.0179363166245,64,100,80
5121.5,64,1.0,74.08,1,0,0,695.0179363166245,64,100,80
5122.5,59,1.0,74.08,1,0,0,695.0179363166245,64,100,80
5123.5,64,1.0,74.08,1,0,0,695.0179363166245,64,100,80
5124.5,68,2.0,74.08,1,0,0,695.0179363166245,64,100,80
5126.5,61,0.5,74.08,1,0,0,695.0179363166245,64,100,80
5127.0,66,0.25,74.08,1,0,0,695.0179363166245,64,100,80
5127.25,68,2.0,74.08,1,0,0,695.0179363166245,64,100,80
5129.25,64,1.0,74.08,1,0,0,695.0179363166245,64,100,80
5130.25,68,2.0,52.91,1,0,0,695.0179363166245,64,100,80
5132.25,68,2.0,52.91,1,0,0,839.234158102324,64,100,80
5134.25,66,0.25,52.91,49,9,0,729.7688331324557,64,100,80
5134.5,64,1.0,52.91,1,0,0,729.7688331324557,64,100,80
5135.5,63,0.5,52.91,1,0,0,729.7688331324557,64,100,80
5136.0,63,0.5,52.91,1,0,0,881.1958660074404,64,100,80
5136.5,64,1.0,52.91,1,0,0,766.2572747890786,64,100,80
5137.5,59,1.0,52.91,50,9,0,766.2572747890786,64,100,80
5138.5,66,0.25,52.91,1,0,0,766.2572747890786,64,100,80
5138.75,66,0.25,52.91,1,0,0,766.2572747890786,64,100,80
5139.0,68,2.0,52.91,1,0,0,766.2572747890786,64,100,80
5141.0,63,0.5,52.91,1,0,0,766.2572747890786,64,100,80
5141.5,63,0.5,74.08,1,0,0,766.2572747890786,64,100,80
5142.0,61,0.5,74.08,1,0,0,766.2572747890786,64,100,80
5142.5,64,1.0,74.08,49,9,0,766.2572747890786,64,100,80
5143.5,63,0.5,74.08,1,0,0,766.2572747890786,64,100,80
5144.0,59,1.0,74.08,1,0,0,766.2572747890786,64,100,80
5145.0,61,0.5,74.08,1,0,0,766.2572747890786,64,100,80
5145.5,64,1.0,74.08,1,0,0,766.2572747890786,64,100,80
5146.5,59,1.0,74.08,1,0,0,766.2572747890786,64,100,80
5147.5,59,1.0,74.08,1,0,0,766.2572747890786,64,100,80
5148.5,64,1.0,74.08,1,0,0,766.2572747890786,64,100,80
5149.5,64,1.0,74.08,1,0,0,766.2572747890786,64,100,80
5150.5,66,0.25,74.08,1,0,0,766.2572747890786,64,100,80
5150.75,61,0.5,42.33,1,0,0,766.2572747890786,64,100,80
5151.25,64,1.0,42.33,50,9,0,766.2572747890786,64,100,80
5152.25,64,1.0,42.33,1,0,0,766.2572747890786,64,100,80
5153.25,59,1.0,42.33,1,0,0,766.2572747890786,64,100,80
5154.25,64,1.0,42.33,1,0,0,766.2572747890786,64,100,80
5155.25,63,0.5,42.33,1,0,0,766.2572747890786,64,100,80
5155.75,68,2.0,42.33,1,0,0,766.2572747890786,64,100,80
5157.75,59,1.0,42.33,1,0,0,766.2572747890786,64,100,80
5158.75,59,1.0,42.33,1,0,0,766.2572747890786,64,100,80
5159.75,63,0.5,42.33,1,0,0,766.2572747890786,64,100,80
5160.25,64,1.0,42.33,1,0,0,766.2572747890786,64,100,80
5161.25,70,2.0,42.33,1,0,0,766.2572747890786,64,100,80
5163.25,61,0.5,31.75,1,0,0,766.2572747890786,64,100,80
5163.75,68,2.0,31.75,1,0,0,766.2572747890786,64,100,80
5165.75,59,1.0,31.75,1,0,0,766.2572747890786,64,100,80
5166.75,59,1.0,31.75,1,0,0,766.2572747890786,64,100,80
5167.75,63,0.5,31.75,50,9,0,766.2572747890786,64,100,80
5168.25,68,2.0,31.75,1,0,0,766.2572747890786,64,100,80
5170.25,59,1.0,31.75,49,9,0,766.2572747890786,64,100,80
5171.25,63,0.5,31.75,49,9,0,766.2572747890786,64,100,80
5171.75,64,1.0,31.75,1,0,0,766.2572747890786,64,100,80
5172.75,59,1.0,31.75,1,0,0,766.2572747890786,64,100,80
5173.75,59,1.0,31.75,1,0,0,925.2556593078123,64,100,80
5174.75,59,1.0,31.75,1,0,0,1943.0368845464059,64,100,80
5175.75,59,1.0,63.5,1,0,0,844.7986454549592,64,100,80
5176.75,63,0.5,63.5,1,0,0,844.7986454549592,64,100,80
5177.25,70,2.0,63.5,1,0,0,844.7986454549592,64,100,80
5179.25,63,0.5,63.5,1,0,0,844.7986454549592,64,100,80
5179.75,68,2.0,63.5,1,0,0,844.7986454549592,64,100,80
5181.75,63,0.5,63.5,49,9,0,844.7986454549592,64,100,80
5182.25,61,0.5,63.5,1,0,0,844.7986454549592,64,100,80
5182.75,68,2.0,63.5,1,0,0,844.7986454549592,64,100,80
5184.75,68,2.0,63.5,1,0,0,844.7986454549592,64,100,80
5186.75,63,0.5,63.5,1,0,0,844.7986454549592,64,100,80
5187.25,68,2.0,63.5,1,0,0,844.7986454549592,64,100,80
5189.25,59,1.0,63.5,1,0,0,844.7986454549592,64,100,80
5190.25,64,1.0,52.91,1,0,0,844.7986454549592,64,100,80
5191.25,70,2.0,52.91,1,0,0,844.7986454549592,64,100,80
5193.25,59,1.0,52.91,1,0,0,844.7986454549592,64,100,80
5194.25,64,1.0,52.91,50,9,0,844.7986454549592,64,100,80
5195.25,68,2.0,52.91,1,0,0,844.7986454549592,64,100,80
5197.25,59,1.0,52.91,49,9,0,844.7986454549592,64,100,80
5198.25,63,0.5,52.91,1,0,0,844.7986454549592,64,100,80
5198.75,68,2.0,52.91,1,0,0,844.7986454549592,64,100,80
5200.75,66,0.25,52.91,49,9,0,844.7986454549592,64,100,80
5201.0,63,0.5,52.91,1,0,0,844.7986454549592,64,100,80
5201.5,63,0.5,52.91,1,0,0,1020.0943643868632,64,100,80
5202.0,61,0.5,52.91,1,0,0,887.0385777277071,64,100,80
5202.5,66,0.25,63.5,1,0,0,887.0385777277071,64,100,80
5202.75,70,2.0,63.5,49,9,0,887.0385777277071,64,100,80
5204.75,64,1.0,63.5,1,0,0,887.0385777277071,64,100,80
5205.75,63,0.5,63.5,1,0,0,887.0385777277071,64,100,80
5206.25,68,2.0,63.5,1,0,0,887.0385777277071,64,100,80
5208.25,64,1.0,63.5,1,0,0,887.0385777277071,64,100,80
5209.25,70,2.0,63.5,49,9,0,887.0385777277071,64,100,80
5211.25,63,0.5,63.5,49,9,0,887.0385777277071,64,100,80
5211.75,63,0.5,63.5,50,9,0,1071.0990826062064,64,100,80
5212.25,68,2.0,63.5,1,0,0,931.3905066140925,64,100,80
5214.25,59,1.0,63.5,1,0,0,931.3905066140925,64,100,80
5215.25,0,1.0,63.5,49,9,0,120.0,64,100,80
5216.25,60,1.0,52.91,1,0,0,120.0,64,100,80
5217.25,64,0.5,52.91,49,9,0,120.0,64,100,80
5217.75,64,0.5,52.91,1,0,0,120.0,64,100,80
5218.25,62,0.5,52.91,1,0,0,120.0,64,100,80
5218.75,71,2.0,52.91,1,0,0,120.0,64,100,80
5220.75,62,0.5,52.91,1,0,0,120.0,64,100,80
5221.25,69,2.0,52.91,1,0,0,120.0,64,100,80
5223.25,62,0.5,52.91,1,0,0,120.0,64,100,80
5223.75,65,1.0,52.91,1,0,0,120.0,64,100,80
5224.75,69,2.0,52.91,1,0,0,120.0,64,100,80
5226.75,69,2.0,52.91,1,0,0,144.9,64,100,80
5228.75,62,0.5,52.91,1,0,0,126.0,64,100,80
5229.25,65,1.0,84.66,1,0,0,126.0,64,100,80
5230.25,71,2.0,84.66,1,0,0,126.0,64,100,80
5232.25,60,1.0,84.66,1,0,0,126.0,64,100,80
5233.25,62,0.5,84.66,1,0,0,126.0,64,100,80
5233.75,62,0.5,84.66,1,0,0,126.0,64,100,80
5234.25,60,1.0,84.66,1,0,0,126.0,64,100,80
5235.25,64,0.5,84.66,1,0,0,126.0,64,100,80
5235.75,60,1.0,84.66,1,0,0,126.0,64,100,80
5236.75,71,2.0,84.66,1,0,0,126.0,64,100,80
5238.75,60,1.0,84.66,1,0,0,126.0,64,100,80
5239.75,60,1.0,84.66,1,0,0,152.14499999999998,64,100,80
5240.75,60,1.0,84.66,1,0,0,319.5045,64,100,80
5241.75,60,1.0,42.33,1,0,0,138.91500000000002,64,100,80
5242.75,71,2.0,42.33,1,0,0,138.91500000000002,64,100,80
5244.75,62,0.5,42.33,1,0,0,138.91500000000002,64,100,80
5245.25,67,0.25,42.33,1,0,0,138.91500000000002,64,100,80
5245.5,69,2.0,42.33,1,0,0,138.91500000000002,64,100,80
5247.5,64,0.5,42.33,1,0,0,138.91500000000002,64,100,80
5248.0,62,0.5,42.33,1,0,0,138.91500000000002,64,100,80
5248.5,64,0.5,42.33,1,0,0,138.91500000000002,64,100,80
5249.0,64,0.5,42.33,1,0,0,138.91500000000002,64,100,80
5249.5,69,2.0,42.33,1,0,0,138.91500000000002,64,100,80
5251.5,60,1.0,42.33,1,0,0,138.91500000000002,64,100,80
5252.5,69,2.0,42.33,1,0,0,138.91500000000002,64,100,80
5254.5,62,0.5,42.33,1,0,0,138.91500000000002,64,100,80
5255.0,0,1.0,42.33,49,9,0,120.0,64,100,80
5256.0,60,1.0,42.33,1,0,0,120.0,64,100,80
5257.0,60,1.0,42.33,1,0,0,144.9,64,100,80
5258.0,62,0.5,42.33,1,0,0,126.0,64,100,80
5258.5,62,0.5,42.33,1,0,0,152.14499999999998,64,100,80
5259.0,60,1.0,42.33,1,0,0,132.3,64,100,80
5260.0,64,0.5,42.33,49,9,0,132.3,64,100,80
5260.5,64,0.5,42.33,1,0,0,159.75225,64,100,80
5261.0,62,0.5,42.33,1,0,0,138.91500000000002,64,100,80
5261.5,62,0.5,42.33,1,0,0,138.91500000000002,64,100,80
5262.0,71,2.0,42.33,1,0,0,138.91500000000002,64,100,80
5264.0,62,0.5,63.5,1,0,0,138.91500000000002,64,100,80
5264.5,0,1.0,63.5,49,9,0,120.0,64,100,80
5265.5,60,1.0,63.5,1,0,0,120.0,64,100,80
5266.5,67,0.25,63.5,1,0,0,120.0,64,100,80
5266.75,62,0.5,63.5,1,0,0,120.0,64,100,80
5267.25,60,1.0,63.5,1,0,0,120.0,64,100,80
5268.25,60,1.0,63.5,1,0,0,120.0,64,100,80
5269.25,65,1.0,63.5,1,0,0,120.0,64,100,80
5270.25,60,1.0,63.5,1,0,0,120.0,64,100,80
5271.25,65,1.0,63.5,1,0,0,120.0,64,100,80
5272.25,69,2.0,63.5,1,0,0,120.0,64,100,80
5274.25,60,1.0,63.5,1,0,0,120.0,64,100,80
5275.25,62,0.5,52.91,1,0,0,120.0,64,100,80
5275.75,64,0.5,52.91,1,0,0,120.0,64,100,80
5276.25,62,0.5,52.91,1,0,0,120.0,64,100,80
5276.75,64,0.5,52.91,1,0,0,120.0,64,100,80
5277.25,67,0.25,52.91,1,0,0,120.0,64,100,80
5277.5,62,0.5,52.91,1,0,0,120.0,64,100,80
5278.0,60,1.0,52.91,1,0,0,120.0,64,100,80
5279.0,69,2.0,52.91,1,0,0,120.0,64,100,80
5281.0,60,1.0,52.91,1,0,0,120.0,64,100,80
5282.0,71,2.0,52.91,1,0,0,120.0,64,100,80
5284.0,69,2.0,52.91,1,0,0,120.0,64,100,80
5286.0,60,1.0,52.91,1,0,0,120.0,64,100,80
5287.0,65,1.0,74.08,1,0,0,120.0,64,100,80
5288.0,69,2.0,74.08,1,0,0,120.0,64,100,80
5290.0,69,2.0,74.08,1,0,0,120.0,64,100,80
5292.0,64,0.5,74.08,1,0,0,120.0,64,100,80
5292.5,71,2.0,74.08,1,0,0,120.0,64,100,80
5294.5,71,2.0,74.08,49,9,0,144.9,64,100,80
5296.5,64,0.5,74.08,1,0,0,126.0,64,100,80
5297.0,62,0.5,74.08,1,0,0,126.0,64,100,80
5297.5,60,1.0,74.08,1,0,0,126.0,64,100,80
5298.5,60,1.0,74.08,49,9,0,126.0,64,100,80
5299.5,64,0.5,74.08,1,0,0,126.0,64,100,80
5300.0,69,2.0,74.08,1,0,0,126.0,64,100,80
5302.0,60,1.0,42.33,1,0,0,126.0,64,100,80
5303.0,62,0.5,42.33,1,0,0,126.0,64,100,80
5303.5,64,0.5,42.33,1,0,0,126.0,64,100,80
5304.0,71,2.0,42.33,1,0,0,126.0,64,100,80
5306.0,60,1.0,42.33,1,0,0,126.0,64,100,80
5307.0,64,0.5,42.33,1,0,0,126.0,64,100,80
5307.5,60,1.0,42.33,1,0,0,126.0,64,100,80
5308.5,60,1.0,42.33,1,0,0,126.0,64,100,80
5309.5,71,2.0,42.33,1,0,0,126.0,64,100,80
5311.5,69,2.0,42.33,1,0,0,126.0,64,100,80
5313.5,62,0.5,42.33,1,0,0,126.0,64,100,80
5314.0,69,2.0,42.33,51,9,0,126.0,64,100,80
5316.0,67,0.25,74.08,1,0,0,126.0,64,100,80
5316.25,60,1.0,74.08,1,0,0,126.0,64,100,80
5317.25,69,2.0,74.08,1,0,0,126.0,64,100,80
5319.25,62,0.5,74.08,1,0,0,126.0,64,100,80
5319.75,71,2.0,74.08,50,9,0,126.0,64,100,80
5321.75,69,2.0,74.08,1,0,0,126.0,64,100,80
5323.75,60,1.0,74.08,1,0,0,126.0,64,100,80
5324.75,69,2.0,74.08,1,0,0,126.0,64,100,80
5326.75,62,0.5,74.08,1,0,0,126.0,64,100,80
5327.25,60,1.0,74.08,1,0,0,126.0,64,100,80
5328.25,0,1.0,74.08,49,9,0,120.0,64,100,80
5329.25,69,2.0,74.08,1,0,0,120.0,64,100,80
5331.25,62,0.5,74.08,1,0,0,120.0,64,100,80
5331.75,71,2.0,74.08,1,0,0,120.0,64,100,80
5333.75,60,1.0,74.08,1,0,0,120.0,64,100,80
5334.75,71,2.0,74.08,1,0,0,120.0,64,100,80
5336.75,67,0.25,74.08,1,0,0,120.0,64,100,80
5337.0,60,1.0,74.08,1,0,0,120.0,64,100,80
5338.0,71,2.0,74.08,1,0,0,120.0,64,100,80
5340.0,71,2.0,74.08,1,0,0,144.9,64,100,80
5342.0,69,2.0,74.08,1,0,0,126.0,64,100,80
5344.0,60,1.0,74.08,1,0,0,126.0,64,100,80
5345.0,0,1.0,74.08,49,9,0,120.0,64,100,80
5346.0,69,2.0,74.08,1,0,0,120.0,64,100,80
5348.0,65,1.0,63.5,1,0,0,120.0,64,100,80
5349.0,60,1.0,63.5,1,0,0,120.0,64,100,80
5350.0,67,0.25,63.5,1,0,0,120.0,64,100,80
5350.25,64,0.5,63.5,1,0,0,120.0,64,100,80
5350.75,60,1.0,63.5,1,0,0,120.0,64,100,80
5351.75,62,0.5,63.5,49,9,0,120.0,64,100,80
5352.25,62,0.5,63.5,1,0,0,120.0,64,100,80
5352.75,67,0.25,63.5,1,0,0,120.0,64,100,80
5353.0,71,2.0,63.5,1,0,0,120.0,64,100,80
5355.0,62,0.5,63.5,1,0,0,120.0,64,100,80
5355.5,69,2.0,63.5,1,0,0,120.0,64,100,80
5357.5,60,1.0,63.5,1,0,0,120.0,64,100,80
5358.5,60,1.0,84.66,1,0,0,120.0,64,100,80
5359.5,64,0.5,84.66,1,0,0,120.0,64,100,80
5360.0,69,2.0,84.66,1,0,0,120.0,64,100,80
5362.0,62,0.5,84.66,1,0,0,120.0,64,100,80
5362.5,60,1.0,84.66,1,0,0,120.0,64,100,80
5363.5,67,0.25,84.66,1,0,0,120.0,64,100,80
5363.75,69,2.0,84.66,1,0,0,120.0,64,100,80
5365.75,60,1.0,84.66,1,0,0,120.0,64,100,80
5366.75,71,2.0,84.66,1,0,0,120.0,64,100,80
5368.75,67,0.25,84.66,1,0,0,120.0,64,100,80
5369.0,62,0.5,84.66,1,0,0,120.0,64,100,80
5369.5,60,1.0,84.66,1,0,0,120.0,64,100,80
5370.5,60,1.0,84.66,1,0,0,144.9,64,100,80
5371.5,62,0.5,84.66,1,0,0,126.0,64,100,80
5372.0,60,1.0,84.66,1,0,0,126.0,64,100,80
5373.0,67,0.25,84.66,1,0,0,126.0,64,100,80
5373.25,69,2.0,84.66,1,0,0,126.0,64,100,80
5375.25,71,2.0,84.66,1,0,0,126.0,64,100,80
5377.25,71,2.0,84.66,1,0,0,126.0,64,100,80
5379.25,65,1.0,84.66,1,0,0,126.0,64,100,80
5380.25,64,0.5,84.66,1,0,0,126.0,64,100,80
5380.75,62,0.5,84.66,1,0,0,126.0,64,100,80
5381.25,0,1.0,84.66,49,9,0,120.0,64,100,80
5382.25,69,2.0,84.66,1,0,0,120.0,64,100,80
5384.25,65,1.0,63.5,1,0,0,120.0,64,100,80
5385.25,62,0.5,63.5,1,0,0,120.0,64,100,80
5385.75,69,2.0,63.5,1,0,0,120.0,64,100,80
5387.75,60,1.0,63.5,1,0,0,120.0,64,100,80
5388.75,60,1.0,63.5,1,0,0,144.9,64,100,80
5389.75,64,0.5,63.5,1,0,0,126.0,64,100,80
5390.25,69,2.0,63.5,1,0,0,126.0,64,100,80
5392.25,62,0.5,63.5,1,0,0,126.0,64,100,80
5392.75,69,2.0,63.5,1,0,0,126.0,64,100,80
5394.75,71,2.0,63.5,50,9,0,126.0,64,100,80
5396.75,60,1.0,63.5,1,0,0,126.0,64,100,80
5397.75,62,0.5,63.5,51,9,0,126.0,64,100,80
5398.25,67,0.25,95.25,1,0,0,126.0,64,100,80
5398.5,71,2.0,95.25,1,0,0,126.0,64,100,80
5400.5,71,2.0,95.25,1,0,0,152.14499999999998,64,100,80
5402.5,60,1.0,95.25,1,0,0,132.3,64,100,80
5403.5,71,2.0,95.25,1,0,0,132.3,64,100,80
5405.5,60,1.0,95.25,1,0,0,132.3,64,100,80
5406.5,64,0.5,95.25,1,0,0,132.3,64,100,80
5407.0,64,0.5,95.25,1,0,0,159.75225,64,100,80
5407.5,60,1.0,95.25,1,0,0,138.91500000000002,64,100,80
5408.5,69,2.0,95.25,49,9,0,138.91500000000002,64,100,80
5410.5,64,0.5,95.25,1,0,0,138.91500000000002,64,100,80
5411.0,69,2.0,95.25,1,0,0,138.91500000000002,64,100,80
5413.0,64,0.5,52.91,1,0,0,138.91500000000002,64,100,80
5413.5,62,0.5,52.91,1,0,0,138.91500000000002,64,100,80
5414.0,64,0.5,52.91,1,0,0,138.91500000000002,64,100,80
5414.5,69,2.0,52.91,1,0,0,138.91500000000002,64,100,80
5416.5,64,0.5,52.91,1,0,0,138.91500000000002,64,100,80
5417.0,69,2.0,52.91,1,0,0,138.91500000000002,64,100,80
5419.0,60,1.0,52.91,1,0,0,138.91500000000002,64,100,80
5420.0,60,1.0,52.91,1,0,0,167.73986250000002,64,100,80
5421.0,69,2.0,52.91,1,0,0,145.86075000000002,64,100,80
5423.0,71,2.0,52.91,1,0,0,145.86075000000002,64,100,80
5425.0,60,1.0,52.91,1,0,0,145.86075000000002,64,100,80
5426.0,64,0.5,52.91,39,9,0,145.86075000000002,64,100,80
5426.5,60,1.0,42.33,39,9,0,145.86075000000002,64,100,80
5427.5,60,1.0,42.33,1,0,0,145.86075000000002,64,100,80
5428.5,62,0.5,42.33,1,0,0,145.86075000000002,64,100,80
5429.0,71,2.0,42.33,1,0,0,145.86075000000002,64,100,80
5431.0,60,1.0,42.33,1,0,0,145.86075000000002,64,100,80
5432.0,60,1.0,42.33,1,0,0,145.86075000000002,64,100,80
5433.0,69,2.0,42.33,1,0,0,145.86075000000002,64,100,80
5435.0,62,0.5,42.33,1,0,0,145.86075000000002,64,100,80
5435.5,67,0.25,42.33,1,0,0,145.86075000000002,64,100,80
5435.75,64,0.5,42.33,1,0,0,145.86075000000002,64,100,80
5436.25,0,1.0,42.33,49,9,0,120.0,64,100,80
5437.25,69,2.0,42.33,1,0,0,120.0,64,100,80
5439.25,64,0.5,74.08,1,0,0,120.0,64,100,80
5439.75,71,2.0,74.08,1,0,0,120.0,64,100,80
5441.75,60,1.0,74.08,1,0,0,120.0,64,100,80
5442.75,69,2.0,74.08,49,9,0,120.0,64,100,80
5444.75,65,1.0,74.08,1,0,0,120.0,64,100,80
5445.75,71,2.0,74.08,50,9,0,120.0,64,100,80
5447.75,67,0.25,74.08,1,0,0,120.0,64,100,80
5448.0,60,1.0,74.08,1,0,0,120.0,64,100,80
5449.0,64,0.5,74.08,1,0,0,120.0,64,100,80
5449.5,69,2.0,74.08,50,9,0,120.0,64,100,80
5451.5,65,1.0,74.08,1,0,0,120.0,64,100,80
5452.5,60,1.0,74.08,1,0,0,120.0,64,100,80
5453.5,67,0.25,63.5,1,0,0,120.0,64,100,80
5453.75,60,1.0,63.5,49,9,0,120.0,64,100,80
5454.75,67,0.25,63.5,1,0,0,120.0,64,100,80
5455.0,60,1.0,63.5,1,0,0,120.0,64,100,80
5456.0,60,1.0,63.5,1,0,0,120.0,64,100,80
5457.0,69,2.0,63.5,1,0,0,120.0,64,100,80
5459.0,65,1.0,63.5,1,0,0,120.0,64,100,80
5460.0,69,2.0,63.5,1,0,0,120.0,64,100,80
5462.0,60,1.0,63.5,1,0,0,120.0,64,100,80
5463.0,0,1.0,63.5,49,9,0,120.0,64,100,80
5464.0,60,1.0,63.5,1,0,0,120.0,64,100,80
5465.0,60,1.0,63.5,1,0,0,144.9,64,100,80
5466.0,60,1.0,63.5,1,0,0,304.28999999999996,64,100,80
5467.0,64,0.5,63.5,1,0,0,132.3,64,100,80
5467.5,64,0.5,63.5,1,0,0,132.3,64,100,80
5468.0,62,0.5,63.5,1,0,0,132.3,64,100,80
5468.5,62,0.5,63.5,1,0,0,159.75225,64,100,80
5469.0,60,1.0,63.5,1,0,0,138.91500000000002,64,100,80
5470.0,64,0.5,63.5,1,0,0,138.91500000000002,64,100,80
5470.5,69,2.0,63.5,1,0,0,138.91500000000002,64,100,80
5472.5,62,0.5,63.5,1,0,0,138.91500000000002,64,100,80
5473.0,62,0.5,63.5,1,0,0,138.91500000000002,64,100,80
5473.5,64,0.5,63.5,1,0,0,138.91500000000002,64,100,80
5474.0,0,1.0,63.5,49,9,0,120.0,64,100,80
5475.0,60,1.0,31.75,1,0,0,120.0,64,100,80
5476.0,71,2.0,31.75,1,0,0,120.0,64,100,80
5478.0,69,2.0,31.75,1,0,0,120.0,64,100,80
5480.0,65,1.0,31.75,1,0,0,120.0,64,100,80
5481.0,71,2.0,31.75,51,9,0,120.0,64,100,80
5483.0,62,0.5,31.75,1,0,0,120.0,64,100,80
5483.5,69,2.0,31.75,1,0,0,120.0,64,100,80
5485.5,65,1.0,31.75,1,0,0,120.0,64,100,80
5486.5,69,2.0,31.75,39,9,0,120.0,64,100,80
5488.5,60,1.0,31.75,1,0,0,120.0,64,100,80
5489.5,60,1.0,31.75,1,0,0,120.0,64,100,80
5490.5,69,2.0,31.75,1,0,0,120.0,64,100,80
5492.5,60,1.0,52.91,1,0,0,120.0,64,100,80
5493.5,64,0.5,52.91,51,9,0,120.0,64,100,80
5494.0,71,2.0,52.91,50,9,0,120.0,64,100,80
5496.0,67,0.25,52.91,1,0,0,120.0,64,100,80
5496.25,69,2.0,52.91,1,0,0,120.0,64,100,80
5498.25,64,0.5,52.91,50,9,0,120.0,64,100,80
5498.75,62,0.5,52.91,1,0,0,120.0,64,100,80
5499.25,60,1.0,52.91,1,0,0,120.0,64,100,80
5500.25,64,0.5,52.91,1,0,0,120.0,64,100,80
5500.75,60,1.0,52.91,1,0,0,120.0,64,100,80
5501.75,69,2.0,52.91,1,0,0,120.0,64,100,80
5503.75,60,1.0,52.91,1,0,0,120.0,64,100,80
5504.75,60,1.0,52.91,1,0,0,120.0,64,100,80
5505.75,71,2.0,52.91,1,0,0,120.0,64,100,80
5507.75,64,0.5,52.91,1,0,0,120.0,64,100,80
5508.25,0,1.0,52.91,49,9,0,120.0,64,100,80
5509.25,64,1.0,52.91,50,9,0,120.0,64,100,80
5510.25,70,2.0,52.91,1,0,0,120.0,64,100,80
5512.25,63,0.5,52.91,1,0,0,120.0,64,100,80
5512.75,68,2.0,52.91,1,0,0,120.0,64,100,80
5514.75,63,0.5,52.91,1,0,0,120.0,64,100,80
5515.25,61,0.5,52.91,1,0,0,120.0,64,100,80
5515.75,70,2.0,52.91,1,0,0,120.0,64,100,80
5517.75,61,0.5,52.91,1,0,0,120.0,64,100,80
5518.25,63,0.5,63.5,1,0,0,120.0,64,100,80
5518.75,66,0.25,63.5,1,0,0,120.0,64,100,80
5519.0,68,2.0,63.5,1,0,0,120.0,64,100,80
5521.0,59,1.0,63.5,1,0,0,120.0,64,100,80
5522.0,0,1.0,63.5,49,9,0,120.0,64,100,80
5523.0,60,1.0,63.5,1,0,0,120.0,64,100,80
5524.0,64,1.0,63.5,49,9,0,120.0,64,100,80
5525.0,63,0.5,63.5,1,0,0,120.0,64,100,80
5525.5,66,0.25,63.5,1,0,0,120.0,64,100,80
5525.75,59,1.0,63.5,1,0,0,120.0,64,100,80
5526.75,64,1.0,63.5,1,0,0,120.0,64,100,80
5527.75,59,1.0,63.5,1,0,0,120.0,64,100,80
5528.75,63,0.5,52.91,1,0,0,120.0,64,100,80
5529.25,63,0.5,52.91,1,0,0,120.0,64,100,80
5529.75,66,0.25,52.91,1,0,0,120.0,64,100,80
5530.0,68,2.0,52.91,1,0,0,120.0,64,100,80
5532.0,66,0.25,52.91,1,0,0,120.0,64,100,80
5532.25,59,1.0,52.91,49,9,0,120.0,64,100,80
5533.25,64,1.0,52.91,1,0,0,120.0,64,100,80
5534.25,59,1.0,52.91,1,0,0,120.0,64,100,80
5535.25,59,1.0,52.91,1,0,0,120.0,64,100,80
5536.25,68,2.0,52.91,1,0,0,120.0,64,100,80
5538.25,66,0.25,52.91,1,0,0,120.0,64,100,80
5538.5,68,2.0,52.91,1,0,0,120.0,64,100,80
5540.5,59,1.0,63.5,1,0,0,120.0,64,100,80
5541.5,61,0.5,63.5,1,0,0,120.0,64,100,80
5542.0,61,0.5,63.5,1,0,0,120.0,64,100,80
5542.5,64,1.0,63.5,1,0,0,120.0,64,100,80
5543.5,68,2.0,63.5,1,0,0,120.0,64,100,80
5545.5,64,1.0,63.5,1,0,0,120.0,64,100,80
5546.5,66,0.25,63.5,1,0,0,120.0,64,100,80
5546.75,68,2.0,63.5,1,0,0,120.0,64,100,80
5548.75,68,2.0,63.5,1,0,0,120.0,64,100,80
5550.75,63,0.5,63.5,1,0,0,120.0,64,100,80
5551.25,68,2.0,63.5,1,0,0,120.0,64,100,80
5553.25,59,1.0,63.5,1,0,0,120.0,64,100,80
5554.25,61,0.5,63.5,51,9,0,120.0,64,100,80
5554.75,59,1.0,63.5,1,0,0,120.0,64,100,80
5555.75,68,2.0,63.5,39,9,0,120.0,64,100,80
5557.75,59,1.0,63.5,1,0,0,120.0,64,100,80
5558.75,68,2.0,63.5,1,0,0,120.0,64,100,80
5560.75,64,1.0,63.5,1,0,0,120.0,64,100,80
5561.75,68,2.0,63.5,49,9,0,120.0,64,100,80
5563.75,61,0.5,63.5,1,0,0,120.0,64,100,80
5564.25,59,1.0,63.5,1,0,0,120.0,64,100,80
5565.25,59,1.0,63.5,1,0,0,120.0,64,100,80
5566.25,68,2.0,63.5,1,0,0,120.0,64,100,80
5568.25,64,1.0,63.5,50,9,0,120.0,64,100,80
5569.25,64,1.0,63.5,1,0,0,120.0,64,100,80
5570.25,68,2.0,63.5,1,0,0,120.0,64,100,80
5572.25,59,1.0,63.5,1,0,0,120.0,64,100,80
5573.25,68,2.0,63.5,1,0,0,120.0,64,100,80
5575.25,64,1.0,63.5,1,0,0,120.0,64,100,80
5576.25,64,1.0,63.5,1,0,0,144.9,64,100,80
5577.25,64,1.0,63.5,1,0,0,304.28999999999996,64,100,80
5578.25,63,0.5,63.5,1,0,0,132.3,64,100,80
5578.75,59,1.0,63.5,1,0,0,132.3,64,100,80
5579.75,63,0.5,63.5,1,0,0,132.3,64,100,80
5580.25,68,2.0,63.5,1,0,0,132.3,64,100,80
5582.25,59,1.0,63.5,1,0,0,132.3,64,100,80
5583.25,61,0.5,84.66,1,0,0,132.3,64,100,80
5583.75,59,1.0,84.66,49,9,0,132.3,64,100,80
5584.75,64,1.0,84.66,1,0,0,132.3,64,100,80
5585.75,61,0.5,84.66,1,0,0,132.3,64,100,80
5586.25,66,0.25,84.66,1,0,0,132.3,64,100,80
5586.5,59,1.0,84.66,1,0,0,132.3,64,100,80
5587.5,63,0.5,84.66,1,0,0,132.3,64,100,80
5588.0,63,0.5,84.66,1,0,0,159.75225,64,100,80
5588.5,68,2.0,84.66,1,0,0,138.91500000000002,64,100,80
5590.5,66,0.25,84.66,1,0,0,138.91500000000002,64,100,80
5590.75,64,1.0,84.66,1,0,0,138.91500000000002,64,100,80
5591.75,63,0.5,84.66,49,9,0,138.91500000000002,64,100,80
5592.25,64,1.0,74.08,1,0,0,138.91500000000002,64,100,80
5593.25,70,2.0,74.08,1,0,0,138.91500000000002,64,100,80
5595.25,64,1.0,74.08,1,0,0,138.91500000000002,64,100,80
5596.25,64,1.0,74.08,50,9,0,138.91500000000002,64,100,80
5597.25,63,0.5,74.08,49,9,0,138.91500000000002,64,100,80
5597.75,68,2.0,74.08,1,0,0,138.91500000000002,64,100,80
5599.75,61,0.5,74.08,1,0,0,138.91500000000002,64,100,80
5600.25,64,1.0,74.08,1,0,0,138.91500000000002,64,100,80
5601.25,63,0.5,74.08,1,0,0,138.91500000000002,64,100,80
5601.75,63,0.5,74.08,1,0,0,138.91500000000002,64,100,80
5602.25,68,2.0,74.08,1,0,0,138.91500000000002,64,100,80
5604.25,68,2.0,74.08,1,0,0,138.91500000000002,64,100,80
5606.25,59,1.0,84.66,1,0,0,138.91500000000002,64,100,80
5607.25,59,1.0,84.66,1,0,0,138.91500000000002,64,100,80
5608.25,68,2.0,84.66,1,0,0,138.91500000000002,64,100,80
5610.25,64,1.0,84.66,1,0,0,138.91500000000002,64,100,80
5611.25,61,0.5,84.66,1,0,0,138.91500000000002,64,100,80
5611.75,61,0.5,84.66,1,0,0,167.73986250000002,64,100,80
5612.25,68,2.0,84.66,40,9,0,145.86075000000002,64,100,80
5614.25,59,1.0,84.66,1,0,0,145.86075000000002,64,100,80
5615.25,70,2.0,84.66,1,0,0,145.86075000000002,64,100,80
5617.25,68,2.0,84.66,1,0,0,145.86075000000002,64,100,80
5619.25,64,1.0,84.66,1,0,0,145.86075000000002,64,100,80
5620.25,59,1.0,84.66,1,0,0,145.86075000000002,64,100,80
5621.25,68,2.0,84.66,49,9,0,145.86075000000002,64,100,80
5623.25,64,1.0,84.66,1,0,0,145.86075000000002,64,100,80
5624.25,63,0.5,84.66,1,0,0,145.86075000000002,64,100,80
5624.75,64,1.0,84.66,1,0,0,145.86075000000002,64,100,80
5625.75,68,2.0,84.66,1,0,0,145.86075000000002,64,100,80
5627.75,68,2.0,84.66,1,0,0,176.12685562500005,64,100,80
5629.75,64,1.0,84.66,1,0,0,153.15378750000005,64,100,80
5630.75,63,0.5,84.66,50,9,0,153.15378750000005,64,100,80
5631.25,68,2.0,84.66,1,0,0,153.15378750000005,64,100,80
5633.25,64,1.0,84.66,1,0,0,153.15378750000005,64,100,80
5634.25,63,0.5,84.66,49,9,0,153.15378750000005,64,100,80
5634.75,61,0.5,84.66,1,0,0,153.15378750000005,64,100,80
5635.25,68,2.0,95.25,1,0,0,153.15378750000005,64,100,80
5637.25,66,0.25,95.25,1,0,0,153.15378750000005,64,100,80
5637.5,59,1.0,95.25,1,0,0,153.15378750000005,64,100,80
5638.5,61,0.5,95.25,1,0,0,153.15378750000005,64,100,80
5639.0,64,1.0,95.25,1,0,0,153.15378750000005,64,100,80
5640.0,66,0.25,95.25,1,0,0,153.15378750000005,64,100,80
5640.25,61,0.5,95.25,1,0,0,153.15378750000005,64,100,80
5640.75,64,1.0,95.25,1,0,0,153.15378750000005,64,100,80
5641.75,61,0.5,95.25,1,0,0,153.15378750000005,64,100,80
5642.25,63,0.5,95.25,1,0,0,153.15378750000005,64,100,80
5642.75,59,1.0,95.25,1,0,0,153.15378750000005,64,100,80
5643.75,59,1.0,95.25,1,0,0,184.93319840625003,64,100,80
5644.75,63,0.5,74.08,1,0,0,160.81147687500004,64,100,80
5645.25,59,1.0,74.08,1,0,0,160.81147687500004,64,100,80
5646.25,70,2.0,74.08,49,9,0,160.81147687500004,64,100,80
5648.25,61,0.5,74.08,1,0,0,160.81147687500004,64,100,80
5648.75,68,2.0,74.08,1,0,0,160.81147687500004,64,100,80
5650.75,61,0.5,74.08,1,0,0,160.81147687500004,64,100,80
5651.25,59,1.0,74.08,49,9,0,160.81147687500004,64,100,80
5652.25,64,1.0,74.08,1,0,0,160.81147687500004,64,100,80
5653.25,63,0.5,74.08,1,0,0,160.81147687500004,64,100,80
5653.75,61,0.5,74.08,1,0,0,160.81147687500004,64,100,80
5654.25,59,1.0,74.08,1,0,0,160.81147687500004,64,100,80
5655.25,68,2.0,74.08,1,0,0,160.81147687500004,64,100,80
5657.25,68,2.0,63.5,1,0,0,160.81147687500004,64,100,80
5659.25,59,1.0,63.5,1,0,0,160.81147687500004,64,100,80
5660.25,61,0.5,63.5,51,9,0,160.81147687500004,64,100,80
5660.75,70,2.0,63.5,51,9,0,160.81147687500004,64,100,80
5662.75,68,2.0,63.5,1,0,0,160.81147687500004,64,100,80
5664.75,64,1.0,63.5,1,0,0,160.81147687500004,64,100,80
5665.75,66,0.25,63.5,1,0,0,160.81147687500004,64,100,80
5666.0,63,0.5,63.5,1,0,0,160.81147687500004,64,100,80
5666.5,61,0.5,63.5,1,0,0,160.81147687500004,64,100,80
5667.0,68,2.0,63.5,51,9,0,160.81147687500004,64,100,80
5669.0,70,2.0,63.5,51,9,0,160.81147687500004,64,100,80
5671.0,68,2.0,63.5,1,0,0,160.81147687500004,64,100,80
5673.0,66,0.25,63.5,1,0,0,160.81147687500004,64,100,80
5673.25,68,2.0,63.5,1,0,0,160.81147687500004,64,100,80
5675.25,70,2.0,63.5,1,0,0,160.81147687500004,64,100,80
5677.25,59,1.0,63.5,1,0,0,160.81147687500004,64,100,80
5678.25,68,2.0,63.5,1,0,0,160.81147687500004,64,100,80
5680.25,63,0.5,63.5,1,0,0,160.81147687500004,64,100,80
5680.75,59,1.0,63.5,1,0,0,160.81147687500004,64,100,80
5681.75,59,1.0,63.5,1,0,0,160.81147687500004,64,100,80
5682.75,70,2.0,63.5,1,0,0,160.81147687500004,64,100,80
5684.75,59,1.0,63.5,1,0,0,160.81147687500004,64,100,80
5685.75,61,0.5,63.5,1,0,0,160.81147687500004,64,100,80
5686.25,59,1.0,63.5,1,0,0,160.81147687500004,64,100,80
5687.25,59,1.0,63.5,1,0,0,160.81147687500004,64,100,80
5688.25,68,2.0,63.5,1,0,0,160.81147687500004,64,100,80
5690.25,66,0.25,63.5,1,0,0,160.81147687500004,64,100,80
5690.5,70,2.0,63.5,1,0,0,160.81147687500004,64,100,80
5692.5,63,0.5,63.5,1,0,0,160.81147687500004,64,100,80
5693.0,59,1.0,63.5,1,0,0,160.81147687500004,64,100,80
5694.0,61,0.5,63.5,1,0,0,160.81147687500004,64,100,80
5694.5,64,1.0,63.5,1,0,0,160.81147687500004,64,100,80
5695.5,70,2.0,63.5,1,0,0,160.81147687500004,64,100,80
5697.5,64,1.0,63.5,1,0,0,160.81147687500004,64,100,80
5698.5,68,2.0,63.5,1,0,0,160.81147687500004,64,100,80
5700.5,59,1.0,63.5,1,0,0,160.81147687500004,64,100,80
5701.5,63,0.5,84.66,1,0,0,160.81147687500004,64,100,80
5702.0,68,2.0,84.66,1,0,0,160.81147687500004,64,100,80
5704.0,68,2.0,84.66,1,0,0,160.81147687500004,64,100,80
5706.0,63,0.5,84.66,50,9,0,160.81147687500004,64,100,80
5706.5,64,1.0,84.66,1,0,0,160.81147687500004,64,100,80
5707.5,59,1.0,84.66,1,0,0,160.81147687500004,64,100,80
5708.5,64,1.0,84.66,1,0,0,160.81147687500004,64,100,80
5709.5,63,0.5,84.66,1,0,0,160.81147687500004,64,100,80
5710.0,63,0.5,84.66,1,0,0,160.81147687500004,64,100,80
5710.5,70,2.0,84.66,1,0,0,160.81147687500004,64,100,80
5712.5,64,1.0,84.66,49,9,0,160.81147687500004,64,100,80
5713.5,63,0.5,84.66,1,0,0,160.81147687500004,64,100,80
5714.0,66,0.25,105.83,1,0,0,160.81147687500004,64,100,80
5714.25,63,0.5,105.83,1,0,0,160.81147687500004,64,100,80
5714.75,66,0.25,105.83,1,0,0,160.81147687500004,64,100,80
5715.0,63,0.5,105.83,50,9,0,160.81147687500004,64,100,80
5715.5,59,1.0,105.83,1,0,0,160.81147687500004,64,100,80
5716.5,61,0.5,105.83,1,0,0,160.81147687500004,64,100,80
5717.0,64,1.0,105.83,1,0,0,160.81147687500004,64,100,80
5718.0,63,0.5,105.83,1,0,0,160.81147687500004,64,100,80
5718.5,63,0.5,105.83,1,0,0,194.17985832656254,64,100,80
5719.0,64,1.0,105.83,49,9,0,168.85205071875006,64,100,80
5720.0,63,0.5,105.83,1,0,0,168.85205071875006,64,100,80
5720.5,66,0.25,105.83,1,0,0,168.85205071875006,64,100,80
5720.75,63,0.5,95.25,1,0,0,168.85205071875006,64,100,80
5721.25,61,0.5,95.25,1,0,0,168.85205071875006,64,100,80
5721.75,61,0.5,95.25,1,0,0,168.85205071875006,64,100,80
5722.25,59,1.0,95.25,1,0,0,168.85205071875006,64,100,80
5723.25,63,0.5,95.25,1,0,0,168.85205071875006,64,100,80
5723.75,68,2.0,95.25,1,0,0,168.85205071875006,64,100,80
5725.75,70,2.0,95.25,1,0,0,168.85205071875006,64,100,80
5727.75,63,0.5,95.25,49,9,0,168.85205071875006,64,100,80
5728.25,64,1.0,95.25,1,0,0,168.85205071875006,64,100,80
5729.25,63,0.5,95.25,1,0,0,168.85205071875006,64,100,80
5729.75,64,1.0,95.25,1,0,0,168.85205071875006,64,100,80
5730.75,61,0.5,95.25,1,0,0,168.85205071875006,64,100,80
5731.25,63,0.5,63.5,1,0,0,168.85205071875006,64,100,80
5731.75,59,1.0,63.5,1,0,0,168.85205071875006,64,100,80
5732.75,63,0.5,63.5,1,0,0,168.85205071875006,64,100,80
5733.25,64,1.0,63.5,1,0,0,168.85205071875006,64,100,80
5734.25,64,1.0,63.5,49,9,0,203.8888512428907,64,100,80
5735.25,61,0.5,63.5,1,0,0,177.29465325468757,64,100,80
5735.75,70,2.0,63.5,1,0,0,177.29465325468757,64,100,80
5737.75,63,0.5,63.5,49,9,0,177.29465325468757,64,100,80
5738.25,59,1.0,63.5,1,0,0,177.29465325468757,64,100,80
5739.25,68,2.0,63.5,1,0,0,177.29465325468757,64,100,80
5741.25,63,0.5,63.5,1,0,0,177.29465325468757,64,100,80
5741.75,64,1.0,63.5,1,0,0,177.29465325468757,64,100,80
5742.75,70,2.0,63.5,1,0,0,177.29465325468757,64,100,80
5744.75,59,1.0,63.5,1,0,0,177.29465325468757,64,100,80
5745.75,63,0.5,63.5,1,0,0,177.29465325468757,64,100,80
5746.25,64,1.0,63.5,1,0,0,177.29465325468757,64,100,80
5747.25,68,2.0,63.5,1,0,0,177.29465325468757,64,100,80
5749.25,61,0.5,63.5,1,0,0,177.29465325468757,64,100,80
5749.75,59,1.0,63.5,1,0,0,177.29465325468757,64,100,80
5750.75,68,2.0,63.5,1,0,0,177.29465325468757,64,100,80
5752.75,61,0.5,63.5,1,0,0,177.29465325468757,64,100,80
5753.25,59,1.0,63.5,1,0,0,177.29465325468757,64,100,80
5754.25,61,0.5,63.5,1,0,0,177.29465325468757,64,100,80
5754.75,68,2.0,63.5,1,0,0,177.29465325468757,64,100,80
5756.75,63,0.5,84.66,1,0,0,177.29465325468757,64,100,80
5757.25,68,2.0,84.66,1,0,0,177.29465325468757,64,100,80
5759.25,63,0.5,84.66,1,0,0,177.29465325468757,64,100,80
5759.75,64,1.0,84.66,49,9,0,177.29465325468757,64,100,80
5760.75,63,0.5,84.66,1,0,0,177.29465325468757,64,100,80
5761.25,68,2.0,84.66,1,0,0,177.29465325468757,64,100,80
5763.25,61,0.5,84.66,1,0,0,177.29465325468757,64,100,80
5763.75,64,1.0,84.66,49,9,0,177.29465325468757,64,100,80
5764.75,59,1.0,84.66,1,0,0,177.29465325468757,64,100,80
5765.75,68,2.0,84.66,1,0,0,177.29465325468757,64,100,80
5767.75,63,0.5,84.66,1,0,0,177.29465325468757,64,100,80
5768.25,63,0.5,84.66,50,9,0,214.08329380503523,64,100,80
5768.75,59,1.0,63.5,1,0,0,186.15938591742196,64,100,80
5769.75,68,2.0,63.5,1,0,0,186.15938591742196,64,100,80
5771.75,63,0.5,63.5,1,0,0,186.15938591742196,64,100,80
5772.25,61,0.5,63.5,1,0,0,186.15938591742196,64,100,80
5772.75,63,0.5,63.5,1,0,0,186.15938591742196,64,100,80
5773.25,68,2.0,63.5,1,0,0,186.15938591742196,64,100,80
5775.25,64,1.0,63.5,49,9,0,186.15938591742196,64,100,80
5776.25,64,1.0,63.5,1,0,0,186.15938591742196,64,100,80
5777.25,64,1.0,63.5,1,0,0,224.78745849528698,64,100,80
5778.25,63,0.5,63.5,1,0,0,195.46735521329305,64,100,80
5778.75,63,0.5,63.5,49,9,0,236.02683142005134,64,100,80
5779.25,63,0.5,63.5,1,0,0,495.65634598210784,64,100,80
5779.75,63,0.5,52.91,1,0,0,215.50275912265562,64,100,80
5780.25,63,0.5,52.91,1,0,0,215.50275912265562,64,100,80
5780.75,68,2.0,52.91,1,0,0,215.50275912265562,64,100,80
5782.75,59,1.0,52.91,1,0,0,215.50275912265562,64,100,80
5783.75,64,1.0,52.91,1,0,0,215.50275912265562,64,100,80
5784.75,63,0.5,52.91,49,9,0,215.50275912265562,64,100,80
5785.25,64,1.0,52.91,1,0,0,215.50275912265562,64,100,80
5786.25,63,0.5,52.91,1,0,0,215.50275912265562,64,100,80
5786.75,63,0.5,52.91,49,9,0,260.21958164060663,64,100,80
5787.25,63,0.5,52.91,1,0,0,546.461121445274,64,100,80
5787.75,61,0.5,52.91,1,0,0,237.59179193272783,64,100,80
5788.25,68,2.0,52.91,1,0,0,237.59179193272783,64,100,80
5790.25,59,1.0,84.66,1,0,0,237.59179193272783,64,100,80
5791.25,59,1.0,84.66,1,0,0,286.89208875876886,64,100,80
5792.25,61,0.5,84.66,1,0,0,249.47138152936424,64,100,80
5792.75,68,2.0,84.66,1,0,0,249.47138152936424,64,100,80
5794.75,63,0.5,84.66,49,9,0,249.47138152936424,64,100,80
5795.25,61,0.5,84.66,1,0,0,249.47138152936424,64,100,80
5795.75,64,1.0,84.66,1,0,0,249.47138152936424,64,100,80
5796.75,63,0.5,84.66,1,0,0,249.47138152936424,64,100,80
5797.25,64,1.0,84.66,1,0,0,249.47138152936424,64,100,80
5798.25,63,0.5,84.66,1,0,0,249.47138152936424,64,100,80
5798.75,64,1.0,84.66,1,0,0,249.47138152936424,64,100,80
5799.75,70,2.0,84.66,1,0,0,249.47138152936424,64,100,80
5801.75,64,1.0,84.66,1,0,0,249.47138152936424,64,100,80
5802.75,63,0.5,84.66,1,0,0,249.47138152936424,64,100,80
5803.25,59,1.0,84.66,1,0,0,249.47138152936424,64,100,80
5804.25,70,2.0,84.66,1,0,0,249.47138152936424,64,100,80
5806.25,59,1.0,84.66,1,0,0,249.47138152936424,64,100,80
5807.25,64,1.0,84.66,50,9,0,249.47138152936424,64,100,80
5808.25,63,0.5,84.66,1,0,0,249.47138152936424,64,100,80
5808.75,59,1.0,84.66,1,0,0,249.47138152936424,64,100,80
5809.75,59,1.0,84.66,51,9,0,301.23669319670734,64,100,80
5810.75,59,1.0,84.66,49,9,0,261.9449506058325,64,100,80
5811.75,61,0.5,84.66,1,0,0,261.9449506058325,64,100,80
5812.25,59,1.0,84.66,1,0,0,261.9449506058325,64,100,80
5813.25,63,0.5,105.83,1,0,0,261.9449506058325,64,100,80
5813.75,59,1.0,105.83,1,0,0,261.9449506058325,64,100,80
5814.75,63,0.5,105.83,1,0,0,261.9449506058325,64,100,80
5815.25,59,1.0,105.83,1,0,0,261.9449506058325,64,100,80
5816.25,61,0.5,105.83,1,0,0,261.9449506058325,64,100,80
5816.75,61,0.5,105.83,1,0,0,261.9449506058325,64,100,80
5817.25,63,0.5,105.83,1,0,0,261.9449506058325,64,100,80
5817.75,59,1.0,105.83,1,0,0,261.9449506058325,64,100,80
5818.75,68,2.0,105.83,1,0,0,261.9449506058325,64,100,80
5820.75,61,0.5,105.83,1,0,0,261.9449506058325,64,100,80
5821.25,59,1.0,105.83,1,0,0,261.9449506058325,64,100,80
5822.25,64,1.0,105.83,50,9,0,261.9449506058325,64,100,80
5823.25,59,1.0,84.66,39,9,0,261.9449506058325,64,100,80
5824.25,59,1.0,84.66,1,0,0,261.9449506058325,64,100,80
5825.25,61,0.5,84.66,1,0,0,261.9449506058325,64,100,80
5825.75,64,1.0,84.66,50,9,0,261.9449506058325,64,100,80
5826.75,63,0.5,84.66,1,0,0,261.9449506058325,64,100,80
5827.25,61,0.5,84.66,1,0,0,261.9449506058325,64,100,80
5827.75,59,1.0,84.66,1,0,0,261.9449506058325,64,100,80
5828.75,59,1.0,84.66,1,0,0,261.9449506058325,64,100,80
5829.75,59,1.0,84.66,1,0,0,261.9449506058325,64,100,80
5830.75,68,2.0,84.66,1,0,0,261.9449506058325,64,100,80
5832.75,63,0.5,84.66,1,0,0,261.9449506058325,64,100,80
5833.25,59,1.0,84.66,1,0,0,261.9449506058325,64,100,80
5834.25,61,0.5,74.08,1,0,0,261.9449506058325,64,100,80
5834.75,59,1.0,74.08,1,0,0,261.9449506058325,64,100,80
5835.75,68,2.0,74.08,1,0,0,261.9449506058325,64,100,80
5837.75,63,0.5,74.08,1,0,0,261.9449506058325,64,100,80
5838.25,59,1.0,74.08,1,0,0,261.9449506058325,64,100,80
5839.25,59,1.0,74.08,1,0,0,316.2985278565427,64,100,80
5840.25,70,2.0,74.08,1,0,0,275.0421981361241,64,100,80
5842.25,63,0.5,74.08,1,0,0,275.0421981361241,64,100,80
5842.75,70,2.0,74.08,1,0,0,275.0421981361241,64,100,80
5844.75,61,0.5,74.08,1,0,0,275.0421981361241,64,100,80
5845.25,70,2.0,74.08,1,0,0,275.0421981361241,64,100,80
5847.25,61,0.5,74.08,1,0,0,275.0421981361241,64,100,80
5847.75,68,2.0,74.08,1,0,0,275.0421981361241,64,100,80
5849.75,59,1.0,74.08,1,0,0,275.0421981361241,64,100,80
5850.75,61,0.5,74.08,1,0,0,275.0421981361241,64,100,80
5851.25,63,0.5,74.08,1,0,0,275.0421981361241,64,100,80
5851.75,64,1.0,74.08,49,9,0,275.0421981361241,64,100,80
5852.75,59,1.0,74.08,1,0,0,275.0421981361241,64,100,80
5853.75,61,0.5,74.08,1,0,0,275.0421981361241,64,100,80
5854.25,64,1.0,74.08,49,9,0,275.0421981361241,64,100,80
5855.25,63,0.5,74.08,1,0,0,275.0421981361241,64,100,80
5855.75,59,1.0,74.08,1,0,0,275.0421981361241,64,100,80
5856.75,59,1.0,74.08,1,0,0,332.11345424936985,64,100,80
5857.75,64,1.0,74.08,1,0,0,288.7943080429303,64,100,80
5858.75,64,1.0,95.25,1,0,0,288.7943080429303,64,100,80
5859.75,63,0.5,95.25,1,0,0,288.7943080429303,64,100,80
5860.25,59,1.0,95.25,1,0,0,288.7943080429303,64,100,80
5861.25,63,0.5,95.25,1,0,0,288.7943080429303,64,100,80
5861.75,59,1.0,95.25,39,9,0,288.7943080429303,64,100,80
5862.75,59,1.0,95.25,39,9,0,288.7943080429303,64,100,80
5863.75,59,1.0,95.25,1,0,0,288.7943080429303,64,100,80
5864.75,64,1.0,95.25,1,0,0,288.7943080429303,64,100,80
5865.75,59,1.0,95.25,1,0,0,288.7943080429303,64,100,80
5866.75,70,2.0,95.25,1,0,0,288.7943080429303,64,100,80
5868.75,63,0.5,95.25,1,0,0,288.7943080429303,64,100,80
5869.25,64,1.0,95.25,1,0,0,288.7943080429303,64,100,80
5870.25,59,1.0,84.66,1,0,0,288.7943080429303,64,100,80
5871.25,61,0.5,84.66,1,0,0,288.7943080429303,64,100,80
5871.75,59,1.0,84.66,1,0,0,288.7943080429303,64,100,80
5872.75,59,1.0,84.66,1,0,0,348.71912696183836,64,100,80
5873.75,61,0.5,84.66,1,0,0,303.23402344507684,64,100,80
5874.25,68,2.0,84.66,1,0,0,303.23402344507684,64,100,80
5876.25,59,1.0,84.66,1,0,0,303.23402344507684,64,100,80
5877.25,64,1.0,84.66,49,9,0,303.23402344507684,64,100,80
5878.25,61,0.5,84.66,1,0,0,303.23402344507684,64,100,80
5878.75,64,1.0,84.66,1,0,0,303.23402344507684,64,100,80
5879.75,59,1.0,84.66,1,0,0,303.23402344507684,64,100,80
5880.75,61,0.5,84.66,1,0,0,303.23402344507684,64,100,80
5881.25,61,0.5,74.08,1,0,0,303.23402344507684,64,100,80
5881.75,59,1.0,74.08,1,0,0,303.23402344507684,64,100,80
5882.75,63,0.5,74.08,50,9,0,303.23402344507684,64,100,80
5883.25,59,1.0,74.08,1,0,0,303.23402344507684,64,100,80
5884.25,63,0.5,74.08,1,0,0,303.23402344507684,64,100,80
5884.75,59,1.0,74.08,1,0,0,303.23402344507684,64,100,80
5885.75,61,0.5,74.08,1,0,0,303.23402344507684,64,100,80
5886.25,59,1.0,74.08,1,0,0,303.23402344507684,64,100,80
5887.25,63,0.5,74.08,1,0,0,303.23402344507684,64,100,80
5887.75,61,0.5,74.08,1,0,0,303.23402344507684,64,100,80
5888.25,59,1.0,74.08,1,0,0,303.23402344507684,64,100,80
5889.25,70,2.0,74.08,1,0,0,303.23402344507684,64,100,80
5891.25,59,1.0,74.08,1,0,0,303.23402344507684,64,100,80
5892.25,68,2.0,74.08,1,0,0,303.23402344507684,64,100,80
5894.25,63,0.5,74.08,1,0,0,303.23402344507684,64,100,80
5894.75,66,0.25,74.08,49,9,0,303.23402344507684,64,100,80
5895.0,63,0.5,74.08,1,0,0,303.23402344507684,64,100,80
5895.5,70,2.0,74.08,1,0,0,303.23402344507684,64,100,80
5897.5,59,1.0,74.08,1,0,0,303.23402344507684,64,100,80
5898.5,63,0.5,74.08,1,0,0,303.23402344507684,64,100,80
5899.0,61,0.5,74.08,1,0,0,303.23402344507684,64,100,80
5899.5,63,0.5,74.08,1,0,0,303.23402344507684,64,100,80
5900.0,63,0.5,74.08,1,0,0,303.23402344507684,64,100,80
5900.5,64,1.0,74.08,1,0,0,303.23402344507684,64,100,80
5901.5,64,1.0,63.5,1,0,0,303.23402344507684,64,100,80
5902.5,64,1.0,63.5,1,0,0,303.23402344507684,64,100,80
5903.5,59,1.0,63.5,39,9,0,303.23402344507684,64,100,80
5904.5,59,1.0,63.5,1,0,0,303.23402344507684,64,100,80
5905.5,68,2.0,63.5,1,0,0,303.23402344507684,64,100,80
5907.5,68,2.0,63.5,1,0,0,303.23402344507684,64,100,80
5909.5,64,1.0,63.5,1,0,0,303.23402344507684,64,100,80
5910.5,61,0.5,63.5,1,0,0,303.23402344507684,64,100,80
5911.0,61,0.5,63.5,1,0,0,303.23402344507684,64,100,80
5911.5,63,0.5,63.5,1,0,0,303.23402344507684,64,100,80
5912.0,68,2.0,63.5,1,0,0,303.23402344507684,64,100,80
5914.0,59,1.0,63.5,1,0,0,303.23402344507684,64,100,80
5915.0,59,1.0,63.5,1,0,0,303.23402344507684,64,100,80
5916.0,61,0.5,63.5,1,0,0,303.23402344507684,64,100,80
5916.5,59,1.0,63.5,1,0,0,303.23402344507684,64,100,80
5917.5,61,0.5,63.5,1,0,0,303.23402344507684,64,100,80
5918.0,68,2.0,63.5,1,0,0,303.23402344507684,64,100,80
5920.0,70,2.0,63.5,1,0,0,303.23402344507684,64,100,80
5922.0,64,1.0,63.5,1,0,0,303.23402344507684,64,100,80
5923.0,59,1.0,63.5,49,9,0,303.23402344507684,64,100,80
5924.0,59,1.0,63.5,1,0,0,303.23402344507684,64,100,80
5925.0,59,1.0,63.5,1,0,0,366.1550833099303,64,100,80
5926.0,63,0.5,63.5,1,0,0,318.3957246173307,64,100,80
5926.5,63,0.5,63.5,1,0,0,318.3957246173307,64,100,80
5927.0,68,2.0,95.25,1,0,0,318.3957246173307,64,100,80
5929.0,68,2.0,95.25,1,0,0,318.3957246173307,64,100,80
5931.0,63,0.5,95.25,1,0,0,318.3957246173307,64,100,80
5931.5,70,2.0,95.25,1,0,0,318.3957246173307,64,100,80
5933.5,68,2.0,95.25,1,0,0,318.3957246173307,64,100,80
5935.5,59,1.0,95.25,1,0,0,318.3957246173307,64,100,80
5936.5,64,1.0,95.25,1,0,0,318.3957246173307,64,100,80
5937.5,59,1.0,95.25,1,0,0,318.3957246173307,64,100,80
5938.5,68,2.0,95.25,1,0,0,318.3957246173307,64,100,80
5940.5,61,0.5,95.25,1,0,0,318.3957246173307,64,100,80
5941.0,68,2.0,95.25,1,0,0,318.3957246173307,64,100,80
5943.0,68,2.0,95.25,1,0,0,318.3957246173307,64,100,80
5945.0,70,2.0,63.5,1,0,0,318.3957246173307,64,100,80
5947.0,68,2.0,63.5,1,0,0,318.3957246173307,64,100,80
5949.0,63,0.5,63.5,1,0,0,318.3957246173307,64,100,80
5949.5,63,0.5,63.5,50,9,0,318.3957246173307,64,100,80
5950.0,59,1.0,63.5,1,0,0,318.3957246173307,64,100,80
5951.0,61,0.5,63.5,1,0,0,318.3957246173307,64,100,80
5951.5,70,2.0,63.5,1,0,0,318.3957246173307,64,100,80
5953.5,68,2.0,63.5,1,0,0,318.3957246173307,64,100,80
5955.5,63,0.5,63.5,1,0,0,318.3957246173307,64,100,80
5956.0,61,0.5,63.5,1,0,0,318.3957246173307,64,100,80
5956.5,61,0.5,63.5,1,0,0,384.46283747542685,64,100,80
5957.0,64,1.0,63.5,1,0,0,334.3155108481973,64,100,80
5958.0,63,0.5,31.75,1,0,0,334.3155108481973,64,100,80
5958.5,63,0.5,31.75,51,9,0,334.3155108481973,64,100,80
5959.0,70,2.0,31.75,51,9,0,334.3155108481973,64,100,80
5961.0,68,2.0,31.75,1,0,0,334.3155108481973,64,100,80
5963.0,63,0.5,31.75,1,0,0,334.3155108481973,64,100,80
5963.5,70,2.0,31.75,1,0,0,334.3155108481973,64,100,80
5965.5,68,2.0,31.75,1,0,0,334.3155108481973,64,100,80
5967.5,64,1.0,31.75,1,0,0,334.3155108481973,64,100,80
5968.5,0,1.0,31.75,49,9,0,120.0,64,100,80
5969.5,71,2.0,31.75,1,0,0,120.0,64,100,80
5971.5,71,2.0,31.75,50,9,0,120.0,64,100,80
5973.5,69,2.0,31.75,1,0,0,120.0,64,100,80
5975.5,67,0.25,42.33,1,0,0,120.0,64,100,80
5975.75,69,2.0,42.33,1,0,0,120.0,64,100,80
5977.75,67,0.25,42.33,1,0,0,120.0,64,100,80
5978.0,71,2.0,42.33,1,0,0,120.0,64,100,80
5980.0,62,0.5,42.33,1,0,0,120.0,64,100,80
5980.5,62,0.5,42.33,1,0,0,120.0,64,100,80
5981.0,60,1.0,42.33,1,0,0,120.0,64,100,80
5982.0,60,1.0,42.33,1,0,0,144.9,64,100,80
5983.0,71,2.0,42.33,50,9,0,126.0,64,100,80
5985.0,69,2.0,42.33,1,0,0,126.0,64,100,80
5987.0,64,0.5,42.33,1,0,0,126.0,64,100,80
5987.5,60,1.0,42.33,1,0,0,126.0,64,100,80
5988.5,69,2.0,52.91,1,0,0,126.0,64,100,80
5990.5,60,1.0,52.91,1,0,0,126.0,64,100,80
5991.5,69,2.0,52.91,1,0,0,126.0,64,100,80
5993.5,60,1.0,52.91,1,0,0,126.0,64,100,80
5994.5,64,0.5,52.91,1,0,0,126.0,64,100,80
5995.0,67,0.25,52.91,1,0,0,126.0,64,100,80
5995.25,69,2.0,52.91,1,0,0,126.0,64,100,80
5997.25,60,1.0,52.91,50,9,0,126.0,64,100,80
5998.25,67,0.25,52.91,1,0,0,126.0,64,100,80
5998.5,69,2.0,52.91,1,0,0,126.0,64,100,80
6000.5,69,2.0,52.91,1,0,0,126.0,64,100,80
6002.5,60,1.0,52.91,39,9,0,126.0,64,100,80
6003.5,60,1.0,74.08,1,0,0,126.0,64,100,80
6004.5,60,1.0,74.08,1,0,0,152.14499999999998,64,100,80
6005.5,60,1.0,74.08,1,0,0,132.3,64,100,80
6006.5,65,1.0,74.08,1,0,0,132.3,64,100,80
6007.5,64,0.5,74.08,1,0,0,132.3,64,100,80
6008.0,64,0.5,74.08,1,0,0,132.3,64,100,80
6008.5,69,2.0,74.08,1,0,0,132.3,64,100,80
6010.5,65,1.0,74.08,1,0,0,132.3,64,100,80
6011.5,64,0.5,74.08,1,0,0,132.3,64,100,80
6012.0,65,1.0,74.08,1,0,0,132.3,64,100,80
6013.0,60,1.0,74.08,1,0,0,132.3,64,100,80
6014.0,71,2.0,74.08,1,0,0,132.3,64,100,80
6016.0,60,1.0,74.08,49,9,0,132.3,64,100,80
6017.0,64,0.5,74.08,1,0,0,132.3,64,100,80
6017.5,67,0.25,74.08,1,0,0,132.3,64,100,80
6017.75,69,2.0,74.08,50,9,0,132.3,64,100,80
6019.75,62,0.5,74.08,1,0,0,132.3,64,100,80
6020.25,64,0.5,74.08,1,0,0,132.3,64,100,80
6020.75,69,2.0,74.08,1,0,0,132.3,64,100,80
6022.75,60,1.0,74.08,1,0,0,132.3,64,100,80
6023.75,60,1.0,74.08,1,0,0,132.3,64,100,80
6024.75,69,2.0,74.08,1,0,0,132.3,64,100,80
6026.75,60,1.0,74.08,1,0,0,132.3,64,100,80
6027.75,60,1.0,74.08,1,0,0,159.75225,64,100,80
6028.75,60,1.0,84.66,1,0,0,335.47972500000003,64,100,80
6029.75,69,2.0,84.66,1,0,0,145.86075000000002,64,100,80
6031.75,60,1.0,84.66,1,0,0,145.86075000000002,64,100,80
6032.75,62,0.5,84.66,1,0,0,145.86075000000002,64,100,80
6033.25,67,0.25,84.66,1,0,0,145.86075000000002,64,100,80
6033.5,60,1.0,84.66,1,0,0,145.86075000000002,64,100,80
6034.5,64,0.5,84.66,1,0,0,145.86075000000002,64,100,80
6035.0,60,1.0,84.66,1,0,0,145.86075000000002,64,100,80
6036.0,60,1.0,84.66,51,9,0,145.86075000000002,64,100,80
6037.0,60,1.0,84.66,1,0,0,145.86075000000002,64,100,80
6038.0,62,0.5,84.66,1,0,0,145.86075000000002,64,100,80
6038.5,69,2.0,84.66,1,0,0,145.86075000000002,64,100,80
6040.5,71,2.0,84.66,1,0,0,145.86075000000002,64,100,80
6042.5,69,2.0,84.66,1,0,0,145.86075000000002,64,100,80
6044.5,60,1.0,84.66,1,0,0,145.86075000000002,64,100,80
6045.5,69,2.0,84.66,1,0,0,145.86075000000002,64,100,80
6047.5,69,2.0,84.66,1,0,0,176.12685562500005,64,100,80
6049.5,71,2.0,84.66,1,0,0,153.15378750000005,64,100,80
6051.5,64,0.5,84.66,1,0,0,153.15378750000005,64,100,80
6052.0,64,0.5,84.66,50,9,0,153.15378750000005,64,100,80
6052.5,62,0.5,84.66,1,0,0,153.15378750000005,64,100,80
6053.0,64,0.5,84.66,1,0,0,153.15378750000005,64,100,80
6053.5,65,1.0,84.66,50,9,0,153.15378750000005,64,100,80
6054.5,67,0.25,84.66,1,0,0,153.15378750000005,64,100,80
6054.75,60,1.0,95.25,1,0,0,153.15378750000005,64,100,80
6055.75,62,0.5,95.25,1,0,0,153.15378750000005,64,100,80
6056.25,62,0.5,95.25,1,0,0,184.93319840625003,64,100,80
6056.75,60,1.0,95.25,1,0,0,160.81147687500004,64,100,80
6057.75,69,2.0,95.25,1,0,0,160.81147687500004,64,100,80
6059.75,60,1.0,95.25,1,0,0,160.81147687500004,64,100,80
6060.75,71,2.0,95.25,1,0,0,160.81147687500004,64,100,80
6062.75,60,1.0,95.25,1,0,0,160.81147687500004,64,100,80
6063.75,67,0.25,95.25,1,0,0,160.81147687500004,64,100,80
6064.0,64,0.5,95.25,50,9,0,160.81147687500004,64,100,80
6064.5,69,2.0,95.25,1,0,0,160.81147687500004,64,100,80
6066.5,60,1.0,95.25,1,0,0,160.81147687500004,64,100,80
6067.5,64,0.5,105.83,1,0,0,160.81147687500004,64,100,80
6068.0,71,2.0,105.83,1,0,0,160.81147687500004,64,100,80
6070.0,69,2.0,105.83,1,0,0,160.81147687500004,64,100,80
6072.0,62,0.5,105.83,1,0,0,160.81147687500004,64,100,80
6072.5,71,2.0,105.83,1,0,0,160.81147687500004,64,100,80
6074.5,60,1.0,105.83,1,0,0,160.81147687500004,64,100,80
6075.5,0,1.0,105.83,49,9,0,120.0,64,100,80
6076.5,64,0.5,105.83,1,0,0,120.0,64,100,80
6077.0,60,1.0,105.83,1,0,0,120.0,64,100,80
6078.0,71,2.0,105.83,1,0,0,120.0,64,100,80
6080.0,64,0.5,105.83,50,9,0,120.0,64,100,80
6080.5,69,2.0,105.83,1,0,0,120.0,64,100,80
6082.5,60,1.0,63.5,1,0,0,120.0,64,100,80
6083.5,67,0.25,63.5,1,0,0,120.0,64,100,80
6083.75,60,1.0,63.5,1,0,0,120.0,64,100,80
6084.75,69,2.0,63.5,49,9,0,120.0,64,100,80
6086.75,65,1.0,63.5,1,0,0,120.0,64,100,80
6087.75,69,2.0,63.5,1,0,0,120.0,64,100,80
6089.75,60,1.0,63.5,1,0,0,120.0,64,100,80
6090.75,62,0.5,63.5,1,0,0,120.0,64,100,80
6091.25,62,0.5,63.5,1,0,0,144.9,64,100,80
6091.75,60,1.0,63.5,1,0,0,126.0,64,100,80
6092.75,60,1.0,63.5,50,9,0,152.14499999999998,64,100,80
6093.75,62,0.5,63.5,1,0,0,132.3,64,100,80
6094.25,69,2.0,52.91,1,0,0,132.3,64,100,80
6096.25,64,0.5,52.91,50,9,0,132.3,64,100,80
6096.75,62,0.5,52.91,1,0,0,132.3,64,100,80
6097.25,69,2.0,52.91,1,0,0,132.3,64,100,80
6099.25,69,2.0,52.91,1,0,0,132.3,64,100,80
6101.25,64,0.5,52.91,1,0,0,132.3,64,100,80
6101.75,60,1.0,52.91,1,0,0,132.3,64,100,80
6102.75,71,2.0,52.91,1,0,0,132.3,64,100,80
6104.75,71,2.0,52.91,1,0,0,159.75225,64,100,80
6106.75,64,0.5,52.91,1,0,0,138.91500000000002,64,100,80
6107.25,69,2.0,52.91,1,0,0,138.91500000000002,64,100,80
6109.25,62,0.5,52.91,1,0,0,138.91500000000002,64,100,80
6109.75,64,0.5,63.5,1,0,0,138.91500000000002,64,100,80
6110.25,65,1.0,63.5,1,0,0,138.91500000000002,64,100,80
6111.25,71,2.0,63.5,1,0,0,138.91500000000002,64,100,80
6113.25,71,2.0,63.5,1,0,0,167.73986250000002,64,100,80
6115.25,60,1.0,63.5,1,0,0,145.86075000000002,64,100,80
6116.25,60,1.0,63.5,1,0,0,176.12685562500005,64,100,80
6117.25,60,1.0,63.5,1,0,0,369.86639681250006,64,100,80
6118.25,0,1.0,63.5,49,9,0,120.0,64,100,80
6119.25,60,1.0,63.5,1,0,0,120.0,64,100,80
6120.25,69,2.0,63.5,1,0,0,120.0,64,100,80
6122.25,64,0.5,63.5,1,0,0,120.0,64,100,80
6122.75,71,2.0,63.5,1,0,0,120.0,64,100,80
6124.75,60,1.0,63.5,1,0,0,120.0,64,100,80
6125.75,71,2.0,63.5,1,0,0,120.0,64,100,80
6127.75,60,1.0,63.5,1,0,0,120.0,64,100,80
6128.75,0,1.0,63.5,49,9,0,120.0,64,100,80
6129.75,62,0.5,63.5,1,0,0,120.0,64,100,80
6130.25,64,0.5,63.5,1,0,0,120.0,64,100,80
6130.75,71,2.0,63.5,1,0,0,120.0,64,100,80
6132.75,60,1.0,63.5,1,0,0,120.0,64,100,80
6133.75,60,1.0,63.5,1,0,0,120.0,64,100,80
6134.75,62,0.5,63.5,1,0,0,120.0,64,100,80
6135.25,67,0.25,63.5,1,0,0,120.0,64,100,80
6135.5,60,1.0,63.5,1,0,0,120.0,64,100,80
6136.5,64,0.5,52.91,1,0,0,120.0,64,100,80
6137.0,69,2.0,52.91,1,0,0,120.0,64,100,80
6139.0,60,1.0,52.91,1,0,0,120.0,64,100,80
6140.0,64,0.5,52.91,1,0,0,120.0,64,100,80
6140.5,69,2.0,52.91,1,0,0,120.0,64,100,80
6142.5,69,2.0,52.91,1,0,0,144.9,64,100,80
6144.5,69,2.0,52.91,1,0,0,304.28999999999996,64,100,80
6146.5,60,1.0,52.91,1,0,0,132.3,64,100,80
6147.5,69,2.0,52.91,1,0,0,132.3,64,100,80
6149.5,60,1.0,52.91,49,9,0,132.3,64,100,80
6150.5,64,0.5,52.91,1,0,0,132.3,64,100,80
6151.0,71,2.0,52.91,1,0,0,132.3,64,100,80
6153.0,64,0.5,63.5,49,9,0,132.3,64,100,80
6153.5,64,0.5,63.5,1,0,0,132.3,64,100,80
6154.0,71,2.0,63.5,1,0,0,132.3,64,100,80
6156.0,64,0.5,63.5,49,9,0,132.3,64,100,80
6156.5,60,1.0,63.5,1,0,0,132.3,64,100,80
6157.5,71,2.0,63.5,1,0,0,132.3,64,100,80
6159.5,0,1.0,63.5,49,9,0,120.0,64,100,80
6160.5,65,1.0,63.5,50,9,0,120.0,64,100,80
6161.5,62,0.5,63.5,1,0,0,120.0,64,100,80
6162.0,62,0.5,63.5,1,0,0,120.0,64,100,80
6162.5,60,1.0,63.5,1,0,0,120.0,64,100,80
6163.5,62,0.5,63.5,1,0,0,120.0,64,100,80
6164.0,67,0.25,105.83,1,0,0,120.0,64,100,80
6164.25,60,1.0,105.83,1,0,0,120.0,64,100,80
6165.25,60,1.0,105.83,1,0,0,120.0,64,100,80
6166.25,60,1.0,105.83,1,0,0,120.0,64,100,80
6167.25,62,0.5,105.83,1,0,0,120.0,64,100,80
6167.75,65,1.0,105.83,1,0,0,120.0,64,100,80
6168.75,71,2.0,105.83,1,0,0,120.0,64,100,80
6170.75,65,1.0,105.83,1,0,0,120.0,64,100,80
6171.75,71,2.0,105.83,1,0,0,120.0,64,100,80
6173.75,69,2.0,105.83,1,0,0,120.0,64,100,80
6175.75,69,2.0,105.83,1,0,0,120.0,64,100,80
6177.75,60,1.0,105.83,1,0,0,120.0,64,100,80
6178.75,62,0.5,52.91,1,0,0,120.0,64,100,80
6179.25,62,0.5,52.91,1,0,0,144.9,64,100,80
6179.75,62,0.5,52.91,1,0,0,126.0,64,100,80
6180.25,60,1.0,52.91,1,0,0,126.0,64,100,80
6181.25,60,1.0,52.91,1,0,0,126.0,64,100,80
6182.25,62,0.5,52.91,1,0,0,126.0,64,100,80
6182.75,64,0.5,52.91,1,0,0,126.0,64,100,80
6183.25,60,1.0,52.91,1,0,0,126.0,64,100,80
6184.25,60,1.0,52.91,1,0,0,126.0,64,100,80
6185.25,60,1.0,52.91,1,0,0,126.0,64,100,80
6186.25,60,1.0,52.91,1,0,0,126.0,64,100,80
6187.25,62,0.5,52.91,1,0,0,126.0,64,100,80
6187.75,69,2.0,63.5,1,0,0,126.0,64,100,80
6189.75,65,1.0,63.5,1,0,0,126.0,64,100,80
6190.75,62,0.5,63.5,1,0,0,126.0,64,100,80
6191.25,65,1.0,63.5,1,0,0,126.0,64,100,80
6192.25,64,0.5,63.5,1,0,0,126.0,64,100,80
6192.75,60,1.0,63.5,50,9,0,126.0,64,100,80
6193.75,67,0.25,63.5,1,0,0,126.0,64,100,80
6194.0,64,0.5,63.5,1,0,0,126.0,64,100,80
6194.5,64,0.5,63.5,1,0,0,126.0,64,100,80
6195.0,71,2.0,63.5,1,0,0,126.0,64,100,80
6197.0,69,2.0,63.5,1,0,0,126.0,64,100,80
6199.0,62,0.5,63.5,1,0,0,126.0,64,100,80
6199.5,64,0.5,42.33,1,0,0,126.0,64,100,80
6200.0,60,1.0,42.33,50,9,0,126.0,64,100,80
6201.0,0,1.0,42.33,49,9,0,120.0,64,100,80
6202.0,67,0.25,42.33,1,0,0,120.0,64,100,80
6202.25,60,1.0,42.33,1,0,0,120.0,64,100,80
6203.25,60,1.0,42.33,50,9,0,144.9,64,100,80
6204.25,67,0.25,42.33,1,0,0,126.0,64,100,80
6204.5,64,0.5,42.33,1,0,0,126.0,64,100,80
6205.0,71,2.0,42.33,1,0,0,126.0,64,100,80
6207.0,60,1.0,42.33,1,0,0,126.0,64,100,80
6208.0,67,0.25,42.33,1,0,0,126.0,64,100,80
6208.25,69,2.0,42.33,1,0,0,126.0,64,100,80
6210.25,69,2.0,74.08,1,0,0,126.0,64,100,80
6212.25,65,1.0,74.08,1,0,0,126.0,64,100,80
6213.25,0,1.0,74.08,49,9,0,120.0,64,100,80
6214.25,64,0.5,74.08,1,0,0,120.0,64,100,80
6214.75,71,2.0,74.08,1,0,0,120.0,64,100,80
6216.75,60,1.0,74.08,1,0,0,120.0,64,100,80
6217.75,60,1.0,74.08,1,0,0,144.9,64,100,80
6218.75,64,0.5,74.08,1,0,0,126.0,64,100,80
6219.25,69,2.0,74.08,1,0,0,126.0,64,100,80
6221.25,60,1.0,74.08,1,0,0,126.0,64,100,80
6222.25,69,2.0,74.08,1,0,0,126.0,64,100,80
6224.25,62,0.5,74.08,1,0,0,126.0,64,100,80
6224.75,62,0.5,84.66,1,0,0,152.14499999999998,64,100,80
6225.25,62,0.5,84.66,1,0,0,319.5045,64,100,80
6225.75,69,2.0,84.66,1,0,0,138.91500000000002,64,100,80
6227.75,62,0.5,84.66,1,0,0,138.91500000000002,64,100,80
6228.25,64,0.5,84.66,1,0,0,138.91500000000002,64,100,80
6228.75,69,2.0,84.66,1,0,0,138.91500000000002,64,100,80
6230.75,62,0.5,84.66,1,0,0,138.91500000000002,64,100,80
6231.25,64,0.5,84.66,1,0,0,138.91500000000002,64,100,80
6231.75,64,0.5,84.66,1,0,0,138.91500000000002,64,100,80
6232.25,64,0.5,84.66,1,0,0,138.91500000000002,64,100,80
6232.75,67,0.25,84.66,1,0,0,138.91500000000002,64,100,80
6233.0,60,1.0,84.66,1,0,0,138.91500000000002,64,100,80
6234.0,64,0.5,42.33,1,0,0,138.91500000000002,64,100,80
6234.5,69,2.0,42.33,1,0,0,138.91500000000002,64,100,80
6236.5,60,1.0,42.33,1,0,0,138.91500000000002,64,100,80
6237.5,60,1.0,42.33,39,9,0,167.73986250000002,64,100,80
6238.5,60,1.0,42.33,1,0,0,352.2537112500001,64,100,80
6239.5,60,1.0,42.33,1,0,0,153.15378750000005,64,100,80
6240.5,60,1.0,42.33,1,0,0,153.15378750000005,64,100,80
6241.5,62,0.5,42.33,1,0,0,153.15378750000005,64,100,80
6242.0,64,1.0,42.33,49,9,0,153.15378750000005,64,100,80
6243.0,66,0.25,42.33,50,9,0,153.15378750000005,64,100,80
6243.25,59,1.0,42.33,1,0,0,153.15378750000005,64,100,80
6244.25,66,0.25,42.33,1,0,0,153.15378750000005,64,100,80
6244.5,59,1.0,42.33,1,0,0,153.15378750000005,64,100,80
6245.5,61,0.5,42.33,1,0,0,153.15378750000005,64,100,80
6246.0,59,1.0,42.33,1,0,0,153.15378750000005,64,100,80
6247.0,70,2.0,42.33,1,0,0,153.15378750000005,64,100,80
6249.0,59,1.0,42.33,1,0,0,153.15378750000005,64,100,80
6250.0,59,1.0,42.33,1,0,0,153.15378750000005,64,100,80
6251.0,70,2.0,42.33,50,9,0,153.15378750000005,64,100,80
6253.0,68,2.0,42.33,1,0,0,153.15378750000005,64,100,80
6255.0,61,0.5,42.33,1,0,0,153.15378750000005,64,100,80
6255.5,64,1.0,42.33,49,9,0,153.15378750000005,64,100,80
6256.5,59,1.0,42.33,1,0,0,153.15378750000005,64,100,80
6257.5,61,0.5,42.33,1,0,0,153.15378750000005,64,100,80
6258.0,61,0.5,95.25,1,0,0,153.15378750000005,64,100,80
6258.5,61,0.5,95.25,1,0,0,153.15378750000005,64,100,80
6259.0,59,1.0,95.25,1,0,0,153.15378750000005,64,100,80
6260.0,59,1.0,95.25,1,0,0,153.15378750000005,64,100,80
6261.0,61,0.5,95.25,50,9,0,153.15378750000005,64,100,80
6261.5,66,0.25,95.25,1,0,0,153.15378750000005,64,100,80
6261.75,61,0.5,95.25,1,0,0,153.15378750000005,64,100,80
6262.25,63,0.5,95.25,1,0,0,153.15378750000005,64,100,80
6262.75,68,2.0,95.25,1,0,0,153.15378750000005,64,100,80
6264.75,64,1.0,95.25,1,0,0,153.15378750000005,64,100,80
6265.75,70,2.0,95.25,1,0,0,153.15378750000005,64,100,80
6267.75,68,2.0,95.25,1,0,0,153.15378750000005,64,100,80
6269.75,61,0.5,84.66,1,0,0,153.15378750000005,64,100,80
6270.25,70,2.0,84.66,1,0,0,153.15378750000005,64,100,80
6272.25,64,1.0,84.66,50,9,0,153.15378750000005,64,100,80
6273.25,68,2.0,84.66,1,0,0,153.15378750000005,64,100,80
6275.25,59,1.0,84.66,1,0,0,153.15378750000005,64,100,80
6276.25,63,0.5,84.66,1,0,0,153.15378750000005,64,100,80
6276.75,59,1.0,84.66,1,0,0,153.15378750000005,64,100,80
6277.75,63,0.5,84.66,1,0,0,153.15378750000005,64,100,80
6278.25,61,0.5,84.66,1,0,0,153.15378750000005,64,100,80
6278.75,59,1.0,84.66,1,0,0,153.15378750000005,64,100,80
6279.75,61,0.5,84.66,1,0,0,153.15378750000005,64,100,80
6280.25,59,1.0,84.66,1,0,0,153.15378750000005,64,100,80
6281.25,70,2.0,63.5,50,9,0,153.15378750000005,64,100,80
6283.25,68,2.0,63.5,1,0,0,153.15378750000005,64,100,80
6285.25,63,0.5,63.5,1,0,0,153.15378750000005,64,100,80
6285.75,61,0.5,63.5,1,0,0,153.15378750000005,64,100,80
6286.25,63,0.5,63.5,1,0,0,153.15378750000005,64,100,80
6286.75,61,0.5,63.5,1,0,0,153.15378750000005,64,100,80
6287.25,61,0.5,63.5,1,0,0,184.93319840625003,64,100,80
6287.75,68,2.0,63.5,1,0,0,160.81147687500004,64,100,80
6289.75,59,1.0,63.5,1,0,0,160.81147687500004,64,100,80
6290.75,70,2.0,63.5,1,0,0,160.81147687500004,64,100,80
6292.75,66,0.25,63.5,1,0,0,160.81147687500004,64,100,80
6293.0,61,0.5,63.5,1,0,0,160.81147687500004,64,100,80
6293.5,64,1.0,42.33,1,0,0,160.81147687500004,64,100,80
6294.5,63,0.5,42.33,49,9,0,160.81147687500004,64,100,80
6295.0,61,0.5,42.33,1,0,0,160.81147687500004,64,100,80
6295.5,61,0.5,42.33,1,0,0,194.17985832656254,64,100,80
6296.0,59,1.0,42.33,50,9,0,168.85205071875006,64,100,80
6297.0,61,0.5,42.33,1,0,0,168.85205071875006,64,100,80
6297.5,59,1.0,42.33,1,0,0,168.85205071875006,64,100,80
6298.5,63,0.5,42.33,1,0,0,168.85205071875006,64,100,80
6299.0,59,1.0,42.33,1,0,0,168.85205071875006,64,100,80
6300.0,59,1.0,42.33,1,0,0,168.85205071875006,64,100,80
6301.0,61,0.5,42.33,1,0,0,168.85205071875006,64,100,80
6301.5,61,0.5,42.33,1,0,0,168.85205071875006,64,100,80
6302.0,61,0.5,63.5,1,0,0,203.8888512428907,64,100,80
6302.5,70,2.0,63.5,1,0,0,177.29465325468757,64,100,80
6304.5,59,1.0,63.5,1,0,0,177.29465325468757,64,100,80
6305.5,63,0.5,63.5,1,0,0,177.29465325468757,64,100,80
6306.0,59,1.0,63.5,1,0,0,177.29465325468757,64,100,80
6307.0,68,2.0,63.5,50,9,0,177.29465325468757,64,100,80
6309.0,0,1.0,63.5,49,9,0,120.0,64,100,80
6310.0,62,0.5,63.5,1,0,0,120.0,64,100,80
6310.5,0,1.0,63.5,49,9,0,120.0,64,100,80
6311.5,60,1.0,63.5,49,9,0,120.0,64,100,80
6312.5,65,1.0,63.5,1,0,0,120.0,64,100,80
6313.5,69,2.0,63.5,1,0,0,120.0,64,100,80
6315.5,62,0.5,74.08,1,0,0,120.0,64,100,80
6316.0,60,1.0,74.08,1,0,0,120.0,64,100,80
6317.0,67,0.25,74.08,1,0,0,120.0,64,100,80
6317.25,60,1.0,74.08,1,0,0,120.0,64,100,80
6318.25,62,0.5,74.08,1,0,0,120.0,64,100,80
6318.75,60,1.0,74.08,1,0,0,120.0,64,100,80
6319.75,71,2.0,74.08,1,0,0,120.0,64,100,80
6321.75,60,1.0,74.08,1,0,0,120.0,64,100,80
6322.75,67,0.25,74.08,1,0,0,120.0,64,100,80
6323.0,60,1.0,74.08,1,0,0,120.0,64,100,80
6324.0,67,0.25,74.08,1,0,0,120.0,64,100,80
6324.25,60,1.0,74.08,1,0,0,120.0,64,100,80
6325.25,62,0.5,84.66,1,0,0,120.0,64,100,80
6325.75,64,0.5,84.66,1,0,0,120.0,64,100,80
6326.25,60,1.0,84.66,51,9,0,120.0,64,100,80
6327.25,60,1.0,84.66,1,0,0,120.0,64,100,80
6328.25,60,1.0,84.66,1,0,0,120.0,64,100,80
6329.25,62,0.5,84.66,1,0,0,120.0,64,100,80
6329.75,64,0.5,84.66,1,0,0,120.0,64,100,80
6330.25,67,0.25,84.66,1,0,0,120.0,64,100,80
6330.5,64,0.5,84.66,1,0,0,120.0,64,100,80
6331.0,60,1.0,84.66,1,0,0,120.0,64,100,80
6332.0,64,0.5,84.66,1,0,0,120.0,64,100,80
6332.5,64,0.5,84.66,1,0,0,144.9,64,100,80
6333.0,64,1.0,52.91,50,9,0,126.0,64,100,80
6334.0,64,1.0,52.91,1,0,0,126.0,64,100,80
6335.0,63,0.5,52.91,51,9,0,126.0,64,100,80
6335.5,59,1.0,52.91,1,0,0,126.0,64,100,80
6336.5,59,1.0,52.91,1,0,0,126.0,64,100,80
6337.5,63,0.5,52.91,1,0,0,126.0,64,100,80
6338.0,64,1.0,52.91,50,9,0,126.0,64,100,80
6339.0,63,0.5,52.91,1,0,0,126.0,64,100,80
6339.5,66,0.25,52.91,1,0,0,126.0,64,100,80
6339.75,0,1.0,52.91,49,9,0,120.0,64,100,80
6340.75,64,0.5,52.91,1,0,0,120.0,64,100,80
6341.25,64,0.5,52.91,1,0,0,144.9,64,100,80
6341.75,69,2.0,63.5,1,0,0,126.0,64,100,80
6343.75,60,1.0,63.5,1,0,0,126.0,64,100,80
6344.75,62,0.5,63.5,1,0,0,126.0,64,100,80
6345.25,69,2.0,63.5,1,0,0,126.0,64,100,80
6347.25,60,1.0,63.5,1,0,0,126.0,64,100,80
6348.25,64,1.0,63.5,50,9,0,126.0,64,100,80
6349.25,61,0.5,63.5,1,0,0,126.0,64,100,80
6349.75,68,2.0,63.5,1,0,0,126.0,64,100,80
6351.75,61,0.5,63.5,51,9,0,126.0,64,100,80
6352.25,70,2.0,63.5,50,9,0,126.0,64,100,80
6354.25,66,0.25,63.5,1,0,0,126.0,64,100,80
6354.5,64,1.0,63.5,1,0,0,126.0,64,100,80
6355.5,68,2.0,52.91,1,0,0,126.0,64,100,80
6357.5,68,2.0,52.91,51,9,0,126.0,64,100,80
6359.5,59,1.0,52.91,1,0,0,126.0,64,100,80
6360.5,59,1.0,52.91,1,0,0,126.0,64,100,80
6361.5,68,2.0,52.91,51,9,0,126.0,64,100,80
6363.5,66,0.25,52.91,50,9,0,126.0,64,100,80
6363.75,68,2.0,52.91,1,0,0,126.0,64,100,80
6365.75,59,1.0,52.91,1,0,0,126.0,64,100,80
6366.75,63,0.5,52.91,49,9,0,126.0,64,100,80
6367.25,59,1.0,52.91,1,0,0,126.0,64,100,80
6368.25,68,2.0,52.91,1,0,0,126.0,64,100,80
6370.25,66,0.25,52.91,1,0,0,126.0,64,100,80
6370.5,61,0.5,74.08,1,0,0,126.0,64,100,80
6371.0,61,0.5,74.08,1,0,0,126.0,64,100,80
6371.5,63,0.5,74.08,1,0,0,126.0,64,100,80
6372.0,70,2.0,74.08,1,0,0,126.0,64,100,80
6374.0,70,2.0,74.08,1,0,0,152.14499999999998,64,100,80
6376.0,63,0.5,74.08,1,0,0,132.3,64,100,80
6376.5,66,0.25,74.08,1,0,0,132.3,64,100,80
6376.75,59,1.0,74.08,1,0,0,132.3,64,100,80
6377.75,59,1.0,74.08,50,9,0,132.3,64,100,80
6378.75,66,0.25,74.08,1,0,0,132.3,64,100,80
6379.0,66,0.25,74.08,1,0,0,159.75225,64,100,80
6379.25,68,2.0,74.08,1,0,0,138.91500000000002,64,100,80
6381.25,59,1.0,84.66,1,0,0,138.91500000000002,64,100,80
6382.25,61,0.5,84.66,1,0,0,138.91500000000002,64,100,80
6382.75,59,1.0,84.66,1,0,0,138.91500000000002,64,100,80
6383.75,63,0.5,84.66,1,0,0,138.91500000000002,64,100,80
6384.25,59,1.0,84.66,1,0,0,138.91500000000002,64,100,80
6385.25,59,1.0,84.66,1,0,0,167.73986250000002,64,100,80
6386.25,64,1.0,84.66,1,0,0,145.86075000000002,64,100,80
6387.25,59,1.0,84.66,1,0,0,145.86075000000002,64,100,80
6388.25,0,1.0,84.66,49,9,0,120.0,64,100,80
6389.25,62,0.5,84.66,1,0,0,120.0,64,100,80
6389.75,64,0.5,84.66,1,0,0,120.0,64,100,80
6390.25,60,1.0,84.66,1,0,0,120.0,64,100,80
6391.25,62,0.5,52.91,1,0,0,120.0,64,100,80
6391.75,65,1.0,52.91,1,0,0,120.0,64,100,80
6392.75,67,0.25,52.91,1,0,0,120.0,64,100,80
6393.0,67,0.25,52.91,1,0,0,144.9,64,100,80
6393.25,0,1.0,52.91,49,9,0,120.0,64,100,80
6394.25,60,1.0,52.91,1,0,0,120.0,64,100,80
6395.25,64,0.5,52.91,1,0,0,120.0,64,100,80
6395.75,67,0.25,52.91,1,0,0,120.0,64,100,80
6396.0,64,0.5,52.91,1,0,0,120.0,64,100,80
6396.5,60,1.0,52.91,1,0,0,120.0,64,100,80
6397.5,60,1.0,52.91,1,0,0,120.0,64,100,80
6398.5,60,1.0,52.91,1,0,0,144.9,64,100,80
6399.5,62,0.5,42.33,1,0,0,126.0,64,100,80
6400.0,62,0.5,42.33,1,0,0,152.14499999999998,64,100,80
6400.5,60,1.0,42.33,1,0,0,132.3,64,100,80
6401.5,60,1.0,42.33,1,0,0,159.75225,64,100,80
6402.5,0,1.0,42.33,49,9,0,120.0,64,100,80
6403.5,71,2.0,42.33,1,0,0,120.0,64,100,80
6405.5,0,1.0,42.33,49,9,0,120.0,64,100,80
6406.5,64,0.5,42.33,1,0,0,120.0,64,100,80
6407.0,60,1.0,42.33,1,0,0,120.0,64,100,80
6408.0,67,0.25,42.33,1,0,0,120.0,64,100,80
6408.25,64,0.5,42.33,49,9,0,120.0,64,100,80
6408.75,60,1.0,42.33,1,0,0,120.0,64,100,80
6409.75,62,0.5,42.33,1,0,0,120.0,64,100,80
6410.25,64,0.5,42.33,1,0,0,120.0,64,100,80
6410.75,62,0.5,42.33,1,0,0,120.0,64,100,80
6411.25,60,1.0,42.33,1,0,0,120.0,64,100,80
6412.25,64,0.5,42.33,1,0,0,120.0,64,100,80
6412.75,69,2.0,42.33,1,0,0,120.0,64,100,80
6414.75,0,1.0,42.33,49,9,0,120.0,64,100,80
6415.75,64,0.5,42.33,49,9,0,120.0,64,100,80
6416.25,60,1.0,42.33,1,0,0,120.0,64,100,80
6417.25,69,2.0,42.33,1,0,0,120.0,64,100,80
6419.25,60,1.0,42.33,1,0,0,120.0,64,100,80
6420.25,60,1.0,42.33,1,0,0,120.0,64,100,80
6421.25,60,1.0,84.66,50,9,0,144.9,64,100,80
6422.25,62,0.5,84.66,1,0,0,126.0,64,100,80
6422.75,60,1.0,84.66,1,0,0,126.0,64,100,80
6423.75,67,0.25,84.66,1,0,0,126.0,64,100,80
6424.0,62,0.5,84.66,1,0,0,126.0,64,100,80
6424.5,64,0.5,84.66,1,0,0,126.0,64,100,80
6425.0,60,1.0,84.66,1,0,0,126.0,64,100,80
6426.0,60,1.0,84.66,1,0,0,126.0,64,100,80
6427.0,67,0.25,84.66,1,0,0,126.0,64,100,80
6427.25,64,0.5,84.66,49,9,0,126.0,64,100,80
6427.75,64,1.0,84.66,50,9,0,126.0,64,100,80
6428.75,70,2.0,84.66,1,0,0,126.0,64,100,80
6430.75,63,0.5,74.08,1,0,0,126.0,64,100,80
6431.25,64,1.0,74.08,50,9,0,126.0,64,100,80
6432.25,59,1.0,74.08,1,0,0,126.0,64,100,80
6433.25,59,1.0,74.08,1,0,0,126.0,64,100,80
6434.25,63,0.5,74.08,51,9,0,126.0,64,100,80
6434.75,64,1.0,74.08,50,9,0,126.0,64,100,80
6435.75,61,0.5,74.08,1,0,0,126.0,64,100,80
6436.25,70,2.0,74.08,1,0,0,126.0,64,100,80
6438.25,59,1.0,74.08,1,0,0,126.0,64,100,80
6439.25,61,0.5,74.08,1,0,0,126.0,64,100,80
6439.75,63,0.5,74.08,1,0,0,126.0,64,100,80
6440.25,68,2.0,74.08,1,0,0,126.0,64,100,80
6442.25,61,0.5,74.08,1,0,0,126.0,64,100,80
6442.75,59,1.0,74.08,1,0,0,126.0,64,100,80
6443.75,61,0.5,74.08,1,0,0,126.0,64,100,80
6444.25,59,1.0,74.08,1,0,0,126.0,64,100,80
6445.25,59,1.0,74.08,51,9,0,126.0,64,100,80
6446.25,66,0.25,74.08,1,0,0,126.0,64,100,80
6446.5,59,1.0,74.08,1,0,0,126.0,64,100,80
6447.5,68,2.0,74.08,1,0,0,126.0,64,100,80
6449.5,63,0.5,74.08,1,0,0,126.0,64,100,80
6450.0,59,1.0,74.08,1,0,0,126.0,64,100,80
6451.0,64,1.0,74.08,1,0,0,126.0,64,100,80
6452.0,61,0.5,74.08,1,0,0,126.0,64,100,80
6452.5,68,2.0,74.08,1,0,0,126.0,64,100,80
6454.5,63,0.5,74.08,1,0,0,126.0,64,100,80
6455.0,68,2.0,74.08,1,0,0,126.0,64,100,80
6457.0,61,0.5,74.08,1,0,0,126.0,64,100,80
6457.5,61,0.5,74.08,1,0,0,126.0,64,100,80
6458.0,61,0.5,74.08,1,0,0,126.0,64,100,80
6458.5,59,1.0,74.08,1,0,0,126.0,64,100,80
6459.5,59,1.0,74.08,1,0,0,152.14499999999998,64,100,80
6460.5,66,0.25,74.08,1,0,0,132.3,64,100,80
6460.75,61,0.5,74.08,1,0,0,132.3,64,100,80
6461.25,59,1.0,74.08,1,0,0,132.3,64,100,80
6462.25,61,0.5,74.08,1,0,0,132.3,64,100,80
6462.75,66,0.25,63.5,1,0,0,132.3,64,100,80
6463.0,68,2.0,63.5,1,0,0,132.3,64,100,80
6465.0,66,0.25,63.5,1,0,0,132.3,64,100,80
6465.25,61,0.5,63.5,1,0,0,132.3,64,100,80
6465.75,61,0.5,63.5,1,0,0,159.75225,64,100,80
6466.25,61,0.5,63.5,1,0,0,335.47972500000003,64,100,80
6466.75,70,2.0,63.5,1,0,0,145.86075000000002,64,100,80
6468.75,61,0.5,63.5,1,0,0,145.86075000000002,64,100,80
6469.25,59,1.0,63.5,1,0,0,145.86075000000002,64,100,80
6470.25,63,0.5,63.5,1,0,0,145.86075000000002,64,100,80
6470.75,61,0.5,63.5,1,0,0,145.86075000000002,64,100,80
6471.25,59,1.0,63.5,1,0,0,145.86075000000002,64,100,80
6472.25,63,0.5,63.5,1,0,0,145.86075000000002,64,100,80
6472.75,59,1.0,63.5,1,0,0,145.86075000000002,64,100,80
6473.75,68,2.0,63.5,51,9,0,145.86075000000002,64,100,80
6475.75,64,1.0,63.5,50,9,0,145.86075000000002,64,100,80
6476.75,59,1.0,63.5,1,0,0,145.86075000000002,64,100,80
6477.75,59,1.0,63.5,1,0,0,176.12685562500005,64,100,80
6478.75,63,0.5,63.5,1,0,0,153.15378750000005,64,100,80
6479.25,59,1.0,63.5,1,0,0,153.15378750000005,64,100,80
6480.25,0,1.0,63.5,49,9,0,120.0,64,100,80
6481.25,62,0.5,63.5,1,0,0,120.0,64,100,80
6481.75,60,1.0,63.5,1,0,0,120.0,64,100,80
6482.75,62,0.5,63.5,1,0,0,120.0,64,100,80
6483.25,69,2.0,63.5,1,0,0,120.0,64,100,80
6485.25,60,1.0,63.5,1,0,0,120.0,64,100,80
6486.25,64,1.0,63.5,50,9,0,120.0,64,100,80
6487.25,63,0.5,63.5,1,0,0,120.0,64,100,80
6487.75,61,0.5,63.5,1,0,0,120.0,64,100,80
6488.25,61,0.5,63.5,1,0,0,120.0,64,100,80
6488.75,64,1.0,63.5,1,0,0,120.0,64,100,80
6489.75,59,1.0,63.5,1,0,0,120.0,64,100,80
6490.75,63,0.5,63.5,1,0,0,120.0,64,100,80
6491.25,63,0.5,63.5,1,0,0,120.0,64,100,80
6491.75,66,0.25,63.5,49,9,0,120.0,64,100,80
6492.0,66,0.25,63.5,1,0,0,120.0,64,100,80
6492.25,68,2.0,74.08,1,0,0,120.0,64,100,80
6494.25,64,1.0,74.08,1,0,0,120.0,64,100,80
6495.25,70,2.0,74.08,51,9,0,120.0,64,100,80
6497.25,61,0.5,74.08,50,9,0,120.0,64,100,80
6497.75,61,0.5,74.08,1,0,0,120.0,64,100,80
6498.25,59,1.0,74.08,1,0,0,120.0,64,100,80
6499.25,63,0.5,74.08,1,0,0,120.0,64,100,80
6499.75,61,0.5,74.08,1,0,0,120.0,64,100,80
6500.25,63,0.5,74.08,1,0,0,120.0,64,100,80
6500.75,59,1.0,74.08,1,0,0,120.0,64,100,80
6501.75,68,2.0,74.08,1,0,0,120.0,64,100,80
6503.75,70,2.0,74.08,1,0,0,120.0,64,100,80
6505.75,70,2.0,84.66,50,9,0,120.0,64,100,80
6507.75,59,1.0,84.66,1,0,0,120.0,64,100,80
6508.75,59,1.0,84.66,1,0,0,120.0,64,100,80
6509.75,68,2.0,84.66,1,0,0,120.0,64,100,80
6511.75,68,2.0,84.66,1,0,0,144.9,64,100,80
6513.75,64,1.0,84.66,50,9,0,126.0,64,100,80
6514.75,59,1.0,84.66,1,0,0,126.0,64,100,80
6515.75,61,0.5,84.66,1,0,0,126.0,64,100,80
6516.25,68,2.0,84.66,1,0,0,126.0,64,100,80
6518.25,61,0.5,84.66,1,0,0,126.0,64,100,80
6518.75,63,0.5,84.66,1,0,0,126.0,64,100,80
6519.25,64,1.0,84.66,1,0,0,126.0,64,100,80
6520.25,64,1.0,63.5,1,0,0,126.0,64,100,80
6521.25,63,0.5,63.5,1,0,0,126.0,64,100,80
6521.75,63,0.5,63.5,1,0,0,152.14499999999998,64,100,80
6522.25,61,0.5,63.5,1,0,0,132.3,64,100,80
6522.75,59,1.0,63.5,1,0,0,132.3,64,100,80
6523.75,66,0.25,63.5,1,0,0,132.3,64,100,80
6524.0,64,1.0,63.5,1,0,0,132.3,64,100,80
6525.0,59,1.0,63.5,1,0,0,132.3,64,100,80
6526.0,64,1.0,63.5,1,0,0,132.3,64,100,80
6527.0,59,1.0,63.5,1,0,0,132.3,64,100,80
6528.0,61,0.5,63.5,1,0,0,132.3,64,100,80
6528.5,0,1.0,63.5,49,9,0,120.0,64,100,80
6529.5,62,0.5,63.5,1,0,0,120.0,64,100,80
6530.0,62,0.5,63.5,1,0,0,120.0,64,100,80
6530.5,60,1.0,63.5,1,0,0,120.0,64,100,80
6531.5,65,1.0,63.5,1,0,0,120.0,64,100,80
6532.5,60,1.0,63.5,1,0,0,120.0,64,100,80
6533.5,60,1.0,63.5,1,0,0,120.0,64,100,80
6534.5,62,0.5,63.5,1,0,0,120.0,64,100,80
6535.0,69,2.0,63.5,1,0,0,120.0,64,100,80
6537.0,64,0.5,63.5,1,0,0,120.0,64,100,80
6537.5,62,0.5,63.5,1,0,0,120.0,64,100,80
6538.0,64,0.5,63.5,1,0,0,120.0,64,100,80
6538.5,0,1.0,63.5,49,9,0,120.0,64,100,80
6539.5,64,0.5,52.91,1,0,0,120.0,64,100,80
6540.0,71,2.0,52.91,1,0,0,120.0,64,100,80
6542.0,64,0.5,52.91,1,0,0,120.0,64,100,80
6542.5,65,1.0,52.91,1,0,0,120.0,64,100,80
6543.5,65,1.0,52.91,1,0,0,144.9,64,100,80
6544.5,0,1.0,52.91,49,9,0,120.0,64,100,80
6545.5,0,1.0,52.91,49,9,0,144.9,64,100,80
6546.5,60,1.0,52.91,1,0,0,126.0,64,100,80
6547.5,60,1.0,52.91,1,0,0,152.14499999999998,64,100,80
6548.5,0,1.0,52.91,49,9,0,120.0,64,100,80
6549.5,60,1.0,52.91,1,0,0,120.0,64,100,80
6550.5,64,0.5,52.91,1,0,0,120.0,64,100,80
6551.0,60,1.0,52.91,1,0,0,120.0,64,100,80
6552.0,60,1.0,52.91,1,0,0,120.0,64,100,80
6553.0,67,0.25,52.91,1,0,0,120.0,64,100,80
6553.25,60,1.0,52.91,1,0,0,120.0,64,100,80
6554.25,62,0.5,52.91,1,0,0,120.0,64,100,80
6554.75,64,0.5,52.91,49,9,0,120.0,64,100,80
6555.25,62,0.5,52.91,1,0,0,120.0,64,100,80
6555.75,60,1.0,52.91,1,0,0,120.0,64,100,80
6556.75,64,0.5,52.91,1,0,0,120.0,64,100,80
6557.25,62,0.5,52.91,1,0,0,120.0,64,100,80
6557.75,69,2.0,52.91,1,0,0,120.0,64,100,80
6559.75,67,0.25,52.91,1,0,0,120.0,64,100,80
6560.0,62,0.5,52.91,1,0,0,120.0,64,100,80
6560.5,69,2.0,52.91,1,0,0,120.0,64,100,80
6562.5,64,1.0,52.91,50,9,0,120.0,64,100,80
6563.5,61,0.5,52.91,1,0,0,120.0,64,100,80
6564.0,66,0.25,52.91,1,0,0,120.0,64,100,80
6564.25,64,1.0,52.91,1,0,0,120.0,64,100,80
6565.25,59,1.0,52.91,1,0,0,120.0,64,100,80
6566.25,63,0.5,52.91,1,0,0,120.0,64,100,80
6566.75,61,0.5,52.91,1,0,0,120.0,64,100,80
6567.25,63,0.5,52.91,1,0,0,120.0,64,100,80
6567.75,61,0.5,52.91,1,0,0,120.0,64,100,80
6568.25,61,0.5,52.91,1,0,0,144.9,64,100,80
6568.75,63,0.5,52.91,1,0,0,126.0,64,100,80
6569.25,68,2.0,52.91,1,0,0,126.0,64,100,80
6571.25,61,0.5,52.91,1,0,0,126.0,64,100,80
6571.75,68,2.0,52.91,1,0,0,126.0,64,100,80
6573.75,59,1.0,52.91,1,0,0,126.0,64,100,80
6574.75,70,2.0,52.91,1,0,0,126.0,64,100,80
6576.75,59,1.0,52.91,1,0,0,126.0,64,100,80
6577.75,59,1.0,52.91,1,0,0,152.14499999999998,64,100,80
6578.75,63,0.5,52.91,1,0,0,132.3,64,100,80
6579.25,68,2.0,52.91,1,0,0,132.3,64,100,80
6581.25,59,1.0,52.91,1,0,0,132.3,64,100,80
6582.25,59,1.0,52.91,50,9,0,132.3,64,100,80
6583.25,0,1.0,52.91,49,9,0,120.0,64,100,80
6584.25,69,2.0,52.91,1,0,0,120.0,64,100,80
6586.25,65,1.0,52.91,1,0,0,120.0,64,100,80
6587.25,60,1.0,52.91,1,0,0,120.0,64,100,80
6588.25,64,0.5,52.91,1,0,0,120.0,64,100,80
6588.75,62,0.5,52.91,1,0,0,120.0,64,100,80
6589.25,60,1.0,52.91,1,0,0,120.0,64,100,80
6590.25,71,2.0,52.91,1,0,0,120.0,64,100,80
6592.25,60,1.0,52.91,1,0,0,120.0,64,100,80
6593.25,67,0.25,52.91,1,0,0,120.0,64,100,80
6593.5,69,2.0,52.91,1,0,0,120.0,64,100,80
6595.5,60,1.0,52.91,1,0,0,120.0,64,100,80
6596.5,62,0.5,95.25,1,0,0,120.0,64,100,80
6597.0,64,0.5,95.25,1,0,0,120.0,64,100,80
6597.5,64,0.5,95.25,1,0,0,120.0,64,100,80
6598.0,60,1.0,95.25,1,0,0,120.0,64,100,80
6599.0,60,1.0,95.25,1,0,0,144.9,64,100,80
6600.0,62,0.5,95.25,1,0,0,126.0,64,100,80
6600.5,62,0.5,95.25,1,0,0,126.0,64,100,80
6601.0,60,1.0,95.25,1,0,0,126.0,64,100,80
6602.0,64,0.5,95.25,49,9,0,126.0,64,100,80
6602.5,60,1.0,95.25,1,0,0,126.0,64,100,80
6603.5,60,1.0,95.25,1,0,0,152.14499999999998,64,100,80
6604.5,69,2.0,95.25,1,0,0,132.3,64,100,80
6606.5,60,1.0,105.83,1,0,0,132.3,64,100,80
6607.5,64,0.5,105.83,49,9,0,132.3,64,100,80
6608.0,64,0.5,105.83,1,0,0,159.75225,64,100,80
6608.5,60,1.0,105.83,49,9,0,138.91500000000002,64,100,80
6609.5,65,1.0,105.83,1,0,0,138.91500000000002,64,100,80
6610.5,62,0.5,105.83,1,0,0,138.91500000000002,64,100,80
6611.0,65,1.0,105.83,1,0,0,138.91500000000002,64,100,80
6612.0,71,2.0,105.83,1,0,0,138.91500000000002,64,100,80
6614.0,69,2.0,105.83,1,0,0,138.91500000000002,64,100,80
6616.0,65,1.0,105.83,1,0,0,138.91500000000002,64,100,80
6617.0,69,2.0,105.83,50,9,0,138.91500000000002,64,100,80
6619.0,62,0.5,105.83,1,0,0,138.91500000000002,64,100,80
6619.5,71,2.0,21.16,1,0,0,138.91500000000002,64,100,80
6621.5,60,1.0,21.16,1,0,0,138.91500000000002,64,100,80
6622.5,65,1.0,21.16,1,0,0,138.91500000000002,64,100,80
6623.5,62,0.5,21.16,1,0,0,138.91500000000002,64,100,80
6624.0,60,1.0,21.16,1,0,0,138.91500000000002,64,100,80
6625.0,60,1.0,21.16,1,0,0,167.73986250000002,64,100,80
6626.0,64,0.5,21.16,1,0,0,145.86075000000002,64,100,80
6626.5,60,1.0,21.16,1,0,0,145.86075000000002,64,100,80
6627.5,62,0.5,21.16,1,0,0,145.86075000000002,64,100,80
6628.0,60,1.0,21.16,1,0,0,145.86075000000002,64,100,80
6629.0,60,1.0,21.16,1,0,0,145.86075000000002,64,100,80
6630.0,65,1.0,21.16,1,0,0,145.86075000000002,64,100,80
6631.0,71,2.0,74.08,1,0,0,145.86075000000002,64,100,80
6633.0,67,0.25,74.08,1,0,0,145.86075000000002,64,100,80
6633.25,60,1.0,74.08,1,0,0,145.86075000000002,64,100,80
6634.25,65,1.0,74.08,1,0,0,145.86075000000002,64,100,80
6635.25,62,0.5,74.08,1,0,0,145.86075000000002,64,100,80
6635.75,60,1.0,74.08,1,0,0,145.86075000000002,64,100,80
6636.75,71,2.0,74.08,1,0,0,145.86075000000002,64,100,80
6638.75,60,1.0,74.08,1,0,0,145.86075000000002,64,100,80
6639.75,60,1.0,74.08,1,0,0,145.86075000000002,64,100,80
6640.75,67,0.25,74.08,1,0,0,145.86075000000002,64,100,80
6641.0,69,2.0,74.08,1,0,0,145.86075000000002,64,100,80
6643.0,67,0.25,74.08,1,0,0,145.86075000000002,64,100,80
6643.25,64,0.5,95.25,1,0,0,145.86075000000002,64,100,80
6643.75,69,2.0,95.25,1,0,0,145.86075000000002,64,100,80
6645.75,69,2.0,95.25,1,0,0,176.12685562500005,64,100,80
6647.75,69,2.0,95.25,1,0,0,369.86639681250006,64,100,80
6649.75,64,0.5,95.25,1,0,0,160.81147687500004,64,100,80
6650.25,65,1.0,95.25,1,0,0,160.81147687500004,64,100,80
6651.25,64,0.5,95.25,50,9,0,160.81147687500004,64,100,80
6651.75,62,0.5,95.25,49,9,0,160.81147687500004,64,100,80
6652.25,65,1.0,95.25,1,0,0,160.81147687500004,64,100,80
6653.25,62,0.5,95.25,1,0,0,160.81147687500004,64,100,80
6653.75,60,1.0,95.25,1,0,0,160.81147687500004,64,100,80
6654.75,69,2.0,95.25,1,0,0,160.81147687500004,64,100,80
6656.75,62,0.5,74.08,50,9,0,160.81147687500004,64,100,80
6657.25,67,0.25,74.08,1,0,0,160.81147687500004,64,100,80
6657.5,60,1.0,74.08,1,0,0,160.81147687500004,64,100,80
6658.5,69,2.0,74.08,1,0,0,160.81147687500004,64,100,80
6660.5,60,1.0,74.08,1,0,0,160.81147687500004,64,100,80
6661.5,60,1.0,74.08,1,0,0,160.81147687500004,64,100,80
6662.5,60,1.0,74.08,50,9,0,194.17985832656254,64,100,80
6663.5,0,1.0,74.08,49,9,0,120.0,64,100,80
6664.5,69,2.0,74.08,1,0,0,120.0,64,100,80
6666.5,62,0.5,74.08,1,0,0,120.0,64,100,80
6667.0,69,2.0,74.08,1,0,0,120.0,64,100,80
6669.0,62,0.5,74.08,1,0,0,120.0,64,100,80
6669.5,60,1.0,95.25,49,9,0,120.0,64,100,80
6670.5,65,1.0,95.25,1,0,0,120.0,64,100,80
6671.5,62,0.5,95.25,49,9,0,120.0,64,100,80
6672.0,64,0.5,95.25,49,9,0,120.0,64,100,80
6672.5,64,0.5,95.25,1,0,0,144.9,64,100,80
6673.0,69,2.0,95.25,1,0,0,126.0,64,100,80
6675.0,69,2.0,95.25,1,0,0,126.0,64,100,80
6677.0,62,0.5,95.25,1,0,0,126.0,64,100,80
6677.5,69,2.0,95.25,1,0,0,126.0,64,100,80
6679.5,62,0.5,95.25,1,0,0,126.0,64,100,80
6680.0,60,1.0,95.25,1,0,0,126.0,64,100,80
6681.0,69,2.0,95.25,1,0,0,126.0,64,100,80
6683.0,69,2.0,63.5,1,0,0,152.14499999999998,64,100,80
6685.0,71,2.0,63.5,49,9,0,132.3,64,100,80
6687.0,62,0.5,63.5,49,9,0,132.3,64,100,80
6687.5,65,1.0,63.5,1,0,0,132.3,64,100,80
6688.5,60,1.0,63.5,1,0,0,132.3,64,100,80
6689.5,60,1.0,63.5,1,0,0,159.75225,64,100,80
6690.5,62,0.5,63.5,1,0,0,138.91500000000002,64,100,80
6691.0,67,0.25,63.5,1,0,0,138.91500000000002,64,100,80
6691.25,60,1.0,63.5,1,0,0,138.91500000000002,64,100,80
6692.25,69,2.0,63.5,1,0,0,138.91500000000002,64,100,80
6694.25,71,2.0,63.5,50,9,0,138.91500000000002,64,100,80
6696.25,69,2.0,63.5,1,0,0,138.91500000000002,64,100,80
6698.25,65,1.0,95.25,1,0,0,138.91500000000002,64,100,80
6699.25,71,2.0,95.25,1,0,0,138.91500000000002,64,100,80
6701.25,60,1.0,95.25,1,0,0,138.91500000000002,64,100,80
6702.25,67,0.25,95.25,1,0,0,138.91500000000002,64,100,80
6702.5,60,1.0,95.25,1,0,0,138.91500000000002,64,100,80
6703.5,69,2.0,95.25,1,0,0,138.91500000000002,64,100,80
6705.5,71,2.0,95.25,1,0,0,138.91500000000002,64,100,80
6707.5,69,2.0,95.25,1,0,0,138.91500000000002,64,100,80
6709.5,60,1.0,95.25,1,0,0,138.91500000000002,64,100,80
6710.5,62,0.5,95.25,1,0,0,138.91500000000002,64,100,80
6711.0,71,2.0,95.25,1,0,0,138.91500000000002,64,100,80
6713.0,69,2.0,95.25,1,0,0,138.91500000000002,64,100,80
6715.0,69,2.0,95.25,1,0,0,138.91500000000002,64,100,80
6717.0,69,2.0,95.25,1,0,0,138.91500000000002,64,100,80
6719.0,64,0.5,95.25,1,0,0,138.91500000000002,64,100,80
6719.5,60,1.0,95.25,1,0,0,138.91500000000002,64,100,80
6720.5,62,0.5,95.25,1,0,0,138.91500000000002,64,100,80
6721.0,71,2.0,95.25,1,0,0,138.91500000000002,64,100,80
6723.0,65,1.0,95.25,1,0,0,138.91500000000002,64,100,80
6724.0,64,0.5,95.25,51,9,0,138.91500000000002,64,100,80
6724.5,64,1.0,95.25,50,9,0,138.91500000000002,64,100,80
6725.5,59,1.0,95.25,51,9,0,138.91500000000002,64,100,80
6726.5,64,1.0,95.25,50,9,0,138.91500000000002,64,100,80
6727.5,64,1.0,95.25,1,0,0,138.91500000000002,64,100,80
6728.5,59,1.0,74.08,1,0,0,138.91500000000002,64,100,80
6729.5,64,1.0,74.08,1,0,0,138.91500000000002,64,100,80
6730.5,59,1.0,74.08,1,0,0,138.91500000000002,64,100,80
6731.5,70,2.0,74.08,1,0,0,138.91500000000002,64,100,80
6733.5,68,2.0,74.08,1,0,0,138.91500000000002,64,100,80
6735.5,63,0.5,74.08,50,9,0,138.91500000000002,64,100,80
6736.0,66,0.25,74.08,1,0,0,138.91500000000002,64,100,80
6736.25,59,1.0,74.08,1,0,0,138.91500000000002,64,100,80
6737.25,59,1.0,74.08,1,0,0,167.73986250000002,64,100,80
6738.25,59,1.0,74.08,1,0,0,352.2537112500001,64,100,80
6739.25,68,2.0,74.08,1,0,0,153.15378750000005,64,100,80
6741.25,59,1.0,74.08,1,0,0,153.15378750000005,64,100,80
6742.25,64,1.0,74.08,1,0,0,153.15378750000005,64,100,80
6743.25,59,1.0,74.08,1,0,0,153.15378750000005,64,100,80
6744.25,64,1.0,74.08,1,0,0,153.15378750000005,64,100,80
6745.25,68,2.0,74.08,1,0,0,153.15378750000005,64,100,80
6747.25,61,0.5,74.08,1,0,0,153.15378750000005,64,100,80
6747.75,61,0.5,74.08,1,0,0,184.93319840625003,64,100,80
6748.25,59,1.0,74.08,1,0,0,160.81147687500004,64,100,80
6749.25,68,2.0,74.08,1,0,0,160.81147687500004,64,100,80
6751.25,66,0.25,74.08,1,0,0,160.81147687500004,64,100,80
6751.5,63,0.5,74.08,1,0,0,160.81147687500004,64,100,80
6752.0,63,0.5,74.08,1,0,0,194.17985832656254,64,100,80
6752.5,68,2.0,74.08,1,0,0,168.85205071875006,64,100,80
6754.5,0,1.0,84.66,49,9,0,120.0,64,100,80
6755.5,60,1.0,84.66,1,0,0,120.0,64,100,80
6756.5,60,1.0,84.66,1,0,0,120.0,64,100,80
6757.5,60,1.0,84.66,1,0,0,144.9,64,100,80
6758.5,69,2.0,84.66,1,0,0,126.0,64,100,80
6760.5,60,1.0,84.66,1,0,0,126.0,64,100,80
6761.5,60,1.0,84.66,1,0,0,126.0,64,100,80
6762.5,69,2.0,84.66,1,0,0,126.0,64,100,80
6764.5,60,1.0,84.66,1,0,0,126.0,64,100,80
6765.5,62,0.5,84.66,1,0,0,126.0,64,100,80
6766.0,62,0.5,84.66,1,0,0,152.14499999999998,64,100,80
6766.5,60,1.0,84.66,1,0,0,132.3,64,100,80
6767.5,65,1.0,84.66,1,0,0,132.3,64,100,80
6768.5,60,1.0,84.66,1,0,0,132.3,64,100,80
6769.5,71,2.0,84.66,1,0,0,132.3,64,100,80
6771.5,64,0.5,84.66,1,0,0,132.3,64,100,80
6772.0,62,0.5,84.66,1,0,0,132.3,64,100,80
6772.5,64,0.5,84.66,49,9,0,132.3,64,100,80
6773.0,64,1.0,84.66,50,9,0,132.3,64,100,80
6774.0,68,2.0,84.66,49,9,0,132.3,64,100,80
6776.0,59,1.0,84.66,1,0,0,132.3,64,100,80
6777.0,68,2.0,84.66,1,0,0,132.3,64,100,80
6779.0,68,2.0,84.66,1,0,0,159.75225,64,100,80
6781.0,68,2.0,84.66,1,0,0,138.91500000000002,64,100,80
6783.0,63,0.5,74.08,1,0,0,138.91500000000002,64,100,80
6783.5,68,2.0,74.08,1,0,0,138.91500000000002,64,100,80
6785.5,68,2.0,74.08,1,0,0,167.73986250000002,64,100,80
6787.5,68,2.0,74.08,1,0,0,145.86075000000002,64,100,80
6789.5,59,1.0,74.08,1,0,0,145.86075000000002,64,100,80
6790.5,61,0.5,74.08,1,0,0,145.86075000000002,64,100,80
6791.0,0,1.0,74.08,49,9,0,120.0,64,100,80
6792.0,65,1.0,74.08,49,9,0,120.0,64,100,80
6793.0,67,0.25,74.08,1,0,0,120.0,64,100,80
6793.25,64,0.5,74.08,49,9,0,120.0,64,100,80
6793.75,64,1.0,74.08,50,9,0,120.0,64,100,80
6794.75,59,1.0,74.08,1,0,0,120.0,64,100,80
6795.75,61,0.5,95.25,1,0,0,120.0,64,100,80
6796.25,64,1.0,95.25,49,9,0,120.0,64,100,80
6797.25,59,1.0,95.25,1,0,0,120.0,64,100,80
6798.25,59,1.0,95.25,1,0,0,120.0,64,100,80
6799.25,61,0.5,95.25,1,0,0,120.0,64,100,80
6799.75,68,2.0,95.25,1,0,0,120.0,64,100,80
6801.75,68,2.0,95.25,1,0,0,120.0,64,100,80
6803.75,68,2.0,95.25,1,0,0,120.0,64,100,80
6805.75,68,2.0,95.25,1,0,0,120.0,64,100,80
6807.75,68,2.0,95.25,1,0,0,144.9,64,100,80
6809.75,59,1.0,95.25,1,0,0,126.0,64,100,80
6810.75,59,1.0,95.25,1,0,0,126.0,64,100,80
6811.75,63,0.5,74.08,1,0,0,126.0,64,100,80
6812.25,70,2.0,74.08,1,0,0,126.0,64,100,80
6814.25,70,2.0,74.08,1,0,0,126.0,64,100,80
6816.25,59,1.0,74.08,1,0,0,126.0,64,100,80
6817.25,63,0.5,74.08,1,0,0,126.0,64,100,80
6817.75,70,2.0,74.08,1,0,0,126.0,64,100,80
6819.75,63,0.5,74.08,1,0,0,126.0,64,100,80
6820.25,59,1.0,74.08,1,0,0,126.0,64,100,80
6821.25,68,2.0,74.08,1,0,0,126.0,64,100,80
6823.25,68,2.0,74.08,1,0,0,152.14499999999998,64,100,80
6825.25,70,2.0,74.08,1,0,0,132.3,64,100,80
6827.25,59,1.0,74.08,1,0,0,132.3,64,100,80
6828.25,68,2.0,74.08,1,0,0,132.3,64,100,80
6830.25,61,0.5,74.08,1,0,0,132.3,64,100,80
6830.75,64,1.0,74.08,1,0,0,132.3,64,100,80
6831.75,68,2.0,74.08,1,0,0,132.3,64,100,80
6833.75,66,0.25,74.08,1,0,0,132.3,64,100,80
6834.0,66,0.25,74.08,49,9,0,132.3,64,100,80
6834.25,64,1.0,74.08,1,0,0,132.3,64,100,80
6835.25,61,0.5,74.08,1,0,0,132.3,64,100,80
6835.75,61,0.5,74.08,1,0,0,159.75225,64,100,80
6836.25,61,0.5,74.08,1,0,0,138.91500000000002,64,100,80
6836.75,68,2.0,74.08,1,0,0,138.91500000000002,64,100,80
6838.75,70,2.0,74.08,1,0,0,138.91500000000002,64,100,80
6840.75,63,0.5,52.91,50,9,0,138.91500000000002,64,100,80
6841.25,68,2.0,52.91,1,0,0,138.91500000000002,64,100,80
6843.25,63,0.5,52.91,1,0,0,138.91500000000002,64,100,80
6843.75,68,2.0,52.91,1,0,0,138.91500000000002,64,100,80
6845.75,64,1.0,52.91,1,0,0,138.91500000000002,64,100,80
6846.75,59,1.0,52.91,1,0,0,138.91500000000002,64,100,80
6847.75,68,2.0,52.91,38,9,0,138.91500000000002,64,100,80
6849.75,59,1.0,52.91,49,9,0,138.91500000000002,64,100,80
6850.75,59,1.0,52.91,1,0,0,138.91500000000002,64,100,80
6851.75,59,1.0,52.91,1,0,0,167.73986250000002,64,100,80
6852.75,59,1.0,52.91,1,0,0,145.86075000000002,64,100,80
6853.75,70,2.0,52.91,49,9,0,145.86075000000002,64,100,80
6855.75,64,1.0,52.91,1,0,0,145.86075000000002,64,100,80
6856.75,68,2.0,52.91,50,9,0,145.86075000000002,64,100,80
6858.75,68,2.0,52.91,1,0,0,145.86075000000002,64,100,80
6860.75,64,1.0,52.91,1,0,0,145.86075000000002,64,100,80
6861.75,68,2.0,52.91,1,0,0,145.86075000000002,64,100,80
6863.75,64,1.0,52.91,1,0,0,145.86075000000002,64,100,80
6864.75,61,0.5,52.91,1,0,0,145.86075000000002,64,100,80
6865.25,68,2.0,52.91,1,0,0,145.86075000000002,64,100,80
6867.25,59,1.0,52.91,1,0,0,145.86075000000002,64,100,80
6868.25,68,2.0,52.91,1,0,0,145.86075000000002,64,100,80
6870.25,64,1.0,52.91,50,9,0,145.86075000000002,64,100,80
6871.25,59,1.0,52.91,39,9,0,145.86075000000002,64,100,80
6872.25,59,1.0,84.66,1,0,0,145.86075000000002,64,100,80
6873.25,63,0.5,84.66,1,0,0,145.86075000000002,64,100,80
6873.75,64,1.0,84.66,50,9,0,145.86075000000002,64,100,80
6874.75,59,1.0,84.66,1,0,0,145.86075000000002,64,100,80
6875.75,68,2.0,84.66,1,0,0,145.86075000000002,64,100,80
6877.75,63,0.5,84.66,1,0,0,145.86075000000002,64,100,80
6878.25,59,1.0,84.66,1,0,0,145.86075000000002,64,100,80
6879.25,70,2.0,84.66,1,0,0,145.86075000000002,64,100,80
6881.25,59,1.0,84.66,1,0,0,145.86075000000002,64,100,80
6882.25,70,2.0,84.66,1,0,0,145.86075000000002,64,100,80
6884.25,59,1.0,84.66,1,0,0,145.86075000000002,64,100,80
6885.25,59,1.0,84.66,1,0,0,145.86075000000002,64,100,80
6886.25,70,2.0,95.25,50,9,0,145.86075000000002,64,100,80
6888.25,66,0.25,95.25,1,0,0,145.86075000000002,64,100,80
6888.5,64,1.0,95.25,49,9,0,145.86075000000002,64,100,80
6889.5,61,0.5,95.25,1,0,0,145.86075000000002,64,100,80
6890.0,63,0.5,95.25,1,0,0,145.86075000000002,64,100,80
6890.5,59,1.0,95.25,1,0,0,145.86075000000002,64,100,80
6891.5,70,2.0,95.25,1,0,0,145.86075000000002,64,100,80
6893.5,70,2.0,95.25,1,0,0,176.12685562500005,64,100,80
6895.5,68,2.0,95.25,1,0,0,153.15378750000005,64,100,80
6897.5,68,2.0,95.25,1,0,0,153.15378750000005,64,100,80
6899.5,63,0.5,95.25,1,0,0,153.15378750000005,64,100,80
6900.0,59,1.0,95.25,1,0,0,153.15378750000005,64,100,80
6901.0,64,1.0,95.25,1,0,0,153.15378750000005,64,100,80
6902.0,66,0.25,95.25,1,0,0,153.15378750000005,64,100,80
6902.25,59,1.0,95.25,1,0,0,153.15378750000005,64,100,80
6903.25,68,2.0,95.25,1,0,0,153.15378750000005,64,100,80
6905.25,63,0.5,95.25,1,0,0,153.15378750000005,64,100,80
6905.75,63,0.5,95.25,1,0,0,153.15378750000005,64,100,80
6906.25,63,0.5,95.25,1,0,0,153.15378750000005,64,100,80
6906.75,68,2.0,95.25,1,0,0,153.15378750000005,64,100,80
6908.75,59,1.0,95.25,1,0,0,153.15378750000005,64,100,80
6909.75,59,1.0,95.25,1,0,0,184.93319840625003,64,100,80
6910.75,64,1.0,95.25,1,0,0,160.81147687500004,64,100,80
6911.75,63,0.5,95.25,1,0,0,160.81147687500004,64,100,80
6912.25,64,1.0,74.08,1,0,0,160.81147687500004,64,100,80
6913.25,61,0.5,74.08,1,0,0,160.81147687500004,64,100,80
6913.75,64,1.0,74.08,1,0,0,160.81147687500004,64,100,80
6914.75,61,0.5,74.08,1,0,0,160.81147687500004,64,100,80
6915.25,59,1.0,74.08,1,0,0,160.81147687500004,64,100,80
6916.25,61,0.5,74.08,1,0,0,160.81147687500004,64,100,80
6916.75,59,1.0,74.08,1,0,0,160.81147687500004,64,100,80
6917.75,59,1.0,74.08,1,0,0,194.17985832656254,64,100,80
6918.75,68,2.0,74.08,1,0,0,168.85205071875006,64,100,80
6920.75,63,0.5,74.08,1,0,0,168.85205071875006,64,100,80
6921.25,59,1.0,74.08,1,0,0,168.85205071875006,64,100,80
6922.25,59,1.0,74.08,1,0,0,168.85205071875006,64,100,80
6923.25,61,0.5,52.91,1,0,0,168.85205071875006,64,100,80
6923.75,59,1.0,52.91,1,0,0,168.85205071875006,64,100,80
6924.75,59,1.0,52.91,1,0,0,168.85205071875006,64,100,80
6925.75,61,0.5,52.91,1,0,0,168.85205071875006,64,100,80
6926.25,59,1.0,52.91,1,0,0,168.85205071875006,64,100,80
6927.25,59,1.0,52.91,1,0,0,168.85205071875006,64,100,80
6928.25,59,1.0,52.91,1,0,0,168.85205071875006,64,100,80
6929.25,63,0.5,52.91,1,0,0,168.85205071875006,64,100,80
6929.75,68,2.0,52.91,1,0,0,168.85205071875006,64,100,80
6931.75,68,2.0,52.91,1,0,0,203.8888512428907,64,100,80
6933.75,63,0.5,52.91,49,9,0,177.29465325468757,64,100,80
6934.25,61,0.5,52.91,1,0,0,177.29465325468757,64,100,80
6934.75,64,1.0,84.66,1,0,0,177.29465325468757,64,100,80
6935.75,59,1.0,84.66,1,0,0,177.29465325468757,64,100,80
6936.75,63,0.5,84.66,1,0,0,177.29465325468757,64,100,80
6937.25,59,1.0,84.66,1,0,0,177.29465325468757,64,100,80
6938.25,63,0.5,84.66,1,0,0,177.29465325468757,64,100,80
6938.75,59,1.0,84.66,1,0,0,177.29465325468757,64,100,80
6939.75,59,1.0,84.66,1,0,0,177.29465325468757,64,100,80
6940.75,66,0.25,84.66,1,0,0,177.29465325468757,64,100,80
6941.0,59,1.0,84.66,1,0,0,177.29465325468757,64,100,80
6942.0,68,2.0,84.66,1,0,0,177.29465325468757,64,100,80
6944.0,61,0.5,84.66,1,0,0,177.29465325468757,64,100,80
6944.5,61,0.5,84.66,1,0,0,214.08329380503523,64,100,80
6945.0,70,2.0,84.66,1,0,0,186.15938591742196,64,100,80
6947.0,68,2.0,84.66,1,0,0,186.15938591742196,64,100,80
6949.0,59,1.0,84.66,1,0,0,186.15938591742196,64,100,80
6950.0,64,1.0,84.66,1,0,0,186.15938591742196,64,100,80
6951.0,64,1.0,84.66,1,0,0,224.78745849528698,64,100,80
6952.0,61,0.5,84.66,1,0,0,195.46735521329305,64,100,80
6952.5,63,0.5,84.66,49,9,0,195.46735521329305,64,100,80
6953.0,63,0.5,84.66,1,0,0,195.46735521329305,64,100,80
6953.5,59,1.0,84.66,1,0,0,195.46735521329305,64,100,80
6954.5,59,1.0,84.66,49,9,0,236.02683142005134,64,100,80
6955.5,61,0.5,84.66,1,0,0,205.2407229739577,64,100,80
6956.0,68,2.0,84.66,1,0,0,205.2407229739577,64,100,80
6958.0,63,0.5,95.25,1,0,0,205.2407229739577,64,100,80
6958.5,64,1.0,95.25,1,0,0,205.2407229739577,64,100,80
6959.5,63,0.5,95.25,1,0,0,205.2407229739577,64,100,80
6960.0,61,0.5,95.25,1,0,0,205.2407229739577,64,100,80
6960.5,68,2.0,95.25,1,0,0,205.2407229739577,64,100,80
6962.5,64,1.0,95.25,1,0,0,205.2407229739577,64,100,80
6963.5,63,0.5,95.25,1,0,0,205.2407229739577,64,100,80
6964.0,63,0.5,95.25,49,9,0,247.82817299105392,64,100,80
6964.5,66,0.25,95.25,1,0,0,215.50275912265562,64,100,80
6964.75,63,0.5,95.25,1,0,0,215.50275912265562,64,100,80
6965.25,63,0.5,95.25,1,0,0,215.50275912265562,64,100,80
6965.75,63,0.5,95.25,1,0,0,215.50275912265562,64,100,80
6966.25,70,2.0,84.66,1,0,0,215.50275912265562,64,100,80
6968.25,59,1.0,84.66,1,0,0,215.50275912265562,64,100,80
6969.25,64,1.0,84.66,1,0,0,215.50275912265562,64,100,80
6970.25,64,1.0,84.66,1,0,0,215.50275912265562,64,100,80
6971.25,63,0.5,84.66,1,0,0,215.50275912265562,64,100,80
6971.75,61,0.5,84.66,1,0,0,215.50275912265562,64,100,80
6972.25,61,0.5,84.66,1,0,0,215.50275912265562,64,100,80
6972.75,0,1.0,84.66,49,9,0,120.0,64,100,80
6973.75,62,0.5,84.66,1,0,0,120.0,64,100,80
6974.25,71,2.0,84.66,1,0,0,120.0,64,100,80
6976.25,60,1.0,84.66,1,0,0,120.0,64,100,80
6977.25,64,0.5,84.66,49,9,0,120.0,64,100,80
6977.75,64,0.5,63.5,1,0,0,120.0,64,100,80
6978.25,62,0.5,63.5,1,0,0,120.0,64,100,80
6978.75,62,0.5,63.5,1,0,0,120.0,64,100,80
6979.25,65,1.0,63.5,1,0,0,120.0,64,100,80
6980.25,64,0.5,63.5,1,0,0,120.0,64,100,80
6980.75,60,1.0,63.5,1,0,0,120.0,64,100,80
6981.75,62,0.5,63.5,1,0,0,120.0,64,100,80
6982.25,69,2.0,63.5,1,0,0,120.0,64,100,80
6984.25,0,1.0,63.5,49,9,0,120.0,64,100,80
6985.25,64,0.5,63.5,1,0,0,120.0,64,100,80
6985.75,60,1.0,63.5,1,0,0,120.0,64,100,80
6986.75,62,0.5,63.5,1,0,0,120.0,64,100,80
6987.25,67,0.25,74.08,1,0,0,120.0,64,100,80
6987.5,65,1.0,74.08,1,0,0,120.0,64,100,80
6988.5,62,0.5,74.08,1,0,0,120.0,64,100,80
6989.0,62,0.5,74.08,1,0,0,144.9,64,100,80
6989.5,60,1.0,74.08,1,0,0,126.0,64,100,80
6990.5,64,0.5,74.08,1,0,0,126.0,64,100,80
6991.0,64,0.5,74.08,1,0,0,126.0,64,100,80
6991.5,67,0.25,74.08,1,0,0,126.0,64,100,80
6991.75,67,0.25,74.08,1,0,0,126.0,64,100,80
6992.0,69,2.0,74.08,1,0,0,126.0,64,100,80
6994.0,60,1.0,74.08,1,0,0,126.0,64,100,80
6995.0,60,1.0,74.08,1,0,0,126.0,64,100,80
6996.0,69,2.0,95.25,1,0,0,126.0,64,100,80
6998.0,64,0.5,95.25,1,0,0,126.0,64,100,80
6998.5,64,1.0,95.25,50,9,0,126.0,64,100,80
6999.5,66,0.25,95.25,1,0,0,126.0,64,100,80
6999.75,59,1.0,95.25,1,0,0,126.0,64,100,80
7000.75,63,0.5,95.25,49,9,0,126.0,64,100,80
7001.25,64,1.0,95.25,50,9,0,126.0,64,100,80
7002.25,0,1.0,95.25,49,9,0,120.0,64,100,80
7003.25,64,0.5,95.25,1,0,0,120.0,64,100,80
7003.75,69,2.0,95.25,1,0,0,120.0,64,100,80
7005.75,64,1.0,95.25,50,9,0,120.0,64,100,80
7006.75,59,1.0,95.25,1,0,0,120.0,64,100,80
7007.75,59,1.0,84.66,1,0,0,144.9,64,100,80
7008.75,63,0.5,84.66,1,0,0,126.0,64,100,80
7009.25,61,0.5,84.66,1,0,0,126.0,64,100,80
7009.75,59,1.0,84.66,1,0,0,126.0,64,100,80
7010.75,61,0.5,84.66,1,0,0,126.0,64,100,80
7011.25,64,1.0,84.66,50,9,0,126.0,64,100,80
7012.25,59,1.0,84.66,1,0,0,126.0,64,100,80
7013.25,59,1.0,84.66,1,0,0,152.14499999999998,64,100,80
7014.25,61,0.5,84.66,1,0,0,132.3,64,100,80
7014.75,61,0.5,84.66,1,0,0,132.3,64,100,80
7015.25,63,0.5,84.66,1,0,0,132.3,64,100,80
7015.75,0,1.0,84.66,49,9,0,120.0,64,100,80
7016.75,64,0.5,105.83,1,0,0,120.0,64,100,80
7017.25,69,2.0,105.83,1,0,0,120.0,64,100,80
7019.25,64,0.5,105.83,1,0,0,120.0,64,100,80
7019.75,69,2.0,105.83,1,0,0,120.0,64,100,80
7021.75,64,0.5,105.83,51,9,0,120.0,64,100,80
7022.25,67,0.25,105.83,1,0,0,120.0,64,100,80
7022.5,64,0.5,105.83,1,0,0,120.0,64,100,80
7023.0,64,0.5,105.83,1,0,0,120.0,64,100,80
7023.5,60,1.0,105.83,1,0,0,120.0,64,100,80
7024.5,64,0.5,105.83,49,9,0,120.0,64,100,80
7025.0,60,1.0,105.83,1,0,0,120.0,64,100,80
7026.0,67,0.25,105.83,1,0,0,120.0,64,100,80
7026.25,60,1.0,63.5,1,0,0,120.0,64,100,80
7027.25,62,0.5,63.5,1,0,0,120.0,64,100,80
7027.75,60,1.0,63.5,1,0,0,120.0,64,100,80
7028.75,64,0.5,63.5,1,0,0,120.0,64,100,80
7029.25,62,0.5,63.5,1,0,0,120.0,64,100,80
7029.75,65,1.0,63.5,1,0,0,120.0,64,100,80
7030.75,62,0.5,63.5,1,0,0,120.0,64,100,80
7031.25,64,1.0,63.5,50,9,0,120.0,64,100,80
7032.25,59,1.0,63.5,1,0,0,120.0,64,100,80
7033.25,64,1.0,63.5,1,0,0,120.0,64,100,80
7034.25,59,1.0,63.5,1,0,0,120.0,64,100,80
7035.25,61,0.5,63.5,1,0,0,120.0,64,100,80
7035.75,68,2.0,105.83,1,0,0,120.0,64,100,80
7037.75,59,1.0,105.83,1,0,0,120.0,64,100,80
7038.75,64,1.0,105.83,50,9,0,120.0,64,100,80
7039.75,0,1.0,105.83,49,9,0,120.0,64,100,80
7040.75,71,2.0,105.83,1,0,0,120.0,64,100,80
7042.75,60,1.0,105.83,1,0,0,120.0,64,100,80
7043.75,64,0.5,105.83,1,0,0,120.0,64,100,80
7044.25,64,0.5,105.83,1,0,0,120.0,64,100,80
7044.75,60,1.0,105.83,1,0,0,120.0,64,100,80
7045.75,60,1.0,105.83,1,0,0,120.0,64,100,80
7046.75,60,1.0,105.83,1,0,0,120.0,64,100,80
7047.75,62,0.5,105.83,1,0,0,120.0,64,100,80
7048.25,62,0.5,74.08,1,0,0,120.0,64,100,80
7048.75,62,0.5,74.08,1,0,0,144.9,64,100,80
7049.25,64,0.5,74.08,1,0,0,126.0,64,100,80
7049.75,69,2.0,74.08,1,0,0,126.0,64,100,80
7051.75,65,1.0,74.08,1,0,0,126.0,64,100,80
7052.75,62,0.5,74.08,1,0,0,126.0,64,100,80
7053.25,60,1.0,74.08,1,0,0,126.0,64,100,80
7054.25,60,1.0,74.08,1,0,0,126.0,64,100,80
7055.25,67,0.25,74.08,1,0,0,126.0,64,100,80
7055.5,62,0.5,74.08,1,0,0,126.0,64,100,80
7056.0,62,0.5,74.08,1,0,0,152.14499999999998,64,100,80
7056.5,60,1.0,74.08,1,0,0,132.3,64,100,80
7057.5,64,1.0,84.66,50,9,0,132.3,64,100,80
7058.5,68,2.0,84.66,1,0,0,132.3,64,100,80
7060.5,59,1.0,84.66,1,0,0,132.3,64,100,80
7061.5,68,2.0,84.66,1,0,0,132.3,64,100,80
7063.5,61,0.5,84.66,1,0,0,132.3,64,100,80
7064.0,63,0.5,84.66,1,0,0,132.3,64,100,80
7064.5,61,0.5,84.66,1,0,0,132.3,64,100,80
7065.0,63,0.5,84.66,1,0,0,132.3,64,100,80
7065.5,59,1.0,84.66,1,0,0,132.3,64,100,80
7066.5,68,2.0,84.66,1,0,0,132.3,64,100,80
7068.5,63,0.5,84.66,1,0,0,132.3,64,100,80
7069.0,59,1.0,84.66,39,9,0,132.3,64,100,80
7070.0,59,1.0,84.66,1,0,0,132.3,64,100,80
7071.0,66,0.25,84.66,1,0,0,132.3,64,100,80
7071.25,59,1.0,84.66,1,0,0,132.3,64,100,80
7072.25,68,2.0,84.66,1,0,0,132.3,64,100,80
7074.25,59,1.0,84.66,1,0,0,132.3,64,100,80
7075.25,68,2.0,84.66,49,9,0,132.3,64,100,80
7077.25,63,0.5,84.66,1,0,0,132.3,64,100,80
7077.75,59,1.0,84.66,1,0,0,132.3,64,100,80
7078.75,70,2.0,84.66,1,0,0,132.3,64,100,80
7080.75,59,1.0,84.66,1,0,0,132.3,64,100,80
7081.75,63,0.5,84.66,1,0,0,132.3,64,100,80
7082.25,64,1.0,84.66,1,0,0,132.3,64,100,80
7083.25,68,2.0,74.08,1,0,0,132.3,64,100,80
7085.25,70,2.0,74.08,1,0,0,132.3,64,100,80
7087.25,61,0.5,74.08,1,0,0,132.3,64,100,80
7087.75,59,1.0,74.08,1,0,0,132.3,64,100,80
7088.75,59,1.0,74.08,1,0,0,159.75225,64,100,80
7089.75,64,1.0,74.08,49,9,0,138.91500000000002,64,100,80
7090.75,63,0.5,74.08,1,0,0,138.91500000000002,64,100,80
7091.25,61,0.5,74.08,1,0,0,138.91500000000002,64,100,80
7091.75,0,1.0,74.08,49,9,0,120.0,64,100,80
7092.75,60,1.0,74.08,1,0,0,120.0,64,100,80
7093.75,60,1.0,74.08,1,0,0,120.0,64,100,80
7094.75,60,1.0,74.08,39,9,0,144.9,64,100,80
7095.75,60,1.0,74.08,1,0,0,126.0,64,100,80
7096.75,65,1.0,74.08,50,9,0,126.0,64,100,80
7097.75,67,0.25,74.08,1,0,0,126.0,64,100,80
7098.0,71,2.0,74.08,1,0,0,126.0,64,100,80
7100.0,62,0.5,74.08,1,0,0,126.0,64,100,80
7100.5,60,1.0,74.08,1,0,0,126.0,64,100,80
7101.5,71,2.0,74.08,1,0,0,126.0,64,100,80
7103.5,62,0.5,74.08,1,0,0,126.0,64,100,80
7104.0,71,2.0,74.08,1,0,0,126.0,64,100,80
7106.0,71,2.0,74.08,1,0,0,126.0,64,100,80
7108.0,60,1.0,74.08,1,0,0,126.0,64,100,80
7109.0,60,1.0,74.08,1,0,0,152.14499999999998,64,100,80
7110.0,65,1.0,84.66,1,0,0,132.3,64,100,80
7111.0,69,2.0,84.66,1,0,0,132.3,64,100,80
7113.0,60,1.0,84.66,1,0,0,132.3,64,100,80
7114.0,64,0.5,84.66,1,0,0,132.3,64,100,80
7114.5,60,1.0,84.66,1,0,0,132.3,64,100,80
7115.5,64,0.5,84.66,1,0,0,132.3,64,100,80
7116.0,60,1.0,84.66,1,0,0,132.3,64,100,80
7117.0,71,2.0,84.66,1,0,0,132.3,64,100,80
7119.0,64,0.5,84.66,1,0,0,132.3,64,100,80
7119.5,62,0.5,84.66,1,0,0,132.3,64,100,80
7120.0,67,0.25,84.66,1,0,0,132.3,64,100,80
7120.25,69,2.0,84.66,1,0,0,132.3,64,100,80
7122.25,69,2.0,74.08,1,0,0,132.3,64,100,80
7124.25,69,2.0,74.08,1,0,0,159.75225,64,100,80
7126.25,65,1.0,74.08,1,0,0,138.91500000000002,64,100,80
7127.25,67,0.25,74.08,49,9,0,138.91500000000002,64,100,80
7127.5,65,1.0,74.08,1,0,0,138.91500000000002,64,100,80
7128.5,71,2.0,74.08,1,0,0,138.91500000000002,64,100,80
7130.5,67,0.25,74.08,1,0,0,138.91500000000002,64,100,80
7130.75,60,1.0,74.08,1,0,0,138.91500000000002,64,100,80
7131.75,60,1.0,74.08,1,0,0,167.73986250000002,64,100,80
7132.75,64,0.5,74.08,1,0,0,145.86075000000002,64,100,80
7133.25,69,2.0,74.08,1,0,0,145.86075000000002,64,100,80
7135.25,65,1.0,74.08,1,0,0,145.86075000000002,64,100,80
7136.25,60,1.0,52.91,1,0,0,145.86075000000002,64,100,80
7137.25,67,0.25,52.91,1,0,0,145.86075000000002,64,100,80
7137.5,62,0.5,52.91,1,0,0,145.86075000000002,64,100,80
7138.0,60,1.0,52.91,1,0,0,145.86075000000002,64,100,80
7139.0,60,1.0,52.91,1,0,0,176.12685562500005,64,100,80
7140.0,71,2.0,52.91,1,0,0,153.15378750000005,64,100,80
7142.0,62,0.5,52.91,1,0,0,153.15378750000005,64,100,80
7142.5,60,1.0,52.91,1,0,0,153.15378750000005,64,100,80
7143.5,64,0.5,52.91,1,0,0,153.15378750000005,64,100,80
7144.0,69,2.0,52.91,1,0,0,153.15378750000005,64,100,80
7146.0,62,0.5,52.91,1,0,0,153.15378750000005,64,100,80
7146.5,60,1.0,52.91,1,0,0,153.15378750000005,64,100,80
7147.5,62,0.5,42.33,1,0,0,153.15378750000005,64,100,80
7148.0,60,1.0,42.33,1,0,0,153.15378750000005,64,100,80
7149.0,60,1.0,42.33,1,0,0,153.15378750000005,64,100,80
7150.0,65,1.0,42.33,1,0,0,153.15378750000005,64,100,80
7151.0,60,1.0,42.33,1,0,0,153.15378750000005,64,100,80
7152.0,69,2.0,42.33,1,0,0,153.15378750000005,64,100,80
7154.0,69,2.0,42.33,1,0,0,153.15378750000005,64,100,80
7156.0,60,1.0,42.33,1,0,0,153.15378750000005,64,100,80
7157.0,65,1.0,42.33,1,0,0,153.15378750000005,64,100,80
7158.0,69,2.0,42.33,1,0,0,153.15378750000005,64,100,80
7160.0,65,1.0,42.33,1,0,0,153.15378750000005,64,100,80
7161.0,64,0.5,42.33,50,9,0,153.15378750000005,64,100,80
7161.5,60,1.0,74.08,1,0,0,153.15378750000005,64,100,80
7162.5,71,2.0,74.08,1,0,0,153.15378750000005,64,100,80
7164.5,62,0.5,74.08,1,0,0,153.15378750000005,64,100,80
7165.0,60,1.0,74.08,1,0,0,153.15378750000005,64,100,80
7166.0,69,2.0,74.08,1,0,0,153.15378750000005,64,100,80
7168.0,62,0.5,74.08,49,9,0,153.15378750000005,64,100,80
7168.5,65,1.0,74.08,1,0,0,153.15378750000005,64,100,80
7169.5,60,1.0,74.08,1,0,0,153.15378750000005,64,100,80
7170.5,64,0.5,74.08,1,0,0,153.15378750000005,64,100,80
7171.0,62,0.5,74.08,1,0,0,153.15378750000005,64,100,80
7171.5,64,0.5,74.08,1,0,0,153.15378750000005,64,100,80
7172.0,60,1.0,74.08,1,0,0,153.15378750000005,64,100,80
7173.0,62,0.5,74.08,1,0,0,153.15378750000005,64,100,80
7173.5,60,1.0,74.08,1,0,0,153.15378750000005,64,100,80
7174.5,0,1.0,74.08,49,9,0,120.0,64,100,80
7175.5,60,1.0,74.08,1,0,0,120.0,64,100,80
7176.5,60,1.0,74.08,1,0,0,144.9,64,100,80
7177.5,0,1.0,74.08,49,9,0,120.0,64,100,80
7178.5,64,0.5,74.08,1,0,0,120.0,64,100,80
7179.0,60,1.0,74.08,49,9,0,120.0,64,100,80
7180.0,64,0.5,74.08,1,0,0,120.0,64,100,80
7180.5,69,2.0,74.08,1,0,0,120.0,64,100,80
7182.5,60,1.0,74.08,1,0,0,120.0,64,100,80
7183.5,60,1.0,74.08,1,0,0,120.0,64,100,80
7184.5,62,0.5,95.25,1,0,0,120.0,64,100,80
7185.0,60,1.0,95.25,49,9,0,120.0,64,100,80
7186.0,65,1.0,95.25,1,0,0,120.0,64,100,80
7187.0,69,2.0,95.25,49,9,0,120.0,64,100,80
7189.0,64,0.5,95.25,1,0,0,120.0,64,100,80
7189.5,60,1.0,95.25,1,0,0,120.0,64,100,80
7190.5,65,1.0,95.25,1,0,0,120.0,64,100,80
7191.5,71,2.0,95.25,1,0,0,120.0,64,100,80
7193.5,69,2.0,95.25,1,0,0,120.0,64,100,80
7195.5,60,1.0,95.25,1,0,0,120.0,64,100,80
7196.5,62,0.5,95.25,1,0,0,120.0,64,100,80
7197.0,60,1.0,95.25,50,9,0,120.0,64,100,80
7198.0,62,0.5,74.08,1,0,0,120.0,64,100,80
7198.5,62,0.5,74.08,39,9,0,144.9,64,100,80
7199.0,60,1.0,74.08,1,0,0,126.0,64,100,80
7200.0,69,2.0,74.08,1,0,0,126.0,64,100,80
7202.0,71,2.0,74.08,1,0,0,126.0,64,100,80
7204.0,65,1.0,74.08,1,0,0,126.0,64,100,80
7205.0,60,1.0,74.08,1,0,0,126.0,64,100,80
7206.0,65,1.0,74.08,1,0,0,126.0,64,100,80
7207.0,60,1.0,74.08,1,0,0,126.0,64,100,80
7208.0,62,0.5,74.08,1,0,0,126.0,64,100,80
7208.5,62,0.5,74.08,1,0,0,152.14499999999998,64,100,80
7209.0,60,1.0,74.08,1,0,0,132.3,64,100,80
7210.0,69,2.0,74.08,1,0,0,132.3,64,100,80
7212.0,64,0.5,74.08,1,0,0,132.3,64,100,80
7212.5,62,0.5,74.08,1,0,0,132.3,64,100,80
7213.0,60,1.0,74.08,1,0,0,132.3,64,100,80
7214.0,60,1.0,74.08,1,0,0,132.3,64,100,80
7215.0,60,1.0,74.08,1,0,0,132.3,64,100,80
7216.0,71,2.0,74.08,1,0,0,132.3,64,100,80
7218.0,62,0.5,74.08,1,0,0,132.3,64,100,80
7218.5,69,2.0,74.08,1,0,0,132.3,64,100,80
7220.5,71,2.0,74.08,1,0,0,132.3,64,100,80
7222.5,64,0.5,74.08,1,0,0,132.3,64,100,80
7223.0,67,0.25,74.08,1,0,0,132.3,64,100,80
7223.25,62,0.5,105.83,1,0,0,132.3,64,100,80
7223.75,0,1.0,105.83,49,9,0,120.0,64,100,80
7224.75,0,1.0,105.83,49,9,0,144.9,64,100,80
7225.75,69,2.0,105.83,1,0,0,126.0,64,100,80
7227.75,69,2.0,105.83,1,0,0,126.0,64,100,80
7229.75,64,0.5,105.83,1,0,0,126.0,64,100,80
7230.25,64,0.5,105.83,1,0,0,152.14499999999998,64,100,80
7230.75,60,1.0,105.83,1,0,0,132.3,64,100,80
7231.75,62,0.5,105.83,1,0,0,132.3,64,100,80
7232.25,71,2.0,105.83,1,0,0,132.3,64,100,80
7234.25,64,0.5,105.83,1,0,0,132.3,64,100,80
7234.75,65,1.0,105.83,1,0,0,132.3,64,100,80
7235.75,60,1.0,84.66,1,0,0,132.3,64,100,80
7236.75,60,1.0,84.66,1,0,0,132.3,64,100,80
7237.75,67,0.25,84.66,1,0,0,132.3,64,100,80
7238.0,69,2.0,84.66,1,0,0,132.3,64,100,80
7240.0,69,2.0,84.66,1,0,0,132.3,64,100,80
7242.0,71,2.0,84.66,1,0,0,132.3,64,100,80
7244.0,69,2.0,84.66,1,0,0,132.3,64,100,80
7246.0,62,0.5,84.66,1,0,0,132.3,64,100,80
7246.5,60,1.0,84.66,1,0,0,132.3,64,100,80
7247.5,71,2.0,84.66,1,0,0,132.3,64,100,80
7249.5,60,1.0,84.66,1,0,0,132.3,64,100,80
7250.5,69,2.0,84.66,1,0,0,132.3,64,100,80
7252.5,71,2.0,84.66,1,0,0,132.3,64,100,80
7254.5,69,2.0,84.66,1,0,0,132.3,64,100,80
7256.5,62,0.5,84.66,1,0,0,132.3,64,100,80
7257.0,62,0.5,84.66,1,0,0,159.75225,64,100,80
7257.5,60,1.0,84.66,1,0,0,138.91500000000002,64,100,80
7258.5,69,2.0,84.66,1,0,0,138.91500000000002,64,100,80
7260.5,0,1.0,84.66,49,9,0,120.0,64,100,80
7261.5,60,1.0,84.66,1,0,0,120.0,64,100,80
7262.5,65,1.0,84.66,1,0,0,120.0,64,100,80
7263.5,60,1.0,84.66,1,0,0,120.0,64,100,80
7264.5,60,1.0,84.66,1,0,0,120.0,64,100,80
7265.5,62,0.5,84.66,1,0,0,120.0,64,100,80
7266.0,71,2.0,74.08,1,0,0,120.0,64,100,80
7268.0,62,0.5,74.08,1,0,0,120.0,64,100,80
7268.5,62,0.5,74.08,1,0,0,144.9,64,100,80
7269.0,71,2.0,74.08,1,0,0,126.0,64,100,80
7271.0,64,0.5,74.08,49,9,0,126.0,64,100,80
7271.5,69,2.0,74.08,1,0,0,126.0,64,100,80
7273.5,60,1.0,74.08,1,0,0,126.0,64,100,80
7274.5,64,0.5,74.08,49,9,0,126.0,64,100,80
7275.0,64,0.5,74.08,50,9,0,126.0,64,100,80
7275.5,69,2.0,74.08,1,0,0,126.0,64,100,80
7277.5,69,2.0,74.08,1,0,0,126.0,64,100,80
7279.5,62,0.5,74.08,1,0,0,126.0,64,100,80
7280.0,60,1.0,74.08,1,0,0,126.0,64,100,80
7281.0,62,0.5,74.08,1,0,0,126.0,64,100,80
7281.5,71,2.0,74.08,1,0,0,126.0,64,100,80
7283.5,65,1.0,74.08,1,0,0,126.0,64,100,80
7284.5,60,1.0,74.08,1,0,0,126.0,64,100,80
7285.5,0,1.0,74.08,49,9,0,120.0,64,100,80
7286.5,60,1.0,74.08,49,9,0,120.0,64,100,80
7287.5,64,0.5,74.08,1,0,0,120.0,64,100,80
7288.0,60,1.0,74.08,1,0,0,120.0,64,100,80
7289.0,69,2.0,74.08,1,0,0,120.0,64,100,80
7291.0,60,1.0,74.08,1,0,0,120.0,64,100,80
7292.0,60,1.0,74.08,1,0,0,144.9,64,100,80
7293.0,60,1.0,74.08,1,0,0,304.28999999999996,64,100,80
7294.0,62,0.5,74.08,1,0,0,132.3,64,100,80
7294.5,69,2.0,74.08,1,0,0,132.3,64,100,80
7296.5,60,1.0,74.08,1,0,0,132.3,64,100,80
7297.5,62,0.5,74.08,1,0,0,132.3,64,100,80
7298.0,60,1.0,74.08,1,0,0,132.3,64,100,80
7299.0,69,2.0,74.08,1,0,0,132.3,64,100,80
7301.0,60,1.0,74.08,1,0,0,132.3,64,100,80
7302.0,60,1.0,74.08,1,0,0,132.3,64,100,80
7303.0,67,0.25,74.08,49,9,0,132.3,64,100,80
7303.25,67,0.25,74.08,1,0,0,132.3,64,100,80
7303.5,60,1.0,74.08,1,0,0,132.3,64,100,80
7304.5,60,1.0,95.25,1,0,0,132.3,64,100,80
7305.5,67,0.25,95.25,1,0,0,132.3,64,100,80
7305.75,67,0.25,95.25,1,0,0,159.75225,64,100,80
7306.0,69,2.0,95.25,1,0,0,138.91500000000002,64,100,80
7308.0,64,0.5,95.25,1,0,0,138.91500000000002,64,100,80
7308.5,62,0.5,95.25,50,9,0,138.91500000000002,64,100,80
7309.0,62,0.5,95.25,1,0,0,138.91500000000002,64,100,80
7309.5,60,1.0,95.25,1,0,0,138.91500000000002,64,100,80
7310.5,60,1.0,95.25,1,0,0,167.73986250000002,64,100,80
7311.5,60,1.0,95.25,1,0,0,352.2537112500001,64,100,80
7312.5,64,0.5,95.25,1,0,0,153.15378750000005,64,100,80
7313.0,65,1.0,95.25,1,0,0,153.15378750000005,64,100,80
7314.0,62,0.5,105.83,1,0,0,153.15378750000005,64,100,80
7314.5,69,2.0,105.83,1,0,0,153.15378750000005,64,100,80
7316.5,69,2.0,105.83,1,0,0,184.93319840625003,64,100,80
7318.5,60,1.0,105.83,1,0,0,160.81147687500004,64,100,80
7319.5,65,1.0,105.83,1,0,0,160.81147687500004,64,100,80
7320.5,60,1.0,105.83,1,0,0,160.81147687500004,64,100,80
7321.5,0,1.0,105.83,49,9,0,120.0,64,100,80
7322.5,69,2.0,105.83,1,0,0,120.0,64,100,80
7324.5,60,1.0,105.83,50,9,0,120.0,64,100,80
7325.5,0,1.0,105.83,49,9,0,120.0,64,100,80
7326.5,62,0.5,105.83,1,0,0,120.0,64,100,80
7327.0,67,0.25,105.83,1,0,0,120.0,64,100,80
7327.25,60,1.0,74.08,1,0,0,120.0,64,100,80
7328.25,64,0.5,74.08,1,0,0,120.0,64,100,80
7328.75,64,0.5,74.08,1,0,0,144.9,64,100,80
7329.25,67,0.25,74.08,1,0,0,126.0,64,100,80
7329.5,71,2.0,74.08,1,0,0,126.0,64,100,80
7331.5,69,2.0,74.08,1,0,0,126.0,64,100,80
7333.5,64,0.5,74.08,1,0,0,126.0,64,100,80
7334.0,69,2.0,74.08,1,0,0,126.0,64,100,80
7336.0,69,2.0,74.08,1,0,0,152.14499999999998,64,100,80
7338.0,60,1.0,74.08,1,0,0,132.3,64,100,80
7339.0,60,1.0,74.08,1,0,0,132.3,64,100,80
7340.0,69,2.0,74.08,39,9,0,132.3,64,100,80
7342.0,60,1.0,84.66,1,0,0,132.3,64,100,80
7343.0,65,1.0,84.66,1,0,0,132.3,64,100,80
7344.0,67,0.25,84.66,1,0,0,132.3,64,100,80
7344.25,64,0.5,84.66,1,0,0,132.3,64,100,80
7344.75,67,0.25,84.66,1,0,0,132.3,64,100,80
7345.0,60,1.0,84.66,1,0,0,132.3,64,100,80
7346.0,64,0.5,84.66,1,0,0,132.3,64,100,80
7346.5,64,0.5,84.66,1,0,0,132.3,64,100,80
7347.0,64,0.5,84.66,1,0,0,132.3,64,100,80
7347.5,62,0.5,84.66,1,0,0,132.3,64,100,80
7348.0,62,0.5,84.66,1,0,0,159.75225,64,100,80
7348.5,71,2.0,84.66,1,0,0,138.91500000000002,64,100,80
7350.5,69,2.0,95.25,39,9,0,138.91500000000002,64,100,80
7352.5,60,1.0,95.25,39,9,0,138.91500000000002,64,100,80
7353.5,60,1.0,95.25,1,0,0,138.91500000000002,64,100,80
7354.5,60,1.0,95.25,1,0,0,138.91500000000002,64,100,80
7355.5,65,1.0,95.25,1,0,0,138.91500000000002,64,100,80
7356.5,67,0.25,95.25,1,0,0,138.91500000000002,64,100,80
7356.75,71,2.0,95.25,1,0,0,138.91500000000002,64,100,80
7358.75,64,0.5,95.25,1,0,0,138.91500000000002,64,100,80
7359.25,60,1.0,95.25,39,9,0,138.91500000000002,64,100,80
7360.25,60,1.0,95.25,1,0,0,138.91500000000002,64,100,80
7361.25,64,0.5,95.25,1,0,0,138.91500000000002,64,100,80
7361.75,69,2.0,95.25,1,0,0,138.91500000000002,64,100,80
7363.75,69,2.0,63.5,50,9,0,167.73986250000002,64,100,80
7365.75,62,0.5,63.5,1,0,0,145.86075000000002,64,100,80
7366.25,60,1.0,63.5,1,0,0,145.86075000000002,64,100,80
7367.25,60,1.0,63.5,1,0,0,176.12685562500005,64,100,80
7368.25,60,1.0,63.5,1,0,0,369.86639681250006,64,100,80
7369.25,60,1.0,63.5,1,0,0,160.81147687500004,64,100,80
7370.25,64,0.5,63.5,49,9,0,160.81147687500004,64,100,80
7370.75,64,0.5,63.5,1,0,0,194.17985832656254,64,100,80
7371.25,64,0.5,63.5,1,0,0,168.85205071875006,64,100,80
7371.75,67,0.25,63.5,1,0,0,168.85205071875006,64,100,80
7372.0,69,2.0,63.5,1,0,0,168.85205071875006,64,100,80
7374.0,69,2.0,63.5,1,0,0,203.8888512428907,64,100,80
7376.0,62,0.5,52.91,49,9,0,177.29465325468757,64,100,80
7376.5,64,0.5,52.91,1,0,0,177.29465325468757,64,100,80
7377.0,62,0.5,52.91,1,0,0,177.29465325468757,64,100,80
7377.5,60,1.0,52.91,1,0,0,177.29465325468757,64,100,80
7378.5,60,1.0,52.91,1,0,0,177.29465325468757,64,100,80
7379.5,65,1.0,52.91,1,0,0,177.29465325468757,64,100,80
7380.5,62,0.5,52.91,1,0,0,177.29465325468757,64,100,80
7381.0,60,1.0,52.91,1,0,0,177.29465325468757,64,100,80
7382.0,69,2.0,52.91,1,0,0,177.29465325468757,64,100,80
7384.0,62,0.5,52.91,1,0,0,177.29465325468757,64,100,80
7384.5,60,1.0,52.91,49,9,0,177.29465325468757,64,100,80
7385.5,64,0.5,52.91,1,0,0,177.29465325468757,64,100,80
7386.0,69,2.0,74.08,1,0,0,177.29465325468757,64,100,80
7388.0,67,0.25,74.08,1,0,0,177.29465325468757,64,100,80
7388.25,60,1.0,74.08,1,0,0,177.29465325468757,64,100,80
7389.25,60,1.0,74.08,49,9,0,177.29465325468757,64,100,80
7390.25,64,0.5,74.08,51,9,0,177.29465325468757,64,100,80
7390.75,67,0.25,74.08,1,0,0,177.29465325468757,64,100,80
7391.0,64,0.5,74.08,1,0,0,177.29465325468757,64,100,80
7391.5,60,1.0,74.08,1,0,0,177.29465325468757,64,100,80
7392.5,67,0.25,74.08,1,0,0,177.29465325468757,64,100,80
7392.75,60,1.0,74.08,1,0,0,177.29465325468757,64,100,80
7393.75,60,1.0,74.08,1,0,0,214.08329380503523,64,100,80
7394.75,69,2.0,74.08,1,0,0,186.15938591742196,64,100,80
7396.75,69,2.0,105.83,1,0,0,186.15938591742196,64,100,80
7398.75,64,0.5,105.83,1,0,0,186.15938591742196,64,100,80
7399.25,60,1.0,105.83,1,0,0,186.15938591742196,64,100,80
7400.25,60,1.0,105.83,1,0,0,186.15938591742196,64,100,80
7401.25,60,1.0,105.83,1,0,0,186.15938591742196,64,100,80
7402.25,65,1.0,105.83,1,0,0,186.15938591742196,64,100,80
7403.25,65,1.0,105.83,1,0,0,224.78745849528698,64,100,80
7404.25,65,1.0,105.83,1,0,0,472.0536628401027,64,100,80
7405.25,60,1.0,105.83,1,0,0,205.2407229739577,64,100,80
7406.25,69,2.0,105.83,1,0,0,205.2407229739577,64,100,80
7408.25,62,0.5,105.83,1,0,0,205.2407229739577,64,100,80
7408.75,69,2.0,105.83,1,0,0,205.2407229739577,64,100,80
7410.75,71,2.0,84.66,1,0,0,205.2407229739577,64,100,80
7412.75,67,0.25,84.66,1,0,0,205.2407229739577,64,100,80
7413.0,62,0.5,84.66,1,0,0,205.2407229739577,64,100,80
7413.5,60,1.0,84.66,1,0,0,205.2407229739577,64,100,80
7414.5,60,1.0,84.66,1,0,0,247.82817299105392,64,100,80
7415.5,69,2.0,84.66,1,0,0,215.50275912265562,64,100,80
7417.5,60,1.0,84.66,1,0,0,215.50275912265562,64,100,80
7418.5,69,2.0,84.66,1,0,0,215.50275912265562,64,100,80
7420.5,67,0.25,84.66,1,0,0,215.50275912265562,64,100,80
7420.75,64,0.5,84.66,1,0,0,215.50275912265562,64,100,80
7421.25,62,0.5,84.66,1,0,0,215.50275912265562,64,100,80
7421.75,62,0.5,84.66,1,0,0,260.21958164060663,64,100,80
7422.25,71,2.0,74.08,1,0,0,226.27789707878838,64,100,80
7424.25,62,0.5,74.08,1,0,0,226.27789707878838,64,100,80
7424.75,62,0.5,74.08,1,0,0,226.27789707878838,64,100,80
7425.25,60,1.0,74.08,1,0,0,226.27789707878838,64,100,80
7426.25,60,1.0,74.08,1,0,0,273.230560722637,64,100,80
7427.25,0,1.0,74.08,49,9,0,120.0,64,100,80
7428.25,69,2.0,74.08,1,0,0,120.0,64,100,80
7430.25,69,2.0,74.08,1,0,0,120.0,64,100,80
7432.25,62,0.5,74.08,1,0,0,120.0,64,100,80
7432.75,64,0.5,74.08,1,0,0,120.0,64,100,80
7433.25,69,2.0,74.08,1,0,0,120.0,64,100,80
7435.25,69,2.0,74.08,1,0,0,144.9,64,100,80
7437.25,60,1.0,74.08,51,9,0,126.0,64,100,80
7438.25,67,0.25,74.08,50,9,0,126.0,64,100,80
7438.5,69,2.0,74.08,1,0,0,126.0,64,100,80
7440.5,71,2.0,74.08,1,0,0,126.0,64,100,80
7442.5,65,1.0,74.08,1,0,0,126.0,64,100,80
7443.5,60,1.0,74.08,1,0,0,126.0,64,100,80
7444.5,60,1.0,74.08,39,9,0,152.14499999999998,64,100,80
7445.5,60,1.0,74.08,1,0,0,132.3,64,100,80
7446.5,65,1.0,74.08,1,0,0,132.3,64,100,80
7447.5,62,0.5,74.08,1,0,0,132.3,64,100,80
7448.0,60,1.0,74.08,1,0,0,132.3,64,100,80
7449.0,64,0.5,74.08,1,0,0,132.3,64,100,80
7449.5,69,2.0,84.66,1,0,0,132.3,64,100,80
7451.5,67,0.25,84.66,1,0,0,132.3,64,100,80
7451.75,71,2.0,84.66,1,0,0,132.3,64,100,80
7453.75,67,0.25,84.66,1,0,0,132.3,64,100,80
7454.0,71,2.0,84.66,1,0,0,132.3,64,100,80
7456.0,71,2.0,84.66,1,0,0,132.3,64,100,80
7458.0,69,2.0,84.66,1,0,0,132.3,64,100,80
7460.0,65,1.0,84.66,1,0,0,132.3,64,100,80
7461.0,62,0.5,84.66,51,9,0,132.3,64,100,80
7461.5,71,2.0,84.66,50,9,0,132.3,64,100,80
7463.5,62,0.5,84.66,49,9,0,132.3,64,100,80
7464.0,62,0.5,84.66,1,0,0,132.3,64,100,80
7464.5,69,2.0,74.08,1,0,0,132.3,64,100,80
7466.5,60,1.0,74.08,1,0,0,132.3,64,100,80
7467.5,62,0.5,74.08,1,0,0,132.3,64,100,80
7468.0,69,2.0,74.08,1,0,0,132.3,64,100,80
7470.0,65,1.0,74.08,1,0,0,132.3,64,100,80
7471.0,60,1.0,74.08,1,0,0,132.3,64,100,80
7472.0,71,2.0,74.08,1,0,0,132.3,64,100,80
7474.0,64,0.5,74.08,1,0,0,132.3,64,100,80
7474.5,69,2.0,74.08,1,0,0,132.3,64,100,80
7476.5,69,2.0,74.08,1,0,0,132.3,64,100,80
7478.5,69,2.0,74.08,1,0,0,159.75225,64,100,80
7480.5,69,2.0,74.08,1,0,0,138.91500000000002,64,100,80
7482.5,69,2.0,74.08,1,0,0,138.91500000000002,64,100,80
7484.5,64,0.5,74.08,1,0,0,138.91500000000002,64,100,80
7485.0,69,2.0,74.08,50,9,0,138.91500000000002,64,100,80
7487.0,0,1.0,74.08,49,9,0,120.0,64,100,80
7488.0,62,0.5,74.08,39,9,0,120.0,64,100,80
7488.5,60,1.0,74.08,1,0,0,120.0,64,100,80
7489.5,64,0.5,74.08,1,0,0,120.0,64,100,80
7490.0,64,0.5,74.08,1,0,0,120.0,64,100,80
7490.5,60,1.0,74.08,1,0,0,120.0,64,100,80
7491.5,60,1.0,74.08,50,9,0,144.9,64,100,80
7492.5,67,0.25,74.08,1,0,0,126.0,64,100,80
7492.75,60,1.0,74.08,1,0,0,126.0,64,100,80
7493.75,62,0.5,74.08,1,0,0,126.0,64,100,80
7494.25,60,1.0,74.08,1,0,0,126.0,64,100,80
7495.25,60,1.0,74.08,1,0,0,152.14499999999998,64,100,80
7496.25,67,0.25,74.08,1,0,0,132.3,64,100,80
7496.5,64,0.5,74.08,1,0,0,132.3,64,100,80
7497.0,71,2.0,74.08,1,0,0,132.3,64,100,80
7499.0,0,1.0,74.08,49,9,0,120.0,64,100,80
7500.0,62,0.5,74.08,1,0,0,120.0,64,100,80
7500.5,60,1.0,74.08,1,0,0,120.0,64,100,80
7501.5,69,2.0,74.08,1,0,0,120.0,64,100,80
7503.5,60,1.0,74.08,1,0,0,120.0,64,100,80
7504.5,67,0.25,74.08,1,0,0,120.0,64,100,80
7504.75,67,0.25,84.66,1,0,0,120.0,64,100,80
7505.0,60,1.0,84.66,1,0,0,120.0,64,100,80
7506.0,60,1.0,84.66,1,0,0,120.0,64,100,80
7507.0,60,1.0,84.66,1,0,0,120.0,64,100,80
7508.0,71,2.0,84.66,1,0,0,120.0,64,100,80
7510.0,71,2.0,84.66,51,9,0,144.9,64,100,80
7512.0,67,0.25,84.66,1,0,0,126.0,64,100,80
7512.25,60,1.0,84.66,1,0,0,126.0,64,100,80
7513.25,64,0.5,84.66,1,0,0,126.0,64,100,80
7513.75,65,1.0,84.66,1,0,0,126.0,64,100,80
7514.75,71,2.0,84.66,1,0,0,126.0,64,100,80
7516.75,65,1.0,84.66,1,0,0,126.0,64,100,80
7517.75,64,0.5,105.83,1,0,0,126.0,64,100,80
7518.25,60,1.0,105.83,1,0,0,126.0,64,100,80
7519.25,69,2.0,105.83,1,0,0,126.0,64,100,80
7521.25,60,1.0,105.83,1,0,0,126.0,64,100,80
7522.25,67,0.25,105.83,1,0,0,126.0,64,100,80
7522.5,71,2.0,105.83,1,0,0,126.0,64,100,80
7524.5,62,0.5,105.83,1,0,0,126.0,64,100,80
7525.0,60,1.0,105.83,1,0,0,126.0,64,100,80
7526.0,64,0.5,105.83,1,0,0,126.0,64,100,80
7526.5,60,1.0,105.83,1,0,0,126.0,64,100,80
7527.5,60,1.0,105.83,1,0,0,152.14499999999998,64,100,80
7528.5,62,0.5,105.83,1,0,0,132.3,64,100,80
7529.0,62,0.5,84.66,1,0,0,159.75225,64,100,80
7529.5,65,1.0,84.66,1,0,0,138.91500000000002,64,100,80
7530.5,65,1.0,84.66,1,0,0,138.91500000000002,64,100,80
7531.5,65,1.0,84.66,1,0,0,138.91500000000002,64,100,80
7532.5,60,1.0,84.66,1,0,0,138.91500000000002,64,100,80
7533.5,69,2.0,84.66,1,0,0,138.91500000000002,64,100,80
7535.5,60,1.0,84.66,1,0,0,138.91500000000002,64,100,80
7536.5,65,1.0,84.66,50,9,0,138.91500000000002,64,100,80
7537.5,62,0.5,84.66,49,9,0,138.91500000000002,64,100,80
7538.0,64,0.5,84.66,50,9,0,138.91500000000002,64,100,80
7538.5,65,1.0,84.66,1,0,0,138.91500000000002,64,100,80
7539.5,69,2.0,84.66,1,0,0,138.91500000000002,64,100,80
7541.5,65,1.0,105.83,1,0,0,138.91500000000002,64,100,80
7542.5,69,2.0,105.83,1,0,0,138.91500000000002,64,100,80
7544.5,69,2.0,105.83,39,9,0,138.91500000000002,64,100,80
7546.5,60,1.0,105.83,1,0,0,138.91500000000002,64,100,80
7547.5,60,1.0,105.83,1,0,0,138.91500000000002,64,100,80
7548.5,65,1.0,105.83,1,0,0,138.91500000000002,64,100,80
7549.5,60,1.0,105.83,1,0,0,138.91500000000002,64,100,80
7550.5,60,1.0,105.83,1,0,0,138.91500000000002,64,100,80
7551.5,60,1.0,105.83,50,9,0,167.73986250000002,64,100,80
7552.5,62,0.5,105.83,1,0,0,145.86075000000002,64,100,80
7553.0,69,2.0,105.83,1,0,0,145.86075000000002,64,100,80
7555.0,62,0.5,105.83,1,0,0,145.86075000000002,64,100,80
7555.5,64,0.5,84.66,1,0,0,145.86075000000002,64,100,80
7556.0,64,0.5,84.66,50,9,0,176.12685562500005,64,100,80
7556.5,0,1.0,84.66,49,9,0,120.0,64,100,80
7557.5,62,0.5,84.66,1,0,0,120.0,64,100,80
7558.0,60,1.0,84.66,1,0,0,120.0,64,100,80
7559.0,71,2.0,84.66,1,0,0,120.0,64,100,80
7561.0,60,1.0,84.66,1,0,0,120.0,64,100,80
7562.0,64,0.5,84.66,1,0,0,120.0,64,100,80
7562.5,60,1.0,84.66,1,0,0,120.0,64,100,80
7563.5,69,2.0,84.66,1,0,0,120.0,64,100,80
7565.5,64,0.5,84.66,1,0,0,120.0,64,100,80
7566.0,60,1.0,84.66,1,0,0,120.0,64,100,80
7567.0,62,0.5,63.5,49,9,0,120.0,64,100,80
7567.5,67,0.25,63.5,1,0,0,120.0,64,100,80
7567.75,60,1.0,63.5,1,0,0,120.0,64,100,80
7568.75,71,2.0,63.5,1,0,0,120.0,64,100,80
7570.75,60,1.0,63.5,1,0,0,120.0,64,100,80
7571.75,60,1.0,63.5,1,0,0,144.9,64,100,80
7572.75,62,0.5,63.5,1,0,0,126.0,64,100,80
7573.25,60,1.0,63.5,1,0,0,126.0,64,100,80
7574.25,60,1.0,63.5,1,0,0,152.14499999999998,64,100,80
7575.25,60,1.0,63.5,1,0,0,132.3,64,100,80
7576.25,69,2.0,63.5,1,0,0,132.3,64,100,80
7578.25,60,1.0,63.5,1,0,0,132.3,64,100,80
7579.25,60,1.0,63.5,1,0,0,132.3,64,100,80
7580.25,64,0.5,63.5,1,0,0,132.3,64,100,80
7580.75,62,0.5,63.5,1,0,0,132.3,64,100,80
7581.25,64,0.5,63.5,49,9,0,132.3,64,100,80
7581.75,64,0.5,63.5,49,9,0,159.75225,64,100,80
7582.25,64,0.5,63.5,1,0,0,335.47972500000003,64,100,80
7582.75,69,2.0,63.5,1,0,0,145.86075000000002,64,100,80
7584.75,69,2.0,63.5,1,0,0,145.86075000000002,64,100,80
7586.75,60,1.0,63.5,1,0,0,145.86075000000002,64,100,80
7587.75,71,2.0,63.5,1,0,0,145.86075000000002,64,100,80
7589.75,60,1.0,63.5,1,0,0,145.86075000000002,64,100,80
7590.75,64,0.5,63.5,1,0,0,145.86075000000002,64,100,80
7591.25,71,2.0,95.25,1,0,0,145.86075000000002,64,100,80
7593.25,69,2.0,95.25,1,0,0,145.86075000000002,64,100,80
7595.25,62,0.5,95.25,1,0,0,145.86075000000002,64,100,80
7595.75,0,1.0,95.25,49,9,0,120.0,64,100,80
7596.75,64,0.5,95.25,1,0,0,120.0,64,100,80
7597.25,69,2.0,95.25,1,0,0,120.0,64,100,80
7599.25,60,1.0,95.25,1,0,0,120.0,64,100,80
7600.25,62,0.5,95.25,1,0,0,120.0,64,100,80
7600.75,64,0.5,95.25,1,0,0,120.0,64,100,80
7601.25,71,2.0,95.25,50,9,0,120.0,64,100,80
7603.25,65,1.0,95.25,1,0,0,120.0,64,100,80
7604.25,69,2.0,95.25,1,0,0,120.0,64,100,80
7606.25,60,1.0,95.25,1,0,0,120.0,64,100,80
7607.25,62,0.5,95.25,1,0,0,120.0,64,100,80
7607.75,69,2.0,95.25,1,0,0,120.0,64,100,80
7609.75,60,1.0,95.25,1,0,0,120.0,64,100,80
7610.75,69,2.0,95.25,1,0,0,120.0,64,100,80
7612.75,60,1.0,95.25,1,0,0,120.0,64,100,80
7613.75,71,2.0,95.25,1,0,0,120.0,64,100,80
7615.75,62,0.5,95.25,49,9,0,120.0,64,100,80
7616.25,64,0.5,95.25,1,0,0,120.0,64,100,80
7616.75,64,0.5,95.25,1,0,0,144.9,64,100,80
7617.25,64,0.5,95.25,1,0,0,304.28999999999996,64,100,80
7617.75,60,1.0,95.25,1,0,0,132.3,64,100,80
7618.75,0,1.0,74.08,49,9,0,120.0,64,100,80
7619.75,60,1.0,74.08,1,0,0,120.0,64,100,80
7620.75,69,2.0,74.08,1,0,0,120.0,64,100,80
7622.75,62,0.5,74.08,1,0,0,120.0,64,100,80
7623.25,65,1.0,74.08,1,0,0,120.0,64,100,80
7624.25,69,2.0,74.08,1,0,0,120.0,64,100,80
7626.25,69,2.0,74.08,1,0,0,120.0,64,100,80
7628.25,65,1.0,74.08,1,0,0,120.0,64,100,80
7629.25,60,1.0,74.08,1,0,0,120.0,64,100,80
7630.25,60,1.0,74.08,49,9,0,120.0,64,100,80
7631.25,65,1.0,74.08,1,0,0,120.0,64,100,80
7632.25,64,0.5,74.08,1,0,0,120.0,64,100,80
7632.75,64,0.5,105.83,1,0,0,144.9,64,100,80
7633.25,60,1.0,105.83,1,0,0,126.0,64,100,80
7634.25,69,2.0,105.83,1,0,0,126.0,64,100,80
7636.25,71,2.0,105.83,1,0,0,126.0,64,100,80
7638.25,60,1.0,105.83,1,0,0,126.0,64,100,80
7639.25,67,0.25,105.83,1,0,0,126.0,64,100,80
7639.5,69,2.0,105.83,1,0,0,126.0,64,100,80
7641.5,67,0.25,105.83,1,0,0,126.0,64,100,80
7641.75,64,0.5,105.83,1,0,0,126.0,64,100,80
7642.25,62,0.5,105.83,1,0,0,126.0,64,100,80
7642.75,60,1.0,105.83,1,0,0,126.0,64,100,80
7643.75,60,1.0,105.83,1,0,0,126.0,64,100,80
7644.75,64,0.5,74.08,1,0,0,126.0,64,100,80
7645.25,64,0.5,74.08,1,0,0,152.14499999999998,64,100,80
7645.75,62,0.5,74.08,1,0,0,132.3,64,100,80
7646.25,60,1.0,74.08,1,0,0,132.3,64,100,80
7647.25,60,1.0,74.08,1,0,0,132.3,64,100,80
7648.25,60,1.0,74.08,1,0,0,159.75225,64,100,80
7649.25,60,1.0,74.08,49,9,0,138.91500000000002,64,100,80
7650.25,64,0.5,74.08,50,9,0,138.91500000000002,64,100,80
7650.75,69,2.0,74.08,1,0,0,138.91500000000002,64,100,80
7652.75,69,2.0,74.08,1,0,0,167.73986250000002,64,100,80
7654.75,62,0.5,74.08,1,0,0,145.86075000000002,64,100,80
7655.25,71,2.0,74.08,1,0,0,145.86075000000002,64,100,80
7657.25,60,1.0,52.91,1,0,0,145.86075000000002,64,100,80
7658.25,60,1.0,52.91,1,0,0,145.86075000000002,64,100,80
7659.25,64,0.5,52.91,1,0,0,145.86075000000002,64,100,80
7659.75,60,1.0,52.91,1,0,0,145.86075000000002,64,100,80
7660.75,71,2.0,52.91,49,9,0,145.86075000000002,64,100,80
7662.75,65,1.0,52.91,50,9,0,145.86075000000002,64,100,80
7663.75,62,0.5,52.91,1,0,0,145.86075000000002,64,100,80
7664.25,64,0.5,52.91,1,0,0,145.86075000000002,64,100,80
7664.75,60,1.0,52.91,1,0,0,145.86075000000002,64,100,80
7665.75,0,1.0,52.91,49,9,0,120.0,64,100,80
7666.75,60,1.0,52.91,1,0,0,120.0,64,100,80
7667.75,64,0.5,52.91,51,9,0,120.0,64,100,80
7668.25,64,1.0,31.75,50,9,0,120.0,64,100,80
7669.25,59,1.0,31.75,1,0,0,120.0,64,100,80
7670.25,0,1.0,31.75,49,9,0,120.0,64,100,80
7671.25,69,2.0,31.75,50,9,0,120.0,64,100,80
7673.25,62,0.5,31.75,1,0,0,120.0,64,100,80
7673.75,69,2.0,31.75,1,0,0,120.0,64,100,80
7675.75,60,1.0,31.75,1,0,0,120.0,64,100,80
7676.75,71,2.0,31.75,1,0,0,120.0,64,100,80
7678.75,60,1.0,31.75,1,0,0,120.0,64,100,80
7679.75,71,2.0,31.75,1,0,0,120.0,64,100,80
7681.75,69,2.0,31.75,50,9,0,120.0,64,100,80
7683.75,69,2.0,31.75,1,0,0,120.0,64,100,80
7685.75,64,0.5,74.08,1,0,0,120.0,64,100,80
7686.25,60,1.0,74.08,49,9,0,120.0,64,100,80
7687.25,64,0.5,74.08,50,9,0,120.0,64,100,80
7687.75,65,1.0,74.08,1,0,0,120.0,64,100,80
7688.75,60,1.0,74.08,1,0,0,120.0,64,100,80
7689.75,69,2.0,74.08,1,0,0,120.0,64,100,80
7691.75,65,1.0,74.08,1,0,0,120.0,64,100,80
7692.75,69,2.0,74.08,1,0,0,120.0,64,100,80
7694.75,60,1.0,74.08,1,0,0,120.0,64,100,80
7695.75,69,2.0,74.08,1,0,0,120.0,64,100,80
7697.75,71,2.0,74.08,1,0,0,120.0,64,100,80
7699.75,60,1.0,74.08,1,0,0,120.0,64,100,80
7700.75,60,1.0,52.91,1,0,0,120.0,64,100,80
7701.75,60,1.0,52.91,1,0,0,120.0,64,100,80
7702.75,64,0.5,52.91,1,0,0,120.0,64,100,80
7703.25,67,0.25,52.91,1,0,0,120.0,64,100,80
7703.5,62,0.5,52.91,1,0,0,120.0,64,100,80
7704.0,64,0.5,52.91,49,9,0,120.0,64,100,80
7704.5,64,0.5,52.91,1,0,0,120.0,64,100,80
7705.0,60,1.0,52.91,1,0,0,120.0,64,100,80
7706.0,64,0.5,52.91,1,0,0,120.0,64,100,80
7706.5,60,1.0,52.91,1,0,0,120.0,64,100,80
7707.5,60,1.0,52.91,1,0,0,144.9,64,100,80
7708.5,62,0.5,52.91,1,0,0,126.0,64,100,80
7709.0,60,1.0,52.91,1,0,0,126.0,64,100,80
7710.0,69,2.0,52.91,1,0,0,126.0,64,100,80
7712.0,71,2.0,52.91,51,9,0,126.0,64,100,80
7714.0,62,0.5,52.91,1,0,0,126.0,64,100,80
7714.5,69,2.0,52.91,1,0,0,126.0,64,100,80
7716.5,60,1.0,52.91,1,0,0,126.0,64,100,80
7717.5,64,0.5,52.91,1,0,0,126.0,64,100,80
7718.0,71,2.0,52.91,1,0,0,126.0,64,100,80
7720.0,60,1.0,52.91,1,0,0,126.0,64,100,80
7721.0,71,2.0,52.91,1,0,0,126.0,64,100,80
7723.0,64,0.5,52.91,1,0,0,126.0,64,100,80
7723.5,71,2.0,52.91,1,0,0,126.0,64,100,80
7725.5,60,1.0,74.08,1,0,0,126.0,64,100,80
7726.5,60,1.0,74.08,1,0,0,152.14499999999998,64,100,80
7727.5,71,2.0,74.08,1,0,0,132.3,64,100,80
7729.5,69,2.0,74.08,1,0,0,132.3,64,100,80
7731.5,60,1.0,74.08,49,9,0,132.3,64,100,80
7732.5,65,1.0,74.08,1,0,0,132.3,64,100,80
7733.5,71,2.0,74.08,51,9,0,132.3,64,100,80
7735.5,69,2.0,74.08,1,0,0,132.3,64,100,80
7737.5,60,1.0,74.08,1,0,0,132.3,64,100,80
7738.5,60,1.0,74.08,1,0,0,159.75225,64,100,80
7739.5,60,1.0,74.08,1,0,0,335.47972500000003,64,100,80
7740.5,65,1.0,74.08,1,0,0,145.86075000000002,64,100,80
7741.5,69,2.0,74.08,1,0,0,145.86075000000002,64,100,80
7743.5,71,2.0,74.08,51,9,0,145.86075000000002,64,100,80
7745.5,71,2.0,74.08,51,9,0,145.86075000000002,64,100,80
7747.5,69,2.0,74.08,49,9,0,145.86075000000002,64,100,80
7749.5,64,0.5,74.08,1,0,0,145.86075000000002,64,100,80
7750.0,69,2.0,74.08,1,0,0,145.86075000000002,64,100,80
7752.0,0,1.0,74.08,49,9,0,120.0,64,100,80
7753.0,62,0.5,74.08,1,0,0,120.0,64,100,80
7753.5,60,1.0,74.08,50,9,0,120.0,64,100,80
7754.5,62,0.5,74.08,1,0,0,120.0,64,100,80
7755.0,65,1.0,74.08,1,0,0,120.0,64,100,80
7756.0,60,1.0,74.08,1,0,0,120.0,64,100,80
7757.0,60,1.0,74.08,1,0,0,144.9,64,100,80
7758.0,69,2.0,74.08,1,0,0,126.0,64,100,80
7760.0,69,2.0,74.08,1,0,0,126.0,64,100,80
7762.0,64,0.5,74.08,1,0,0,126.0,64,100,80
7762.5,71,2.0,74.08,1,0,0,126.0,64,100,80
7764.5,60,1.0,74.08,1,0,0,126.0,64,100,80
7765.5,64,0.5,74.08,1,0,0,126.0,64,100,80
7766.0,64,0.5,74.08,1,0,0,152.14499999999998,64,100,80
7766.5,60,1.0,74.08,1,0,0,132.3,64,100,80
7767.5,60,1.0,74.08,1,0,0,132.3,64,100,80
7768.5,64,0.5,74.08,1,0,0,132.3,64,100,80
7769.0,60,1.0,74.08,49,9,0,132.3,64,100,80
7770.0,67,0.25,42.33,1,0,0,132.3,64,100,80
7770.25,69,2.0,42.33,51,9,0,132.3,64,100,80
7772.25,60,1.0,42.33,1,0,0,132.3,64,100,80
7773.25,71,2.0,42.33,1,0,0,132.3,64,100,80
7775.25,62,0.5,42.33,49,9,0,132.3,64,100,80
7775.75,64,0.5,42.33,1,0,0,132.3,64,100,80
7776.25,60,1.0,42.33,1,0,0,132.3,64,100,80
7777.25,60,1.0,42.33,1,0,0,132.3,64,100,80
7778.25,60,1.0,42.33,1,0,0,159.75225,64,100,80
7779.25,64,0.5,42.33,1,0,0,138.91500000000002,64,100,80
7779.75,71,2.0,42.33,1,0,0,138.91500000000002,64,100,80
7781.75,60,1.0,42.33,1,0,0,138.91500000000002,64,100,80
7782.75,60,1.0,63.5,1,0,0,138.91500000000002,64,100,80
7783.75,0,1.0,63.5,49,9,0,120.0,64,100,80
7784.75,69,2.0,63.5,1,0,0,120.0,64,100,80
7786.75,60,1.0,63.5,1,0,0,120.0,64,100,80
7787.75,64,0.5,63.5,1,0,0,120.0,64,100,80
7788.25,71,2.0,63.5,1,0,0,120.0,64,100,80
7790.25,69,2.0,63.5,1,0,0,120.0,64,100,80
7792.25,71,2.0,63.5,1,0,0,120.0,64,100,80
7794.25,64,0.5,63.5,1,0,0,120.0,64,100,80
7794.75,71,2.0,63.5,1,0,0,120.0,64,100,80
7796.75,71,2.0,63.5,1,0,0,144.9,64,100,80
7798.75,60,1.0,63.5,1,0,0,126.0,64,100,80
7799.75,60,1.0,42.33,50,9,0,152.14499999999998,64,100,80
7800.75,62,0.5,42.33,1,0,0,132.3,64,100,80
7801.25,71,2.0,42.33,1,0,0,132.3,64,100,80
7803.25,69,2.0,42.33,1,0,0,132.3,64,100,80
7805.25,62,0.5,42.33,1,0,0,132.3,64,100,80
7805.75,62,0.5,42.33,1,0,0,132.3,64,100,80
7806.25,69,2.0,42.33,1,0,0,132.3,64,100,80
7808.25,60,1.0,42.33,1,0,0,132.3,64,100,80
7809.25,62,0.5,42.33,1,0,0,132.3,64,100,80
7809.75,69,2.0,42.33,1,0,0,132.3,64,100,80
7811.75,60,1.0,42.33,1,0,0,132.3,64,100,80
7812.75,64,0.5,42.33,49,9,0,132.3,64,100,80
7813.25,64,0.5,52.91,1,0,0,132.3,64,100,80
7813.75,64,0.5,52.91,49,9,0,132.3,64,100,80
7814.25,60,1.0,52.91,1,0,0,132.3,64,100,80
7815.25,71,2.0,52.91,1,0,0,132.3,64,100,80
7817.25,64,0.5,52.91,1,0,0,132.3,64,100,80
7817.75,60,1.0,52.91,1,0,0,132.3,64,100,80
7818.75,62,0.5,52.91,49,9,0,132.3,64,100,80
7819.25,67,0.25,52.91,1,0,0,132.3,64,100,80
7819.5,64,0.5,52.91,50,9,0,132.3,64,100,80
7820.0,69,2.0,52.91,1,0,0,132.3,64,100,80
7822.0,62,0.5,52.91,1,0,0,132.3,64,100,80
7822.5,71,2.0,52.91,1,0,0,132.3,64,100,80
7824.5,64,0.5,95.25,1,0,0,132.3,64,100,80
7825.0,60,1.0,95.25,1,0,0,132.3,64,100,80
7826.0,64,0.5,95.25,1,0,0,132.3,64,100,80
7826.5,60,1.0,95.25,1,0,0,132.3,64,100,80
7827.5,69,2.0,95.25,1,0,0,132.3,64,100,80
7829.5,62,0.5,95.25,1,0,0,132.3,64,100,80
7830.0,69,2.0,95.25,1,0,0,132.3,64,100,80
7832.0,60,1.0,95.25,1,0,0,132.3,64,100,80
7833.0,69,2.0,95.25,1,0,0,132.3,64,100,80
7835.0,64,1.0,95.25,50,9,0,132.3,64,100,80
7836.0,61,0.5,95.25,1,0,0,132.3,64,100,80
7836.5,59,1.0,95.25,1,0,0,132.3,64,100,80
7837.5,0,1.0,31.75,49,9,0,120.0,64,100,80
7838.5,67,0.25,31.75,1,0,0,120.0,64,100,80
7838.75,65,1.0,31.75,1,0,0,120.0,64,100,80
7839.75,62,0.5,31.75,1,0,0,120.0,64,100,80
7840.25,60,1.0,31.75,1,0,0,120.0,64,100,80
7841.25,60,1.0,31.75,1,0,0,144.9,64,100,80
7842.25,67,0.25,31.75,1,0,0,126.0,64,100,80
7842.5,69,2.0,31.75,1,0,0,126.0,64,100,80
7844.5,69,2.0,31.75,1,0,0,126.0,64,100,80
7846.5,71,2.0,31.75,1,0,0,126.0,64,100,80
7848.5,60,1.0,31.75,1,0,0,126.0,64,100,80
7849.5,65,1.0,31.75,1,0,0,126.0,64,100,80
7850.5,60,1.0,84.66,1,0,0,126.0,64,100,80
7851.5,60,1.0,84.66,1,0,0,152.14499999999998,64,100,80
7852.5,60,1.0,84.66,50,9,0,319.5045,64,100,80
7853.5,67,0.25,84.66,1,0,0,138.91500000000002,64,100,80
7853.75,60,1.0,84.66,1,0,0,138.91500000000002,64,100,80
7854.75,62,0.5,84.66,1,0,0,138.91500000000002,64,100,80
7855.25,65,1.0,84.66,1,0,0,138.91500000000002,64,100,80
7856.25,60,1.0,84.66,1,0,0,138.91500000000002,64,100,80
7857.25,71,2.0,84.66,1,0,0,138.91500000000002,64,100,80
7859.25,62,0.5,84.66,1,0,0,138.91500000000002,64,100,80
7859.75,65,1.0,84.66,1,0,0,138.91500000000002,64,100,80
7860.75,71,2.0,84.66,1,0,0,138.91500000000002,64,100,80
7862.75,62,0.5,74.08,1,0,0,138.91500000000002,64,100,80
7863.25,62,0.5,74.08,49,9,0,167.73986250000002,64,100,80
7863.75,65,1.0,74.08,50,9,0,145.86075000000002,64,100,80
7864.75,0,1.0,74.08,49,9,0,120.0,64,100,80
7865.75,71,2.0,74.08,1,0,0,120.0,64,100,80
7867.75,69,2.0,74.08,1,0,0,120.0,64,100,80
7869.75,64,0.5,74.08,50,9,0,120.0,64,100,80
7870.25,69,2.0,74.08,1,0,0,120.0,64,100,80
7872.25,60,1.0,74.08,1,0,0,120.0,64,100,80
7873.25,71,2.0,74.08,50,9,0,120.0,64,100,80
7875.25,67,0.25,74.08,1,0,0,120.0,64,100,80
7875.5,60,1.0,74.08,1,0,0,120.0,64,100,80
7876.5,67,0.25,84.66,49,9,0,120.0,64,100,80
7876.75,64,0.5,84.66,1,0,0,120.0,64,100,80
7877.25,60,1.0,84.66,1,0,0,120.0,64,100,80
7878.25,64,0.5,84.66,1,0,0,120.0,64,100,80
7878.75,65,1.0,84.66,1,0,0,120.0,64,100,80
7879.75,71,2.0,84.66,1,0,0,120.0,64,100,80
7881.75,62,0.5,84.66,1,0,0,120.0,64,100,80
7882.25,71,2.0,84.66,1,0,0,120.0,64,100,80
7884.25,69,2.0,84.66,51,9,0,120.0,64,100,80
7886.25,67,0.25,84.66,1,0,0,120.0,64,100,80
7886.5,71,2.0,84.66,1,0,0,120.0,64,100,80
7888.5,62,0.5,84.66,49,9,0,120.0,64,100,80
7889.0,64,0.5,63.5,1,0,0,120.0,64,100,80
7889.5,65,1.0,63.5,49,9,0,120.0,64,100,80
7890.5,65,1.0,63.5,1,0,0,120.0,64,100,80
7891.5,69,2.0,63.5,49,9,0,120.0,64,100,80
7893.5,64,0.5,63.5,1,0,0,120.0,64,100,80
7894.0,62,0.5,63.5,1,0,0,120.0,64,100,80
7894.5,60,1.0,63.5,1,0,0,120.0,64,100,80
7895.5,62,0.5,63.5,1,0,0,120.0,64,100,80
7896.0,0,1.0,63.5,49,9,0,120.0,64,100,80
7897.0,60,1.0,63.5,50,9,0,120.0,64,100,80
7898.0,0,1.0,63.5,49,9,0,120.0,64,100,80
7899.0,71,2.0,63.5,1,0,0,120.0,64,100,80
7901.0,65,1.0,52.91,1,0,0,120.0,64,100,80
7902.0,71,2.0,52.91,50,9,0,120.0,64,100,80
7904.0,65,1.0,52.91,1,0,0,120.0,64,100,80
7905.0,64,0.5,52.91,1,0,0,120.0,64,100,80
7905.5,67,0.25,52.91,1,0,0,120.0,64,100,80
7905.75,60,1.0,52.91,1,0,0,120.0,64,100,80
7906.75,0,1.0,52.91,49,9,0,120.0,64,100,80
7907.75,62,0.5,52.91,1,0,0,120.0,64,100,80
7908.25,62,0.5,52.91,1,0,0,120.0,64,100,80
7908.75,69,2.0,52.91,1,0,0,120.0,64,100,80
7910.75,69,2.0,52.91,1,0,0,120.0,64,100,80
7912.75,60,1.0,52.91,1,0,0,120.0,64,100,80
7913.75,64,0.5,63.5,1,0,0,120.0,64,100,80
7914.25,67,0.25,63.5,1,0,0,120.0,64,100,80
7914.5,71,2.0,63.5,1,0,0,120.0,64,100,80
7916.5,64,0.5,63.5,1,0,0,120.0,64,100,80
7917.0,65,1.0,63.5,1,0,0,120.0,64,100,80
7918.0,62,0.5,63.5,1,0,0,120.0,64,100,80
7918.5,62,0.5,63.5,1,0,0,120.0,64,100,80
7919.0,60,1.0,63.5,1,0,0,120.0,64,100,80
7920.0,60,1.0,63.5,1,0,0,144.9,64,100,80
7921.0,67,0.25,63.5,1,0,0,126.0,64,100,80
7921.25,71,2.0,63.5,1,0,0,126.0,64,100,80
7923.25,64,0.5,63.5,50,9,0,126.0,64,100,80
7923.75,69,2.0,63.5,1,0,0,126.0,64,100,80
7925.75,62,0.5,63.5,1,0,0,126.0,64,100,80
7926.25,64,0.5,63.5,1,0,0,126.0,64,100,80
7926.75,64,0.5,63.5,1,0,0,126.0,64,100,80
7927.25,69,2.0,63.5,1,0,0,126.0,64,100,80
7929.25,69,2.0,63.5,1,0,0,126.0,64,100,80
7931.25,60,1.0,63.5,1,0,0,126.0,64,100,80
7932.25,69,2.0,63.5,1,0,0,126.0,64,100,80
7934.25,71,2.0,63.5,1,0,0,126.0,64,100,80
7936.25,64,0.5,63.5,1,0,0,126.0,64,100,80
7936.75,71,2.0,63.5,1,0,0,126.0,64,100,80
7938.75,60,1.0,63.5,49,9,0,126.0,64,100,80
7939.75,64,0.5,105.83,1,0,0,126.0,64,100,80
7940.25,71,2.0,105.83,1,0,0,126.0,64,100,80
7942.25,69,2.0,105.83,1,0,0,126.0,64,100,80
7944.25,69,2.0,105.83,1,0,0,152.14499999999998,64,100,80
7946.25,71,2.0,105.83,1,0,0,132.3,64,100,80
7948.25,71,2.0,105.83,1,0,0,159.75225,64,100,80
7950.25,0,1.0,105.83,49,9,0,120.0,64,100,80
7951.25,60,1.0,105.83,1,0,0,120.0,64,100,80
7952.25,71,2.0,105.83,50,9,0,120.0,64,100,80
7954.25,60,1.0,105.83,1,0,0,120.0,64,100,80
7955.25,62,0.5,105.83,1,0,0,120.0,64,100,80
7955.75,71,2.0,105.83,1,0,0,120.0,64,100,80
7957.75,71,2.0,63.5,1,0,0,144.9,64,100,80
7959.75,62,0.5,63.5,1,0,0,126.0,64,100,80
7960.25,69,2.0,63.5,1,0,0,126.0,64,100,80
7962.25,71,2.0,63.5,1,0,0,126.0,64,100,80
7964.25,60,1.0,63.5,1,0,0,126.0,64,100,80
7965.25,60,1.0,63.5,1,0,0,152.14499999999998,64,100,80
7966.25,60,1.0,63.5,1,0,0,132.3,64,100,80
7967.25,64,0.5,63.5,49,9,0,132.3,64,100,80
7967.75,65,1.0,63.5,1,0,0,132.3,64,100,80
7968.75,62,0.5,63.5,1,0,0,132.3,64,100,80
7969.25,71,2.0,63.5,1,0,0,132.3,64,100,80
7971.25,60,1.0,63.5,1,0,0,132.3,64,100,80
7972.25,65,1.0,63.5,1,0,0,132.3,64,100,80
7973.25,71,2.0,63.5,1,0,0,132.3,64,100,80
7975.25,64,0.5,63.5,1,0,0,132.3,64,100,80
7975.75,62,0.5,63.5,1,0,0,132.3,64,100,80
7976.25,67,0.25,63.5,1,0,0,132.3,64,100,80
7976.5,0,1.0,63.5,49,9,0,120.0,64,100,80
7977.5,65,1.0,63.5,1,0,0,120.0,64,100,80
7978.5,69,2.0,63.5,1,0,0,120.0,64,100,80
7980.5,64,0.5,63.5,1,0,0,120.0,64,100,80
7981.0,69,2.0,63.5,1,0,0,120.0,64,100,80
7983.0,64,0.5,63.5,1,0,0,120.0,64,100,80
7983.5,60,1.0,63.5,1,0,0,120.0,64,100,80
7984.5,64,1.0,52.91,49,9,0,120.0,64,100,80
7985.5,61,0.5,52.91,1,0,0,120.0,64,100,80
7986.0,63,0.5,52.91,1,0,0,120.0,64,100,80
7986.5,63,0.5,52.91,1,0,0,144.9,64,100,80
7987.0,63,0.5,52.91,49,9,0,304.28999999999996,64,100,80
7987.5,64,1.0,52.91,1,0,0,132.3,64,100,80
7988.5,68,2.0,52.91,1,0,0,132.3,64,100,80
7990.5,61,0.5,52.91,1,0,0,132.3,64,100,80
7991.0,64,1.0,52.91,1,0,0,132.3,64,100,80
7992.0,59,1.0,52.91,1,0,0,132.3,64,100,80
7993.0,63,0.5,52.91,49,9,0,132.3,64,100,80
7993.5,59,1.0,52.91,1,0,0,132.3,64,100,80
7994.5,59,1.0,42.33,1,0,0,132.3,64,100,80
7995.5,63,0.5,42.33,1,0,0,132.3,64,100,80
7996.0,64,1.0,42.33,50,9,0,132.3,64,100,80
7997.0,59,1.0,42.33,1,0,0,132.3,64,100,80
7998.0,68,2.0,42.33,1,0,0,132.3,64,100,80
8000.0,64,1.0,42.33,1,0,0,132.3,64,100,80
8001.0,63,0.5,42.33,1,0,0,132.3,64,100,80
8001.5,59,1.0,42.33,1,0,0,132.3,64,100,80
8002.5,68,2.0,42.33,1,0,0,132.3,64,100,80
8004.5,68,2.0,42.33,1,0,0,132.3,64,100,80
8006.5,59,1.0,42.33,1,0,0,132.3,64,100,80
8007.5,63,0.5,42.33,1,0,0,132.3,64,100,80
8008.0,61,0.5,63.5,1,0,0,132.3,64,100,80
8008.5,61,0.5,63.5,1,0,0,132.3,64,100,80
8009.0,66,0.25,63.5,1,0,0,132.3,64,100,80
8009.25,68,2.0,63.5,1,0,0,132.3,64,100,80
8011.25,59,1.0,63.5,1,0,0,132.3,64,100,80
8012.25,59,1.0,63.5,1,0,0,132.3,64,100,80
8013.25,59,1.0,63.5,1,0,0,132.3,64,100,80
8014.25,68,2.0,63.5,1,0,0,132.3,64,100,80
8016.25,59,1.0,63.5,1,0,0,132.3,64,100,80
8017.25,64,1.0,63.5,1,0,0,132.3,64,100,80
8018.25,59,1.0,63.5,1,0,0,132.3,64,100,80
8019.25,64,1.0,63.5,1,0,0,132.3,64,100,80
8020.25,61,0.5,84.66,1,0,0,132.3,64,100,80
8020.75,70,2.0,84.66,51,9,0,132.3,64,100,80
8022.75,68,2.0,84.66,1,0,0,132.3,64,100,80
8024.75,68,2.0,84.66,1,0,0,132.3,64,100,80
8026.75,59,1.0,84.66,1,0,0,132.3,64,100,80
8027.75,61,0.5,84.66,1,0,0,132.3,64,100,80
8028.25,59,1.0,84.66,1,0,0,132.3,64,100,80
8029.25,64,1.0,84.66,1,0,0,132.3,64,100,80
8030.25,68,2.0,84.66,1,0,0,132.3,64,100,80
8032.25,61,0.5,84.66,1,0,0,132.3,64,100,80
8032.75,63,0.5,84.66,1,0,0,132.3,64,100,80
8033.25,68,2.0,84.66,1,0,0,132.3,64,100,80
8035.25,63,0.5,63.5,1,0,0,132.3,64,100,80
8035.75,68,2.0,63.5,1,0,0,132.3,64,100,80
8037.75,61,0.5,63.5,1,0,0,132.3,64,100,80
8038.25,63,0.5,63.5,1,0,0,132.3,64,100,80
8038.75,66,0.25,63.5,1,0,0,132.3,64,100,80
8039.0,64,1.0,63.5,1,0,0,132.3,64,100,80
8040.0,59,1.0,63.5,1,0,0,132.3,64,100,80
8041.0,63,0.5,63.5,1,0,0,132.3,64,100,80
8041.5,64,1.0,63.5,50,9,0,132.3,64,100,80
8042.5,63,0.5,63.5,49,9,0,132.3,64,100,80
8043.0,61,0.5,63.5,1,0,0,132.3,64,100,80
8043.5,59,1.0,63.5,1,0,0,132.3,64,100,80
8044.5,64,1.0,63.5,50,9,0,132.3,64,100,80
8045.5,68,2.0,63.5,1,0,0,132.3,64,100,80
8047.5,66,0.25,63.5,1,0,0,132.3,64,100,80
8047.75,64,1.0,63.5,49,9,0,132.3,64,100,80
8048.75,59,1.0,63.5,1,0,0,132.3,64,100,80
8049.75,64,1.0,63.5,1,0,0,132.3,64,100,80
8050.75,68,2.0,63.5,1,0,0,132.3,64,100,80
8052.75,63,0.5,63.5,49,9,0,132.3,64,100,80
8053.25,63,0.5,63.5,1,0,0,132.3,64,100,80
8053.75,66,0.25,63.5,1,0,0,132.3,64,100,80
8054.0,68,2.0,63.5,1,0,0,132.3,64,100,80
8056.0,64,1.0,63.5,1,0,0,132.3,64,100,80
8057.0,63,0.5,63.5,1,0,0,132.3,64,100,80
8057.5,59,1.0,63.5,1,0,0,132.3,64,100,80
8058.5,63,0.5,63.5,1,0,0,132.3,64,100,80
8059.0,61,0.5,63.5,1,0,0,132.3,64,100,80
8059.5,63,0.5,63.5,1,0,0,132.3,64,100,80
8060.0,59,1.0,63.5,1,0,0,132.3,64,100,80
8061.0,59,1.0,63.5,1,0,0,159.75225,64,100,80
8062.0,63,0.5,63.5,1,0,0,138.91500000000002,64,100,80
8062.5,64,1.0,63.5,49,9,0,138.91500000000002,64,100,80
8063.5,63,0.5,63.5,51,9,0,138.91500000000002,64,100,80
8064.0,66,0.25,63.5,1,0,0,138.91500000000002,64,100,80
8064.25,70,2.0,63.5,50,9,0,138.91500000000002,64,100,80
8066.25,64,1.0,95.25,1,0,0,138.91500000000002,64,100,80
8067.25,68,2.0,95.25,1,0,0,138.91500000000002,64,100,80
8069.25,63,0.5,95.25,1,0,0,138.91500000000002,64,100,80
8069.75,68,2.0,95.25,49,9,0,138.91500000000002,64,100,80
8071.75,64,1.0,95.25,1,0,0,138.91500000000002,64,100,80
8072.75,63,0.5,95.25,1,0,0,138.91500000000002,64,100,80
8073.25,63,0.5,95.25,49,9,0,138.91500000000002,64,100,80
8073.75,64,1.0,95.25,49,9,0,138.91500000000002,64,100,80
8074.75,61,0.5,95.25,1,0,0,138.91500000000002,64,100,80
8075.25,59,1.0,95.25,1,0,0,138.91500000000002,64,100,80
8076.25,64,1.0,95.25,1,0,0,138.91500000000002,64,100,80
8077.25,66,0.25,95.25,1,0,0,138.91500000000002,64,100,80
8077.5,70,2.0,52.91,1,0,0,138.91500000000002,64,100,80
8079.5,64,1.0,52.91,49,9,0,138.91500000000002,64,100,80
8080.5,64,1.0,52.91,50,9,0,167.73986250000002,64,100,80
8081.5,63,0.5,52.91,1,0,0,145.86075000000002,64,100,80
8082.0,68,2.0,52.91,1,0,0,145.86075000000002,64,100,80
8084.0,66,0.25,52.91,1,0,0,145.86075000000002,64,100,80
8084.25,63,0.5,52.91,1,0,0,145.86075000000002,64,100,80
8084.75,61,0.5,52.91,1,0,0,145.86075000000002,64,100,80
8085.25,66,0.25,52.91,1,0,0,145.86075000000002,64,100,80
8085.5,66,0.25,52.91,1,0,0,176.12685562500005,64,100,80
8085.75,61,0.5,52.91,1,0,0,153.15378750000005,64,100,80
8086.25,61,0.5,52.91,1,0,0,184.93319840625003,64,100,80
8086.75,68,2.0,63.5,1,0,0,160.81147687500004,64,100,80
8088.75,61,0.5,63.5,1,0,0,160.81147687500004,64,100,80
8089.25,64,1.0,63.5,1,0,0,160.81147687500004,64,100,80
8090.25,61,0.5,63.5,1,0,0,160.81147687500004,64,100,80
8090.75,63,0.5,63.5,1,0,0,160.81147687500004,64,100,80
8091.25,66,0.25,63.5,1,0,0,160.81147687500004,64,100,80
8091.5,63,0.5,63.5,49,9,0,160.81147687500004,64,100,80
8092.0,68,2.0,63.5,51,9,0,160.81147687500004,64,100,80
8094.0,66,0.25,63.5,50,9,0,160.81147687500004,64,100,80
8094.25,64,1.0,63.5,1,0,0,160.81147687500004,64,100,80
8095.25,64,1.0,63.5,1,0,0,160.81147687500004,64,100,80
8096.25,68,2.0,63.5,1,0,0,160.81147687500004,64,100,80
8098.25,61,0.5,84.66,1,0,0,160.81147687500004,64,100,80
8098.75,59,1.0,84.66,1,0,0,160.81147687500004,64,100,80
8099.75,59,1.0,84.66,49,9,0,160.81147687500004,64,100,80
8100.75,59,1.0,84.66,1,0,0,160.81147687500004,64,100,80
8101.75,66,0.25,84.66,1,0,0,160.81147687500004,64,100,80
8102.0,59,1.0,84.66,1,0,0,160.81147687500004,64,100,80
8103.0,61,0.5,84.66,1,0,0,160.81147687500004,64,100,80
8103.5,61,0.5,84.66,1,0,0,160.81147687500004,64,100,80
8104.0,63,0.5,84.66,1,0,0,160.81147687500004,64,100,80
8104.5,63,0.5,84.66,49,9,0,160.81147687500004,64,100,80
8105.0,63,0.5,84.66,1,0,0,160.81147687500004,64,100,80
8105.5,70,2.0,84.66,1,0,0,160.81147687500004,64,100,80
8107.5,63,0.5,42.33,1,0,0,160.81147687500004,64,100,80
8108.0,63,0.5,42.33,1,0,0,194.17985832656254,64,100,80
8108.5,64,1.0,42.33,1,0,0,168.85205071875006,64,100,80
8109.5,59,1.0,42.33,1,0,0,168.85205071875006,64,100,80
8110.5,61,0.5,42.33,1,0,0,168.85205071875006,64,100,80
8111.0,66,0.25,42.33,1,0,0,168.85205071875006,64,100,80
8111.25,63,0.5,42.33,49,9,0,168.85205071875006,64,100,80
8111.75,61,0.5,42.33,1,0,0,168.85205071875006,64,100,80
8112.25,63,0.5,42.33,1,0,0,168.85205071875006,64,100,80
8112.75,64,1.0,42.33,1,0,0,168.85205071875006,64,100,80
8113.75,68,2.0,42.33,1,0,0,168.85205071875006,64,100,80
8115.75,59,1.0,42.33,1,0,0,168.85205071875006,64,100,80
8116.75,61,0.5,95.25,1,0,0,168.85205071875006,64,100,80
8117.25,59,1.0,95.25,1,0,0,168.85205071875006,64,100,80
8118.25,66,0.25,95.25,1,0,0,168.85205071875006,64,100,80
8118.5,0,1.0,95.25,49,9,0,120.0,64,100,80
8119.5,69,2.0,95.25,1,0,0,120.0,64,100,80
8121.5,60,1.0,95.25,1,0,0,120.0,64,100,80
8122.5,62,0.5,95.25,1,0,0,120.0,64,100,80
8123.0,64,0.5,95.25,1,0,0,120.0,64,100,80
8123.5,60,1.0,95.25,1,0,0,120.0,64,100,80
8124.5,67,0.25,95.25,1,0,0,120.0,64,100,80
8124.75,60,1.0,95.25,1,0,0,120.0,64,100,80
8125.75,64,1.0,95.25,50,9,0,120.0,64,100,80
8126.75,63,0.5,95.25,1,0,0,120.0,64,100,80
8127.25,61,0.5,95.25,1,0,0,120.0,64,100,80
8127.75,61,0.5,95.25,1,0,0,144.9,64,100,80
8128.25,66,0.25,95.25,1,0,0,126.0,64,100,80
8128.5,68,2.0,95.25,1,0,0,126.0,64,100,80
8130.5,59,1.0,95.25,1,0,0,126.0,64,100,80
8131.5,59,1.0,95.25,1,0,0,126.0,64,100,80
8132.5,61,0.5,95.25,1,0,0,126.0,64,100,80
8133.0,63,0.5,95.25,1,0,0,126.0,64,100,80
8133.5,66,0.25,95.25,1,0,0,126.0,64,100,80
8133.75,68,2.0,95.25,1,0,0,126.0,64,100,80
8135.75,59,1.0,95.25,1,0,0,126.0,64,100,80
8136.75,63,0.5,52.91,1,0,0,126.0,64,100,80
8137.25,63,0.5,52.91,1,0,0,152.14499999999998,64,100,80
8137.75,66,0.25,52.91,50,9,0,132.3,64,100,80
8138.0,68,2.0,52.91,1,0,0,132.3,64,100,80
8140.0,66,0.25,52.91,1,0,0,132.3,64,100,80
8140.25,63,0.5,52.91,1,0,0,132.3,64,100,80
8140.75,63,0.5,52.91,49,9,0,159.75225,64,100,80
8141.25,61,0.5,52.91,1,0,0,138.91500000000002,64,100,80
8141.75,64,1.0,52.91,50,9,0,138.91500000000002,64,100,80
8142.75,68,2.0,52.91,1,0,0,138.91500000000002,64,100,80
8144.75,63,0.5,52.91,1,0,0,138.91500000000002,64,100,80
8145.25,68,2.0,52.91,1,0,0,138.91500000000002,64,100,80
8147.25,70,2.0,84.66,1,0,0,138.91500000000002,64,100,80
8149.25,59,1.0,84.66,1,0,0,138.91500000000002,64,100,80
8150.25,66,0.25,84.66,49,9,0,138.91500000000002,64,100,80
8150.5,64,1.0,84.66,1,0,0,138.91500000000002,64,100,80
8151.5,70,2.0,84.66,1,0,0,138.91500000000002,64,100,80
8153.5,61,0.5,84.66,1,0,0,138.91500000000002,64,100,80
8154.0,0,1.0,84.66,49,9,0,120.0,64,100,80
8155.0,64,0.5,84.66,1,0,0,120.0,64,100,80
8155.5,65,1.0,84.66,1,0,0,120.0,64,100,80
8156.5,64,0.5,84.66,1,0,0,120.0,64,100,80
8157.0,69,2.0,84.66,1,0,0,120.0,64,100,80
8159.0,62,0.5,84.66,1,0,0,120.0,64,100,80
8159.5,65,1.0,63.5,1,0,0,120.0,64,100,80
8160.5,60,1.0,63.5,1,0,0,120.0,64,100,80
8161.5,67,0.25,63.5,1,0,0,120.0,64,100,80
8161.75,60,1.0,63.5,50,9,0,120.0,64,100,80
8162.75,62,0.5,63.5,1,0,0,120.0,64,100,80
8163.25,64,0.5,63.5,1,0,0,120.0,64,100,80
8163.75,69,2.0,63.5,1,0,0,120.0,64,100,80
8165.75,62,0.5,63.5,1,0,0,120.0,64,100,80
8166.25,71,2.0,63.5,1,0,0,120.0,64,100,80
8168.25,60,1.0,63.5,1,0,0,120.0,64,100,80
8169.25,60,1.0,63.5,1,0,0,120.0,64,100,80
8170.25,69,2.0,63.5,1,0,0,120.0,64,100,80
8172.25,64,0.5,84.66,1,0,0,120.0,64,100,80
8172.75,60,1.0,84.66,1,0,0,120.0,64,100,80
8173.75,62,0.5,84.66,1,0,0,120.0,64,100,80
8174.25,60,1.0,84.66,1,0,0,120.0,64,100,80
8175.25,62,0.5,84.66,1,0,0,120.0,64,100,80
8175.75,69,2.0,84.66,1,0,0,120.0,64,100,80
8177.75,64,0.5,84.66,1,0,0,120.0,64,100,80
8178.25,60,1.0,84.66,1,0,0,120.0,64,100,80
8179.25,64,0.5,84.66,1,0,0,120.0,64,100,80
8179.75,60,1.0,84.66,1,0,0,120.0,64,100,80
8180.75,0,1.0,84.66,49,9,0,120.0,64,100,80
8181.75,65,1.0,84.66,1,0,0,120.0,64,100,80
8182.75,62,0.5,31.75,1,0,0,120.0,64,100,80
8183.25,64,0.5,31.75,1,0,0,120.0,64,100,80
8183.75,71,2.0,31.75,1,0,0,120.0,64,100,80
8185.75,69,2.0,31.75,1,0,0,120.0,64,100,80
8187.75,62,0.5,31.75,1,0,0,120.0,64,100,80
8188.25,69,2.0,31.75,1,0,0,120.0,64,100,80
8190.25,69,2.0,31.75,50,9,0,120.0,64,100,80
8192.25,69,2.0,31.75,1,0,0,120.0,64,100,80
8194.25,69,2.0,31.75,1,0,0,144.9,64,100,80
8196.25,71,2.0,31.75,1,0,0,126.0,64,100,80
8198.25,69,2.0,31.75,1,0,0,126.0,64,100,80
8200.25,64,0.5,31.75,1,0,0,126.0,64,100,80
8200.75,67,0.25,74.08,1,0,0,126.0,64,100,80
8201.0,71,2.0,74.08,1,0,0,126.0,64,100,80
8203.0,65,1.0,74.08,1,0,0,126.0,64,100,80
8204.0,65,1.0,74.08,1,0,0,152.14499999999998,64,100,80
8205.0,71,2.0,74.08,1,0,0,132.3,64,100,80
8207.0,65,1.0,74.08,1,0,0,132.3,64,100,80
8208.0,60,1.0,74.08,49,9,0,132.3,64,100,80
8209.0,67,0.25,74.08,1,0,0,132.3,64,100,80
8209.25,60,1.0,74.08,1,0,0,132.3,64,100,80
8210.25,69,2.0,74.08,1,0,0,132.3,64,100,80
8212.25,69,2.0,74.08,1,0,0,159.75225,64,100,80
8214.25,71,2.0,74.08,1,0,0,138.91500000000002,64,100,80
8216.25,60,1.0,74.08,1,0,0,138.91500000000002,64,100,80
8217.25,62,0.5,74.08,1,0,0,138.91500000000002,64,100,80
8217.75,64,0.5,74.08,1,0,0,138.91500000000002,64,100,80
8218.25,62,0.5,74.08,1,0,0,138.91500000000002,64,100,80
8218.75,67,0.25,74.08,1,0,0,138.91500000000002,64,100,80
8219.0,62,0.5,74.08,1,0,0,138.91500000000002,64,100,80
8219.5,67,0.25,74.08,1,0,0,138.91500000000002,64,100,80
8219.75,65,1.0,74.08,1,0,0,138.91500000000002,64,100,80
8220.75,65,1.0,74.08,1,0,0,167.73986250000002,64,100,80
8221.75,69,2.0,74.08,1,0,0,145.86075000000002,64,100,80
8223.75,60,1.0,74.08,1,0,0,145.86075000000002,64,100,80
8224.75,64,0.5,74.08,1,0,0,145.86075000000002,64,100,80
8225.25,69,2.0,84.66,1,0,0,145.86075000000002,64,100,80
8227.25,60,1.0,84.66,1,0,0,145.86075000000002,64,100,80
8228.25,60,1.0,84.66,1,0,0,145.86075000000002,64,100,80
8229.25,60,1.0,84.66,1,0,0,176.12685562500005,64,100,80
8230.25,69,2.0,84.66,39,9,0,153.15378750000005,64,100,80
8232.25,60,1.0,84.66,1,0,0,153.15378750000005,64,100,80
8233.25,71,2.0,84.66,1,0,0,153.15378750000005,64,100,80
8235.25,62,0.5,84.66,1,0,0,153.15378750000005,64,100,80
8235.75,69,2.0,84.66,1,0,0,153.15378750000005,64,100,80
8237.75,60,1.0,84.66,1,0,0,153.15378750000005,64,100,80
8238.75,60,1.0,84.66,1,0,0,184.93319840625003,64,100,80
8239.75,60,1.0,84.66,1,0,0,388.3597166531251,64,100,80
8240.75,60,1.0,74.08,1,0,0,611.666553728672,64,100,80
8241.75,60,1.0,74.08,1,0,0,177.29465325468757,64,100,80
8242.75,60,1.0,74.08,1,0,0,177.29465325468757,64,100,80
8243.75,62,0.5,74.08,1,0,0,177.29465325468757,64,100,80
8244.25,65,1.0,74.08,1,0,0,177.29465325468757,64,100,80
8245.25,67,0.25,74.08,1,0,0,177.29465325468757,64,100,80
8245.5,60,1.0,74.08,1,0,0,177.29465325468757,64,100,80
8246.5,69,2.0,74.08,1,0,0,177.29465325468757,64,100,80
8248.5,64,0.5,74.08,1,0,0,177.29465325468757,64,100,80
8249.0,64,0.5,74.08,1,0,0,214.08329380503523,64,100,80
8249.5,62,0.5,74.08,1,0,0,186.15938591742196,64,100,80
8250.0,60,1.0,74.08,1,0,0,186.15938591742196,64,100,80
8251.0,69,2.0,74.08,1,0,0,186.15938591742196,64,100,80
8253.0,60,1.0,74.08,1,0,0,186.15938591742196,64,100,80
8254.0,64,0.5,74.08,1,0,0,186.15938591742196,64,100,80
8254.5,60,1.0,74.08,1,0,0,186.15938591742196,64,100,80
8255.5,60,1.0,74.08,1,0,0,186.15938591742196,64,100,80
8256.5,60,1.0,74.08,1,0,0,186.15938591742196,64,100,80
8257.5,64,1.0,74.08,50,9,0,186.15938591742196,64,100,80
8258.5,64,1.0,74.08,1,0,0,186.15938591742196,64,100,80
8259.5,0,1.0,74.08,49,9,0,120.0,64,100,80
8260.5,62,0.5,74.08,1,0,0,120.0,64,100,80
8261.0,69,2.0,74.08,1,0,0,120.0,64,100,80
8263.0,60,1.0,74.08,1,0,0,120.0,64,100,80
8264.0,60,1.0,63.5,1,0,0,120.0,64,100,80
8265.0,64,0.5,63.5,1,0,0,120.0,64,100,80
8265.5,60,1.0,63.5,1,0,0,120.0,64,100,80
8266.5,60,1.0,63.5,1,0,0,144.9,64,100,80
8267.5,71,2.0,63.5,1,0,0,126.0,64,100,80
8269.5,67,0.25,63.5,1,0,0,126.0,64,100,80
8269.75,60,1.0,63.5,1,0,0,126.0,64,100,80
8270.75,69,2.0,63.5,1,0,0,126.0,64,100,80
8272.75,60,1.0,63.5,1,0,0,126.0,64,100,80
8273.75,69,2.0,63.5,1,0,0,126.0,64,100,80
8275.75,62,0.5,63.5,1,0,0,126.0,64,100,80
8276.25,64,0.5,63.5,1,0,0,126.0,64,100,80
8276.75,64,0.5,42.33,1,0,0,126.0,64,100,80
8277.25,69,2.0,42.33,1,0,0,126.0,64,100,80
8279.25,60,1.0,42.33,1,0,0,126.0,64,100,80
8280.25,69,2.0,42.33,49,9,0,126.0,64,100,80
8282.25,65,1.0,42.33,50,9,0,126.0,64,100,80
8283.25,0,1.0,42.33,49,9,0,120.0,64,100,80
8284.25,62,0.5,42.33,1,0,0,120.0,64,100,80
8284.75,69,2.0,42.33,1,0,0,120.0,64,100,80
8286.75,60,1.0,42.33,1,0,0,120.0,64,100,80
8287.75,0,1.0,42.33,49,9,0,120.0,64,100,80
8288.75,64,0.5,42.33,1,0,0,120.0,64,100,80
8289.25,69,2.0,42.33,1,0,0,120.0,64,100,80
8291.25,0,1.0,31.75,49,9,0,120.0,64,100,80
8292.25,64,0.5,31.75,1,0,0,120.0,64,100,80
8292.75,67,0.25,31.75,1,0,0,120.0,64,100,80
8293.0,71,2.0,31.75,1,0,0,120.0,64,100,80
8295.0,60,1.0,31.75,1,0,0,120.0,64,100,80
8296.0,0,1.0,31.75,49,9,0,120.0,64,100,80
8297.0,71,2.0,31.75,1,0,0,120.0,64,100,80
8299.0,67,0.25,31.75,1,0,0,120.0,64,100,80
8299.25,69,2.0,31.75,1,0,0,120.0,64,100,80
8301.25,60,1.0,31.75,1,0,0,120.0,64,100,80
8302.25,60,1.0,31.75,1,0,0,120.0,64,100,80
8303.25,64,0.5,31.75,1,0,0,120.0,64,100,80
8303.75,64,0.5,95.25,1,0,0,144.9,64,100,80
8304.25,60,1.0,95.25,1,0,0,126.0,64,100,80
8305.25,60,1.0,95.25,1,0,0,126.0,64,100,80
8306.25,60,1.0,95.25,1,0,0,152.14499999999998,64,100,80
8307.25,60,1.0,95.25,1,0,0,132.3,64,100,80
8308.25,65,1.0,95.25,1,0,0,132.3,64,100,80
8309.25,62,0.5,95.25,1,0,0,132.3,64,100,80
8309.75,60,1.0,95.25,1,0,0,132.3,64,100,80
8310.75,62,0.5,95.25,49,9,0,132.3,64,100,80
8311.25,65,1.0,95.25,50,9,0,132.3,64,100,80
8312.25,67,0.25,95.25,1,0,0,132.3,64,100,80
8312.5,71,2.0,95.25,1,0,0,132.3,64,100,80
8314.5,60,1.0,31.75,1,0,0,132.3,64,100,80
8315.5,71,2.0,31.75,1,0,0,132.3,64,100,80
8317.5,69,2.0,31.75,1,0,0,132.3,64,100,80
8319.5,71,2.0,31.75,1,0,0,132.3,64,100,80
8321.5,60,1.0,31.75,1,0,0,132.3,64,100,80
8322.5,64,0.5,31.75,1,0,0,132.3,64,100,80
8323.0,64,0.5,31.75,1,0,0,159.75225,64,100,80
8323.5,60,1.0,31.75,1,0,0,138.91500000000002,64,100,80
8324.5,60,1.0,31.75,1,0,0,167.73986250000002,64,100,80
8325.5,69,2.0,31.75,1,0,0,145.86075000000002,64,100,80
8327.5,62,0.5,31.75,1,0,0,145.86075000000002,64,100,80
8328.0,60,1.0,31.75,1,0,0,145.86075000000002,64,100,80
8329.0,69,2.0,105.83,1,0,0,145.86075000000002,64,100,80
8331.0,65,1.0,105.83,1,0,0,145.86075000000002,64,100,80
8332.0,65,1.0,105.83,1,0,0,176.12685562500005,64,100,80
8333.0,0,1.0,105.83,49,9,0,120.0,64,100,80
8334.0,60,1.0,105.83,1,0,0,120.0,64,100,80
8335.0,67,0.25,105.83,49,9,0,120.0,64,100,80
8335.25,62,0.5,105.83,1,0,0,120.0,64,100,80
8335.75,71,2.0,105.83,1,0,0,120.0,64,100,80
8337.75,67,0.25,105.83,1,0,0,120.0,64,100,80
8338.0,69,2.0,105.83,1,0,0,120.0,64,100,80
8340.0,60,1.0,105.83,1,0,0,120.0,64,100,80
8341.0,60,1.0,105.83,1,0,0,120.0,64,100,80
8342.0,60,1.0,63.5,1,0,0,144.9,64,100,80
8343.0,60,1.0,63.5,49,9,0,126.0,64,100,80
8344.0,60,1.0,63.5,1,0,0,126.0,64,100,80
8345.0,71,2.0,63.5,1,0,0,126.0,64,100,80
8347.0,62,0.5,63.5,1,0,0,126.0,64,100,80
8347.5,64,0.5,63.5,50,9,0,126.0,64,100,80
8348.0,69,2.0,63.5,1,0,0,126.0,64,100,80
8350.0,60,1.0,63.5,1,0,0,126.0,64,100,80
8351.0,69,2.0,63.5,1,0,0,126.0,64,100,80
8353.0,60,1.0,63.5,1,0,0,126.0,64,100,80
8354.0,60,1.0,63.5,1,0,0,152.14499999999998,64,100,80
8355.0,71,2.0,63.5,1,0,0,132.3,64,100,80
8357.0,71,2.0,74.08,1,0,0,159.75225,64,100,80
8359.0,60,1.0,74.08,1,0,0,138.91500000000002,64,100,80
8360.0,62,0.5,74.08,1,0,0,138.91500000000002,64,100,80
8360.5,65,1.0,74.08,1,0,0,138.91500000000002,64,100,80
8361.5,60,1.0,74.08,1,0,0,138.91500000000002,64,100,80
8362.5,65,1.0,74.08,1,0,0,138.91500000000002,64,100,80
8363.5,60,1.0,74.08,1,0,0,138.91500000000002,64,100,80
8364.5,60,1.0,74.08,1,0,0,138.91500000000002,64,100,80
8365.5,60,1.0,74.08,1,0,0,167.73986250000002,64,100,80
8366.5,62,0.5,74.08,1,0,0,145.86075000000002,64,100,80
8367.0,60,1.0,74.08,1,0,0,145.86075000000002,64,100,80
8368.0,60,1.0,74.08,1,0,0,145.86075000000002,64,100,80
8369.0,60,1.0,95.25,1,0,0,176.12685562500005,64,100,80
8370.0,64,0.5,95.25,1,0,0,153.15378750000005,64,100,80
8370.5,67,0.25,95.25,1,0,0,153.15378750000005,64,100,80
8370.75,71,2.0,95.25,1,0,0,153.15378750000005,64,100,80
8372.75,60,1.0,95.25,1,0,0,153.15378750000005,64,100,80
8373.75,60,1.0,95.25,1,0,0,184.93319840625003,64,100,80
8374.75,62,0.5,95.25,1,0,0,160.81147687500004,64,100,80
8375.25,60,1.0,95.25,1,0,0,160.81147687500004,64,100,80
8376.25,60,1.0,95.25,1,0,0,160.81147687500004,64,100,80
8377.25,67,0.25,95.25,1,0,0,160.81147687500004,64,100,80
8377.5,60,1.0,95.25,1,0,0,160.81147687500004,64,100,80
8378.5,62,0.5,95.25,1,0,0,160.81147687500004,64,100,80
8379.0,71,2.0,52.91,1,0,0,160.81147687500004,64,100,80
8381.0,71,2.0,52.91,1,0,0,194.17985832656254,64,100,80
8383.0,64,0.5,52.91,1,0,0,168.85205071875006,64,100,80
8383.5,0,1.0,52.91,49,9,0,120.0,64,100,80
8384.5,62,0.5,52.91,1,0,0,120.0,64,100,80
8385.0,0,1.0,52.91,49,9,0,120.0,64,100,80
8386.0,62,0.5,52.91,1,0,0,120.0,64,100,80
8386.5,69,2.0,52.91,49,9,0,120.0,64,100,80
8388.5,62,0.5,52.91,1,0,0,120.0,64,100,80
8389.0,60,1.0,52.91,51,9,0,120.0,64,100,80
8390.0,60,1.0,52.91,1,0,0,120.0,64,100,80
8391.0,71,2.0,52.91,1,0,0,120.0,64,100,80
8393.0,60,1.0,63.5,1,0,0,120.0,64,100,80
8394.0,60,1.0,63.5,1,0,0,120.0,64,100,80
8395.0,64,0.5,63.5,1,0,0,120.0,64,100,80
8395.5,60,1.0,63.5,1,0,0,120.0,64,100,80
8396.5,71,2.0,63.5,1,0,0,120.0,64,100,80
8398.5,69,2.0,63.5,1,0,0,120.0,64,100,80
8400.5,71,2.0,63.5,1,0,0,120.0,64,100,80
8402.5,64,0.5,63.5,1,0,0,120.0,64,100,80
8403.0,60,1.0,63.5,1,0,0,120.0,64,100,80
8404.0,64,0.5,63.5,49,9,0,120.0,64,100,80
8404.5,62,0.5,63.5,1,0,0,120.0,64,100,80
8405.0,0,1.0,63.5,49,9,0,120.0,64,100,80
8406.0,62,0.5,63.5,1,0,0,120.0,64,100,80
8406.5,60,1.0,63.5,1,0,0,120.0,64,100,80
8407.5,64,0.5,63.5,1,0,0,120.0,64,100,80
8408.0,69,2.0,63.5,1,0,0,120.0,64,100,80
8410.0,60,1.0,63.5,1,0,0,120.0,64,100,80
8411.0,62,0.5,63.5,1,0,0,120.0,64,100,80
8411.5,65,1.0,63.5,1,0,0,120.0,64,100,80
8412.5,71,2.0,63.5,50,9,0,120.0,64,100,80
8414.5,65,1.0,63.5,1,0,0,120.0,64,100,80
8415.5,71,2.0,63.5,1,0,0,120.0,64,100,80
8417.5,65,1.0,63.5,1,0,0,120.0,64,100,80
8418.5,62,0.5,63.5,1,0,0,120.0,64,100,80
8419.0,64,0.5,84.66,1,0,0,120.0,64,100,80
8419.5,64,0.5,84.66,1,0,0,120.0,64,100,80
8420.0,71,2.0,84.66,1,0,0,120.0,64,100,80
8422.0,62,0.5,84.66,1,0,0,120.0,64,100,80
8422.5,60,1.0,84.66,1,0,0,120.0,64,100,80
8423.5,64,0.5,84.66,1,0,0,120.0,64,100,80
8424.0,60,1.0,84.66,1,0,0,120.0,64,100,80
8425.0,64,0.5,84.66,49,9,0,120.0,64,100,80
8425.5,64,0.5,84.66,1,0,0,120.0,64,100,80
8426.0,65,1.0,84.66,1,0,0,120.0,64,100,80
8427.0,65,1.0,84.66,1,0,0,144.9,64,100,80
8428.0,60,1.0,84.66,49,9,0,126.0,64,100,80
8429.0,65,1.0,63.5,1,0,0,126.0,64,100,80
8430.0,65,1.0,63.5,1,0,0,152.14499999999998,64,100,80
8431.0,65,1.0,63.5,1,0,0,132.3,64,100,80
8432.0,60,1.0,63.5,1,0,0,132.3,64,100,80
8433.0,62,0.5,63.5,1,0,0,132.3,64,100,80
8433.5,60,1.0,63.5,1,0,0,132.3,64,100,80
8434.5,71,2.0,63.5,1,0,0,132.3,64,100,80
8436.5,69,2.0,63.5,1,0,0,132.3,64,100,80
8438.5,64,0.5,63.5,1,0,0,132.3,64,100,80
8439.0,69,2.0,63.5,1,0,0,132.3,64,100,80
8441.0,69,2.0,63.5,1,0,0,132.3,64,100,80
8443.0,60,1.0,63.5,1,0,0,132.3,64,100,80
8444.0,69,2.0,42.33,1,0,0,132.3,64,100,80
8446.0,0,1.0,42.33,49,9,0,120.0,64,100,80
8447.0,60,1.0,42.33,1,0,0,120.0,64,100,80
8448.0,69,2.0,42.33,49,9,0,120.0,64,100,80
8450.0,62,0.5,42.33,49,9,0,120.0,64,100,80
8450.5,62,0.5,42.33,1,0,0,120.0,64,100,80
8451.0,60,1.0,42.33,1,0,0,120.0,64,100,80
8452.0,64,0.5,42.33,1,0,0,120.0,64,100,80
8452.5,64,0.5,42.33,1,0,0,144.9,64,100,80
8453.0,71,2.0,42.33,1,0,0,126.0,64,100,80
8455.0,60,1.0,42.33,1,0,0,126.0,64,100,80
8456.0,64,0.5,42.33,1,0,0,126.0,64,100,80
8456.5,69,2.0,74.08,1,0,0,126.0,64,100,80
8458.5,64,0.5,74.08,50,9,0,126.0,64,100,80
8459.0,69,2.0,74.08,1,0,0,126.0,64,100,80
8461.0,64,0.5,74.08,49,9,0,126.0,64,100,80
8461.5,64,0.5,74.08,1,0,0,126.0,64,100,80
8462.0,69,2.0,74.08,1,0,0,126.0,64,100,80
8464.0,60,1.0,74.08,1,0,0,126.0,64,100,80
8465.0,65,1.0,74.08,1,0,0,126.0,64,100,80
8466.0,64,0.5,74.08,1,0,0,126.0,64,100,80
8466.5,60,1.0,74.08,1,0,0,126.0,64,100,80
8467.5,62,0.5,74.08,1,0,0,126.0,64,100,80
8468.0,62,0.5,74.08,1,0,0,152.14499999999998,64,100,80
8468.5,64,0.5,52.91,49,9,0,132.3,64,100,80
8469.0,65,1.0,52.91,1,0,0,132.3,64,100,80
8470.0,60,1.0,52.91,1,0,0,132.3,64,100,80
8471.0,60,1.0,52.91,1,0,0,159.75225,64,100,80
8472.0,71,2.0,52.91,1,0,0,138.91500000000002,64,100,80
8474.0,60,1.0,52.91,1,0,0,138.91500000000002,64,100,80
8475.0,64,0.5,52.91,1,0,0,138.91500000000002,64,100,80
8475.5,64,0.5,52.91,1,0,0,138.91500000000002,64,100,80
8476.0,62,0.5,52.91,1,0,0,138.91500000000002,64,100,80
8476.5,60,1.0,52.91,1,0,0,138.91500000000002,64,100,80
8477.5,69,2.0,52.91,1,0,0,138.91500000000002,64,100,80
8479.5,60,1.0,52.91,1,0,0,138.91500000000002,64,100,80
8480.5,60,1.0,52.91,1,0,0,138.91500000000002,64,100,80
8481.5,64,0.5,52.91,1,0,0,138.91500000000002,64,100,80
8482.0,62,0.5,52.91,1,0,0,138.91500000000002,64,100,80
8482.5,60,1.0,52.91,49,9,0,138.91500000000002,64,100,80
8483.5,64,0.5,52.91,1,0,0,138.91500000000002,64,100,80
8484.0,60,1.0,52.91,1,0,0,138.91500000000002,64,100,80
8485.0,60,1.0,52.91,1,0,0,167.73986250000002,64,100,80
8486.0,69,2.0,52.91,1,0,0,145.86075000000002,64,100,80
8488.0,71,2.0,52.91,1,0,0,145.86075000000002,64,100,80
8490.0,69,2.0,52.91,1,0,0,145.86075000000002,64,100,80
8492.0,62,0.5,52.91,1,0,0,145.86075000000002,64,100,80
8492.5,69,2.0,52.91,1,0,0,145.86075000000002,64,100,80
8494.5,60,1.0,52.91,1,0,0,145.86075000000002,64,100,80
8495.5,62,0.5,52.91,1,0,0,145.86075000000002,64,100,80
8496.0,65,1.0,52.91,1,0,0,145.86075000000002,64,100,80
8497.0,65,1.0,52.91,1,0,0,176.12685562500005,64,100,80
8498.0,60,1.0,52.91,1,0,0,153.15378750000005,64,100,80
8499.0,60,1.0,52.91,1,0,0,153.15378750000005,64,100,80
8500.0,69,2.0,52.91,1,0,0,153.15378750000005,64,100,80
8502.0,64,0.5,52.91,1,0,0,153.15378750000005,64,100,80
8502.5,60,1.0,52.91,1,0,0,153.15378750000005,64,100,80
8503.5,69,2.0,52.91,50,9,0,153.15378750000005,64,100,80
8505.5,62,0.5,52.91,49,9,0,153.15378750000005,64,100,80
8506.0,64,0.5,52.91,50,9,0,153.15378750000005,64,100,80
8506.5,69,2.0,42.33,1,0,0,153.15378750000005,64,100,80
8508.5,65,1.0,42.33,1,0,0,153.15378750000005,64,100,80
8509.5,62,0.5,42.33,1,0,0,153.15378750000005,64,100,80
8510.0,60,1.0,42.33,50,9,0,153.15378750000005,64,100,80
8511.0,67,0.25,42.33,1,0,0,153.15378750000005,64,100,80
8511.25,71,2.0,42.33,1,0,0,153.15378750000005,64,100,80
8513.25,60,1.0,42.33,1,0,0,153.15378750000005,64,100,80
8514.25,64,0.5,42.33,1,0,0,153.15378750000005,64,100,80
8514.75,60,1.0,42.33,49,9,0,153.15378750000005,64,100,80
8515.75,64,0.5,42.33,1,0,0,153.15378750000005,64,100,80
8516.25,60,1.0,42.33,1,0,0,153.15378750000005,64,100,80
8517.25,60,1.0,42.33,1,0,0,184.93319840625003,64,100,80
8518.25,64,0.5,95.25,50,9,0,160.81147687500004,64,100,80
8518.75,69,2.0,95.25,1,0,0,160.81147687500004,64,100,80
8520.75,65,1.0,95.25,1,0,0,160.81147687500004,64,100,80
8521.75,64,0.5,95.25,1,0,0,160.81147687500004,64,100,80
8522.25,64,0.5,95.25,1,0,0,160.81147687500004,64,100,80
8522.75,60,1.0,95.25,51,9,0,160.81147687500004,64,100,80
8523.75,67,0.25,95.25,1,0,0,160.81147687500004,64,100,80
8524.0,69,2.0,95.25,1,0,0,160.81147687500004,64,100,80
8526.0,67,0.25,95.25,1,0,0,160.81147687500004,64,100,80
8526.25,60,1.0,95.25,1,0,0,160.81147687500004,64,100,80
8527.25,67,0.25,95.25,1,0,0,160.81147687500004,64,100,80
8527.5,60,1.0,95.25,1,0,0,160.81147687500004,64,100,80
8528.5,60,1.0,42.33,50,9,0,160.81147687500004,64,100,80
8529.5,67,0.25,42.33,1,0,0,160.81147687500004,64,100,80
8529.75,69,2.0,42.33,1,0,0,160.81147687500004,64,100,80
8531.75,62,0.5,42.33,1,0,0,160.81147687500004,64,100,80
8532.25,69,2.0,42.33,50,9,0,160.81147687500004,64,100,80
8534.25,62,0.5,42.33,1,0,0,160.81147687500004,64,100,80
8534.75,65,1.0,42.33,1,0,0,160.81147687500004,64,100,80
8535.75,67,0.25,42.33,1,0,0,160.81147687500004,64,100,80
8536.0,65,1.0,42.33,1,0,0,160.81147687500004,64,100,80
8537.0,62,0.5,42.33,1,0,0,160.81147687500004,64,100,80
8537.5,65,1.0,42.33,1,0,0,160.81147687500004,64,100,80
8538.5,0,1.0,42.33,49,9,0,120.0,64,100,80
8539.5,62,0.5,105.83,1,0,0,120.0,64,100,80
8540.0,69,2.0,105.83,49,9,0,120.0,64,100,80
8542.0,65,1.0,105.83,1,0,0,120.0,64,100,80
8543.0,69,2.0,105.83,1,0,0,120.0,64,100,80
8545.0,67,0.25,105.83,1,0,0,120.0,64,100,80
8545.25,64,0.5,105.83,49,9,0,120.0,64,100,80
8545.75,64,0.5,105.83,1,0,0,120.0,64,100,80
8546.25,64,0.5,105.83,1,0,0,120.0,64,100,80
8546.75,71,2.0,105.83,49,9,0,120.0,64,100,80
8548.75,64,0.5,105.83,1,0,0,120.0,64,100,80
8549.25,60,1.0,105.83,1,0,0,120.0,64,100,80
8550.25,62,0.5,105.83,49,9,0,120.0,64,100,80
8550.75,64,0.5,63.5,1,0,0,120.0,64,100,80
8551.25,0,1.0,63.5,49,9,0,120.0,64,100,80
8552.25,60,1.0,63.5,1,0,0,120.0,64,100,80
8553.25,60,1.0,63.5,1,0,0,120.0,64,100,80
8554.25,0,1.0,63.5,49,9,0,120.0,64,100,80
8555.25,65,1.0,63.5,1,0,0,120.0,64,100,80
8556.25,62,0.5,63.5,1,0,0,120.0,64,100,80
8556.75,60,1.0,63.5,1,0,0,120.0,64,100,80
8557.75,0,1.0,63.5,49,9,0,120.0,64,100,80
8558.75,60,1.0,63.5,1,0,0,120.0,64,100,80
8559.75,64,0.5,63.5,1,0,0,120.0,64,100,80
8560.25,67,0.25,63.5,1,0,0,120.0,64,100,80
8560.5,69,2.0,74.08,1,0,0,120.0,64,100,80
8562.5,65,1.0,74.08,50,9,0,120.0,64,100,80
8563.5,62,0.5,74.08,1,0,0,120.0,64,100,80
8564.0,64,0.5,74.08,1,0,0,120.0,64,100,80
8564.5,62,0.5,74.08,1,0,0,120.0,64,100,80
8565.0,60,1.0,74.08,1,0,0,120.0,64,100,80
8566.0,65,1.0,74.08,1,0,0,120.0,64,100,80
8567.0,60,1.0,74.08,1,0,0,120.0,64,100,80
8568.0,71,2.0,74.08,1,0,0,120.0,64,100,80
8570.0,60,1.0,74.08,1,0,0,120.0,64,100,80
8571.0,60,1.0,74.08,49,9,0,144.9,64,100,80
8572.0,65,1.0,74.08,1,0,0,126.0,64,100,80
8573.0,71,2.0,52.91,1,0,0,126.0,64,100,80
8575.0,67,0.25,52.91,1,0,0,126.0,64,100,80
8575.25,64,0.5,52.91,1,0,0,126.0,64,100,80
8575.75,60,1.0,52.91,1,0,0,126.0,64,100,80
8576.75,60,1.0,52.91,1,0,0,126.0,64,100,80
8577.75,0,1.0,52.91,49,9,0,120.0,64,100,80
8578.75,60,1.0,52.91,1,0,0,120.0,64,100,80
8579.75,69,2.0,52.91,1,0,0,120.0,64,100,80
8581.75,69,2.0,52.91,49,9,0,120.0,64,100,80
8583.75,64,0.5,52.91,1,0,0,120.0,64,100,80
8584.25,64,0.5,52.91,49,9,0,120.0,64,100,80
8584.75,64,0.5,52.91,1,0,0,120.0,64,100,80
8585.25,60,1.0,74.08,1,0,0,120.0,64,100,80
8586.25,0,1.0,74.08,49,9,0,120.0,64,100,80
8587.25,62,0.5,74.08,1,0,0,120.0,64,100,80
8587.75,60,1.0,74.08,1,0,0,120.0,64,100,80
8588.75,0,1.0,74.08,49,9,0,120.0,64,100,80
8589.75,62,0.5,74.08,1,0,0,120.0,64,100,80
8590.25,69,2.0,74.08,1,0,0,120.0,64,100,80
8592.25,60,1.0,74.08,1,0,0,120.0,64,100,80
8593.25,69,2.0,74.08,1,0,0,120.0,64,100,80
8595.25,71,2.0,74.08,1,0,0,120.0,64,100,80
8597.25,60,1.0,74.08,1,0,0,120.0,64,100,80
8598.25,71,2.0,74.08,1,0,0,120.0,64,100,80
8600.25,62,0.5,63.5,1,0,0,120.0,64,100,80
8600.75,71,2.0,63.5,1,0,0,120.0,64,100,80
8602.75,65,1.0,63.5,1,0,0,120.0,64,100,80
8603.75,65,1.0,63.5,1,0,0,120.0,64,100,80
8604.75,60,1.0,63.5,1,0,0,120.0,64,100,80
8605.75,64,0.5,63.5,1,0,0,120.0,64,100,80
8606.25,62,0.5,63.5,1,0,0,120.0,64,100,80
8606.75,60,1.0,63.5,1,0,0,120.0,64,100,80
8607.75,62,0.5,63.5,1,0,0,120.0,64,100,80
8608.25,64,0.5,63.5,1,0,0,120.0,64,100,80
8608.75,0,1.0,63.5,49,9,0,120.0,64,100,80
8609.75,67,0.25,63.5,1,0,0,120.0,64,100,80
8610.0,60,1.0,63.5,1,0,0,120.0,64,100,80
8611.0,71,2.0,63.5,1,0,0,120.0,64,100,80
8613.0,60,1.0,63.5,1,0,0,120.0,64,100,80
8614.0,64,0.5,63.5,1,0,0,120.0,64,100,80
8614.5,62,0.5,63.5,1,0,0,120.0,64,100,80
8615.0,64,0.5,63.5,1,0,0,120.0,64,100,80
8615.5,64,0.5,63.5,1,0,0,120.0,64,100,80
8616.0,60,1.0,63.5,1,0,0,120.0,64,100,80
8617.0,64,0.5,63.5,49,9,0,120.0,64,100,80
8617.5,65,1.0,63.5,1,0,0,120.0,64,100,80
8618.5,64,0.5,63.5,1,0,0,120.0,64,100,80
8619.0,71,2.0,63.5,49,9,0,120.0,64,100,80
8621.0,65,1.0,52.91,1,0,0,120.0,64,100,80
8622.0,67,0.25,52.91,39,9,0,120.0,64,100,80
8622.25,60,1.0,52.91,1,0,0,120.0,64,100,80
8623.25,60,1.0,52.91,1,0,0,120.0,64,100,80
8624.25,69,2.0,52.91,1,0,0,120.0,64,100,80
8626.25,60,1.0,52.91,1,0,0,120.0,64,100,80
8627.25,69,2.0,52.91,49,9,0,120.0,64,100,80
8629.25,65,1.0,52.91,1,0,0,120.0,64,100,80
8630.25,60,1.0,52.91,1,0,0,120.0,64,100,80
8631.25,67,0.25,52.91,1,0,0,120.0,64,100,80
8631.5,62,0.5,52.91,1,0,0,120.0,64,100,80
8632.0,60,1.0,52.91,1,0,0,120.0,64,100,80
8633.0,69,2.0,105.83,1,0,0,120.0,64,100,80
8635.0,67,0.25,105.83,1,0,0,120.0,64,100,80
8635.25,69,2.0,105.83,1,0,0,120.0,64,100,80
8637.25,60,1.0,105.83,1,0,0,120.0,64,100,80
8638.25,60,1.0,105.83,1,0,0,144.9,64,100,80
8639.25,60,1.0,105.83,1,0,0,126.0,64,100,80
8640.25,60,1.0,105.83,1,0,0,126.0,64,100,80
8641.25,60,1.0,105.83,1,0,0,126.0,64,100,80
8642.25,60,1.0,105.83,1,0,0,126.0,64,100,80
8643.25,67,0.25,105.83,1,0,0,126.0,64,100,80
8643.5,62,0.5,105.83,1,0,0,126.0,64,100,80
8644.0,62,0.5,105.83,1,0,0,152.14499999999998,64,100,80
8644.5,60,1.0,74.08,1,0,0,132.3,64,100,80
8645.5,71,2.0,74.08,1,0,0,132.3,64,100,80
8647.5,69,2.0,74.08,1,0,0,132.3,64,100,80
8649.5,60,1.0,74.08,49,9,0,132.3,64,100,80
8650.5,62,0.5,74.08,1,0,0,132.3,64,100,80
8651.0,69,2.0,74.08,1,0,0,132.3,64,100,80
8653.0,60,1.0,74.08,1,0,0,132.3,64,100,80
8654.0,60,1.0,74.08,1,0,0,159.75225,64,100,80
8655.0,62,0.5,74.08,50,9,0,138.91500000000002,64,100,80
8655.5,62,0.5,74.08,1,0,0,138.91500000000002,64,100,80
8656.0,67,0.25,74.08,1,0,0,138.91500000000002,64,100,80
8656.25,60,1.0,74.08,1,0,0,138.91500000000002,64,100,80
8657.25,71,2.0,74.08,1,0,0,138.91500000000002,64,100,80
8659.25,60,1.0,74.08,1,0,0,138.91500000000002,64,100,80
8660.25,60,1.0,74.08,1,0,0,167.73986250000002,64,100,80
8661.25,71,2.0,74.08,1,0,0,145.86075000000002,64,100,80
8663.25,64,0.5,74.08,1,0,0,145.86075000000002,64,100,80
8663.75,69,2.0,74.08,1,0,0,145.86075000000002,64,100,80
8665.75,60,1.0,74.08,1,0,0,145.86075000000002,64,100,80
8666.75,69,2.0,74.08,1,0,0,145.86075000000002,64,100,80
8668.75,60,1.0,74.08,1,0,0,145.86075000000002,64,100,80
8669.75,71,2.0,74.08,1,0,0,145.86075000000002,64,100,80
8671.75,67,0.25,74.08,1,0,0,145.86075000000002,64,100,80
8672.0,67,0.25,74.08,1,0,0,145.86075000000002,64,100,80
8672.25,60,1.0,63.5,1,0,0,145.86075000000002,64,100,80
8673.25,60,1.0,63.5,1,0,0,176.12685562500005,64,100,80
8674.25,69,2.0,63.5,1,0,0,153.15378750000005,64,100,80
8676.25,69,2.0,63.5,1,0,0,184.93319840625003,64,100,80
8678.25,64,0.5,63.5,1,0,0,160.81147687500004,64,100,80
8678.75,64,0.5,63.5,1,0,0,160.81147687500004,64,100,80
8679.25,64,0.5,63.5,1,0,0,160.81147687500004,64,100,80
8679.75,62,0.5,63.5,1,0,0,160.81147687500004,64,100,80
8680.25,71,2.0,63.5,1,0,0,160.81147687500004,64,100,80
8682.25,69,2.0,63.5,1,0,0,160.81147687500004,64,100,80
8684.25,71,2.0,63.5,1,0,0,160.81147687500004,64,100,80
8686.25,60,1.0,63.5,50,9,0,160.81147687500004,64,100,80
8687.25,62,0.5,63.5,1,0,0,160.81147687500004,64,100,80
8687.75,62,0.5,63.5,1,0,0,160.81147687500004,64,100,80
8688.25,69,2.0,63.5,1,0,0,160.81147687500004,64,100,80
8690.25,71,2.0,63.5,1,0,0,160.81147687500004,64,100,80
8692.25,62,0.5,63.5,49,9,0,160.81147687500004,64,100,80
8692.75,65,1.0,63.5,1,0,0,160.81147687500004,64,100,80
8693.75,71,2.0,63.5,1,0,0,160.81147687500004,64,100,80
8695.75,65,1.0,63.5,1,0,0,160.81147687500004,64,100,80
8696.75,71,2.0,63.5,49,9,0,160.81147687500004,64,100,80
8698.75,65,1.0,63.5,50,9,0,160.81147687500004,64,100,80
8699.75,62,0.5,63.5,1,0,0,160.81147687500004,64,100,80
8700.25,60,1.0,63.5,1,0,0,160.81147687500004,64,100,80
8701.25,64,0.5,63.5,1,0,0,160.81147687500004,64,100,80
8701.75,69,2.0,63.5,1,0,0,160.81147687500004,64,100,80
8703.75,60,1.0,63.5,1,0,0,160.81147687500004,64,100,80
8704.75,71,2.0,63.5,1,0,0,160.81147687500004,64,100,80
8706.75,71,2.0,63.5,1,0,0,194.17985832656254,64,100,80
8708.75,64,0.5,63.5,1,0,0,168.85205071875006,64,100,80
8709.25,69,2.0,63.5,1,0,0,168.85205071875006,64,100,80
8711.25,69,2.0,63.5,1,0,0,168.85205071875006,64,100,80
8713.25,69,2.0,63.5,1,0,0,168.85205071875006,64,100,80
8715.25,69,2.0,63.5,1,0,0,168.85205071875006,64,100,80
8717.25,71,2.0,63.5,1,0,0,168.85205071875006,64,100,80
8719.25,69,2.0,63.5,1,0,0,168.85205071875006,64,100,80
8721.25,60,1.0,84.66,1,0,0,168.85205071875006,64,100,80
8722.25,60,1.0,84.66,50,9,0,203.8888512428907,64,100,80
8723.25,62,0.5,84.66,1,0,0,177.29465325468757,64,100,80
8723.75,69,2.0,84.66,1,0,0,177.29465325468757,64,100,80
8725.75,71,2.0,84.66,51,9,0,177.29465325468757,64,100,80
8727.75,62,0.5,84.66,1,0,0,177.29465325468757,64,100,80
8728.25,69,2.0,84.66,1,0,0,177.29465325468757,64,100,80
8730.25,69,2.0,84.66,1,0,0,177.29465325468757,64,100,80
8732.25,71,2.0,84.66,1,0,0,177.29465325468757,64,100,80
8734.25,69,2.0,84.66,1,0,0,177.29465325468757,64,100,80
8736.25,67,0.25,84.66,1,0,0,177.29465325468757,64,100,80
8736.5,67,0.25,84.66,1,0,0,177.29465325468757,64,100,80
8736.75,69,2.0,52.91,1,0,0,177.29465325468757,64,100,80
8738.75,60,1.0,52.91,1,0,0,177.29465325468757,64,100,80
8739.75,69,2.0,52.91,1,0,0,177.29465325468757,64,100,80
8741.75,60,1.0,52.91,49,9,0,177.29465325468757,64,100,80
8742.75,65,1.0,52.91,1,0,0,177.29465325468757,64,100,80
8743.75,69,2.0,52.91,1,0,0,177.29465325468757,64,100,80
8745.75,64,0.5,52.91,1,0,0,177.29465325468757,64,100,80
8746.25,60,1.0,52.91,49,9,0,177.29465325468757,64,100,80
8747.25,65,1.0,52.91,1,0,0,177.29465325468757,64,100,80
8748.25,69,2.0,52.91,1,0,0,177.29465325468757,64,100,80
8750.25,67,0.25,52.91,1,0,0,177.29465325468757,64,100,80
8750.5,0,1.0,52.91,49,9,0,120.0,64,100,80
8751.5,0,1.0,42.33,49,9,0,144.9,64,100,80
8752.5,60,1.0,42.33,1,0,0,126.0,64,100,80
8753.5,62,0.5,42.33,1,0,0,126.0,64,100,80
8754.0,69,2.0,42.33,1,0,0,126.0,64,100,80
8756.0,62,0.5,42.33,1,0,0,126.0,64,100,80
8756.5,65,1.0,42.33,49,9,0,126.0,64,100,80
8757.5,60,1.0,42.33,1,0,0,126.0,64,100,80
8758.5,64,0.5,42.33,1,0,0,126.0,64,100,80
8759.0,69,2.0,42.33,1,0,0,126.0,64,100,80
8761.0,67,0.25,42.33,1,0,0,126.0,64,100,80
8761.25,60,1.0,42.33,1,0,0,126.0,64,100,80
8762.25,69,2.0,42.33,1,0,0,126.0,64,100,80
8764.25,64,0.5,74.08,1,0,0,126.0,64,100,80
8764.75,60,1.0,74.08,1,0,0,126.0,64,100,80
8765.75,60,1.0,74.08,1,0,0,152.14499999999998,64,100,80
8766.75,65,1.0,74.08,1,0,0,132.3,64,100,80
8767.75,64,0.5,74.08,50,9,0,132.3,64,100,80
8768.25,65,1.0,74.08,1,0,0,132.3,64,100,80
8769.25,65,1.0,74.08,1,0,0,159.75225,64,100,80
8770.25,69,2.0,74.08,1,0,0,138.91500000000002,64,100,80
8772.25,65,1.0,74.08,1,0,0,138.91500000000002,64,100,80
8773.25,67,0.25,74.08,1,0,0,138.91500000000002,64,100,80
8773.5,64,0.5,74.08,50,9,0,138.91500000000002,64,100,80
8774.0,60,1.0,74.08,1,0,0,138.91500000000002,64,100,80
8775.0,69,2.0,84.66,1,0,0,138.91500000000002,64,100,80
8777.0,67,0.25,84.66,1,0,0,138.91500000000002,64,100,80
8777.25,71,2.0,84.66,1,0,0,138.91500000000002,64,100,80
8779.25,71,2.0,84.66,1,0,0,167.73986250000002,64,100,80
8781.25,64,0.5,84.66,1,0,0,145.86075000000002,64,100,80
8781.75,67,0.25,84.66,1,0,0,145.86075000000002,64,100,80
8782.0,69,2.0,84.66,1,0,0,145.86075000000002,64,100,80
8784.0,64,0.5,84.66,39,9,0,145.86075000000002,64,100,80
8784.5,60,1.0,84.66,1,0,0,145.86075000000002,64,100,80
8785.5,60,1.0,84.66,1,0,0,145.86075000000002,64,100,80
8786.5,69,2.0,84.66,1,0,0,145.86075000000002,64,100,80
8788.5,60,1.0,84.66,49,9,0,145.86075000000002,64,100,80
8789.5,62,0.5,31.75,1,0,0,145.86075000000002,64,100,80
8790.0,60,1.0,31.75,1,0,0,145.86075000000002,64,100,80
8791.0,64,0.5,31.75,1,0,0,145.86075000000002,64,100,80
8791.5,65,1.0,31.75,1,0,0,145.86075000000002,64,100,80
8792.5,62,0.5,31.75,1,0,0,145.86075000000002,64,100,80
8793.0,65,1.0,31.75,1,0,0,145.86075000000002,64,100,80
8794.0,60,1.0,31.75,1,0,0,145.86075000000002,64,100,80
8795.0,62,0.5,31.75,1,0,0,145.86075000000002,64,100,80
8795.5,62,0.5,31.75,1,0,0,145.86075000000002,64,100,80
8796.0,60,1.0,31.75,51,9,0,145.86075000000002,64,100,80
8797.0,64,1.0,31.75,50,9,0,145.86075000000002,64,100,80
8798.0,64,1.0,31.75,1,0,0,145.86075000000002,64,100,80
8799.0,70,2.0,63.5,1,0,0,145.86075000000002,64,100,80
8801.0,68,2.0,63.5,1,0,0,145.86075000000002,64,100,80
8803.0,59,1.0,63.5,49,9,0,145.86075000000002,64,100,80
8804.0,64,1.0,63.5,1,0,0,145.86075000000002,64,100,80
8805.0,61,0.5,63.5,1,0,0,145.86075000000002,64,100,80
8805.5,68,2.0,63.5,1,0,0,145.86075000000002,64,100,80
8807.5,59,1.0,63.5,1,0,0,145.86075000000002,64,100,80
8808.5,63,0.5,63.5,1,0,0,145.86075000000002,64,100,80
8809.0,64,1.0,63.5,49,9,0,145.86075000000002,64,100,80
8810.0,63,0.5,63.5,1,0,0,145.86075000000002,64,100,80
8810.5,63,0.5,63.5,1,0,0,145.86075000000002,64,100,80
8811.0,70,2.0,63.5,1,0,0,145.86075000000002,64,100,80
8813.0,59,1.0,42.33,1,0,0,145.86075000000002,64,100,80
8814.0,59,1.0,42.33,1,0,0,145.86075000000002,64,100,80
8815.0,59,1.0,42.33,1,0,0,176.12685562500005,64,100,80
8816.0,63,0.5,42.33,1,0,0,153.15378750000005,64,100,80
8816.5,68,2.0,42.33,1,0,0,153.15378750000005,64,100,80
8818.5,64,1.0,42.33,49,9,0,153.15378750000005,64,100,80
8819.5,64,1.0,42.33,1,0,0,153.15378750000005,64,100,80
8820.5,59,1.0,42.33,1,0,0,153.15378750000005,64,100,80
8821.5,64,1.0,42.33,1,0,0,153.15378750000005,64,100,80
8822.5,63,0.5,42.33,49,9,0,153.15378750000005,64,100,80
8823.0,61,0.5,42.33,1,0,0,153.15378750000005,64,100,80
8823.5,64,1.0,42.33,49,9,0,153.15378750000005,64,100,80
8824.5,64,1.0,52.91,50,9,0,184.93319840625003,64,100,80
8825.5,63,0.5,52.91,1,0,0,160.81147687500004,64,100,80
8826.0,59,1.0,52.91,1,0,0,160.81147687500004,64,100,80
8827.0,68,2.0,52.91,1,0,0,160.81147687500004,64,100,80
8829.0,59,1.0,52.91,1,0,0,160.81147687500004,64,100,80
8830.0,63,0.5,52.91,1,0,0,160.81147687500004,64,100,80
8830.5,68,2.0,52.91,1,0,0,160.81147687500004,64,100,80
8832.5,59,1.0,52.91,1,0,0,160.81147687500004,64,100,80
8833.5,63,0.5,52.91,1,0,0,160.81147687500004,64,100,80
8834.0,63,0.5,52.91,1,0,0,160.81147687500004,64,100,80
8834.5,68,2.0,52.91,1,0,0,160.81147687500004,64,100,80
8836.5,59,1.0,52.91,1,0,0,160.81147687500004,64,100,80
8837.5,70,2.0,63.5,1,0,0,160.81147687500004,64,100,80
8839.5,59,1.0,63.5,1,0,0,160.81147687500004,64,100,80
8840.5,59,1.0,63.5,49,9,0,160.81147687500004,64,100,80
8841.5,64,1.0,63.5,1,0,0,160.81147687500004,64,100,80
8842.5,64,1.0,63.5,50,9,0,160.81147687500004,64,100,80
8843.5,66,0.25,63.5,1,0,0,160.81147687500004,64,100,80
8843.75,59,1.0,63.5,1,0,0,160.81147687500004,64,100,80
8844.75,61,0.5,63.5,1,0,0,160.81147687500004,64,100,80
8845.25,68,2.0,63.5,49,9,0,160.81147687500004,64,100,80
8847.25,63,0.5,63.5,1,0,0,160.81147687500004,64,100,80
8847.75,63,0.5,63.5,1,0,0,160.81147687500004,64,100,80
8848.25,63,0.5,63.5,49,9,0,160.81147687500004,64,100,80
8848.75,63,0.5,63.5,1,0,0,160.81147687500004,64,100,80
8849.25,64,1.0,63.5,1,0,0,160.81147687500004,64,100,80
8850.25,70,2.0,63.5,1,0,0,160.81147687500004,64,100,80
8852.25,63,0.5,63.5,1,0,0,160.81147687500004,64,100,80
8852.75,61,0.5,63.5,1,0,0,160.81147687500004,64,100,80
8853.25,59,1.0,63.5,1,0,0,160.81147687500004,64,100,80
8854.25,68,2.0,63.5,1,0,0,160.81147687500004,64,100,80
8856.25,61,0.5,63.5,1,0,0,160.81147687500004,64,100,80
8856.75,68,2.0,63.5,1,0,0,160.81147687500004,64,100,80
8858.75,59,1.0,63.5,1,0,0,160.81147687500004,64,100,80
8859.75,66,0.25,63.5,1,0,0,160.81147687500004,64,100,80
8860.0,64,1.0,63.5,50,9,0,160.81147687500004,64,100,80
8861.0,63,0.5,42.33,49,9,0,160.81147687500004,64,100,80
8861.5,59,1.0,42.33,1,0,0,160.81147687500004,64,100,80
8862.5,64,1.0,42.33,49,9,0,160.81147687500004,64,100,80
8863.5,64,1.0,42.33,1,0,0,160.81147687500004,64,100,80
8864.5,64,1.0,42.33,50,9,0,160.81147687500004,64,100,80
8865.5,68,2.0,42.33,1,0,0,160.81147687500004,64,100,80
8867.5,70,2.0,42.33,49,9,0,160.81147687500004,64,100,80
8869.5,64,1.0,42.33,1,0,0,160.81147687500004,64,100,80
8870.5,64,1.0,42.33,1,0,0,194.17985832656254,64,100,80
8871.5,64,1.0,42.33,1,0,0,407.7777024857814,64,100,80
8872.5,68,2.0,42.33,49,9,0,177.29465325468757,64,100,80
8874.5,63,0.5,42.33,50,9,0,177.29465325468757,64,100,80
8875.0,59,1.0,42.33,1,0,0,177.29465325468757,64,100,80
8876.0,66,0.25,42.33,1,0,0,177.29465325468757,64,100,80
8876.25,68,2.0,42.33,1,0,0,177.29465325468757,64,100,80
8878.25,63,0.5,42.33,1,0,0,177.29465325468757,64,100,80
8878.75,63,0.5,42.33,1,0,0,177.29465325468757,64,100,80
8879.25,64,1.0,42.33,1,0,0,177.29465325468757,64,100,80
8880.25,63,0.5,42.33,1,0,0,177.29465325468757,64,100,80
8880.75,63,0.5,42.33,1,0,0,177.29465325468757,64,100,80
8881.25,63,0.5,42.33,49,9,0,177.29465325468757,64,100,80
8881.75,61,0.5,42.33,40,9,0,177.29465325468757,64,100,80
8882.25,63,0.5,42.33,49,9,0,177.29465325468757,64,100,80
8882.75,61,0.5,42.33,1,0,0,177.29465325468757,64,100,80
8883.25,64,1.0,52.91,1,0,0,177.29465325468757,64,100,80
8884.25,64,1.0,52.91,1,0,0,177.29465325468757,64,100,80
8885.25,59,1.0,52.91,1,0,0,177.29465325468757,64,100,80
8886.25,64,1.0,52.91,1,0,0,177.29465325468757,64,100,80
8887.25,64,1.0,52.91,1,0,0,214.08329380503523,64,100,80
8888.25,63,0.5,52.91,1,0,0,186.15938591742196,64,100,80
8888.75,59,1.0,52.91,1,0,0,186.15938591742196,64,100,80
8889.75,59,1.0,52.91,1,0,0,186.15938591742196,64,100,80
8890.75,68,2.0,52.91,1,0,0,186.15938591742196,64,100,80
8892.75,64,1.0,52.91,1,0,0,186.15938591742196,64,100,80
8893.75,61,0.5,52.91,1,0,0,186.15938591742196,64,100,80
8894.25,63,0.5,52.91,1,0,0,186.15938591742196,64,100,80
8894.75,61,0.5,21.16,1,0,0,186.15938591742196,64,100,80
8895.25,64,1.0,21.16,1,0,0,186.15938591742196,64,100,80
8896.25,59,1.0,21.16,1,0,0,186.15938591742196,64,100,80
8897.25,64,1.0,21.16,1,0,0,186.15938591742196,64,100,80
8898.25,64,1.0,21.16,1,0,0,186.15938591742196,64,100,80
8899.25,61,0.5,21.16,1,0,0,186.15938591742196,64,100,80
8899.75,63,0.5,21.16,1,0,0,186.15938591742196,64,100,80
8900.25,61,0.5,21.16,1,0,0,186.15938591742196,64,100,80
8900.75,63,0.5,21.16,1,0,0,186.15938591742196,64,100,80
8901.25,70,2.0,21.16,1,0,0,186.15938591742196,64,100,80
8903.25,59,1.0,21.16,1,0,0,186.15938591742196,64,100,80
8904.25,61,0.5,21.16,1,0,0,186.15938591742196,64,100,80
8904.75,63,0.5,42.33,1,0,0,186.15938591742196,64,100,80
8905.25,64,1.0,42.33,1,0,0,186.15938591742196,64,100,80
8906.25,70,2.0,42.33,1,0,0,186.15938591742196,64,100,80
8908.25,59,1.0,42.33,1,0,0,186.15938591742196,64,100,80
8909.25,68,2.0,42.33,1,0,0,186.15938591742196,64,100,80
8911.25,64,1.0,42.33,1,0,0,186.15938591742196,64,100,80
8912.25,70,2.0,42.33,51,9,0,186.15938591742196,64,100,80
8914.25,61,0.5,42.33,1,0,0,186.15938591742196,64,100,80
8914.75,68,2.0,42.33,1,0,0,186.15938591742196,64,100,80
8916.75,61,0.5,42.33,1,0,0,186.15938591742196,64,100,80
8917.25,68,2.0,42.33,1,0,0,186.15938591742196,64,100,80
8919.25,59,1.0,42.33,1,0,0,186.15938591742196,64,100,80
8920.25,61,0.5,10.58,1,0,0,186.15938591742196,64,100,80
8920.75,59,1.0,10.58,1,0,0,186.15938591742196,64,100,80
8921.75,61,0.5,10.58,1,0,0,186.15938591742196,64,100,80
8922.25,59,1.0,10.58,1,0,0,186.15938591742196,64,100,80
8923.25,61,0.5,10.58,1,0,0,186.15938591742196,64,100,80
8923.75,63,0.5,10.58,1,0,0,186.15938591742196,64,100,80
8924.25,63,0.5,10.58,1,0,0,186.15938591742196,64,100,80
8924.75,70,2.0,10.58,1,0,0,186.15938591742196,64,100,80
8926.75,63,0.5,10.58,1,0,0,186.15938591742196,64,100,80
8927.25,59,1.0,10.58,1,0,0,186.15938591742196,64,100,80
8928.25,66,0.25,10.58,1,0,0,186.15938591742196,64,100,80
8928.5,64,1.0,10.58,1,0,0,186.15938591742196,64,100,80
8929.5,0,1.0,21.16,49,9,0,120.0,64,100,80
8930.5,62,0.5,21.16,1,0,0,120.0,64,100,80
8931.0,62,0.5,21.16,1,0,0,144.9,64,100,80
8931.5,64,0.5,21.16,1,0,0,126.0,64,100,80
8932.0,60,1.0,21.16,1,0,0,126.0,64,100,80
8933.0,64,0.5,21.16,49,9,0,126.0,64,100,80
8933.5,64,1.0,21.16,50,9,0,126.0,64,100,80
8934.5,0,1.0,21.16,49,9,0,120.0,64,100,80
8935.5,62,0.5,21.16,1,0,0,120.0,64,100,80
8936.0,69,2.0,21.16,50,9,0,120.0,64,100,80
8938.0,0,1.0,21.16,49,9,0,120.0,64,100,80
8939.0,67,0.25,21.16,1,0,0,120.0,64,100,80
8939.25,62,0.5,21.16,1,0,0,120.0,64,100,80
8939.75,67,0.25,21.16,1,0,0,120.0,64,100,80
8940.0,60,1.0,21.16,1,0,0,120.0,64,100,80
8941.0,62,0.5,21.16,1,0,0,120.0,64,100,80
8941.5,64,1.0,21.16,50,9,0,120.0,64,100,80
8942.5,59,1.0,21.16,1,0,0,120.0,64,100,80
8943.5,61,0.5,21.16,1,0,0,120.0,64,100,80
8944.0,63,0.5,21.16,49,9,0,120.0,64,100,80
8944.5,59,1.0,21.16,51,9,0,120.0,64,100,80
8945.5,66,0.25,21.16,1,0,0,120.0,64,100,80
8945.75,59,1.0,21.16,1,0,0,120.0,64,100,80
8946.75,61,0.5,21.16,1,0,0,120.0,64,100,80
8947.25,59,1.0,31.75,1,0,0,120.0,64,100,80
8948.25,66,0.25,31.75,1,0,0,120.0,64,100,80
8948.5,68,2.0,31.75,1,0,0,120.0,64,100,80
8950.5,61,0.5,31.75,1,0,0,120.0,64,100,80
8951.0,63,0.5,31.75,1,0,0,120.0,64,100,80
8951.5,70,2.0,31.75,1,0,0,120.0,64,100,80
8953.5,59,1.0,31.75,1,0,0,120.0,64,100,80
8954.5,59,1.0,31.75,1,0,0,144.9,64,100,80
8955.5,63,0.5,31.75,1,0,0,126.0,64,100,80
8956.0,61,0.5,31.75,1,0,0,126.0,64,100,80
8956.5,61,0.5,31.75,1,0,0,126.0,64,100,80
8957.0,59,1.0,31.75,1,0,0,126.0,64,100,80
8958.0,61,0.5,42.33,1,0,0,126.0,64,100,80
8958.5,59,1.0,42.33,1,0,0,126.0,64,100,80
8959.5,68,2.0,42.33,1,0,0,126.0,64,100,80
8961.5,68,2.0,42.33,1,0,0,126.0,64,100,80
8963.5,63,0.5,42.33,1,0,0,126.0,64,100,80
8964.0,68,2.0,42.33,50,9,0,126.0,64,100,80
8966.0,0,1.0,42.33,49,9,0,120.0,64,100,80
8967.0,0,1.0,42.33,49,9,0,144.9,64,100,80
8968.0,69,2.0,42.33,1,0,0,126.0,64,100,80
8970.0,60,1.0,42.33,1,0,0,126.0,64,100,80
8971.0,60,1.0,42.33,1,0,0,152.14499999999998,64,100,80
8972.0,64,0.5,42.33,1,0,0,132.3,64,100,80
8972.5,69,2.0,42.33,1,0,0,132.3,64,100,80
8974.5,65,1.0,42.33,49,9,0,132.3,64,100,80
8975.5,64,0.5,42.33,1,0,0,132.3,64,100,80
8976.0,60,1.0,42.33,1,0,0,132.3,64,100,80
8977.0,60,1.0,42.33,50,9,0,132.3,64,100,80
8978.0,62,0.5,42.33,1,0,0,132.3,64,100,80
8978.5,64,0.5,42.33,1,0,0,132.3,64,100,80
8979.0,62,0.5,42.33,1,0,0,132.3,64,100,80
8979.5,62,0.5,42.33,1,0,0,132.3,64,100,80
8980.0,69,2.0,42.33,1,0,0,132.3,64,100,80
8982.0,67,0.25,42.33,1,0,0,132.3,64,100,80
8982.25,69,2.0,42.33,1,0,0,132.3,64,100,80
8984.25,65,1.0,52.91,1,0,0,132.3,64,100,80
8985.25,64,0.5,52.91,1,0,0,132.3,64,100,80
8985.75,64,0.5,52.91,1,0,0,159.75225,64,100,80
8986.25,65,1.0,52.91,1,0,0,138.91500000000002,64,100,80
8987.25,60,1.0,52.91,1,0,0,138.91500000000002,64,100,80
8988.25,64,0.5,52.91,1,0,0,138.91500000000002,64,100,80
8988.75,62,0.5,52.91,1,0,0,138.91500000000002,64,100,80
8989.25,62,0.5,52.91,1,0,0,167.73986250000002,64,100,80
8989.75,60,1.0,52.91,1,0,0,145.86075000000002,64,100,80
8990.75,62,0.5,52.91,1,0,0,145.86075000000002,64,100,80
8991.25,69,2.0,52.91,1,0,0,145.86075000000002,64,100,80
8993.25,60,1.0,52.91,1,0,0,145.86075000000002,64,100,80
8994.25,0,1.0,84.66,49,9,0,120.0,64,100,80
8995.25,62,0.5,84.66,1,0,0,120.0,64,100,80
8995.75,64,0.5,84.66,1,0,0,120.0,64,100,80
8996.25,60,1.0,84.66,1,0,0,120.0,64,100,80
8997.25,69,2.0,84.66,1,0,0,120.0,64,100,80
8999.25,60,1.0,84.66,1,0,0,120.0,64,100,80
9000.25,64,0.5,84.66,1,0,0,120.0,64,100,80
9000.75,62,0.5,84.66,1,0,0,120.0,64,100,80
9001.25,62,0.5,84.66,1,0,0,120.0,64,100,80
9001.75,67,0.25,84.66,1,0,0,120.0,64,100,80
9002.0,0,1.0,84.66,49,9,0,120.0,64,100,80
9003.0,60,1.0,84.66,1,0,0,120.0,64,100,80
9004.0,60,1.0,52.91,1,0,0,144.9,64,100,80
9005.0,64,1.0,52.91,49,9,0,126.0,64,100,80
9006.0,59,1.0,52.91,1,0,0,126.0,64,100,80
9007.0,66,0.25,52.91,1,0,0,126.0,64,100,80
9007.25,59,1.0,52.91,1,0,0,126.0,64,100,80
9008.25,68,2.0,52.91,1,0,0,126.0,64,100,80
9010.25,63,0.5,52.91,1,0,0,126.0,64,100,80
9010.75,63,0.5,52.91,1,0,0,152.14499999999998,64,100,80
9011.25,70,2.0,52.91,1,0,0,132.3,64,100,80
9013.25,61,0.5,52.91,1,0,0,132.3,64,100,80
9013.75,61,0.5,52.91,1,0,0,159.75225,64,100,80
9014.25,63,0.5,52.91,1,0,0,138.91500000000002,64,100,80
9014.75,59,1.0,74.08,1,0,0,138.91500000000002,64,100,80
9015.75,59,1.0,74.08,1,0,0,138.91500000000002,64,100,80
9016.75,59,1.0,74.08,1,0,0,138.91500000000002,64,100,80
9017.75,61,0.5,74.08,1,0,0,138.91500000000002,64,100,80
9018.25,63,0.5,74.08,1,0,0,138.91500000000002,64,100,80
9018.75,61,0.5,74.08,1,0,0,138.91500000000002,64,100,80
9019.25,63,0.5,74.08,1,0,0,138.91500000000002,64,100,80
9019.75,61,0.5,74.08,1,0,0,138.91500000000002,64,100,80
9020.25,59,1.0,74.08,1,0,0,138.91500000000002,64,100,80
9021.25,64,1.0,74.08,1,0,0,138.91500000000002,64,100,80
9022.25,68,2.0,74.08,1,0,0,138.91500000000002,64,100,80
9024.25,61,0.5,74.08,1,0,0,138.91500000000002,64,100,80
9024.75,63,0.5,63.5,1,0,0,138.91500000000002,64,100,80
9025.25,59,1.0,63.5,1,0,0,138.91500000000002,64,100,80
9026.25,59,1.0,63.5,1,0,0,167.73986250000002,64,100,80
9027.25,66,0.25,63.5,1,0,0,145.86075000000002,64,100,80
9027.5,59,1.0,63.5,1,0,0,145.86075000000002,64,100,80
9028.5,61,0.5,63.5,49,9,0,145.86075000000002,64,100,80
9029.0,64,1.0,63.5,1,0,0,145.86075000000002,64,100,80
9030.0,59,1.0,63.5,51,9,0,145.86075000000002,64,100,80
9031.0,66,0.25,63.5,50,9,0,145.86075000000002,64,100,80
9031.25,68,2.0,63.5,1,0,0,145.86075000000002,64,100,80
9033.25,0,1.0,63.5,49,9,0,120.0,64,100,80
9034.25,64,0.5,63.5,1,0,0,120.0,64,100,80
9034.75,60,1.0,63.5,1,0,0,120.0,64,100,80
9035.75,62,0.5,63.5,1,0,0,120.0,64,100,80
9036.25,64,0.5,63.5,1,0,0,120.0,64,100,80
9036.75,69,2.0,63.5,1,0,0,120.0,64,100,80
9038.75,60,1.0,63.5,1,0,0,120.0,64,100,80
9039.75,60,1.0,63.5,1,0,0,120.0,64,100,80
9040.75,62,0.5,63.5,1,0,0,120.0,64,100,80
9041.25,69,2.0,63.5,1,0,0,120.0,64,100,80
9043.25,71,2.0,63.5,1,0,0,120.0,64,100,80
9045.25,60,1.0,63.5,1,0,0,120.0,64,100,80
9046.25,67,0.25,63.5,1,0,0,120.0,64,100,80
9046.5,0,1.0,63.5,49,9,0,120.0,64,100,80
9047.5,60,1.0,95.25,1,0,0,120.0,64,100,80
9048.5,60,1.0,95.25,1,0,0,144.9,64,100,80
9049.5,64,0.5,95.25,49,9,0,126.0,64,100,80
9050.0,65,1.0,95.25,1,0,0,126.0,64,100,80
9051.0,64,0.5,95.25,1,0,0,126.0,64,100,80
9051.5,60,1.0,95.25,50,9,0,126.0,64,100,80
9052.5,0,1.0,95.25,49,9,0,120.0,64,100,80
9053.5,60,1.0,95.25,1,0,0,120.0,64,100,80
9054.5,62,0.5,95.25,1,0,0,120.0,64,100,80
9055.0,69,2.0,95.25,1,0,0,120.0,64,100,80
9057.0,64,0.5,95.25,1,0,0,120.0,64,100,80
9057.5,0,1.0,95.25,49,9,0,120.0,64,100,80
9058.5,60,1.0,52.91,1,0,0,120.0,64,100,80
9059.5,64,0.5,52.91,1,0,0,120.0,64,100,80
9060.0,60,1.0,52.91,1,0,0,120.0,64,100,80
9061.0,64,0.5,52.91,1,0,0,120.0,64,100,80
9061.5,71,2.0,52.91,1,0,0,120.0,64,100,80
9063.5,65,1.0,52.91,1,0,0,120.0,64,100,80
9064.5,60,1.0,52.91,1,0,0,120.0,64,100,80
9065.5,62,0.5,52.91,1,0,0,120.0,64,100,80
9066.0,60,1.0,52.91,1,0,0,120.0,64,100,80
9067.0,64,0.5,52.91,1,0,0,120.0,64,100,80
9067.5,60,1.0,52.91,1,0,0,120.0,64,100,80
9068.5,62,0.5,52.91,50,9,0,120.0,64,100,80
9069.0,0,1.0,74.08,49,9,0,120.0,64,100,80
9070.0,62,0.5,74.08,1,0,0,120.0,64,100,80
9070.5,60,1.0,74.08,1,0,0,120.0,64,100,80
9071.5,64,0.5,74.08,1,0,0,120.0,64,100,80
9072.0,62,0.5,74.08,1,0,0,120.0,64,100,80
9072.5,62,0.5,74.08,1,0,0,120.0,64,100,80
9073.0,67,0.25,74.08,1,0,0,120.0,64,100,80
9073.25,65,1.0,74.08,1,0,0,120.0,64,100,80
9074.25,62,0.5,74.08,1,0,0,120.0,64,100,80
9074.75,65,1.0,74.08,1,0,0,120.0,64,100,80
9075.75,71,2.0,74.08,1,0,0,120.0,64,100,80
9077.75,62,0.5,74.08,1,0,0,120.0,64,100,80
9078.25,69,2.0,74.08,1,0,0,120.0,64,100,80
9080.25,69,2.0,74.08,1,0,0,120.0,64,100,80
9082.25,71,2.0,74.08,1,0,0,120.0,64,100,80
9084.25,60,1.0,74.08,1,0,0,120.0,64,100,80
9085.25,69,2.0,74.08,1,0,0,120.0,64,100,80
9087.25,65,1.0,74.08,49,9,0,120.0,64,100,80
9088.25,64,0.5,74.08,1,0,0,120.0,64,100,80
9088.75,69,2.0,74.08,1,0,0,120.0,64,100,80
9090.75,67,0.25,74.08,1,0,0,120.0,64,100,80
9091.0,0,1.0,74.08,49,9,0,120.0,64,100,80
9092.0,69,2.0,74.08,1,0,0,120.0,64,100,80
9094.0,65,1.0,74.08,1,0,0,120.0,64,100,80
9095.0,71,2.0,84.66,1,0,0,120.0,64,100,80
9097.0,69,2.0,84.66,49,9,0,120.0,64,100,80
9099.0,65,1.0,84.66,1,0,0,120.0,64,100,80
9100.0,62,0.5,84.66,1,0,0,120.0,64,100,80
9100.5,69,2.0,84.66,1,0,0,120.0,64,100,80
9102.5,60,1.0,84.66,1,0,0,120.0,64,100,80
9103.5,71,2.0,84.66,1,0,0,120.0,64,100,80
9105.5,60,1.0,84.66,1,0,0,120.0,64,100,80
9106.5,71,2.0,84.66,1,0,0,120.0,64,100,80
9108.5,62,0.5,84.66,1,0,0,120.0,64,100,80
9109.0,60,1.0,84.66,1,0,0,120.0,64,100,80
9110.0,69,2.0,84.66,1,0,0,120.0,64,100,80
9112.0,60,1.0,74.08,49,9,0,120.0,64,100,80
9113.0,60,1.0,74.08,1,0,0,144.9,64,100,80
9114.0,69,2.0,74.08,1,0,0,126.0,64,100,80
9116.0,64,0.5,74.08,1,0,0,126.0,64,100,80
9116.5,64,0.5,74.08,1,0,0,126.0,64,100,80
9117.0,71,2.0,74.08,1,0,0,126.0,64,100,80
9119.0,67,0.25,74.08,1,0,0,126.0,64,100,80
9119.25,60,1.0,74.08,1,0,0,126.0,64,100,80
9120.25,60,1.0,74.08,39,9,0,126.0,64,100,80
9121.25,60,1.0,74.08,1,0,0,126.0,64,100,80
9122.25,60,1.0,74.08,1,0,0,126.0,64,100,80
9123.25,65,1.0,74.08,1,0,0,126.0,64,100,80
9124.25,62,0.5,74.08,1,0,0,126.0,64,100,80
9124.75,60,1.0,74.08,1,0,0,126.0,64,100,80
9125.75,60,1.0,74.08,1,0,0,152.14499999999998,64,100,80
9126.75,71,2.0,74.08,1,0,0,132.3,64,100,80
9128.75,67,0.25,74.08,1,0,0,132.3,64,100,80
9129.0,71,2.0,74.08,1,0,0,132.3,64,100,80
9131.0,64,0.5,74.08,1,0,0,132.3,64,100,80
9131.5,69,2.0,74.08,1,0,0,132.3,64,100,80
9133.5,60,1.0,74.08,1,0,0,132.3,64,100,80
9134.5,60,1.0,74.08,1,0,0,132.3,64,100,80
9135.5,69,2.0,74.08,1,0,0,132.3,64,100,80
9137.5,60,1.0,74.08,1,0,0,132.3,64,100,80
9138.5,60,1.0,95.25,1,0,0,159.75225,64,100,80
9139.5,69,2.0,95.25,1,0,0,138.91500000000002,64,100,80
9141.5,71,2.0,95.25,1,0,0,138.91500000000002,64,100,80
9143.5,71,2.0,95.25,1,0,0,167.73986250000002,64,100,80
9145.5,60,1.0,95.25,49,9,0,145.86075000000002,64,100,80
9146.5,64,0.5,95.25,1,0,0,145.86075000000002,64,100,80
9147.0,65,1.0,95.25,1,0,0,145.86075000000002,64,100,80
9148.0,71,2.0,95.25,1,0,0,145.86075000000002,64,100,80
9150.0,65,1.0,95.25,1,0,0,145.86075000000002,64,100,80
9151.0,60,1.0,95.25,1,0,0,145.86075000000002,64,100,80
9152.0,64,0.5,95.25,1,0,0,145.86075000000002,64,100,80
9152.5,60,1.0,95.25,1,0,0,145.86075000000002,64,100,80
9153.5,60,1.0,63.5,51,9,0,145.86075000000002,64,100,80
9154.5,60,1.0,63.5,1,0,0,145.86075000000002,64,100,80
9155.5,62,0.5,63.5,1,0,0,145.86075000000002,64,100,80
9156.0,65,1.0,63.5,1,0,0,145.86075000000002,64,100,80
9157.0,69,2.0,63.5,1,0,0,145.86075000000002,64,100,80
9159.0,69,2.0,63.5,1,0,0,145.86075000000002,64,100,80
9161.0,71,2.0,63.5,1,0,0,145.86075000000002,64,100,80
9163.0,69,2.0,63.5,1,0,0,145.86075000000002,64,100,80
9165.0,62,0.5,63.5,39,9,0,145.86075000000002,64,100,80
9165.5,60,1.0,63.5,1,0,0,145.86075000000002,64,100,80
9166.5,71,2.0,63.5,1,0,0,145.86075000000002,64,100,80
9168.5,69,2.0,63.5,1,0,0,145.86075000000002,64,100,80
9170.5,69,2.0,63.5,1,0,0,145.86075000000002,64,100,80
9172.5,67,0.25,63.5,1,0,0,145.86075000000002,64,100,80
9172.75,71,2.0,63.5,1,0,0,145.86075000000002,64,100,80
9174.75,60,1.0,63.5,1,0,0,145.86075000000002,64,100,80
9175.75,60,1.0,63.5,1,0,0,145.86075000000002,64,100,80
9176.75,69,2.0,63.5,1,0,0,145.86075000000002,64,100,80
9178.75,60,1.0,63.5,1,0,0,145.86075000000002,64,100,80
9179.75,69,2.0,63.5,1,0,0,145.86075000000002,64,100,80
9181.75,71,2.0,63.5,1,0,0,145.86075000000002,64,100,80
9183.75,60,1.0,63.5,1,0,0,145.86075000000002,64,100,80
9184.75,0,1.0,63.5,49,9,0,120.0,64,100,80
9185.75,64,0.5,63.5,1,0,0,120.0,64,100,80
9186.25,64,0.5,84.66,49,9,0,120.0,64,100,80
9186.75,62,0.5,84.66,1,0,0,120.0,64,100,80
9187.25,69,2.0,84.66,1,0,0,120.0,64,100,80
9189.25,60,1.0,84.66,1,0,0,120.0,64,100,80
9190.25,62,0.5,84.66,1,0,0,120.0,64,100,80
9190.75,60,1.0,84.66,1,0,0,120.0,64,100,80
9191.75,64,0.5,84.66,1,0,0,120.0,64,100,80
9192.25,71,2.0,84.66,1,0,0,120.0,64,100,80
9194.25,60,1.0,84.66,1,0,0,120.0,64,100,80
9195.25,60,1.0,84.66,1,0,0,144.9,64,100,80
9196.25,64,0.5,84.66,1,0,0,126.0,64,100,80
9196.75,60,1.0,84.66,1,0,0,126.0,64,100,80
9197.75,69,2.0,105.83,1,0,0,126.0,64,100,80
9199.75,64,0.5,105.83,1,0,0,126.0,64,100,80
9200.25,60,1.0,105.83,1,0,0,126.0,64,100,80
9201.25,71,2.0,105.83,1,0,0,126.0,64,100,80
9203.25,65,1.0,105.83,1,0,0,126.0,64,100,80
9204.25,71,2.0,105.83,1,0,0,126.0,64,100,80
9206.25,60,1.0,105.83,1,0,0,126.0,64,100,80
9207.25,65,1.0,105.83,1,0,0,126.0,64,100,80
9208.25,64,0.5,105.83,1,0,0,126.0,64,100,80
9208.75,60,1.0,105.83,1,0,0,126.0,64,100,80
9209.75,65,1.0,105.83,1,0,0,126.0,64,100,80
9210.75,62,0.5,105.83,1,0,0,126.0,64,100,80
9211.25,60,1.0,52.91,1,0,0,126.0,64,100,80
9212.25,60,1.0,52.91,39,9,0,152.14499999999998,64,100,80
9213.25,60,1.0,52.91,1,0,0,319.5045,64,100,80
9214.25,60,1.0,52.91,49,9,0,138.91500000000002,64,100,80
9215.25,65,1.0,52.91,1,0,0,138.91500000000002,64,100,80
9216.25,64,0.5,52.91,1,0,0,138.91500000000002,64,100,80
9216.75,69,2.0,52.91,49,9,0,138.91500000000002,64,100,80
9218.75,60,1.0,52.91,1,0,0,138.91500000000002,64,100,80
9219.75,69,2.0,52.91,1,0,0,138.91500000000002,64,100,80
9221.75,60,1.0,52.91,1,0,0,138.91500000000002,64,100,80
9222.75,60,1.0,52.91,1,0,0,138.91500000000002,64,100,80
9223.75,60,1.0,52.91,1,0,0,167.73986250000002,64,100,80
9224.75,62,0.5,63.5,1,0,0,145.86075000000002,64,100,80
9225.25,60,1.0,63.5,1,0,0,145.86075000000002,64,100,80
9226.25,69,2.0,63.5,1,0,0,145.86075000000002,64,100,80
9228.25,60,1.0,63.5,49,9,0,145.86075000000002,64,100,80
9229.25,65,1.0,63.5,1,0,0,145.86075000000002,64,100,80
9230.25,60,1.0,63.5,1,0,0,145.86075000000002,64,100,80
9231.25,64,0.5,63.5,50,9,0,145.86075000000002,64,100,80
9231.75,62,0.5,63.5,1,0,0,145.86075000000002,64,100,80
9232.25,60,1.0,63.5,50,9,0,145.86075000000002,64,100,80
9233.25,0,1.0,63.5,49,9,0,120.0,64,100,80
9234.25,71,2.0,63.5,1,0,0,120.0,64,100,80
9236.25,71,2.0,63.5,1,0,0,120.0,64,100,80
9238.25,64,0.5,42.33,1,0,0,120.0,64,100,80
9238.75,69,2.0,42.33,1,0,0,120.0,64,100,80
9240.75,60,1.0,42.33,49,9,0,120.0,64,100,80
9241.75,65,1.0,42.33,1,0,0,120.0,64,100,80
9242.75,62,0.5,42.33,1,0,0,120.0,64,100,80
9243.25,64,0.5,42.33,1,0,0,120.0,64,100,80
9243.75,71,2.0,42.33,1,0,0,120.0,64,100,80
9245.75,60,1.0,42.33,1,0,0,120.0,64,100,80
9246.75,69,2.0,42.33,1,0,0,120.0,64,100,80
9248.75,60,1.0,42.33,49,9,0,120.0,64,100,80
9249.75,65,1.0,42.33,1,0,0,120.0,64,100,80
9250.75,60,1.0,42.33,1,0,0,120.0,64,100,80
9251.75,60,1.0,52.91,1,0,0,144.9,64,100,80
9252.75,69,2.0,52.91,1,0,0,126.0,64,100,80
9254.75,64,0.5,52.91,1,0,0,126.0,64,100,80
9255.25,62,0.5,52.91,1,0,0,126.0,64,100,80
9255.75,60,1.0,52.91,49,9,0,126.0,64,100,80
9256.75,65,1.0,52.91,1,0,0,126.0,64,100,80
9257.75,60,1.0,52.91,1,0,0,126.0,64,100,80
9258.75,65,1.0,52.91,1,0,0,126.0,64,100,80
9259.75,71,2.0,52.91,1,0,0,126.0,64,100,80
9261.75,60,1.0,52.91,1,0,0,126.0,64,100,80
9262.75,71,2.0,52.91,49,9,0,126.0,64,100,80
9264.75,64,0.5,52.91,1,0,0,126.0,64,100,80
9265.25,60,1.0,74.08,1,0,0,126.0,64,100,80
9266.25,71,2.0,74.08,1,0,0,126.0,64,100,80
9268.25,69,2.0,74.08,1,0,0,126.0,64,100,80
9270.25,60,1.0,74.08,1,0,0,126.0,64,100,80
9271.25,67,0.25,74.08,1,0,0,126.0,64,100,80
9271.5,71,2.0,74.08,1,0,0,126.0,64,100,80
9273.5,60,1.0,74.08,1,0,0,126.0,64,100,80
9274.5,60,1.0,74.08,1,0,0,126.0,64,100,80
9275.5,69,2.0,74.08,1,0,0,126.0,64,100,80
9277.5,60,1.0,74.08,1,0,0,126.0,64,100,80
9278.5,71,2.0,74.08,1,0,0,126.0,64,100,80
9280.5,69,2.0,74.08,1,0,0,126.0,64,100,80
9282.5,71,2.0,84.66,1,0,0,126.0,64,100,80
9284.5,65,1.0,84.66,1,0,0,126.0,64,100,80
9285.5,62,0.5,84.66,1,0,0,126.0,64,100,80
9286.0,65,1.0,84.66,1,0,0,126.0,64,100,80
9287.0,0,1.0,84.66,49,9,0,120.0,64,100,80
9288.0,69,2.0,84.66,1,0,0,120.0,64,100,80
9290.0,71,2.0,84.66,1,0,0,120.0,64,100,80
9292.0,64,0.5,84.66,1,0,0,120.0,64,100,80
9292.5,64,0.5,84.66,1,0,0,120.0,64,100,80
9293.0,64,0.5,84.66,1,0,0,144.9,64,100,80
9293.5,69,2.0,84.66,1,0,0,126.0,64,100,80
9295.5,60,1.0,84.66,1,0,0,126.0,64,100,80
9296.5,60,1.0,63.5,1,0,0,152.14499999999998,64,100,80
9297.5,60,1.0,63.5,49,9,0,132.3,64,100,80
9298.5,67,0.25,63.5,1,0,0,132.3,64,100,80
9298.75,71,2.0,63.5,1,0,0,132.3,64,100,80
9300.75,60,1.0,63.5,1,0,0,132.3,64,100,80
9301.75,71,2.0,63.5,1,0,0,132.3,64,100,80
9303.75,71,2.0,63.5,1,0,0,159.75225,64,100,80
9305.75,65,1.0,63.5,49,9,0,138.91500000000002,64,100,80
9306.75,65,1.0,63.5,1,0,0,138.91500000000002,64,100,80
9307.75,62,0.5,63.5,1,0,0,138.91500000000002,64,100,80
9308.25,62,0.5,63.5,1,0,0,167.73986250000002,64,100,80
9308.75,71,2.0,63.5,1,0,0,145.86075000000002,64,100,80
9310.75,65,1.0,74.08,1,0,0,145.86075000000002,64,100,80
9311.75,60,1.0,74.08,1,0,0,145.86075000000002,64,100,80
9312.75,71,2.0,74.08,1,0,0,145.86075000000002,64,100,80
9314.75,64,0.5,74.08,1,0,0,145.86075000000002,64,100,80
9315.25,60,1.0,74.08,1,0,0,145.86075000000002,64,100,80
9316.25,71,2.0,74.08,1,0,0,145.86075000000002,64,100,80
9318.25,64,0.5,74.08,1,0,0,145.86075000000002,64,100,80
9318.75,71,2.0,74.08,1,0,0,145.86075000000002,64,100,80
9320.75,60,1.0,74.08,1,0,0,145.86075000000002,64,100,80
9321.75,60,1.0,74.08,1,0,0,176.12685562500005,64,100,80
9322.75,67,0.25,74.08,1,0,0,153.15378750000005,64,100,80
9323.0,0,1.0,74.08,49,9,0,120.0,64,100,80
9324.0,64,0.5,63.5,1,0,0,120.0,64,100,80
9324.5,62,0.5,63.5,1,0,0,120.0,64,100,80
9325.0,71,2.0,63.5,1,0,0,120.0,64,100,80
9327.0,69,2.0,63.5,1,0,0,120.0,64,100,80
9329.0,60,1.0,63.5,1,0,0,120.0,64,100,80
9330.0,71,2.0,63.5,1,0,0,120.0,64,100,80
9332.0,69,2.0,63.5,1,0,0,120.0,64,100,80
9334.0,65,1.0,63.5,1,0,0,120.0,64,100,80
9335.0,64,0.5,63.5,1,0,0,120.0,64,100,80
9335.5,64,0.5,63.5,1,0,0,144.9,64,100,80
9336.0,64,0.5,63.5,1,0,0,126.0,64,100,80
9336.5,60,1.0,63.5,1,0,0,126.0,64,100,80
9337.5,69,2.0,63.5,1,0,0,126.0,64,100,80
9339.5,62,0.5,63.5,1,0,0,126.0,64,100,80
9340.0,71,2.0,63.5,1,0,0,126.0,64,100,80
9342.0,64,0.5,63.5,1,0,0,126.0,64,100,80
9342.5,62,0.5,63.5,1,0,0,126.0,64,100,80
9343.0,60,1.0,63.5,1,0,0,126.0,64,100,80
9344.0,69,2.0,63.5,1,0,0,126.0,64,100,80
9346.0,69,2.0,63.5,1,0,0,126.0,64,100,80
9348.0,64,0.5,63.5,49,9,0,126.0,64,100,80
9348.5,64,1.0,63.5,49,9,0,126.0,64,100,80
9349.5,61,0.5,63.5,49,9,0,126.0,64,100,80
9350.0,63,0.5,63.5,1,0,0,126.0,64,100,80
9350.5,68,2.0,31.75,1,0,0,126.0,64,100,80
9352.5,63,0.5,31.75,1,0,0,126.0,64,100,80
9353.0,59,1.0,31.75,1,0,0,126.0,64,100,80
9354.0,68,2.0,31.75,1,0,0,126.0,64,100,80
9356.0,61,0.5,31.75,1,0,0,126.0,64,100,80
9356.5,70,2.0,31.75,49,9,0,126.0,64,100,80
9358.5,63,0.5,31.75,1,0,0,126.0,64,100,80
9359.0,68,2.0,31.75,1,0,0,126.0,64,100,80
9361.0,59,1.0,31.75,1,0,0,126.0,64,100,80
9362.0,66,0.25,31.75,1,0,0,126.0,64,100,80
9362.25,63,0.5,31.75,1,0,0,126.0,64,100,80
9362.75,68,2.0,31.75,1,0,0,126.0,64,100,80
9364.75,68,2.0,74.08,1,0,0,152.14499999999998,64,100,80
9366.75,63,0.5,74.08,49,9,0,132.3,64,100,80
9367.25,59,1.0,74.08,1,0,0,132.3,64,100,80
9368.25,68,2.0,74.08,1,0,0,132.3,64,100,80
9370.25,63,0.5,74.08,1,0,0,132.3,64,100,80
9370.75,63,0.5,74.08,1,0,0,132.3,64,100,80
9371.25,59,1.0,74.08,1,0,0,132.3,64,100,80
9372.25,64,1.0,74.08,1,0,0,132.3,64,100,80
9373.25,64,1.0,74.08,1,0,0,132.3,64,100,80
9374.25,66,0.25,74.08,49,9,0,132.3,64,100,80
9374.5,61,0.5,74.08,1,0,0,132.3,64,100,80
9375.0,61,0.5,74.08,1,0,0,159.75225,64,100,80
9375.5,63,0.5,42.33,49,9,0,138.91500000000002,64,100,80
9376.0,59,1.0,42.33,1,0,0,138.91500000000002,64,100,80
9377.0,70,2.0,42.33,1,0,0,138.91500000000002,64,100,80
9379.0,68,2.0,42.33,1,0,0,138.91500000000002,64,100,80
9381.0,64,1.0,42.33,1,0,0,138.91500000000002,64,100,80
9382.0,63,0.5,42.33,49,9,0,138.91500000000002,64,100,80
9382.5,63,0.5,42.33,1,0,0,167.73986250000002,64,100,80
9383.0,64,1.0,42.33,50,9,0,145.86075000000002,64,100,80
9384.0,63,0.5,42.33,1,0,0,145.86075000000002,64,100,80
9384.5,68,2.0,42.33,1,0,0,145.86075000000002,64,100,80
9386.5,59,1.0,42.33,1,0,0,145.86075000000002,64,100,80
9387.5,61,0.5,42.33,1,0,0,145.86075000000002,64,100,80
9388.0,59,1.0,21.16,1,0,0,145.86075000000002,64,100,80
9389.0,64,1.0,21.16,1,0,0,145.86075000000002,64,100,80
9390.0,68,2.0,21.16,1,0,0,145.86075000000002,64,100,80
9392.0,68,2.0,21.16,1,0,0,145.86075000000002,64,100,80
9394.0,63,0.5,21.16,1,0,0,145.86075000000002,64,100,80
9394.5,59,1.0,21.16,1,0,0,145.86075000000002,64,100,80
9395.5,66,0.25,21.16,1,0,0,145.86075000000002,64,100,80
9395.75,59,1.0,21.16,51,9,0,145.86075000000002,64,100,80
9396.75,66,0.25,21.16,50,9,0,145.86075000000002,64,100,80
9397.0,64,1.0,21.16,49,9,0,145.86075000000002,64,100,80
9398.0,59,1.0,21.16,1,0,0,145.86075000000002,64,100,80
9399.0,63,0.5,21.16,1,0,0,145.86075000000002,64,100,80
9399.5,64,1.0,84.66,1,0,0,145.86075000000002,64,100,80
9400.5,70,2.0,84.66,1,0,0,145.86075000000002,64,100,80
9402.5,68,2.0,84.66,1,0,0,145.86075000000002,64,100,80
9404.5,70,2.0,84.66,1,0,0,145.86075000000002,64,100,80
9406.5,59,1.0,84.66,1,0,0,145.86075000000002,64,100,80
9407.5,64,1.0,84.66,49,9,0,145.86075000000002,64,100,80
9408.5,64,1.0,84.66,50,9,0,176.12685562500005,64,100,80
9409.5,63,0.5,84.66,49,9,0,153.15378750000005,64,100,80
9410.0,63,0.5,84.66,1,0,0,153.15378750000005,64,100,80
9410.5,63,0.5,84.66,1,0,0,184.93319840625003,64,100,80
9411.0,64,1.0,84.66,1,0,0,160.81147687500004,64,100,80
9412.0,66,0.25,84.66,1,0,0,160.81147687500004,64,100,80
9412.25,59,1.0,63.5,1,0,0,160.81147687500004,64,100,80
9413.25,63,0.5,63.5,1,0,0,160.81147687500004,64,100,80
9413.75,63,0.5,63.5,1,0,0,160.81147687500004,64,100,80
9414.25,61,0.5,63.5,1,0,0,160.81147687500004,64,100,80
9414.75,59,1.0,63.5,1,0,0,160.81147687500004,64,100,80
9415.75,68,2.0,63.5,1,0,0,160.81147687500004,64,100,80
9417.75,68,2.0,63.5,1,0,0,194.17985832656254,64,100,80
9419.75,63,0.5,63.5,1,0,0,168.85205071875006,64,100,80
9420.25,59,1.0,63.5,1,0,0,168.85205071875006,64,100,80
9421.25,61,0.5,63.5,1,0,0,168.85205071875006,64,100,80
9421.75,64,1.0,63.5,1,0,0,168.85205071875006,64,100,80
9422.75,68,2.0,63.5,1,0,0,168.85205071875006,64,100,80
9424.75,64,1.0,52.91,1,0,0,168.85205071875006,64,100,80
9425.75,63,0.5,52.91,49,9,0,168.85205071875006,64,100,80
9426.25,59,1.0,52.91,1,0,0,168.85205071875006,64,100,80
9427.25,63,0.5,52.91,1,0,0,168.85205071875006,64,100,80
9427.75,68,2.0,52.91,1,0,0,168.85205071875006,64,100,80
9429.75,68,2.0,52.91,1,0,0,203.8888512428907,64,100,80
9431.75,68,2.0,52.91,1,0,0,428.16658761007045,64,100,80
9433.75,68,2.0,52.91,1,0,0,674.3623754858609,64,100,80
9435.75,66,0.25,52.91,1,0,0,195.46735521329305,64,100,80
9436.0,64,1.0,52.91,49,9,0,195.46735521329305,64,100,80
9437.0,64,1.0,52.91,50,9,0,195.46735521329305,64,100,80
9438.0,61,0.5,52.91,1,0,0,195.46735521329305,64,100,80
9438.5,66,0.25,31.75,1,0,0,195.46735521329305,64,100,80
9438.75,68,2.0,31.75,1,0,0,195.46735521329305,64,100,80
9440.75,66,0.25,31.75,1,0,0,195.46735521329305,64,100,80
9441.0,61,0.5,31.75,1,0,0,195.46735521329305,64,100,80
9441.5,61,0.5,31.75,1,0,0,195.46735521329305,64,100,80
9442.0,68,2.0,31.75,1,0,0,195.46735521329305,64,100,80
9444.0,63,0.5,31.75,1,0,0,195.46735521329305,64,100,80
9444.5,59,1.0,31.75,1,0,0,195.46735521329305,64,100,80
9445.5,68,2.0,31.75,1,0,0,195.46735521329305,64,100,80
9447.5,66,0.25,31.75,1,0,0,195.46735521329305,64,100,80
9447.75,59,1.0,31.75,1,0,0,195.46735521329305,64,100,80
9448.75,61,0.5,31.75,1,0,0,195.46735521329305,64,100,80
9449.25,59,1.0,63.5,1,0,0,195.46735521329305,64,100,80
9450.25,61,0.5,63.5,1,0,0,195.46735521329305,64,100,80
9450.75,63,0.5,63.5,1,0,0,195.46735521329305,64,100,80
9451.25,59,1.0,63.5,1,0,0,195.46735521329305,64,100,80
9452.25,63,0.5,63.5,1,0,0,195.46735521329305,64,100,80
9452.75,59,1.0,63.5,1,0,0,195.46735521329305,64,100,80
9453.75,61,0.5,63.5,1,0,0,195.46735521329305,64,100,80
9454.25,63,0.5,63.5,1,0,0,195.46735521329305,64,100,80
9454.75,68,2.0,63.5,1,0,0,195.46735521329305,64,100,80
9456.75,63,0.5,63.5,1,0,0,195.46735521329305,64,100,80
9457.25,70,2.0,63.5,51,9,0,195.46735521329305,64,100,80
9459.25,61,0.5,63.5,1,0,0,195.46735521329305,64,100,80
9459.75,68,2.0,84.66,1,0,0,195.46735521329305,64,100,80
9461.75,61,0.5,84.66,1,0,0,195.46735521329305,64,100,80
9462.25,64,1.0,84.66,1,0,0,195.46735521329305,64,100,80
9463.25,59,1.0,84.66,1,0,0,195.46735521329305,64,100,80
9464.25,68,2.0,84.66,1,0,0,195.46735521329305,64,100,80
9466.25,68,2.0,84.66,51,9,0,195.46735521329305,64,100,80
9468.25,66,0.25,84.66,1,0,0,195.46735521329305,64,100,80
9468.5,63,0.5,84.66,1,0,0,195.46735521329305,64,100,80
9469.0,70,2.0,84.66,1,0,0,195.46735521329305,64,100,80
9471.0,59,1.0,84.66,1,0,0,195.46735521329305,64,100,80
9472.0,63,0.5,84.66,1,0,0,195.46735521329305,64,100,80
9472.5,70,2.0,84.66,1,0,0,195.46735521329305,64,100,80
9474.5,61,0.5,74.08,1,0,0,195.46735521329305,64,100,80
9475.0,66,0.25,74.08,1,0,0,195.46735521329305,64,100,80
9475.25,59,1.0,74.08,49,9,0,195.46735521329305,64,100,80
9476.25,63,0.5,74.08,1,0,0,195.46735521329305,64,100,80
9476.75,68,2.0,74.08,1,0,0,195.46735521329305,64,100,80
9478.75,63,0.5,74.08,1,0,0,195.46735521329305,64,100,80
9479.25,66,0.25,74.08,1,0,0,195.46735521329305,64,100,80
9479.5,59,1.0,74.08,1,0,0,195.46735521329305,64,100,80
9480.5,68,2.0,74.08,1,0,0,195.46735521329305,64,100,80
9482.5,63,0.5,74.08,50,9,0,195.46735521329305,64,100,80
9483.0,64,1.0,74.08,49,9,0,195.46735521329305,64,100,80
9484.0,64,1.0,74.08,50,9,0,195.46735521329305,64,100,80
9485.0,59,1.0,42.33,1,0,0,195.46735521329305,64,100,80
9486.0,68,2.0,42.33,1,0,0,195.46735521329305,64,100,80
9488.0,68,2.0,42.33,1,0,0,195.46735521329305,64,100,80
9490.0,63,0.5,42.33,1,0,0,195.46735521329305,64,100,80
9490.5,63,0.5,42.33,1,0,0,195.46735521329305,64,100,80
9491.0,59,1.0,42.33,1,0,0,195.46735521329305,64,100,80
9492.0,63,0.5,42.33,1,0,0,195.46735521329305,64,100,80
9492.5,64,1.0,42.33,1,0,0,195.46735521329305,64,100,80
9493.5,63,0.5,42.33,49,9,0,195.46735521329305,64,100,80
9494.0,64,1.0,42.33,1,0,0,195.46735521329305,64,100,80
9495.0,59,1.0,42.33,1,0,0,195.46735521329305,64,100,80
9496.0,66,0.25,42.33,1,0,0,195.46735521329305,64,100,80
9496.25,59,1.0,52.91,1,0,0,195.46735521329305,64,100,80
9497.25,64,1.0,52.91,1,0,0,195.46735521329305,64,100,80
9498.25,63,0.5,52.91,1,0,0,195.46735521329305,64,100,80
9498.75,70,2.0,52.91,1,0,0,195.46735521329305,64,100,80
9500.75,61,0.5,52.91,1,0,0,195.46735521329305,64,100,80
9501.25,59,1.0,52.91,1,0,0,195.46735521329305,64,100,80
9502.25,63,0.5,52.91,50,9,0,195.46735521329305,64,100,80
9502.75,68,2.0,52.91,1,0,0,195.46735521329305,64,100,80
9504.75,63,0.5,52.91,1,0,0,195.46735521329305,64,100,80
9505.25,64,1.0,52.91,1,0,0,195.46735521329305,64,100,80
9506.25,59,1.0,52.91,1,0,0,195.46735521329305,64,100,80
9507.25,64,1.0,52.91,1,0,0,195.46735521329305,64,100,80
9508.25,59,1.0,31.75,1,0,0,195.46735521329305,64,100,80
9509.25,63,0.5,31.75,1,0,0,195.46735521329305,64,100,80
9509.75,66,0.25,31.75,1,0,0,195.46735521329305,64,100,80
9510.0,68,2.0,31.75,1,0,0,195.46735521329305,64,100,80
9512.0,63,0.5,31.75,49,9,0,195.46735521329305,64,100,80
9512.5,61,0.5,31.75,40,9,0,195.46735521329305,64,100,80
9513.0,63,0.5,31.75,49,9,0,195.46735521329305,64,100,80
9513.5,61,0.5,31.75,1,0,0,195.46735521329305,64,100,80
9514.0,63,0.5,31.75,49,9,0,195.46735521329305,64,100,80
9514.5,63,0.5,31.75,1,0,0,195.46735521329305,64,100,80
9515.0,59,1.0,31.75,1,0,0,195.46735521329305,64,100,80
9516.0,68,2.0,31.75,1,0,0,195.46735521329305,64,100,80
9518.0,64,1.0,74.08,50,9,0,195.46735521329305,64,100,80
9519.0,64,1.0,74.08,1,0,0,195.46735521329305,64,100,80
9520.0,64,1.0,74.08,1,0,0,195.46735521329305,64,100,80
9521.0,63,0.5,74.08,49,9,0,195.46735521329305,64,100,80
9521.5,64,1.0,74.08,1,0,0,195.46735521329305,64,100,80
9522.5,59,1.0,74.08,1,0,0,195.46735521329305,64,100,80
9523.5,59,1.0,74.08,1,0,0,236.02683142005134,64,100,80
9524.5,66,0.25,74.08,50,9,0,205.2407229739577,64,100,80
9524.75,64,1.0,74.08,1,0,0,205.2407229739577,64,100,80
9525.75,70,2.0,74.08,1,0,0,205.2407229739577,64,100,80
9527.75,61,0.5,74.08,1,0,0,205.2407229739577,64,100,80
9528.25,63,0.5,74.08,1,0,0,205.2407229739577,64,100,80
9528.75,68,2.0,31.75,51,9,0,205.2407229739577,64,100,80
9530.75,66,0.25,31.75,1,0,0,205.2407229739577,64,100,80
9531.0,63,0.5,31.75,49,9,0,205.2407229739577,64,100,80
9531.5,63,0.5,31.75,1,0,0,205.2407229739577,64,100,80
9532.0,59,1.0,31.75,1,0,0,205.2407229739577,64,100,80
9533.0,64,1.0,31.75,1,0,0,205.2407229739577,64,100,80
9534.0,68,2.0,31.75,1,0,0,205.2407229739577,64,100,80
9536.0,59,1.0,31.75,1,0,0,205.2407229739577,64,100,80
9537.0,64,1.0,31.75,49,9,0,205.2407229739577,64,100,80
9538.0,63,0.5,31.75,1,0,0,205.2407229739577,64,100,80
9538.5,68,2.0,31.75,1,0,0,205.2407229739577,64,100,80
9540.5,59,1.0,31.75,1,0,0,205.2407229739577,64,100,80
9541.5,68,2.0,63.5,1,0,0,205.2407229739577,64,100,80
9543.5,68,2.0,63.5,1,0,0,247.82817299105392,64,100,80
9545.5,64,1.0,63.5,49,9,0,215.50275912265562,64,100,80
9546.5,63,0.5,63.5,1,0,0,215.50275912265562,64,100,80
9547.0,66,0.25,63.5,1,0,0,215.50275912265562,64,100,80
9547.25,68,2.0,63.5,1,0,0,215.50275912265562,64,100,80
9549.25,64,1.0,63.5,1,0,0,215.50275912265562,64,100,80
9550.25,63,0.5,63.5,1,0,0,215.50275912265562,64,100,80
9550.75,68,2.0,63.5,1,0,0,215.50275912265562,64,100,80
9552.75,59,1.0,63.5,1,0,0,215.50275912265562,64,100,80
9553.75,64,1.0,63.5,1,0,0,215.50275912265562,64,100,80
9554.75,63,0.5,63.5,1,0,0,215.50275912265562,64,100,80
9555.25,70,2.0,63.5,1,0,0,215.50275912265562,64,100,80
9557.25,59,1.0,63.5,1,0,0,215.50275912265562,64,100,80
9558.25,70,2.0,63.5,49,9,0,215.50275912265562,64,100,80
9560.25,63,0.5,63.5,1,0,0,215.50275912265562,64,100,80
9560.75,68,2.0,63.5,1,0,0,215.50275912265562,64,100,80
9562.75,64,1.0,63.5,1,0,0,215.50275912265562,64,100,80
9563.75,0,1.0,63.5,49,9,0,120.0,64,100,80
9564.75,60,1.0,63.5,1,0,0,120.0,64,100,80
9565.75,69,2.0,63.5,1,0,0,120.0,64,100,80
9567.75,62,0.5,63.5,1,0,0,120.0,64,100,80
9568.25,64,0.5,63.5,1,0,0,120.0,64,100,80
9568.75,60,1.0,63.5,1,0,0,120.0,64,100,80
9569.75,62,0.5,42.33,1,0,0,120.0,64,100,80
9570.25,69,2.0,42.33,1,0,0,120.0,64,100,80
9572.25,69,2.0,42.33,1,0,0,144.9,64,100,80
9574.25,69,2.0,42.33,1,0,0,126.0,64,100,80
9576.25,65,1.0,42.33,1,0,0,126.0,64,100,80
9577.25,0,1.0,42.33,49,9,0,120.0,64,100,80
9578.25,62,0.5,42.33,1,0,0,120.0,64,100,80
9578.75,60,1.0,42.33,1,0,0,120.0,64,100,80
9579.75,64,0.5,42.33,1,0,0,120.0,64,100,80
9580.25,71,2.0,42.33,1,0,0,120.0,64,100,80
9582.25,60,1.0,42.33,1,0,0,120.0,64,100,80
9583.25,60,1.0,42.33,1,0,0,120.0,64,100,80
9584.25,67,0.25,105.83,1,0,0,120.0,64,100,80
9584.5,60,1.0,105.83,51,9,0,120.0,64,100,80
9585.5,64,1.0,105.83,49,9,0,120.0,64,100,80
9586.5,63,0.5,105.83,1,0,0,120.0,64,100,80
9587.0,61,0.5,105.83,1,0,0,120.0,64,100,80
9587.5,61,0.5,105.83,1,0,0,120.0,64,100,80
9588.0,61,0.5,105.83,1,0,0,144.9,64,100,80
9588.5,63,0.5,105.83,1,0,0,126.0,64,100,80
9589.0,63,0.5,105.83,49,9,0,126.0,64,100,80
9589.5,63,0.5,105.83,1,0,0,126.0,64,100,80
9590.0,59,1.0,105.83,1,0,0,126.0,64,100,80
9591.0,59,1.0,105.83,1,0,0,152.14499999999998,64,100,80
9592.0,61,0.5,21.16,1,0,0,132.3,64,100,80
9592.5,68,2.0,21.16,1,0,0,132.3,64,100,80
9594.5,61,0.5,21.16,39,9,0,132.3,64,100,80
9595.0,59,1.0,21.16,39,9,0,132.3,64,100,80
9596.0,59,1.0,21.16,1,0,0,132.3,64,100,80
9597.0,63,0.5,21.16,1,0,0,132.3,64,100,80
9597.5,61,0.5,21.16,1,0,0,132.3,64,100,80
9598.0,59,1.0,21.16,1,0,0,132.3,64,100,80
9599.0,59,1.0,21.16,1,0,0,159.75225,64,100,80
9600.0,61,0.5,21.16,1,0,0,138.91500000000002,64,100,80
9600.5,61,0.5,21.16,1,0,0,167.73986250000002,64,100,80
9601.0,59,1.0,21.16,1,0,0,145.86075000000002,64,100,80
9602.0,63,0.5,63.5,1,0,0,145.86075000000002,64,100,80
9602.5,59,1.0,63.5,1,0,0,145.86075000000002,64,100,80
9603.5,61,0.5,63.5,1,0,0,145.86075000000002,64,100,80
9604.0,63,0.5,63.5,1,0,0,145.86075000000002,64,100,80
9604.5,59,1.0,63.5,50,9,0,145.86075000000002,64,100,80
9605.5,61,0.5,63.5,1,0,0,145.86075000000002,64,100,80
9606.0,61,0.5,63.5,1,0,0,145.86075000000002,64,100,80
9606.5,68,2.0,63.5,1,0,0,145.86075000000002,64,100,80
9608.5,66,0.25,63.5,1,0,0,145.86075000000002,64,100,80
9608.75,66,0.25,63.5,1,0,0,145.86075000000002,64,100,80
9609.0,64,1.0,63.5,49,9,0,145.86075000000002,64,100,80
9610.0,61,0.5,63.5,50,9,0,145.86075000000002,64,100,80
9610.5,66,0.25,52.91,1,0,0,145.86075000000002,64,100,80
9610.75,61,0.5,52.91,1,0,0,145.86075000000002,64,100,80
9611.25,61,0.5,52.91,1,0,0,145.86075000000002,64,100,80
9611.75,70,2.0,52.91,1,0,0,145.86075000000002,64,100,80
9613.75,66,0.25,52.91,1,0,0,145.86075000000002,64,100,80
9614.0,63,0.5,52.91,1,0,0,145.86075000000002,64,100,80
9614.5,59,1.0,52.91,1,0,0,145.86075000000002,64,100,80
9615.5,64,1.0,52.91,50,9,0,145.86075000000002,64,100,80
9616.5,61,0.5,52.91,1,0,0,145.86075000000002,64,100,80
9617.0,68,2.0,52.91,1,0,0,145.86075000000002,64,100,80
9619.0,59,1.0,52.91,1,0,0,145.86075000000002,64,100,80
9620.0,64,1.0,52.91,1,0,0,145.86075000000002,64,100,80
9621.0,59,1.0,21.16,1,0,0,145.86075000000002,64,100,80
9622.0,0,1.0,21.16,49,9,0,120.0,64,100,80
9623.0,62,0.5,21.16,1,0,0,120.0,64,100,80
9623.5,69,2.0,21.16,1,0,0,120.0,64,100,80
9625.5,64,0.5,21.16,1,0,0,120.0,64,100,80
9626.0,64,0.5,21.16,1,0,0,144.9,64,100,80
9626.5,71,2.0,21.16,1,0,0,126.0,64,100,80
9628.5,60,1.0,21.16,1,0,0,126.0,64,100,80
9629.5,0,1.0,21.16,49,9,0,120.0,64,100,80
9630.5,62,0.5,21.16,1,0,0,120.0,64,100,80
9631.0,62,0.5,21.16,1,0,0,120.0,64,100,80
9631.5,64,0.5,21.16,49,9,0,120.0,64,100,80
9632.0,62,0.5,31.75,1,0,0,120.0,64,100,80
9632.5,69,2.0,31.75,1,0,0,120.0,64,100,80
9634.5,64,0.5,31.75,39,9,0,120.0,64,100,80
9635.0,60,1.0,31.75,1,0,0,120.0,64,100,80
9636.0,60,1.0,31.75,1,0,0,120.0,64,100,80
9637.0,60,1.0,31.75,1,0,0,120.0,64,100,80
9638.0,60,1.0,31.75,1,0,0,144.9,64,100,80
9639.0,62,0.5,31.75,39,9,0,126.0,64,100,80
9639.5,60,1.0,31.75,1,0,0,126.0,64,100,80
9640.5,60,1.0,31.75,1,0,0,126.0,64,100,80
9641.5,0,1.0,31.75,49,9,0,120.0,64,100,80
9642.5,60,1.0,31.75,1,0,0,120.0,64,100,80
9643.5,60,1.0,21.16,1,0,0,144.9,64,100,80
9644.5,62,0.5,21.16,1,0,0,126.0,64,100,80
9645.0,64,0.5,21.16,49,9,0,126.0,64,100,80
9645.5,64,0.5,21.16,1,0,0,126.0,64,100,80
9646.0,64,0.5,21.16,1,0,0,126.0,64,100,80
9646.5,60,1.0,21.16,1,0,0,126.0,64,100,80
9647.5,69,2.0,21.16,1,0,0,126.0,64,100,80
9649.5,62,0.5,21.16,1,0,0,126.0,64,100,80
9650.0,60,1.0,21.16,1,0,0,126.0,64,100,80
9651.0,64,0.5,21.16,1,0,0,126.0,64,100,80
9651.5,71,2.0,21.16,51,9,0,126.0,64,100,80
9653.5,62,0.5,21.16,1,0,0,126.0,64,100,80
9654.0,67,0.25,52.91,1,0,0,126.0,64,100,80
9654.25,64,0.5,52.91,1,0,0,126.0,64,100,80
9654.75,64,0.5,52.91,1,0,0,152.14499999999998,64,100,80
9655.25,60,1.0,52.91,1,0,0,132.3,64,100,80
9656.25,62,0.5,52.91,1,0,0,132.3,64,100,80
9656.75,60,1.0,52.91,1,0,0,132.3,64,100,80
9657.75,64,0.5,52.91,1,0,0,132.3,64,100,80
9658.25,60,1.0,52.91,1,0,0,132.3,64,100,80
9659.25,0,1.0,52.91,49,9,0,120.0,64,100,80
9660.25,69,2.0,52.91,1,0,0,120.0,64,100,80
9662.25,62,0.5,52.91,1,0,0,120.0,64,100,80
9662.75,60,1.0,52.91,1,0,0,120.0,64,100,80
9663.75,64,0.5,52.91,1,0,0,120.0,64,100,80
9664.25,67,0.25,52.91,1,0,0,120.0,64,100,80
9664.5,64,0.5,52.91,1,0,0,120.0,64,100,80
9665.0,64,0.5,52.91,1,0,0,120.0,64,100,80
9665.5,64,0.5,52.91,1,0,0,120.0,64,100,80
9666.0,64,0.5,52.91,49,9,0,144.9,64,100,80
9666.5,64,0.5,52.91,1,0,0,126.0,64,100,80
9667.0,0,1.0,52.91,49,9,0,120.0,64,100,80
9668.0,60,1.0,52.91,1,0,0,120.0,64,100,80
9669.0,64,0.5,52.91,1,0,0,120.0,64,100,80
9669.5,64,0.5,52.91,1,0,0,144.9,64,100,80
9670.0,64,1.0,52.91,49,9,0,126.0,64,100,80
9671.0,63,0.5,63.5,49,9,0,126.0,64,100,80
9671.5,63,0.5,63.5,1,0,0,126.0,64,100,80
9672.0,63,0.5,63.5,1,0,0,126.0,64,100,80
9672.5,68,2.0,63.5,1,0,0,126.0,64,100,80
9674.5,63,0.5,63.5,1,0,0,126.0,64,100,80
9675.0,68,2.0,63.5,1,0,0,126.0,64,100,80
9677.0,63,0.5,63.5,49,9,0,126.0,64,100,80
9677.5,63,0.5,63.5,1,0,0,126.0,64,100,80
9678.0,59,1.0,63.5,1,0,0,126.0,64,100,80
9679.0,63,0.5,63.5,1,0,0,126.0,64,100,80
9679.5,68,2.0,63.5,1,0,0,126.0,64,100,80
9681.5,64,1.0,63.5,49,9,0,126.0,64,100,80
9682.5,59,1.0,21.16,1,0,0,126.0,64,100,80
9683.5,64,1.0,21.16,1,0,0,126.0,64,100,80
9684.5,68,2.0,21.16,1,0,0,126.0,64,100,80
9686.5,63,0.5,21.16,1,0,0,126.0,64,100,80
9687.0,63,0.5,21.16,1,0,0,126.0,64,100,80
9687.5,59,1.0,21.16,1,0,0,126.0,64,100,80
9688.5,68,2.0,21.16,1,0,0,126.0,64,100,80
9690.5,64,1.0,21.16,1,0,0,126.0,64,100,80
9691.5,63,0.5,21.16,1,0,0,126.0,64,100,80
9692.0,63,0.5,21.16,1,0,0,126.0,64,100,80
9692.5,63,0.5,21.16,1,0,0,126.0,64,100,80
9693.0,64,1.0,21.16,1,0,0,126.0,64,100,80
9694.0,59,1.0,42.33,51,9,0,126.0,64,100,80
9695.0,66,0.25,42.33,49,9,0,126.0,64,100,80
9695.25,64,1.0,42.33,50,9,0,126.0,64,100,80
9696.25,66,0.25,42.33,1,0,0,126.0,64,100,80
9696.5,59,1.0,42.33,1,0,0,126.0,64,100,80
9697.5,68,2.0,42.33,1,0,0,126.0,64,100,80
9699.5,64,1.0,42.33,1,0,0,126.0,64,100,80
9700.5,63,0.5,42.33,1,0,0,126.0,64,100,80
9701.0,68,2.0,42.33,1,0,0,126.0,64,100,80
9703.0,63,0.5,42.33,1,0,0,126.0,64,100,80
9703.5,63,0.5,42.33,1,0,0,152.14499999999998,64,100,80
9704.0,63,0.5,42.33,1,0,0,132.3,64,100,80
9704.5,61,0.5,42.33,1,0,0,132.3,64,100,80
9705.0,64,1.0,42.33,1,0,0,132.3,64,100,80
9706.0,59,1.0,42.33,1,0,0,132.3,64,100,80
9707.0,63,0.5,42.33,49,9,0,132.3,64,100,80
9707.5,64,1.0,42.33,1,0,0,132.3,64,100,80
9708.5,63,0.5,42.33,1,0,0,132.3,64,100,80
9709.0,68,2.0,42.33,1,0,0,132.3,64,100,80
9711.0,70,2.0,42.33,1,0,0,132.3,64,100,80
9713.0,68,2.0,42.33,1,0,0,132.3,64,100,80
9715.0,64,1.0,42.33,1,0,0,132.3,64,100,80
9716.0,63,0.5,42.33,49,9,0,132.3,64,100,80
9716.5,59,1.0,42.33,1,0,0,132.3,64,100,80
9717.5,63,0.5,31.75,1,0,0,132.3,64,100,80
9718.0,59,1.0,31.75,49,9,0,132.3,64,100,80
9719.0,63,0.5,31.75,50,9,0,132.3,64,100,80
9719.5,59,1.0,31.75,1,0,0,132.3,64,100,80
9720.5,63,0.5,31.75,1,0,0,132.3,64,100,80
9721.0,68,2.0,31.75,1,0,0,132.3,64,100,80
9723.0,59,1.0,31.75,1,0,0,132.3,64,100,80
9724.0,61,0.5,31.75,1,0,0,132.3,64,100,80
9724.5,61,0.5,31.75,1,0,0,159.75225,64,100,80
9725.0,64,1.0,31.75,49,9,0,138.91500000000002,64,100,80
9726.0,59,1.0,31.75,1,0,0,138.91500000000002,64,100,80
9727.0,59,1.0,31.75,49,9,0,138.91500000000002,64,100,80
9728.0,66,0.25,63.5,51,9,0,138.91500000000002,64,100,80
9728.25,66,0.25,63.5,50,9,0,167.73986250000002,64,100,80
9728.5,59,1.0,63.5,1,0,0,145.86075000000002,64,100,80
9729.5,59,1.0,63.5,1,0,0,176.12685562500005,64,100,80
9730.5,63,0.5,63.5,1,0,0,153.15378750000005,64,100,80
9731.0,59,1.0,63.5,1,0,0,153.15378750000005,64,100,80
9732.0,66,0.25,63.5,1,0,0,153.15378750000005,64,100,80
9732.25,70,2.0,63.5,1,0,0,153.15378750000005,64,100,80
9734.25,59,1.0,63.5,1,0,0,153.15378750000005,64,100,80
9735.25,66,0.25,63.5,1,0,0,153.15378750000005,64,100,80
9735.5,68,2.0,63.5,1,0,0,153.15378750000005,64,100,80
9737.5,66,0.25,63.5,1,0,0,153.15378750000005,64,100,80
9737.75,64,1.0,63.5,1,0,0,153.15378750000005,64,100,80
9738.75,59,1.0,63.5,1,0,0,153.15378750000005,64,100,80
9739.75,68,2.0,63.5,1,0,0,153.15378750000005,64,100,80
9741.75,68,2.0,63.5,1,0,0,184.93319840625003,64,100,80
9743.75,64,1.0,63.5,1,0,0,160.81147687500004,64,100,80
9744.75,66,0.25,63.5,1,0,0,160.81147687500004,64,100,80
9745.0,63,0.5,63.5,49,9,0,160.81147687500004,64,100,80
9745.5,63,0.5,63.5,50,9,0,160.81147687500004,64,100,80
9746.0,59,1.0,63.5,1,0,0,160.81147687500004,64,100,80
9747.0,63,0.5,63.5,1,0,0,160.81147687500004,64,100,80
9747.5,61,0.5,63.5,1,0,0,160.81147687500004,64,100,80
9748.0,59,1.0,63.5,1,0,0,160.81147687500004,64,100,80
9749.0,63,0.5,52.91,49,9,0,160.81147687500004,64,100,80
9749.5,63,0.5,52.91,1,0,0,160.81147687500004,64,100,80
9750.0,68,2.0,52.91,1,0,0,160.81147687500004,64,100,80
9752.0,63,0.5,52.91,49,9,0,160.81147687500004,64,100,80
9752.5,64,1.0,52.91,1,0,0,160.81147687500004,64,100,80
9753.5,59,1.0,52.91,39,9,0,160.81147687500004,64,100,80
9754.5,59,1.0,52.91,1,0,0,160.81147687500004,64,100,80
9755.5,61,0.5,52.91,1,0,0,160.81147687500004,64,100,80
9756.0,59,1.0,52.91,1,0,0,160.81147687500004,64,100,80
9757.0,70,2.0,52.91,1,0,0,160.81147687500004,64,100,80
9759.0,59,1.0,52.91,1,0,0,160.81147687500004,64,100,80
9760.0,61,0.5,52.91,1,0,0,160.81147687500004,64,100,80
9760.5,61,0.5,42.33,1,0,0,194.17985832656254,64,100,80
9761.0,59,1.0,42.33,1,0,0,168.85205071875006,64,100,80
9762.0,59,1.0,42.33,1,0,0,168.85205071875006,64,100,80
9763.0,63,0.5,42.33,50,9,0,168.85205071875006,64,100,80
9763.5,64,1.0,42.33,49,9,0,168.85205071875006,64,100,80
9764.5,64,1.0,42.33,1,0,0,168.85205071875006,64,100,80
9765.5,64,1.0,42.33,49,9,0,168.85205071875006,64,100,80
9766.5,63,0.5,42.33,1,0,0,168.85205071875006,64,100,80
9767.0,68,2.0,42.33,1,0,0,168.85205071875006,64,100,80
9769.0,59,1.0,42.33,1,0,0,168.85205071875006,64,100,80
9770.0,68,2.0,42.33,1,0,0,168.85205071875006,64,100,80
9772.0,66,0.25,42.33,1,0,0,168.85205071875006,64,100,80
9772.25,63,0.5,63.5,1,0,0,168.85205071875006,64,100,80
9772.75,64,1.0,63.5,49,9,0,168.85205071875006,64,100,80
9773.75,59,1.0,63.5,1,0,0,168.85205071875006,64,100,80
9774.75,59,1.0,63.5,1,0,0,168.85205071875006,64,100,80
9775.75,70,2.0,63.5,1,0,0,168.85205071875006,64,100,80
9777.75,68,2.0,63.5,1,0,0,168.85205071875006,64,100,80
9779.75,63,0.5,63.5,1,0,0,168.85205071875006,64,100,80
9780.25,59,1.0,63.5,1,0,0,168.85205071875006,64,100,80
9781.25,59,1.0,63.5,1,0,0,168.85205071875006,64,100,80
9782.25,59,1.0,63.5,1,0,0,168.85205071875006,64,100,80
9783.25,63,0.5,63.5,1,0,0,168.85205071875006,64,100,80
9783.75,64,1.0,63.5,1,0,0,168.85205071875006,64,100,80
9784.75,59,1.0,84.66,1,0,0,168.85205071875006,64,100,80
9785.75,68,2.0,84.66,1,0,0,168.85205071875006,64,100,80
9787.75,64,1.0,84.66,1,0,0,168.85205071875006,64,100,80
9788.75,63,0.5,84.66,1,0,0,168.85205071875006,64,100,80
9789.25,66,0.25,84.66,1,0,0,168.85205071875006,64,100,80
9789.5,64,1.0,84.66,1,0,0,168.85205071875006,64,100,80
9790.5,63,0.5,84.66,1,0,0,168.85205071875006,64,100,80
9791.0,63,0.5,84.66,1,0,0,203.8888512428907,64,100,80
9791.5,64,1.0,84.66,1,0,0,177.29465325468757,64,100,80
9792.5,63,0.5,84.66,1,0,0,177.29465325468757,64,100,80
9793.0,64,1.0,84.66,1,0,0,177.29465325468757,64,100,80
9794.0,64,1.0,84.66,1,0,0,214.08329380503523,64,100,80
9795.0,63,0.5,21.16,1,0,0,186.15938591742196,64,100,80
9795.5,59,1.0,21.16,1,0,0,186.15938591742196,64,100,80
9796.5,59,1.0,21.16,1,0,0,186.15938591742196,64,100,80
9797.5,63,0.5,21.16,50,9,0,186.15938591742196,64,100,80
9798.0,68,2.0,21.16,1,0,0,186.15938591742196,64,100,80
9800.0,59,1.0,21.16,1,0,0,186.15938591742196,64,100,80
9801.0,59,1.0,21.16,1,0,0,186.15938591742196,64,100,80
9802.0,61,0.5,21.16,1,0,0,186.15938591742196,64,100,80
9802.5,64,1.0,21.16,1,0,0,186.15938591742196,64,100,80
9803.5,68,2.0,21.16,1,0,0,186.15938591742196,64,100,80
9805.5,66,0.25,21.16,1,0,0,186.15938591742196,64,100,80
9805.75,59,1.0,21.16,1,0,0,186.15938591742196,64,100,80
9806.75,59,1.0,52.91,1,0,0,186.15938591742196,64,100,80
9807.75,64,1.0,52.91,1,0,0,186.15938591742196,64,100,80
9808.75,64,1.0,52.91,1,0,0,186.15938591742196,64,100,80
9809.75,68,2.0,52.91,1,0,0,186.15938591742196,64,100,80
9811.75,68,2.0,52.91,1,0,0,186.15938591742196,64,100,80
9813.75,68,2.0,52.91,1,0,0,186.15938591742196,64,100,80
9815.75,64,1.0,52.91,1,0,0,186.15938591742196,64,100,80
9816.75,59,1.0,52.91,1,0,0,186.15938591742196,64,100,80
9817.75,59,1.0,52.91,1,0,0,224.78745849528698,64,100,80
9818.75,68,2.0,52.91,1,0,0,195.46735521329305,64,100,80
9820.75,59,1.0,52.91,1,0,0,195.46735521329305,64,100,80
9821.75,68,2.0,52.91,1,0,0,195.46735521329305,64,100,80
9823.75,63,0.5,21.16,1,0,0,195.46735521329305,64,100,80
9824.25,63,0.5,21.16,1,0,0,195.46735521329305,64,100,80
9824.75,59,1.0,21.16,1,0,0,195.46735521329305,64,100,80
9825.75,70,2.0,21.16,1,0,0,195.46735521329305,64,100,80
9827.75,59,1.0,21.16,1,0,0,195.46735521329305,64,100,80
9828.75,64,1.0,21.16,1,0,0,195.46735521329305,64,100,80
9829.75,63,0.5,21.16,49,9,0,195.46735521329305,64,100,80
9830.25,61,0.5,21.16,1,0,0,195.46735521329305,64,100,80
9830.75,64,1.0,21.16,1,0,0,195.46735521329305,64,100,80
9831.75,63,0.5,21.16,1,0,0,195.46735521329305,64,100,80
9832.25,68,2.0,21.16,50,9,0,195.46735521329305,64,100,80
9834.25,66,0.25,21.16,1,0,0,195.46735521329305,64,100,80
9834.5,64,1.0,63.5,1,0,0,195.46735521329305,64,100,80
9835.5,63,0.5,63.5,1,0,0,195.46735521329305,64,100,80
9836.0,64,1.0,63.5,1,0,0,195.46735521329305,64,100,80
9837.0,70,2.0,63.5,49,9,0,195.46735521329305,64,100,80
9839.0,66,0.25,63.5,1,0,0,195.46735521329305,64,100,80
9839.25,68,2.0,63.5,1,0,0,195.46735521329305,64,100,80
9841.25,64,1.0,63.5,1,0,0,195.46735521329305,64,100,80
9842.25,66,0.25,63.5,1,0,0,195.46735521329305,64,100,80
9842.5,59,1.0,63.5,1,0,0,195.46735521329305,64,100,80
9843.5,61,0.5,63.5,1,0,0,195.46735521329305,64,100,80
9844.0,63,0.5,63.5,1,0,0,195.46735521329305,64,100,80
9844.5,68,2.0,63.5,1,0,0,195.46735521329305,64,100,80
9846.5,59,1.0,63.5,1,0,0,195.46735521329305,64,100,80
9847.5,68,2.0,63.5,1,0,0,195.46735521329305,64,100,80
9849.5,59,1.0,63.5,1,0,0,195.46735521329305,64,100,80
9850.5,70,2.0,63.5,51,9,0,195.46735521329305,64,100,80
9852.5,61,0.5,63.5,1,0,0,195.46735521329305,64,100,80
9853.0,63,0.5,63.5,50,9,0,195.46735521329305,64,100,80
9853.5,59,1.0,63.5,1,0,0,195.46735521329305,64,100,80
9854.5,61,0.5,63.5,1,0,0,195.46735521329305,64,100,80
9855.0,63,0.5,63.5,1,0,0,195.46735521329305,64,100,80
9855.5,59,1.0,63.5,49,9,0,195.46735521329305,64,100,80
9856.5,59,1.0,63.5,1,0,0,236.02683142005134,64,100,80
9857.5,63,0.5,63.5,1,0,0,205.2407229739577,64,100,80
9858.0,59,1.0,31.75,1,0,0,205.2407229739577,64,100,80
9859.0,61,0.5,31.75,1,0,0,205.2407229739577,64,100,80
9859.5,70,2.0,31.75,1,0,0,205.2407229739577,64,100,80
9861.5,63,0.5,31.75,1,0,0,205.2407229739577,64,100,80
9862.0,63,0.5,31.75,1,0,0,205.2407229739577,64,100,80
9862.5,59,1.0,31.75,1,0,0,205.2407229739577,64,100,80
9863.5,63,0.5,31.75,1,0,0,205.2407229739577,64,100,80
9864.0,70,2.0,31.75,1,0,0,205.2407229739577,64,100,80
9866.0,68,2.0,31.75,1,0,0,205.2407229739577,64,100,80
9868.0,64,1.0,31.75,1,0,0,205.2407229739577,64,100,80
9869.0,61,0.5,31.75,1,0,0,205.2407229739577,64,100,80
9869.5,63,0.5,31.75,1,0,0,205.2407229739577,64,100,80
9870.0,61,0.5,52.91,49,9,0,205.2407229739577,64,100,80
9870.5,64,1.0,52.91,1,0,0,205.2407229739577,64,100,80
9871.5,59,1.0,52.91,51,9,0,205.2407229739577,64,100,80
9872.5,59,1.0,52.91,1,0,0,205.2407229739577,64,100,80
9873.5,63,0.5,52.91,1,0,0,205.2407229739577,64,100,80
9874.0,61,0.5,52.91,1,0,0,205.2407229739577,64,100,80
9874.5,59,1.0,52.91,1,0,0,205.2407229739577,64,100,80
9875.5,63,0.5,52.91,1,0,0,205.2407229739577,64,100,80
9876.0,68,2.0,52.91,1,0,0,205.2407229739577,64,100,80
9878.0,59,1.0,52.91,1,0,0,205.2407229739577,64,100,80
9879.0,63,0.5,52.91,1,0,0,205.2407229739577,64,100,80
9879.5,64,1.0,52.91,1,0,0,205.2407229739577,64,100,80
9880.5,68,2.0,63.5,1,0,0,205.2407229739577,64,100,80
9882.5,64,1.0,63.5,1,0,0,205.2407229739577,64,100,80
9883.5,70,2.0,63.5,1,0,0,205.2407229739577,64,100,80
9885.5,61,0.5,63.5,1,0,0,205.2407229739577,64,100,80
9886.0,63,0.5,63.5,1,0,0,205.2407229739577,64,100,80
9886.5,70,2.0,63.5,51,9,0,205.2407229739577,64,100,80
9888.5,66,0.25,63.5,1,0,0,205.2407229739577,64,100,80
9888.75,59,1.0,63.5,1,0,0,205.2407229739577,64,100,80
9889.75,64,1.0,63.5,1,0,0,205.2407229739577,64,100,80
9890.75,66,0.25,63.5,1,0,0,205.2407229739577,64,100,80
9891.0,63,0.5,63.5,1,0,0,205.2407229739577,64,100,80
9891.5,64,1.0,63.5,1,0,0,205.2407229739577,64,100,80
9892.5,61,0.5,74.08,1,0,0,205.2407229739577,64,100,80
9893.0,64,1.0,74.08,1,0,0,205.2407229739577,64,100,80
9894.0,59,1.0,74.08,1,0,0,205.2407229739577,64,100,80
9895.0,70,2.0,74.08,1,0,0,205.2407229739577,64,100,80
9897.0,64,1.0,74.08,1,0,0,205.2407229739577,64,100,80
9898.0,59,1.0,74.08,1,0,0,205.2407229739577,64,100,80
9899.0,63,0.5,74.08,50,9,0,205.2407229739577,64,100,80
9899.5,68,2.0,74.08,1,0,0,205.2407229739577,64,100,80
9901.5,64,1.0,74.08,49,9,0,205.2407229739577,64,100,80
9902.5,64,1.0,74.08,1,0,0,247.82817299105392,64,100,80
9903.5,64,1.0,74.08,49,9,0,215.50275912265562,64,100,80
9904.5,61,0.5,74.08,1,0,0,215.50275912265562,64,100,80
9905.0,68,2.0,42.33,1,0,0,215.50275912265562,64,100,80
9907.0,70,2.0,42.33,1,0,0,215.50275912265562,64,100,80
9909.0,61,0.5,42.33,1,0,0,215.50275912265562,64,100,80
9909.5,59,1.0,42.33,1,0,0,215.50275912265562,64,100,80
9910.5,66,0.25,42.33,1,0,0,215.50275912265562,64,100,80
9910.75,64,1.0,42.33,1,0,0,215.50275912265562,64,100,80
9911.75,61,0.5,42.33,1,0,0,215.50275912265562,64,100,80
9912.25,59,1.0,42.33,1,0,0,215.50275912265562,64,100,80
9913.25,63,0.5,42.33,50,9,0,215.50275912265562,64,100,80
9913.75,68,2.0,42.33,1,0,0,215.50275912265562,64,100,80
9915.75,68,2.0,42.33,1,0,0,260.21958164060663,64,100,80
9917.75,63,0.5,42.33,1,0,0,226.27789707878838,64,100,80
9918.25,63,0.5,31.75,1,0,0,226.27789707878838,64,100,80
9918.75,64,1.0,31.75,1,0,0,226.27789707878838,64,100,80
9919.75,63,0.5,31.75,1,0,0,226.27789707878838,64,100,80
9920.25,59,1.0,31.75,1,0,0,226.27789707878838,64,100,80
9921.25,59,1.0,31.75,1,0,0,226.27789707878838,64,100,80
9922.25,70,2.0,31.75,1,0,0,226.27789707878838,64,100,80
9924.25,59,1.0,31.75,1,0,0,226.27789707878838,64,100,80
9925.25,63,0.5,31.75,1,0,0,226.27789707878838,64,100,80
9925.75,63,0.5,31.75,49,9,0,273.230560722637,64,100,80
9926.25,61,0.5,31.75,1,0,0,237.59179193272783,64,100,80
9926.75,66,0.25,31.75,1,0,0,237.59179193272783,64,100,80
9927.0,61,0.5,31.75,1,0,0,237.59179193272783,64,100,80
9927.5,61,0.5,21.16,1,0,0,237.59179193272783,64,100,80
9928.0,59,1.0,21.16,1,0,0,237.59179193272783,64,100,80
9929.0,68,2.0,21.16,1,0,0,237.59179193272783,64,100,80
9931.0,59,1.0,21.16,1,0,0,237.59179193272783,64,100,80
9932.0,68,2.0,21.16,1,0,0,237.59179193272783,64,100,80
9934.0,66,0.25,21.16,1,0,0,237.59179193272783,64,100,80
9934.25,66,0.25,21.16,50,9,0,237.59179193272783,64,100,80
9934.5,68,2.0,21.16,1,0,0,237.59179193272783,64,100,80
9936.5,63,0.5,21.16,1,0,0,237.59179193272783,64,100,80
9937.0,64,1.0,21.16,1,0,0,237.59179193272783,64,100,80
9938.0,70,2.0,21.16,1,0,0,237.59179193272783,64,100,80
9940.0,64,1.0,21.16,51,9,0,237.59179193272783,64,100,80
9941.0,66,0.25,42.33,50,9,0,237.59179193272783,64,100,80
9941.25,59,1.0,42.33,1,0,0,237.59179193272783,64,100,80
9942.25,64,1.0,42.33,49,9,0,237.59179193272783,64,100,80
9943.25,63,0.5,42.33,1,0,0,237.59179193272783,64,100,80
9943.75,68,2.0,42.33,1,0,0,237.59179193272783,64,100,80
9945.75,59,1.0,42.33,1,0,0,237.59179193272783,64,100,80
9946.75,61,0.5,42.33,1,0,0,237.59179193272783,64,100,80
9947.25,68,2.0,42.33,51,9,0,237.59179193272783,64,100,80
9949.25,70,2.0,42.33,51,9,0,237.59179193272783,64,100,80
9951.25,61,0.5,42.33,1,0,0,237.59179193272783,64,100,80
9951.75,68,2.0,42.33,1,0,0,237.59179193272783,64,100,80
9953.75,59,1.0,42.33,1,0,0,237.59179193272783,64,100,80
9954.75,64,1.0,84.66,1,0,0,237.59179193272783,64,100,80
9955.75,59,1.0,84.66,1,0,0,237.59179193272783,64,100,80
9956.75,66,0.25,84.66,1,0,0,237.59179193272783,64,100,80
9957.0,63,0.5,84.66,1,0,0,237.59179193272783,64,100,80
9957.5,59,1.0,84.66,1,0,0,237.59179193272783,64,100,80
9958.5,68,2.0,84.66,1,0,0,237.59179193272783,64,100,80
9960.5,59,1.0,84.66,1,0,0,237.59179193272783,64,100,80
9961.5,59,1.0,84.66,1,0,0,237.59179193272783,64,100,80
9962.5,59,1.0,84.66,1,0,0,286.89208875876886,64,100,80
9963.5,63,0.5,84.66,1,0,0,249.47138152936424,64,100,80
9964.0,66,0.25,84.66,1,0,0,249.47138152936424,64,100,80
9964.25,63,0.5,84.66,1,0,0,249.47138152936424,64,100,80
9964.75,59,1.0,74.08,39,9,0,249.47138152936424,64,100,80
9965.75,59,1.0,74.08,1,0,0,249.47138152936424,64,100,80
9966.75,64,1.0,74.08,1,0,0,249.47138152936424,64,100,80
9967.75,63,0.5,74.08,1,0,0,249.47138152936424,64,100,80
9968.25,64,1.0,74.08,1,0,0,249.47138152936424,64,100,80
9969.25,59,1.0,74.08,39,9,0,249.47138152936424,64,100,80
9970.25,59,1.0,74.08,1,0,0,249.47138152936424,64,100,80
9971.25,59,1.0,74.08,1,0,0,301.23669319670734,64,100,80
9972.25,61,0.5,74.08,1,0,0,261.9449506058325,64,100,80
9972.75,61,0.5,74.08,1,0,0,316.2985278565427,64,100,80
9973.25,64,1.0,74.08,1,0,0,275.0421981361241,64,100,80
9974.25,59,1.0,74.08,1,0,0,275.0421981361241,64,100,80
9975.25,63,0.5,31.75,1,0,0,275.0421981361241,64,100,80
9975.75,68,2.0,31.75,1,0,0,275.0421981361241,64,100,80
9977.75,70,2.0,31.75,1,0,0,275.0421981361241,64,100,80
9979.75,59,1.0,31.75,1,0,0,275.0421981361241,64,100,80
9980.75,59,1.0,31.75,1,0,0,275.0421981361241,64,100,80
9981.75,64,1.0,31.75,1,0,0,275.0421981361241,64,100,80
9982.75,59,1.0,31.75,49,9,0,275.0421981361241,64,100,80
9983.75,63,0.5,31.75,1,0,0,275.0421981361241,64,100,80
9984.25,59,1.0,31.75,1,0,0,275.0421981361241,64,100,80
9985.25,59,1.0,31.75,1,0,0,275.0421981361241,64,100,80
9986.25,63,0.5,31.75,1,0,0,275.0421981361241,64,100,80
9986.75,59,1.0,31.75,1,0,0,275.0421981361241,64,100,80
9987.75,68,2.0,63.5,1,0,0,275.0421981361241,64,100,80
9989.75,61,0.5,63.5,1,0,0,275.0421981361241,64,100,80
9990.25,64,1.0,63.5,1,0,0,275.0421981361241,64,100,80
9991.25,61,0.5,63.5,1,0,0,275.0421981361241,64,100,80
9991.75,59,1.0,63.5,1,0,0,275.0421981361241,64,100,80
9992.75,59,1.0,63.5,49,9,0,275.0421981361241,64,100,80
9993.75,64,1.0,63.5,1,0,0,275.0421981361241,64,100,80
9994.75,68,2.0,63.5,49,9,0,275.0421981361241,64,100,80
9996.75,64,1.0,63.5,1,0,0,275.0421981361241,64,100,80
9997.75,63,0.5,63.5,1,0,0,275.0421981361241,64,100,80
9998.25,68,2.0,63.5,1,0,0,275.0421981361241,64,100,80
10000.25,66,0.25,63.5,1,0,0,275.0421981361241,64,100,80
10000.5,63,0.5,52.91,1,0,0,275.0421981361241,64,100,80
10001.0,64,1.0,52.91,1,0,0,275.0421981361241,64,100,80
10002.0,68,2.0,52.91,1,0,0,275.0421981361241,64,100,80
10004.0,63,0.5,52.91,1,0,0,275.0421981361241,64,100,80
10004.5,61,0.5,52.91,1,0,0,275.0421981361241,64,100,80
10005.0,64,1.0,52.91,1,0,0,275.0421981361241,64,100,80
10006.0,61,0.5,52.91,1,0,0,275.0421981361241,64,100,80
10006.5,68,2.0,52.91,1,0,0,275.0421981361241,64,100,80
10008.5,66,0.25,52.91,49,9,0,275.0421981361241,64,100,80
10008.75,64,1.0,52.91,1,0,0,275.0421981361241,64,100,80
10009.75,63,0.5,52.91,1,0,0,275.0421981361241,64,100,80
10010.25,59,1.0,52.91,1,0,0,275.0421981361241,64,100,80
10011.25,59,1.0,52.91,1,0,0,332.11345424936985,64,100,80
10012.25,59,1.0,52.91,1,0,0,697.4382539236767,64,100,80
10013.25,64,1.0,52.91,49,9,0,303.23402344507684,64,100,80
10014.25,66,0.25,52.91,1,0,0,303.23402344507684,64,100,80
10014.5,59,1.0,52.91,1,0,0,303.23402344507684,64,100,80
10015.5,68,2.0,52.91,50,9,0,303.23402344507684,64,100,80
10017.5,64,1.0,52.91,1,0,0,303.23402344507684,64,100,80
10018.5,68,2.0,52.91,1,0,0,303.23402344507684,64,100,80
10020.5,68,2.0,52.91,1,0,0,303.23402344507684,64,100,80
10022.5,63,0.5,52.91,1,0,0,303.23402344507684,64,100,80
10023.0,68,2.0,52.91,1,0,0,303.23402344507684,64,100,80
10025.0,64,1.0,52.91,1,0,0,303.23402344507684,64,100,80
10026.0,70,2.0,31.75,1,0,0,303.23402344507684,64,100,80
10028.0,59,1.0,31.75,1,0,0,303.23402344507684,64,100,80
10029.0,63,0.5,31.75,1,0,0,303.23402344507684,64,100,80
10029.5,64,1.0,31.75,1,0,0,303.23402344507684,64,100,80
10030.5,64,1.0,31.75,1,0,0,303.23402344507684,64,100,80
10031.5,61,0.5,31.75,1,0,0,303.23402344507684,64,100,80
10032.0,70,2.0,31.75,1,0,0,303.23402344507684,64,100,80
10034.0,63,0.5,31.75,1,0,0,303.23402344507684,64,100,80
10034.5,63,0.5,31.75,1,0,0,366.1550833099303,64,100,80
10035.0,68,2.0,31.75,1,0,0,318.3957246173307,64,100,80
10037.0,59,1.0,31.75,51,9,0,318.3957246173307,64,100,80
10038.0,66,0.25,31.75,1,0,0,318.3957246173307,64,100,80
10038.25,68,2.0,10.58,50,9,0,318.3957246173307,64,100,80
10040.25,64,1.0,10.58,49,9,0,318.3957246173307,64,100,80
10041.25,63,0.5,10.58,1,0,0,318.3957246173307,64,100,80
10041.75,63,0.5,10.58,49,9,0,384.46283747542685,64,100,80
10042.25,64,1.0,10.58,1,0,0,334.3155108481973,64,100,80
10043.25,59,1.0,10.58,1,0,0,334.3155108481973,64,100,80
10044.25,68,2.0,10.58,1,0,0,334.3155108481973,64,100,80
10046.25,63,0.5,10.58,1,0,0,334.3155108481973,64,100,80
10046.75,68,2.0,10.58,1,0,0,334.3155108481973,64,100,80
10048.75,59,1.0,10.58,1,0,0,334.3155108481973,64,100,80
10049.75,66,0.25,10.58,1,0,0,334.3155108481973,64,100,80
10050.0,64,1.0,10.58,1,0,0,334.3155108481973,64,100,80
10051.0,61,0.5,42.33,1,0,0,334.3155108481973,64,100,80
10051.5,59,1.0,42.33,1,0,0,334.3155108481973,64,100,80
10052.5,59,1.0,42.33,1,0,0,403.6859793491982,64,100,80
10053.5,59,1.0,42.33,1,0,0,351.0312863906072,64,100,80
10054.5,59,1.0,42.33,1,0,0,351.0312863906072,64,100,80
10055.5,68,2.0,42.33,1,0,0,351.0312863906072,64,100,80
10057.5,61,0.5,42.33,1,0,0,351.0312863906072,64,100,80
10058.0,68,2.0,42.33,1,0,0,351.0312863906072,64,100,80
10060.0,59,1.0,42.33,1,0,0,351.0312863906072,64,100,80
10061.0,70,2.0,42.33,1,0,0,351.0312863906072,64,100,80
10063.0,64,1.0,42.33,1,0,0,351.0312863906072,64,100,80
10064.0,59,1.0,42.33,1,0,0,351.0312863906072,64,100,80
10065.0,64,1.0,52.91,1,0,0,351.0312863906072,64,100,80
10066.0,64,1.0,52.91,1,0,0,423.87027831665813,64,100,80
10067.0,0,1.0,52.91,49,9,0,120.0,64,100,80
10068.0,69,2.0,52.91,1,0,0,120.0,64,100,80
10070.0,60,1.0,52.91,1,0,0,120.0,64,100,80
10071.0,71,2.0,52.91,1,0,0,120.0,64,100,80
10073.0,60,1.0,52.91,1,0,0,120.0,64,100,80
10074.0,60,1.0,52.91,1,0,0,144.9,64,100,80
10075.0,64,0.5,52.91,49,9,0,126.0,64,100,80
10075.5,60,1.0,52.91,1,0,0,126.0,64,100,80
10076.5,62,0.5,52.91,1,0,0,126.0,64,100,80
10077.0,60,1.0,52.91,1,0,0,126.0,64,100,80
10078.0,62,0.5,63.5,1,0,0,126.0,64,100,80
10078.5,60,1.0,63.5,1,0,0,126.0,64,100,80
10079.5,69,2.0,63.5,1,0,0,126.0,64,100,80
10081.5,67,0.25,63.5,1,0,0,126.0,64,100,80
10081.75,60,1.0,63.5,1,0,0,126.0,64,100,80
10082.75,67,0.25,63.5,1,0,0,126.0,64,100,80
10083.0,71,2.0,63.5,1,0,0,126.0,64,100,80
10085.0,60,1.0,63.5,1,0,0,126.0,64,100,80
10086.0,62,0.5,63.5,1,0,0,126.0,64,100,80
10086.5,69,2.0,63.5,1,0,0,126.0,64,100,80
10088.5,64,0.5,63.5,1,0,0,126.0,64,100,80
10089.0,62,0.5,63.5,1,0,0,126.0,64,100,80
10089.5,62,0.5,74.08,1,0,0,126.0,64,100,80
10090.0,60,1.0,74.08,1,0,0,126.0,64,100,80
10091.0,67,0.25,74.08,1,0,0,126.0,64,100,80
10091.25,69,2.0,74.08,1,0,0,126.0,64,100,80
10093.25,64,0.5,74.08,1,0,0,126.0,64,100,80
10093.75,0,1.0,74.08,49,9,0,120.0,64,100,80
10094.75,60,1.0,74.08,1,0,0,120.0,64,100,80
10095.75,60,1.0,74.08,1,0,0,120.0,64,100,80
10096.75,64,0.5,74.08,1,0,0,120.0,64,100,80
10097.25,60,1.0,74.08,1,0,0,120.0,64,100,80
10098.25,60,1.0,74.08,1,0,0,144.9,64,100,80
10099.25,60,1.0,74.08,1,0,0,126.0,64,100,80
10100.25,62,0.5,31.75,49,9,0,126.0,64,100,80
10100.75,65,1.0,31.75,1,0,0,126.0,64,100,80
10101.75,65,1.0,31.75,1,0,0,152.14499999999998,64,100,80
10102.75,65,1.0,31.75,1,0,0,132.3,64,100,80
10103.75,69,2.0,31.75,1,0,0,132.3,64,100,80
10105.75,64,0.5,31.75,1,0,0,132.3,64,100,80
10106.25,60,1.0,31.75,1,0,0,132.3,64,100,80
10107.25,64,0.5,31.75,49,9,0,132.3,64,100,80
10107.75,65,1.0,31.75,1,0,0,132.3,64,100,80
10108.75,62,0.5,31.75,1,0,0,132.3,64,100,80
10109.25,60,1.0,31.75,1,0,0,132.3,64,100,80
10110.25,69,2.0,31.75,1,0,0,132.3,64,100,80
10112.25,67,0.25,63.5,49,9,0,132.3,64,100,80
10112.5,64,0.5,63.5,1,0,0,132.3,64,100,80
10113.0,64,0.5,63.5,1,0,0,132.3,64,100,80
10113.5,69,2.0,63.5,1,0,0,132.3,64,100,80
10115.5,60,1.0,63.5,1,0,0,132.3,64,100,80
10116.5,60,1.0,63.5,49,9,0,132.3,64,100,80
10117.5,65,1.0,63.5,1,0,0,132.3,64,100,80
10118.5,64,0.5,63.5,1,0,0,132.3,64,100,80
10119.0,60,1.0,63.5,1,0,0,132.3,64,100,80
10120.0,69,2.0,63.5,1,0,0,132.3,64,100,80
10122.0,64,0.5,63.5,50,9,0,132.3,64,100,80
10122.5,67,0.25,63.5,1,0,0,132.3,64,100,80
10122.75,65,1.0,74.08,1,0,0,132.3,64,100,80
10123.75,69,2.0,74.08,1,0,0,132.3,64,100,80
10125.75,64,0.5,74.08,1,0,0,132.3,64,100,80
10126.25,65,1.0,74.08,1,0,0,132.3,64,100,80
10127.25,71,2.0,74.08,1,0,0,132.3,64,100,80
10129.25,60,1.0,74.08,1,0,0,132.3,64,100,80
10130.25,60,1.0,74.08,1,0,0,132.3,64,100,80
10131.25,69,2.0,74.08,49,9,0,132.3,64,100,80
10133.25,67,0.25,74.08,1,0,0,132.3,64,100,80
10133.5,60,1.0,74.08,1,0,0,132.3,64,100,80
10134.5,69,2.0,74.08,1,0,0,132.3,64,100,80
10136.5,60,1.0,74.08,1,0,0,132.3,64,100,80
10137.5,69,2.0,84.66,1,0,0,132.3,64,100,80
10139.5,64,0.5,84.66,1,0,0,132.3,64,100,80
10140.0,62,0.5,84.66,1,0,0,132.3,64,100,80
10140.5,64,0.5,84.66,50,9,0,132.3,64,100,80
10141.0,62,0.5,84.66,49,9,0,132.3,64,100,80
10141.5,67,0.25,84.66,1,0,0,132.3,64,100,80
10141.75,62,0.5,84.66,1,0,0,132.3,64,100,80
10142.25,64,0.5,84.66,1,0,0,132.3,64,100,80
10142.75,65,1.0,84.66,1,0,0,132.3,64,100,80
10143.75,65,1.0,84.66,49,9,0,159.75225,64,100,80
10144.75,62,0.5,84.66,1,0,0,138.91500000000002,64,100,80
10145.25,71,2.0,84.66,50,9,0,138.91500000000002,64,100,80
10147.25,0,1.0,42.33,49,9,0,120.0,64,100,80
10148.25,65,1.0,42.33,1,0,0,120.0,64,100,80
10149.25,62,0.5,42.33,1,0,0,120.0,64,100,80
10149.75,60,1.0,42.33,1,0,0,120.0,64,100,80
10150.75,71,2.0,42.33,1,0,0,120.0,64,100,80
10152.75,62,0.5,42.33,1,0,0,120.0,64,100,80
10153.25,60,1.0,42.33,1,0,0,120.0,64,100,80
10154.25,62,0.5,42.33,1,0,0,120.0,64,100,80
10154.75,71,2.0,42.33,1,0,0,120.0,64,100,80
10156.75,64,0.5,42.33,49,9,0,120.0,64,100,80
10157.25,60,1.0,42.33,1,0,0,120.0,64,100,80
10158.25,62,0.5,42.33,1,0,0,120.0,64,100,80
10158.75,69,2.0,52.91,1,0,0,120.0,64,100,80
10160.75,62,0.5,52.91,1,0,0,120.0,64,100,80
10161.25,60,1.0,52.91,1,0,0,120.0,64,100,80
10162.25,62,0.5,52.91,1,0,0,120.0,64,100,80
10162.75,62,0.5,52.91,1,0,0,120.0,64,100,80
10163.25,69,2.0,52.91,1,0,0,120.0,64,100,80
10165.25,62,0.5,52.91,1,0,0,120.0,64,100,80
10165.75,64,0.5,52.91,1,0,0,120.0,64,100,80
10166.25,64,0.5,52.91,1,0,0,144.9,64,100,80
10166.75,64,0.5,52.91,1,0,0,304.28999999999996,64,100,80
10167.25,60,1.0,52.91,1,0,0,132.3,64,100,80
10168.25,64,0.5,52.91,51,9,0,132.3,64,100,80
10168.75,60,1.0,42.33,1,0,0,132.3,64,100,80
10169.75,62,0.5,42.33,1,0,0,132.3,64,100,80
10170.25,60,1.0,42.33,1,0,0,132.3,64,100,80
10171.25,64,0.5,42.33,1,0,0,132.3,64,100,80
10171.75,62,0.5,42.33,1,0,0,132.3,64,100,80
10172.25,67,0.25,42.33,1,0,0,132.3,64,100,80
10172.5,62,0.5,42.33,1,0,0,132.3,64,100,80
10173.0,60,1.0,42.33,1,0,0,132.3,64,100,80
10174.0,62,0.5,42.33,1,0,0,132.3,64,100,80
10174.5,62,0.5,42.33,1,0,0,132.3,64,100,80
10175.0,71,2.0,42.33,50,9,0,132.3,64,100,80
10177.0,69,2.0,42.33,1,0,0,132.3,64,100,80
10179.0,64,0.5,84.66,1,0,0,132.3,64,100,80
10179.5,60,1.0,84.66,1,0,0,132.3,64,100,80
10180.5,60,1.0,84.66,1,0,0,132.3,64,100,80
10181.5,60,1.0,84.66,1,0,0,132.3,64,100,80
10182.5,64,0.5,84.66,1,0,0,132.3,64,100,80
10183.0,69,2.0,84.66,1,0,0,132.3,64,100,80
10185.0,60,1.0,84.66,1,0,0,132.3,64,100,80
10186.0,67,0.25,84.66,1,0,0,132.3,64,100,80
10186.25,69,2.0,84.66,1,0,0,132.3,64,100,80
10188.25,60,1.0,84.66,1,0,0,132.3,64,100,80
10189.25,60,1.0,84.66,1,0,0,132.3,64,100,80
10190.25,69,2.0,84.66,40,9,0,132.3,64,100,80
10192.25,62,0.5,63.5,1,0,0,132.3,64,100,80
10192.75,60,1.0,63.5,1,0,0,132.3,64,100,80
10193.75,64,1.0,63.5,50,9,0,132.3,64,100,80
10194.75,68,2.0,63.5,1,0,0,132.3,64,100,80
10196.75,63,0.5,63.5,49,9,0,132.3,64,100,80
10197.25,63,0.5,63.5,1,0,0,132.3,64,100,80
10197.75,68,2.0,63.5,1,0,0,132.3,64,100,80
10199.75,64,1.0,63.5,1,0,0,132.3,64,100,80
10200.75,68,2.0,63.5,1,0,0,132.3,64,100,80
10202.75,68,2.0,63.5,1,0,0,159.75225,64,100,80
10204.75,63,0.5,63.5,1,0,0,138.91500000000002,64,100,80
10205.25,59,1.0,63.5,1,0,0,138.91500000000002,64,100,80
10206.25,63,0.5,21.16,1,0,0,138.91500000000002,64,100,80
10206.75,68,2.0,21.16,1,0,0,138.91500000000002,64,100,80
10208.75,61,0.5,21.16,1,0,0,138.91500000000002,64,100,80
10209.25,59,1.0,21.16,1,0,0,138.91500000000002,64,100,80
10210.25,61,0.5,21.16,1,0,0,138.91500000000002,64,100,80
10210.75,68,2.0,21.16,1,0,0,138.91500000000002,64,100,80
10212.75,59,1.0,21.16,1,0,0,138.91500000000002,64,100,80
10213.75,68,2.0,21.16,1,0,0,138.91500000000002,64,100,80
10215.75,66,0.25,21.16,1,0,0,138.91500000000002,64,100,80
10216.0,61,0.5,21.16,1,0,0,138.91500000000002,64,100,80
10216.5,59,1.0,21.16,1,0,0,138.91500000000002,64,100,80
10217.5,68,2.0,21.16,1,0,0,138.91500000000002,64,100,80
10219.5,59,1.0,52.91,1,0,0,138.91500000000002,64,100,80
10220.5,63,0.5,52.91,1,0,0,138.91500000000002,64,100,80
10221.0,63,0.5,52.91,1,0,0,167.73986250000002,64,100,80
10221.5,61,0.5,52.91,1,0,0,145.86075000000002,64,100,80
10222.0,63,0.5,52.91,1,0,0,145.86075000000002,64,100,80
10222.5,66,0.25,52.91,40,9,0,145.86075000000002,64,100,80
10222.75,59,1.0,52.91,1,0,0,145.86075000000002,64,100,80
10223.75,70,2.0,52.91,1,0,0,145.86075000000002,64,100,80
10225.75,68,2.0,52.91,1,0,0,145.86075000000002,64,100,80
10227.75,61,0.5,52.91,1,0,0,145.86075000000002,64,100,80
10228.25,70,2.0,52.91,1,0,0,145.86075000000002,64,100,80
10230.25,64,1.0,52.91,1,0,0,145.86075000000002,64,100,80
10231.25,59,1.0,0.0,1,0,0,145.86075000000002,64,100,80
10232.25,63,0.5,0.0,1,0,0,145.86075000000002,64,100,80
10232.75,66,0.25,0.0,1,0,0,145.86075000000002,64,100,80
10233.0,63,0.5,0.0,1,0,0,145.86075000000002,64,100,80
10233.5,63,0.5,0.0,1,0,0,145.86075000000002,64,100,80
10234.0,61,0.5,0.0,1,0,0,145.86075000000002,64,100,80
10234.5,64,1.0,0.0,50,9,0,145.86075000000002,64,100,80
10235.5,61,0.5,0.0,1,0,0,145.86075000000002,64,100,80
10236.0,68,2.0,0.0,1,0,0,145.86075000000002,64,100,80
10238.0,63,0.5,0.0,1,0,0,145.86075000000002,64,100,80
10238.5,68,2.0,0.0,1,0,0,145.86075000000002,64,100,80
10240.5,59,1.0,0.0,1,0,0,145.86075000000002,64,100,80
10241.5,61,0.5,63.5,1,0,0,145.86075000000002,64,100,80
10242.0,68,2.0,63.5,1,0,0,145.86075000000002,64,100,80
10244.0,64,1.0,63.5,1,0,0,145.86075000000002,64,100,80
10245.0,59,1.0,63.5,1,0,0,145.86075000000002,64,100,80
10246.0,64,1.0,63.5,1,0,0,145.86075000000002,64,100,80
10247.0,61,0.5,63.5,1,0,0,145.86075000000002,64,100,80
10247.5,59,1.0,63.5,1,0,0,145.86075000000002,64,100,80
10248.5,59,1.0,63.5,1,0,0,176.12685562500005,64,100,80
10249.5,61,0.5,63.5,1,0,0,153.15378750000005,64,100,80
10250.0,68,2.0,63.5,1,0,0,153.15378750000005,64,100,80
10252.0,68,2.0,63.5,1,0,0,184.93319840625003,64,100,80
10254.0,59,1.0,63.5,1,0,0,160.81147687500004,64,100,80
10255.0,70,2.0,21.16,1,0,0,160.81147687500004,64,100,80
10257.0,66,0.25,21.16,1,0,0,160.81147687500004,64,100,80
10257.25,64,1.0,21.16,1,0,0,160.81147687500004,64,100,80
10258.25,61,0.5,21.16,1,0,0,160.81147687500004,64,100,80
10258.75,68,2.0,21.16,1,0,0,160.81147687500004,64,100,80
10260.75,61,0.5,21.16,1,0,0,160.81147687500004,64,100,80
10261.25,66,0.25,21.16,1,0,0,160.81147687500004,64,100,80
10261.5,59,1.0,21.16,1,0,0,160.81147687500004,64,100,80
10262.5,61,0.5,21.16,1,0,0,160.81147687500004,64,100,80
10263.0,59,1.0,21.16,1,0,0,160.81147687500004,64,100,80
10264.0,59,1.0,21.16,1,0,0,160.81147687500004,64,100,80
10265.0,61,0.5,21.16,1,0,0,160.81147687500004,64,100,80
10265.5,61,0.5,52.91,1,0,0,194.17985832656254,64,100,80
10266.0,68,2.0,52.91,1,0,0,168.85205071875006,64,100,80
10268.0,61,0.5,52.91,1,0,0,168.85205071875006,64,100,80
10268.5,59,1.0,52.91,1,0,0,168.85205071875006,64,100,80
10269.5,59,1.0,52.91,1,0,0,168.85205071875006,64,100,80
10270.5,61,0.5,52.91,1,0,0,168.85205071875006,64,100,80
10271.0,61,0.5,52.91,1,0,0,203.8888512428907,64,100,80
10271.5,61,0.5,52.91,1,0,0,428.16658761007045,64,100,80
10272.0,61,0.5,52.91,1,0,0,674.3623754858609,64,100,80
10272.5,70,2.0,52.91,1,0,0,195.46735521329305,64,100,80
10274.5,64,1.0,52.91,1,0,0,195.46735521329305,64,100,80
10275.5,59,1.0,52.91,1,0,0,195.46735521329305,64,100,80
10276.5,59,1.0,31.75,1,0,0,195.46735521329305,64,100,80
10277.5,66,0.25,31.75,1,0,0,195.46735521329305,64,100,80
10277.75,68,2.0,31.75,1,0,0,195.46735521329305,64,100,80
10279.75,59,1.0,31.75,1,0,0,195.46735521329305,64,100,80
10280.75,61,0.5,31.75,1,0,0,195.46735521329305,64,100,80
10281.25,63,0.5,31.75,1,0,0,195.46735521329305,64,100,80
10281.75,61,0.5,31.75,1,0,0,195.46735521329305,64,100,80
10282.25,63,0.5,31.75,50,9,0,195.46735521329305,64,100,80
10282.75,0,1.0,31.75,49,9,0,120.0,64,100,80
10283.75,60,1.0,31.75,50,9,0,120.0,64,100,80
10284.75,62,0.5,31.75,1,0,0,120.0,64,100,80
10285.25,62,0.5,31.75,1,0,0,120.0,64,100,80
10285.75,67,0.25,31.75,1,0,0,120.0,64,100,80
10286.0,60,1.0,31.75,1,0,0,120.0,64,100,80
10287.0,60,1.0,31.75,1,0,0,120.0,64,100,80
10288.0,60,1.0,31.75,1,0,0,120.0,64,100,80
10289.0,69,2.0,31.75,1,0,0,120.0,64,100,80
10291.0,60,1.0,31.75,1,0,0,120.0,64,100,80
10292.0,62,0.5,31.75,1,0,0,120.0,64,100,80
10292.5,64,1.0,31.75,50,9,0,120.0,64,100,80
10293.5,61,0.5,31.75,1,0,0,120.0,64,100,80
10294.0,63,0.5,31.75,49,9,0,120.0,64,100,80
10294.5,63,0.5,31.75,1,0,0,120.0,64,100,80
10295.0,59,1.0,31.75,1,0,0,120.0,64,100,80
10296.0,64,1.0,42.33,49,9,0,120.0,64,100,80
10297.0,63,0.5,42.33,50,9,0,120.0,64,100,80
10297.5,0,1.0,42.33,49,9,0,120.0,64,100,80
10298.5,64,0.5,42.33,1,0,0,120.0,64,100,80
10299.0,64,1.0,42.33,50,9,0,120.0,64,100,80
10300.0,61,0.5,42.33,1,0,0,120.0,64,100,80
10300.5,66,0.25,42.33,1,0,0,120.0,64,100,80
10300.75,64,1.0,42.33,50,9,0,120.0,64,100,80
10301.75,61,0.5,42.33,1,0,0,120.0,64,100,80
10302.25,61,0.5,42.33,1,0,0,144.9,64,100,80
10302.75,68,2.0,42.33,1,0,0,126.0,64,100,80
10304.75,66,0.25,42.33,1,0,0,126.0,64,100,80
10305.0,66,0.25,52.91,1,0,0,126.0,64,100,80
10305.25,68,2.0,52.91,51,9,0,126.0,64,100,80
10307.25,59,1.0,52.91,1,0,0,126.0,64,100,80
10308.25,68,2.0,52.91,1,0,0,126.0,64,100,80
10310.25,68,2.0,52.91,1,0,0,126.0,64,100,80
10312.25,0,1.0,52.91,49,9,0,120.0,64,100,80
10313.25,69,2.0,52.91,1,0,0,120.0,64,100,80
10315.25,62,0.5,52.91,1,0,0,120.0,64,100,80
10315.75,62,0.5,52.91,1,0,0,120.0,64,100,80
10316.25,62,0.5,52.91,1,0,0,120.0,64,100,80
10316.75,64,0.5,52.91,1,0,0,120.0,64,100,80
10317.25,69,2.0,52.91,1,0,0,120.0,64,100,80
10319.25,64,1.0,52.91,49,9,0,120.0,64,100,80
10320.25,59,1.0,52.91,1,0,0,120.0,64,100,80
10321.25,61,0.5,52.91,1,0,0,120.0,64,100,80
10321.75,61,0.5,52.91,1,0,0,144.9,64,100,80
10322.25,59,1.0,52.91,1,0,0,126.0,64,100,80
10323.25,59,1.0,52.91,1,0,0,126.0,64,100,80
10324.25,59,1.0,52.91,1,0,0,126.0,64,100,80
10325.25,70,2.0,52.91,1,0,0,126.0,64,100,80
10327.25,59,1.0,52.91,1,0,0,126.0,64,100,80
10328.25,61,0.5,52.91,1,0,0,126.0,64,100,80
10328.75,59,1.0,52.91,1,0,0,126.0,64,100,80
10329.75,61,0.5,52.91,1,0,0,126.0,64,100,80
10330.25,59,1.0,42.33,1,0,0,126.0,64,100,80
10331.25,68,2.0,42.33,1,0,0,126.0,64,100,80
10333.25,63,0.5,42.33,1,0,0,126.0,64,100,80
10333.75,63,0.5,42.33,1,0,0,152.14499999999998,64,100,80
10334.25,61,0.5,42.33,1,0,0,132.3,64,100,80
10334.75,68,2.0,42.33,1,0,0,132.3,64,100,80
10336.75,63,0.5,42.33,1,0,0,132.3,64,100,80
10337.25,59,1.0,42.33,1,0,0,132.3,64,100,80
10338.25,59,1.0,42.33,1,0,0,159.75225,64,100,80
10339.25,63,0.5,42.33,1,0,0,138.91500000000002,64,100,80
10339.75,59,1.0,42.33,1,0,0,138.91500000000002,64,100,80
10340.75,0,1.0,42.33,49,9,0,120.0,64,100,80
10341.75,65,1.0,63.5,49,9,0,120.0,64,100,80
10342.75,62,0.5,63.5,1,0,0,120.0,64,100,80
10343.25,64,0.5,63.5,1,0,0,120.0,64,100,80
10343.75,64,0.5,63.5,1,0,0,144.9,64,100,80
10344.25,60,1.0,63.5,1,0,0,126.0,64,100,80
10345.25,60,1.0,63.5,1,0,0,126.0,64,100,80
10346.25,64,0.5,63.5,49,9,0,126.0,64,100,80
10346.75,67,0.25,63.5,1,0,0,126.0,64,100,80
10347.0,64,0.5,63.5,1,0,0,126.0,64,100,80
10347.5,69,2.0,63.5,1,0,0,126.0,64,100,80
10349.5,64,0.5,63.5,1,0,0,126.0,64,100,80
10350.0,64,0.5,63.5,1,0,0,152.14499999999998,64,100,80
10350.5,60,1.0,63.5,1,0,0,132.3,64,100,80
10351.5,62,0.5,63.5,49,9,0,132.3,64,100,80
10352.0,67,0.25,63.5,1,0,0,132.3,64,100,80
10352.25,60,1.0,63.5,50,9,0,132.3,64,100,80
10353.25,62,0.5,63.5,1,0,0,132.3,64,100,80
10353.75,67,0.25,63.5,1,0,0,132.3,64,100,80
10354.0,62,0.5,63.5,1,0,0,132.3,64,100,80
10354.5,67,0.25,63.5,1,0,0,132.3,64,100,80
10354.75,67,0.25,63.5,1,0,0,132.3,64,100,80
10355.0,64,0.5,63.5,1,0,0,132.3,64,100,80
10355.5,62,0.5,63.5,1,0,0,132.3,64,100,80
10356.0,67,0.25,63.5,1,0,0,132.3,64,100,80
10356.25,60,1.0,21.16,1,0,0,132.3,64,100,80
10357.25,64,0.5,21.16,1,0,0,132.3,64,100,80
10357.75,64,0.5,21.16,1,0,0,159.75225,64,100,80
10358.25,67,0.25,21.16,1,0,0,138.91500000000002,64,100,80
10358.5,60,1.0,21.16,1,0,0,138.91500000000002,64,100,80
10359.5,65,1.0,21.16,49,9,0,138.91500000000002,64,100,80
10360.5,64,0.5,21.16,1,0,0,138.91500000000002,64,100,80
10361.0,60,1.0,21.16,1,0,0,138.91500000000002,64,100,80
10362.0,62,0.5,21.16,1,0,0,138.91500000000002,64,100,80
10362.5,71,2.0,21.16,1,0,0,138.91500000000002,64,100,80
10364.5,69,2.0,21.16,1,0,0,138.91500000000002,64,100,80
10366.5,71,2.0,21.16,1,0,0,138.91500000000002,64,100,80
10368.5,64,0.5,63.5,1,0,0,138.91500000000002,64,100,80
10369.0,60,1.0,63.5,1,0,0,138.91500000000002,64,100,80
10370.0,62,0.5,63.5,1,0,0,138.91500000000002,64,100,80
10370.5,60,1.0,63.5,1,0,0,138.91500000000002,64,100,80
10371.5,62,0.5,63.5,1,0,0,138.91500000000002,64,100,80
10372.0,69,2.0,63.5,1,0,0,138.91500000000002,64,100,80
10374.0,60,1.0,63.5,1,0,0,138.91500000000002,64,100,80
10375.0,64,1.0,63.5,50,9,0,138.91500000000002,64,100,80
10376.0,61,0.5,63.5,1,0,0,138.91500000000002,64,100,80
10376.5,59,1.0,63.5,1,0,0,138.91500000000002,64,100,80
10377.5,64,1.0,63.5,49,9,0,138.91500000000002,64,100,80
10378.5,61,0.5,63.5,1,0,0,138.91500000000002,64,100,80
10379.0,59,1.0,21.16,1,0,0,138.91500000000002,64,100,80
10380.0,59,1.0,21.16,1,0,0,138.91500000000002,64,100,80
10381.0,63,0.5,21.16,1,0,0,138.91500000000002,64,100,80
10381.5,59,1.0,21.16,1,0,0,138.91500000000002,64,100,80
10382.5,63,0.5,21.16,1,0,0,138.91500000000002,64,100,80
10383.0,63,0.5,21.16,1,0,0,167.73986250000002,64,100,80
10383.5,63,0.5,21.16,1,0,0,352.2537112500001,64,100,80
10384.0,66,0.25,21.16,1,0,0,153.15378750000005,64,100,80
10384.25,64,1.0,21.16,49,9,0,153.15378750000005,64,100,80
10385.25,63,0.5,21.16,1,0,0,153.15378750000005,64,100,80
10385.75,61,0.5,21.16,1,0,0,153.15378750000005,64,100,80
10386.25,59,1.0,21.16,1,0,0,153.15378750000005,64,100,80
10387.25,63,0.5,31.75,49,9,0,153.15378750000005,64,100,80
10387.75,59,1.0,31.75,1,0,0,153.15378750000005,64,100,80
10388.75,70,2.0,31.75,1,0,0,153.15378750000005,64,100,80
10390.75,0,1.0,31.75,49,9,0,120.0,64,100,80
10391.75,69,2.0,31.75,1,0,0,120.0,64,100,80
10393.75,62,0.5,31.75,1,0,0,120.0,64,100,80
10394.25,60,1.0,31.75,1,0,0,120.0,64,100,80
10395.25,64,0.5,31.75,49,9,0,120.0,64,100,80
10395.75,62,0.5,31.75,1,0,0,120.0,64,100,80
10396.25,60,1.0,31.75,1,0,0,120.0,64,100,80
10397.25,64,0.5,31.75,1,0,0,120.0,64,100,80
10397.75,62,0.5,31.75,1,0,0,120.0,64,100,80
10398.25,64,0.5,63.5,51,9,0,120.0,64,100,80
10398.75,64,1.0,63.5,50,9,0,120.0,64,100,80
10399.75,68,2.0,63.5,1,0,0,120.0,64,100,80
10401.75,61,0.5,63.5,1,0,0,120.0,64,100,80
10402.25,61,0.5,63.5,1,0,0,120.0,64,100,80
10402.75,63,0.5,63.5,1,0,0,120.0,64,100,80
10403.25,63,0.5,63.5,1,0,0,144.9,64,100,80
10403.75,61,0.5,63.5,1,0,0,126.0,64,100,80
10404.25,63,0.5,63.5,49,9,0,126.0,64,100,80
10404.75,59,1.0,63.5,1,0,0,126.0,64,100,80
10405.75,59,1.0,63.5,1,0,0,152.14499999999998,64,100,80
10406.75,61,0.5,63.5,1,0,0,132.3,64,100,80
10407.25,61,0.5,42.33,51,9,0,132.3,64,100,80
10407.75,66,0.25,42.33,1,0,0,132.3,64,100,80
10408.0,59,1.0,42.33,1,0,0,132.3,64,100,80
10409.0,59,1.0,42.33,1,0,0,132.3,64,100,80
10410.0,66,0.25,42.33,1,0,0,132.3,64,100,80
10410.25,63,0.5,42.33,1,0,0,132.3,64,100,80
10410.75,59,1.0,42.33,1,0,0,132.3,64,100,80
10411.75,59,1.0,42.33,1,0,0,132.3,64,100,80
10412.75,59,1.0,42.33,1,0,0,159.75225,64,100,80
10413.75,61,0.5,42.33,1,0,0,138.91500000000002,64,100,80
10414.25,68,2.0,42.33,1,0,0,138.91500000000002,64,100,80
10416.25,61,0.5,42.33,1,0,0,138.91500000000002,64,100,80
10416.75,70,2.0,42.33,1,0,0,138.91500000000002,64,100,80
10418.75,59,1.0,42.33,1,0,0,138.91500000000002,64,100,80
10419.75,59,1.0,42.33,1,0,0,167.73986250000002,64,100,80
10420.75,63,0.5,42.33,51,9,0,145.86075000000002,64,100,80
10421.25,64,1.0,42.33,50,9,0,145.86075000000002,64,100,80
10422.25,59,1.0,42.33,1,0,0,145.86075000000002,64,100,80
10423.25,64,1.0,42.33,1,0,0,145.86075000000002,64,100,80
10424.25,59,1.0,42.33,1,0,0,145.86075000000002,64,100,80
10425.25,68,2.0,42.33,1,0,0,145.86075000000002,64,100,80
10427.25,59,1.0,42.33,1,0,0,145.86075000000002,64,100,80
10428.25,68,2.0,42.33,1,0,0,145.86075000000002,64,100,80
10430.25,64,1.0,42.33,50,9,0,145.86075000000002,64,100,80
10431.25,68,2.0,63.5,1,0,0,145.86075000000002,64,100,80
10433.25,64,1.0,63.5,39,9,0,145.86075000000002,64,100,80
10434.25,59,1.0,63.5,39,9,0,145.86075000000002,64,100,80
10435.25,59,1.0,63.5,39,9,0,145.86075000000002,64,100,80
10436.25,59,1.0,63.5,1,0,0,145.86075000000002,64,100,80
10437.25,0,1.0,63.5,49,9,0,120.0,64,100,80
10438.25,69,2.0,63.5,1,0,0,120.0,64,100,80
10440.25,64,0.5,63.5,1,0,0,120.0,64,100,80
10440.75,69,2.0,63.5,1,0,0,120.0,64,100,80
10442.75,71,2.0,63.5,1,0,0,120.0,64,100,80
10444.75,60,1.0,63.5,1,0,0,120.0,64,100,80
10445.75,62,0.5,63.5,1,0,0,120.0,64,100,80
10446.25,71,2.0,31.75,1,0,0,120.0,64,100,80
10448.25,69,2.0,31.75,1,0,0,120.0,64,100,80
10450.25,71,2.0,31.75,50,9,0,120.0,64,100,80
10452.25,69,2.0,31.75,1,0,0,120.0,64,100,80
10454.25,64,0.5,31.75,1,0,0,120.0,64,100,80
10454.75,62,0.5,31.75,1,0,0,120.0,64,100,80
10455.25,64,0.5,31.75,1,0,0,120.0,64,100,80
10455.75,67,0.25,31.75,1,0,0,120.0,64,100,80
10456.0,71,2.0,31.75,1,0,0,120.0,64,100,80
10458.0,64,0.5,31.75,1,0,0,120.0,64,100,80
10458.5,0,1.0,31.75,49,9,0,120.0,64,100,80
10459.5,60,1.0,31.75,49,9,0,120.0,64,100,80
10460.5,64,0.5,10.58,1,0,0,120.0,64,100,80
10461.0,64,0.5,10.58,1,0,0,144.9,64,100,80
10461.5,60,1.0,10.58,1,0,0,126.0,64,100,80
10462.5,69,2.0,10.58,1,0,0,126.0,64,100,80
10464.5,62,0.5,10.58,1,0,0,126.0,64,100,80
10465.0,60,1.0,10.58,1,0,0,126.0,64,100,80
10466.0,60,1.0,10.58,1,0,0,126.0,64,100,80
10467.0,64,0.5,10.58,1,0,0,126.0,64,100,80
10467.5,60,1.0,10.58,1,0,0,126.0,64,100,80
10468.5,71,2.0,10.58,1,0,0,126.0,64,100,80
10470.5,67,0.25,10.58,50,9,0,126.0,64,100,80
10470.75,69,2.0,10.58,1,0,0,126.0,64,100,80
10472.75,69,2.0,31.75,1,0,0,126.0,64,100,80
10474.75,71,2.0,31.75,1,0,0,126.0,64,100,80
10476.75,62,0.5,31.75,1,0,0,126.0,64,100,80
10477.25,69,2.0,31.75,1,0,0,126.0,64,100,80
10479.25,60,1.0,31.75,1,0,0,126.0,64,100,80
10480.25,69,2.0,31.75,1,0,0,126.0,64,100,80
10482.25,62,0.5,31.75,1,0,0,126.0,64,100,80
10482.75,64,0.5,31.75,1,0,0,126.0,64,100,80
10483.25,60,1.0,31.75,1,0,0,126.0,64,100,80
10484.25,60,1.0,31.75,1,0,0,152.14499999999998,64,100,80
10485.25,67,0.25,31.75,1,0,0,132.3,64,100,80
10485.5,62,0.5,31.75,1,0,0,132.3,64,100,80
10486.0,60,1.0,63.5,1,0,0,132.3,64,100,80
10487.0,62,0.5,63.5,1,0,0,132.3,64,100,80
10487.5,64,0.5,63.5,1,0,0,132.3,64,100,80
10488.0,60,1.0,63.5,1,0,0,132.3,64,100,80
10489.0,62,0.5,63.5,1,0,0,132.3,64,100,80
10489.5,64,0.5,63.5,1,0,0,132.3,64,100,80
10490.0,64,0.5,63.5,1,0,0,159.75225,64,100,80
10490.5,60,1.0,63.5,1,0,0,138.91500000000002,64,100,80
10491.5,60,1.0,63.5,1,0,0,138.91500000000002,64,100,80
10492.5,62,0.5,63.5,50,9,0,138.91500000000002,64,100,80
10493.0,0,1.0,63.5,49,9,0,120.0,64,100,80
10494.0,60,1.0,63.5,1,0,0,120.0,64,100,80
10495.0,60,1.0,52.91,1,0,0,144.9,64,100,80
10496.0,0,1.0,52.91,49,9,0,120.0,64,100,80
10497.0,65,1.0,52.91,1,0,0,120.0,64,100,80
10498.0,62,0.5,52.91,39,9,0,120.0,64,100,80
10498.5,60,1.0,52.91,1,0,0,120.0,64,100,80
10499.5,65,1.0,52.91,1,0,0,120.0,64,100,80
10500.5,69,2.0,52.91,1,0,0,120.0,64,100,80
10502.5,67,0.25,52.91,1,0,0,120.0,64,100,80
10502.75,71,2.0,52.91,1,0,0,120.0,64,100,80
10504.75,64,0.5,52.91,1,0,0,120.0,64,100,80
10505.25,64,0.5,52.91,1,0,0,144.9,64,100,80
10505.75,62,0.5,52.91,1,0,0,126.0,64,100,80
10506.25,60,1.0,42.33,51,9,0,126.0,64,100,80
10507.25,67,0.25,42.33,56,9,0,126.0,64,100,80
10507.5,60,1.0,42.33,49,9,0,126.0,64,100,80
10508.5,62,0.5,42.33,1,0,0,126.0,64,100,80
10509.0,64,0.5,42.33,1,0,0,126.0,64,100,80
10509.5,60,1.0,42.33,1,0,0,126.0,64,100,80
10510.5,62,0.5,42.33,1,0,0,126.0,64,100,80
10511.0,67,0.25,42.33,1,0,0,126.0,64,100,80
10511.25,65,1.0,42.33,50,9,0,126.0,64,100,80
10512.25,62,0.5,42.33,1,0,0,126.0,64,100,80
10512.75,69,2.0,42.33,1,0,0,126.0,64,100,80
10514.75,64,0.5,42.33,1,0,0,126.0,64,100,80
10515.25,60,1.0,52.91,1,0,0,126.0,64,100,80
10516.25,0,1.0,52.91,49,9,0,120.0,64,100,80
10517.25,69,2.0,52.91,1,0,0,120.0,64,100,80
10519.25,60,1.0,52.91,1,0,0,120.0,64,100,80
10520.25,64,0.5,52.91,1,0,0,120.0,64,100,80
10520.75,62,0.5,52.91,1,0,0,120.0,64,100,80
10521.25,60,1.0,52.91,1,0,0,120.0,64,100,80
10522.25,64,0.5,52.91,50,9,0,120.0,64,100,80
10522.75,62,0.5,52.91,1,0,0,120.0,64,100,80
10523.25,69,2.0,52.91,1,0,0,120.0,64,100,80
10525.25,69,2.0,52.91,1,0,0,144.9,64,100,80
10527.25,64,0.5,52.91,1,0,0,126.0,64,100,80
10527.75,65,1.0,52.91,1,0,0,126.0,64,100,80
10528.75,69,2.0,52.91,1,0,0,126.0,64,100,80
10530.75,64,0.5,52.91,1,0,0,126.0,64,100,80
10531.25,62,0.5,52.91,1,0,0,126.0,64,100,80
10531.75,60,1.0,52.91,1,0,0,126.0,64,100,80
10532.75,64,1.0,52.91,50,9,0,126.0,64,100,80
10533.75,59,1.0,52.91,1,0,0,126.0,64,100,80
10534.75,70,2.0,52.91,1,0,0,126.0,64,100,80
10536.75,63,0.5,52.91,1,0,0,126.0,64,100,80
10537.25,64,1.0,52.91,1,0,0,126.0,64,100,80
10538.25,70,2.0,52.91,1,0,0,126.0,64,100,80
10540.25,70,2.0,52.91,1,0,0,152.14499999999998,64,100,80
10542.25,59,1.0,74.08,1,0,0,132.3,64,100,80
10543.25,68,2.0,74.08,1,0,0,132.3,64,100,80
10545.25,64,1.0,74.08,49,9,0,132.3,64,100,80
10546.25,59,1.0,74.08,49,9,0,132.3,64,100,80
10547.25,61,0.5,74.08,1,0,0,132.3,64,100,80
10547.75,63,0.5,74.08,1,0,0,132.3,64,100,80
10548.25,61,0.5,74.08,1,0,0,132.3,64,100,80
10548.75,66,0.25,74.08,1,0,0,132.3,64,100,80
10549.0,68,2.0,74.08,1,0,0,132.3,64,100,80
10551.0,70,2.0,74.08,1,0,0,132.3,64,100,80
10553.0,59,1.0,74.08,1,0,0,132.3,64,100,80
10554.0,63,0.5,74.08,51,9,0,132.3,64,100,80
10554.5,66,0.25,63.5,1,0,0,132.3,64,100,80
10554.75,64,1.0,63.5,49,9,0,132.3,64,100,80
10555.75,61,0.5,63.5,1,0,0,132.3,64,100,80
10556.25,68,2.0,63.5,1,0,0,132.3,64,100,80
10558.25,64,1.0,63.5,49,9,0,132.3,64,100,80
10559.25,59,1.0,63.5,1,0,0,132.3,64,100,80
10560.25,59,1.0,63.5,1,0,0,132.3,64,100,80
10561.25,59,1.0,63.5,1,0,0,132.3,64,100,80
10562.25,63,0.5,63.5,1,0,0,132.3,64,100,80
10562.75,59,1.0,63.5,1,0,0,132.3,64,100,80
10563.75,63,0.5,63.5,1,0,0,132.3,64,100,80
10564.25,70,2.0,63.5,1,0,0,132.3,64,100,80
10566.25,0,1.0,52.91,49,9,0,120.0,64,100,80
10567.25,60,1.0,52.91,1,0,0,120.0,64,100,80
10568.25,67,0.25,52.91,1,0,0,120.0,64,100,80
10568.5,69,2.0,52.91,1,0,0,120.0,64,100,80
10570.5,64,0.5,52.91,49,9,0,120.0,64,100,80
10571.0,60,1.0,52.91,1,0,0,120.0,64,100,80
10572.0,60,1.0,52.91,50,9,0,120.0,64,100,80
10573.0,62,0.5,52.91,1,0,0,120.0,64,100,80
10573.5,64,0.5,52.91,1,0,0,120.0,64,100,80
10574.0,62,0.5,52.91,1,0,0,120.0,64,100,80
10574.5,64,0.5,52.91,1,0,0,120.0,64,100,80
10575.0,65,1.0,52.91,1,0,0,120.0,64,100,80
10576.0,64,0.5,63.5,1,0,0,120.0,64,100,80
10576.5,69,2.0,63.5,1,0,0,120.0,64,100,80
10578.5,0,1.0,63.5,49,9,0,120.0,64,100,80
10579.5,64,0.5,63.5,49,9,0,120.0,64,100,80
10580.0,60,1.0,63.5,1,0,0,120.0,64,100,80
10581.0,64,1.0,63.5,50,9,0,120.0,64,100,80
10582.0,63,0.5,63.5,1,0,0,120.0,64,100,80
10582.5,63,0.5,63.5,1,0,0,120.0,64,100,80
10583.0,59,1.0,63.5,1,0,0,120.0,64,100,80
10584.0,63,0.5,63.5,1,0,0,120.0,64,100,80
10584.5,64,1.0,63.5,1,0,0,120.0,64,100,80
10585.5,61,0.5,63.5,1,0,0,120.0,64,100,80
10586.0,63,0.5,52.91,1,0,0,120.0,64,100,80
10586.5,63,0.5,52.91,1,0,0,144.9,64,100,80
10587.0,70,2.0,52.91,1,0,0,126.0,64,100,80
10589.0,59,1.0,52.91,1,0,0,126.0,64,100,80
10590.0,59,1.0,52.91,49,9,0,126.0,64,100,80
10591.0,59,1.0,52.91,1,0,0,152.14499999999998,64,100,80
10592.0,63,0.5,52.91,1,0,0,132.3,64,100,80
10592.5,64,1.0,52.91,50,9,0,132.3,64,100,80
10593.5,0,1.0,52.91,49,9,0,120.0,64,100,80
10594.5,64,1.0,52.91,49,9,0,120.0,64,100,80
10595.5,63,0.5,52.91,1,0,0,120.0,64,100,80
10596.0,68,2.0,52.91,1,0,0,120.0,64,100,80
10598.0,68,2.0,63.5,1,0,0,120.0,64,100,80
10600.0,64,1.0,63.5,50,9,0,120.0,64,100,80
10601.0,68,2.0,63.5,1,0,0,120.0,64,100,80
10603.0,59,1.0,63.5,1,0,0,120.0,64,100,80
10604.0,61,0.5,63.5,1,0,0,120.0,64,100,80
10604.5,63,0.5,63.5,1,0,0,120.0,64,100,80
10605.0,59,1.0,63.5,49,9,0,120.0,64,100,80
10606.0,64,1.0,63.5,1,0,0,120.0,64,100,80
10607.0,63,0.5,63.5,49,9,0,120.0,64,100,80
10607.5,66,0.25,63.5,1,0,0,120.0,64,100,80
10607.75,59,1.0,63.5,49,9,0,120.0,64,100,80
10608.75,68,2.0,63.5,1,0,0,120.0,64,100,80
10610.75,68,2.0,31.75,1,0,0,120.0,64,100,80
10612.75,70,2.0,31.75,1,0,0,120.0,64,100,80
10614.75,61,0.5,31.75,1,0,0,120.0,64,100,80
10615.25,64,1.0,31.75,1,0,0,120.0,64,100,80
10616.25,64,1.0,31.75,49,9,0,144.9,64,100,80
10617.25,59,1.0,31.75,1,0,0,126.0,64,100,80
10618.25,64,1.0,31.75,1,0,0,126.0,64,100,80
10619.25,70,2.0,31.75,50,9,0,126.0,64,100,80
10621.25,68,2.0,31.75,1,0,0,126.0,64,100,80
10623.25,59,1.0,31.75,1,0,0,126.0,64,100,80
10624.25,61,0.5,31.75,1,0,0,126.0,64,100,80
10624.75,63,0.5,31.75,1,0,0,126.0,64,100,80
10625.25,68,2.0,42.33,51,9,0,126.0,64,100,80
10627.25,59,1.0,42.33,1,0,0,126.0,64,100,80
10628.25,61,0.5,42.33,1,0,0,126.0,64,100,80
10628.75,68,2.0,42.33,1,0,0,126.0,64,100,80
10630.75,59,1.0,42.33,1,0,0,126.0,64,100,80
10631.75,59,1.0,42.33,1,0,0,126.0,64,100,80
10632.75,59,1.0,42.33,1,0,0,126.0,64,100,80
10633.75,64,1.0,42.33,1,0,0,126.0,64,100,80
10634.75,68,2.0,42.33,1,0,0,126.0,64,100,80
10636.75,68,2.0,42.33,1,0,0,152.14499999999998,64,100,80
10638.75,63,0.5,42.33,1,0,0,132.3,64,100,80
10639.25,68,2.0,42.33,1,0,0,132.3,64,100,80
10641.25,64,1.0,42.33,1,0,0,132.3,64,100,80
10642.25,66,0.25,42.33,1,0,0,132.3,64,100,80
10642.5,68,2.0,42.33,1,0,0,132.3,64,100,80
10644.5,61,0.5,42.33,51,9,0,132.3,64,100,80
10645.0,64,1.0,42.33,50,9,0,132.3,64,100,80
10646.0,70,2.0,42.33,1,0,0,132.3,64,100,80
10648.0,70,2.0,42.33,1,0,0,159.75225,64,100,80
10650.0,63,0.5,42.33,1,0,0,138.91500000000002,64,100,80
10650.5,59,1.0,42.33,1,0,0,138.91500000000002,64,100,80
10651.5,59,1.0,42.33,1,0,0,138.91500000000002,64,100,80
10652.5,63,0.5,42.33,49,9,0,138.91500000000002,64,100,80
10653.0,59,1.0,42.33,1,0,0,138.91500000000002,64,100,80
10654.0,68,2.0,52.91,1,0,0,138.91500000000002,64,100,80
10656.0,63,0.5,52.91,1,0,0,138.91500000000002,64,100,80
10656.5,63,0.5,52.91,1,0,0,167.73986250000002,64,100,80
10657.0,68,2.0,52.91,51,9,0,145.86075000000002,64,100,80
10659.0,64,1.0,52.91,50,9,0,145.86075000000002,64,100,80
10660.0,68,2.0,52.91,51,9,0,145.86075000000002,64,100,80
10662.0,64,1.0,52.91,50,9,0,145.86075000000002,64,100,80
10663.0,61,0.5,52.91,1,0,0,145.86075000000002,64,100,80
10663.5,70,2.0,52.91,51,9,0,145.86075000000002,64,100,80
10665.5,63,0.5,52.91,49,9,0,145.86075000000002,64,100,80
10666.0,59,1.0,52.91,1,0,0,145.86075000000002,64,100,80
10667.0,63,0.5,52.91,1,0,0,145.86075000000002,64,100,80
10667.5,59,1.0,74.08,1,0,0,145.86075000000002,64,100,80
10668.5,64,1.0,74.08,1,0,0,145.86075000000002,64,100,80
10669.5,64,1.0,74.08,1,0,0,176.12685562500005,64,100,80
10670.5,59,1.0,74.08,1,0,0,153.15378750000005,64,100,80
10671.5,63,0.5,74.08,1,0,0,153.15378750000005,64,100,80
10672.0,70,2.0,74.08,1,0,0,153.15378750000005,64,100,80
10674.0,64,1.0,74.08,49,9,0,153.15378750000005,64,100,80
10675.0,61,0.5,74.08,1,0,0,153.15378750000005,64,100,80
10675.5,59,1.0,74.08,1,0,0,153.15378750000005,64,100,80
10676.5,68,2.0,74.08,1,0,0,153.15378750000005,64,100,80
10678.5,70,2.0,74.08,1,0,0,153.15378750000005,64,100,80
10680.5,70,2.0,74.08,1,0,0,184.93319840625003,64,100,80
10682.5,59,1.0,74.08,1,0,0,160.81147687500004,64,100,80
10683.5,64,1.0,74.08,50,9,0,160.81147687500004,64,100,80
10684.5,70,2.0,74.08,1,0,0,160.81147687500004,64,100,80
10686.5,61,0.5,74.08,1,0,0,160.81147687500004,64,100,80
10687.0,59,1.0,74.08,1,0,0,160.81147687500004,64,100,80
10688.0,63,0.5,74.08,1,0,0,160.81147687500004,64,100,80
10688.5,66,0.25,74.08,1,0,0,160.81147687500004,64,100,80
10688.75,61,0.5,74.08,1,0,0,160.81147687500004,64,100,80
10689.25,63,0.5,74.08,1,0,0,160.81147687500004,64,100,80
10689.75,68,2.0,74.08,1,0,0,160.81147687500004,64,100,80
10691.75,64,1.0,74.08,1,0,0,160.81147687500004,64,100,80
10692.75,66,0.25,74.08,49,9,0,160.81147687500004,64,100,80
10693.0,63,0.5,63.5,50,9,0,160.81147687500004,64,100,80
10693.5,59,1.0,63.5,49,9,0,160.81147687500004,64,100,80
10694.5,61,0.5,63.5,1,0,0,160.81147687500004,64,100,80
10695.0,66,0.25,63.5,1,0,0,160.81147687500004,64,100,80
10695.25,68,2.0,63.5,1,0,0,160.81147687500004,64,100,80
10697.25,63,0.5,63.5,1,0,0,160.81147687500004,64,100,80
10697.75,61,0.5,63.5,1,0,0,160.81147687500004,64,100,80
10698.25,64,1.0,63.5,1,0,0,160.81147687500004,64,100,80
10699.25,70,2.0,63.5,1,0,0,160.81147687500004,64,100,80
10701.25,61,0.5,63.5,1,0,0,160.81147687500004,64,100,80
10701.75,66,0.25,63.5,1,0,0,160.81147687500004,64,100,80
10702.0,0,1.0,63.5,49,9,0,120.0,64,100,80
10703.0,67,0.25,42.33,1,0,0,120.0,64,100,80
10703.25,67,0.25,42.33,1,0,0,144.9,64,100,80
10703.5,64,0.5,42.33,49,9,0,126.0,64,100,80
10704.0,62,0.5,42.33,1,0,0,126.0,64,100,80
10704.5,62,0.5,42.33,1,0,0,152.14499999999998,64,100,80
10705.0,62,0.5,42.33,1,0,0,132.3,64,100,80
10705.5,60,1.0,42.33,1,0,0,132.3,64,100,80
10706.5,0,1.0,42.33,49,9,0,120.0,64,100,80
10707.5,64,0.5,42.33,1,0,0,120.0,64,100,80
10708.0,60,1.0,42.33,1,0,0,120.0,64,100,80
10709.0,69,2.0,42.33,1,0,0,120.0,64,100,80
10711.0,67,0.25,42.33,1,0,0,120.0,64,100,80
10711.25,60,1.0,42.33,49,9,0,120.0,64,100,80
10712.25,67,0.25,42.33,1,0,0,120.0,64,100,80
10712.5,64,0.5,42.33,49,9,0,120.0,64,100,80
10713.0,67,0.25,42.33,1,0,0,120.0,64,100,80
10713.25,64,0.5,42.33,1,0,0,120.0,64,100,80
10713.75,65,1.0,42.33,49,9,0,120.0,64,100,80
10714.75,67,0.25,42.33,1,0,0,120.0,64,100,80
10715.0,62,0.5,42.33,1,0,0,120.0,64,100,80
10715.5,64,0.5,42.33,50,9,0,120.0,64,100,80
10716.0,62,0.5,42.33,1,0,0,120.0,64,100,80
10716.5,64,0.5,42.33,1,0,0,120.0,64,100,80
10717.0,64,0.5,42.33,1,0,0,120.0,64,100,80
10717.5,67,0.25,95.25,1,0,0,120.0,64,100,80
10717.75,64,0.5,95.25,1,0,0,120.0,64,100,80
10718.25,69,2.0,95.25,1,0,0,120.0,64,100,80
10720.25,69,2.0,95.25,1,0,0,120.0,64,100,80
10722.25,69,2.0,95.25,50,9,0,120.0,64,100,80
10724.25,65,1.0,95.25,1,0,0,120.0,64,100,80
10725.25,62,0.5,95.25,1,0,0,120.0,64,100,80
10725.75,67,0.25,95.25,1,0,0,120.0,64,100,80
10726.0,69,2.0,95.25,1,0,0,120.0,64,100,80
10728.0,65,1.0,95.25,1,0,0,120.0,64,100,80
10729.0,69,2.0,95.25,1,0,0,120.0,64,100,80
10731.0,64,0.5,95.25,49,9,0,120.0,64,100,80
10731.5,64,0.5,52.91,1,0,0,120.0,64,100,80
10732.0,64,0.5,52.91,1,0,0,144.9,64,100,80
10732.5,67,0.25,52.91,1,0,0,126.0,64,100,80
10732.75,60,1.0,52.91,1,0,0,126.0,64,100,80
10733.75,65,1.0,52.91,1,0,0,126.0,64,100,80
10734.75,71,2.0,52.91,1,0,0,126.0,64,100,80
10736.75,62,0.5,52.91,1,0,0,126.0,64,100,80
10737.25,0,1.0,52.91,49,9,0,120.0,64,100,80
10738.25,65,1.0,52.91,1,0,0,120.0,64,100,80
10739.25,67,0.25,52.91,50,9,0,120.0,64,100,80
10739.5,69,2.0,52.91,1,0,0,120.0,64,100,80
10741.5,67,0.25,52.91,49,9,0,120.0,64,100,80
10741.75,60,1.0,42.33,1,0,0,120.0,64,100,80
10742.75,60,1.0,42.33,49,9,0,120.0,64,100,80
10743.75,60,1.0,42.33,1,0,0,120.0,64,100,80
10744.75,0,1.0,42.33,49,9,0,120.0,64,100,80
10745.75,62,0.5,42.33,1,0,0,120.0,64,100,80
10746.25,69,2.0,42.33,1,0,0,120.0,64,100,80
10748.25,67,0.25,42.33,1,0,0,120.0,64,100,80
10748.5,62,0.5,42.33,1,0,0,120.0,64,100,80
10749.0,64,0.5,42.33,1,0,0,120.0,64,100,80
10749.5,67,0.25,42.33,1,0,0,120.0,64,100,80
10749.75,60,1.0,42.33,1,0,0,120.0,64,100,80
10750.75,67,0.25,42.33,1,0,0,120.0,64,100,80
10751.0,60,1.0,95.25,1,0,0,120.0,64,100,80
10752.0,60,1.0,95.25,1,0,0,120.0,64,100,80
10753.0,62,0.5,95.25,1,0,0,120.0,64,100,80
10753.5,64,0.5,95.25,1,0,0,120.0,64,100,80
10754.0,60,1.0,95.25,1,0,0,120.0,64,100,80
10755.0,60,1.0,95.25,1,0,0,120.0,64,100,80
10756.0,62,0.5,95.25,1,0,0,120.0,64,100,80
10756.5,67,0.25,95.25,49,9,0,120.0,64,100,80
10756.75,62,0.5,95.25,1,0,0,120.0,64,100,80
10757.25,64,0.5,95.25,1,0,0,120.0,64,100,80
10757.75,71,2.0,95.25,1,0,0,120.0,64,100,80
10759.75,69,2.0,95.25,1,0,0,120.0,64,100,80
10761.75,67,0.25,42.33,1,0,0,120.0,64,100,80
10762.0,65,1.0,42.33,1,0,0,120.0,64,100,80
10763.0,69,2.0,42.33,1,0,0,120.0,64,100,80
10765.0,67,0.25,42.33,1,0,0,120.0,64,100,80
10765.25,64,1.0,42.33,50,9,0,120.0,64,100,80
10766.25,0,1.0,42.33,49,9,0,120.0,64,100,80
10767.25,64,1.0,42.33,49,9,0,120.0,64,100,80
10768.25,59,1.0,42.33,1,0,0,120.0,64,100,80
10769.25,0,1.0,42.33,49,9,0,120.0,64,100,80
10770.25,62,0.5,42.33,1,0,0,120.0,64,100,80
10770.75,69,2.0,42.33,1,0,0,120.0,64,100,80
10772.75,65,1.0,42.33,49,9,0,120.0,64,100,80
10773.75,67,0.25,74.08,1,0,0,120.0,64,100,80
10774.0,69,2.0,74.08,1,0,0,120.0,64,100,80
10776.0,64,0.5,74.08,49,9,0,120.0,64,100,80
10776.5,64,0.5,74.08,1,0,0,120.0,64,100,80
10777.0,62,0.5,74.08,1,0,0,120.0,64,100,80
10777.5,69,2.0,74.08,1,0,0,120.0,64,100,80
10779.5,60,1.0,74.08,1,0,0,120.0,64,100,80
10780.5,62,0.5,74.08,1,0,0,120.0,64,100,80
10781.0,60,1.0,74.08,1,0,0,120.0,64,100,80
10782.0,69,2.0,74.08,1,0,0,120.0,64,100,80
10784.0,65,1.0,74.08,1,0,0,120.0,64,100,80
10785.0,69,2.0,74.08,1,0,0,120.0,64,100,80
10787.0,64,0.5,42.33,1,0,0,120.0,64,100,80
10787.5,65,1.0,42.33,1,0,0,120.0,64,100,80
10788.5,67,0.25,42.33,1,0,0,120.0,64,100,80
10788.75,60,1.0,42.33,1,0,0,120.0,64,100,80
10789.75,64,1.0,42.33,50,9,0,120.0,64,100,80
10790.75,63,0.5,42.33,1,0,0,120.0,64,100,80
10791.25,63,0.5,42.33,1,0,0,144.9,64,100,80
10791.75,59,1.0,42.33,1,0,0,126.0,64,100,80
10792.75,61,0.5,42.33,1,0,0,126.0,64,100,80
10793.25,66,0.25,42.33,1,0,0,126.0,64,100,80
10793.5,66,0.25,42.33,1,0,0,126.0,64,100,80
10793.75,61,0.5,42.33,1,0,0,126.0,64,100,80
10794.25,61,0.5,21.16,1,0,0,152.14499999999998,64,100,80
10794.75,64,1.0,21.16,1,0,0,132.3,64,100,80
10795.75,68,2.0,21.16,1,0,0,132.3,64,100,80
10797.75,64,1.0,21.16,49,9,0,132.3,64,100,80
10798.75,66,0.25,21.16,1,0,0,132.3,64,100,80
10799.0,59,1.0,21.16,1,0,0,132.3,64,100,80
10800.0,66,0.25,21.16,1,0,0,132.3,64,100,80
10800.25,0,1.0,21.16,49,9,0,120.0,64,100,80
10801.25,62,0.5,21.16,1,0,0,120.0,64,100,80
10801.75,60,1.0,21.16,1,0,0,120.0,64,100,80
10802.75,65,1.0,21.16,50,9,0,120.0,64,100,80
10803.75,62,0.5,21.16,49,9,0,120.0,64,100,80
10804.25,60,1.0,63.5,1,0,0,120.0,64,100,80
10805.25,67,0.25,63.5,1,0,0,120.0,64,100,80
10805.5,65,1.0,63.5,49,9,0,120.0,64,100,80
10806.5,60,1.0,63.5,1,0,0,120.0,64,100,80
10807.5,64,0.5,63.5,1,0,0,120.0,64,100,80
10808.0,69,2.0,63.5,1,0,0,120.0,64,100,80
10810.0,65,1.0,63.5,1,0,0,120.0,64,100,80
10811.0,65,1.0,63.5,1,0,0,120.0,64,100,80
10812.0,60,1.0,63.5,49,9,0,120.0,64,100,80
10813.0,60,1.0,63.5,49,9,0,144.9,64,100,80
10814.0,60,1.0,63.5,49,9,0,304.28999999999996,64,100,80
10815.0,65,1.0,63.5,1,0,0,132.3,64,100,80
10816.0,69,2.0,52.91,1,0,0,132.3,64,100,80
10818.0,69,2.0,52.91,1,0,0,159.75225,64,100,80
10820.0,69,2.0,52.91,1,0,0,138.91500000000002,64,100,80
10822.0,60,1.0,52.91,1,0,0,138.91500000000002,64,100,80
10823.0,65,1.0,52.91,1,0,0,138.91500000000002,64,100,80
10824.0,64,0.5,52.91,1,0,0,138.91500000000002,64,100,80
10824.5,60,1.0,52.91,1,0,0,138.91500000000002,64,100,80
10825.5,64,0.5,52.91,1,0,0,138.91500000000002,64,100,80
10826.0,67,0.25,52.91,1,0,0,138.91500000000002,64,100,80
10826.25,62,0.5,52.91,1,0,0,138.91500000000002,64,100,80
10826.75,67,0.25,52.91,1,0,0,138.91500000000002,64,100,80
10827.0,60,1.0,52.91,1,0,0,138.91500000000002,64,100,80
10828.0,62,0.5,63.5,1,0,0,138.91500000000002,64,100,80
10828.5,69,2.0,63.5,1,0,0,138.91500000000002,64,100,80
10830.5,64,0.5,63.5,1,0,0,138.91500000000002,64,100,80
10831.0,69,2.0,63.5,1,0,0,138.91500000000002,64,100,80
10833.0,64,0.5,63.5,49,9,0,138.91500000000002,64,100,80
10833.5,64,1.0,63.5,49,9,0,138.91500000000002,64,100,80
10834.5,63,0.5,63.5,50,9,0,138.91500000000002,64,100,80
10835.0,61,0.5,63.5,1,0,0,138.91500000000002,64,100,80
10835.5,61,0.5,63.5,51,9,0,138.91500000000002,64,100,80
10836.0,59,1.0,63.5,1,0,0,138.91500000000002,64,100,80
10837.0,68,2.0,63.5,1,0,0,138.91500000000002,64,100,80
10839.0,61,0.5,63.5,1,0,0,138.91500000000002,64,100,80
10839.5,59,1.0,42.33,1,0,0,138.91500000000002,64,100,80
10840.5,70,2.0,42.33,1,0,0,138.91500000000002,64,100,80
10842.5,64,1.0,42.33,1,0,0,138.91500000000002,64,100,80
10843.5,63,0.5,42.33,1,0,0,138.91500000000002,64,100,80
10844.0,63,0.5,42.33,1,0,0,167.73986250000002,64,100,80
10844.5,61,0.5,42.33,1,0,0,145.86075000000002,64,100,80
10845.0,66,0.25,42.33,1,0,0,145.86075000000002,64,100,80
10845.25,61,0.5,42.33,1,0,0,145.86075000000002,64,100,80
10845.75,68,2.0,42.33,1,0,0,145.86075000000002,64,100,80
10847.75,61,0.5,42.33,1,0,0,145.86075000000002,64,100,80
10848.25,63,0.5,42.33,49,9,0,145.86075000000002,64,100,80
10848.75,66,0.25,42.33,1,0,0,145.86075000000002,64,100,80
10849.0,68,2.0,74.08,49,9,0,145.86075000000002,64,100,80
10851.0,61,0.5,74.08,1,0,0,145.86075000000002,64,100,80
10851.5,68,2.0,74.08,1,0,0,145.86075000000002,64,100,80
10853.5,59,1.0,74.08,1,0,0,145.86075000000002,64,100,80
10854.5,61,0.5,74.08,1,0,0,145.86075000000002,64,100,80
10855.0,64,1.0,74.08,50,9,0,145.86075000000002,64,100,80
10856.0,66,0.25,74.08,1,0,0,145.86075000000002,64,100,80
10856.25,59,1.0,74.08,1,0,0,145.86075000000002,64,100,80
10857.25,63,0.5,74.08,49,9,0,145.86075000000002,64,100,80
10857.75,63,0.5,74.08,1,0,0,145.86075000000002,64,100,80
10858.25,66,0.25,74.08,1,0,0,145.86075000000002,64,100,80
10858.5,68,2.0,74.08,1,0,0,145.86075000000002,64,100,80
10860.5,66,0.25,105.83,1,0,0,145.86075000000002,64,100,80
10860.75,66,0.25,105.83,1,0,0,176.12685562500005,64,100,80
10861.0,63,0.5,105.83,1,0,0,153.15378750000005,64,100,80
10861.5,59,1.0,105.83,1,0,0,153.15378750000005,64,100,80
10862.5,61,0.5,105.83,1,0,0,153.15378750000005,64,100,80
10863.0,61,0.5,105.83,1,0,0,153.15378750000005,64,100,80
10863.5,63,0.5,105.83,1,0,0,153.15378750000005,64,100,80
10864.0,66,0.25,105.83,1,0,0,153.15378750000005,64,100,80
10864.25,63,0.5,105.83,1,0,0,153.15378750000005,64,100,80
10864.75,64,1.0,105.83,50,9,0,153.15378750000005,64,100,80
10865.75,64,1.0,105.83,50,9,0,153.15378750000005,64,100,80
10866.75,0,1.0,105.83,49,9,0,120.0,64,100,80
10867.75,69,2.0,74.08,1,0,0,120.0,64,100,80
10869.75,67,0.25,74.08,1,0,0,120.0,64,100,80
10870.0,62,0.5,74.08,1,0,0,120.0,64,100,80
10870.5,62,0.5,74.08,1,0,0,120.0,64,100,80
10871.0,62,0.5,74.08,1,0,0,144.9,64,100,80
10871.5,60,1.0,74.08,1,0,0,126.0,64,100,80
10872.5,62,0.5,74.08,1,0,0,126.0,64,100,80
10873.0,60,1.0,74.08,1,0,0,126.0,64,100,80
10874.0,62,0.5,74.08,1,0,0,126.0,64,100,80
10874.5,64,0.5,74.08,1,0,0,126.0,64,100,80
10875.0,69,2.0,74.08,51,9,0,126.0,64,100,80
10877.0,67,0.25,74.08,1,0,0,126.0,64,100,80
10877.25,69,2.0,74.08,1,0,0,126.0,64,100,80
10879.25,60,1.0,74.08,1,0,0,126.0,64,100,80
10880.25,69,2.0,74.08,1,0,0,126.0,64,100,80
10882.25,64,1.0,74.08,50,9,0,126.0,64,100,80
10883.25,61,0.5,74.08,1,0,0,126.0,64,100,80
10883.75,59,1.0,74.08,1,0,0,126.0,64,100,80
10884.75,63,0.5,74.08,1,0,0,126.0,64,100,80
10885.25,63,0.5,74.08,49,9,0,126.0,64,100,80
10885.75,63,0.5,74.08,1,0,0,126.0,64,100,80
10886.25,68,2.0,74.08,1,0,0,126.0,64,100,80
10888.25,63,0.5,74.08,1,0,0,126.0,64,100,80
10888.75,63,0.5,74.08,1,0,0,126.0,64,100,80
10889.25,66,0.25,74.08,1,0,0,126.0,64,100,80
10889.5,66,0.25,74.08,1,0,0,152.14499999999998,64,100,80
10889.75,63,0.5,74.08,49,9,0,132.3,64,100,80
10890.25,61,0.5,74.08,1,0,0,132.3,64,100,80
10890.75,0,1.0,74.08,49,9,0,120.0,64,100,80
10891.75,62,0.5,74.08,1,0,0,120.0,64,100,80
10892.25,62,0.5,74.08,1,0,0,144.9,64,100,80
10892.75,60,1.0,74.08,1,0,0,126.0,64,100,80
10893.75,0,1.0,74.08,49,9,0,120.0,64,100,80
10894.75,69,2.0,74.08,1,0,0,120.0,64,100,80
10896.75,60,1.0,74.08,1,0,0,120.0,64,100,80
10897.75,0,1.0,74.08,49,9,0,120.0,64,100,80
10898.75,69,2.0,52.91,1,0,0,120.0,64,100,80
10900.75,65,1.0,52.91,1,0,0,120.0,64,100,80
10901.75,62,0.5,52.91,1,0,0,120.0,64,100,80
10902.25,0,1.0,52.91,49,9,0,120.0,64,100,80
10903.25,69,2.0,52.91,1,0,0,120.0,64,100,80
10905.25,69,2.0,52.91,1,0,0,120.0,64,100,80
10907.25,0,1.0,52.91,49,9,0,120.0,64,100,80
10908.25,60,1.0,52.91,1,0,0,120.0,64,100,80
10909.25,0,1.0,52.91,49,9,0,120.0,64,100,80
10910.25,62,0.5,52.91,1,0,0,120.0,64,100,80
10910.75,67,0.25,52.91,1,0,0,120.0,64,100,80
10911.0,60,1.0,52.91,49,9,0,120.0,64,100,80
10912.0,62,0.5,63.5,1,0,0,120.0,64,100,80
10912.5,67,0.25,63.5,1,0,0,120.0,64,100,80
10912.75,60,1.0,63.5,1,0,0,120.0,64,100,80
10913.75,67,0.25,63.5,1,0,0,120.0,64,100,80
10914.0,64,0.5,63.5,1,0,0,120.0,64,100,80
10914.5,64,0.5,63.5,49,9,0,144.9,64,100,80
10915.0,67,0.25,63.5,1,0,0,126.0,64,100,80
10915.25,64,0.5,63.5,50,9,0,126.0,64,100,80
10915.75,62,0.5,63.5,1,0,0,126.0,64,100,80
10916.25,60,1.0,63.5,1,0,0,126.0,64,100,80
10917.25,60,1.0,63.5,1,0,0,152.14499999999998,64,100,80
10918.25,65,1.0,63.5,1,0,0,132.3,64,100,80
10919.25,62,0.5,74.08,1,0,0,132.3,64,100,80
10919.75,60,1.0,74.08,1,0,0,132.3,64,100,80
10920.75,64,0.5,74.08,1,0,0,132.3,64,100,80
10921.25,69,2.0,74.08,1,0,0,132.3,64,100,80
10923.25,64,0.5,74.08,1,0,0,132.3,64,100,80
10923.75,60,1.0,74.08,1,0,0,132.3,64,100,80
10924.75,69,2.0,74.08,1,0,0,132.3,64,100,80
10926.75,69,2.0,74.08,51,9,0,132.3,64,100,80
10928.75,67,0.25,74.08,1,0,0,132.3,64,100,80
10929.0,71,2.0,74.08,49,9,0,132.3,64,100,80
10931.0,62,0.5,74.08,1,0,0,132.3,64,100,80
10931.5,60,1.0,74.08,1,0,0,132.3,64,100,80
10932.5,62,0.5,42.33,1,0,0,132.3,64,100,80
10933.0,67,0.25,42.33,1,0,0,132.3,64,100,80
10933.25,64,0.5,42.33,1,0,0,132.3,64,100,80
10933.75,62,0.5,42.33,1,0,0,132.3,64,100,80
10934.25,62,0.5,42.33,1,0,0,159.75225,64,100,80
10934.75,64,0.5,42.33,51,9,0,138.91500000000002,64,100,80
10935.25,60,1.0,42.33,1,0,0,138.91500000000002,64,100,80
10936.25,67,0.25,42.33,1,0,0,138.91500000000002,64,100,80
10936.5,62,0.5,42.33,1,0,0,138.91500000000002,64,100,80
10937.0,64,1.0,42.33,49,9,0,138.91500000000002,64,100,80
10938.0,66,0.25,42.33,1,0,0,138.91500000000002,64,100,80
10938.25,61,0.5,42.33,1,0,0,138.91500000000002,64,100,80
10938.75,59,1.0,42.33,1,0,0,138.91500000000002,64,100,80
10939.75,63,0.5,42.33,1,0,0,138.91500000000002,64,100,80
10940.25,59,1.0,42.33,1,0,0,138.91500000000002,64,100,80
10941.25,59,1.0,42.33,1,0,0,167.73986250000002,64,100,80
10942.25,59,1.0,42.33,1,0,0,145.86075000000002,64,100,80
10943.25,66,0.25,42.33,1,0,0,145.86075000000002,64,100,80
10943.5,0,1.0,42.33,49,9,0,120.0,64,100,80
10944.5,67,0.25,42.33,1,0,0,120.0,64,100,80
10944.75,64,0.5,42.33,1,0,0,120.0,64,100,80
10945.25,62,0.5,42.33,1,0,0,120.0,64,100,80
10945.75,64,0.5,42.33,1,0,0,120.0,64,100,80
10946.25,62,0.5,42.33,1,0,0,120.0,64,100,80
10946.75,64,0.5,84.66,1,0,0,120.0,64,100,80
10947.25,65,1.0,84.66,1,0,0,120.0,64,100,80
10948.25,60,1.0,84.66,1,0,0,120.0,64,100,80
10949.25,64,0.5,84.66,50,9,0,120.0,64,100,80
10949.75,0,1.0,84.66,49,9,0,120.0,64,100,80
10950.75,69,2.0,84.66,1,0,0,120.0,64,100,80
10952.75,62,0.5,84.66,1,0,0,120.0,64,100,80
10953.25,71,2.0,84.66,1,0,0,120.0,64,100,80
10955.25,62,0.5,84.66,51,9,0,120.0,64,100,80
10955.75,60,1.0,84.66,50,9,0,120.0,64,100,80
10956.75,62,0.5,84.66,1,0,0,120.0,64,100,80
10957.25,71,2.0,84.66,1,0,0,120.0,64,100,80
10959.25,69,2.0,74.08,1,0,0,120.0,64,100,80
10961.25,67,0.25,74.08,1,0,0,120.0,64,100,80
10961.5,62,0.5,74.08,1,0,0,120.0,64,100,80
10962.0,60,1.0,74.08,1,0,0,120.0,64,100,80
10963.0,69,2.0,74.08,1,0,0,120.0,64,100,80
10965.0,0,1.0,74.08,49,9,0,120.0,64,100,80
10966.0,65,1.0,74.08,1,0,0,120.0,64,100,80
10967.0,65,1.0,74.08,1,0,0,120.0,64,100,80
10968.0,64,0.5,74.08,1,0,0,120.0,64,100,80
10968.5,62,0.5,74.08,1,0,0,120.0,64,100,80
10969.0,69,2.0,74.08,1,0,0,120.0,64,100,80
10971.0,69,2.0,74.08,1,0,0,144.9,64,100,80
10973.0,65,1.0,95.25,1,0,0,126.0,64,100,80
10974.0,0,1.0,95.25,49,9,0,120.0,64,100,80
10975.0,67,0.25,95.25,1,0,0,120.0,64,100,80
10975.25,69,2.0,95.25,1,0,0,120.0,64,100,80
10977.25,64,0.5,95.25,1,0,0,120.0,64,100,80
10977.75,67,0.25,95.25,1,0,0,120.0,64,100,80
10978.0,60,1.0,95.25,1,0,0,120.0,64,100,80
10979.0,60,1.0,95.25,1,0,0,120.0,64,100,80
10980.0,60,1.0,95.25,1,0,0,144.9,64,100,80
10981.0,60,1.0,95.25,1,0,0,126.0,64,100,80
10982.0,62,0.5,95.25,1,0,0,126.0,64,100,80
10982.5,69,2.0,95.25,1,0,0,126.0,64,100,80
10984.5,69,2.0,84.66,1,0,0,152.14499999999998,64,100,80
10986.5,64,0.5,84.66,1,0,0,132.3,64,100,80
10987.0,65,1.0,84.66,1,0,0,132.3,64,100,80
10988.0,62,0.5,84.66,1,0,0,132.3,64,100,80
10988.5,64,0.5,84.66,1,0,0,132.3,64,100,80
10989.0,65,1.0,84.66,49,9,0,132.3,64,100,80
10990.0,60,1.0,84.66,1,0,0,132.3,64,100,80
10991.0,0,1.0,84.66,49,9,0,120.0,64,100,80
10992.0,71,2.0,84.66,1,0,0,120.0,64,100,80
10994.0,64,1.0,84.66,50,9,0,120.0,64,100,80
10995.0,61,0.5,84.66,1,0,0,120.0,64,100,80
10995.5,64,1.0,84.66,1,0,0,120.0,64,100,80
10996.5,61,0.5,84.66,1,0,0,120.0,64,100,80
10997.0,64,1.0,84.66,49,9,0,120.0,64,100,80
10998.0,61,0.5,84.66,1,0,0,120.0,64,100,80
10998.5,64,1.0,84.66,49,9,0,120.0,64,100,80
10999.5,66,0.25,84.66,50,9,0,120.0,64,100,80
10999.75,59,1.0,84.66,1,0,0,120.0,64,100,80
11000.75,64,1.0,84.66,1,0,0,120.0,64,100,80
11001.75,68,2.0,84.66,1,0,0,120.0,64,100,80
11003.75,68,2.0,84.66,1,0,0,144.9,64,100,80
11005.75,66,0.25,84.66,1,0,0,126.0,64,100,80
11006.0,61,0.5,84.66,1,0,0,126.0,64,100,80
11006.5,64,1.0,84.66,49,9,0,126.0,64,100,80
11007.5,64,1.0,63.5,50,9,0,152.14499999999998,64,100,80
11008.5,0,1.0,63.5,49,9,0,120.0,64,100,80
11009.5,62,0.5,63.5,1,0,0,120.0,64,100,80
11010.0,65,1.0,63.5,1,0,0,120.0,64,100,80
11011.0,60,1.0,63.5,1,0,0,120.0,64,100,80
11012.0,0,1.0,63.5,49,9,0,120.0,64,100,80
11013.0,62,0.5,63.5,1,0,0,120.0,64,100,80
11013.5,69,2.0,63.5,1,0,0,120.0,64,100,80
11015.5,62,0.5,63.5,1,0,0,120.0,64,100,80
11016.0,60,1.0,63.5,1,0,0,120.0,64,100,80
11017.0,60,1.0,63.5,1,0,0,120.0,64,100,80
11018.0,64,0.5,63.5,1,0,0,120.0,64,100,80
11018.5,62,0.5,84.66,1,0,0,120.0,64,100,80
11019.0,60,1.0,84.66,1,0,0,120.0,64,100,80
11020.0,69,2.0,84.66,1,0,0,120.0,64,100,80
11022.0,69,2.0,84.66,1,0,0,144.9,64,100,80
11024.0,60,1.0,84.66,1,0,0,126.0,64,100,80
11025.0,65,1.0,84.66,1,0,0,126.0,64,100,80
11026.0,62,0.5,84.66,1,0,0,126.0,64,100,80
11026.5,64,1.0,84.66,50,9,0,126.0,64,100,80
11027.5,59,1.0,84.66,1,0,0,126.0,64,100,80
11028.5,68,2.0,84.66,1,0,0,126.0,64,100,80
11030.5,59,1.0,84.66,1,0,0,126.0,64,100,80
11031.5,61,0.5,84.66,1,0,0,126.0,64,100,80
11032.0,59,1.0,84.66,1,0,0,126.0,64,100,80
11033.0,61,0.5,84.66,1,0,0,126.0,64,100,80
11033.5,61,0.5,84.66,1,0,0,152.14499999999998,64,100,80
11034.0,61,0.5,84.66,51,9,0,319.5045,64,100,80
11034.5,59,1.0,84.66,50,9,0,138.91500000000002,64,100,80
11035.5,66,0.25,84.66,1,0,0,138.91500000000002,64,100,80
11035.75,63,0.5,84.66,1,0,0,138.91500000000002,64,100,80
11036.25,61,0.5,84.66,1,0,0,138.91500000000002,64,100,80
11036.75,63,0.5,84.66,50,9,0,138.91500000000002,64,100,80
11037.25,66,0.25,84.66,1,0,0,138.91500000000002,64,100,80
11037.5,59,1.0,84.66,1,0,0,138.91500000000002,64,100,80
11038.5,59,1.0,84.66,1,0,0,167.73986250000002,64,100,80
11039.5,61,0.5,74.08,1,0,0,145.86075000000002,64,100,80
11040.0,61,0.5,74.08,1,0,0,145.86075000000002,64,100,80
11040.5,61,0.5,74.08,1,0,0,145.86075000000002,64,100,80
11041.0,59,1.0,74.08,1,0,0,145.86075000000002,64,100,80
11042.0,63,0.5,74.08,1,0,0,145.86075000000002,64,100,80
11042.5,59,1.0,74.08,1,0,0,145.86075000000002,64,100,80
11043.5,63,0.5,74.08,1,0,0,145.86075000000002,64,100,80
11044.0,59,1.0,74.08,1,0,0,145.86075000000002,64,100,80
11045.0,66,0.25,74.08,1,0,0,145.86075000000002,64,100,80
11045.25,63,0.5,74.08,1,0,0,145.86075000000002,64,100,80
11045.75,59,1.0,74.08,50,9,0,145.86075000000002,64,100,80
11046.75,61,0.5,74.08,1,0,0,145.86075000000002,64,100,80
11047.25,61,0.5,74.08,1,0,0,145.86075000000002,64,100,80
11047.75,59,1.0,74.08,1,0,0,145.86075000000002,64,100,80
11048.75,64,1.0,74.08,49,9,0,145.86075000000002,64,100,80
11049.75,59,1.0,74.08,1,0,0,145.86075000000002,64,100,80
11050.75,64,1.0,74.08,49,9,0,145.86075000000002,64,100,80
11051.75,61,0.5,74.08,1,0,0,145.86075000000002,64,100,80
11052.25,59,1.0,74.08,1,0,0,145.86075000000002,64,100,80
11053.25,59,1.0,74.08,1,0,0,176.12685562500005,64,100,80
11054.25,68,2.0,74.08,1,0,0,153.15378750000005,64,100,80
11056.25,63,0.5,74.08,1,0,0,153.15378750000005,64,100,80
11056.75,59,1.0,74.08,50,9,0,153.15378750000005,64,100,80
11057.75,61,0.5,74.08,1,0,0,153.15378750000005,64,100,80
11058.25,63,0.5,84.66,1,0,0,153.15378750000005,64,100,80
11058.75,68,2.0,84.66,1,0,0,153.15378750000005,64,100,80
11060.75,59,1.0,84.66,1,0,0,153.15378750000005,64,100,80
11061.75,61,0.5,84.66,1,0,0,153.15378750000005,64,100,80
11062.25,68,2.0,84.66,1,0,0,153.15378750000005,64,100,80
11064.25,68,2.0,84.66,1,0,0,153.15378750000005,64,100,80
11066.25,59,1.0,84.66,1,0,0,153.15378750000005,64,100,80
11067.25,61,0.5,84.66,1,0,0,153.15378750000005,64,100,80
11067.75,66,0.25,84.66,1,0,0,153.15378750000005,64,100,80
11068.0,59,1.0,84.66,1,0,0,153.15378750000005,64,100,80
11069.0,63,0.5,84.66,1,0,0,153.15378750000005,64,100,80
11069.5,59,1.0,84.66,1,0,0,153.15378750000005,64,100,80
11070.5,70,2.0,21.16,1,0,0,153.15378750000005,64,100,80
11072.5,66,0.25,21.16,1,0,0,153.15378750000005,64,100,80
11072.75,64,1.0,21.16,1,0,0,153.15378750000005,64,100,80
11073.75,66,0.25,21.16,1,0,0,153.15378750000005,64,100,80
11074.0,59,1.0,21.16,1,0,0,153.15378750000005,64,100,80
11075.0,59,1.0,21.16,50,9,0,153.15378750000005,64,100,80
11076.0,0,1.0,21.16,49,9,0,120.0,64,100,80
11077.0,62,0.5,21.16,1,0,0,120.0,64,100,80
11077.5,65,1.0,21.16,1,0,0,120.0,64,100,80
11078.5,69,2.0,21.16,1,0,0,120.0,64,100,80
11080.5,65,1.0,21.16,1,0,0,120.0,64,100,80
11081.5,71,2.0,21.16,1,0,0,120.0,64,100,80
11083.5,65,1.0,84.66,49,9,0,120.0,64,100,80
11084.5,64,0.5,84.66,50,9,0,120.0,64,100,80
11085.0,60,1.0,84.66,1,0,0,120.0,64,100,80
11086.0,64,0.5,84.66,1,0,0,120.0,64,100,80
11086.5,60,1.0,84.66,50,9,0,120.0,64,100,80
11087.5,0,1.0,84.66,49,9,0,120.0,64,100,80
11088.5,64,0.5,84.66,1,0,0,120.0,64,100,80
11089.0,60,1.0,84.66,1,0,0,120.0,64,100,80
11090.0,62,0.5,84.66,1,0,0,120.0,64,100,80
11090.5,62,0.5,84.66,1,0,0,144.9,64,100,80
11091.0,62,0.5,84.66,1,0,0,126.0,64,100,80
11091.5,64,0.5,84.66,1,0,0,126.0,64,100,80
11092.0,69,2.0,74.08,1,0,0,126.0,64,100,80
11094.0,65,1.0,74.08,1,0,0,126.0,64,100,80
11095.0,69,2.0,74.08,1,0,0,126.0,64,100,80
11097.0,64,0.5,74.08,1,0,0,126.0,64,100,80
11097.5,71,2.0,74.08,1,0,0,126.0,64,100,80
11099.5,60,1.0,74.08,1,0,0,126.0,64,100,80
11100.5,62,0.5,74.08,51,9,0,126.0,64,100,80
11101.0,67,0.25,74.08,1,0,0,126.0,64,100,80
11101.25,64,0.5,74.08,1,0,0,126.0,64,100,80
11101.75,69,2.0,74.08,1,0,0,126.0,64,100,80
11103.75,60,1.0,74.08,1,0,0,126.0,64,100,80
11104.75,69,2.0,74.08,1,0,0,126.0,64,100,80
11106.75,0,1.0,63.5,49,9,0,120.0,64,100,80
11107.75,60,1.0,63.5,1,0,0,120.0,64,100,80
11108.75,60,1.0,63.5,1,0,0,144.9,64,100,80
11109.75,62,0.5,63.5,1,0,0,126.0,64,100,80
11110.25,60,1.0,63.5,50,9,0,126.0,64,100,80
11111.25,67,0.25,63.5,1,0,0,126.0,64,100,80
11111.5,60,1.0,63.5,1,0,0,126.0,64,100,80
11112.5,60,1.0,63.5,1,0,0,126.0,64,100,80
11113.5,69,2.0,63.5,1,0,0,126.0,64,100,80
11115.5,71,2.0,63.5,1,0,0,126.0,64,100,80
11117.5,60,1.0,63.5,1,0,0,126.0,64,100,80
11118.5,64,0.5,63.5,1,0,0,126.0,64,100,80
11119.0,60,1.0,84.66,1,0,0,126.0,64,100,80
11120.0,69,2.0,84.66,49,9,0,126.0,64,100,80
11122.0,64,0.5,84.66,50,9,0,126.0,64,100,80
11122.5,69,2.0,84.66,1,0,0,126.0,64,100,80
11124.5,69,2.0,84.66,1,0,0,126.0,64,100,80
11126.5,60,1.0,84.66,1,0,0,126.0,64,100,80
11127.5,71,2.0,84.66,1,0,0,126.0,64,100,80
11129.5,62,0.5,84.66,1,0,0,126.0,64,100,80
11130.0,62,0.5,84.66,1,0,0,152.14499999999998,64,100,80
11130.5,60,1.0,84.66,1,0,0,132.3,64,100,80
11131.5,60,1.0,84.66,1,0,0,132.3,64,100,80
11132.5,64,0.5,84.66,49,9,0,132.3,64,100,80
11133.0,60,1.0,31.75,1,0,0,132.3,64,100,80
11134.0,71,2.0,31.75,1,0,0,132.3,64,100,80
11136.0,62,0.5,31.75,1,0,0,132.3,64,100,80
11136.5,60,1.0,31.75,51,9,0,132.3,64,100,80
11137.5,67,0.25,31.75,50,9,0,132.3,64,100,80
11137.75,65,1.0,31.75,51,9,0,132.3,64,100,80
11138.75,67,0.25,31.75,50,9,0,132.3,64,100,80
11139.0,65,1.0,31.75,1,0,0,132.3,64,100,80
11140.0,60,1.0,31.75,51,9,0,132.3,64,100,80
11141.0,60,1.0,31.75,49,9,0,132.3,64,100,80
11142.0,62,0.5,31.75,1,0,0,132.3,64,100,80
11142.5,64,0.5,31.75,1,0,0,132.3,64,100,80
11143.0,60,1.0,63.5,1,0,0,132.3,64,100,80
11144.0,64,0.5,63.5,50,9,0,132.3,64,100,80
11144.5,69,2.0,63.5,49,9,0,132.3,64,100,80
11146.5,64,0.5,63.5,1,0,0,132.3,64,100,80
11147.0,65,1.0,63.5,1,0,0,132.3,64,100,80
11148.0,60,1.0,63.5,1,0,0,132.3,64,100,80
11149.0,71,2.0,63.5,1,0,0,132.3,64,100,80
11151.0,65,1.0,63.5,1,0,0,132.3,64,100,80
11152.0,64,0.5,63.5,1,0,0,132.3,64,100,80
11152.5,60,1.0,63.5,1,0,0,132.3,64,100,80
11153.5,64,0.5,63.5,1,0,0,132.3,64,100,80
11154.0,69,2.0,63.5,1,0,0,132.3,64,100,80
11156.0,69,2.0,31.75,1,0,0,132.3,64,100,80
11158.0,69,2.0,31.75,1,0,0,159.75225,64,100,80
11160.0,60,1.0,31.75,1,0,0,138.91500000000002,64,100,80
11161.0,64,0.5,31.75,1,0,0,138.91500000000002,64,100,80
11161.5,62,0.5,31.75,1,0,0,138.91500000000002,64,100,80
11162.0,67,0.25,31.75,1,0,0,138.91500000000002,64,100,80
11162.25,60,1.0,31.75,1,0,0,138.91500000000002,64,100,80
11163.25,65,1.0,31.75,1,0,0,138.91500000000002,64,100,80
11164.25,69,2.0,31.75,1,0,0,138.91500000000002,64,100,80
11166.25,60,1.0,31.75,1,0,0,138.91500000000002,64,100,80
11167.25,69,2.0,31.75,1,0,0,138.91500000000002,64,100,80
11169.25,60,1.0,31.75,1,0,0,138.91500000000002,64,100,80
11170.25,0,1.0,95.25,49,9,0,120.0,64,100,80
11171.25,62,0.5,95.25,49,9,0,120.0,64,100,80
11171.75,60,1.0,95.25,1,0,0,120.0,64,100,80
11172.75,62,0.5,95.25,1,0,0,120.0,64,100,80
11173.25,60,1.0,95.25,1,0,0,120.0,64,100,80
11174.25,67,0.25,95.25,1,0,0,120.0,64,100,80
11174.5,60,1.0,95.25,49,9,0,120.0,64,100,80
11175.5,62,0.5,95.25,1,0,0,120.0,64,100,80
11176.0,0,1.0,95.25,49,9,0,120.0,64,100,80
11177.0,64,0.5,95.25,1,0,0,120.0,64,100,80
11177.5,60,1.0,95.25,1,0,0,120.0,64,100,80
11178.5,62,0.5,95.25,1,0,0,120.0,64,100,80
11179.0,60,1.0,52.91,1,0,0,120.0,64,100,80
11180.0,69,2.0,52.91,1,0,0,120.0,64,100,80
11182.0,71,2.0,52.91,1,0,0,120.0,64,100,80
11184.0,69,2.0,52.91,51,9,0,120.0,64,100,80
11186.0,60,1.0,52.91,1,0,0,120.0,64,100,80
11187.0,69,2.0,52.91,49,9,0,120.0,64,100,80
11189.0,67,0.25,52.91,50,9,0,120.0,64,100,80
11189.25,69,2.0,52.91,1,0,0,120.0,64,100,80
11191.25,71,2.0,52.91,1,0,0,120.0,64,100,80
11193.25,67,0.25,52.91,1,0,0,120.0,64,100,80
11193.5,62,0.5,52.91,1,0,0,120.0,64,100,80
11194.0,64,0.5,52.91,1,0,0,120.0,64,100,80
11194.5,60,1.0,84.66,1,0,0,120.0,64,100,80
11195.5,67,0.25,84.66,1,0,0,120.0,64,100,80
11195.75,71,2.0,84.66,1,0,0,120.0,64,100,80
11197.75,64,0.5,84.66,1,0,0,120.0,64,100,80
11198.25,64,1.0,84.66,50,9,0,120.0,64,100,80
11199.25,63,0.5,84.66,50,9,0,120.0,64,100,80
11199.75,61,0.5,84.66,1,0,0,120.0,64,100,80
11200.25,0,1.0,84.66,49,9,0,120.0,64,100,80
11201.25,64,0.5,84.66,1,0,0,120.0,64,100,80
11201.75,62,0.5,84.66,1,0,0,120.0,64,100,80
11202.25,64,0.5,84.66,1,0,0,120.0,64,100,80
11202.75,60,1.0,84.66,1,0,0,120.0,64,100,80
11203.75,69,2.0,84.66,1,0,0,120.0,64,100,80
11205.75,67,0.25,84.66,1,0,0,120.0,64,100,80
11206.0,69,2.0,84.66,1,0,0,120.0,64,100,80
11208.0,64,0.5,84.66,1,0,0,120.0,64,100,80
11208.5,64,0.5,84.66,1,0,0,120.0,64,100,80
11209.0,65,1.0,84.66,1,0,0,120.0,64,100,80
11210.0,62,0.5,84.66,1,0,0,120.0,64,100,80
11210.5,71,2.0,84.66,1,0,0,120.0,64,100,80
11212.5,69,2.0,84.66,1,0,0,120.0,64,100,80
11214.5,60,1.0,84.66,1,0,0,120.0,64,100,80
11215.5,67,0.25,84.66,1,0,0,120.0,64,100,80
11215.75,65,1.0,84.66,1,0,0,120.0,64,100,80
11216.75,67,0.25,74.08,1,0,0,120.0,64,100,80
11217.0,65,1.0,74.08,1,0,0,120.0,64,100,80
11218.0,60,1.0,74.08,1,0,0,120.0,64,100,80
11219.0,69,2.0,74.08,50,9,0,120.0,64,100,80
11221.0,62,0.5,74.08,1,0,0,120.0,64,100,80
11221.5,60,1.0,74.08,1,0,0,120.0,64,100,80
11222.5,69,2.0,74.08,1,0,0,120.0,64,100,80
11224.5,0,1.0,74.08,49,9,0,120.0,64,100,80
11225.5,62,0.5,74.08,1,0,0,120.0,64,100,80
11226.0,64,0.5,74.08,1,0,0,120.0,64,100,80
11226.5,65,1.0,74.08,1,0,0,120.0,64,100,80
11227.5,62,0.5,74.08,1,0,0,120.0,64,100,80
11228.0,62,0.5,74.08,1,0,0,144.9,64,100,80
11228.5,64,0.5,74.08,49,9,0,126.0,64,100,80
11229.0,60,1.0,74.08,1,0,0,126.0,64,100,80
11230.0,62,0.5,74.08,1,0,0,126.0,64,100,80
11230.5,62,0.5,74.08,1,0,0,152.14499999999998,64,100,80
11231.0,64,0.5,74.08,49,9,0,132.3,64,100,80
11231.5,65,1.0,74.08,1,0,0,132.3,64,100,80
11232.5,71,2.0,74.08,1,0,0,132.3,64,100,80
11234.5,64,0.5,74.08,1,0,0,132.3,64,100,80
11235.0,62,0.5,74.08,1,0,0,132.3,64,100,80
11235.5,60,1.0,74.08,1,0,0,132.3,64,100,80
11236.5,62,0.5,74.08,1,0,0,132.3,64,100,80
11237.0,64,0.5,74.08,49,9,0,132.3,64,100,80
11237.5,65,1.0,74.08,49,9,0,132.3,64,100,80
11238.5,60,1.0,74.08,1,0,0,132.3,64,100,80
11239.5,67,0.25,74.08,1,0,0,132.3,64,100,80
11239.75,64,1.0,74.08,49,9,0,132.3,64,100,80
11240.75,66,0.25,74.08,49,9,0,132.3,64,100,80
11241.0,61,0.5,74.08,49,9,0,132.3,64,100,80
11241.5,66,0.25,74.08,1,0,0,132.3,64,100,80
11241.75,70,2.0,74.08,1,0,0,132.3,64,100,80
11243.75,61,0.5,74.08,49,9,0,132.3,64,100,80
11244.25,61,0.5,74.08,1,0,0,132.3,64,100,80
11244.75,61,0.5,74.08,1,0,0,132.3,64,100,80
11245.25,59,1.0,84.66,1,0,0,132.3,64,100,80
11246.25,59,1.0,84.66,1,0,0,132.3,64,100,80
11247.25,68,2.0,84.66,1,0,0,132.3,64,100,80
11249.25,63,0.5,84.66,1,0,0,132.3,64,100,80
11249.75,68,2.0,84.66,1,0,0,132.3,64,100,80
11251.75,59,1.0,84.66,1,0,0,132.3,64,100,80
11252.75,63,0.5,84.66,1,0,0,132.3,64,100,80
11253.25,63,0.5,84.66,1,0,0,132.3,64,100,80
11253.75,63,0.5,84.66,49,9,0,159.75225,64,100,80
11254.25,59,1.0,84.66,1,0,0,138.91500000000002,64,100,80
11255.25,59,1.0,84.66,49,9,0,138.91500000000002,64,100,80
11256.25,66,0.25,84.66,1,0,0,138.91500000000002,64,100,80
11256.5,64,1.0,63.5,1,0,0,138.91500000000002,64,100,80
11257.5,64,1.0,63.5,1,0,0,167.73986250000002,64,100,80
11258.5,66,0.25,63.5,1,0,0,145.86075000000002,64,100,80
11258.75,63,0.5,63.5,49,9,0,145.86075000000002,64,100,80
11259.25,61,0.5,63.5,1,0,0,145.86075000000002,64,100,80
11259.75,66,0.25,63.5,1,0,0,145.86075000000002,64,100,80
11260.0,68,2.0,63.5,49,9,0,145.86075000000002,64,100,80
11262.0,66,0.25,63.5,49,9,0,145.86075000000002,64,100,80
11262.25,66,0.25,63.5,1,0,0,176.12685562500005,64,100,80
11262.5,66,0.25,63.5,1,0,0,153.15378750000005,64,100,80
11262.75,59,1.0,63.5,1,0,0,153.15378750000005,64,100,80
11263.75,64,1.0,63.5,1,0,0,153.15378750000005,64,100,80
11264.75,61,0.5,84.66,1,0,0,153.15378750000005,64,100,80
11265.25,70,2.0,84.66,51,9,0,153.15378750000005,64,100,80
11267.25,66,0.25,84.66,1,0,0,153.15378750000005,64,100,80
11267.5,64,1.0,84.66,1,0,0,153.15378750000005,64,100,80
11268.5,59,1.0,84.66,1,0,0,153.15378750000005,64,100,80
11269.5,61,0.5,84.66,1,0,0,153.15378750000005,64,100,80
11270.0,66,0.25,84.66,1,0,0,153.15378750000005,64,100,80
11270.25,61,0.5,84.66,49,9,0,153.15378750000005,64,100,80
11270.75,61,0.5,84.66,1,0,0,153.15378750000005,64,100,80
11271.25,66,0.25,84.66,49,9,0,153.15378750000005,64,100,80
11271.5,61,0.5,84.66,1,0,0,153.15378750000005,64,100,80
11272.0,66,0.25,84.66,1,0,0,153.15378750000005,64,100,80
11272.25,68,2.0,63.5,49,9,0,153.15378750000005,64,100,80
11274.25,61,0.5,63.5,1,0,0,153.15378750000005,64,100,80
11274.75,70,2.0,63.5,1,0,0,153.15378750000005,64,100,80
11276.75,61,0.5,63.5,1,0,0,153.15378750000005,64,100,80
11277.25,64,1.0,63.5,1,0,0,153.15378750000005,64,100,80
11278.25,63,0.5,63.5,1,0,0,153.15378750000005,64,100,80
11278.75,63,0.5,63.5,1,0,0,153.15378750000005,64,100,80
11279.25,66,0.25,63.5,1,0,0,153.15378750000005,64,100,80
11279.5,68,2.0,63.5,1,0,0,153.15378750000005,64,100,80
11281.5,59,1.0,63.5,1,0,0,153.15378750000005,64,100,80
11282.5,68,2.0,63.5,1,0,0,153.15378750000005,64,100,80
11284.5,64,1.0,63.5,49,9,0,153.15378750000005,64,100,80
11285.5,68,2.0,95.25,1,0,0,153.15378750000005,64,100,80
11287.5,63,0.5,95.25,1,0,0,153.15378750000005,64,100,80
11288.0,63,0.5,95.25,49,9,0,153.15378750000005,64,100,80
11288.5,61,0.5,95.25,1,0,0,153.15378750000005,64,100,80
11289.0,59,1.0,95.25,1,0,0,153.15378750000005,64,100,80
11290.0,59,1.0,95.25,1,0,0,153.15378750000005,64,100,80
11291.0,66,0.25,95.25,1,0,0,153.15378750000005,64,100,80
11291.25,63,0.5,95.25,1,0,0,153.15378750000005,64,100,80
11291.75,64,1.0,95.25,1,0,0,153.15378750000005,64,100,80
11292.75,61,0.5,95.25,1,0,0,153.15378750000005,64,100,80
11293.25,63,0.5,95.25,1,0,0,153.15378750000005,64,100,80
11293.75,68,2.0,95.25,56,9,0,153.15378750000005,64,100,80
11295.75,59,1.0,84.66,49,9,0,153.15378750000005,64,100,80
11296.75,61,0.5,84.66,1,0,0,153.15378750000005,64,100,80
11297.25,68,2.0,84.66,1,0,0,153.15378750000005,64,100,80
11299.25,64,1.0,84.66,1,0,0,153.15378750000005,64,100,80
11300.25,59,1.0,84.66,1,0,0,153.15378750000005,64,100,80
11301.25,64,1.0,84.66,49,9,0,153.15378750000005,64,100,80
11302.25,64,1.0,84.66,1,0,0,153.15378750000005,64,100,80
11303.25,68,2.0,84.66,49,9,0,153.15378750000005,64,100,80
11305.25,63,0.5,84.66,1,0,0,153.15378750000005,64,100,80
11305.75,63,0.5,84.66,1,0,0,153.15378750000005,64,100,80
11306.25,70,2.0,84.66,1,0,0,153.15378750000005,64,100,80
11308.25,70,2.0,84.66,1,0,0,184.93319840625003,64,100,80
11310.25,59,1.0,74.08,1,0,0,160.81147687500004,64,100,80
11311.25,64,1.0,74.08,1,0,0,160.81147687500004,64,100,80
11312.25,63,0.5,74.08,1,0,0,160.81147687500004,64,100,80
11312.75,63,0.5,74.08,39,9,0,160.81147687500004,64,100,80
11313.25,59,1.0,74.08,1,0,0,160.81147687500004,64,100,80
11314.25,59,1.0,74.08,49,9,0,160.81147687500004,64,100,80
11315.25,59,1.0,74.08,1,0,0,160.81147687500004,64,100,80
11316.25,61,0.5,74.08,1,0,0,160.81147687500004,64,100,80
11316.75,66,0.25,74.08,1,0,0,160.81147687500004,64,100,80
11317.0,66,0.25,74.08,1,0,0,160.81147687500004,64,100,80
11317.25,59,1.0,74.08,1,0,0,160.81147687500004,64,100,80
11318.25,68,2.0,74.08,1,0,0,160.81147687500004,64,100,80
11320.25,64,1.0,74.08,50,9,0,160.81147687500004,64,100,80
11321.25,61,0.5,74.08,1,0,0,160.81147687500004,64,100,80
11321.75,59,1.0,74.08,49,9,0,160.81147687500004,64,100,80
11322.75,63,0.5,74.08,49,9,0,160.81147687500004,64,100,80
11323.25,63,0.5,74.08,50,9,0,194.17985832656254,64,100,80
11323.75,64,1.0,74.08,49,9,0,168.85205071875006,64,100,80
11324.75,64,1.0,74.08,1,0,0,168.85205071875006,64,100,80
11325.75,68,2.0,74.08,1,0,0,168.85205071875006,64,100,80
11327.75,70,2.0,74.08,1,0,0,168.85205071875006,64,100,80
11329.75,66,0.25,74.08,49,9,0,168.85205071875006,64,100,80
11330.0,63,0.5,74.08,1,0,0,168.85205071875006,64,100,80
11330.5,64,1.0,74.08,50,9,0,168.85205071875006,64,100,80
11331.5,64,1.0,84.66,1,0,0,168.85205071875006,64,100,80
11332.5,68,2.0,84.66,1,0,0,168.85205071875006,64,100,80
11334.5,63,0.5,84.66,1,0,0,168.85205071875006,64,100,80
11335.0,61,0.5,84.66,1,0,0,168.85205071875006,64,100,80
11335.5,66,0.25,84.66,50,9,0,168.85205071875006,64,100,80
11335.75,64,1.0,84.66,1,0,0,168.85205071875006,64,100,80
11336.75,63,0.5,84.66,49,9,0,168.85205071875006,64,100,80
11337.25,64,1.0,84.66,1,0,0,168.85205071875006,64,100,80
11338.25,70,2.0,84.66,1,0,0,168.85205071875006,64,100,80
11340.25,59,1.0,84.66,1,0,0,168.85205071875006,64,100,80
11341.25,61,0.5,84.66,1,0,0,168.85205071875006,64,100,80
11341.75,63,0.5,84.66,49,9,0,168.85205071875006,64,100,80
11342.25,63,0.5,74.08,1,0,0,203.8888512428907,64,100,80
11342.75,64,1.0,74.08,1,0,0,177.29465325468757,64,100,80
11343.75,59,1.0,74.08,1,0,0,177.29465325468757,64,100,80
11344.75,59,1.0,74.08,1,0,0,214.08329380503523,64,100,80
11345.75,63,0.5,74.08,1,0,0,186.15938591742196,64,100,80
11346.25,61,0.5,74.08,1,0,0,186.15938591742196,64,100,80
11346.75,61,0.5,74.08,1,0,0,186.15938591742196,64,100,80
11347.25,59,1.0,74.08,1,0,0,186.15938591742196,64,100,80
11348.25,61,0.5,74.08,1,0,0,186.15938591742196,64,100,80
11348.75,59,1.0,74.08,1,0,0,186.15938591742196,64,100,80
11349.75,61,0.5,74.08,40,9,0,186.15938591742196,64,100,80
11350.25,63,0.5,74.08,1,0,0,186.15938591742196,64,100,80
11350.75,63,0.5,63.5,1,0,0,186.15938591742196,64,100,80
11351.25,68,2.0,63.5,1,0,0,186.15938591742196,64,100,80
11353.25,63,0.5,63.5,50,9,0,186.15938591742196,64,100,80
11353.75,68,2.0,63.5,1,0,0,186.15938591742196,64,100,80
11355.75,59,1.0,63.5,1,0,0,186.15938591742196,64,100,80
11356.75,64,1.0,63.5,1,0,0,186.15938591742196,64,100,80
11357.75,59,1.0,63.5,1,0,0,186.15938591742196,64,100,80
11358.75,59,1.0,63.5,1,0,0,186.15938591742196,64,100,80
11359.75,66,0.25,63.5,1,0,0,186.15938591742196,64,100,80
11360.0,64,1.0,63.5,1,0,0,186.15938591742196,64,100,80
11361.0,68,2.0,63.5,1,0,0,186.15938591742196,64,100,80
11363.0,59,1.0,63.5,1,0,0,186.15938591742196,64,100,80
11364.0,66,0.25,52.91,51,9,0,186.15938591742196,64,100,80
11364.25,66,0.25,52.91,56,9,0,186.15938591742196,64,100,80
11364.5,59,1.0,52.91,49,9,0,186.15938591742196,64,100,80
11365.5,59,1.0,52.91,1,0,0,224.78745849528698,64,100,80
11366.5,66,0.25,52.91,1,0,0,195.46735521329305,64,100,80
11366.75,63,0.5,52.91,1,0,0,195.46735521329305,64,100,80
11367.25,61,0.5,52.91,1,0,0,195.46735521329305,64,100,80
11367.75,64,1.0,52.91,50,9,0,195.46735521329305,64,100,80
11368.75,63,0.5,52.91,1,0,0,195.46735521329305,64,100,80
11369.25,63,0.5,52.91,49,9,0,236.02683142005134,64,100,80
11369.75,61,0.5,52.91,1,0,0,205.2407229739577,64,100,80
11370.25,64,1.0,52.91,1,0,0,205.2407229739577,64,100,80
11371.25,68,2.0,42.33,1,0,0,205.2407229739577,64,100,80
11373.25,70,2.0,42.33,1,0,0,205.2407229739577,64,100,80
11375.25,68,2.0,42.33,1,0,0,205.2407229739577,64,100,80
11377.25,59,1.0,42.33,1,0,0,205.2407229739577,64,100,80
11378.25,59,1.0,42.33,1,0,0,247.82817299105392,64,100,80
11379.25,68,2.0,42.33,1,0,0,215.50275912265562,64,100,80
11381.25,63,0.5,42.33,1,0,0,215.50275912265562,64,100,80
11381.75,59,1.0,42.33,1,0,0,215.50275912265562,64,100,80
11382.75,68,2.0,42.33,51,9,0,215.50275912265562,64,100,80
11384.75,64,1.0,42.33,50,9,0,215.50275912265562,64,100,80
11385.75,63,0.5,42.33,49,9,0,215.50275912265562,64,100,80
11386.25,61,0.5,42.33,1,0,0,215.50275912265562,64,100,80
11386.75,59,1.0,74.08,1,0,0,215.50275912265562,64,100,80
11387.75,61,0.5,74.08,1,0,0,215.50275912265562,64,100,80
11388.25,63,0.5,74.08,49,9,0,215.50275912265562,64,100,80
11388.75,64,1.0,74.08,1,0,0,215.50275912265562,64,100,80
11389.75,61,0.5,74.08,1,0,0,215.50275912265562,64,100,80
11390.25,59,1.0,74.08,1,0,0,215.50275912265562,64,100,80
11391.25,68,2.0,74.08,1,0,0,215.50275912265562,64,100,80
11393.25,66,0.25,74.08,49,9,0,215.50275912265562,64,100,80
11393.5,64,1.0,74.08,1,0,0,215.50275912265562,64,100,80
11394.5,64,1.0,74.08,1,0,0,215.50275912265562,64,100,80
11395.5,64,1.0,74.08,1,0,0,215.50275912265562,64,100,80
11396.5,64,1.0,74.08,1,0,0,260.21958164060663,64,100,80
11397.5,59,1.0,74.08,1,0,0,226.27789707878838,64,100,80
11398.5,61,0.5,74.08,1,0,0,226.27789707878838,64,100,80
11399.0,68,2.0,74.08,1,0,0,226.27789707878838,64,100,80
11401.0,59,1.0,74.08,1,0,0,226.27789707878838,64,100,80
11402.0,63,0.5,74.08,50,9,0,226.27789707878838,64,100,80
11402.5,59,1.0,74.08,1,0,0,226.27789707878838,64,100,80
11403.5,63,0.5,74.08,1,0,0,226.27789707878838,64,100,80
11404.0,68,2.0,74.08,1,0,0,226.27789707878838,64,100,80
11406.0,66,0.25,74.08,1,0,0,226.27789707878838,64,100,80
11406.25,64,1.0,74.08,49,9,0,226.27789707878838,64,100,80
11407.25,64,1.0,74.08,50,9,0,273.230560722637,64,100,80
11408.25,59,1.0,74.08,1,0,0,237.59179193272783,64,100,80
11409.25,64,1.0,52.91,1,0,0,237.59179193272783,64,100,80
11410.25,59,1.0,52.91,1,0,0,237.59179193272783,64,100,80
11411.25,66,0.25,52.91,49,9,0,237.59179193272783,64,100,80
11411.5,61,0.5,52.91,1,0,0,237.59179193272783,64,100,80
11412.0,66,0.25,52.91,1,0,0,237.59179193272783,64,100,80
11412.25,59,1.0,52.91,1,0,0,237.59179193272783,64,100,80
11413.25,68,2.0,52.91,1,0,0,237.59179193272783,64,100,80
11415.25,66,0.25,52.91,49,9,0,237.59179193272783,64,100,80
11415.5,61,0.5,52.91,1,0,0,237.59179193272783,64,100,80
11416.0,61,0.5,52.91,1,0,0,237.59179193272783,64,100,80
11416.5,68,2.0,52.91,49,9,0,237.59179193272783,64,100,80
11418.5,64,1.0,52.91,1,0,0,237.59179193272783,64,100,80
11419.5,68,2.0,105.83,1,0,0,237.59179193272783,64,100,80
11421.5,61,0.5,105.83,1,0,0,237.59179193272783,64,100,80
11422.0,70,2.0,105.83,1,0,0,237.59179193272783,64,100,80
11424.0,66,0.25,105.83,1,0,0,237.59179193272783,64,100,80
11424.25,61,0.5,105.83,1,0,0,237.59179193272783,64,100,80
11424.75,63,0.5,105.83,1,0,0,237.59179193272783,64,100,80
11425.25,64,1.0,105.83,1,0,0,237.59179193272783,64,100,80
11426.25,63,0.5,105.83,1,0,0,237.59179193272783,64,100,80
11426.75,66,0.25,105.83,49,9,0,237.59179193272783,64,100,80
11427.0,63,0.5,105.83,49,9,0,237.59179193272783,64,100,80
11427.5,61,0.5,105.83,1,0,0,237.59179193272783,64,100,80
11428.0,59,1.0,105.83,49,9,0,237.59179193272783,64,100,80
11429.0,59,1.0,63.5,1,0,0,286.89208875876886,64,100,80
11430.0,66,0.25,63.5,1,0,0,249.47138152936424,64,100,80
11430.25,68,2.0,63.5,1,0,0,249.47138152936424,64,100,80
11432.25,64,1.0,63.5,49,9,0,249.47138152936424,64,100,80
11433.25,61,0.5,63.5,1,0,0,249.47138152936424,64,100,80
11433.75,63,0.5,63.5,1,0,0,249.47138152936424,64,100,80
11434.25,64,1.0,63.5,1,0,0,249.47138152936424,64,100,80
11435.25,63,0.5,63.5,1,0,0,249.47138152936424,64,100,80
11435.75,63,0.5,63.5,1,0,0,249.47138152936424,64,100,80
11436.25,63,0.5,63.5,1,0,0,249.47138152936424,64,100,80
11436.75,66,0.25,63.5,1,0,0,249.47138152936424,64,100,80
11437.0,63,0.5,63.5,1,0,0,249.47138152936424,64,100,80
11437.5,59,1.0,74.08,1,0,0,249.47138152936424,64,100,80
11438.5,59,1.0,74.08,1,0,0,301.23669319670734,64,100,80
11439.5,63,0.5,74.08,1,0,0,261.9449506058325,64,100,80
11440.0,66,0.25,74.08,1,0,0,261.9449506058325,64,100,80
11440.25,68,2.0,74.08,49,9,0,261.9449506058325,64,100,80
11442.25,61,0.5,74.08,1,0,0,261.9449506058325,64,100,80
11442.75,66,0.25,74.08,1,0,0,261.9449506058325,64,100,80
11443.0,59,1.0,74.08,1,0,0,261.9449506058325,64,100,80
11444.0,63,0.5,74.08,1,0,0,261.9449506058325,64,100,80
11444.5,59,1.0,74.08,1,0,0,261.9449506058325,64,100,80
11445.5,59,1.0,74.08,1,0,0,261.9449506058325,64,100,80
11446.5,59,1.0,74.08,1,0,0,261.9449506058325,64,100,80
11447.5,61,0.5,84.66,1,0,0,261.9449506058325,64,100,80
11448.0,68,2.0,84.66,1,0,0,261.9449506058325,64,100,80
11450.0,59,1.0,84.66,1,0,0,261.9449506058325,64,100,80
11451.0,66,0.25,84.66,50,9,0,261.9449506058325,64,100,80
11451.25,64,1.0,84.66,49,9,0,261.9449506058325,64,100,80
11452.25,66,0.25,84.66,1,0,0,261.9449506058325,64,100,80
11452.5,61,0.5,84.66,1,0,0,261.9449506058325,64,100,80
11453.0,0,1.0,84.66,49,9,0,120.0,64,100,80
11454.0,65,1.0,84.66,1,0,0,120.0,64,100,80
11455.0,69,2.0,84.66,1,0,0,120.0,64,100,80
11457.0,71,2.0,84.66,1,0,0,120.0,64,100,80
11459.0,71,2.0,84.66,1,0,0,144.9,64,100,80
11461.0,64,0.5,52.91,50,9,0,126.0,64,100,80
11461.5,67,0.25,52.91,1,0,0,126.0,64,100,80
11461.75,62,0.5,52.91,1,0,0,126.0,64,100,80
11462.25,60,1.0,52.91,1,0,0,126.0,64,100,80
11463.25,62,0.5,52.91,1,0,0,126.0,64,100,80
11463.75,64,0.5,52.91,1,0,0,126.0,64,100,80
11464.25,64,0.5,52.91,1,0,0,152.14499999999998,64,100,80
11464.75,67,0.25,52.91,1,0,0,132.3,64,100,80
11465.0,65,1.0,52.91,1,0,0,132.3,64,100,80
11466.0,67,0.25,52.91,49,9,0,132.3,64,100,80
11466.25,62,0.5,52.91,1,0,0,132.3,64,100,80
11466.75,60,1.0,52.91,1,0,0,132.3,64,100,80
11467.75,64,0.5,31.75,1,0,0,132.3,64,100,80
11468.25,64,0.5,31.75,1,0,0,159.75225,64,100,80
11468.75,64,0.5,31.75,1,0,0,335.47972500000003,64,100,80
11469.25,62,0.5,31.75,1,0,0,145.86075000000002,64,100,80
11469.75,69,2.0,31.75,1,0,0,145.86075000000002,64,100,80
11471.75,64,0.5,31.75,49,9,0,145.86075000000002,64,100,80
11472.25,64,0.5,31.75,51,9,0,145.86075000000002,64,100,80
11472.75,64,1.0,31.75,49,9,0,145.86075000000002,64,100,80
11473.75,59,1.0,31.75,1,0,0,145.86075000000002,64,100,80
11474.75,0,1.0,31.75,49,9,0,120.0,64,100,80
11475.75,60,1.0,31.75,1,0,0,120.0,64,100,80
11476.75,64,0.5,31.75,1,0,0,120.0,64,100,80
11477.25,62,0.5,21.16,1,0,0,120.0,64,100,80
11477.75,60,1.0,21.16,1,0,0,120.0,64,100,80
11478.75,69,2.0,21.16,1,0,0,120.0,64,100,80
11480.75,62,0.5,21.16,51,9,0,120.0,64,100,80
11481.25,67,0.25,21.16,49,9,0,120.0,64,100,80
11481.5,65,1.0,21.16,1,0,0,120.0,64,100,80
11482.5,69,2.0,21.16,1,0,0,120.0,64,100,80
11484.5,60,1.0,21.16,50,9,0,120.0,64,100,80
11485.5,62,0.5,21.16,49,9,0,120.0,64,100,80
11486.0,62,0.5,21.16,1,0,0,120.0,64,100,80
11486.5,65,1.0,21.16,1,0,0,120.0,64,100,80
11487.5,64,0.5,21.16,1,0,0,120.0,64,100,80
11488.0,0,1.0,21.16,49,9,0,120.0,64,100,80
11489.0,69,2.0,21.16,1,0,0,120.0,64,100,80
11491.0,65,1.0,21.16,1,0,0,120.0,64,100,80
11492.0,71,2.0,21.16,1,0,0,120.0,64,100,80
11494.0,71,2.0,21.16,51,9,0,120.0,64,100,80
11496.0,67,0.25,21.16,1,0,0,120.0,64,100,80
11496.25,64,0.5,21.16,1,0,0,120.0,64,100,80
11496.75,67,0.25,21.16,1,0,0,120.0,64,100,80
11497.0,62,0.5,21.16,1,0,0,120.0,64,100,80
11497.5,62,0.5,21.16,1,0,0,120.0,64,100,80
11498.0,69,2.0,21.16,1,0,0,120.0,64,100,80
11500.0,69,2.0,21.16,1,0,0,120.0,64,100,80
11502.0,69,2.0,31.75,1,0,0,120.0,64,100,80
11504.0,65,1.0,31.75,1,0,0,120.0,64,100,80
11505.0,69,2.0,31.75,1,0,0,120.0,64,100,80
11507.0,69,2.0,31.75,1,0,0,120.0,64,100,80
11509.0,67,0.25,31.75,1,0,0,120.0,64,100,80
11509.25,67,0.25,31.75,1,0,0,144.9,64,100,80
11509.5,69,2.0,31.75,1,0,0,126.0,64,100,80
11511.5,60,1.0,31.75,1,0,0,126.0,64,100,80
11512.5,64,0.5,31.75,1,0,0,126.0,64,100,80
11513.0,65,1.0,31.75,1,0,0,126.0,64,100,80
11514.0,64,0.5,31.75,1,0,0,126.0,64,100,80
11514.5,65,1.0,31.75,1,0,0,126.0,64,100,80
11515.5,60,1.0,42.33,1,0,0,126.0,64,100,80
11516.5,60,1.0,42.33,50,9,0,126.0,64,100,80
11517.5,0,1.0,42.33,49,9,0,120.0,64,100,80
11518.5,69,2.0,42.33,1,0,0,120.0,64,100,80
11520.5,60,1.0,42.33,1,0,0,120.0,64,100,80
11521.5,69,2.0,42.33,1,0,0,120.0,64,100,80
11523.5,62,0.5,42.33,1,0,0,120.0,64,100,80
11524.0,60,1.0,42.33,50,9,0,120.0,64,100,80
11525.0,62,0.5,42.33,1,0,0,120.0,64,100,80
11525.5,60,1.0,42.33,1,0,0,120.0,64,100,80
11526.5,60,1.0,42.33,1,0,0,144.9,64,100,80
11527.5,67,0.25,42.33,1,0,0,126.0,64,100,80
11527.75,62,0.5,42.33,1,0,0,126.0,64,100,80
11528.25,60,1.0,42.33,1,0,0,126.0,64,100,80
11529.25,67,0.25,42.33,1,0,0,126.0,64,100,80
11529.5,0,1.0,42.33,49,9,0,120.0,64,100,80
11530.5,60,1.0,42.33,1,0,0,120.0,64,100,80
11531.5,65,1.0,42.33,49,9,0,120.0,64,100,80
11532.5,64,0.5,42.33,1,0,0,120.0,64,100,80
11533.0,62,0.5,42.33,1,0,0,120.0,64,100,80
11533.5,64,0.5,42.33,1,0,0,120.0,64,100,80
11534.0,64,0.5,42.33,1,0,0,144.9,64,100,80
11534.5,60,1.0,42.33,1,0,0,126.0,64,100,80
11535.5,0,1.0,42.33,49,9,0,120.0,64,100,80
11536.5,67,0.25,52.91,1,0,0,120.0,64,100,80
11536.75,64,0.5,52.91,1,0,0,120.0,64,100,80
11537.25,64,0.5,52.91,1,0,0,120.0,64,100,80
11537.75,67,0.25,52.91,1,0,0,120.0,64,100,80
11538.0,60,1.0,52.91,1,0,0,120.0,64,100,80
11539.0,60,1.0,52.91,1,0,0,120.0,64,100,80
11540.0,71,2.0,52.91,1,0,0,120.0,64,100,80
11542.0,60,1.0,52.91,1,0,0,120.0,64,100,80
11543.0,60,1.0,52.91,1,0,0,120.0,64,100,80
11544.0,69,2.0,52.91,1,0,0,120.0,64,100,80
11546.0,69,2.0,52.91,1,0,0,144.9,64,100,80
11548.0,62,0.5,52.91,1,0,0,126.0,64,100,80
11548.5,60,1.0,84.66,1,0,0,126.0,64,100,80
11549.5,62,0.5,84.66,1,0,0,126.0,64,100,80
11550.0,64,0.5,84.66,1,0,0,126.0,64,100,80
11550.5,60,1.0,84.66,51,9,0,126.0,64,100,80
11551.5,60,1.0,84.66,1,0,0,126.0,64,100,80
11552.5,0,1.0,84.66,49,9,0,120.0,64,100,80
11553.5,60,1.0,84.66,1,0,0,120.0,64,100,80
11554.5,64,1.0,84.66,50,9,0,120.0,64,100,80
11555.5,61,0.5,84.66,1,0,0,120.0,64,100,80
11556.0,64,1.0,84.66,1,0,0,120.0,64,100,80
11557.0,61,0.5,84.66,1,0,0,120.0,64,100,80
11557.5,64,1.0,84.66,49,9,0,120.0,64,100,80
11558.5,64,1.0,52.91,50,9,0,120.0,64,100,80
11559.5,61,0.5,52.91,1,0,0,120.0,64,100,80
11560.0,66,0.25,52.91,50,9,0,120.0,64,100,80
11560.25,59,1.0,52.91,1,0,0,120.0,64,100,80
11561.25,64,1.0,52.91,1,0,0,120.0,64,100,80
11562.25,68,2.0,52.91,1,0,0,120.0,64,100,80
11564.25,68,2.0,52.91,1,0,0,144.9,64,100,80
11566.25,66,0.25,52.91,1,0,0,126.0,64,100,80
11566.5,61,0.5,52.91,1,0,0,126.0,64,100,80
11567.0,64,1.0,52.91,49,9,0,126.0,64,100,80
11568.0,64,1.0,52.91,50,9,0,152.14499999999998,64,100,80
11569.0,0,1.0,52.91,49,9,0,120.0,64,100,80
11570.0,62,0.5,74.08,1,0,0,120.0,64,100,80
11570.5,65,1.0,74.08,1,0,0,120.0,64,100,80
11571.5,60,1.0,74.08,1,0,0,120.0,64,100,80
11572.5,0,1.0,74.08,49,9,0,120.0,64,100,80
11573.5,60,1.0,74.08,1,0,0,120.0,64,100,80
11574.5,69,2.0,74.08,1,0,0,120.0,64,100,80
11576.5,62,0.5,74.08,1,0,0,120.0,64,100,80
11577.0,60,1.0,74.08,1,0,0,120.0,64,100,80
11578.0,60,1.0,74.08,1,0,0,120.0,64,100,80
11579.0,64,0.5,74.08,1,0,0,120.0,64,100,80
11579.5,62,0.5,74.08,1,0,0,120.0,64,100,80
11580.0,60,1.0,74.08,1,0,0,120.0,64,100,80
11581.0,69,2.0,63.5,1,0,0,120.0,64,100,80
11583.0,69,2.0,63.5,1,0,0,144.9,64,100,80
11585.0,65,1.0,63.5,49,9,0,126.0,64,100,80
11586.0,65,1.0,63.5,1,0,0,152.14499999999998,64,100,80
11587.0,62,0.5,63.5,1,0,0,132.3,64,100,80
11587.5,64,1.0,63.5,50,9,0,132.3,64,100,80
11588.5,59,1.0,63.5,1,0,0,132.3,64,100,80
11589.5,68,2.0,63.5,1,0,0,132.3,64,100,80
11591.5,59,1.0,63.5,1,0,0,132.3,64,100,80
11592.5,61,0.5,63.5,1,0,0,132.3,64,100,80
11593.0,59,1.0,63.5,1,0,0,132.3,64,100,80
11594.0,61,0.5,63.5,1,0,0,132.3,64,100,80
11594.5,61,0.5,74.08,1,0,0,159.75225,64,100,80
11595.0,61,0.5,74.08,51,9,0,335.47972500000003,64,100,80
11595.5,59,1.0,74.08,50,9,0,145.86075000000002,64,100,80
11596.5,66,0.25,74.08,1,0,0,145.86075000000002,64,100,80
11596.75,63,0.5,74.08,1,0,0,145.86075000000002,64,100,80
11597.25,61,0.5,74.08,1,0,0,145.86075000000002,64,100,80
11597.75,63,0.5,74.08,50,9,0,145.86075000000002,64,100,80
11598.25,66,0.25,74.08,1,0,0,145.86075000000002,64,100,80
11598.5,59,1.0,74.08,1,0,0,145.86075000000002,64,100,80
11599.5,59,1.0,74.08,1,0,0,176.12685562500005,64,100,80
11600.5,61,0.5,74.08,1,0,0,153.15378750000005,64,100,80
11601.0,61,0.5,74.08,1,0,0,153.15378750000005,64,100,80
11601.5,61,0.5,95.25,1,0,0,153.15378750000005,64,100,80
11602.0,59,1.0,95.25,1,0,0,153.15378750000005,64,100,80
11603.0,63,0.5,95.25,1,0,0,153.15378750000005,64,100,80
11603.5,59,1.0,95.25,1,0,0,153.15378750000005,64,100,80
11604.5,63,0.5,95.25,1,0,0,153.15378750000005,64,100,80
11605.0,59,1.0,95.25,1,0,0,153.15378750000005,64,100,80
11606.0,66,0.25,95.25,1,0,0,153.15378750000005,64,100,80
11606.25,63,0.5,95.25,1,0,0,153.15378750000005,64,100,80
11606.75,59,1.0,95.25,50,9,0,153.15378750000005,64,100,80
11607.75,61,0.5,95.25,1,0,0,153.15378750000005,64,100,80
11608.25,61,0.5,95.25,1,0,0,153.15378750000005,64,100,80
11608.75,59,1.0,95.25,1,0,0,153.15378750000005,64,100,80
11609.75,64,1.0,52.91,49,9,0,153.15378750000005,64,100,80
11610.75,59,1.0,52.91,1,0,0,153.15378750000005,64,100,80
11611.75,64,1.0,52.91,49,9,0,153.15378750000005,64,100,80
11612.75,61,0.5,52.91,1,0,0,153.15378750000005,64,100,80
11613.25,59,1.0,52.91,1,0,0,153.15378750000005,64,100,80
11614.25,59,1.0,52.91,1,0,0,184.93319840625003,64,100,80
11615.25,68,2.0,52.91,1,0,0,160.81147687500004,64,100,80
11617.25,63,0.5,52.91,1,0,0,160.81147687500004,64,100,80
11617.75,64,1.0,52.91,50,9,0,160.81147687500004,64,100,80
11618.75,61,0.5,52.91,1,0,0,160.81147687500004,64,100,80
11619.25,61,0.5,52.91,1,0,0,160.81147687500004,64,100,80
11619.75,68,2.0,52.91,1,0,0,160.81147687500004,64,100,80
11621.75,70,2.0,74.08,1,0,0,160.81147687500004,64,100,80
11623.75,61,0.5,74.08,1,0,0,160.81147687500004,64,100,80
11624.25,68,2.0,74.08,1,0,0,160.81147687500004,64,100,80
11626.25,68,2.0,74.08,1,0,0,160.81147687500004,64,100,80
11628.25,59,1.0,74.08,1,0,0,160.81147687500004,64,100,80
11629.25,61,0.5,74.08,1,0,0,160.81147687500004,64,100,80
11629.75,61,0.5,74.08,1,0,0,160.81147687500004,64,100,80
11630.25,59,1.0,74.08,1,0,0,160.81147687500004,64,100,80
11631.25,63,0.5,74.08,1,0,0,160.81147687500004,64,100,80
11631.75,59,1.0,74.08,1,0,0,160.81147687500004,64,100,80
11632.75,70,2.0,74.08,1,0,0,160.81147687500004,64,100,80
11634.75,63,0.5,74.08,1,0,0,160.81147687500004,64,100,80
11635.25,64,1.0,74.08,1,0,0,160.81147687500004,64,100,80
11636.25,63,0.5,74.08,1,0,0,160.81147687500004,64,100,80
11636.75,59,1.0,74.08,1,0,0,160.81147687500004,64,100,80
11637.75,68,2.0,74.08,50,9,0,160.81147687500004,64,100,80
11639.75,0,1.0,74.08,49,9,0,120.0,64,100,80
11640.75,62,0.5,74.08,1,0,0,120.0,64,100,80
11641.25,60,1.0,74.08,1,0,0,120.0,64,100,80
11642.25,69,2.0,74.08,1,0,0,120.0,64,100,80
11644.25,69,2.0,74.08,1,0,0,120.0,64,100,80
11646.25,62,0.5,74.08,1,0,0,120.0,64,100,80
11646.75,67,0.25,74.08,49,9,0,120.0,64,100,80
11647.0,64,0.5,74.08,50,9,0,120.0,64,100,80
11647.5,60,1.0,84.66,1,0,0,120.0,64,100,80
11648.5,64,0.5,84.66,49,9,0,120.0,64,100,80
11649.0,65,1.0,84.66,1,0,0,120.0,64,100,80
11650.0,60,1.0,84.66,1,0,0,120.0,64,100,80
11651.0,64,0.5,84.66,50,9,0,120.0,64,100,80
11651.5,0,1.0,84.66,49,9,0,120.0,64,100,80
11652.5,62,0.5,84.66,1,0,0,120.0,64,100,80
11653.0,60,1.0,84.66,1,0,0,120.0,64,100,80
11654.0,62,0.5,84.66,1,0,0,120.0,64,100,80
11654.5,65,1.0,84.66,49,9,0,120.0,64,100,80
11655.5,62,0.5,84.66,1,0,0,120.0,64,100,80
11656.0,60,1.0,84.66,1,0,0,120.0,64,100,80
11657.0,64,0.5,74.08,49,9,0,120.0,64,100,80
11657.5,64,0.5,74.08,1,0,0,120.0,64,100,80
11658.0,69,2.0,74.08,1,0,0,120.0,64,100,80
11660.0,60,1.0,74.08,1,0,0,120.0,64,100,80
11661.0,60,1.0,74.08,1,0,0,144.9,64,100,80
11662.0,64,0.5,74.08,49,9,0,126.0,64,100,80
11662.5,67,0.25,74.08,1,0,0,126.0,64,100,80
11662.75,60,1.0,74.08,1,0,0,126.0,64,100,80
11663.75,64,0.5,74.08,1,0,0,126.0,64,100,80
11664.25,60,1.0,74.08,1,0,0,126.0,64,100,80
11665.25,0,1.0,74.08,49,9,0,120.0,64,100,80
11666.25,60,1.0,74.08,1,0,0,120.0,64,100,80
11667.25,60,1.0,63.5,1,0,0,144.9,64,100,80
11668.25,62,0.5,63.5,1,0,0,126.0,64,100,80
11668.75,67,0.25,63.5,1,0,0,126.0,64,100,80
11669.0,67,0.25,63.5,1,0,0,152.14499999999998,64,100,80
11669.25,60,1.0,63.5,1,0,0,132.3,64,100,80
11670.25,60,1.0,63.5,1,0,0,132.3,64,100,80
11671.25,71,2.0,63.5,1,0,0,132.3,64,100,80
11673.25,64,0.5,63.5,39,9,0,132.3,64,100,80
11673.75,60,1.0,63.5,39,9,0,132.3,64,100,80
11674.75,60,1.0,63.5,1,0,0,132.3,64,100,80
11675.75,62,0.5,63.5,1,0,0,132.3,64,100,80
11676.25,60,1.0,63.5,1,0,0,132.3,64,100,80
11677.25,65,1.0,95.25,1,0,0,132.3,64,100,80
11678.25,60,1.0,95.25,1,0,0,132.3,64,100,80
11679.25,69,2.0,95.25,1,0,0,132.3,64,100,80
11681.25,69,2.0,95.25,49,9,0,132.3,64,100,80
11683.25,64,0.5,95.25,1,0,0,132.3,64,100,80
11683.75,71,2.0,95.25,1,0,0,132.3,64,100,80
11685.75,67,0.25,95.25,1,0,0,132.3,64,100,80
11686.0,62,0.5,95.25,1,0,0,132.3,64,100,80
11686.5,69,2.0,95.25,1,0,0,132.3,64,100,80
11688.5,67,0.25,95.25,1,0,0,132.3,64,100,80
11688.75,65,1.0,95.25,1,0,0,132.3,64,100,80
11689.75,60,1.0,95.25,1,0,0,132.3,64,100,80
11690.75,0,1.0,63.5,49,9,0,120.0,64,100,80
11691.75,60,1.0,63.5,1,0,0,120.0,64,100,80
11692.75,60,1.0,63.5,1,0,0,144.9,64,100,80
11693.75,62,0.5,63.5,1,0,0,126.0,64,100,80
11694.25,62,0.5,63.5,1,0,0,152.14499999999998,64,100,80
11694.75,64,0.5,63.5,49,9,0,132.3,64,100,80
11695.25,64,0.5,63.5,1,0,0,132.3,64,100,80
11695.75,69,2.0,63.5,1,0,0,132.3,64,100,80
11697.75,64,0.5,63.5,1,0,0,132.3,64,100,80
11698.25,0,1.0,63.5,49,9,0,120.0,64,100,80
11699.25,60,1.0,63.5,1,0,0,120.0,64,100,80
11700.25,62,0.5,63.5,1,0,0,120.0,64,100,80
11700.75,60,1.0,63.5,1,0,0,120.0,64,100,80
11701.75,69,2.0,63.5,1,0,0,120.0,64,100,80
11703.75,64,0.5,63.5,1,0,0,120.0,64,100,80
11704.25,60,1.0,63.5,1,0,0,120.0,64,100,80
11705.25,60,1.0,63.5,1,0,0,120.0,64,100,80
11706.25,60,1.0,63.5,1,0,0,120.0,64,100,80
11707.25,69,2.0,63.5,1,0,0,120.0,64,100,80
11709.25,64,0.5,63.5,1,0,0,120.0,64,100,80
11709.75,60,1.0,63.5,1,0,0,120.0,64,100,80
11710.75,64,0.5,63.5,1,0,0,120.0,64,100,80
11711.25,62,0.5,63.5,1,0,0,120.0,64,100,80
11711.75,67,0.25,63.5,49,9,0,120.0,64,100,80
11712.0,60,1.0,84.66,40,9,0,120.0,64,100,80
11713.0,64,0.5,84.66,1,0,0,120.0,64,100,80
11713.5,69,2.0,84.66,49,9,0,120.0,64,100,80
11715.5,60,1.0,84.66,1,0,0,120.0,64,100,80
11716.5,60,1.0,84.66,1,0,0,120.0,64,100,80
11717.5,65,1.0,84.66,1,0,0,120.0,64,100,80
11718.5,69,2.0,84.66,1,0,0,120.0,64,100,80
11720.5,60,1.0,84.66,1,0,0,120.0,64,100,80
11721.5,69,2.0,84.66,1,0,0,120.0,64,100,80
11723.5,69,2.0,84.66,1,0,0,144.9,64,100,80
11725.5,69,2.0,84.66,1,0,0,304.28999999999996,64,100,80
11727.5,60,1.0,84.66,1,0,0,132.3,64,100,80
11728.5,62,0.5,105.83,1,0,0,132.3,64,100,80
11729.0,62,0.5,105.83,1,0,0,132.3,64,100,80
11729.5,64,1.0,105.83,50,9,0,132.3,64,100,80
11730.5,59,1.0,105.83,1,0,0,132.3,64,100,80
11731.5,68,2.0,105.83,1,0,0,132.3,64,100,80
11733.5,0,1.0,105.83,49,9,0,120.0,64,100,80
11734.5,71,2.0,105.83,50,9,0,120.0,64,100,80
11736.5,60,1.0,105.83,1,0,0,120.0,64,100,80
11737.5,64,0.5,105.83,1,0,0,120.0,64,100,80
11738.0,60,1.0,105.83,1,0,0,120.0,64,100,80
11739.0,60,1.0,105.83,1,0,0,120.0,64,100,80
11740.0,60,1.0,105.83,1,0,0,120.0,64,100,80
11741.0,60,1.0,42.33,1,0,0,144.9,64,100,80
11742.0,60,1.0,42.33,1,0,0,304.28999999999996,64,100,80
11743.0,71,2.0,42.33,1,0,0,132.3,64,100,80
11745.0,60,1.0,42.33,50,9,0,132.3,64,100,80
11746.0,62,0.5,42.33,1,0,0,132.3,64,100,80
11746.5,62,0.5,42.33,1,0,0,132.3,64,100,80
11747.0,65,1.0,42.33,49,9,0,132.3,64,100,80
11748.0,62,0.5,42.33,1,0,0,132.3,64,100,80
11748.5,69,2.0,42.33,1,0,0,132.3,64,100,80
11750.5,64,0.5,42.33,49,9,0,132.3,64,100,80
11751.0,62,0.5,42.33,1,0,0,132.3,64,100,80
11751.5,71,2.0,42.33,1,0,0,132.3,64,100,80
11753.5,62,0.5,63.5,1,0,0,132.3,64,100,80
11754.0,62,0.5,63.5,1,0,0,132.3,64,100,80
11754.5,60,1.0,63.5,1,0,0,132.3,64,100,80
11755.5,67,0.25,63.5,1,0,0,132.3,64,100,80
11755.75,64,0.5,63.5,56,9,0,132.3,64,100,80
11756.25,0,1.0,63.5,49,9,0,120.0,64,100,80
11757.25,62,0.5,63.5,1,0,0,120.0,64,100,80
11757.75,62,0.5,63.5,1,0,0,120.0,64,100,80
11758.25,69,2.0,63.5,1,0,0,120.0,64,100,80
11760.25,64,0.5,63.5,1,0,0,120.0,64,100,80
11760.75,64,0.5,63.5,49,9,0,120.0,64,100,80
11761.25,60,1.0,63.5,1,0,0,120.0,64,100,80
11762.25,62,0.5,42.33,1,0,0,120.0,64,100,80
11762.75,71,2.0,42.33,50,9,0,120.0,64,100,80
11764.75,60,1.0,42.33,1,0,0,120.0,64,100,80
11765.75,64,0.5,42.33,1,0,0,120.0,64,100,80
11766.25,64,0.5,42.33,1,0,0,120.0,64,100,80
11766.75,0,1.0,42.33,49,9,0,120.0,64,100,80
11767.75,60,1.0,42.33,1,0,0,120.0,64,100,80
11768.75,60,1.0,42.33,1,0,0,120.0,64,100,80
11769.75,62,0.5,42.33,1,0,0,120.0,64,100,80
11770.25,60,1.0,42.33,1,0,0,120.0,64,100,80
11771.25,60,1.0,42.33,1,0,0,120.0,64,100,80
11772.25,64,0.5,42.33,1,0,0,120.0,64,100,80
11772.75,62,0.5,52.91,1,0,0,120.0,64,100,80
11773.25,64,0.5,52.91,1,0,0,120.0,64,100,80
11773.75,60,1.0,52.91,1,0,0,120.0,64,100,80
11774.75,67,0.25,52.91,1,0,0,120.0,64,100,80
11775.0,0,1.0,52.91,49,9,0,120.0,64,100,80
11776.0,60,1.0,52.91,1,0,0,120.0,64,100,80
11777.0,60,1.0,52.91,1,0,0,120.0,64,100,80
11778.0,60,1.0,52.91,1,0,0,144.9,64,100,80
11779.0,71,2.0,52.91,1,0,0,126.0,64,100,80
11781.0,60,1.0,52.91,1,0,0,126.0,64,100,80
11782.0,64,0.5,52.91,1,0,0,126.0,64,100,80
11782.5,60,1.0,52.91,1,0,0,126.0,64,100,80
11783.5,62,0.5,74.08,1,0,0,126.0,64,100,80
11784.0,69,2.0,74.08,1,0,0,126.0,64,100,80
11786.0,62,0.5,74.08,1,0,0,126.0,64,100,80
11786.5,69,2.0,74.08,1,0,0,126.0,64,100,80
11788.5,64,0.5,74.08,50,9,0,126.0,64,100,80
11789.0,60,1.0,74.08,1,0,0,126.0,64,100,80
11790.0,60,1.0,74.08,1,0,0,152.14499999999998,64,100,80
11791.0,69,2.0,74.08,51,9,0,132.3,64,100,80
11793.0,67,0.25,74.08,1,0,0,132.3,64,100,80
11793.25,67,0.25,74.08,1,0,0,132.3,64,100,80
11793.5,60,1.0,74.08,1,0,0,132.3,64,100,80
11794.5,60,1.0,74.08,1,0,0,159.75225,64,100,80
11795.5,62,0.5,84.66,1,0,0,138.91500000000002,64,100,80
11796.0,0,1.0,84.66,49,9,0,120.0,64,100,80
11797.0,60,1.0,84.66,1,0,0,120.0,64,100,80
11798.0,0,1.0,84.66,49,9,0,120.0,64,100,80
11799.0,60,1.0,84.66,1,0,0,120.0,64,100,80
11800.0,60,1.0,84.66,1,0,0,120.0,64,100,80
11801.0,64,0.5,84.66,49,9,0,120.0,64,100,80
11801.5,62,0.5,84.66,1,0,0,120.0,64,100,80
11802.0,69,2.0,84.66,1,0,0,120.0,64,100,80
11804.0,71,2.0,84.66,1,0,0,120.0,64,100,80
11806.0,64,0.5,84.66,1,0,0,120.0,64,100,80
11806.5,60,1.0,84.66,1,0,0,120.0,64,100,80
11807.5,67,0.25,74.08,1,0,0,120.0,64,100,80
11807.75,60,1.0,74.08,1,0,0,120.0,64,100,80
11808.75,64,0.5,74.08,1,0,0,120.0,64,100,80
11809.25,60,1.0,74.08,1,0,0,120.0,64,100,80
11810.25,0,1.0,74.08,49,9,0,120.0,64,100,80
11811.25,62,0.5,74.08,1,0,0,120.0,64,100,80
11811.75,60,1.0,74.08,1,0,0,120.0,64,100,80
11812.75,60,1.0,74.08,1,0,0,120.0,64,100,80
11813.75,60,1.0,74.08,1,0,0,120.0,64,100,80
11814.75,60,1.0,74.08,1,0,0,120.0,64,100,80
11815.75,62,0.5,74.08,1,0,0,120.0,64,100,80
11816.25,62,0.5,74.08,1,0,0,144.9,64,100,80
11816.75,60,1.0,52.91,1,0,0,126.0,64,100,80
11817.75,71,2.0,52.91,1,0,0,126.0,64,100,80
11819.75,60,1.0,52.91,1,0,0,126.0,64,100,80
11820.75,62,0.5,52.91,1,0,0,126.0,64,100,80
11821.25,64,0.5,52.91,1,0,0,126.0,64,100,80
11821.75,62,0.5,52.91,1,0,0,126.0,64,100,80
11822.25,0,1.0,52.91,49,9,0,120.0,64,100,80
11823.25,62,0.5,52.91,1,0,0,120.0,64,100,80
11823.75,69,2.0,52.91,1,0,0,120.0,64,100,80
11825.75,69,2.0,52.91,1,0,0,144.9,64,100,80
11827.75,60,1.0,52.91,1,0,0,126.0,64,100,80
11828.75,69,2.0,52.91,1,0,0,126.0,64,100,80
11830.75,65,1.0,52.91,1,0,0,126.0,64,100,80
11831.75,64,0.5,52.91,1,0,0,126.0,64,100,80
11832.25,60,1.0,52.91,1,0,0,126.0,64,100,80
11833.25,60,1.0,52.91,49,9,0,126.0,64,100,80
11834.25,65,1.0,52.91,1,0,0,126.0,64,100,80
11835.25,71,2.0,52.91,51,9,0,126.0,64,100,80
11837.25,62,0.5,52.91,1,0,0,126.0,64,100,80
11837.75,69,2.0,52.91,1,0,0,126.0,64,100,80
11839.75,67,0.25,52.91,1,0,0,126.0,64,100,80
11840.0,69,2.0,52.91,1,0,0,126.0,64,100,80
11842.0,64,0.5,52.91,1,0,0,126.0,64,100,80
11842.5,62,0.5,52.91,1,0,0,126.0,64,100,80
11843.0,64,0.5,52.91,1,0,0,126.0,64,100,80
11843.5,67,0.25,52.91,1,0,0,126.0,64,100,80
11843.75,60,1.0,52.91,1,0,0,126.0,64,100,80
11844.75,64,0.5,52.91,49,9,0,126.0,64,100,80
11845.25,62,0.5,52.91,1,0,0,126.0,64,100,80
11845.75,71,2.0,52.91,1,0,0,126.0,64,100,80
11847.75,60,1.0,52.91,1,0,0,126.0,64,100,80
11848.75,60,1.0,52.91,51,9,0,126.0,64,100,80
11849.75,64,1.0,52.91,50,9,0,126.0,64,100,80
11850.75,63,0.5,52.91,1,0,0,126.0,64,100,80
11851.25,64,1.0,52.91,1,0,0,126.0,64,100,80
11852.25,68,2.0,52.91,1,0,0,126.0,64,100,80
11854.25,61,0.5,42.33,1,0,0,126.0,64,100,80
11854.75,68,2.0,42.33,1,0,0,126.0,64,100,80
11856.75,70,2.0,42.33,1,0,0,126.0,64,100,80
11858.75,63,0.5,42.33,1,0,0,126.0,64,100,80
11859.25,63,0.5,42.33,1,0,0,152.14499999999998,64,100,80
11859.75,68,2.0,42.33,1,0,0,132.3,64,100,80
11861.75,61,0.5,42.33,1,0,0,132.3,64,100,80
11862.25,63,0.5,42.33,1,0,0,132.3,64,100,80
11862.75,59,1.0,42.33,1,0,0,132.3,64,100,80
11863.75,70,2.0,42.33,1,0,0,132.3,64,100,80
11865.75,70,2.0,42.33,1,0,0,132.3,64,100,80
11867.75,61,0.5,42.33,1,0,0,132.3,64,100,80
11868.25,68,2.0,42.33,1,0,0,132.3,64,100,80
11870.25,66,0.25,42.33,1,0,0,132.3,64,100,80
11870.5,68,2.0,42.33,1,0,0,132.3,64,100,80
11872.5,59,1.0,42.33,1,0,0,132.3,64,100,80
11873.5,61,0.5,42.33,49,9,0,132.3,64,100,80
11874.0,64,1.0,42.33,1,0,0,132.3,64,100,80
11875.0,59,1.0,42.33,1,0,0,132.3,64,100,80
11876.0,59,1.0,42.33,1,0,0,159.75225,64,100,80
11877.0,63,0.5,42.33,1,0,0,138.91500000000002,64,100,80
11877.5,66,0.25,42.33,1,0,0,138.91500000000002,64,100,80
11877.75,59,1.0,42.33,1,0,0,138.91500000000002,64,100,80
11878.75,63,0.5,42.33,1,0,0,138.91500000000002,64,100,80
11879.25,68,2.0,84.66,1,0,0,138.91500000000002,64,100,80
11881.25,64,1.0,84.66,49,9,0,138.91500000000002,64,100,80
11882.25,63,0.5,84.66,1,0,0,138.91500000000002,64,100,80
11882.75,70,2.0,84.66,1,0,0,138.91500000000002,64,100,80
11884.75,70,2.0,84.66,1,0,0,167.73986250000002,64,100,80
11886.75,70,2.0,84.66,56,9,0,145.86075000000002,64,100,80
11888.75,59,1.0,84.66,49,9,0,145.86075000000002,64,100,80
11889.75,66,0.25,84.66,1,0,0,145.86075000000002,64,100,80
11890.0,63,0.5,84.66,1,0,0,145.86075000000002,64,100,80
11890.5,63,0.5,84.66,49,9,0,176.12685562500005,64,100,80
11891.0,59,1.0,84.66,1,0,0,153.15378750000005,64,100,80
11892.0,64,1.0,84.66,1,0,0,153.15378750000005,64,100,80
11893.0,68,2.0,52.91,49,9,0,153.15378750000005,64,100,80
11895.0,64,1.0,52.91,1,0,0,153.15378750000005,64,100,80
11896.0,68,2.0,52.91,1,0,0,153.15378750000005,64,100,80
11898.0,64,1.0,52.91,49,9,0,153.15378750000005,64,100,80
11899.0,64,1.0,52.91,49,9,0,184.93319840625003,64,100,80
11900.0,66,0.25,52.91,1,0,0,160.81147687500004,64,100,80
11900.25,70,2.0,52.91,1,0,0,160.81147687500004,64,100,80
11902.25,61,0.5,52.91,1,0,0,160.81147687500004,64,100,80
11902.75,70,2.0,52.91,1,0,0,160.81147687500004,64,100,80
11904.75,68,2.0,52.91,1,0,0,160.81147687500004,64,100,80
11906.75,63,0.5,52.91,1,0,0,160.81147687500004,64,100,80
11907.25,63,0.5,52.91,1,0,0,194.17985832656254,64,100,80
11907.75,63,0.5,63.5,1,0,0,168.85205071875006,64,100,80
11908.25,59,1.0,63.5,1,0,0,168.85205071875006,64,100,80
11909.25,59,1.0,63.5,1,0,0,203.8888512428907,64,100,80
11910.25,68,2.0,63.5,1,0,0,177.29465325468757,64,100,80
11912.25,66,0.25,63.5,1,0,0,177.29465325468757,64,100,80
11912.5,70,2.0,63.5,1,0,0,177.29465325468757,64,100,80
11914.5,59,1.0,63.5,1,0,0,177.29465325468757,64,100,80
11915.5,59,1.0,63.5,49,9,0,177.29465325468757,64,100,80
11916.5,59,1.0,63.5,1,0,0,177.29465325468757,64,100,80
11917.5,70,2.0,63.5,1,0,0,177.29465325468757,64,100,80
11919.5,63,0.5,63.5,1,0,0,177.29465325468757,64,100,80
11920.0,59,1.0,63.5,40,9,0,177.29465325468757,64,100,80
11921.0,66,0.25,52.91,1,0,0,177.29465325468757,64,100,80
11921.25,61,0.5,52.91,1,0,0,177.29465325468757,64,100,80
11921.75,63,0.5,52.91,1,0,0,177.29465325468757,64,100,80
11922.25,63,0.5,52.91,1,0,0,214.08329380503523,64,100,80
11922.75,63,0.5,52.91,1,0,0,449.57491699057397,64,100,80
11923.25,66,0.25,52.91,49,9,0,195.46735521329305,64,100,80
11923.5,63,0.5,52.91,49,9,0,195.46735521329305,64,100,80
11924.0,63,0.5,52.91,50,9,0,236.02683142005134,64,100,80
11924.5,64,1.0,52.91,1,0,0,205.2407229739577,64,100,80
11925.5,59,1.0,52.91,1,0,0,205.2407229739577,64,100,80
11926.5,68,2.0,52.91,1,0,0,205.2407229739577,64,100,80
11928.5,63,0.5,52.91,1,0,0,205.2407229739577,64,100,80
11929.0,59,1.0,63.5,1,0,0,205.2407229739577,64,100,80
11930.0,66,0.25,63.5,1,0,0,205.2407229739577,64,100,80
11930.25,61,0.5,63.5,1,0,0,205.2407229739577,64,100,80
11930.75,59,1.0,63.5,1,0,0,205.2407229739577,64,100,80
11931.75,61,0.5,63.5,1,0,0,205.2407229739577,64,100,80
11932.25,63,0.5,63.5,1,0,0,205.2407229739577,64,100,80
11932.75,66,0.25,63.5,1,0,0,205.2407229739577,64,100,80
11933.0,0,1.0,63.5,49,9,0,120.0,64,100,80
11934.0,60,1.0,63.5,1,0,0,120.0,64,100,80
11935.0,69,2.0,63.5,1,0,0,120.0,64,100,80
11937.0,65,1.0,63.5,1,0,0,120.0,64,100,80
11938.0,69,2.0,63.5,1,0,0,120.0,64,100,80
11940.0,62,0.5,84.66,1,0,0,120.0,64,100,80
11940.5,62,0.5,84.66,1,0,0,144.9,64,100,80
11941.0,62,0.5,84.66,1,0,0,304.28999999999996,64,100,80
11941.5,65,1.0,84.66,1,0,0,132.3,64,100,80
11942.5,62,0.5,84.66,49,9,0,132.3,64,100,80
11943.0,60,1.0,84.66,1,0,0,132.3,64,100,80
11944.0,60,1.0,84.66,1,0,0,132.3,64,100,80
11945.0,60,1.0,84.66,1,0,0,159.75225,64,100,80
11946.0,62,0.5,84.66,1,0,0,138.91500000000002,64,100,80
11946.5,62,0.5,84.66,1,0,0,138.91500000000002,64,100,80
11947.0,60,1.0,84.66,1,0,0,138.91500000000002,64,100,80
11948.0,65,1.0,84.66,49,9,0,138.91500000000002,64,100,80
11949.0,62,0.5,95.25,1,0,0,138.91500000000002,64,100,80
11949.5,65,1.0,95.25,1,0,0,138.91500000000002,64,100,80
11950.5,69,2.0,95.25,1,0,0,138.91500000000002,64,100,80
11952.5,65,1.0,95.25,1,0,0,138.91500000000002,64,100,80
11953.5,62,0.5,95.25,1,0,0,138.91500000000002,64,100,80
11954.0,64,1.0,95.25,49,9,0,138.91500000000002,64,100,80
11955.0,66,0.25,95.25,1,0,0,138.91500000000002,64,100,80
11955.25,61,0.5,95.25,1,0,0,138.91500000000002,64,100,80
11955.75,64,1.0,95.25,50,9,0,138.91500000000002,64,100,80
11956.75,68,2.0,95.25,1,0,0,138.91500000000002,64,100,80
11958.75,70,2.0,95.25,1,0,0,138.91500000000002,64,100,80
11960.75,59,1.0,95.25,1,0,0,138.91500000000002,64,100,80
11961.75,63,0.5,42.33,1,0,0,138.91500000000002,64,100,80
11962.25,68,2.0,42.33,1,0,0,138.91500000000002,64,100,80
11964.25,59,1.0,42.33,1,0,0,138.91500000000002,64,100,80
11965.25,59,1.0,42.33,1,0,0,138.91500000000002,64,100,80
11966.25,68,2.0,42.33,1,0,0,138.91500000000002,64,100,80
11968.25,64,1.0,42.33,1,0,0,138.91500000000002,64,100,80
11969.25,0,1.0,42.33,49,9,0,120.0,64,100,80
11970.25,62,0.5,42.33,1,0,0,120.0,64,100,80
11970.75,69,2.0,42.33,1,0,0,120.0,64,100,80
11972.75,69,2.0,42.33,1,0,0,144.9,64,100,80
11974.75,0,1.0,42.33,49,9,0,120.0,64,100,80
11975.75,69,2.0,42.33,1,0,0,120.0,64,100,80
11977.75,62,0.5,52.91,1,0,0,120.0,64,100,80
11978.25,60,1.0,52.91,1,0,0,120.0,64,100,80
11979.25,67,0.25,52.91,1,0,0,120.0,64,100,80
11979.5,64,0.5,52.91,1,0,0,120.0,64,100,80
11980.0,60,1.0,52.91,1,0,0,120.0,64,100,80
11981.0,60,1.0,52.91,1,0,0,144.9,64,100,80
11982.0,69,2.0,52.91,1,0,0,126.0,64,100,80
11984.0,69,2.0,52.91,1,0,0,126.0,64,100,80
11986.0,64,0.5,52.91,1,0,0,126.0,64,100,80
11986.5,64,0.5,52.91,1,0,0,126.0,64,100,80
11987.0,60,1.0,52.91,49,9,0,126.0,64,100,80
11988.0,67,0.25,52.91,1,0,0,126.0,64,100,80
11988.25,71,2.0,42.33,50,9,0,126.0,64,100,80
11990.25,60,1.0,42.33,1,0,0,126.0,64,100,80
11991.25,67,0.25,42.33,1,0,0,126.0,64,100,80
11991.5,71,2.0,42.33,1,0,0,126.0,64,100,80
11993.5,64,0.5,42.33,1,0,0,126.0,64,100,80
11994.0,64,0.5,42.33,1,0,0,126.0,64,100,80
11994.5,64,0.5,42.33,1,0,0,152.14499999999998,64,100,80
11995.0,69,2.0,42.33,1,0,0,132.3,64,100,80
11997.0,60,1.0,42.33,1,0,0,132.3,64,100,80
11998.0,60,1.0,42.33,1,0,0,132.3,64,100,80
11999.0,65,1.0,42.33,1,0,0,132.3,64,100,80
12000.0,64,0.5,42.33,1,0,0,132.3,64,100,80
12000.5,60,1.0,52.91,1,0,0,132.3,64,100,80
12001.5,60,1.0,52.91,1,0,0,159.75225,64,100,80
12002.5,64,0.5,52.91,1,0,0,138.91500000000002,64,100,80
12003.0,60,1.0,52.91,1,0,0,138.91500000000002,64,100,80
12004.0,60,1.0,52.91,1,0,0,138.91500000000002,64,100,80
12005.0,60,1.0,52.91,1,0,0,138.91500000000002,64,100,80
12006.0,60,1.0,52.91,1,0,0,167.73986250000002,64,100,80
12007.0,62,0.5,52.91,1,0,0,145.86075000000002,64,100,80
12007.5,64,0.5,52.91,1,0,0,145.86075000000002,64,100,80
12008.0,67,0.25,52.91,1,0,0,145.86075000000002,64,100,80
12008.25,69,2.0,52.91,1,0,0,145.86075000000002,64,100,80
12010.25,64,0.5,52.91,1,0,0,145.86075000000002,64,100,80
12010.75,64,0.5,74.08,1,0,0,176.12685562500005,64,100,80
12011.25,64,0.5,74.08,1,0,0,369.86639681250006,64,100,80
12011.75,60,1.0,74.08,1,0,0,160.81147687500004,64,100,80
12012.75,69,2.0,74.08,1,0,0,160.81147687500004,64,100,80
12014.75,60,1.0,74.08,1,0,0,160.81147687500004,64,100,80
12015.75,62,0.5,74.08,1,0,0,160.81147687500004,64,100,80
12016.25,60,1.0,74.08,1,0,0,160.81147687500004,64,100,80
12017.25,69,2.0,74.08,1,0,0,160.81147687500004,64,100,80
12019.25,69,2.0,74.08,50,9,0,160.81147687500004,64,100,80
12021.25,62,0.5,74.08,1,0,0,160.81147687500004,64,100,80
12021.75,60,1.0,74.08,1,0,0,160.81147687500004,64,100,80
12022.75,62,0.5,74.08,1,0,0,160.81147687500004,64,100,80
12023.25,60,1.0,42.33,1,0,0,160.81147687500004,64,100,80
12024.25,62,0.5,42.33,1,0,0,160.81147687500004,64,100,80
12024.75,60,1.0,42.33,1,0,0,160.81147687500004,64,100,80
12025.75,62,0.5,42.33,1,0,0,160.81147687500004,64,100,80
12026.25,0,1.0,42.33,49,9,0,120.0,64,100,80
12027.25,60,1.0,42.33,1,0,0,120.0,64,100,80
12028.25,60,1.0,42.33,1,0,0,144.9,64,100,80
12029.25,60,1.0,42.33,1,0,0,126.0,64,100,80
12030.25,69,2.0,42.33,1,0,0,126.0,64,100,80
12032.25,69,2.0,42.33,1,0,0,126.0,64,100,80
12034.25,65,1.0,42.33,49,9,0,126.0,64,100,80
12035.25,65,1.0,42.33,1,0,0,126.0,64,100,80
12036.25,62,0.5,74.08,1,0,0,126.0,64,100,80
12036.75,71,2.0,74.08,1,0,0,126.0,64,100,80
12038.75,64,0.5,74.08,51,9,0,126.0,64,100,80
12039.25,71,2.0,74.08,50,9,0,126.0,64,100,80
12041.25,62,0.5,74.08,1,0,0,126.0,64,100,80
12041.75,60,1.0,74.08,1,0,0,126.0,64,100,80
12042.75,60,1.0,74.08,1,0,0,126.0,64,100,80
12043.75,69,2.0,74.08,1,0,0,126.0,64,100,80
12045.75,60,1.0,74.08,1,0,0,126.0,64,100,80
12046.75,0,1.0,74.08,49,9,0,120.0,64,100,80
12047.75,60,1.0,74.08,1,0,0,120.0,64,100,80
12048.75,0,1.0,74.08,49,9,0,120.0,64,100,80
12049.75,69,2.0,74.08,1,0,0,120.0,64,100,80
12051.75,60,1.0,74.08,1,0,0,120.0,64,100,80
12052.75,69,2.0,74.08,1,0,0,120.0,64,100,80
12054.75,65,1.0,74.08,1,0,0,120.0,64,100,80
12055.75,69,2.0,74.08,1,0,0,120.0,64,100,80
12057.75,69,2.0,74.08,1,0,0,144.9,64,100,80
12059.75,62,0.5,74.08,1,0,0,126.0,64,100,80
12060.25,62,0.5,74.08,1,0,0,152.14499999999998,64,100,80
12060.75,62,0.5,74.08,1,0,0,319.5045,64,100,80
12061.25,65,1.0,74.08,1,0,0,138.91500000000002,64,100,80
12062.25,65,1.0,74.08,1,0,0,167.73986250000002,64,100,80
12063.25,67,0.25,74.08,1,0,0,145.86075000000002,64,100,80
12063.5,60,1.0,74.08,1,0,0,145.86075000000002,64,100,80
12064.5,62,0.5,74.08,1,0,0,145.86075000000002,64,100,80
12065.0,69,2.0,74.08,1,0,0,145.86075000000002,64,100,80
12067.0,69,2.0,74.08,50,9,0,145.86075000000002,64,100,80
12069.0,62,0.5,74.08,1,0,0,145.86075000000002,64,100,80
12069.5,60,1.0,74.08,1,0,0,145.86075000000002,64,100,80
12070.5,64,0.5,74.08,1,0,0,145.86075000000002,64,100,80
12071.0,71,2.0,74.08,1,0,0,145.86075000000002,64,100,80
12073.0,65,1.0,74.08,1,0,0,145.86075000000002,64,100,80
12074.0,69,2.0,74.08,1,0,0,145.86075000000002,64,100,80
12076.0,64,0.5,74.08,1,0,0,145.86075000000002,64,100,80
12076.5,69,2.0,74.08,1,0,0,145.86075000000002,64,100,80
12078.5,62,0.5,31.75,1,0,0,145.86075000000002,64,100,80
12079.0,69,2.0,31.75,50,9,0,145.86075000000002,64,100,80
12081.0,0,1.0,31.75,49,9,0,120.0,64,100,80
12082.0,67,0.25,31.75,1,0,0,120.0,64,100,80
12082.25,60,1.0,31.75,1,0,0,120.0,64,100,80
12083.25,71,2.0,31.75,1,0,0,120.0,64,100,80
12085.25,62,0.5,31.75,1,0,0,120.0,64,100,80
12085.75,62,0.5,31.75,1,0,0,144.9,64,100,80
12086.25,64,0.5,31.75,1,0,0,126.0,64,100,80
12086.75,62,0.5,31.75,1,0,0,126.0,64,100,80
12087.25,62,0.5,31.75,1,0,0,126.0,64,100,80
12087.75,62,0.5,31.75,1,0,0,152.14499999999998,64,100,80
12088.25,62,0.5,84.66,1,0,0,132.3,64,100,80
12088.75,62,0.5,84.66,1,0,0,132.3,64,100,80
12089.25,62,0.5,84.66,1,0,0,159.75225,64,100,80
12089.75,67,0.25,84.66,1,0,0,138.91500000000002,64,100,80
12090.0,71,2.0,84.66,1,0,0,138.91500000000002,64,100,80
12092.0,0,1.0,84.66,49,9,0,120.0,64,100,80
12093.0,60,1.0,84.66,1,0,0,120.0,64,100,80
12094.0,60,1.0,84.66,1,0,0,144.9,64,100,80
12095.0,60,1.0,84.66,1,0,0,304.28999999999996,64,100,80
12096.0,62,0.5,84.66,1,0,0,132.3,64,100,80
12096.5,60,1.0,84.66,1,0,0,132.3,64,100,80
12097.5,60,1.0,84.66,1,0,0,159.75225,64,100,80
12098.5,69,2.0,74.08,1,0,0,138.91500000000002,64,100,80
12100.5,71,2.0,74.08,1,0,0,138.91500000000002,64,100,80
12102.5,64,0.5,74.08,1,0,0,138.91500000000002,64,100,80
12103.0,67,0.25,74.08,1,0,0,138.91500000000002,64,100,80
12103.25,67,0.25,74.08,1,0,0,138.91500000000002,64,100,80
12103.5,69,2.0,74.08,1,0,0,138.91500000000002,64,100,80
12105.5,0,1.0,74.08,49,9,0,120.0,64,100,80
12106.5,60,1.0,74.08,1,0,0,120.0,64,100,80
12107.5,60,1.0,74.08,1,0,0,144.9,64,100,80
12108.5,62,0.5,74.08,1,0,0,126.0,64,100,80
12109.0,65,1.0,74.08,1,0,0,126.0,64,100,80
12110.0,60,1.0,74.08,1,0,0,126.0,64,100,80
12111.0,67,0.25,63.5,1,0,0,126.0,64,100,80
12111.25,62,0.5,63.5,1,0,0,126.0,64,100,80
12111.75,71,2.0,63.5,1,0,0,126.0,64,100,80
12113.75,71,2.0,63.5,1,0,0,126.0,64,100,80
12115.75,60,1.0,63.5,1,0,0,126.0,64,100,80
12116.75,71,2.0,63.5,1,0,0,126.0,64,100,80
12118.75,60,1.0,63.5,1,0,0,126.0,64,100,80
12119.75,69,2.0,63.5,1,0,0,126.0,64,100,80
12121.75,60,1.0,63.5,50,9,0,126.0,64,100,80
12122.75,67,0.25,63.5,1,0,0,126.0,64,100,80
12123.0,62,0.5,63.5,1,0,0,126.0,64,100,80
12123.5,71,2.0,63.5,1,0,0,126.0,64,100,80
12125.5,60,1.0,52.91,1,0,0,126.0,64,100,80
12126.5,64,0.5,52.91,1,0,0,126.0,64,100,80
12127.0,60,1.0,52.91,1,0,0,126.0,64,100,80
12128.0,60,1.0,52.91,1,0,0,152.14499999999998,64,100,80
12129.0,69,2.0,52.91,1,0,0,132.3,64,100,80
12131.0,60,1.0,52.91,1,0,0,132.3,64,100,80
12132.0,60,1.0,52.91,1,0,0,159.75225,64,100,80
12133.0,62,0.5,52.91,1,0,0,138.91500000000002,64,100,80
12133.5,69,2.0,52.91,1,0,0,138.91500000000002,64,100,80
12135.5,62,0.5,52.91,1,0,0,138.91500000000002,64,100,80
12136.0,60,1.0,52.91,1,0,0,138.91500000000002,64,100,80
12137.0,60,1.0,52.91,1,0,0,138.91500000000002,64,100,80
12138.0,64,0.5,105.83,1,0,0,138.91500000000002,64,100,80
12138.5,67,0.25,105.83,1,0,0,138.91500000000002,64,100,80
12138.75,60,1.0,105.83,1,0,0,138.91500000000002,64,100,80
12139.75,60,1.0,105.83,1,0,0,167.73986250000002,64,100,80
12140.75,60,1.0,105.83,1,0,0,352.2537112500001,64,100,80
12141.75,69,2.0,105.83,1,0,0,153.15378750000005,64,100,80
12143.75,60,1.0,105.83,1,0,0,153.15378750000005,64,100,80
12144.75,60,1.0,105.83,1,0,0,184.93319840625003,64,100,80
12145.75,69,2.0,105.83,1,0,0,160.81147687500004,64,100,80
12147.75,60,1.0,105.83,1,0,0,160.81147687500004,64,100,80
12148.75,60,1.0,105.83,1,0,0,160.81147687500004,64,100,80
12149.75,67,0.25,105.83,49,9,0,160.81147687500004,64,100,80
12150.0,60,1.0,84.66,1,0,0,160.81147687500004,64,100,80
12151.0,71,2.0,84.66,40,9,0,160.81147687500004,64,100,80
12153.0,60,1.0,84.66,1,0,0,160.81147687500004,64,100,80
12154.0,62,0.5,84.66,1,0,0,160.81147687500004,64,100,80
12154.5,69,2.0,84.66,1,0,0,160.81147687500004,64,100,80
12156.5,60,1.0,84.66,1,0,0,160.81147687500004,64,100,80
12157.5,62,0.5,84.66,1,0,0,160.81147687500004,64,100,80
12158.0,60,1.0,84.66,1,0,0,160.81147687500004,64,100,80
12159.0,64,0.5,84.66,1,0,0,160.81147687500004,64,100,80
12159.5,60,1.0,84.66,1,0,0,160.81147687500004,64,100,80
12160.5,64,1.0,84.66,50,9,0,160.81147687500004,64,100,80
12161.5,68,2.0,84.66,1,0,0,160.81147687500004,64,100,80
12163.5,68,2.0,84.66,1,0,0,160.81147687500004,64,100,80
12165.5,59,1.0,84.66,1,0,0,160.81147687500004,64,100,80
12166.5,59,1.0,84.66,1,0,0,194.17985832656254,64,100,80
12167.5,68,2.0,84.66,1,0,0,168.85205071875006,64,100,80
12169.5,63,0.5,84.66,1,0,0,168.85205071875006,64,100,80
12170.0,68,2.0,84.66,1,0,0,168.85205071875006,64,100,80
12172.0,68,2.0,84.66,1,0,0,203.8888512428907,64,100,80
12174.0,64,1.0,84.66,50,9,0,177.29465325468757,64,100,80
12175.0,0,1.0,84.66,49,9,0,120.0,64,100,80
12176.0,64,0.5,84.66,49,9,0,120.0,64,100,80
12176.5,62,0.5,84.66,1,0,0,120.0,64,100,80
12177.0,64,0.5,84.66,1,0,0,120.0,64,100,80
12177.5,60,1.0,84.66,1,0,0,120.0,64,100,80
12178.5,71,2.0,84.66,1,0,0,120.0,64,100,80
12180.5,71,2.0,84.66,1,0,0,144.9,64,100,80
12182.5,64,0.5,84.66,1,0,0,126.0,64,100,80
12183.0,62,0.5,84.66,1,0,0,126.0,64,100,80
12183.5,64,0.5,84.66,1,0,0,126.0,64,100,80
12184.0,60,1.0,84.66,1,0,0,126.0,64,100,80
12185.0,0,1.0,84.66,49,9,0,120.0,64,100,80
12186.0,60,1.0,84.66,1,0,0,120.0,64,100,80
12187.0,65,1.0,84.66,50,9,0,120.0,64,100,80
12188.0,67,0.25,84.66,1,0,0,120.0,64,100,80
12188.25,60,1.0,84.66,1,0,0,120.0,64,100,80
12189.25,69,2.0,52.91,1,0,0,120.0,64,100,80
12191.25,65,1.0,52.91,49,9,0,120.0,64,100,80
12192.25,62,0.5,52.91,1,0,0,120.0,64,100,80
12192.75,64,0.5,52.91,1,0,0,120.0,64,100,80
12193.25,69,2.0,52.91,1,0,0,120.0,64,100,80
12195.25,64,0.5,52.91,1,0,0,120.0,64,100,80
12195.75,64,0.5,52.91,1,0,0,120.0,64,100,80
12196.25,62,0.5,52.91,51,9,0,120.0,64,100,80
12196.75,64,1.0,52.91,50,9,0,120.0,64,100,80
12197.75,61,0.5,52.91,1,0,0,120.0,64,100,80
12198.25,63,0.5,52.91,49,9,0,120.0,64,100,80
12198.75,61,0.5,52.91,1,0,0,120.0,64,100,80
12199.25,59,1.0,74.08,1,0,0,120.0,64,100,80
12200.25,59,1.0,74.08,1,0,0,144.9,64,100,80
12201.25,68,2.0,74.08,1,0,0,126.0,64,100,80
12203.25,63,0.5,74.08,1,0,0,126.0,64,100,80
12203.75,64,1.0,74.08,49,9,0,126.0,64,100,80
12204.75,64,1.0,74.08,1,0,0,126.0,64,100,80
12205.75,63,0.5,74.08,49,9,0,126.0,64,100,80
12206.25,63,0.5,74.08,1,0,0,126.0,64,100,80
12206.75,63,0.5,74.08,1,0,0,126.0,64,100,80
12207.25,63,0.5,74.08,1,0,0,152.14499999999998,64,100,80
12207.75,68,2.0,74.08,1,0,0,132.3,64,100,80
12209.75,68,2.0,74.08,1,0,0,132.3,64,100,80
12211.75,68,2.0,74.08,1,0,0,159.75225,64,100,80
12213.75,59,1.0,74.08,1,0,0,138.91500000000002,64,100,80
12214.75,63,0.5,74.08,1,0,0,138.91500000000002,64,100,80
12215.25,0,1.0,74.08,49,9,0,120.0,64,100,80
12216.25,64,0.5,74.08,1,0,0,120.0,64,100,80
12216.75,62,0.5,74.08,1,0,0,120.0,64,100,80
12217.25,64,0.5,74.08,1,0,0,120.0,64,100,80
12217.75,67,0.25,74.08,1,0,0,120.0,64,100,80
12218.0,60,1.0,74.08,1,0,0,120.0,64,100,80
12219.0,60,1.0,74.08,1,0,0,120.0,64,100,80
12220.0,65,1.0,74.08,1,0,0,120.0,64,100,80
12221.0,64,0.5,74.08,49,9,0,120.0,64,100,80
12221.5,60,1.0,74.08,1,0,0,120.0,64,100,80
12222.5,62,0.5,74.08,1,0,0,120.0,64,100,80
12223.0,69,2.0,74.08,1,0,0,120.0,64,100,80
12225.0,64,0.5,74.08,1,0,0,120.0,64,100,80
12225.5,67,0.25,74.08,1,0,0,120.0,64,100,80
12225.75,60,1.0,74.08,49,9,0,120.0,64,100,80
12226.75,62,0.5,74.08,1,0,0,120.0,64,100,80
12227.25,64,0.5,74.08,1,0,0,120.0,64,100,80
12227.75,64,0.5,74.08,1,0,0,144.9,64,100,80
12228.25,60,1.0,74.08,1,0,0,126.0,64,100,80
12229.25,62,0.5,74.08,1,0,0,126.0,64,100,80
12229.75,62,0.5,74.08,1,0,0,152.14499999999998,64,100,80
12230.25,60,1.0,63.5,1,0,0,132.3,64,100,80
12231.25,64,0.5,63.5,1,0,0,132.3,64,100,80
12231.75,60,1.0,63.5,1,0,0,132.3,64,100,80
12232.75,62,0.5,63.5,1,0,0,132.3,64,100,80
12233.25,65,1.0,63.5,1,0,0,132.3,64,100,80
12234.25,62,0.5,63.5,1,0,0,132.3,64,100,80
12234.75,64,0.5,63.5,1,0,0,132.3,64,100,80
12235.25,64,0.5,63.5,1,0,0,132.3,64,100,80
12235.75,67,0.25,63.5,1,0,0,132.3,64,100,80
12236.0,62,0.5,63.5,1,0,0,132.3,64,100,80
12236.5,60,1.0,63.5,1,0,0,132.3,64,100,80
12237.5,60,1.0,63.5,1,0,0,132.3,64,100,80
12238.5,62,0.5,31.75,49,9,0,132.3,64,100,80
12239.0,65,1.0,31.75,50,9,0,132.3,64,100,80
12240.0,67,0.25,31.75,1,0,0,132.3,64,100,80
12240.25,60,1.0,31.75,1,0,0,132.3,64,100,80
12241.25,64,0.5,31.75,49,9,0,132.3,64,100,80
12241.75,60,1.0,31.75,1,0,0,132.3,64,100,80
12242.75,0,1.0,31.75,49,9,0,120.0,64,100,80
12243.75,64,1.0,31.75,50,9,0,120.0,64,100,80
12244.75,68,2.0,31.75,1,0,0,120.0,64,100,80
12246.75,63,0.5,31.75,1,0,0,120.0,64,100,80
12247.25,0,1.0,31.75,49,9,0,120.0,64,100,80
12248.25,64,0.5,31.75,1,0,0,120.0,64,100,80
12248.75,64,0.5,52.91,1,0,0,144.9,64,100,80
12249.25,64,0.5,52.91,1,0,0,304.28999999999996,64,100,80
12249.75,62,0.5,52.91,40,9,0,132.3,64,100,80
12250.25,64,0.5,52.91,1,0,0,132.3,64,100,80
12250.75,64,0.5,52.91,50,9,0,132.3,64,100,80
12251.25,62,0.5,52.91,1,0,0,132.3,64,100,80
12251.75,65,1.0,52.91,1,0,0,132.3,64,100,80
12252.75,71,2.0,52.91,1,0,0,132.3,64,100,80
12254.75,67,0.25,52.91,1,0,0,132.3,64,100,80
12255.0,62,0.5,52.91,1,0,0,132.3,64,100,80
12255.5,71,2.0,52.91,50,9,0,132.3,64,100,80
12257.5,65,1.0,52.91,1,0,0,132.3,64,100,80
12258.5,60,1.0,84.66,1,0,0,132.3,64,100,80
12259.5,62,0.5,84.66,1,0,0,132.3,64,100,80
12260.0,64,0.5,84.66,1,0,0,132.3,64,100,80
12260.5,69,2.0,84.66,1,0,0,132.3,64,100,80
12262.5,60,1.0,84.66,1,0,0,132.3,64,100,80
12263.5,60,1.0,84.66,1,0,0,159.75225,64,100,80
12264.5,69,2.0,84.66,1,0,0,138.91500000000002,64,100,80
12266.5,69,2.0,84.66,1,0,0,167.73986250000002,64,100,80
12268.5,60,1.0,84.66,1,0,0,145.86075000000002,64,100,80
12269.5,60,1.0,84.66,1,0,0,176.12685562500005,64,100,80
12270.5,71,2.0,84.66,1,0,0,153.15378750000005,64,100,80
12272.5,0,1.0,84.66,49,9,0,120.0,64,100,80
12273.5,67,0.25,74.08,1,0,0,120.0,64,100,80
12273.75,60,1.0,74.08,1,0,0,120.0,64,100,80
12274.75,71,2.0,74.08,1,0,0,120.0,64,100,80
12276.75,60,1.0,74.08,1,0,0,120.0,64,100,80
12277.75,65,1.0,74.08,49,9,0,120.0,64,100,80
12278.75,62,0.5,74.08,1,0,0,120.0,64,100,80
12279.25,67,0.25,74.08,1,0,0,120.0,64,100,80
12279.5,60,1.0,74.08,1,0,0,120.0,64,100,80
12280.5,64,0.5,74.08,1,0,0,120.0,64,100,80
12281.0,71,2.0,74.08,1,0,0,120.0,64,100,80
12283.0,0,1.0,74.08,49,9,0,120.0,64,100,80
12284.0,69,2.0,74.08,1,0,0,120.0,64,100,80
12286.0,60,1.0,31.75,1,0,0,120.0,64,100,80
12287.0,69,2.0,31.75,1,0,0,120.0,64,100,80
12289.0,69,2.0,31.75,1,0,0,120.0,64,100,80
12291.0,60,1.0,31.75,1,0,0,120.0,64,100,80
12292.0,71,2.0,31.75,1,0,0,120.0,64,100,80
12294.0,60,1.0,31.75,1,0,0,120.0,64,100,80
12295.0,64,1.0,31.75,49,9,0,120.0,64,100,80
12296.0,63,0.5,31.75,1,0,0,120.0,64,100,80
12296.5,61,0.5,31.75,1,0,0,120.0,64,100,80
12297.0,59,1.0,31.75,1,0,0,120.0,64,100,80
12298.0,68,2.0,31.75,1,0,0,120.0,64,100,80
12300.0,61,0.5,31.75,1,0,0,120.0,64,100,80
12300.5,0,1.0,63.5,49,9,0,120.0,64,100,80
12301.5,67,0.25,63.5,1,0,0,120.0,64,100,80
12301.75,62,0.5,63.5,1,0,0,120.0,64,100,80
12302.25,62,0.5,63.5,1,0,0,120.0,64,100,80
12302.75,62,0.5,63.5,1,0,0,120.0,64,100,80
12303.25,65,1.0,63.5,49,9,0,120.0,64,100,80
12304.25,64,0.5,63.5,1,0,0,120.0,64,100,80
12304.75,64,1.0,63.5,50,9,0,120.0,64,100,80
12305.75,61,0.5,63.5,1,0,0,120.0,64,100,80
12306.25,68,2.0,63.5,1,0,0,120.0,64,100,80
12308.25,66,0.25,63.5,1,0,0,120.0,64,100,80
12308.5,61,0.5,63.5,1,0,0,120.0,64,100,80
12309.0,63,0.5,74.08,1,0,0,120.0,64,100,80
12309.5,66,0.25,74.08,1,0,0,120.0,64,100,80
12309.75,59,1.0,74.08,1,0,0,120.0,64,100,80
12310.75,59,1.0,74.08,1,0,0,120.0,64,100,80
12311.75,66,0.25,74.08,1,0,0,120.0,64,100,80
12312.0,70,2.0,74.08,1,0,0,120.0,64,100,80
12314.0,70,2.0,74.08,1,0,0,144.9,64,100,80
12316.0,61,0.5,74.08,1,0,0,126.0,64,100,80
12316.5,59,1.0,74.08,1,0,0,126.0,64,100,80
12317.5,64,1.0,74.08,1,0,0,126.0,64,100,80
12318.5,64,1.0,74.08,1,0,0,152.14499999999998,64,100,80
12319.5,59,1.0,74.08,1,0,0,132.3,64,100,80
12320.5,59,1.0,95.25,1,0,0,132.3,64,100,80
12321.5,64,1.0,95.25,50,9,0,132.3,64,100,80
12322.5,59,1.0,95.25,50,9,0,132.3,64,100,80
12323.5,61,0.5,95.25,1,0,0,132.3,64,100,80
12324.0,61,0.5,95.25,1,0,0,132.3,64,100,80
12324.5,68,2.0,95.25,1,0,0,132.3,64,100,80
12326.5,68,2.0,95.25,1,0,0,132.3,64,100,80
12328.5,68,2.0,95.25,1,0,0,159.75225,64,100,80
12330.5,0,1.0,95.25,49,9,0,120.0,64,100,80
12331.5,62,0.5,95.25,1,0,0,120.0,64,100,80
12332.0,64,0.5,95.25,1,0,0,120.0,64,100,80
12332.5,60,1.0,95.25,1,0,0,120.0,64,100,80
12333.5,64,0.5,63.5,1,0,0,120.0,64,100,80
12334.0,69,2.0,63.5,1,0,0,120.0,64,100,80
12336.0,62,0.5,63.5,1,0,0,120.0,64,100,80
12336.5,65,1.0,63.5,1,0,0,120.0,64,100,80
12337.5,69,2.0,63.5,1,0,0,120.0,64,100,80
12339.5,64,0.5,63.5,1,0,0,120.0,64,100,80
12340.0,62,0.5,63.5,1,0,0,120.0,64,100,80
12340.5,69,2.0,63.5,1,0,0,120.0,64,100,80
12342.5,0,1.0,63.5,49,9,0,120.0,64,100,80
12343.5,65,1.0,63.5,1,0,0,120.0,64,100,80
12344.5,62,0.5,63.5,1,0,0,120.0,64,100,80
12345.0,60,1.0,63.5,1,0,0,120.0,64,100,80
12346.0,71,2.0,84.66,1,0,0,120.0,64,100,80
12348.0,62,0.5,84.66,1,0,0,120.0,64,100,80
12348.5,64,0.5,84.66,1,0,0,120.0,64,100,80
12349.0,62,0.5,84.66,1,0,0,120.0,64,100,80
12349.5,62,0.5,84.66,1,0,0,120.0,64,100,80
12350.0,62,0.5,84.66,51,9,0,120.0,64,100,80
12350.5,64,1.0,84.66,49,9,0,120.0,64,100,80
12351.5,59,1.0,84.66,50,9,0,120.0,64,100,80
12352.5,66,0.25,84.66,1,0,0,120.0,64,100,80
12352.75,64,1.0,84.66,50,9,0,120.0,64,100,80
12353.75,59,1.0,84.66,1,0,0,120.0,64,100,80
12354.75,59,1.0,84.66,1,0,0,120.0,64,100,80
12355.75,61,0.5,84.66,1,0,0,120.0,64,100,80
12356.25,68,2.0,84.66,1,0,0,120.0,64,100,80
12358.25,59,1.0,84.66,1,0,0,120.0,64,100,80
12359.25,59,1.0,84.66,1,0,0,120.0,64,100,80
12360.25,61,0.5,84.66,1,0,0,120.0,64,100,80
12360.75,61,0.5,84.66,1,0,0,120.0,64,100,80
12361.25,63,0.5,84.66,1,0,0,120.0,64,100,80
12361.75,61,0.5,84.66,1,0,0,120.0,64,100,80
12362.25,61,0.5,84.66,1,0,0,144.9,64,100,80
12362.75,59,1.0,84.66,1,0,0,126.0,64,100,80
12363.75,63,0.5,84.66,49,9,0,126.0,64,100,80
12364.25,63,0.5,84.66,1,0,0,126.0,64,100,80
12364.75,59,1.0,84.66,1,0,0,126.0,64,100,80
12365.75,61,0.5,84.66,1,0,0,126.0,64,100,80
12366.25,59,1.0,84.66,1,0,0,126.0,64,100,80
12367.25,61,0.5,84.66,1,0,0,126.0,64,100,80
12367.75,64,1.0,84.66,1,0,0,126.0,64,100,80
12368.75,61,0.5,84.66,1,0,0,126.0,64,100,80
12369.25,61,0.5,84.66,1,0,0,126.0,64,100,80
12369.75,59,1.0,84.66,1,0,0,126.0,64,100,80
12370.75,61,0.5,84.66,1,0,0,126.0,64,100,80
12371.25,59,1.0,84.66,1,0,0,126.0,64,100,80
12372.25,59,1.0,84.66,1,0,0,152.14499999999998,64,100,80
12373.25,68,2.0,84.66,1,0,0,132.3,64,100,80
12375.25,61,0.5,31.75,1,0,0,132.3,64,100,80
12375.75,61,0.5,31.75,1,0,0,132.3,64,100,80
12376.25,59,1.0,31.75,1,0,0,132.3,64,100,80
12377.25,59,1.0,31.75,1,0,0,132.3,64,100,80
12378.25,59,1.0,31.75,1,0,0,159.75225,64,100,80
12379.25,63,0.5,31.75,49,9,0,138.91500000000002,64,100,80
12379.75,61,0.5,31.75,1,0,0,138.91500000000002,64,100,80
12380.25,63,0.5,31.75,1,0,0,138.91500000000002,64,100,80
12380.75,61,0.5,31.75,1,0,0,138.91500000000002,64,100,80
12381.25,61,0.5,31.75,1,0,0,138.91500000000002,64,100,80
12381.75,70,2.0,31.75,1,0,0,138.91500000000002,64,100,80
12383.75,68,2.0,31.75,1,0,0,138.91500000000002,64,100,80
12385.75,59,1.0,84.66,1,0,0,138.91500000000002,64,100,80
12386.75,61,0.5,84.66,1,0,0,138.91500000000002,64,100,80
12387.25,59,1.0,84.66,1,0,0,138.91500000000002,64,100,80
12388.25,66,0.25,84.66,1,0,0,138.91500000000002,64,100,80
12388.5,59,1.0,84.66,1,0,0,138.91500000000002,64,100,80
12389.5,61,0.5,84.66,1,0,0,138.91500000000002,64,100,80
12390.0,64,1.0,84.66,50,9,0,138.91500000000002,64,100,80
12391.0,68,2.0,84.66,1,0,0,138.91500000000002,64,100,80
12393.0,68,2.0,84.66,1,0,0,138.91500000000002,64,100,80
12395.0,61,0.5,84.66,1,0,0,138.91500000000002,64,100,80
12395.5,68,2.0,84.66,1,0,0,138.91500000000002,64,100,80
12397.5,61,0.5,84.66,1,0,0,138.91500000000002,64,100,80
12398.0,59,1.0,74.08,1,0,0,138.91500000000002,64,100,80
12399.0,59,1.0,74.08,1,0,0,167.73986250000002,64,100,80
12400.0,0,1.0,74.08,49,9,0,120.0,64,100,80
12401.0,62,0.5,74.08,1,0,0,120.0,64,100,80
12401.5,0,1.0,74.08,49,9,0,120.0,64,100,80
12402.5,62,0.5,74.08,1,0,0,120.0,64,100,80
12403.0,67,0.25,74.08,1,0,0,120.0,64,100,80
12403.25,65,1.0,74.08,1,0,0,120.0,64,100,80
12404.25,60,1.0,74.08,1,0,0,120.0,64,100,80
12405.25,62,0.5,74.08,1,0,0,120.0,64,100,80
12405.75,64,0.5,74.08,1,0,0,120.0,64,100,80
12406.25,69,2.0,74.08,1,0,0,120.0,64,100,80
12408.25,64,0.5,63.5,1,0,0,120.0,64,100,80
12408.75,62,0.5,63.5,1,0,0,120.0,64,100,80
12409.25,60,1.0,63.5,1,0,0,120.0,64,100,80
12410.25,64,0.5,63.5,49,9,0,120.0,64,100,80
12410.75,62,0.5,63.5,1,0,0,120.0,64,100,80
12411.25,69,2.0,63.5,1,0,0,120.0,64,100,80
12413.25,64,0.5,63.5,49,9,0,120.0,64,100,80
12413.75,64,0.5,63.5,1,0,0,120.0,64,100,80
12414.25,62,0.5,63.5,1,0,0,120.0,64,100,80
12414.75,64,0.5,63.5,1,0,0,120.0,64,100,80
12415.25,64,0.5,63.5,1,0,0,120.0,64,100,80
12415.75,64,0.5,63.5,1,0,0,120.0,64,100,80
12416.25,0,1.0,84.66,49,9,0,120.0,64,100,80
12417.25,67,0.25,84.66,1,0,0,120.0,64,100,80
12417.5,71,2.0,84.66,1,0,0,120.0,64,100,80
12419.5,62,0.5,84.66,1,0,0,120.0,64,100,80
12420.0,60,1.0,84.66,1,0,0,120.0,64,100,80
12421.0,62,0.5,84.66,1,0,0,120.0,64,100,80
12421.5,64,0.5,84.66,49,9,0,120.0,64,100,80
12422.0,62,0.5,84.66,1,0,0,120.0,64,100,80
12422.5,60,1.0,84.66,1,0,0,120.0,64,100,80
12423.5,64,0.5,84.66,51,9,0,120.0,64,100,80
12424.0,64,1.0,84.66,50,9,0,120.0,64,100,80
12425.0,66,0.25,84.66,1,0,0,120.0,64,100,80
12425.25,68,2.0,84.66,1,0,0,120.0,64,100,80
12427.25,59,1.0,84.66,1,0,0,120.0,64,100,80
12428.25,70,2.0,84.66,1,0,0,120.0,64,100,80
12430.25,66,0.25,84.66,1,0,0,120.0,64,100,80
12430.5,59,1.0,84.66,1,0,0,120.0,64,100,80
12431.5,63,0.5,84.66,1,0,0,120.0,64,100,80
12432.0,68,2.0,84.66,1,0,0,120.0,64,100,80
12434.0,0,1.0,84.66,49,9,0,120.0,64,100,80
12435.0,62,0.5,84.66,1,0,0,120.0,64,100,80
12435.5,60,1.0,84.66,1,0,0,120.0,64,100,80
12436.5,62,0.5,84.66,1,0,0,120.0,64,100,80
12437.0,64,0.5,84.66,1,0,0,120.0,64,100,80
12437.5,62,0.5,84.66,1,0,0,120.0,64,100,80
12438.0,60,1.0,84.66,1,0,0,120.0,64,100,80
12439.0,71,2.0,84.66,1,0,0,120.0,64,100,80
12441.0,60,1.0,84.66,1,0,0,120.0,64,100,80
12442.0,62,0.5,84.66,1,0,0,120.0,64,100,80
12442.5,62,0.5,84.66,1,0,0,144.9,64,100,80
12443.0,62,0.5,84.66,1,0,0,304.28999999999996,64,100,80
12443.5,62,0.5,84.66,1,0,0,479.25675,64,100,80
12444.0,65,1.0,84.66,1,0,0,138.91500000000002,64,100,80
12445.0,60,1.0,84.66,1,0,0,138.91500000000002,64,100,80
12446.0,60,1.0,84.66,1,0,0,138.91500000000002,64,100,80
12447.0,60,1.0,84.66,1,0,0,167.73986250000002,64,100,80
12448.0,62,0.5,63.5,1,0,0,145.86075000000002,64,100,80
12448.5,67,0.25,63.5,1,0,0,145.86075000000002,64,100,80
12448.75,60,1.0,63.5,1,0,0,145.86075000000002,64,100,80
12449.75,69,2.0,63.5,1,0,0,145.86075000000002,64,100,80
12451.75,62,0.5,63.5,1,0,0,145.86075000000002,64,100,80
12452.25,60,1.0,63.5,1,0,0,145.86075000000002,64,100,80
12453.25,60,1.0,63.5,1,0,0,176.12685562500005,64,100,80
12454.25,0,1.0,63.5,49,9,0,120.0,64,100,80
12455.25,64,0.5,63.5,1,0,0,120.0,64,100,80
12455.75,62,0.5,63.5,1,0,0,120.0,64,100,80
12456.25,69,2.0,63.5,1,0,0,120.0,64,100,80
12458.25,62,0.5,63.5,1,0,0,120.0,64,100,80
12458.75,62,0.5,74.08,1,0,0,120.0,64,100,80
12459.25,60,1.0,74.08,1,0,0,120.0,64,100,80
12460.25,62,0.5,74.08,1,0,0,120.0,64,100,80
12460.75,0,1.0,74.08,49,9,0,120.0,64,100,80
12461.75,67,0.25,74.08,1,0,0,120.0,64,100,80
12462.0,60,1.0,74.08,1,0,0,120.0,64,100,80
12463.0,62,0.5,74.08,1,0,0,120.0,64,100,80
12463.5,67,0.25,74.08,1,0,0,120.0,64,100,80
12463.75,62,0.5,74.08,1,0,0,120.0,64,100,80
12464.25,69,2.0,74.08,1,0,0,120.0,64,100,80
12466.25,69,2.0,74.08,1,0,0,120.0,64,100,80
12468.25,67,0.25,74.08,1,0,0,120.0,64,100,80
12468.5,69,2.0,74.08,1,0,0,120.0,64,100,80
12470.5,60,1.0,74.08,1,0,0,120.0,64,100,80
12471.5,62,0.5,74.08,1,0,0,120.0,64,100,80
12472.0,60,1.0,74.08,1,0,0,120.0,64,100,80
12473.0,60,1.0,74.08,1,0,0,120.0,64,100,80
12474.0,60,1.0,74.08,49,9,0,120.0,64,100,80
12475.0,69,2.0,74.08,1,0,0,120.0,64,100,80
12477.0,71,2.0,74.08,1,0,0,120.0,64,100,80
12479.0,64,0.5,74.08,1,0,0,120.0,64,100,80
12479.5,71,2.0,74.08,1,0,0,120.0,64,100,80
12481.5,65,1.0,74.08,49,9,0,120.0,64,100,80
12482.5,67,0.25,74.08,1,0,0,120.0,64,100,80
12482.75,69,2.0,74.08,1,0,0,120.0,64,100,80
12484.75,71,2.0,74.08,1,0,0,120.0,64,100,80
12486.75,62,0.5,74.08,1,0,0,120.0,64,100,80
12487.25,64,1.0,74.08,50,9,0,120.0,64,100,80
12488.25,59,1.0,74.08,1,0,0,120.0,64,100,80
12489.25,66,0.25,74.08,1,0,0,120.0,64,100,80
12489.5,61,0.5,74.08,1,0,0,120.0,64,100,80
12490.0,64,1.0,74.08,49,9,0,120.0,64,100,80
12491.0,66,0.25,74.08,1,0,0,120.0,64,100,80
12491.25,59,1.0,74.08,1,0,0,120.0,64,100,80
12492.25,63,0.5,74.08,1,0,0,120.0,64,100,80
12492.75,68,2.0,74.08,1,0,0,120.0,64,100,80
12494.75,59,1.0,74.08,1,0,0,120.0,64,100,80
12495.75,61,0.5,74.08,1,0,0,120.0,64,100,80
12496.25,68,2.0,74.08,1,0,0,120.0,64,100,80
12498.25,68,2.0,74.08,1,0,0,144.9,64,100,80
12500.25,63,0.5,74.08,1,0,0,126.0,64,100,80
12500.75,59,1.0,74.08,1,0,0,126.0,64,100,80
12501.75,59,1.0,74.08,1,0,0,126.0,64,100,80
12502.75,64,1.0,74.08,49,9,0,126.0,64,100,80
12503.75,59,1.0,74.08,1,0,0,126.0,64,100,80
12504.75,70,2.0,74.08,1,0,0,126.0,64,100,80
12506.75,63,0.5,74.08,1,0,0,126.0,64,100,80
12507.25,59,1.0,74.08,1,0,0,126.0,64,100,80
12508.25,59,1.0,52.91,1,0,0,126.0,64,100,80
12509.25,66,0.25,52.91,1,0,0,126.0,64,100,80
12509.5,59,1.0,52.91,1,0,0,126.0,64,100,80
12510.5,63,0.5,52.91,1,0,0,126.0,64,100,80
12511.0,59,1.0,52.91,1,0,0,126.0,64,100,80
12512.0,68,2.0,52.91,50,9,0,126.0,64,100,80
12514.0,68,2.0,52.91,1,0,0,126.0,64,100,80
12516.0,61,0.5,52.91,1,0,0,126.0,64,100,80
12516.5,61,0.5,52.91,1,0,0,126.0,64,100,80
12517.0,63,0.5,52.91,49,9,0,126.0,64,100,80
12517.5,61,0.5,52.91,1,0,0,126.0,64,100,80
12518.0,59,1.0,52.91,1,0,0,126.0,64,100,80
12519.0,61,0.5,63.5,1,0,0,126.0,64,100,80
12519.5,61,0.5,63.5,1,0,0,152.14499999999998,64,100,80
12520.0,63,0.5,63.5,1,0,0,132.3,64,100,80
12520.5,61,0.5,63.5,1,0,0,132.3,64,100,80
12521.0,59,1.0,63.5,1,0,0,132.3,64,100,80
12522.0,63,0.5,63.5,1,0,0,132.3,64,100,80
12522.5,59,1.0,63.5,1,0,0,132.3,64,100,80
12523.5,61,0.5,63.5,50,9,0,132.3,64,100,80
12524.0,61,0.5,63.5,1,0,0,132.3,64,100,80
12524.5,59,1.0,63.5,1,0,0,132.3,64,100,80
12525.5,63,0.5,63.5,1,0,0,132.3,64,100,80
12526.0,0,1.0,63.5,49,9,0,120.0,64,100,80
12527.0,64,0.5,52.91,1,0,0,120.0,64,100,80
12527.5,69,2.0,52.91,1,0,0,120.0,64,100,80
12529.5,60,1.0,52.91,1,0,0,120.0,64,100,80
12530.5,62,0.5,52.91,1,0,0,120.0,64,100,80
12531.0,71,2.0,52.91,1,0,0,120.0,64,100,80
12533.0,64,0.5,52.91,1,0,0,120.0,64,100,80
12533.5,62,0.5,52.91,1,0,0,120.0,64,100,80
12534.0,62,0.5,52.91,1,0,0,144.9,64,100,80
12534.5,69,2.0,52.91,1,0,0,126.0,64,100,80
12536.5,65,1.0,52.91,1,0,0,126.0,64,100,80
12537.5,62,0.5,52.91,1,0,0,126.0,64,100,80
12538.0,71,2.0,52.91,1,0,0,126.0,64,100,80
12540.0,67,0.25,84.66,1,0,0,126.0,64,100,80
12540.25,60,1.0,84.66,1,0,0,126.0,64,100,80
12541.25,65,1.0,84.66,1,0,0,126.0,64,100,80
12542.25,62,0.5,84.66,1,0,0,126.0,64,100,80
12542.75,64,0.5,84.66,1,0,0,126.0,64,100,80
12543.25,67,0.25,84.66,1,0,0,126.0,64,100,80
12543.5,60,1.0,84.66,1,0,0,126.0,64,100,80
12544.5,71,2.0,84.66,51,9,0,126.0,64,100,80
12546.5,62,0.5,84.66,1,0,0,126.0,64,100,80
12547.0,60,1.0,84.66,1,0,0,126.0,64,100,80
12548.0,60,1.0,84.66,1,0,0,152.14499999999998,64,100,80
12549.0,62,0.5,84.66,1,0,0,132.3,64,100,80
12549.5,60,1.0,63.5,1,0,0,132.3,64,100,80
12550.5,64,0.5,63.5,49,9,0,132.3,64,100,80
12551.0,64,0.5,63.5,1,0,0,132.3,64,100,80
12551.5,67,0.25,63.5,1,0,0,132.3,64,100,80
12551.75,64,1.0,63.5,50,9,0,132.3,64,100,80
12552.75,70,2.0,63.5,1,0,0,132.3,64,100,80
12554.75,59,1.0,63.5,1,0,0,132.3,64,100,80
12555.75,61,0.5,63.5,1,0,0,132.3,64,100,80
12556.25,66,0.25,63.5,1,0,0,132.3,64,100,80
12556.5,68,2.0,63.5,1,0,0,132.3,64,100,80
12558.5,61,0.5,63.5,1,0,0,132.3,64,100,80
12559.0,61,0.5,63.5,1,0,0,132.3,64,100,80
12559.5,61,0.5,84.66,1,0,0,159.75225,64,100,80
12560.0,59,1.0,84.66,1,0,0,138.91500000000002,64,100,80
12561.0,59,1.0,84.66,1,0,0,138.91500000000002,64,100,80
12562.0,66,0.25,84.66,1,0,0,138.91500000000002,64,100,80
12562.25,59,1.0,84.66,1,0,0,138.91500000000002,64,100,80
12563.25,64,1.0,84.66,1,0,0,138.91500000000002,64,100,80
12564.25,61,0.5,84.66,1,0,0,138.91500000000002,64,100,80
12564.75,70,2.0,84.66,1,0,0,138.91500000000002,64,100,80
12566.75,59,1.0,84.66,1,0,0,138.91500000000002,64,100,80
12567.75,59,1.0,84.66,1,0,0,167.73986250000002,64,100,80
12568.75,61,0.5,84.66,1,0,0,145.86075000000002,64,100,80
12569.25,64,1.0,84.66,49,9,0,145.86075000000002,64,100,80
12570.25,59,1.0,84.66,1,0,0,145.86075000000002,64,100,80
12571.25,68,2.0,84.66,1,0,0,145.86075000000002,64,100,80
12573.25,59,1.0,84.66,1,0,0,145.86075000000002,64,100,80
12574.25,59,1.0,84.66,1,0,0,176.12685562500005,64,100,80
12575.25,63,0.5,84.66,1,0,0,153.15378750000005,64,100,80
12575.75,59,1.0,84.66,1,0,0,153.15378750000005,64,100,80
12576.75,61,0.5,84.66,1,0,0,153.15378750000005,64,100,80
12577.25,61,0.5,84.66,1,0,0,184.93319840625003,64,100,80
12577.75,63,0.5,84.66,49,9,0,160.81147687500004,64,100,80
12578.25,64,1.0,84.66,1,0,0,160.81147687500004,64,100,80
12579.25,66,0.25,84.66,1,0,0,160.81147687500004,64,100,80
12579.5,64,1.0,84.66,1,0,0,160.81147687500004,64,100,80
12580.5,59,1.0,52.91,1,0,0,160.81147687500004,64,100,80
12581.5,66,0.25,52.91,1,0,0,160.81147687500004,64,100,80
12581.75,64,1.0,52.91,49,9,0,160.81147687500004,64,100,80
12582.75,59,1.0,52.91,1,0,0,160.81147687500004,64,100,80
12583.75,59,1.0,52.91,1,0,0,194.17985832656254,64,100,80
12584.75,61,0.5,52.91,1,0,0,168.85205071875006,64,100,80
12585.25,59,1.0,52.91,1,0,0,168.85205071875006,64,100,80
12586.25,61,0.5,52.91,1,0,0,168.85205071875006,64,100,80
12586.75,64,1.0,52.91,1,0,0,168.85205071875006,64,100,80
12587.75,68,2.0,52.91,50,9,0,168.85205071875006,64,100,80
12589.75,68,2.0,52.91,1,0,0,168.85205071875006,64,100,80
12591.75,59,1.0,52.91,1,0,0,168.85205071875006,64,100,80
12592.75,61,0.5,95.25,1,0,0,168.85205071875006,64,100,80
12593.25,68,2.0,95.25,1,0,0,168.85205071875006,64,100,80
12595.25,66,0.25,95.25,1,0,0,168.85205071875006,64,100,80
12595.5,63,0.5,95.25,1,0,0,168.85205071875006,64,100,80
12596.0,0,1.0,95.25,49,9,0,120.0,64,100,80
12597.0,62,0.5,95.25,51,9,0,120.0,64,100,80
12597.5,64,1.0,95.25,50,9,0,120.0,64,100,80
12598.5,59,1.0,95.25,1,0,0,120.0,64,100,80
12599.5,68,2.0,95.25,1,0,0,120.0,64,100,80
12601.5,59,1.0,95.25,1,0,0,120.0,64,100,80
12602.5,61,0.5,95.25,1,0,0,120.0,64,100,80
12603.0,59,1.0,95.25,1,0,0,120.0,64,100,80
12604.0,59,1.0,74.08,1,0,0,144.9,64,100,80
12605.0,68,2.0,74.08,1,0,0,126.0,64,100,80
12607.0,61,0.5,74.08,1,0,0,126.0,64,100,80
12607.5,64,1.0,74.08,1,0,0,126.0,64,100,80
12608.5,61,0.5,74.08,1,0,0,126.0,64,100,80
12609.0,61,0.5,74.08,1,0,0,126.0,64,100,80
12609.5,68,2.0,74.08,1,0,0,126.0,64,100,80
12611.5,68,2.0,74.08,1,0,0,126.0,64,100,80
12613.5,66,0.25,74.08,1,0,0,126.0,64,100,80
12613.75,59,1.0,74.08,1,0,0,126.0,64,100,80
12614.75,70,2.0,74.08,1,0,0,126.0,64,100,80
12616.75,59,1.0,74.08,1,0,0,126.0,64,100,80
12617.75,63,0.5,84.66,1,0,0,126.0,64,100,80
12618.25,61,0.5,84.66,1,0,0,126.0,64,100,80
12618.75,61,0.5,84.66,1,0,0,126.0,64,100,80
12619.25,68,2.0,84.66,1,0,0,126.0,64,100,80
12621.25,68,2.0,84.66,1,0,0,126.0,64,100,80
12623.25,63,0.5,84.66,49,9,0,126.0,64,100,80
12623.75,63,0.5,84.66,1,0,0,126.0,64,100,80
12624.25,59,1.0,84.66,1,0,0,126.0,64,100,80
12625.25,59,1.0,84.66,1,0,0,126.0,64,100,80
12626.25,66,0.25,84.66,1,0,0,126.0,64,100,80
12626.5,61,0.5,84.66,1,0,0,126.0,64,100,80
12627.0,68,2.0,84.66,1,0,0,126.0,64,100,80
12629.0,61,0.5,63.5,1,0,0,126.0,64,100,80
12629.5,68,2.0,63.5,1,0,0,126.0,64,100,80
12631.5,59,1.0,63.5,1,0,0,126.0,64,100,80
12632.5,63,0.5,63.5,1,0,0,126.0,64,100,80
12633.0,59,1.0,63.5,1,0,0,126.0,64,100,80
12634.0,61,0.5,63.5,1,0,0,126.0,64,100,80
12634.5,61,0.5,63.5,1,0,0,152.14499999999998,64,100,80
12635.0,61,0.5,63.5,1,0,0,319.5045,64,100,80
12635.5,63,0.5,63.5,50,9,0,138.91500000000002,64,100,80
12636.0,66,0.25,63.5,1,0,0,138.91500000000002,64,100,80
12636.25,59,1.0,63.5,1,0,0,138.91500000000002,64,100,80
12637.25,68,2.0,63.5,51,9,0,138.91500000000002,64,100,80
12639.25,59,1.0,52.91,1,0,0,138.91500000000002,64,100,80
12640.25,64,1.0,52.91,1,0,0,138.91500000000002,64,100,80
12641.25,61,0.5,52.91,1,0,0,138.91500000000002,64,100,80
12641.75,63,0.5,52.91,49,9,0,138.91500000000002,64,100,80
12642.25,61,0.5,52.91,1,0,0,138.91500000000002,64,100,80
12642.75,59,1.0,52.91,1,0,0,138.91500000000002,64,100,80
12643.75,68,2.0,52.91,1,0,0,138.91500000000002,64,100,80
12645.75,64,1.0,52.91,1,0,0,138.91500000000002,64,100,80
12646.75,70,2.0,52.91,1,0,0,138.91500000000002,64,100,80
12648.75,59,1.0,52.91,1,0,0,138.91500000000002,64,100,80
12649.75,61,0.5,52.91,1,0,0,138.91500000000002,64,100,80
12650.25,0,1.0,52.91,49,9,0,120.0,64,100,80
12651.25,64,0.5,84.66,1,0,0,120.0,64,100,80
12651.75,65,1.0,84.66,1,0,0,120.0,64,100,80
12652.75,67,0.25,84.66,1,0,0,120.0,64,100,80
12653.0,65,1.0,84.66,1,0,0,120.0,64,100,80
12654.0,60,1.0,84.66,1,0,0,120.0,64,100,80
12655.0,69,2.0,84.66,1,0,0,120.0,64,100,80
12657.0,64,0.5,84.66,1,0,0,120.0,64,100,80
12657.5,67,0.25,84.66,1,0,0,120.0,64,100,80
12657.75,71,2.0,84.66,50,9,0,120.0,64,100,80
12659.75,69,2.0,84.66,1,0,0,120.0,64,100,80
12661.75,62,0.5,84.66,1,0,0,120.0,64,100,80
12662.25,69,2.0,84.66,1,0,0,120.0,64,100,80
12664.25,64,1.0,74.08,49,9,0,120.0,64,100,80
12665.25,61,0.5,74.08,1,0,0,120.0,64,100,80
12665.75,70,2.0,74.08,1,0,0,120.0,64,100,80
12667.75,63,0.5,74.08,49,9,0,120.0,64,100,80
12668.25,66,0.25,74.08,1,0,0,120.0,64,100,80
12668.5,68,2.0,74.08,1,0,0,120.0,64,100,80
12670.5,68,2.0,74.08,1,0,0,144.9,64,100,80
12672.5,68,2.0,74.08,39,9,0,304.28999999999996,64,100,80
12674.5,59,1.0,74.08,1,0,0,132.3,64,100,80
12675.5,70,2.0,74.08,1,0,0,132.3,64,100,80
12677.5,61,0.5,74.08,1,0,0,132.3,64,100,80
12678.0,68,2.0,74.08,1,0,0,132.3,64,100,80
12680.0,63,0.5,105.83,1,0,0,132.3,64,100,80
12680.5,66,0.25,105.83,1,0,0,132.3,64,100,80
12680.75,59,1.0,105.83,1,0,0,132.3,64,100,80
12681.75,61,0.5,105.83,1,0,0,132.3,64,100,80
12682.25,59,1.0,105.83,1,0,0,132.3,64,100,80
12683.25,70,2.0,105.83,1,0,0,132.3,64,100,80
12685.25,70,2.0,105.83,1,0,0,132.3,64,100,80
12687.25,59,1.0,105.83,1,0,0,132.3,64,100,80
12688.25,68,2.0,105.83,1,0,0,132.3,64,100,80
12690.25,0,1.0,105.83,49,9,0,120.0,64,100,80
12691.25,69,2.0,105.83,49,9,0,120.0,64,100,80
12693.25,65,1.0,105.83,1,0,0,120.0,64,100,80
12694.25,64,0.5,63.5,49,9,0,120.0,64,100,80
12694.75,60,1.0,63.5,1,0,0,120.0,64,100,80
12695.75,60,1.0,63.5,1,0,0,120.0,64,100,80
12696.75,60,1.0,63.5,1,0,0,120.0,64,100,80
12697.75,67,0.25,63.5,1,0,0,120.0,64,100,80
12698.0,65,1.0,63.5,1,0,0,120.0,64,100,80
12699.0,62,0.5,63.5,1,0,0,120.0,64,100,80
12699.5,65,1.0,63.5,49,9,0,120.0,64,100,80
12700.5,62,0.5,63.5,1,0,0,120.0,64,100,80
12701.0,60,1.0,63.5,1,0,0,120.0,64,100,80
12702.0,64,0.5,63.5,49,9,0,120.0,64,100,80
12702.5,65,1.0,63.5,1,0,0,120.0,64,100,80
12703.5,67,0.25,74.08,1,0,0,120.0,64,100,80
12703.75,60,1.0,74.08,1,0,0,120.0,64,100,80
12704.75,65,1.0,74.08,1,0,0,120.0,64,100,80
12705.75,60,1.0,74.08,49,9,0,120.0,64,100,80
12706.75,62,0.5,74.08,1,0,0,120.0,64,100,80
12707.25,65,1.0,74.08,1,0,0,120.0,64,100,80
12708.25,64,0.5,74.08,1,0,0,120.0,64,100,80
12708.75,60,1.0,74.08,1,0,0,120.0,64,100,80
12709.75,71,2.0,74.08,1,0,0,120.0,64,100,80
12711.75,62,0.5,74.08,1,0,0,120.0,64,100,80
12712.25,69,2.0,74.08,49,9,0,120.0,64,100,80
12714.25,65,1.0,74.08,1,0,0,120.0,64,100,80
12715.25,69,2.0,63.5,1,0,0,120.0,64,100,80
12717.25,60,1.0,63.5,1,0,0,120.0,64,100,80
12718.25,69,2.0,63.5,1,0,0,120.0,64,100,80
12720.25,60,1.0,63.5,1,0,0,120.0,64,100,80
12721.25,0,1.0,63.5,49,9,0,120.0,64,100,80
12722.25,64,0.5,63.5,1,0,0,120.0,64,100,80
12722.75,67,0.25,63.5,1,0,0,120.0,64,100,80
12723.0,64,0.5,63.5,1,0,0,120.0,64,100,80
12723.5,60,1.0,63.5,1,0,0,120.0,64,100,80
12724.5,60,1.0,63.5,1,0,0,144.9,64,100,80
12725.5,62,0.5,63.5,1,0,0,126.0,64,100,80
12726.0,67,0.25,63.5,51,9,0,126.0,64,100,80
12726.25,67,0.25,74.08,50,9,0,126.0,64,100,80
12726.5,69,2.0,74.08,40,9,0,126.0,64,100,80
12728.5,62,0.5,74.08,1,0,0,126.0,64,100,80
12729.0,65,1.0,74.08,1,0,0,126.0,64,100,80
12730.0,60,1.0,74.08,1,0,0,126.0,64,100,80
12731.0,65,1.0,74.08,1,0,0,126.0,64,100,80
12732.0,64,0.5,74.08,1,0,0,126.0,64,100,80
12732.5,71,2.0,74.08,1,0,0,126.0,64,100,80
12734.5,67,0.25,74.08,1,0,0,126.0,64,100,80
12734.75,64,0.5,74.08,1,0,0,126.0,64,100,80
12735.25,60,1.0,74.08,1,0,0,126.0,64,100,80
12736.25,64,0.5,74.08,1,0,0,126.0,64,100,80
12736.75,62,0.5,52.91,1,0,0,126.0,64,100,80
12737.25,69,2.0,52.91,1,0,0,126.0,64,100,80
12739.25,64,0.5,52.91,1,0,0,126.0,64,100,80
12739.75,69,2.0,52.91,1,0,0,126.0,64,100,80
12741.75,60,1.0,52.91,1,0,0,126.0,64,100,80
12742.75,65,1.0,52.91,1,0,0,126.0,64,100,80
12743.75,71,2.0,52.91,1,0,0,126.0,64,100,80
12745.75,64,0.5,52.91,1,0,0,126.0,64,100,80
12746.25,64,0.5,52.91,1,0,0,126.0,64,100,80
12746.75,60,1.0,52.91,1,0,0,126.0,64,100,80
12747.75,71,2.0,52.91,1,0,0,126.0,64,100,80
12749.75,67,0.25,52.91,1,0,0,126.0,64,100,80
12750.0,65,1.0,63.5,1,0,0,126.0,64,100,80
12751.0,62,0.5,63.5,1,0,0,126.0,64,100,80
12751.5,62,0.5,63.5,1,0,0,126.0,64,100,80
12752.0,62,0.5,63.5,1,0,0,152.14499999999998,64,100,80
12752.5,60,1.0,63.5,1,0,0,132.3,64,100,80
12753.5,69,2.0,63.5,1,0,0,132.3,64,100,80
12755.5,64,0.5,63.5,1,0,0,132.3,64,100,80
12756.0,67,0.25,63.5,1,0,0,132.3,64,100,80
12756.25,60,1.0,63.5,1,0,0,132.3,64,100,80
12757.25,69,2.0,63.5,1,0,0,132.3,64,100,80
12759.25,64,0.5,63.5,1,0,0,132.3,64,100,80
12759.75,69,2.0,63.5,1,0,0,132.3,64,100,80
12761.75,62,0.5,31.75,1,0,0,132.3,64,100,80
12762.25,62,0.5,31.75,1,0,0,159.75225,64,100,80
12762.75,62,0.5,31.75,1,0,0,138.91500000000002,64,100,80
12763.25,60,1.0,31.75,1,0,0,138.91500000000002,64,100,80
12764.25,60,1.0,31.75,1,0,0,138.91500000000002,64,100,80
12765.25,64,0.5,31.75,1,0,0,138.91500000000002,64,100,80
12765.75,60,1.0,31.75,1,0,0,138.91500000000002,64,100,80
12766.75,71,2.0,31.75,51,9,0,138.91500000000002,64,100,80
12768.75,71,2.0,31.75,51,9,0,138.91500000000002,64,100,80
12770.75,62,0.5,31.75,1,0,0,138.91500000000002,64,100,80
12771.25,69,2.0,31.75,1,0,0,138.91500000000002,64,100,80
12773.25,60,1.0,31.75,1,0,0,138.91500000000002,64,100,80
12774.25,60,1.0,42.33,1,0,0,138.91500000000002,64,100,80
12775.25,65,1.0,42.33,1,0,0,138.91500000000002,64,100,80
12776.25,65,1.0,42.33,1,0,0,167.73986250000002,64,100,80
12777.25,62,0.5,42.33,1,0,0,145.86075000000002,64,100,80
12777.75,69,2.0,42.33,1,0,0,145.86075000000002,64,100,80
12779.75,64,0.5,42.33,1,0,0,145.86075000000002,64,100,80
12780.25,60,1.0,42.33,1,0,0,145.86075000000002,64,100,80
12781.25,62,0.5,42.33,1,0,0,145.86075000000002,64,100,80
12781.75,62,0.5,42.33,1,0,0,145.86075000000002,64,100,80
12782.25,62,0.5,42.33,1,0,0,145.86075000000002,64,100,80
12782.75,60,1.0,42.33,1,0,0,145.86075000000002,64,100,80
12783.75,67,0.25,42.33,1,0,0,145.86075000000002,64,100,80
12784.0,64,0.5,31.75,1,0,0,145.86075000000002,64,100,80
12784.5,60,1.0,31.75,1,0,0,145.86075000000002,64,100,80
12785.5,60,1.0,31.75,50,9,0,145.86075000000002,64,100,80
12786.5,62,0.5,31.75,49,9,0,145.86075000000002,64,100,80
12787.0,62,0.5,31.75,1,0,0,145.86075000000002,64,100,80
12787.5,60,1.0,31.75,1,0,0,145.86075000000002,64,100,80
12788.5,62,0.5,31.75,1,0,0,145.86075000000002,64,100,80
12789.0,64,0.5,31.75,50,9,0,145.86075000000002,64,100,80
12789.5,69,2.0,31.75,1,0,0,145.86075000000002,64,100,80
12791.5,62,0.5,31.75,1,0,0,145.86075000000002,64,100,80
12792.0,64,0.5,31.75,1,0,0,145.86075000000002,64,100,80
12792.5,64,0.5,31.75,1,0,0,176.12685562500005,64,100,80
12793.0,69,2.0,63.5,1,0,0,153.15378750000005,64,100,80
12795.0,60,1.0,63.5,1,0,0,153.15378750000005,64,100,80
12796.0,60,1.0,63.5,1,0,0,184.93319840625003,64,100,80
12797.0,62,0.5,63.5,1,0,0,160.81147687500004,64,100,80
12797.5,69,2.0,63.5,1,0,0,160.81147687500004,64,100,80
12799.5,62,0.5,63.5,1,0,0,160.81147687500004,64,100,80
12800.0,64,0.5,63.5,1,0,0,160.81147687500004,64,100,80
12800.5,62,0.5,63.5,1,0,0,160.81147687500004,64,100,80
12801.0,64,0.5,63.5,1,0,0,160.81147687500004,64,100,80
12801.5,67,0.25,63.5,1,0,0,160.81147687500004,64,100,80
12801.75,64,0.5,63.5,1,0,0,160.81147687500004,64,100,80
12802.25,69,2.0,63.5,1,0,0,160.81147687500004,64,100,80
12804.25,60,1.0,74.08,1,0,0,160.81147687500004,64,100,80
12805.25,60,1.0,74.08,1,0,0,194.17985832656254,64,100,80
12806.25,62,0.5,74.08,1,0,0,168.85205071875006,64,100,80
12806.75,0,1.0,74.08,49,9,0,120.0,64,100,80
12807.75,64,0.5,74.08,1,0,0,120.0,64,100,80
12808.25,69,2.0,74.08,51,9,0,120.0,64,100,80
12810.25,60,1.0,74.08,1,0,0,120.0,64,100,80
12811.25,64,0.5,74.08,1,0,0,120.0,64,100,80
12811.75,64,0.5,74.08,1,0,0,144.9,64,100,80
12812.25,60,1.0,74.08,49,9,0,126.0,64,100,80
12813.25,67,0.25,74.08,1,0,0,126.0,64,100,80
12813.5,60,1.0,74.08,1,0,0,126.0,64,100,80
12814.5,62,0.5,63.5,1,0,0,126.0,64,100,80
12815.0,60,1.0,63.5,1,0,0,126.0,64,100,80
12816.0,62,0.5,63.5,1,0,0,126.0,64,100,80
12816.5,60,1.0,63.5,1,0,0,126.0,64,100,80
12817.5,62,0.5,63.5,1,0,0,126.0,64,100,80
12818.0,60,1.0,63.5,1,0,0,126.0,64,100,80
12819.0,60,1.0,63.5,1,0,0,152.14499999999998,64,100,80
12820.0,60,1.0,63.5,1,0,0,319.5045,64,100,80
12821.0,71,2.0,63.5,1,0,0,138.91500000000002,64,100,80
12823.0,64,0.5,63.5,1,0,0,138.91500000000002,64,100,80
12823.5,62,0.5,63.5,1,0,0,138.91500000000002,64,100,80
12824.0,64,0.5,63.5,1,0,0,138.91500000000002,64,100,80
12824.5,67,0.25,52.91,1,0,0,138.91500000000002,64,100,80
12824.75,69,2.0,52.91,1,0,0,138.91500000000002,64,100,80
12826.75,64,0.5,52.91,1,0,0,138.91500000000002,64,100,80
12827.25,69,2.0,52.91,1,0,0,138.91500000000002,64,100,80
12829.25,69,2.0,52.91,1,0,0,138.91500000000002,64,100,80
12831.25,62,0.5,52.91,1,0,0,138.91500000000002,64,100,80
12831.75,62,0.5,52.91,1,0,0,138.91500000000002,64,100,80
12832.25,69,2.0,52.91,49,9,0,138.91500000000002,64,100,80
12834.25,65,1.0,52.91,1,0,0,138.91500000000002,64,100,80
12835.25,65,1.0,52.91,1,0,0,167.73986250000002,64,100,80
12836.25,64,0.5,52.91,1,0,0,145.86075000000002,64,100,80
12836.75,69,2.0,52.91,1,0,0,145.86075000000002,64,100,80
12838.75,62,0.5,63.5,1,0,0,145.86075000000002,64,100,80
12839.25,64,0.5,63.5,1,0,0,145.86075000000002,64,100,80
12839.75,62,0.5,63.5,1,0,0,145.86075000000002,64,100,80
12840.25,65,1.0,63.5,51,9,0,145.86075000000002,64,100,80
12841.25,71,2.0,63.5,51,9,0,145.86075000000002,64,100,80
12843.25,64,0.5,63.5,1,0,0,145.86075000000002,64,100,80
12843.75,64,0.5,63.5,1,0,0,145.86075000000002,64,100,80
12844.25,60,1.0,63.5,1,0,0,145.86075000000002,64,100,80
12845.25,62,0.5,63.5,1,0,0,145.86075000000002,64,100,80
12845.75,62,0.5,63.5,1,0,0,176.12685562500005,64,100,80
12846.25,60,1.0,63.5,1,0,0,153.15378750000005,64,100,80
12847.25,62,0.5,63.5,1,0,0,153.15378750000005,64,100,80
12847.75,71,2.0,52.91,1,0,0,153.15378750000005,64,100,80
12849.75,64,0.5,52.91,1,0,0,153.15378750000005,64,100,80
12850.25,64,0.5,52.91,1,0,0,184.93319840625003,64,100,80
12850.75,60,1.0,52.91,1,0,0,160.81147687500004,64,100,80
12851.75,69,2.0,52.91,1,0,0,160.81147687500004,64,100,80
12853.75,62,0.5,52.91,1,0,0,160.81147687500004,64,100,80
12854.25,60,1.0,52.91,49,9,0,160.81147687500004,64,100,80
12855.25,65,1.0,52.91,1,0,0,160.81147687500004,64,100,80
12856.25,69,2.0,52.91,1,0,0,160.81147687500004,64,100,80
12858.25,60,1.0,52.91,51,9,0,160.81147687500004,64,100,80
12859.25,67,0.25,52.91,49,9,0,160.81147687500004,64,100,80
12859.5,60,1.0,52.91,50,9,0,160.81147687500004,64,100,80
12860.5,62,0.5,52.91,1,0,0,160.81147687500004,64,100,80
12861.0,64,0.5,52.91,49,9,0,160.81147687500004,64,100,80
12861.5,62,0.5,52.91,39,9,0,160.81147687500004,64,100,80
12862.0,60,1.0,52.91,1,0,0,160.81147687500004,64,100,80
12863.0,60,1.0,52.91,1,0,0,160.81147687500004,64,100,80
12864.0,60,1.0,52.91,1,0,0,194.17985832656254,64,100,80
12865.0,67,0.25,52.91,1,0,0,168.85205071875006,64,100,80
12865.25,60,1.0,52.91,1,0,0,168.85205071875006,64,100,80
12866.25,0,1.0,52.91,49,9,0,120.0,64,100,80
12867.25,64,0.5,52.91,1,0,0,120.0,64,100,80
12867.75,69,2.0,52.91,1,0,0,120.0,64,100,80
12869.75,69,2.0,52.91,1,0,0,144.9,64,100,80
12871.75,0,1.0,74.08,49,9,0,120.0,64,100,80
12872.75,62,0.5,74.08,50,9,0,120.0,64,100,80
12873.25,62,0.5,74.08,1,0,0,120.0,64,100,80
12873.75,64,0.5,74.08,1,0,0,120.0,64,100,80
12874.25,60,1.0,74.08,1,0,0,120.0,64,100,80
12875.25,65,1.0,74.08,1,0,0,120.0,64,100,80
12876.25,71,2.0,74.08,49,9,0,120.0,64,100,80
12878.25,62,0.5,74.08,1,0,0,120.0,64,100,80
12878.75,0,1.0,74.08,49,9,0,120.0,64,100,80
12879.75,62,0.5,74.08,49,9,0,120.0,64,100,80
12880.25,64,0.5,74.08,50,9,0,120.0,64,100,80
12880.75,65,1.0,74.08,1,0,0,120.0,64,100,80
12881.75,64,0.5,74.08,1,0,0,120.0,64,100,80
12882.25,65,1.0,74.08,1,0,0,120.0,64,100,80
12883.25,62,0.5,74.08,1,0,0,120.0,64,100,80
12883.75,60,1.0,74.08,1,0,0,120.0,64,100,80
12884.75,71,2.0,74.08,1,0,0,120.0,64,100,80
12886.75,65,1.0,74.08,1,0,0,120.0,64,100,80
12887.75,64,0.5,74.08,1,0,0,120.0,64,100,80
12888.25,62,0.5,74.08,1,0,0,120.0,64,100,80
12888.75,69,2.0,74.08,1,0,0,120.0,64,100,80
12890.75,71,2.0,74.08,1,0,0,120.0,64,100,80
12892.75,62,0.5,74.08,1,0,0,120.0,64,100,80
12893.25,69,2.0,74.08,1,0,0,120.0,64,100,80
12895.25,64,0.5,84.66,1,0,0,120.0,64,100,80
12895.75,71,2.0,84.66,1,0,0,120.0,64,100,80
12897.75,62,0.5,84.66,1,0,0,120.0,64,100,80
12898.25,69,2.0,84.66,1,0,0,120.0,64,100,80
12900.25,65,1.0,84.66,1,0,0,120.0,64,100,80
12901.25,60,1.0,84.66,1,0,0,120.0,64,100,80
12902.25,65,1.0,84.66,50,9,0,120.0,64,100,80
12903.25,0,1.0,84.66,49,9,0,120.0,64,100,80
12904.25,67,0.25,84.66,1,0,0,120.0,64,100,80
12904.5,64,0.5,84.66,50,9,0,120.0,64,100,80
12905.0,60,1.0,84.66,1,0,0,120.0,64,100,80
12906.0,60,1.0,84.66,1,0,0,120.0,64,100,80
12907.0,60,1.0,84.66,1,0,0,120.0,64,100,80
12908.0,64,0.5,84.66,1,0,0,120.0,64,100,80
12908.5,67,0.25,84.66,1,0,0,120.0,64,100,80
12908.75,64,0.5,84.66,1,0,0,120.0,64,100,80
12909.25,64,0.5,84.66,1,0,0,120.0,64,100,80
12909.75,60,1.0,84.66,50,9,0,120.0,64,100,80
12910.75,62,0.5,84.66,49,9,0,120.0,64,100,80
12911.25,67,0.25,84.66,1,0,0,120.0,64,100,80
12911.5,67,0.25,84.66,1,0,0,120.0,64,100,80
12911.75,64,0.5,84.66,1,0,0,120.0,64,100,80
12912.25,71,2.0,84.66,1,0,0,120.0,64,100,80
12914.25,60,1.0,84.66,1,0,0,120.0,64,100,80
12915.25,71,2.0,74.08,1,0,0,120.0,64,100,80
12917.25,62,0.5,74.08,1,0,0,120.0,64,100,80
12917.75,62,0.5,74.08,1,0,0,120.0,64,100,80
12918.25,71,2.0,74.08,1,0,0,120.0,64,100,80
12920.25,71,2.0,74.08,1,0,0,144.9,64,100,80
12922.25,62,0.5,74.08,1,0,0,126.0,64,100,80
12922.75,60,1.0,74.08,1,0,0,126.0,64,100,80
12923.75,62,0.5,74.08,1,0,0,126.0,64,100,80
12924.25,62,0.5,74.08,1,0,0,152.14499999999998,64,100,80
12924.75,0,1.0,74.08,49,9,0,120.0,64,100,80
12925.75,60,1.0,74.08,1,0,0,120.0,64,100,80
12926.75,69,2.0,74.08,1,0,0,120.0,64,100,80
12928.75,60,1.0,63.5,1,0,0,120.0,64,100,80
12929.75,64,0.5,63.5,1,0,0,120.0,64,100,80
12930.25,67,0.25,63.5,1,0,0,120.0,64,100,80
12930.5,60,1.0,63.5,1,0,0,120.0,64,100,80
12931.5,60,1.0,63.5,1,0,0,144.9,64,100,80
12932.5,71,2.0,63.5,1,0,0,126.0,64,100,80
12934.5,60,1.0,63.5,1,0,0,126.0,64,100,80
12935.5,64,0.5,63.5,1,0,0,126.0,64,100,80
12936.0,64,0.5,63.5,1,0,0,152.14499999999998,64,100,80
12936.5,60,1.0,63.5,1,0,0,132.3,64,100,80
12937.5,69,2.0,63.5,1,0,0,132.3,64,100,80
12939.5,0,1.0,63.5,49,9,0,120.0,64,100,80
12940.5,60,1.0,84.66,1,0,0,120.0,64,100,80
12941.5,60,1.0,84.66,1,0,0,120.0,64,100,80
12942.5,69,2.0,84.66,1,0,0,120.0,64,100,80
12944.5,69,2.0,84.66,1,0,0,144.9,64,100,80
12946.5,64,0.5,84.66,1,0,0,126.0,64,100,80
12947.0,62,0.5,84.66,1,0,0,126.0,64,100,80
12947.5,64,0.5,84.66,1,0,0,126.0,64,100,80
12948.0,62,0.5,84.66,1,0,0,126.0,64,100,80
12948.5,62,0.5,84.66,50,9,0,126.0,64,100,80
12949.0,62,0.5,84.66,1,0,0,126.0,64,100,80
12949.5,64,0.5,84.66,49,9,0,126.0,64,100,80
12950.0,64,0.5,84.66,49,9,0,152.14499999999998,64,100,80
12950.5,62,0.5,74.08,1,0,0,132.3,64,100,80
12951.0,71,2.0,74.08,50,9,0,132.3,64,100,80
12953.0,69,2.0,74.08,1,0,0,132.3,64,100,80
12955.0,60,1.0,74.08,1,0,0,132.3,64,100,80
12956.0,60,1.0,74.08,1,0,0,159.75225,64,100,80
12957.0,71,2.0,74.08,1,0,0,138.91500000000002,64,100,80
12959.0,69,2.0,74.08,1,0,0,138.91500000000002,64,100,80
12961.0,71,2.0,74.08,1,0,0,138.91500000000002,64,100,80
12963.0,60,1.0,74.08,1,0,0,138.91500000000002,64,100,80
12964.0,65,1.0,74.08,1,0,0,138.91500000000002,64,100,80
12965.0,71,2.0,74.08,1,0,0,138.91500000000002,64,100,80
12967.0,62,0.5,74.08,1,0,0,138.91500000000002,64,100,80
12967.5,71,2.0,74.08,1,0,0,138.91500000000002,64,100,80
12969.5,64,0.5,74.08,1,0,0,138.91500000000002,64,100,80
12970.0,69,2.0,74.08,1,0,0,138.91500000000002,64,100,80
12972.0,60,1.0,74.08,1,0,0,138.91500000000002,64,100,80
12973.0,62,0.5,74.08,1,0,0,138.91500000000002,64,100,80
12973.5,69,2.0,74.08,1,0,0,138.91500000000002,64,100,80
12975.5,62,0.5,74.08,1,0,0,138.91500000000002,64,100,80
12976.0,67,0.25,74.08,1,0,0,138.91500000000002,64,100,80
12976.25,0,1.0,74.08,49,9,0,120.0,64,100,80
12977.25,71,2.0,74.08,1,0,0,120.0,64,100,80
12979.25,62,0.5,74.08,50,9,0,120.0,64,100,80
12979.75,62,0.5,74.08,1,0,0,120.0,64,100,80
12980.25,64,0.5,52.91,1,0,0,120.0,64,100,80
12980.75,62,0.5,52.91,1,0,0,120.0,64,100,80
12981.25,69,2.0,52.91,1,0,0,120.0,64,100,80
12983.25,60,1.0,52.91,1,0,0,120.0,64,100,80
12984.25,62,0.5,52.91,1,0,0,120.0,64,100,80
12984.75,60,1.0,52.91,1,0,0,120.0,64,100,80
12985.75,69,2.0,52.91,1,0,0,120.0,64,100,80
12987.75,60,1.0,52.91,1,0,0,120.0,64,100,80
12988.75,69,2.0,52.91,1,0,0,120.0,64,100,80
12990.75,62,0.5,52.91,1,0,0,120.0,64,100,80
12991.25,60,1.0,52.91,1,0,0,120.0,64,100,80
12992.25,64,0.5,52.91,1,0,0,120.0,64,100,80
12992.75,60,1.0,52.91,1,0,0,120.0,64,100,80
12993.75,64,0.5,52.91,1,0,0,120.0,64,100,80
12994.25,60,1.0,52.91,1,0,0,120.0,64,100,80
12995.25,62,0.5,52.91,1,0,0,120.0,64,100,80
12995.75,64,1.0,52.91,50,9,0,120.0,64,100,80
12996.75,63,0.5,52.91,1,0,0,120.0,64,100,80
12997.25,59,1.0,52.91,1,0,0,120.0,64,100,80
12998.25,61,0.5,52.91,1,0,0,120.0,64,100,80
12998.75,59,1.0,52.91,1,0,0,120.0,64,100,80
12999.75,0,1.0,52.91,49,9,0,120.0,64,100,80
13000.75,62,0.5,52.91,1,0,0,120.0,64,100,80
13001.25,71,2.0,52.91,1,0,0,120.0,64,100,80
13003.25,69,2.0,84.66,1,0,0,120.0,64,100,80
13005.25,60,1.0,84.66,1,0,0,120.0,64,100,80
13006.25,62,0.5,84.66,1,0,0,120.0,64,100,80
13006.75,60,1.0,84.66,1,0,0,120.0,64,100,80
13007.75,0,1.0,84.66,49,9,0,120.0,64,100,80
13008.75,67,0.25,84.66,1,0,0,120.0,64,100,80
13009.0,0,1.0,84.66,49,9,0,120.0,64,100,80
13010.0,60,1.0,84.66,1,0,0,120.0,64,100,80
13011.0,65,1.0,84.66,1,0,0,120.0,64,100,80
13012.0,71,2.0,84.66,1,0,0,120.0,64,100,80
13014.0,65,1.0,84.66,1,0,0,120.0,64,100,80
13015.0,65,1.0,84.66,49,9,0,120.0,64,100,80
13016.0,64,0.5,74.08,1,0,0,120.0,64,100,80
13016.5,69,2.0,74.08,1,0,0,120.0,64,100,80
13018.5,71,2.0,74.08,1,0,0,120.0,64,100,80
13020.5,69,2.0,74.08,1,0,0,120.0,64,100,80
13022.5,62,0.5,74.08,1,0,0,120.0,64,100,80
13023.0,60,1.0,74.08,1,0,0,120.0,64,100,80
13024.0,69,2.0,74.08,1,0,0,120.0,64,100,80
13026.0,0,1.0,74.08,49,9,0,120.0,64,100,80
13027.0,60,1.0,74.08,1,0,0,120.0,64,100,80
13028.0,67,0.25,74.08,1,0,0,120.0,64,100,80
13028.25,67,0.25,74.08,1,0,0,120.0,64,100,80
13028.5,71,2.0,74.08,1,0,0,120.0,64,100,80
13030.5,67,0.25,84.66,1,0,0,120.0,64,100,80
13030.75,62,0.5,84.66,1,0,0,120.0,64,100,80
13031.25,71,2.0,84.66,1,0,0,120.0,64,100,80
13033.25,64,0.5,84.66,1,0,0,120.0,64,100,80
13033.75,69,2.0,84.66,1,0,0,120.0,64,100,80
13035.75,60,1.0,84.66,1,0,0,120.0,64,100,80
13036.75,64,0.5,84.66,1,0,0,120.0,64,100,80
13037.25,65,1.0,84.66,1,0,0,120.0,64,100,80
13038.25,60,1.0,84.66,1,0,0,120.0,64,100,80
13039.25,69,2.0,84.66,1,0,0,120.0,64,100,80
13041.25,62,0.5,84.66,1,0,0,120.0,64,100,80
13041.75,64,0.5,84.66,1,0,0,120.0,64,100,80
13042.25,69,2.0,84.66,1,0,0,120.0,64,100,80
13044.25,60,1.0,84.66,1,0,0,120.0,64,100,80
13045.25,69,2.0,84.66,1,0,0,120.0,64,100,80
13047.25,60,1.0,84.66,1,0,0,120.0,64,100,80
13048.25,62,0.5,84.66,1,0,0,120.0,64,100,80
13048.75,65,1.0,84.66,49,9,0,120.0,64,100,80
13049.75,64,1.0,84.66,49,9,0,120.0,64,100,80
13050.75,66,0.25,84.66,1,0,0,120.0,64,100,80
13051.0,64,1.0,84.66,1,0,0,120.0,64,100,80
13052.0,59,1.0,84.66,1,0,0,120.0,64,100,80
13053.0,59,1.0,84.66,1,0,0,144.9,64,100,80
13054.0,0,1.0,84.66,49,9,0,120.0,64,100,80
13055.0,60,1.0,84.66,1,0,0,120.0,64,100,80
13056.0,64,0.5,84.66,1,0,0,120.0,64,100,80
13056.5,64,0.5,84.66,1,0,0,120.0,64,100,80
13057.0,71,2.0,84.66,1,0,0,120.0,64,100,80
13059.0,69,2.0,84.66,1,0,0,120.0,64,100,80
13061.0,62,0.5,84.66,1,0,0,120.0,64,100,80
13061.5,64,0.5,84.66,1,0,0,120.0,64,100,80
13062.0,60,1.0,84.66,49,9,0,120.0,64,100,80
13063.0,62,0.5,84.66,1,0,0,120.0,64,100,80
13063.5,64,0.5,84.66,1,0,0,120.0,64,100,80
13064.0,69,2.0,84.66,1,0,0,120.0,64,100,80
13066.0,62,0.5,84.66,1,0,0,120.0,64,100,80
13066.5,67,0.25,74.08,1,0,0,120.0,64,100,80
13066.75,65,1.0,74.08,1,0,0,120.0,64,100,80
13067.75,69,2.0,74.08,1,0,0,120.0,64,100,80
13069.75,62,0.5,74.08,1,0,0,120.0,64,100,80
13070.25,64,1.0,74.08,50,9,0,120.0,64,100,80
13071.25,64,1.0,74.08,1,0,0,120.0,64,100,80
13072.25,68,2.0,74.08,1,0,0,120.0,64,100,80
13074.25,63,0.5,74.08,49,9,0,120.0,64,100,80
13074.75,61,0.5,74.08,1,0,0,120.0,64,100,80
13075.25,61,0.5,74.08,1,0,0,120.0,64,100,80
13075.75,68,2.0,74.08,1,0,0,120.0,64,100,80
13077.75,61,0.5,74.08,1,0,0,120.0,64,100,80
13078.25,59,1.0,63.5,1,0,0,120.0,64,100,80
13079.25,61,0.5,63.5,1,0,0,120.0,64,100,80
13079.75,63,0.5,63.5,1,0,0,120.0,64,100,80
13080.25,63,0.5,63.5,1,0,0,144.9,64,100,80
13080.75,63,0.5,63.5,1,0,0,304.28999999999996,64,100,80
13081.25,63,0.5,63.5,1,0,0,479.25675,64,100,80
13081.75,59,1.0,63.5,1,0,0,138.91500000000002,64,100,80
13082.75,59,1.0,63.5,1,0,0,138.91500000000002,64,100,80
13083.75,64,1.0,63.5,1,0,0,138.91500000000002,64,100,80
13084.75,66,0.25,63.5,1,0,0,138.91500000000002,64,100,80
13085.0,59,1.0,63.5,1,0,0,138.91500000000002,64,100,80
13086.0,61,0.5,63.5,1,0,0,138.91500000000002,64,100,80
13086.5,59,1.0,84.66,1,0,0,138.91500000000002,64,100,80
13087.5,61,0.5,84.66,1,0,0,138.91500000000002,64,100,80
13088.0,66,0.25,84.66,1,0,0,138.91500000000002,64,100,80
13088.25,68,2.0,84.66,1,0,0,138.91500000000002,64,100,80
13090.25,70,2.0,84.66,1,0,0,138.91500000000002,64,100,80
13092.25,59,1.0,84.66,1,0,0,138.91500000000002,64,100,80
13093.25,68,2.0,84.66,1,0,0,138.91500000000002,64,100,80
13095.25,0,1.0,84.66,49,9,0,120.0,64,100,80
13096.25,69,2.0,84.66,1,0,0,120.0,64,100,80
13098.25,67,0.25,84.66,1,0,0,120.0,64,100,80
13098.5,65,1.0,84.66,1,0,0,120.0,64,100,80
13099.5,69,2.0,84.66,1,0,0,120.0,64,100,80
13101.5,60,1.0,116.41,1,0,0,120.0,64,100,80
13102.5,64,0.5,116.41,1,0,0,120.0,64,100,80
13103.0,69,2.0,116.41,51,9,0,120.0,64,100,80
13105.0,60,1.0,116.41,1,0,0,120.0,64,100,80
13106.0,69,2.0,116.41,1,0,0,120.0,64,100,80
13108.0,60,1.0,116.41,1,0,0,120.0,64,100,80
13109.0,71,2.0,116.41,1,0,0,120.0,64,100,80
13111.0,60,1.0,116.41,1,0,0,120.0,64,100,80
13112.0,65,1.0,116.41,1,0,0,120.0,64,100,80
13113.0,67,0.25,116.41,1,0,0,120.0,64,100,80
13113.25,60,1.0,116.41,1,0,0,120.0,64,100,80
13114.25,65,1.0,116.41,1,0,0,120.0,64,100,80
13115.25,60,1.0,63.5,1,0,0,120.0,64,100,80
13116.25,60,1.0,63.5,1,0,0,144.9,64,100,80
13117.25,64,0.5,63.5,1,0,0,126.0,64,100,80
13117.75,69,2.0,63.5,1,0,0,126.0,64,100,80
13119.75,71,2.0,63.5,1,0,0,126.0,64,100,80
13121.75,60,1.0,63.5,1,0,0,126.0,64,100,80
13122.75,65,1.0,63.5,1,0,0,126.0,64,100,80
13123.75,60,1.0,63.5,49,9,0,126.0,64,100,80
13124.75,64,0.5,63.5,1,0,0,126.0,64,100,80
13125.25,62,0.5,63.5,40,9,0,126.0,64,100,80
13125.75,64,0.5,63.5,1,0,0,126.0,64,100,80
13126.25,60,1.0,63.5,39,9,0,126.0,64,100,80
13127.25,60,1.0,42.33,1,0,0,126.0,64,100,80
13128.25,64,0.5,42.33,1,0,0,126.0,64,100,80
13128.75,71,2.0,42.33,1,0,0,126.0,64,100,80
13130.75,60,1.0,42.33,1,0,0,126.0,64,100,80
13131.75,69,2.0,42.33,1,0,0,126.0,64,100,80
13133.75,65,1.0,42.33,1,0,0,126.0,64,100,80
13134.75,62,0.5,42.33,1,0,0,126.0,64,100,80
13135.25,60,1.0,42.33,1,0,0,126.0,64,100,80
13136.25,65,1.0,42.33,1,0,0,126.0,64,100,80
13137.25,60,1.0,42.33,1,0,0,126.0,64,100,80
13138.25,69,2.0,42.33,1,0,0,126.0,64,100,80
13140.25,71,2.0,42.33,1,0,0,126.0,64,100,80
13142.25,64,0.5,42.33,1,0,0,126.0,64,100,80
13142.75,60,1.0,42.33,1,0,0,126.0,64,100,80
13143.75,69,2.0,42.33,50,9,0,126.0,64,100,80
13145.75,62,0.5,42.33,51,9,0,126.0,64,100,80
13146.25,67,0.25,42.33,1,0,0,126.0,64,100,80
13146.5,0,1.0,42.33,49,9,0,120.0,64,100,80
13147.5,71,2.0,42.33,1,0,0,120.0,64,100,80
13149.5,64,0.5,42.33,1,0,0,120.0,64,100,80
13150.0,60,1.0,42.33,1,0,0,120.0,64,100,80
13151.0,71,2.0,42.33,1,0,0,120.0,64,100,80
13153.0,71,2.0,42.33,51,9,0,120.0,64,100,80
13155.0,69,2.0,42.33,1,0,0,120.0,64,100,80
13157.0,67,0.25,74.08,49,9,0,120.0,64,100,80
13157.25,62,0.5,74.08,1,0,0,120.0,64,100,80
13157.75,62,0.5,74.08,1,0,0,120.0,64,100,80
13158.25,64,1.0,74.08,50,9,0,120.0,64,100,80
13159.25,61,0.5,74.08,1,0,0,120.0,64,100,80
13159.75,66,0.25,74.08,1,0,0,120.0,64,100,80
13160.0,61,0.5,74.08,1,0,0,120.0,64,100,80
13160.5,0,1.0,74.08,49,9,0,120.0,64,100,80
13161.5,64,0.5,74.08,1,0,0,120.0,64,100,80
13162.0,60,1.0,74.08,1,0,0,120.0,64,100,80
13163.0,62,0.5,74.08,1,0,0,120.0,64,100,80
13163.5,0,1.0,74.08,49,9,0,120.0,64,100,80
13164.5,71,2.0,74.08,49,9,0,120.0,64,100,80
13166.5,60,1.0,74.08,1,0,0,120.0,64,100,80
13167.5,64,0.5,74.08,1,0,0,120.0,64,100,80
13168.0,69,2.0,74.08,1,0,0,120.0,64,100,80
13170.0,0,1.0,74.08,49,9,0,120.0,64,100,80
13171.0,60,1.0,74.08,1,0,0,120.0,64,100,80
13172.0,62,0.5,74.08,1,0,0,120.0,64,100,80
13172.5,0,1.0,74.08,49,9,0,120.0,64,100,80
13173.5,64,0.5,74.08,1,0,0,120.0,64,100,80
13174.0,60,1.0,74.08,1,0,0,120.0,64,100,80
13175.0,64,0.5,74.08,49,9,0,120.0,64,100,80
13175.5,62,0.5,74.08,1,0,0,120.0,64,100,80
13176.0,65,1.0,42.33,1,0,0,120.0,64,100,80
13177.0,69,2.0,42.33,1,0,0,120.0,64,100,80
13179.0,65,1.0,42.33,1,0,0,120.0,64,100,80
13180.0,71,2.0,42.33,1,0,0,120.0,64,100,80
13182.0,64,0.5,42.33,1,0,0,120.0,64,100,80
13182.5,71,2.0,42.33,1,0,0,120.0,64,100,80
13184.5,60,1.0,42.33,1,0,0,120.0,64,100,80
13185.5,67,0.25,42.33,1,0,0,120.0,64,100,80
13185.75,64,0.5,42.33,1,0,0,120.0,64,100,80
13186.25,62,0.5,42.33,1,0,0,120.0,64,100,80
13186.75,69,2.0,42.33,1,0,0,120.0,64,100,80
13188.75,64,0.5,42.33,1,0,0,120.0,64,100,80
13189.25,71,2.0,52.91,1,0,0,120.0,64,100,80
13191.25,60,1.0,52.91,1,0,0,120.0,64,100,80
13192.25,71,2.0,52.91,1,0,0,120.0,64,100,80
13194.25,71,2.0,52.91,1,0,0,120.0,64,100,80
13196.25,64,0.5,52.91,1,0,0,120.0,64,100,80
13196.75,64,1.0,52.91,50,9,0,120.0,64,100,80
13197.75,0,1.0,52.91,49,9,0,120.0,64,100,80
13198.75,64,0.5,52.91,1,0,0,120.0,64,100,80
13199.25,60,1.0,52.91,1,0,0,120.0,64,100,80
13200.25,60,1.0,52.91,1,0,0,144.9,64,100,80
13201.25,67,0.25,52.91,1,0,0,126.0,64,100,80
13201.5,64,0.5,52.91,1,0,0,126.0,64,100,80
13202.0,64,0.5,95.25,1,0,0,126.0,64,100,80
13202.5,62,0.5,95.25,1,0,0,126.0,64,100,80
13203.0,65,1.0,95.25,1,0,0,126.0,64,100,80
13204.0,64,0.5,95.25,1,0,0,126.0,64,100,80
13204.5,62,0.5,95.25,1,0,0,126.0,64,100,80
13205.0,60,1.0,95.25,49,9,0,126.0,64,100,80
13206.0,65,1.0,95.25,1,0,0,126.0,64,100,80
13207.0,64,1.0,95.25,50,9,0,126.0,64,100,80
13208.0,61,0.5,95.25,1,0,0,126.0,64,100,80
13208.5,59,1.0,95.25,1,0,0,126.0,64,100,80
13209.5,68,2.0,95.25,1,0,0,126.0,64,100,80
13211.5,66,0.25,95.25,1,0,0,126.0,64,100,80
13211.75,68,2.0,74.08,1,0,0,126.0,64,100,80
13213.75,63,0.5,74.08,1,0,0,126.0,64,100,80
13214.25,68,2.0,74.08,1,0,0,126.0,64,100,80
13216.25,66,0.25,74.08,50,9,0,126.0,64,100,80
13216.5,59,1.0,74.08,1,0,0,126.0,64,100,80
13217.5,63,0.5,74.08,1,0,0,126.0,64,100,80
13218.0,59,1.0,74.08,1,0,0,126.0,64,100,80
13219.0,64,1.0,74.08,49,9,0,126.0,64,100,80
13220.0,61,0.5,74.08,1,0,0,126.0,64,100,80
13220.5,63,0.5,74.08,1,0,0,126.0,64,100,80
13221.0,70,2.0,74.08,1,0,0,126.0,64,100,80
13223.0,59,1.0,74.08,49,9,0,126.0,64,100,80
13224.0,61,0.5,63.5,1,0,0,126.0,64,100,80
13224.5,70,2.0,63.5,1,0,0,126.0,64,100,80
13226.5,61,0.5,63.5,1,0,0,126.0,64,100,80
13227.0,59,1.0,63.5,1,0,0,126.0,64,100,80
13228.0,61,0.5,63.5,1,0,0,126.0,64,100,80
13228.5,66,0.25,63.5,1,0,0,126.0,64,100,80
13228.75,68,2.0,63.5,1,0,0,126.0,64,100,80
13230.75,63,0.5,63.5,1,0,0,126.0,64,100,80
13231.25,59,1.0,63.5,1,0,0,126.0,64,100,80
13232.25,66,0.25,63.5,1,0,0,126.0,64,100,80
13232.5,68,2.0,63.5,1,0,0,126.0,64,100,80
13234.5,68,2.0,63.5,49,9,0,126.0,64,100,80
13236.5,64,1.0,74.08,1,0,0,126.0,64,100,80
13237.5,59,1.0,74.08,1,0,0,126.0,64,100,80
13238.5,63,0.5,74.08,1,0,0,126.0,64,100,80
13239.0,66,0.25,74.08,1,0,0,126.0,64,100,80
13239.25,68,2.0,74.08,1,0,0,126.0,64,100,80
13241.25,68,2.0,74.08,1,0,0,152.14499999999998,64,100,80
13243.25,68,2.0,74.08,1,0,0,319.5045,64,100,80
13245.25,68,2.0,74.08,1,0,0,503.2195875000001,64,100,80
13247.25,61,0.5,74.08,1,0,0,145.86075000000002,64,100,80
13247.75,68,2.0,74.08,1,0,0,145.86075000000002,64,100,80
13249.75,59,1.0,74.08,1,0,0,145.86075000000002,64,100,80
13250.75,64,1.0,74.08,1,0,0,145.86075000000002,64,100,80
13251.75,0,1.0,42.33,49,9,0,120.0,64,100,80
13252.75,60,1.0,42.33,1,0,0,120.0,64,100,80
13253.75,62,0.5,42.33,1,0,0,120.0,64,100,80
13254.25,67,0.25,42.33,1,0,0,120.0,64,100,80
13254.5,69,2.0,42.33,1,0,0,120.0,64,100,80
13256.5,60,1.0,42.33,1,0,0,120.0,64,100,80
13257.5,71,2.0,42.33,51,9,0,120.0,64,100,80
13259.5,62,0.5,42.33,1,0,0,120.0,64,100,80
13260.0,71,2.0,42.33,1,0,0,120.0,64,100,80
13262.0,65,1.0,42.33,1,0,0,120.0,64,100,80
13263.0,64,0.5,42.33,1,0,0,120.0,64,100,80
13263.5,60,1.0,42.33,1,0,0,120.0,64,100,80
13264.5,65,1.0,84.66,1,0,0,120.0,64,100,80
13265.5,67,0.25,84.66,1,0,0,120.0,64,100,80
13265.75,60,1.0,84.66,1,0,0,120.0,64,100,80
13266.75,60,1.0,84.66,1,0,0,144.9,64,100,80
13267.75,69,2.0,84.66,50,9,0,126.0,64,100,80
13269.75,62,0.5,84.66,49,9,0,126.0,64,100,80
13270.25,67,0.25,84.66,1,0,0,126.0,64,100,80
13270.5,60,1.0,84.66,1,0,0,126.0,64,100,80
13271.5,65,1.0,84.66,49,9,0,126.0,64,100,80
13272.5,62,0.5,84.66,1,0,0,126.0,64,100,80
13273.0,65,1.0,84.66,49,9,0,126.0,64,100,80
13274.0,65,1.0,84.66,1,0,0,152.14499999999998,64,100,80
13275.0,65,1.0,74.08,1,0,0,319.5045,64,100,80
13276.0,64,0.5,74.08,50,9,0,138.91500000000002,64,100,80
13276.5,60,1.0,74.08,1,0,0,138.91500000000002,64,100,80
13277.5,71,2.0,74.08,1,0,0,138.91500000000002,64,100,80
13279.5,64,0.5,74.08,1,0,0,138.91500000000002,64,100,80
13280.0,64,0.5,74.08,1,0,0,138.91500000000002,64,100,80
13280.5,62,0.5,74.08,1,0,0,138.91500000000002,64,100,80
13281.0,62,0.5,74.08,1,0,0,138.91500000000002,64,100,80
13281.5,60,1.0,74.08,1,0,0,138.91500000000002,64,100,80
13282.5,62,0.5,74.08,1,0,0,138.91500000000002,64,100,80
13283.0,64,0.5,74.08,1,0,0,138.91500000000002,64,100,80
13283.5,62,0.5,74.08,51,9,0,138.91500000000002,64,100,80
13284.0,60,1.0,74.08,1,0,0,138.91500000000002,64,100,80
13285.0,60,1.0,74.08,1,0,0,138.91500000000002,64,100,80
13286.0,60,1.0,74.08,1,0,0,138.91500000000002,64,100,80
13287.0,62,0.5,74.08,1,0,0,138.91500000000002,64,100,80
13287.5,64,0.5,74.08,1,0,0,138.91500000000002,64,100,80
13288.0,0,1.0,74.08,49,9,0,120.0,64,100,80
13289.0,60,1.0,74.08,1,0,0,120.0,64,100,80
13290.0,64,0.5,74.08,1,0,0,120.0,64,100,80
13290.5,67,0.25,74.08,1,0,0,120.0,64,100,80
13290.75,69,2.0,74.08,1,0,0,120.0,64,100,80
13292.75,71,2.0,74.08,1,0,0,120.0,64,100,80
13294.75,60,1.0,74.08,1,0,0,120.0,64,100,80
13295.75,62,0.5,116.41,1,0,0,120.0,64,100,80
13296.25,60,1.0,116.41,1,0,0,120.0,64,100,80
13297.25,60,1.0,116.41,1,0,0,120.0,64,100,80
13298.25,62,0.5,116.41,1,0,0,120.0,64,100,80
13298.75,60,1.0,116.41,1,0,0,120.0,64,100,80
13299.75,64,0.5,116.41,50,9,0,120.0,64,100,80
13300.25,62,0.5,116.41,1,0,0,120.0,64,100,80
13300.75,60,1.0,116.41,1,0,0,120.0,64,100,80
13301.75,60,1.0,116.41,1,0,0,144.9,64,100,80
13302.75,69,2.0,116.41,1,0,0,126.0,64,100,80
13304.75,71,2.0,116.41,1,0,0,126.0,64,100,80
13306.75,71,2.0,116.41,1,0,0,152.14499999999998,64,100,80
13308.75,69,2.0,74.08,1,0,0,132.3,64,100,80
13310.75,67,0.25,74.08,1,0,0,132.3,64,100,80
13311.0,69,2.0,74.08,1,0,0,132.3,64,100,80
13313.0,64,0.5,74.08,1,0,0,132.3,64,100,80
13313.5,64,0.5,74.08,1,0,0,159.75225,64,100,80
13314.0,64,0.5,74.08,1,0,0,138.91500000000002,64,100,80
13314.5,71,2.0,74.08,1,0,0,138.91500000000002,64,100,80
13316.5,65,1.0,74.08,1,0,0,138.91500000000002,64,100,80
13317.5,67,0.25,74.08,1,0,0,138.91500000000002,64,100,80
13317.75,69,2.0,74.08,1,0,0,138.91500000000002,64,100,80
13319.75,64,0.5,74.08,49,9,0,138.91500000000002,64,100,80
13320.25,62,0.5,74.08,1,0,0,138.91500000000002,64,100,80
13320.75,60,1.0,63.5,1,0,0,138.91500000000002,64,100,80
13321.75,60,1.0,63.5,1,0,0,167.73986250000002,64,100,80
13322.75,64,0.5,63.5,1,0,0,145.86075000000002,64,100,80
13323.25,71,2.0,63.5,1,0,0,145.86075000000002,64,100,80
13325.25,65,1.0,63.5,50,9,0,145.86075000000002,64,100,80
13326.25,62,0.5,63.5,1,0,0,145.86075000000002,64,100,80
13326.75,62,0.5,63.5,1,0,0,145.86075000000002,64,100,80
13327.25,64,0.5,63.5,1,0,0,145.86075000000002,64,100,80
13327.75,67,0.25,63.5,1,0,0,145.86075000000002,64,100,80
13328.0,71,2.0,63.5,1,0,0,145.86075000000002,64,100,80
13330.0,65,1.0,63.5,1,0,0,145.86075000000002,64,100,80
13331.0,71,2.0,63.5,1,0,0,145.86075000000002,64,100,80
13333.0,60,1.0,84.66,49,9,0,145.86075000000002,64,100,80
13334.0,65,1.0,84.66,1,0,0,145.86075000000002,64,100,80
13335.0,60,1.0,84.66,1,0,0,145.86075000000002,64,100,80
13336.0,65,1.0,84.66,1,0,0,145.86075000000002,64,100,80
13337.0,64,0.5,84.66,1,0,0,145.86075000000002,64,100,80
13337.5,64,0.5,84.66,1,0,0,176.12685562500005,64,100,80
13338.0,64,0.5,84.66,49,9,0,153.15378750000005,64,100,80
13338.5,67,0.25,84.66,1,0,0,153.15378750000005,64,100,80
13338.75,60,1.0,84.66,1,0,0,153.15378750000005,64,100,80
13339.75,67,0.25,84.66,1,0,0,153.15378750000005,64,100,80
13340.0,60,1.0,84.66,50,9,0,153.15378750000005,64,100,80
13341.0,67,0.25,84.66,1,0,0,153.15378750000005,64,100,80
13341.25,64,0.5,42.33,1,0,0,153.15378750000005,64,100,80
13341.75,60,1.0,42.33,1,0,0,153.15378750000005,64,100,80
13342.75,65,1.0,42.33,1,0,0,153.15378750000005,64,100,80
13343.75,64,0.5,42.33,1,0,0,153.15378750000005,64,100,80
13344.25,65,1.0,42.33,49,9,0,153.15378750000005,64,100,80
13345.25,62,0.5,42.33,1,0,0,153.15378750000005,64,100,80
13345.75,60,1.0,42.33,1,0,0,153.15378750000005,64,100,80
13346.75,60,1.0,42.33,1,0,0,153.15378750000005,64,100,80
13347.75,67,0.25,42.33,1,0,0,153.15378750000005,64,100,80
13348.0,60,1.0,42.33,1,0,0,153.15378750000005,64,100,80
13349.0,60,1.0,42.33,1,0,0,153.15378750000005,64,100,80
13350.0,67,0.25,42.33,1,0,0,153.15378750000005,64,100,80
13350.25,71,2.0,84.66,1,0,0,153.15378750000005,64,100,80
13352.25,64,0.5,84.66,1,0,0,153.15378750000005,64,100,80
13352.75,64,0.5,84.66,1,0,0,184.93319840625003,64,100,80
13353.25,60,1.0,84.66,1,0,0,160.81147687500004,64,100,80
13354.25,65,1.0,84.66,1,0,0,160.81147687500004,64,100,80
13355.25,60,1.0,84.66,1,0,0,160.81147687500004,64,100,80
13356.25,65,1.0,84.66,1,0,0,160.81147687500004,64,100,80
13357.25,64,0.5,84.66,1,0,0,160.81147687500004,64,100,80
13357.75,64,0.5,84.66,49,9,0,160.81147687500004,64,100,80
13358.25,64,1.0,84.66,50,9,0,160.81147687500004,64,100,80
13359.25,59,1.0,84.66,1,0,0,160.81147687500004,64,100,80
13360.25,63,0.5,84.66,1,0,0,160.81147687500004,64,100,80
13360.75,63,0.5,52.91,1,0,0,160.81147687500004,64,100,80
13361.25,63,0.5,52.91,49,9,0,194.17985832656254,64,100,80
13361.75,61,0.5,52.91,1,0,0,168.85205071875006,64,100,80
13362.25,68,2.0,52.91,1,0,0,168.85205071875006,64,100,80
13364.25,68,2.0,52.91,1,0,0,168.85205071875006,64,100,80
13366.25,61,0.5,52.91,1,0,0,168.85205071875006,64,100,80
13366.75,70,2.0,52.91,1,0,0,168.85205071875006,64,100,80
13368.75,64,1.0,52.91,49,9,0,168.85205071875006,64,100,80
13369.75,59,1.0,52.91,1,0,0,168.85205071875006,64,100,80
13370.75,59,1.0,52.91,1,0,0,168.85205071875006,64,100,80
13371.75,59,1.0,52.91,1,0,0,168.85205071875006,64,100,80
13372.75,59,1.0,52.91,1,0,0,203.8888512428907,64,100,80
13373.75,61,0.5,84.66,1,0,0,177.29465325468757,64,100,80
13374.25,59,1.0,84.66,1,0,0,177.29465325468757,64,100,80
13375.25,66,0.25,84.66,1,0,0,177.29465325468757,64,100,80
13375.5,59,1.0,84.66,1,0,0,177.29465325468757,64,100,80
13376.5,59,1.0,84.66,1,0,0,214.08329380503523,64,100,80
13377.5,68,2.0,84.66,1,0,0,186.15938591742196,64,100,80
13379.5,70,2.0,84.66,1,0,0,186.15938591742196,64,100,80
13381.5,66,0.25,84.66,1,0,0,186.15938591742196,64,100,80
13381.75,61,0.5,84.66,1,0,0,186.15938591742196,64,100,80
13382.25,63,0.5,84.66,1,0,0,186.15938591742196,64,100,80
13382.75,63,0.5,84.66,1,0,0,224.78745849528698,64,100,80
13383.25,59,1.0,84.66,1,0,0,195.46735521329305,64,100,80
13384.25,64,1.0,31.75,1,0,0,195.46735521329305,64,100,80
13385.25,59,1.0,31.75,1,0,0,195.46735521329305,64,100,80
13386.25,68,2.0,31.75,1,0,0,195.46735521329305,64,100,80
13388.25,68,2.0,31.75,1,0,0,236.02683142005134,64,100,80
13390.25,64,1.0,31.75,50,9,0,205.2407229739577,64,100,80
13391.25,61,0.5,31.75,1,0,0,205.2407229739577,64,100,80
13391.75,61,0.5,31.75,1,0,0,247.82817299105392,64,100,80
13392.25,59,1.0,31.75,1,0,0,215.50275912265562,64,100,80
13393.25,64,1.0,31.75,1,0,0,215.50275912265562,64,100,80
13394.25,66,0.25,31.75,1,0,0,215.50275912265562,64,100,80
13394.5,61,0.5,31.75,1,0,0,215.50275912265562,64,100,80
13395.0,61,0.5,31.75,40,9,0,215.50275912265562,64,100,80
13395.5,66,0.25,74.08,1,0,0,215.50275912265562,64,100,80
13395.75,61,0.5,74.08,1,0,0,215.50275912265562,64,100,80
13396.25,68,2.0,74.08,1,0,0,215.50275912265562,64,100,80
13398.25,59,1.0,74.08,1,0,0,215.50275912265562,64,100,80
13399.25,63,0.5,74.08,49,9,0,215.50275912265562,64,100,80
13399.75,59,1.0,74.08,1,0,0,215.50275912265562,64,100,80
13400.75,64,1.0,74.08,1,0,0,215.50275912265562,64,100,80
13401.75,61,0.5,74.08,49,9,0,215.50275912265562,64,100,80
13402.25,66,0.25,74.08,1,0,0,215.50275912265562,64,100,80
13402.5,64,1.0,74.08,1,0,0,215.50275912265562,64,100,80
13403.5,63,0.5,74.08,1,0,0,215.50275912265562,64,100,80
13404.0,64,1.0,74.08,1,0,0,215.50275912265562,64,100,80
13405.0,61,0.5,42.33,1,0,0,215.50275912265562,64,100,80
13405.5,61,0.5,42.33,1,0,0,215.50275912265562,64,100,80
13406.0,61,0.5,42.33,1,0,0,215.50275912265562,64,100,80
13406.5,61,0.5,42.33,1,0,0,215.50275912265562,64,100,80
13407.0,0,1.0,42.33,49,9,0,120.0,64,100,80
13408.0,0,1.0,42.33,49,9,0,144.9,64,100,80
13409.0,67,0.25,42.33,1,0,0,126.0,64,100,80
13409.25,67,0.25,42.33,1,0,0,152.14499999999998,64,100,80
13409.5,62,0.5,42.33,1,0,0,132.3,64,100,80
13410.0,60,1.0,42.33,1,0,0,132.3,64,100,80
13411.0,64,0.5,42.33,1,0,0,132.3,64,100,80
13411.5,60,1.0,42.33,1,0,0,132.3,64,100,80
13412.5,64,0.5,74.08,49,9,0,132.3,64,100,80
13413.0,64,0.5,74.08,1,0,0,159.75225,64,100,80
13413.5,69,2.0,74.08,1,0,0,138.91500000000002,64,100,80
13415.5,60,1.0,74.08,1,0,0,138.91500000000002,64,100,80
13416.5,60,1.0,74.08,1,0,0,167.73986250000002,64,100,80
13417.5,64,0.5,74.08,49,9,0,145.86075000000002,64,100,80
13418.0,60,1.0,74.08,1,0,0,145.86075000000002,64,100,80
13419.0,60,1.0,74.08,1,0,0,176.12685562500005,64,100,80
13420.0,69,2.0,74.08,1,0,0,153.15378750000005,64,100,80
13422.0,62,0.5,74.08,1,0,0,153.15378750000005,64,100,80
13422.5,67,0.25,74.08,1,0,0,153.15378750000005,64,100,80
13422.75,62,0.5,74.08,1,0,0,153.15378750000005,64,100,80
13423.25,65,1.0,84.66,49,9,0,153.15378750000005,64,100,80
13424.25,64,0.5,84.66,1,0,0,153.15378750000005,64,100,80
13424.75,60,1.0,84.66,1,0,0,153.15378750000005,64,100,80
13425.75,69,2.0,84.66,1,0,0,153.15378750000005,64,100,80
13427.75,69,2.0,84.66,1,0,0,153.15378750000005,64,100,80
13429.75,69,2.0,84.66,1,0,0,184.93319840625003,64,100,80
13431.75,64,0.5,84.66,1,0,0,160.81147687500004,64,100,80
13432.25,67,0.25,84.66,1,0,0,160.81147687500004,64,100,80
13432.5,69,2.0,84.66,1,0,0,160.81147687500004,64,100,80
13434.5,71,2.0,84.66,50,9,0,160.81147687500004,64,100,80
13436.5,69,2.0,84.66,1,0,0,160.81147687500004,64,100,80
13438.5,62,0.5,84.66,1,0,0,160.81147687500004,64,100,80
13439.0,69,2.0,63.5,1,0,0,160.81147687500004,64,100,80
13441.0,69,2.0,63.5,1,0,0,160.81147687500004,64,100,80
13443.0,67,0.25,63.5,1,0,0,160.81147687500004,64,100,80
13443.25,65,1.0,63.5,1,0,0,160.81147687500004,64,100,80
13444.25,65,1.0,63.5,1,0,0,194.17985832656254,64,100,80
13445.25,69,2.0,63.5,1,0,0,168.85205071875006,64,100,80
13447.25,64,0.5,63.5,1,0,0,168.85205071875006,64,100,80
13447.75,64,0.5,63.5,1,0,0,203.8888512428907,64,100,80
13448.25,60,1.0,63.5,1,0,0,177.29465325468757,64,100,80
13449.25,64,0.5,63.5,1,0,0,177.29465325468757,64,100,80
13449.75,67,0.25,63.5,1,0,0,177.29465325468757,64,100,80
13450.0,67,0.25,63.5,1,0,0,177.29465325468757,64,100,80
13450.25,69,2.0,84.66,50,9,0,177.29465325468757,64,100,80
13452.25,69,2.0,84.66,1,0,0,177.29465325468757,64,100,80
13454.25,64,0.5,84.66,49,9,0,177.29465325468757,64,100,80
13454.75,62,0.5,84.66,1,0,0,177.29465325468757,64,100,80
13455.25,64,0.5,84.66,1,0,0,177.29465325468757,64,100,80
13455.75,64,0.5,84.66,1,0,0,214.08329380503523,64,100,80
13456.25,65,1.0,84.66,1,0,0,186.15938591742196,64,100,80
13457.25,64,0.5,84.66,1,0,0,186.15938591742196,64,100,80
13457.75,62,0.5,84.66,1,0,0,186.15938591742196,64,100,80
13458.25,62,0.5,84.66,1,0,0,224.78745849528698,64,100,80
13458.75,71,2.0,84.66,1,0,0,195.46735521329305,64,100,80
