Time,Note,Duration,Velocity,Instrument,Channel,Track,Tempo,Pan,Volume,Expression
0.0,62,1.0,63,1,0,0,120,64,100,80
1.0,71,1.0,63,1,0,0,120,64,100,80
2.0,69,1.0,63,1,0,0,120,64,100,80
3.0,62,1.0,63,1,0,0,120,64,100,80
4.0,62,1.0,63,1,0,0,120,64,100,80
5.0,71,1.0,63,1,0,0,120,64,100,80
6.0,60,1.0,63,1,0,0,120,64,100,80
7.0,69,1.0,63,1,0,0,120,64,100,80
8.0,62,1.0,63,1,0,0,120,64,100,80
9.0,71,1.0,63,1,0,0,120,64,100,80
10.0,64,1.0,63,1,0,0,120,64,100,80
11.0,60,1.0,63,1,0,0,120,64,100,80
12.0,64,1.0,63,1,0,0,120,64,100,80
13.0,64,1.0,63,1,0,0,120,64,100,80
14.0,60,1.0,63,1,0,0,120,64,100,80
15.0,64,1.0,63,1,0,0,120,64,100,80
16.0,64,1.0,63,1,0,0,120,64,100,80
17.0,60,1.0,63,1,0,0,120,64,100,80
18.0,67,1.0,63,1,0,0,120,64,100,80
19.0,64,1.0,63,1,0,0,120,64,100,80
20.0,62,1.0,63,1,0,0,120,64,100,80
21.0,64,1.0,63,1,0,0,120,64,100,80
22.0,60,1.0,63,1,0,0,120,64,100,80
23.0,69,1.0,63,1,0,0,120,64,100,80
24.0,69,1.0,63,1,0,0,120,64,100,80
25.0,65,1.0,63,1,0,0,120,64,100,80
26.0,65,1.0,63,1,0,0,120,64,100,80
27.0,60,1.0,63,1,0,0,120,64,100,80
28.0,69,1.0,63,1,0,0,120,64,100,80
29.0,67,1.0,63,1,0,0,120,64,100,80
30.0,60,1.0,63,1,0,0,120,64,100,80
31.0,71,1.0,63,1,0,0,120,64,100,80
32.0,64,1.0,63,1,0,0,120,64,100,80
33.0,60,1.0,63,1,0,0,120,64,100,80
34.0,60,1.0,63,1,0,0,120,64,100,80
35.0,69,1.0,63,1,0,0,120,64,100,80
36.0,60,1.0,63,1,0,0,120,64,100,80
37.0,69,1.0,63,1,0,0,120,64,100,80
38.0,60,1.0,63,1,0,0,120,64,100,80
39.0,69,1.0,63,1,0,0,120,64,100,80
40.0,60,1.0,63,1,0,0,120,64,100,80
41.0,64,1.0,63,1,0,0,120,64,100,80
42.0,64,1.0,63,1,0,0,120,64,100,80
43.0,60,1.0,63,1,0,0,120,64,100,80
44.0,67,1.0,63,1,0,0,120,64,100,80
45.0,64,1.0,63,1,0,0,120,64,100,80
46.0,0,1.0,63,1,0,0,120,64,100,80
47.0,60,1.0,63,1,0,0,120,64,100,80
48.0,69,1.0,63,1,0,0,120,64,100,80
49.0,62,1.0,63,1,0,0,120,64,100,80
50.0,64,1.0,63,1,0,0,120,64,100,80
51.0,69,1.0,63,1,0,0,120,64,100,80
52.0,60,1.0,63,1,0,0,120,64,100,80
53.0,60,1.0,63,1,0,0,120,64,100,80
54.0,64,1.0,63,1,0,0,120,64,100,80
55.0,64,1.0,63,1,0,0,120,64,100,80
56.0,65,1.0,63,1,0,0,120,64,100,80
57.0,60,1.0,63,1,0,0,120,64,100,80
58.0,69,1.0,63,1,0,0,120,64,100,80
59.0,69,1.0,63,1,0,0,120,64,100,80
60.0,67,1.0,63,1,0,0,120,64,100,80
61.0,67,1.0,63,1,0,0,120,64,100,80
62.0,64,1.0,63,1,0,0,120,64,100,80
63.0,67,1.0,63,1,0,0,120,64,100,80
64.0,64,1.0,63,1,0,0,120,64,100,80
65.0,67,1.0,63,1,0,0,120,64,100,80
66.0,69,1.0,63,1,0,0,120,64,100,80
67.0,62,1.0,63,1,0,0,120,64,100,80
68.0,69,1.0,63,1,0,0,120,64,100,80
69.0,71,1.0,63,1,0,0,120,64,100,80
70.0,0,1.0,63,1,0,0,120,64,100,80
71.0,65,1.0,63,1,0,0,120,64,100,80
72.0,71,1.0,63,1,0,0,120,64,100,80
73.0,67,1.0,63,1,0,0,120,64,100,80
74.0,60,1.0,63,1,0,0,120,64,100,80
75.0,67,1.0,63,1,0,0,120,64,100,80
76.0,65,1.0,63,1,0,0,120,64,100,80
77.0,69,1.0,63,1,0,0,120,64,100,80
78.0,65,1.0,63,1,0,0,120,64,100,80
79.0,69,1.0,63,1,0,0,120,64,100,80
80.0,64,1.0,63,1,0,0,120,64,100,80
81.0,69,1.0,63,1,0,0,120,64,100,80
82.0,71,1.0,63,1,0,0,120,64,100,80
83.0,62,1.0,63,1,0,0,120,64,100,80
84.0,69,1.0,63,1,0,0,120,64,100,80
85.0,62,1.0,63,1,0,0,120,64,100,80
86.0,69,1.0,63,1,0,0,120,64,100,80
87.0,60,1.0,63,1,0,0,120,64,100,80
88.0,69,1.0,63,1,0,0,120,64,100,80
89.0,64,1.0,63,1,0,0,120,64,100,80
90.0,69,1.0,63,1,0,0,120,64,100,80
91.0,65,1.0,63,1,0,0,120,64,100,80
92.0,65,1.0,63,1,0,0,120,64,100,80
93.0,69,1.0,63,1,0,0,120,64,100,80
94.0,69,1.0,63,1,0,0,120,64,100,80
95.0,65,1.0,63,1,0,0,120,64,100,80
96.0,60,1.0,63,1,0,0,120,64,100,80
97.0,64,1.0,63,1,0,0,120,64,100,80
98.0,69,1.0,63,1,0,0,120,64,100,80
99.0,62,1.0,63,1,0,0,120,64,100,80
100.0,62,1.0,63,1,0,0,120,64,100,80
101.0,65,1.0,63,1,0,0,120,64,100,80
102.0,62,1.0,63,1,0,0,120,64,100,80
103.0,60,1.0,63,1,0,0,120,64,100,80
104.0,60,1.0,63,1,0,0,120,64,100,80
105.0,0,1.0,63,1,0,0,120,64,100,80
106.0,62,1.0,63,1,0,0,120,64,100,80
107.0,64,1.0,63,1,0,0,120,64,100,80
108.0,60,1.0,63,1,0,0,120,64,100,80
109.0,62,1.0,63,1,0,0,120,64,100,80
110.0,71,1.0,63,1,0,0,120,64,100,80
111.0,62,1.0,63,1,0,0,120,64,100,80
112.0,65,1.0,63,1,0,0,120,64,100,80
113.0,60,1.0,63,1,0,0,120,64,100,80
114.0,69,1.0,63,1,0,0,120,64,100,80
115.0,71,1.0,63,1,0,0,120,64,100,80
116.0,64,1.0,63,1,0,0,120,64,100,80
117.0,60,1.0,63,1,0,0,120,64,100,80
118.0,62,1.0,63,1,0,0,120,64,100,80
119.0,71,1.0,63,1,0,0,120,64,100,80
120.0,62,1.0,63,1,0,0,120,64,100,80
121.0,60,1.0,63,1,0,0,120,64,100,80
122.0,67,1.0,63,1,0,0,120,64,100,80
123.0,69,1.0,63,1,0,0,120,64,100,80
124.0,60,1.0,63,1,0,0,120,64,100,80
125.0,60,1.0,63,1,0,0,120,64,100,80
126.0,69,1.0,63,1,0,0,120,64,100,80
127.0,65,1.0,63,1,0,0,120,64,100,80
128.0,62,1.0,63,1,0,0,120,64,100,80
129.0,62,1.0,63,1,0,0,120,64,100,80
130.0,71,1.0,63,1,0,0,120,64,100,80
131.0,62,1.0,63,1,0,0,120,64,100,80
132.0,62,1.0,63,1,0,0,120,64,100,80
133.0,65,1.0,63,1,0,0,120,64,100,80
134.0,0,1.0,63,1,0,0,120,64,100,80
135.0,62,1.0,63,1,0,0,120,64,100,80
136.0,67,1.0,63,1,0,0,120,64,100,80
137.0,69,1.0,63,1,0,0,120,64,100,80
138.0,60,1.0,63,1,0,0,120,64,100,80
139.0,64,1.0,63,1,0,0,120,64,100,80
140.0,69,1.0,63,1,0,0,120,64,100,80
141.0,67,1.0,63,1,0,0,120,64,100,80
142.0,64,1.0,63,1,0,0,120,64,100,80
143.0,69,1.0,63,1,0,0,120,64,100,80
144.0,60,1.0,63,1,0,0,120,64,100,80
145.0,60,1.0,63,1,0,0,120,64,100,80
146.0,62,1.0,63,1,0,0,120,64,100,80
147.0,62,1.0,63,1,0,0,120,64,100,80
148.0,60,1.0,63,1,0,0,120,64,100,80
149.0,62,1.0,63,1,0,0,120,64,100,80
150.0,65,1.0,63,1,0,0,120,64,100,80
151.0,60,1.0,63,1,0,0,120,64,100,80
152.0,71,1.0,63,1,0,0,120,64,100,80
153.0,67,1.0,63,1,0,0,120,64,100,80
154.0,60,1.0,63,1,0,0,120,64,100,80
155.0,64,1.0,63,1,0,0,120,64,100,80
156.0,60,1.0,63,1,0,0,120,64,100,80
157.0,64,1.0,63,1,0,0,120,64,100,80
158.0,69,1.0,63,1,0,0,120,64,100,80
159.0,64,1.0,63,1,0,0,120,64,100,80
160.0,64,1.0,63,1,0,0,120,64,100,80
161.0,62,1.0,63,1,0,0,120,64,100,80
162.0,64,1.0,63,1,0,0,120,64,100,80
163.0,62,1.0,63,1,0,0,120,64,100,80
164.0,62,1.0,63,1,0,0,120,64,100,80
165.0,71,1.0,63,1,0,0,120,64,100,80
166.0,64,1.0,63,1,0,0,120,64,100,80
167.0,60,1.0,63,1,0,0,120,64,100,80
168.0,60,1.0,63,1,0,0,120,64,100,80
169.0,64,1.0,63,1,0,0,120,64,100,80
170.0,69,1.0,63,1,0,0,120,64,100,80
171.0,67,1.0,63,1,0,0,120,64,100,80
172.0,64,1.0,63,1,0,0,120,64,100,80
173.0,60,1.0,63,1,0,0,120,64,100,80
174.0,67,1.0,63,1,0,0,120,64,100,80
175.0,60,1.0,63,1,0,0,120,64,100,80
176.0,62,1.0,63,1,0,0,120,64,100,80
177.0,62,1.0,63,1,0,0,120,64,100,80
178.0,60,1.0,63,1,0,0,120,64,100,80
179.0,62,1.0,63,1,0,0,120,64,100,80
180.0,62,1.0,63,1,0,0,120,64,100,80
181.0,67,1.0,63,1,0,0,120,64,100,80
182.0,67,1.0,63,1,0,0,120,64,100,80
183.0,64,1.0,63,1,0,0,120,64,100,80
184.0,64,1.0,63,1,0,0,120,64,100,80
185.0,65,1.0,63,1,0,0,120,64,100,80
186.0,65,1.0,63,1,0,0,120,64,100,80
187.0,60,1.0,63,1,0,0,120,64,100,80
188.0,69,1.0,63,1,0,0,120,64,100,80
189.0,62,1.0,63,1,0,0,120,64,100,80
190.0,69,1.0,63,1,0,0,120,64,100,80
191.0,67,1.0,63,1,0,0,120,64,100,80
192.0,69,1.0,63,1,0,0,120,64,100,80
193.0,64,1.0,63,1,0,0,120,64,100,80
194.0,67,1.0,63,1,0,0,120,64,100,80
195.0,65,1.0,63,1,0,0,120,64,100,80
196.0,65,1.0,63,1,0,0,120,64,100,80
197.0,69,1.0,63,1,0,0,120,64,100,80
198.0,60,1.0,63,1,0,0,120,64,100,80
199.0,64,1.0,63,1,0,0,120,64,100,80
200.0,64,1.0,63,1,0,0,120,64,100,80
201.0,69,1.0,63,1,0,0,120,64,100,80
202.0,71,1.0,63,1,0,0,120,64,100,80
203.0,64,1.0,63,1,0,0,120,64,100,80
204.0,69,1.0,63,1,0,0,120,64,100,80
205.0,69,1.0,63,1,0,0,120,64,100,80
206.0,62,1.0,63,1,0,0,120,64,100,80
207.0,64,1.0,63,1,0,0,120,64,100,80
208.0,64,1.0,63,1,0,0,120,64,100,80
209.0,62,1.0,63,1,0,0,120,64,100,80
210.0,60,1.0,63,1,0,0,120,64,100,80
211.0,0,1.0,63,1,0,0,120,64,100,80
212.0,64,1.0,63,1,0,0,120,64,100,80
213.0,60,1.0,63,1,0,0,120,64,100,80
214.0,62,1.0,63,1,0,0,120,64,100,80
215.0,65,1.0,63,1,0,0,120,64,100,80
216.0,64,1.0,63,1,0,0,120,64,100,80
217.0,60,1.0,63,1,0,0,120,64,100,80
218.0,0,1.0,63,1,0,0,120,64,100,80
219.0,67,1.0,63,1,0,0,120,64,100,80
220.0,60,1.0,63,1,0,0,120,64,100,80
221.0,69,1.0,63,1,0,0,120,64,100,80
222.0,65,1.0,63,1,0,0,120,64,100,80
223.0,69,1.0,63,1,0,0,120,64,100,80
224.0,62,1.0,63,1,0,0,120,64,100,80
225.0,65,1.0,63,1,0,0,120,64,100,80
226.0,60,1.0,63,1,0,0,120,64,100,80
227.0,60,1.0,63,1,0,0,120,64,100,80
228.0,64,1.0,63,1,0,0,120,64,100,80
229.0,62,1.0,63,1,0,0,120,64,100,80
230.0,69,1.0,63,1,0,0,120,64,100,80
231.0,60,1.0,63,1,0,0,120,64,100,80
232.0,60,1.0,63,1,0,0,120,64,100,80
233.0,60,1.0,63,1,0,0,120,64,100,80
234.0,62,1.0,63,1,0,0,120,64,100,80
235.0,60,1.0,63,1,0,0,120,64,100,80
236.0,64,1.0,63,1,0,0,120,64,100,80
237.0,0,1.0,63,1,0,0,120,64,100,80
238.0,64,1.0,63,1,0,0,120,64,100,80
239.0,69,1.0,63,1,0,0,120,64,100,80
240.0,65,1.0,63,1,0,0,120,64,100,80
241.0,60,1.0,63,1,0,0,120,64,100,80
242.0,62,1.0,63,1,0,0,120,64,100,80
243.0,64,1.0,63,1,0,0,120,64,100,80
244.0,67,1.0,63,1,0,0,120,64,100,80
245.0,62,1.0,63,1,0,0,120,64,100,80
246.0,64,1.0,63,1,0,0,120,64,100,80
247.0,60,1.0,63,1,0,0,120,64,100,80
248.0,64,1.0,63,1,0,0,120,64,100,80
249.0,65,1.0,63,1,0,0,120,64,100,80
250.0,65,1.0,63,1,0,0,120,64,100,80
251.0,65,1.0,63,1,0,0,120,64,100,80
252.0,65,1.0,63,1,0,0,120,64,100,80
253.0,60,1.0,63,1,0,0,120,64,100,80
254.0,69,1.0,63,1,0,0,120,64,100,80
255.0,64,1.0,63,1,0,0,120,64,100,80
256.0,62,1.0,63,1,0,0,120,64,100,80
257.0,62,1.0,63,1,0,0,120,64,100,80
258.0,64,1.0,63,1,0,0,120,64,100,80
259.0,69,1.0,63,1,0,0,120,64,100,80
260.0,64,1.0,63,1,0,0,120,64,100,80
261.0,65,1.0,63,1,0,0,120,64,100,80
262.0,64,1.0,63,1,0,0,120,64,100,80
263.0,69,1.0,63,1,0,0,120,64,100,80
264.0,60,1.0,63,1,0,0,120,64,100,80
265.0,60,1.0,63,1,0,0,120,64,100,80
266.0,71,1.0,63,1,0,0,120,64,100,80
267.0,60,1.0,63,1,0,0,120,64,100,80
268.0,0,1.0,63,1,0,0,120,64,100,80
269.0,60,1.0,63,1,0,0,120,64,100,80
270.0,69,1.0,63,1,0,0,120,64,100,80
271.0,67,1.0,63,1,0,0,120,64,100,80
272.0,71,1.0,63,1,0,0,120,64,100,80
273.0,64,1.0,63,1,0,0,120,64,100,80
274.0,62,1.0,63,1,0,0,120,64,100,80
275.0,71,1.0,63,1,0,0,120,64,100,80
276.0,60,1.0,63,1,0,0,120,64,100,80
277.0,60,1.0,63,1,0,0,120,64,100,80
278.0,0,1.0,63,1,0,0,120,64,100,80
279.0,60,1.0,63,1,0,0,120,64,100,80
280.0,0,1.0,63,1,0,0,120,64,100,80
281.0,69,1.0,63,1,0,0,120,64,100,80
282.0,64,1.0,63,1,0,0,120,64,100,80
283.0,64,1.0,63,1,0,0,120,64,100,80
284.0,60,1.0,63,1,0,0,120,64,100,80
285.0,71,1.0,63,1,0,0,120,64,100,80
286.0,60,1.0,63,1,0,0,120,64,100,80
287.0,67,1.0,63,1,0,0,120,64,100,80
288.0,60,1.0,63,1,0,0,120,64,100,80
289.0,60,1.0,63,1,0,0,120,64,100,80
290.0,60,1.0,63,1,0,0,120,64,100,80
291.0,62,1.0,63,1,0,0,120,64,100,80
292.0,62,1.0,63,1,0,0,120,64,100,80
293.0,60,1.0,63,1,0,0,120,64,100,80
294.0,62,1.0,63,1,0,0,120,64,100,80
295.0,67,1.0,63,1,0,0,120,64,100,80
296.0,60,1.0,63,1,0,0,120,64,100,80
297.0,60,1.0,63,1,0,0,120,64,100,80
298.0,64,1.0,63,1,0,0,120,64,100,80
299.0,65,1.0,63,1,0,0,120,64,100,80
300.0,64,1.0,63,1,0,0,120,64,100,80
301.0,0,1.0,63,1,0,0,120,64,100,80
302.0,67,1.0,63,1,0,0,120,64,100,80
303.0,60,1.0,63,1,0,0,120,64,100,80
304.0,64,1.0,63,1,0,0,120,64,100,80
305.0,71,1.0,63,1,0,0,120,64,100,80
306.0,64,1.0,63,1,0,0,120,64,100,80
307.0,64,1.0,63,1,0,0,120,64,100,80
308.0,60,1.0,63,1,0,0,120,64,100,80
309.0,60,1.0,63,1,0,0,120,64,100,80
310.0,67,1.0,63,1,0,0,120,64,100,80
311.0,60,1.0,63,1,0,0,120,64,100,80
312.0,60,1.0,63,1,0,0,120,64,100,80
313.0,60,1.0,63,1,0,0,120,64,100,80
314.0,62,1.0,63,1,0,0,120,64,100,80
315.0,60,1.0,63,1,0,0,120,64,100,80
316.0,67,1.0,63,1,0,0,120,64,100,80
317.0,64,1.0,63,1,0,0,120,64,100,80
318.0,71,1.0,63,1,0,0,120,64,100,80
319.0,64,1.0,63,1,0,0,120,64,100,80
320.0,71,1.0,63,1,0,0,120,64,100,80
321.0,64,1.0,63,1,0,0,120,64,100,80
322.0,65,1.0,63,1,0,0,120,64,100,80
323.0,62,1.0,63,1,0,0,120,64,100,80
324.0,65,1.0,63,1,0,0,120,64,100,80
325.0,60,1.0,63,1,0,0,120,64,100,80
326.0,69,1.0,63,1,0,0,120,64,100,80
327.0,64,1.0,63,1,0,0,120,64,100,80
328.0,67,1.0,63,1,0,0,120,64,100,80
329.0,71,1.0,63,1,0,0,120,64,100,80
330.0,69,1.0,63,1,0,0,120,64,100,80
331.0,62,1.0,63,1,0,0,120,64,100,80
332.0,65,1.0,63,1,0,0,120,64,100,80
333.0,62,1.0,63,1,0,0,120,64,100,80
334.0,60,1.0,63,1,0,0,120,64,100,80
335.0,64,1.0,63,1,0,0,120,64,100,80
336.0,71,1.0,63,1,0,0,120,64,100,80
337.0,62,1.0,63,1,0,0,120,64,100,80
338.0,67,1.0,63,1,0,0,120,64,100,80
339.0,65,1.0,63,1,0,0,120,64,100,80
340.0,64,1.0,63,1,0,0,120,64,100,80
341.0,0,1.0,63,1,0,0,120,64,100,80
342.0,0,1.0,63,1,0,0,120,64,100,80
343.0,0,1.0,63,1,0,0,120,64,100,80
344.0,60,1.0,63,1,0,0,120,64,100,80
345.0,69,1.0,63,1,0,0,120,64,100,80
346.0,60,1.0,63,1,0,0,120,64,100,80
347.0,0,1.0,63,1,0,0,120,64,100,80
348.0,64,1.0,63,1,0,0,120,64,100,80
349.0,60,1.0,63,1,0,0,120,64,100,80
350.0,71,1.0,63,1,0,0,120,64,100,80
351.0,60,1.0,63,1,0,0,120,64,100,80
352.0,62,1.0,63,1,0,0,120,64,100,80
353.0,64,1.0,63,1,0,0,120,64,100,80
354.0,64,1.0,63,1,0,0,120,64,100,80
355.0,60,1.0,63,1,0,0,120,64,100,80
356.0,67,1.0,63,1,0,0,120,64,100,80
357.0,60,1.0,63,1,0,0,120,64,100,80
358.0,71,1.0,63,1,0,0,120,64,100,80
359.0,60,1.0,63,1,0,0,120,64,100,80
360.0,64,1.0,63,1,0,0,120,64,100,80
361.0,71,1.0,63,1,0,0,120,64,100,80
362.0,65,1.0,63,1,0,0,120,64,100,80
363.0,69,1.0,63,1,0,0,120,64,100,80
364.0,69,1.0,63,1,0,0,120,64,100,80
365.0,60,1.0,63,1,0,0,120,64,100,80
366.0,69,1.0,63,1,0,0,120,64,100,80
367.0,60,1.0,63,1,0,0,120,64,100,80
368.0,69,1.0,63,1,0,0,120,64,100,80
369.0,71,1.0,63,1,0,0,120,64,100,80
370.0,65,1.0,63,1,0,0,120,64,100,80
371.0,64,1.0,63,1,0,0,120,64,100,80
372.0,64,1.0,63,1,0,0,120,64,100,80
373.0,71,1.0,63,1,0,0,120,64,100,80
374.0,67,1.0,63,1,0,0,120,64,100,80
375.0,71,1.0,63,1,0,0,120,64,100,80
376.0,67,1.0,63,1,0,0,120,64,100,80
377.0,69,1.0,63,1,0,0,120,64,100,80
378.0,60,1.0,63,1,0,0,120,64,100,80
379.0,60,1.0,63,1,0,0,120,64,100,80
380.0,62,1.0,63,1,0,0,120,64,100,80
381.0,69,1.0,63,1,0,0,120,64,100,80
382.0,71,1.0,63,1,0,0,120,64,100,80
383.0,62,1.0,63,1,0,0,120,64,100,80
384.0,60,1.0,63,1,0,0,120,64,100,80
385.0,71,1.0,63,1,0,0,120,64,100,80
386.0,64,1.0,63,1,0,0,120,64,100,80
387.0,64,1.0,63,1,0,0,120,64,100,80
388.0,62,1.0,63,1,0,0,120,64,100,80
389.0,60,1.0,63,1,0,0,120,64,100,80
390.0,69,1.0,63,1,0,0,120,64,100,80
391.0,62,1.0,63,1,0,0,120,64,100,80
392.0,60,1.0,63,1,0,0,120,64,100,80
393.0,71,1.0,63,1,0,0,120,64,100,80
394.0,69,1.0,63,1,0,0,120,64,100,80
395.0,62,1.0,63,1,0,0,120,64,100,80
396.0,69,1.0,63,1,0,0,120,64,100,80
397.0,64,1.0,63,1,0,0,120,64,100,80
398.0,62,1.0,63,1,0,0,120,64,100,80
399.0,62,1.0,63,1,0,0,120,64,100,80
400.0,71,1.0,63,1,0,0,120,64,100,80
401.0,60,1.0,63,1,0,0,120,64,100,80
402.0,71,1.0,63,1,0,0,120,64,100,80
403.0,65,1.0,63,1,0,0,120,64,100,80
404.0,0,1.0,63,1,0,0,120,64,100,80
405.0,69,1.0,63,1,0,0,120,64,100,80
406.0,60,1.0,63,1,0,0,120,64,100,80
407.0,64,1.0,63,1,0,0,120,64,100,80
408.0,60,1.0,63,1,0,0,120,64,100,80
409.0,69,1.0,63,1,0,0,120,64,100,80
410.0,60,1.0,63,1,0,0,120,64,100,80
411.0,64,1.0,63,1,0,0,120,64,100,80
412.0,65,1.0,63,1,0,0,120,64,100,80
413.0,69,1.0,63,1,0,0,120,64,100,80
414.0,69,1.0,63,1,0,0,120,64,100,80
415.0,60,1.0,63,1,0,0,120,64,100,80
416.0,60,1.0,63,1,0,0,120,64,100,80
417.0,62,1.0,63,1,0,0,120,64,100,80
418.0,64,1.0,63,1,0,0,120,64,100,80
419.0,64,1.0,63,1,0,0,120,64,100,80
420.0,64,1.0,63,1,0,0,120,64,100,80
421.0,69,1.0,63,1,0,0,120,64,100,80
422.0,65,1.0,63,1,0,0,120,64,100,80
423.0,60,1.0,63,1,0,0,120,64,100,80
424.0,69,1.0,63,1,0,0,120,64,100,80
425.0,62,1.0,63,1,0,0,120,64,100,80
426.0,62,1.0,63,1,0,0,120,64,100,80
427.0,62,1.0,63,1,0,0,120,64,100,80
428.0,64,1.0,63,1,0,0,120,64,100,80
429.0,60,1.0,63,1,0,0,120,64,100,80
430.0,65,1.0,63,1,0,0,120,64,100,80
431.0,65,1.0,63,1,0,0,120,64,100,80
432.0,62,1.0,63,1,0,0,120,64,100,80
433.0,65,1.0,63,1,0,0,120,64,100,80
434.0,60,1.0,63,1,0,0,120,64,100,80
435.0,69,1.0,63,1,0,0,120,64,100,80
436.0,67,1.0,63,1,0,0,120,64,100,80
437.0,69,1.0,63,1,0,0,120,64,100,80
438.0,60,1.0,63,1,0,0,120,64,100,80
439.0,69,1.0,63,1,0,0,120,64,100,80
440.0,67,1.0,63,1,0,0,120,64,100,80
441.0,64,1.0,63,1,0,0,120,64,100,80
442.0,71,1.0,63,1,0,0,120,64,100,80
443.0,69,1.0,63,1,0,0,120,64,100,80
444.0,62,1.0,63,1,0,0,120,64,100,80
445.0,60,1.0,63,1,0,0,120,64,100,80
446.0,60,1.0,63,1,0,0,120,64,100,80
447.0,62,1.0,63,1,0,0,120,64,100,80
448.0,60,1.0,63,1,0,0,120,64,100,80
449.0,64,1.0,63,1,0,0,120,64,100,80
450.0,71,1.0,63,1,0,0,120,64,100,80
451.0,62,1.0,63,1,0,0,120,64,100,80
452.0,60,1.0,63,1,0,0,120,64,100,80
453.0,60,1.0,63,1,0,0,120,64,100,80
454.0,60,1.0,63,1,0,0,120,64,100,80
455.0,60,1.0,63,1,0,0,120,64,100,80
456.0,60,1.0,63,1,0,0,120,64,100,80
457.0,64,1.0,63,1,0,0,120,64,100,80
458.0,67,1.0,63,1,0,0,120,64,100,80
459.0,67,1.0,63,1,0,0,120,64,100,80
460.0,60,1.0,63,1,0,0,120,64,100,80
461.0,62,1.0,63,1,0,0,120,64,100,80
462.0,67,1.0,63,1,0,0,120,64,100,80
463.0,60,1.0,63,1,0,0,120,64,100,80
464.0,69,1.0,63,1,0,0,120,64,100,80
465.0,67,1.0,63,1,0,0,120,64,100,80
466.0,64,1.0,63,1,0,0,120,64,100,80
467.0,64,1.0,63,1,0,0,120,64,100,80
468.0,62,1.0,63,1,0,0,120,64,100,80
469.0,69,1.0,63,1,0,0,120,64,100,80
470.0,60,1.0,63,1,0,0,120,64,100,80
471.0,67,1.0,63,1,0,0,120,64,100,80
472.0,71,1.0,63,1,0,0,120,64,100,80
473.0,64,1.0,63,1,0,0,120,64,100,80
474.0,62,1.0,63,1,0,0,120,64,100,80
475.0,62,1.0,63,1,0,0,120,64,100,80
476.0,64,1.0,63,1,0,0,120,64,100,80
477.0,69,1.0,63,1,0,0,120,64,100,80
478.0,60,1.0,63,1,0,0,120,64,100,80
479.0,62,1.0,63,1,0,0,120,64,100,80
480.0,62,1.0,63,1,0,0,120,64,100,80
481.0,0,1.0,63,1,0,0,120,64,100,80
482.0,64,1.0,63,1,0,0,120,64,100,80
483.0,69,1.0,63,1,0,0,120,64,100,80
484.0,0,1.0,63,1,0,0,120,64,100,80
485.0,64,1.0,63,1,0,0,120,64,100,80
486.0,69,1.0,63,1,0,0,120,64,100,80
487.0,60,1.0,63,1,0,0,120,64,100,80
488.0,60,1.0,63,1,0,0,120,64,100,80
489.0,71,1.0,63,1,0,0,120,64,100,80
490.0,67,1.0,63,1,0,0,120,64,100,80
491.0,69,1.0,63,1,0,0,120,64,100,80
492.0,65,1.0,63,1,0,0,120,64,100,80
493.0,60,1.0,63,1,0,0,120,64,100,80
494.0,62,1.0,63,1,0,0,120,64,100,80
495.0,62,1.0,63,1,0,0,120,64,100,80
496.0,67,1.0,63,1,0,0,120,64,100,80
497.0,69,1.0,63,1,0,0,120,64,100,80
498.0,69,1.0,63,1,0,0,120,64,100,80
499.0,69,1.0,63,1,0,0,120,64,100,80
500.0,64,1.0,63,1,0,0,120,64,100,80
501.0,62,1.0,63,1,0,0,120,64,100,80
502.0,64,1.0,63,1,0,0,120,64,100,80
503.0,60,1.0,63,1,0,0,120,64,100,80
504.0,67,1.0,63,1,0,0,120,64,100,80
505.0,60,1.0,63,1,0,0,120,64,100,80
506.0,65,1.0,63,1,0,0,120,64,100,80
507.0,60,1.0,63,1,0,0,120,64,100,80
508.0,60,1.0,63,1,0,0,120,64,100,80
509.0,0,1.0,63,1,0,0,120,64,100,80
510.0,62,1.0,63,1,0,0,120,64,100,80
511.0,62,1.0,63,1,0,0,120,64,100,80
512.0,0,1.0,63,1,0,0,120,64,100,80
513.0,69,1.0,63,1,0,0,120,64,100,80
514.0,60,1.0,63,1,0,0,120,64,100,80
515.0,69,1.0,63,1,0,0,120,64,100,80
516.0,64,1.0,63,1,0,0,120,64,100,80
517.0,69,1.0,63,1,0,0,120,64,100,80
518.0,62,1.0,63,1,0,0,120,64,100,80
519.0,60,1.0,63,1,0,0,120,64,100,80
520.0,64,1.0,63,1,0,0,120,64,100,80
521.0,65,1.0,63,1,0,0,120,64,100,80
522.0,64,1.0,63,1,0,0,120,64,100,80
523.0,60,1.0,63,1,0,0,120,64,100,80
524.0,0,1.0,63,1,0,0,120,64,100,80
525.0,62,1.0,63,1,0,0,120,64,100,80
526.0,60,1.0,63,1,0,0,120,64,100,80
527.0,64,1.0,63,1,0,0,120,64,100,80
528.0,65,1.0,63,1,0,0,120,64,100,80
529.0,65,1.0,63,1,0,0,120,64,100,80
530.0,60,1.0,63,1,0,0,120,64,100,80
531.0,64,1.0,63,1,0,0,120,64,100,80
532.0,65,1.0,63,1,0,0,120,64,100,80
533.0,64,1.0,63,1,0,0,120,64,100,80
534.0,62,1.0,63,1,0,0,120,64,100,80
535.0,67,1.0,63,1,0,0,120,64,100,80
536.0,62,1.0,63,1,0,0,120,64,100,80
537.0,62,1.0,63,1,0,0,120,64,100,80
538.0,60,1.0,63,1,0,0,120,64,100,80
539.0,0,1.0,63,1,0,0,120,64,100,80
540.0,67,1.0,63,1,0,0,120,64,100,80
541.0,64,1.0,63,1,0,0,120,64,100,80
542.0,60,1.0,63,1,0,0,120,64,100,80
543.0,62,1.0,63,1,0,0,120,64,100,80
544.0,62,1.0,63,1,0,0,120,64,100,80
545.0,65,1.0,63,1,0,0,120,64,100,80
546.0,64,1.0,63,1,0,0,120,64,100,80
547.0,65,1.0,63,1,0,0,120,64,100,80
548.0,62,1.0,63,1,0,0,120,64,100,80
549.0,60,1.0,63,1,0,0,120,64,100,80
550.0,64,1.0,63,1,0,0,120,64,100,80
551.0,0,1.0,63,1,0,0,120,64,100,80
552.0,62,1.0,63,1,0,0,120,64,100,80
553.0,60,1.0,63,1,0,0,120,64,100,80
554.0,62,1.0,63,1,0,0,120,64,100,80
555.0,71,1.0,63,1,0,0,120,64,100,80
556.0,69,1.0,63,1,0,0,120,64,100,80
557.0,62,1.0,63,1,0,0,120,64,100,80
558.0,64,1.0,63,1,0,0,120,64,100,80
559.0,67,1.0,63,1,0,0,120,64,100,80
560.0,71,1.0,63,1,0,0,120,64,100,80
561.0,62,1.0,63,1,0,0,120,64,100,80
562.0,62,1.0,63,1,0,0,120,64,100,80
563.0,60,1.0,63,1,0,0,120,64,100,80
564.0,64,1.0,63,1,0,0,120,64,100,80
565.0,64,1.0,63,1,0,0,120,64,100,80
566.0,64,1.0,63,1,0,0,120,64,100,80
567.0,69,1.0,63,1,0,0,120,64,100,80
568.0,0,1.0,63,1,0,0,120,64,100,80
569.0,60,1.0,63,1,0,0,120,64,100,80
570.0,62,1.0,63,1,0,0,120,64,100,80
571.0,69,1.0,63,1,0,0,120,64,100,80
572.0,71,1.0,63,1,0,0,120,64,100,80
573.0,64,1.0,63,1,0,0,120,64,100,80
574.0,67,1.0,63,1,0,0,120,64,100,80
575.0,71,1.0,63,1,0,0,120,64,100,80
576.0,62,1.0,63,1,0,0,120,64,100,80
577.0,71,1.0,63,1,0,0,120,64,100,80
578.0,0,1.0,63,1,0,0,120,64,100,80
579.0,62,1.0,63,1,0,0,120,64,100,80
580.0,65,1.0,63,1,0,0,120,64,100,80
581.0,71,1.0,63,1,0,0,120,64,100,80
582.0,62,1.0,63,1,0,0,120,64,100,80
583.0,65,1.0,63,1,0,0,120,64,100,80
584.0,71,1.0,63,1,0,0,120,64,100,80
585.0,60,1.0,63,1,0,0,120,64,100,80
586.0,64,1.0,63,1,0,0,120,64,100,80
587.0,64,1.0,63,1,0,0,120,64,100,80
588.0,65,1.0,63,1,0,0,120,64,100,80
589.0,64,1.0,63,1,0,0,120,64,100,80
590.0,60,1.0,63,1,0,0,120,64,100,80
591.0,64,1.0,63,1,0,0,120,64,100,80
592.0,64,1.0,63,1,0,0,120,64,100,80
593.0,60,1.0,63,1,0,0,120,64,100,80
594.0,65,1.0,63,1,0,0,120,64,100,80
595.0,71,1.0,63,1,0,0,120,64,100,80
596.0,64,1.0,63,1,0,0,120,64,100,80
597.0,0,1.0,63,1,0,0,120,64,100,80
598.0,62,1.0,63,1,0,0,120,64,100,80
599.0,65,1.0,63,1,0,0,120,64,100,80
600.0,62,1.0,63,1,0,0,120,64,100,80
601.0,65,1.0,63,1,0,0,120,64,100,80
602.0,71,1.0,63,1,0,0,120,64,100,80
603.0,60,1.0,63,1,0,0,120,64,100,80
604.0,65,1.0,63,1,0,0,120,64,100,80
605.0,62,1.0,63,1,0,0,120,64,100,80
606.0,65,1.0,63,1,0,0,120,64,100,80
607.0,62,1.0,63,1,0,0,120,64,100,80
608.0,62,1.0,63,1,0,0,120,64,100,80
609.0,0,1.0,63,1,0,0,120,64,100,80
610.0,62,1.0,63,1,0,0,120,64,100,80
611.0,60,1.0,63,1,0,0,120,64,100,80
612.0,65,1.0,63,1,0,0,120,64,100,80
613.0,65,1.0,63,1,0,0,120,64,100,80
614.0,60,1.0,63,1,0,0,120,64,100,80
615.0,0,1.0,63,1,0,0,120,64,100,80
616.0,62,1.0,63,1,0,0,120,64,100,80
617.0,64,1.0,63,1,0,0,120,64,100,80
618.0,60,1.0,63,1,0,0,120,64,100,80
619.0,64,1.0,63,1,0,0,120,64,100,80
620.0,60,1.0,63,1,0,0,120,64,100,80
621.0,62,1.0,63,1,0,0,120,64,100,80
622.0,67,1.0,63,1,0,0,120,64,100,80
623.0,69,1.0,63,1,0,0,120,64,100,80
624.0,60,1.0,63,1,0,0,120,64,100,80
625.0,60,1.0,63,1,0,0,120,64,100,80
626.0,62,1.0,63,1,0,0,120,64,100,80
627.0,64,1.0,63,1,0,0,120,64,100,80
628.0,62,1.0,63,1,0,0,120,64,100,80
629.0,67,1.0,63,1,0,0,120,64,100,80
630.0,67,1.0,63,1,0,0,120,64,100,80
631.0,69,1.0,63,1,0,0,120,64,100,80
632.0,60,1.0,63,1,0,0,120,64,100,80
633.0,69,1.0,63,1,0,0,120,64,100,80
634.0,64,1.0,63,1,0,0,120,64,100,80
635.0,64,1.0,63,1,0,0,120,64,100,80
636.0,64,1.0,63,1,0,0,120,64,100,80
637.0,65,1.0,63,1,0,0,120,64,100,80
638.0,62,1.0,63,1,0,0,120,64,100,80
639.0,60,1.0,63,1,0,0,120,64,100,80
640.0,69,1.0,63,1,0,0,120,64,100,80
641.0,64,1.0,63,1,0,0,120,64,100,80
642.0,64,1.0,63,1,0,0,120,64,100,80
643.0,60,1.0,63,1,0,0,120,64,100,80
644.0,65,1.0,63,1,0,0,120,64,100,80
645.0,65,1.0,63,1,0,0,120,64,100,80
646.0,62,1.0,63,1,0,0,120,64,100,80
647.0,65,1.0,63,1,0,0,120,64,100,80
648.0,69,1.0,63,1,0,0,120,64,100,80
649.0,62,1.0,63,1,0,0,120,64,100,80
650.0,69,1.0,63,1,0,0,120,64,100,80
651.0,62,1.0,63,1,0,0,120,64,100,80
652.0,65,1.0,63,1,0,0,120,64,100,80
653.0,64,1.0,63,1,0,0,120,64,100,80
654.0,62,1.0,63,1,0,0,120,64,100,80
655.0,65,1.0,63,1,0,0,120,64,100,80
656.0,60,1.0,63,1,0,0,120,64,100,80
657.0,62,1.0,63,1,0,0,120,64,100,80
658.0,64,1.0,63,1,0,0,120,64,100,80
659.0,65,1.0,63,1,0,0,120,64,100,80
660.0,65,1.0,63,1,0,0,120,64,100,80
661.0,67,1.0,63,1,0,0,120,64,100,80
662.0,60,1.0,63,1,0,0,120,64,100,80
663.0,69,1.0,63,1,0,0,120,64,100,80
664.0,62,1.0,63,1,0,0,120,64,100,80
665.0,60,1.0,63,1,0,0,120,64,100,80
666.0,65,1.0,63,1,0,0,120,64,100,80
667.0,60,1.0,63,1,0,0,120,64,100,80
668.0,67,1.0,63,1,0,0,120,64,100,80
669.0,62,1.0,63,1,0,0,120,64,100,80
670.0,62,1.0,63,1,0,0,120,64,100,80
671.0,67,1.0,63,1,0,0,120,64,100,80
672.0,60,1.0,63,1,0,0,120,64,100,80
673.0,67,1.0,63,1,0,0,120,64,100,80
674.0,69,1.0,63,1,0,0,120,64,100,80
675.0,60,1.0,63,1,0,0,120,64,100,80
676.0,65,1.0,63,1,0,0,120,64,100,80
677.0,64,1.0,63,1,0,0,120,64,100,80
678.0,60,1.0,63,1,0,0,120,64,100,80
679.0,67,1.0,63,1,0,0,120,64,100,80
680.0,65,1.0,63,1,0,0,120,64,100,80
681.0,65,1.0,63,1,0,0,120,64,100,80
682.0,69,1.0,63,1,0,0,120,64,100,80
683.0,64,1.0,63,1,0,0,120,64,100,80
684.0,0,1.0,63,1,0,0,120,64,100,80
685.0,62,1.0,63,1,0,0,120,64,100,80
686.0,62,1.0,63,1,0,0,120,64,100,80
687.0,62,1.0,63,1,0,0,120,64,100,80
688.0,65,1.0,63,1,0,0,120,64,100,80
689.0,67,1.0,63,1,0,0,120,64,100,80
690.0,64,1.0,63,1,0,0,120,64,100,80
691.0,62,1.0,63,1,0,0,120,64,100,80
692.0,64,1.0,63,1,0,0,120,64,100,80
693.0,0,1.0,63,1,0,0,120,64,100,80
694.0,64,1.0,63,1,0,0,120,64,100,80
695.0,60,1.0,63,1,0,0,120,64,100,80
696.0,64,1.0,63,1,0,0,120,64,100,80
697.0,62,1.0,63,1,0,0,120,64,100,80
698.0,62,1.0,63,1,0,0,120,64,100,80
699.0,69,1.0,63,1,0,0,120,64,100,80
700.0,62,1.0,63,1,0,0,120,64,100,80
701.0,65,1.0,63,1,0,0,120,64,100,80
702.0,69,1.0,63,1,0,0,120,64,100,80
703.0,60,1.0,63,1,0,0,120,64,100,80
704.0,60,1.0,63,1,0,0,120,64,100,80
705.0,71,1.0,63,1,0,0,120,64,100,80
706.0,62,1.0,63,1,0,0,120,64,100,80
707.0,64,1.0,63,1,0,0,120,64,100,80
708.0,62,1.0,63,1,0,0,120,64,100,80
709.0,71,1.0,63,1,0,0,120,64,100,80
710.0,60,1.0,63,1,0,0,120,64,100,80
711.0,67,1.0,63,1,0,0,120,64,100,80
712.0,60,1.0,63,1,0,0,120,64,100,80
713.0,69,1.0,63,1,0,0,120,64,100,80
714.0,60,1.0,63,1,0,0,120,64,100,80
715.0,62,1.0,63,1,0,0,120,64,100,80
716.0,65,1.0,63,1,0,0,120,64,100,80
717.0,67,1.0,63,1,0,0,120,64,100,80
718.0,64,1.0,63,1,0,0,120,64,100,80
719.0,62,1.0,63,1,0,0,120,64,100,80
720.0,67,1.0,63,1,0,0,120,64,100,80
721.0,69,1.0,63,1,0,0,120,64,100,80
722.0,60,1.0,63,1,0,0,120,64,100,80
723.0,62,1.0,63,1,0,0,120,64,100,80
724.0,62,1.0,63,1,0,0,120,64,100,80
725.0,64,1.0,63,1,0,0,120,64,100,80
726.0,60,1.0,63,1,0,0,120,64,100,80
727.0,60,1.0,63,1,0,0,120,64,100,80
728.0,65,1.0,63,1,0,0,120,64,100,80
729.0,67,1.0,63,1,0,0,120,64,100,80
730.0,62,1.0,63,1,0,0,120,64,100,80
731.0,64,1.0,63,1,0,0,120,64,100,80
732.0,60,1.0,63,1,0,0,120,64,100,80
733.0,62,1.0,63,1,0,0,120,64,100,80
734.0,65,1.0,63,1,0,0,120,64,100,80
735.0,69,1.0,63,1,0,0,120,64,100,80
736.0,67,1.0,63,1,0,0,120,64,100,80
737.0,62,1.0,63,1,0,0,120,64,100,80
738.0,62,1.0,63,1,0,0,120,64,100,80
739.0,62,1.0,63,1,0,0,120,64,100,80
740.0,62,1.0,63,1,0,0,120,64,100,80
741.0,64,1.0,63,1,0,0,120,64,100,80
742.0,65,1.0,63,1,0,0,120,64,100,80
743.0,64,1.0,63,1,0,0,120,64,100,80
744.0,64,1.0,63,1,0,0,120,64,100,80
745.0,60,1.0,63,1,0,0,120,64,100,80
746.0,64,1.0,63,1,0,0,120,64,100,80
747.0,65,1.0,63,1,0,0,120,64,100,80
748.0,62,1.0,63,1,0,0,120,64,100,80
749.0,62,1.0,63,1,0,0,120,64,100,80
750.0,65,1.0,63,1,0,0,120,64,100,80
751.0,64,1.0,63,1,0,0,120,64,100,80
752.0,65,1.0,63,1,0,0,120,64,100,80
753.0,64,1.0,63,1,0,0,120,64,100,80
754.0,60,1.0,63,1,0,0,120,64,100,80
755.0,67,1.0,63,1,0,0,120,64,100,80
756.0,67,1.0,63,1,0,0,120,64,100,80
757.0,64,1.0,63,1,0,0,120,64,100,80
758.0,0,1.0,63,1,0,0,120,64,100,80
759.0,62,1.0,63,1,0,0,120,64,100,80
760.0,64,1.0,63,1,0,0,120,64,100,80
761.0,64,1.0,63,1,0,0,120,64,100,80
762.0,62,1.0,63,1,0,0,120,64,100,80
763.0,65,1.0,63,1,0,0,120,64,100,80
764.0,64,1.0,63,1,0,0,120,64,100,80
765.0,69,1.0,63,1,0,0,120,64,100,80
766.0,60,1.0,63,1,0,0,120,64,100,80
767.0,64,1.0,63,1,0,0,120,64,100,80
768.0,62,1.0,63,1,0,0,120,64,100,80
769.0,67,1.0,63,1,0,0,120,64,100,80
770.0,65,1.0,63,1,0,0,120,64,100,80
771.0,0,1.0,63,1,0,0,120,64,100,80
772.0,0,1.0,63,1,0,0,120,64,100,80
773.0,65,1.0,63,1,0,0,120,64,100,80
774.0,71,1.0,63,1,0,0,120,64,100,80
775.0,69,1.0,63,1,0,0,120,64,100,80
776.0,60,1.0,63,1,0,0,120,64,100,80
777.0,60,1.0,63,1,0,0,120,64,100,80
778.0,60,1.0,63,1,0,0,120,64,100,80
779.0,62,1.0,63,1,0,0,120,64,100,80
780.0,69,1.0,63,1,0,0,120,64,100,80
781.0,62,1.0,63,1,0,0,120,64,100,80
782.0,69,1.0,63,1,0,0,120,64,100,80
783.0,64,1.0,63,1,0,0,120,64,100,80
784.0,60,1.0,63,1,0,0,120,64,100,80
785.0,65,1.0,63,1,0,0,120,64,100,80
786.0,65,1.0,63,1,0,0,120,64,100,80
787.0,0,1.0,63,1,0,0,120,64,100,80
788.0,60,1.0,63,1,0,0,120,64,100,80
789.0,67,1.0,63,1,0,0,120,64,100,80
790.0,60,1.0,63,1,0,0,120,64,100,80
791.0,65,1.0,63,1,0,0,120,64,100,80
792.0,62,1.0,63,1,0,0,120,64,100,80
793.0,60,1.0,63,1,0,0,120,64,100,80
794.0,69,1.0,63,1,0,0,120,64,100,80
795.0,62,1.0,63,1,0,0,120,64,100,80
796.0,60,1.0,63,1,0,0,120,64,100,80
797.0,64,1.0,63,1,0,0,120,64,100,80
798.0,71,1.0,63,1,0,0,120,64,100,80
799.0,60,1.0,63,1,0,0,120,64,100,80
800.0,60,1.0,63,1,0,0,120,64,100,80
801.0,65,1.0,63,1,0,0,120,64,100,80
802.0,64,1.0,63,1,0,0,120,64,100,80
803.0,67,1.0,63,1,0,0,120,64,100,80
804.0,69,1.0,63,1,0,0,120,64,100,80
805.0,65,1.0,63,1,0,0,120,64,100,80
806.0,69,1.0,63,1,0,0,120,64,100,80
807.0,64,1.0,63,1,0,0,120,64,100,80
808.0,0,1.0,63,1,0,0,120,64,100,80
809.0,69,1.0,63,1,0,0,120,64,100,80
810.0,60,1.0,63,1,0,0,120,64,100,80
811.0,60,1.0,63,1,0,0,120,64,100,80
812.0,62,1.0,63,1,0,0,120,64,100,80
813.0,65,1.0,63,1,0,0,120,64,100,80
814.0,60,1.0,63,1,0,0,120,64,100,80
815.0,65,1.0,63,1,0,0,120,64,100,80
816.0,64,1.0,63,1,0,0,120,64,100,80
817.0,60,1.0,63,1,0,0,120,64,100,80
818.0,67,1.0,63,1,0,0,120,64,100,80
819.0,64,1.0,63,1,0,0,120,64,100,80
820.0,62,1.0,63,1,0,0,120,64,100,80
821.0,64,1.0,63,1,0,0,120,64,100,80
822.0,60,1.0,63,1,0,0,120,64,100,80
823.0,67,1.0,63,1,0,0,120,64,100,80
824.0,65,1.0,63,1,0,0,120,64,100,80
825.0,69,1.0,63,1,0,0,120,64,100,80
826.0,64,1.0,63,1,0,0,120,64,100,80
827.0,62,1.0,63,1,0,0,120,64,100,80
828.0,62,1.0,63,1,0,0,120,64,100,80
829.0,67,1.0,63,1,0,0,120,64,100,80
830.0,64,1.0,63,1,0,0,120,64,100,80
831.0,0,1.0,63,1,0,0,120,64,100,80
832.0,67,1.0,63,1,0,0,120,64,100,80
833.0,64,1.0,63,1,0,0,120,64,100,80
834.0,64,1.0,63,1,0,0,120,64,100,80
835.0,64,1.0,63,1,0,0,120,64,100,80
836.0,62,1.0,63,1,0,0,120,64,100,80
837.0,65,1.0,63,1,0,0,120,64,100,80
838.0,65,1.0,63,1,0,0,120,64,100,80
839.0,69,1.0,63,1,0,0,120,64,100,80
840.0,60,1.0,63,1,0,0,120,64,100,80
841.0,65,1.0,63,1,0,0,120,64,100,80
842.0,60,1.0,63,1,0,0,120,64,100,80
843.0,62,1.0,63,1,0,0,120,64,100,80
844.0,69,1.0,63,1,0,0,120,64,100,80
845.0,71,1.0,63,1,0,0,120,64,100,80
846.0,65,1.0,63,1,0,0,120,64,100,80
847.0,64,1.0,63,1,0,0,120,64,100,80
848.0,62,1.0,63,1,0,0,120,64,100,80
849.0,60,1.0,63,1,0,0,120,64,100,80
850.0,65,1.0,63,1,0,0,120,64,100,80
851.0,62,1.0,63,1,0,0,120,64,100,80
852.0,69,1.0,63,1,0,0,120,64,100,80
853.0,69,1.0,63,1,0,0,120,64,100,80
854.0,60,1.0,63,1,0,0,120,64,100,80
855.0,60,1.0,63,1,0,0,120,64,100,80
856.0,71,1.0,63,1,0,0,120,64,100,80
857.0,64,1.0,63,1,0,0,120,64,100,80
858.0,60,1.0,63,1,0,0,120,64,100,80
859.0,69,1.0,63,1,0,0,120,64,100,80
860.0,65,1.0,63,1,0,0,120,64,100,80
861.0,71,1.0,63,1,0,0,120,64,100,80
862.0,64,1.0,63,1,0,0,120,64,100,80
863.0,60,1.0,63,1,0,0,120,64,100,80
864.0,64,1.0,63,1,0,0,120,64,100,80
865.0,69,1.0,63,1,0,0,120,64,100,80
866.0,60,1.0,63,1,0,0,120,64,100,80
867.0,69,1.0,63,1,0,0,120,64,100,80
868.0,60,1.0,63,1,0,0,120,64,100,80
869.0,69,1.0,63,1,0,0,120,64,100,80
870.0,71,1.0,63,1,0,0,120,64,100,80
871.0,60,1.0,63,1,0,0,120,64,100,80
872.0,62,1.0,63,1,0,0,120,64,100,80
873.0,60,1.0,63,1,0,0,120,64,100,80
874.0,65,1.0,63,1,0,0,120,64,100,80
875.0,64,1.0,63,1,0,0,120,64,100,80
876.0,60,1.0,63,1,0,0,120,64,100,80
877.0,64,1.0,63,1,0,0,120,64,100,80
878.0,60,1.0,63,1,0,0,120,64,100,80
879.0,67,1.0,63,1,0,0,120,64,100,80
880.0,64,1.0,63,1,0,0,120,64,100,80
881.0,62,1.0,63,1,0,0,120,64,100,80
882.0,67,1.0,63,1,0,0,120,64,100,80
883.0,0,1.0,63,1,0,0,120,64,100,80
884.0,69,1.0,63,1,0,0,120,64,100,80
885.0,67,1.0,63,1,0,0,120,64,100,80
886.0,60,1.0,63,1,0,0,120,64,100,80
887.0,65,1.0,63,1,0,0,120,64,100,80
888.0,64,1.0,63,1,0,0,120,64,100,80
889.0,60,1.0,63,1,0,0,120,64,100,80
890.0,60,1.0,63,1,0,0,120,64,100,80
891.0,60,1.0,63,1,0,0,120,64,100,80
892.0,67,1.0,63,1,0,0,120,64,100,80
893.0,64,1.0,63,1,0,0,120,64,100,80
894.0,64,1.0,63,1,0,0,120,64,100,80
895.0,64,1.0,63,1,0,0,120,64,100,80
896.0,62,1.0,63,1,0,0,120,64,100,80
897.0,67,1.0,63,1,0,0,120,64,100,80
898.0,60,1.0,63,1,0,0,120,64,100,80
899.0,67,1.0,63,1,0,0,120,64,100,80
900.0,60,1.0,63,1,0,0,120,64,100,80
901.0,64,1.0,63,1,0,0,120,64,100,80
902.0,62,1.0,63,1,0,0,120,64,100,80
903.0,64,1.0,63,1,0,0,120,64,100,80
904.0,60,1.0,63,1,0,0,120,64,100,80
905.0,69,1.0,63,1,0,0,120,64,100,80
906.0,65,1.0,63,1,0,0,120,64,100,80
907.0,69,1.0,63,1,0,0,120,64,100,80
908.0,69,1.0,63,1,0,0,120,64,100,80
909.0,60,1.0,63,1,0,0,120,64,100,80
910.0,71,1.0,63,1,0,0,120,64,100,80
911.0,60,1.0,63,1,0,0,120,64,100,80
912.0,65,1.0,63,1,0,0,120,64,100,80
913.0,60,1.0,63,1,0,0,120,64,100,80
914.0,65,1.0,63,1,0,0,120,64,100,80
915.0,60,1.0,63,1,0,0,120,64,100,80
916.0,65,1.0,63,1,0,0,120,64,100,80
917.0,65,1.0,63,1,0,0,120,64,100,80
918.0,67,1.0,63,1,0,0,120,64,100,80
919.0,60,1.0,63,1,0,0,120,64,100,80
920.0,64,1.0,63,1,0,0,120,64,100,80
921.0,60,1.0,63,1,0,0,120,64,100,80
922.0,67,1.0,63,1,0,0,120,64,100,80
923.0,65,1.0,63,1,0,0,120,64,100,80
924.0,60,1.0,63,1,0,0,120,64,100,80
925.0,67,1.0,63,1,0,0,120,64,100,80
926.0,64,1.0,63,1,0,0,120,64,100,80
927.0,67,1.0,63,1,0,0,120,64,100,80
928.0,71,1.0,63,1,0,0,120,64,100,80
929.0,64,1.0,63,1,0,0,120,64,100,80
930.0,65,1.0,63,1,0,0,120,64,100,80
931.0,64,1.0,63,1,0,0,120,64,100,80
932.0,62,1.0,63,1,0,0,120,64,100,80
933.0,60,1.0,63,1,0,0,120,64,100,80
934.0,64,1.0,63,1,0,0,120,64,100,80
935.0,64,1.0,63,1,0,0,120,64,100,80
936.0,71,1.0,63,1,0,0,120,64,100,80
937.0,60,1.0,63,1,0,0,120,64,100,80
938.0,65,1.0,63,1,0,0,120,64,100,80
939.0,64,1.0,63,1,0,0,120,64,100,80
940.0,65,1.0,63,1,0,0,120,64,100,80
941.0,62,1.0,63,1,0,0,120,64,100,80
942.0,64,1.0,63,1,0,0,120,64,100,80
943.0,65,1.0,63,1,0,0,120,64,100,80
944.0,62,1.0,63,1,0,0,120,64,100,80
945.0,60,1.0,63,1,0,0,120,64,100,80
946.0,64,1.0,63,1,0,0,120,64,100,80
947.0,64,1.0,63,1,0,0,120,64,100,80
948.0,65,1.0,63,1,0,0,120,64,100,80
949.0,71,1.0,63,1,0,0,120,64,100,80
950.0,65,1.0,63,1,0,0,120,64,100,80
951.0,64,1.0,63,1,0,0,120,64,100,80
952.0,60,1.0,63,1,0,0,120,64,100,80
953.0,71,1.0,63,1,0,0,120,64,100,80
954.0,64,1.0,63,1,0,0,120,64,100,80
955.0,64,1.0,63,1,0,0,120,64,100,80
956.0,64,1.0,63,1,0,0,120,64,100,80
957.0,64,1.0,63,1,0,0,120,64,100,80
958.0,65,1.0,63,1,0,0,120,64,100,80
959.0,64,1.0,63,1,0,0,120,64,100,80
960.0,62,1.0,63,1,0,0,120,64,100,80
961.0,60,1.0,63,1,0,0,120,64,100,80
962.0,64,1.0,63,1,0,0,120,64,100,80
963.0,62,1.0,63,1,0,0,120,64,100,80
964.0,60,1.0,63,1,0,0,120,64,100,80
965.0,67,1.0,63,1,0,0,120,64,100,80
966.0,60,1.0,63,1,0,0,120,64,100,80
967.0,65,1.0,63,1,0,0,120,64,100,80
968.0,65,1.0,63,1,0,0,120,64,100,80
969.0,64,1.0,63,1,0,0,120,64,100,80
970.0,60,1.0,63,1,0,0,120,64,100,80
971.0,60,1.0,63,1,0,0,120,64,100,80
972.0,64,1.0,63,1,0,0,120,64,100,80
973.0,60,1.0,63,1,0,0,120,64,100,80
974.0,65,1.0,63,1,0,0,120,64,100,80
975.0,64,1.0,63,1,0,0,120,64,100,80
976.0,64,1.0,63,1,0,0,120,64,100,80
977.0,60,1.0,63,1,0,0,120,64,100,80
978.0,62,1.0,63,1,0,0,120,64,100,80
979.0,65,1.0,63,1,0,0,120,64,100,80
980.0,64,1.0,63,1,0,0,120,64,100,80
981.0,62,1.0,63,1,0,0,120,64,100,80
982.0,69,1.0,63,1,0,0,120,64,100,80
983.0,67,1.0,63,1,0,0,120,64,100,80
984.0,60,1.0,63,1,0,0,120,64,100,80
985.0,65,1.0,63,1,0,0,120,64,100,80
986.0,65,1.0,63,1,0,0,120,64,100,80
987.0,62,1.0,63,1,0,0,120,64,100,80
988.0,62,1.0,63,1,0,0,120,64,100,80
989.0,65,1.0,63,1,0,0,120,64,100,80
990.0,64,1.0,63,1,0,0,120,64,100,80
991.0,64,1.0,63,1,0,0,120,64,100,80
992.0,62,1.0,63,1,0,0,120,64,100,80
993.0,60,1.0,63,1,0,0,120,64,100,80
994.0,67,1.0,63,1,0,0,120,64,100,80
995.0,60,1.0,63,1,0,0,120,64,100,80
996.0,65,1.0,63,1,0,0,120,64,100,80
997.0,65,1.0,63,1,0,0,120,64,100,80
998.0,60,1.0,63,1,0,0,120,64,100,80
999.0,69,1.0,63,1,0,0,120,64,100,80
1000.0,64,1.0,63,1,0,0,120,64,100,80
1001.0,64,1.0,63,1,0,0,120,64,100,80
1002.0,64,1.0,63,1,0,0,120,64,100,80
1003.0,62,1.0,63,1,0,0,120,64,100,80
1004.0,60,1.0,63,1,0,0,120,64,100,80
1005.0,67,1.0,63,1,0,0,120,64,100,80
1006.0,60,1.0,63,1,0,0,120,64,100,80
1007.0,65,1.0,63,1,0,0,120,64,100,80
1008.0,60,1.0,63,1,0,0,120,64,100,80
1009.0,62,1.0,63,1,0,0,120,64,100,80
1010.0,69,1.0,63,1,0,0,120,64,100,80
1011.0,65,1.0,63,1,0,0,120,64,100,80
1012.0,60,1.0,63,1,0,0,120,64,100,80
1013.0,64,1.0,63,1,0,0,120,64,100,80
1014.0,64,1.0,63,1,0,0,120,64,100,80
1015.0,64,1.0,63,1,0,0,120,64,100,80
1016.0,62,1.0,63,1,0,0,120,64,100,80
1017.0,67,1.0,63,1,0,0,120,64,100,80
1018.0,65,1.0,63,1,0,0,120,64,100,80
1019.0,64,1.0,63,1,0,0,120,64,100,80
1020.0,69,1.0,63,1,0,0,120,64,100,80
1021.0,65,1.0,63,1,0,0,120,64,100,80
1022.0,64,1.0,63,1,0,0,120,64,100,80
1023.0,65,1.0,63,1,0,0,120,64,100,80
1024.0,60,1.0,63,1,0,0,120,64,100,80
1025.0,62,1.0,63,1,0,0,120,64,100,80
1026.0,64,1.0,63,1,0,0,120,64,100,80
1027.0,64,1.0,63,1,0,0,120,64,100,80
1028.0,62,1.0,63,1,0,0,120,64,100,80
1029.0,64,1.0,63,1,0,0,120,64,100,80
1030.0,64,1.0,63,1,0,0,120,64,100,80
1031.0,60,1.0,63,1,0,0,120,64,100,80
1032.0,60,1.0,63,1,0,0,120,64,100,80
1033.0,62,1.0,63,1,0,0,120,64,100,80
1034.0,67,1.0,63,1,0,0,120,64,100,80
1035.0,67,1.0,63,1,0,0,120,64,100,80
1036.0,0,1.0,63,1,0,0,120,64,100,80
1037.0,60,1.0,63,1,0,0,120,64,100,80
1038.0,62,1.0,63,1,0,0,120,64,100,80
1039.0,67,1.0,63,1,0,0,120,64,100,80
1040.0,64,1.0,63,1,0,0,120,64,100,80
1041.0,67,1.0,63,1,0,0,120,64,100,80
1042.0,60,1.0,63,1,0,0,120,64,100,80
1043.0,71,1.0,63,1,0,0,120,64,100,80
1044.0,64,1.0,63,1,0,0,120,64,100,80
1045.0,60,1.0,63,1,0,0,120,64,100,80
1046.0,0,1.0,63,1,0,0,120,64,100,80
1047.0,69,1.0,63,1,0,0,120,64,100,80
1048.0,60,1.0,63,1,0,0,120,64,100,80
1049.0,60,1.0,63,1,0,0,120,64,100,80
1050.0,62,1.0,63,1,0,0,120,64,100,80
1051.0,69,1.0,63,1,0,0,120,64,100,80
1052.0,64,1.0,63,1,0,0,120,64,100,80
1053.0,62,1.0,63,1,0,0,120,64,100,80
1054.0,60,1.0,63,1,0,0,120,64,100,80
1055.0,67,1.0,63,1,0,0,120,64,100,80
1056.0,64,1.0,63,1,0,0,120,64,100,80
1057.0,64,1.0,63,1,0,0,120,64,100,80
1058.0,60,1.0,63,1,0,0,120,64,100,80
1059.0,67,1.0,63,1,0,0,120,64,100,80
1060.0,64,1.0,63,1,0,0,120,64,100,80
1061.0,69,1.0,63,1,0,0,120,64,100,80
1062.0,62,1.0,63,1,0,0,120,64,100,80
1063.0,65,1.0,63,1,0,0,120,64,100,80
1064.0,60,1.0,63,1,0,0,120,64,100,80
1065.0,60,1.0,63,1,0,0,120,64,100,80
1066.0,62,1.0,63,1,0,0,120,64,100,80
1067.0,71,1.0,63,1,0,0,120,64,100,80
1068.0,60,1.0,63,1,0,0,120,64,100,80
1069.0,62,1.0,63,1,0,0,120,64,100,80
1070.0,60,1.0,63,1,0,0,120,64,100,80
1071.0,64,1.0,63,1,0,0,120,64,100,80
1072.0,60,1.0,63,1,0,0,120,64,100,80
1073.0,64,1.0,63,1,0,0,120,64,100,80
1074.0,62,1.0,63,1,0,0,120,64,100,80
1075.0,64,1.0,63,1,0,0,120,64,100,80
1076.0,60,1.0,63,1,0,0,120,64,100,80
1077.0,69,1.0,63,1,0,0,120,64,100,80
1078.0,64,1.0,63,1,0,0,120,64,100,80
1079.0,60,1.0,63,1,0,0,120,64,100,80
1080.0,60,1.0,63,1,0,0,120,64,100,80
1081.0,62,1.0,63,1,0,0,120,64,100,80
1082.0,60,1.0,63,1,0,0,120,64,100,80
1083.0,60,1.0,63,1,0,0,120,64,100,80
1084.0,62,1.0,63,1,0,0,120,64,100,80
1085.0,71,1.0,63,1,0,0,120,64,100,80
1086.0,62,1.0,63,1,0,0,120,64,100,80
1087.0,69,1.0,63,1,0,0,120,64,100,80
1088.0,69,1.0,63,1,0,0,120,64,100,80
1089.0,65,1.0,63,1,0,0,120,64,100,80
1090.0,65,1.0,63,1,0,0,120,64,100,80
1091.0,62,1.0,63,1,0,0,120,64,100,80
1092.0,64,1.0,63,1,0,0,120,64,100,80
1093.0,60,1.0,63,1,0,0,120,64,100,80
1094.0,62,1.0,63,1,0,0,120,64,100,80
1095.0,67,1.0,63,1,0,0,120,64,100,80
1096.0,60,1.0,63,1,0,0,120,64,100,80
1097.0,69,1.0,63,1,0,0,120,64,100,80
1098.0,60,1.0,63,1,0,0,120,64,100,80
1099.0,69,1.0,63,1,0,0,120,64,100,80
1100.0,62,1.0,63,1,0,0,120,64,100,80
1101.0,64,1.0,63,1,0,0,120,64,100,80
1102.0,64,1.0,63,1,0,0,120,64,100,80
1103.0,62,1.0,63,1,0,0,120,64,100,80
1104.0,60,1.0,63,1,0,0,120,64,100,80
1105.0,64,1.0,63,1,0,0,120,64,100,80
1106.0,60,1.0,63,1,0,0,120,64,100,80
1107.0,65,1.0,63,1,0,0,120,64,100,80
1108.0,60,1.0,63,1,0,0,120,64,100,80
1109.0,64,1.0,63,1,0,0,120,64,100,80
1110.0,64,1.0,63,1,0,0,120,64,100,80
1111.0,60,1.0,63,1,0,0,120,64,100,80
1112.0,62,1.0,63,1,0,0,120,64,100,80
1113.0,65,1.0,63,1,0,0,120,64,100,80
1114.0,60,1.0,63,1,0,0,120,64,100,80
1115.0,69,1.0,63,1,0,0,120,64,100,80
1116.0,67,1.0,63,1,0,0,120,64,100,80
1117.0,0,1.0,63,1,0,0,120,64,100,80
1118.0,60,1.0,63,1,0,0,120,64,100,80
1119.0,67,1.0,63,1,0,0,120,64,100,80
1120.0,64,1.0,63,1,0,0,120,64,100,80
1121.0,60,1.0,63,1,0,0,120,64,100,80
1122.0,60,1.0,63,1,0,0,120,64,100,80
1123.0,64,1.0,63,1,0,0,120,64,100,80
1124.0,62,1.0,63,1,0,0,120,64,100,80
1125.0,67,1.0,63,1,0,0,120,64,100,80
1126.0,62,1.0,63,1,0,0,120,64,100,80
1127.0,67,1.0,63,1,0,0,120,64,100,80
1128.0,62,1.0,63,1,0,0,120,64,100,80
1129.0,60,1.0,63,1,0,0,120,64,100,80
1130.0,64,1.0,63,1,0,0,120,64,100,80
1131.0,65,1.0,63,1,0,0,120,64,100,80
1132.0,71,1.0,63,1,0,0,120,64,100,80
1133.0,60,1.0,63,1,0,0,120,64,100,80
1134.0,65,1.0,63,1,0,0,120,64,100,80
1135.0,71,1.0,63,1,0,0,120,64,100,80
1136.0,71,1.0,63,1,0,0,120,64,100,80
1137.0,67,1.0,63,1,0,0,120,64,100,80
1138.0,60,1.0,63,1,0,0,120,64,100,80
1139.0,67,1.0,63,1,0,0,120,64,100,80
1140.0,64,1.0,63,1,0,0,120,64,100,80
1141.0,71,1.0,63,1,0,0,120,64,100,80
1142.0,60,1.0,63,1,0,0,120,64,100,80
1143.0,60,1.0,63,1,0,0,120,64,100,80
1144.0,62,1.0,63,1,0,0,120,64,100,80
1145.0,64,1.0,63,1,0,0,120,64,100,80
1146.0,62,1.0,63,1,0,0,120,64,100,80
1147.0,65,1.0,63,1,0,0,120,64,100,80
1148.0,60,1.0,63,1,0,0,120,64,100,80
1149.0,71,1.0,63,1,0,0,120,64,100,80
1150.0,71,1.0,63,1,0,0,120,64,100,80
1151.0,69,1.0,63,1,0,0,120,64,100,80
1152.0,62,1.0,63,1,0,0,120,64,100,80
1153.0,69,1.0,63,1,0,0,120,64,100,80
1154.0,60,1.0,63,1,0,0,120,64,100,80
1155.0,71,1.0,63,1,0,0,120,64,100,80
1156.0,60,1.0,63,1,0,0,120,64,100,80
1157.0,67,1.0,63,1,0,0,120,64,100,80
1158.0,60,1.0,63,1,0,0,120,64,100,80
1159.0,65,1.0,63,1,0,0,120,64,100,80
1160.0,64,1.0,63,1,0,0,120,64,100,80
1161.0,60,1.0,63,1,0,0,120,64,100,80
1162.0,64,1.0,63,1,0,0,120,64,100,80
1163.0,71,1.0,63,1,0,0,120,64,100,80
1164.0,60,1.0,63,1,0,0,120,64,100,80
1165.0,60,1.0,63,1,0,0,120,64,100,80
1166.0,65,1.0,63,1,0,0,120,64,100,80
1167.0,71,1.0,63,1,0,0,120,64,100,80
1168.0,69,1.0,63,1,0,0,120,64,100,80
1169.0,60,1.0,63,1,0,0,120,64,100,80
1170.0,71,1.0,63,1,0,0,120,64,100,80
1171.0,64,1.0,63,1,0,0,120,64,100,80
1172.0,65,1.0,63,1,0,0,120,64,100,80
1173.0,65,1.0,63,1,0,0,120,64,100,80
1174.0,60,1.0,63,1,0,0,120,64,100,80
1175.0,60,1.0,63,1,0,0,120,64,100,80
1176.0,71,1.0,63,1,0,0,120,64,100,80
1177.0,69,1.0,63,1,0,0,120,64,100,80
1178.0,65,1.0,63,1,0,0,120,64,100,80
1179.0,64,1.0,63,1,0,0,120,64,100,80
1180.0,64,1.0,63,1,0,0,120,64,100,80
1181.0,60,1.0,63,1,0,0,120,64,100,80
1182.0,62,1.0,63,1,0,0,120,64,100,80
1183.0,65,1.0,63,1,0,0,120,64,100,80
1184.0,64,1.0,63,1,0,0,120,64,100,80
1185.0,64,1.0,63,1,0,0,120,64,100,80
1186.0,67,1.0,63,1,0,0,120,64,100,80
1187.0,69,1.0,63,1,0,0,120,64,100,80
1188.0,64,1.0,63,1,0,0,120,64,100,80
1189.0,69,1.0,63,1,0,0,120,64,100,80
1190.0,60,1.0,63,1,0,0,120,64,100,80
1191.0,64,1.0,63,1,0,0,120,64,100,80
1192.0,65,1.0,63,1,0,0,120,64,100,80
1193.0,67,1.0,63,1,0,0,120,64,100,80
1194.0,60,1.0,63,1,0,0,120,64,100,80
1195.0,64,1.0,63,1,0,0,120,64,100,80
1196.0,64,1.0,63,1,0,0,120,64,100,80
1197.0,60,1.0,63,1,0,0,120,64,100,80
1198.0,64,1.0,63,1,0,0,120,64,100,80
1199.0,69,1.0,63,1,0,0,120,64,100,80
1200.0,65,1.0,63,1,0,0,120,64,100,80
1201.0,62,1.0,63,1,0,0,120,64,100,80
1202.0,60,1.0,63,1,0,0,120,64,100,80
1203.0,64,1.0,63,1,0,0,120,64,100,80
1204.0,65,1.0,63,1,0,0,120,64,100,80
1205.0,71,1.0,63,1,0,0,120,64,100,80
1206.0,67,1.0,63,1,0,0,120,64,100,80
1207.0,69,1.0,63,1,0,0,120,64,100,80
1208.0,64,1.0,63,1,0,0,120,64,100,80
1209.0,67,1.0,63,1,0,0,120,64,100,80
1210.0,60,1.0,63,1,0,0,120,64,100,80
1211.0,69,1.0,63,1,0,0,120,64,100,80
1212.0,65,1.0,63,1,0,0,120,64,100,80
1213.0,60,1.0,63,1,0,0,120,64,100,80
1214.0,65,1.0,63,1,0,0,120,64,100,80
1215.0,65,1.0,63,1,0,0,120,64,100,80
1216.0,64,1.0,63,1,0,0,120,64,100,80
1217.0,62,1.0,63,1,0,0,120,64,100,80
1218.0,64,1.0,63,1,0,0,120,64,100,80
1219.0,65,1.0,63,1,0,0,120,64,100,80
1220.0,69,1.0,63,1,0,0,120,64,100,80
1221.0,60,1.0,63,1,0,0,120,64,100,80
1222.0,62,1.0,63,1,0,0,120,64,100,80
1223.0,60,1.0,63,1,0,0,120,64,100,80
1224.0,65,1.0,63,1,0,0,120,64,100,80
1225.0,69,1.0,63,1,0,0,120,64,100,80
1226.0,71,1.0,63,1,0,0,120,64,100,80
1227.0,62,1.0,63,1,0,0,120,64,100,80
1228.0,62,1.0,63,1,0,0,120,64,100,80
1229.0,64,1.0,63,1,0,0,120,64,100,80
1230.0,64,1.0,63,1,0,0,120,64,100,80
1231.0,69,1.0,63,1,0,0,120,64,100,80
1232.0,64,1.0,63,1,0,0,120,64,100,80
1233.0,64,1.0,63,1,0,0,120,64,100,80
1234.0,60,1.0,63,1,0,0,120,64,100,80
1235.0,62,1.0,63,1,0,0,120,64,100,80
1236.0,60,1.0,63,1,0,0,120,64,100,80
1237.0,60,1.0,63,1,0,0,120,64,100,80
1238.0,69,1.0,63,1,0,0,120,64,100,80
1239.0,60,1.0,63,1,0,0,120,64,100,80
1240.0,60,1.0,63,1,0,0,120,64,100,80
1241.0,67,1.0,63,1,0,0,120,64,100,80
1242.0,62,1.0,63,1,0,0,120,64,100,80
1243.0,69,1.0,63,1,0,0,120,64,100,80
1244.0,0,1.0,63,1,0,0,120,64,100,80
1245.0,62,1.0,63,1,0,0,120,64,100,80
1246.0,64,1.0,63,1,0,0,120,64,100,80
1247.0,64,1.0,63,1,0,0,120,64,100,80
1248.0,69,1.0,63,1,0,0,120,64,100,80
1249.0,69,1.0,63,1,0,0,120,64,100,80
1250.0,65,1.0,63,1,0,0,120,64,100,80
1251.0,71,1.0,63,1,0,0,120,64,100,80
1252.0,69,1.0,63,1,0,0,120,64,100,80
1253.0,0,1.0,63,1,0,0,120,64,100,80
1254.0,67,1.0,63,1,0,0,120,64,100,80
1255.0,62,1.0,63,1,0,0,120,64,100,80
1256.0,60,1.0,63,1,0,0,120,64,100,80
1257.0,60,1.0,63,1,0,0,120,64,100,80
1258.0,60,1.0,63,1,0,0,120,64,100,80
1259.0,64,1.0,63,1,0,0,120,64,100,80
1260.0,65,1.0,63,1,0,0,120,64,100,80
1261.0,60,1.0,63,1,0,0,120,64,100,80
1262.0,0,1.0,63,1,0,0,120,64,100,80
1263.0,65,1.0,63,1,0,0,120,64,100,80
1264.0,64,1.0,63,1,0,0,120,64,100,80
1265.0,65,1.0,63,1,0,0,120,64,100,80
1266.0,65,1.0,63,1,0,0,120,64,100,80
1267.0,67,1.0,63,1,0,0,120,64,100,80
1268.0,62,1.0,63,1,0,0,120,64,100,80
1269.0,62,1.0,63,1,0,0,120,64,100,80
1270.0,0,1.0,63,1,0,0,120,64,100,80
1271.0,60,1.0,63,1,0,0,120,64,100,80
1272.0,62,1.0,63,1,0,0,120,64,100,80
1273.0,62,1.0,63,1,0,0,120,64,100,80
1274.0,60,1.0,63,1,0,0,120,64,100,80
1275.0,60,1.0,63,1,0,0,120,64,100,80
1276.0,64,1.0,63,1,0,0,120,64,100,80
1277.0,64,1.0,63,1,0,0,120,64,100,80
1278.0,0,1.0,63,1,0,0,120,64,100,80
1279.0,60,1.0,63,1,0,0,120,64,100,80
1280.0,60,1.0,63,1,0,0,120,64,100,80
1281.0,69,1.0,63,1,0,0,120,64,100,80
1282.0,60,1.0,63,1,0,0,120,64,100,80
1283.0,60,1.0,63,1,0,0,120,64,100,80
1284.0,64,1.0,63,1,0,0,120,64,100,80
1285.0,69,1.0,63,1,0,0,120,64,100,80
1286.0,60,1.0,63,1,0,0,120,64,100,80
1287.0,67,1.0,63,1,0,0,120,64,100,80
1288.0,67,1.0,63,1,0,0,120,64,100,80
1289.0,65,1.0,63,1,0,0,120,64,100,80
1290.0,60,1.0,63,1,0,0,120,64,100,80
1291.0,60,1.0,63,1,0,0,120,64,100,80
1292.0,64,1.0,63,1,0,0,120,64,100,80
1293.0,67,1.0,63,1,0,0,120,64,100,80
1294.0,62,1.0,63,1,0,0,120,64,100,80
1295.0,62,1.0,63,1,0,0,120,64,100,80
1296.0,69,1.0,63,1,0,0,120,64,100,80
1297.0,71,1.0,63,1,0,0,120,64,100,80
1298.0,67,1.0,63,1,0,0,120,64,100,80
1299.0,60,1.0,63,1,0,0,120,64,100,80
1300.0,60,1.0,63,1,0,0,120,64,100,80
1301.0,69,1.0,63,1,0,0,120,64,100,80
1302.0,62,1.0,63,1,0,0,120,64,100,80
1303.0,64,1.0,63,1,0,0,120,64,100,80
1304.0,64,1.0,63,1,0,0,120,64,100,80
1305.0,64,1.0,63,1,0,0,120,64,100,80
1306.0,0,1.0,63,1,0,0,120,64,100,80
1307.0,60,1.0,63,1,0,0,120,64,100,80
1308.0,71,1.0,63,1,0,0,120,64,100,80
1309.0,69,1.0,63,1,0,0,120,64,100,80
1310.0,69,1.0,63,1,0,0,120,64,100,80
1311.0,69,1.0,63,1,0,0,120,64,100,80
1312.0,64,1.0,63,1,0,0,120,64,100,80
1313.0,60,1.0,63,1,0,0,120,64,100,80
1314.0,60,1.0,63,1,0,0,120,64,100,80
1315.0,64,1.0,63,1,0,0,120,64,100,80
1316.0,69,1.0,63,1,0,0,120,64,100,80
1317.0,64,1.0,63,1,0,0,120,64,100,80
1318.0,60,1.0,63,1,0,0,120,64,100,80
1319.0,69,1.0,63,1,0,0,120,64,100,80
1320.0,62,1.0,63,1,0,0,120,64,100,80
1321.0,62,1.0,63,1,0,0,120,64,100,80
1322.0,69,1.0,63,1,0,0,120,64,100,80
1323.0,67,1.0,63,1,0,0,120,64,100,80
1324.0,64,1.0,63,1,0,0,120,64,100,80
1325.0,60,1.0,63,1,0,0,120,64,100,80
1326.0,60,1.0,63,1,0,0,120,64,100,80
1327.0,62,1.0,63,1,0,0,120,64,100,80
1328.0,62,1.0,63,1,0,0,120,64,100,80
1329.0,60,1.0,63,1,0,0,120,64,100,80
1330.0,60,1.0,63,1,0,0,120,64,100,80
1331.0,62,1.0,63,1,0,0,120,64,100,80
1332.0,65,1.0,63,1,0,0,120,64,100,80
1333.0,64,1.0,63,1,0,0,120,64,100,80
1334.0,67,1.0,63,1,0,0,120,64,100,80
1335.0,65,1.0,63,1,0,0,120,64,100,80
1336.0,60,1.0,63,1,0,0,120,64,100,80
1337.0,62,1.0,63,1,0,0,120,64,100,80
1338.0,62,1.0,63,1,0,0,120,64,100,80
1339.0,62,1.0,63,1,0,0,120,64,100,80
1340.0,69,1.0,63,1,0,0,120,64,100,80
1341.0,65,1.0,63,1,0,0,120,64,100,80
1342.0,60,1.0,63,1,0,0,120,64,100,80
1343.0,67,1.0,63,1,0,0,120,64,100,80
1344.0,64,1.0,63,1,0,0,120,64,100,80
1345.0,62,1.0,63,1,0,0,120,64,100,80
1346.0,60,1.0,63,1,0,0,120,64,100,80
1347.0,0,1.0,63,1,0,0,120,64,100,80
1348.0,60,1.0,63,1,0,0,120,64,100,80
1349.0,69,1.0,63,1,0,0,120,64,100,80
1350.0,60,1.0,63,1,0,0,120,64,100,80
1351.0,62,1.0,63,1,0,0,120,64,100,80
1352.0,69,1.0,63,1,0,0,120,64,100,80
1353.0,65,1.0,63,1,0,0,120,64,100,80
1354.0,64,1.0,63,1,0,0,120,64,100,80
1355.0,67,1.0,63,1,0,0,120,64,100,80
1356.0,60,1.0,63,1,0,0,120,64,100,80
1357.0,69,1.0,63,1,0,0,120,64,100,80
1358.0,62,1.0,63,1,0,0,120,64,100,80
1359.0,64,1.0,63,1,0,0,120,64,100,80
1360.0,60,1.0,63,1,0,0,120,64,100,80
1361.0,60,1.0,63,1,0,0,120,64,100,80
1362.0,69,1.0,63,1,0,0,120,64,100,80
1363.0,65,1.0,63,1,0,0,120,64,100,80
1364.0,60,1.0,63,1,0,0,120,64,100,80
1365.0,62,1.0,63,1,0,0,120,64,100,80
1366.0,69,1.0,63,1,0,0,120,64,100,80
1367.0,67,1.0,63,1,0,0,120,64,100,80
1368.0,67,1.0,63,1,0,0,120,64,100,80
1369.0,65,1.0,63,1,0,0,120,64,100,80
1370.0,60,1.0,63,1,0,0,120,64,100,80
1371.0,71,1.0,63,1,0,0,120,64,100,80
1372.0,60,1.0,63,1,0,0,120,64,100,80
1373.0,0,1.0,63,1,0,0,120,64,100,80
1374.0,64,1.0,63,1,0,0,120,64,100,80
1375.0,60,1.0,63,1,0,0,120,64,100,80
1376.0,64,1.0,63,1,0,0,120,64,100,80
1377.0,64,1.0,63,1,0,0,120,64,100,80
1378.0,62,1.0,63,1,0,0,120,64,100,80
1379.0,60,1.0,63,1,0,0,120,64,100,80
1380.0,60,1.0,63,1,0,0,120,64,100,80
1381.0,69,1.0,63,1,0,0,120,64,100,80
1382.0,65,1.0,63,1,0,0,120,64,100,80
1383.0,64,1.0,63,1,0,0,120,64,100,80
1384.0,69,1.0,63,1,0,0,120,64,100,80
1385.0,69,1.0,63,1,0,0,120,64,100,80
1386.0,71,1.0,63,1,0,0,120,64,100,80
1387.0,64,1.0,63,1,0,0,120,64,100,80
1388.0,65,1.0,63,1,0,0,120,64,100,80
1389.0,64,1.0,63,1,0,0,120,64,100,80
1390.0,64,1.0,63,1,0,0,120,64,100,80
1391.0,62,1.0,63,1,0,0,120,64,100,80
1392.0,67,1.0,63,1,0,0,120,64,100,80
1393.0,69,1.0,63,1,0,0,120,64,100,80
1394.0,62,1.0,63,1,0,0,120,64,100,80
1395.0,67,1.0,63,1,0,0,120,64,100,80
1396.0,65,1.0,63,1,0,0,120,64,100,80
1397.0,64,1.0,63,1,0,0,120,64,100,80
1398.0,67,1.0,63,1,0,0,120,64,100,80
1399.0,62,1.0,63,1,0,0,120,64,100,80
1400.0,0,1.0,63,1,0,0,120,64,100,80
1401.0,71,1.0,63,1,0,0,120,64,100,80
1402.0,65,1.0,63,1,0,0,120,64,100,80
1403.0,62,1.0,63,1,0,0,120,64,100,80
1404.0,67,1.0,63,1,0,0,120,64,100,80
1405.0,62,1.0,63,1,0,0,120,64,100,80
1406.0,71,1.0,63,1,0,0,120,64,100,80
1407.0,65,1.0,63,1,0,0,120,64,100,80
1408.0,64,1.0,63,1,0,0,120,64,100,80
1409.0,62,1.0,63,1,0,0,120,64,100,80
1410.0,67,1.0,63,1,0,0,120,64,100,80
1411.0,60,1.0,63,1,0,0,120,64,100,80
1412.0,69,1.0,63,1,0,0,120,64,100,80
1413.0,62,1.0,63,1,0,0,120,64,100,80
1414.0,62,1.0,63,1,0,0,120,64,100,80
1415.0,60,1.0,63,1,0,0,120,64,100,80
1416.0,60,1.0,63,1,0,0,120,64,100,80
1417.0,64,1.0,63,1,0,0,120,64,100,80
1418.0,71,1.0,63,1,0,0,120,64,100,80
1419.0,60,1.0,63,1,0,0,120,64,100,80
1420.0,60,1.0,63,1,0,0,120,64,100,80
1421.0,60,1.0,63,1,0,0,120,64,100,80
1422.0,62,1.0,63,1,0,0,120,64,100,80
1423.0,69,1.0,63,1,0,0,120,64,100,80
1424.0,64,1.0,63,1,0,0,120,64,100,80
1425.0,69,1.0,63,1,0,0,120,64,100,80
1426.0,64,1.0,63,1,0,0,120,64,100,80
1427.0,64,1.0,63,1,0,0,120,64,100,80
1428.0,60,1.0,63,1,0,0,120,64,100,80
1429.0,0,1.0,63,1,0,0,120,64,100,80
1430.0,60,1.0,63,1,0,0,120,64,100,80
1431.0,69,1.0,63,1,0,0,120,64,100,80
1432.0,60,1.0,63,1,0,0,120,64,100,80
1433.0,62,1.0,63,1,0,0,120,64,100,80
1434.0,62,1.0,63,1,0,0,120,64,100,80
1435.0,69,1.0,63,1,0,0,120,64,100,80
1436.0,64,1.0,63,1,0,0,120,64,100,80
1437.0,62,1.0,63,1,0,0,120,64,100,80
1438.0,64,1.0,63,1,0,0,120,64,100,80
1439.0,60,1.0,63,1,0,0,120,64,100,80
1440.0,69,1.0,63,1,0,0,120,64,100,80
1441.0,69,1.0,63,1,0,0,120,64,100,80
1442.0,71,1.0,63,1,0,0,120,64,100,80
1443.0,69,1.0,63,1,0,0,120,64,100,80
1444.0,64,1.0,63,1,0,0,120,64,100,80
1445.0,64,1.0,63,1,0,0,120,64,100,80
1446.0,62,1.0,63,1,0,0,120,64,100,80
1447.0,69,1.0,63,1,0,0,120,64,100,80
1448.0,69,1.0,63,1,0,0,120,64,100,80
1449.0,69,1.0,63,1,0,0,120,64,100,80
1450.0,62,1.0,63,1,0,0,120,64,100,80
1451.0,62,1.0,63,1,0,0,120,64,100,80
1452.0,65,1.0,63,1,0,0,120,64,100,80
1453.0,65,1.0,63,1,0,0,120,64,100,80
1454.0,62,1.0,63,1,0,0,120,64,100,80
1455.0,65,1.0,63,1,0,0,120,64,100,80
1456.0,62,1.0,63,1,0,0,120,64,100,80
1457.0,64,1.0,63,1,0,0,120,64,100,80
1458.0,60,1.0,63,1,0,0,120,64,100,80
1459.0,62,1.0,63,1,0,0,120,64,100,80
1460.0,60,1.0,63,1,0,0,120,64,100,80
1461.0,60,1.0,63,1,0,0,120,64,100,80
1462.0,60,1.0,63,1,0,0,120,64,100,80
1463.0,60,1.0,63,1,0,0,120,64,100,80
1464.0,60,1.0,63,1,0,0,120,64,100,80
1465.0,71,1.0,63,1,0,0,120,64,100,80
1466.0,60,1.0,63,1,0,0,120,64,100,80
1467.0,67,1.0,63,1,0,0,120,64,100,80
1468.0,64,1.0,63,1,0,0,120,64,100,80
1469.0,62,1.0,63,1,0,0,120,64,100,80
1470.0,62,1.0,63,1,0,0,120,64,100,80
1471.0,62,1.0,63,1,0,0,120,64,100,80
1472.0,62,1.0,63,1,0,0,120,64,100,80
1473.0,60,1.0,63,1,0,0,120,64,100,80
1474.0,62,1.0,63,1,0,0,120,64,100,80
1475.0,64,1.0,63,1,0,0,120,64,100,80
1476.0,62,1.0,63,1,0,0,120,64,100,80
1477.0,71,1.0,63,1,0,0,120,64,100,80
1478.0,65,1.0,63,1,0,0,120,64,100,80
1479.0,62,1.0,63,1,0,0,120,64,100,80
1480.0,71,1.0,63,1,0,0,120,64,100,80
1481.0,69,1.0,63,1,0,0,120,64,100,80
1482.0,64,1.0,63,1,0,0,120,64,100,80
1483.0,62,1.0,63,1,0,0,120,64,100,80
1484.0,65,1.0,63,1,0,0,120,64,100,80
1485.0,69,1.0,63,1,0,0,120,64,100,80
1486.0,64,1.0,63,1,0,0,120,64,100,80
1487.0,67,1.0,63,1,0,0,120,64,100,80
1488.0,60,1.0,63,1,0,0,120,64,100,80
1489.0,67,1.0,63,1,0,0,120,64,100,80
1490.0,69,1.0,63,1,0,0,120,64,100,80
1491.0,62,1.0,63,1,0,0,120,64,100,80
1492.0,65,1.0,63,1,0,0,120,64,100,80
1493.0,60,1.0,63,1,0,0,120,64,100,80
1494.0,69,1.0,63,1,0,0,120,64,100,80
1495.0,60,1.0,63,1,0,0,120,64,100,80
1496.0,64,1.0,63,1,0,0,120,64,100,80
1497.0,65,1.0,63,1,0,0,120,64,100,80
1498.0,60,1.0,63,1,0,0,120,64,100,80
1499.0,64,1.0,63,1,0,0,120,64,100,80
1500.0,64,1.0,63,1,0,0,120,64,100,80
1501.0,62,1.0,63,1,0,0,120,64,100,80
1502.0,60,1.0,63,1,0,0,120,64,100,80
1503.0,65,1.0,63,1,0,0,120,64,100,80
1504.0,64,1.0,63,1,0,0,120,64,100,80
1505.0,65,1.0,63,1,0,0,120,64,100,80
1506.0,62,1.0,63,1,0,0,120,64,100,80
1507.0,62,1.0,63,1,0,0,120,64,100,80
1508.0,69,1.0,63,1,0,0,120,64,100,80
1509.0,67,1.0,63,1,0,0,120,64,100,80
1510.0,62,1.0,63,1,0,0,120,64,100,80
1511.0,71,1.0,63,1,0,0,120,64,100,80
1512.0,67,1.0,63,1,0,0,120,64,100,80
1513.0,60,1.0,63,1,0,0,120,64,100,80
1514.0,0,1.0,63,1,0,0,120,64,100,80
1515.0,71,1.0,63,1,0,0,120,64,100,80
1516.0,67,1.0,63,1,0,0,120,64,100,80
1517.0,62,1.0,63,1,0,0,120,64,100,80
1518.0,0,1.0,63,1,0,0,120,64,100,80
1519.0,60,1.0,63,1,0,0,120,64,100,80
1520.0,62,1.0,63,1,0,0,120,64,100,80
1521.0,69,1.0,63,1,0,0,120,64,100,80
1522.0,60,1.0,63,1,0,0,120,64,100,80
1523.0,65,1.0,63,1,0,0,120,64,100,80
1524.0,64,1.0,63,1,0,0,120,64,100,80
1525.0,69,1.0,63,1,0,0,120,64,100,80
1526.0,65,1.0,63,1,0,0,120,64,100,80
1527.0,69,1.0,63,1,0,0,120,64,100,80
1528.0,69,1.0,63,1,0,0,120,64,100,80
1529.0,67,1.0,63,1,0,0,120,64,100,80
1530.0,60,1.0,63,1,0,0,120,64,100,80
1531.0,62,1.0,63,1,0,0,120,64,100,80
1532.0,69,1.0,63,1,0,0,120,64,100,80
1533.0,67,1.0,63,1,0,0,120,64,100,80
1534.0,65,1.0,63,1,0,0,120,64,100,80
1535.0,67,1.0,63,1,0,0,120,64,100,80
1536.0,67,1.0,63,1,0,0,120,64,100,80
1537.0,67,1.0,63,1,0,0,120,64,100,80
1538.0,64,1.0,63,1,0,0,120,64,100,80
1539.0,62,1.0,63,1,0,0,120,64,100,80
1540.0,69,1.0,63,1,0,0,120,64,100,80
1541.0,64,1.0,63,1,0,0,120,64,100,80
1542.0,64,1.0,63,1,0,0,120,64,100,80
1543.0,69,1.0,63,1,0,0,120,64,100,80
1544.0,60,1.0,63,1,0,0,120,64,100,80
1545.0,69,1.0,63,1,0,0,120,64,100,80
1546.0,60,1.0,63,1,0,0,120,64,100,80
1547.0,62,1.0,63,1,0,0,120,64,100,80
1548.0,65,1.0,63,1,0,0,120,64,100,80
1549.0,60,1.0,63,1,0,0,120,64,100,80
1550.0,60,1.0,63,1,0,0,120,64,100,80
1551.0,60,1.0,63,1,0,0,120,64,100,80
1552.0,0,1.0,63,1,0,0,120,64,100,80
1553.0,62,1.0,63,1,0,0,120,64,100,80
1554.0,64,1.0,63,1,0,0,120,64,100,80
1555.0,69,1.0,63,1,0,0,120,64,100,80
1556.0,60,1.0,63,1,0,0,120,64,100,80
1557.0,60,1.0,63,1,0,0,120,64,100,80
1558.0,64,1.0,63,1,0,0,120,64,100,80
1559.0,60,1.0,63,1,0,0,120,64,100,80
1560.0,62,1.0,63,1,0,0,120,64,100,80
1561.0,60,1.0,63,1,0,0,120,64,100,80
1562.0,62,1.0,63,1,0,0,120,64,100,80
1563.0,60,1.0,63,1,0,0,120,64,100,80
1564.0,69,1.0,63,1,0,0,120,64,100,80
1565.0,69,1.0,63,1,0,0,120,64,100,80
1566.0,64,1.0,63,1,0,0,120,64,100,80
1567.0,67,1.0,63,1,0,0,120,64,100,80
1568.0,62,1.0,63,1,0,0,120,64,100,80
1569.0,60,1.0,63,1,0,0,120,64,100,80
1570.0,62,1.0,63,1,0,0,120,64,100,80
1571.0,60,1.0,63,1,0,0,120,64,100,80
1572.0,60,1.0,63,1,0,0,120,64,100,80
1573.0,60,1.0,63,1,0,0,120,64,100,80
1574.0,62,1.0,63,1,0,0,120,64,100,80
1575.0,60,1.0,63,1,0,0,120,64,100,80
1576.0,65,1.0,63,1,0,0,120,64,100,80
1577.0,62,1.0,63,1,0,0,120,64,100,80
1578.0,60,1.0,63,1,0,0,120,64,100,80
1579.0,60,1.0,63,1,0,0,120,64,100,80
1580.0,69,1.0,63,1,0,0,120,64,100,80
1581.0,69,1.0,63,1,0,0,120,64,100,80
1582.0,65,1.0,63,1,0,0,120,64,100,80
1583.0,60,1.0,63,1,0,0,120,64,100,80
1584.0,67,1.0,63,1,0,0,120,64,100,80
1585.0,62,1.0,63,1,0,0,120,64,100,80
1586.0,60,1.0,63,1,0,0,120,64,100,80
1587.0,65,1.0,63,1,0,0,120,64,100,80
1588.0,62,1.0,63,1,0,0,120,64,100,80
1589.0,60,1.0,63,1,0,0,120,64,100,80
1590.0,62,1.0,63,1,0,0,120,64,100,80
1591.0,67,1.0,63,1,0,0,120,64,100,80
1592.0,64,1.0,63,1,0,0,120,64,100,80
1593.0,60,1.0,63,1,0,0,120,64,100,80
1594.0,60,1.0,63,1,0,0,120,64,100,80
1595.0,60,1.0,63,1,0,0,120,64,100,80
1596.0,62,1.0,63,1,0,0,120,64,100,80
1597.0,60,1.0,63,1,0,0,120,64,100,80
1598.0,60,1.0,63,1,0,0,120,64,100,80
1599.0,65,1.0,63,1,0,0,120,64,100,80
1600.0,69,1.0,63,1,0,0,120,64,100,80
1601.0,67,1.0,63,1,0,0,120,64,100,80
1602.0,64,1.0,63,1,0,0,120,64,100,80
1603.0,62,1.0,63,1,0,0,120,64,100,80
1604.0,69,1.0,63,1,0,0,120,64,100,80
1605.0,0,1.0,63,1,0,0,120,64,100,80
1606.0,67,1.0,63,1,0,0,120,64,100,80
1607.0,60,1.0,63,1,0,0,120,64,100,80
1608.0,62,1.0,63,1,0,0,120,64,100,80
1609.0,60,1.0,63,1,0,0,120,64,100,80
1610.0,64,1.0,63,1,0,0,120,64,100,80
1611.0,67,1.0,63,1,0,0,120,64,100,80
1612.0,69,1.0,63,1,0,0,120,64,100,80
1613.0,64,1.0,63,1,0,0,120,64,100,80
1614.0,64,1.0,63,1,0,0,120,64,100,80
1615.0,62,1.0,63,1,0,0,120,64,100,80
1616.0,62,1.0,63,1,0,0,120,64,100,80
1617.0,62,1.0,63,1,0,0,120,64,100,80
1618.0,62,1.0,63,1,0,0,120,64,100,80
1619.0,62,1.0,63,1,0,0,120,64,100,80
1620.0,64,1.0,63,1,0,0,120,64,100,80
1621.0,67,1.0,63,1,0,0,120,64,100,80
1622.0,62,1.0,63,1,0,0,120,64,100,80
1623.0,60,1.0,63,1,0,0,120,64,100,80
1624.0,71,1.0,63,1,0,0,120,64,100,80
1625.0,69,1.0,63,1,0,0,120,64,100,80
1626.0,62,1.0,63,1,0,0,120,64,100,80
1627.0,60,1.0,63,1,0,0,120,64,100,80
1628.0,62,1.0,63,1,0,0,120,64,100,80
1629.0,69,1.0,63,1,0,0,120,64,100,80
1630.0,65,1.0,63,1,0,0,120,64,100,80
1631.0,60,1.0,63,1,0,0,120,64,100,80
1632.0,67,1.0,63,1,0,0,120,64,100,80
1633.0,62,1.0,63,1,0,0,120,64,100,80
1634.0,65,1.0,63,1,0,0,120,64,100,80
1635.0,60,1.0,63,1,0,0,120,64,100,80
1636.0,60,1.0,63,1,0,0,120,64,100,80
1637.0,60,1.0,63,1,0,0,120,64,100,80
1638.0,65,1.0,63,1,0,0,120,64,100,80
1639.0,62,1.0,63,1,0,0,120,64,100,80
1640.0,62,1.0,63,1,0,0,120,64,100,80
1641.0,69,1.0,63,1,0,0,120,64,100,80
1642.0,60,1.0,63,1,0,0,120,64,100,80
1643.0,65,1.0,63,1,0,0,120,64,100,80
1644.0,60,1.0,63,1,0,0,120,64,100,80
1645.0,62,1.0,63,1,0,0,120,64,100,80
1646.0,60,1.0,63,1,0,0,120,64,100,80
1647.0,69,1.0,63,1,0,0,120,64,100,80
1648.0,65,1.0,63,1,0,0,120,64,100,80
1649.0,64,1.0,63,1,0,0,120,64,100,80
1650.0,64,1.0,63,1,0,0,120,64,100,80
1651.0,67,1.0,63,1,0,0,120,64,100,80
1652.0,69,1.0,63,1,0,0,120,64,100,80
1653.0,62,1.0,63,1,0,0,120,64,100,80
1654.0,60,1.0,63,1,0,0,120,64,100,80
1655.0,65,1.0,63,1,0,0,120,64,100,80
1656.0,67,1.0,63,1,0,0,120,64,100,80
1657.0,64,1.0,63,1,0,0,120,64,100,80
1658.0,0,1.0,63,1,0,0,120,64,100,80
1659.0,64,1.0,63,1,0,0,120,64,100,80
1660.0,62,1.0,63,1,0,0,120,64,100,80
1661.0,0,1.0,63,1,0,0,120,64,100,80
1662.0,60,1.0,63,1,0,0,120,64,100,80
1663.0,69,1.0,63,1,0,0,120,64,100,80
1664.0,64,1.0,63,1,0,0,120,64,100,80
1665.0,64,1.0,63,1,0,0,120,64,100,80
1666.0,69,1.0,63,1,0,0,120,64,100,80
1667.0,60,1.0,63,1,0,0,120,64,100,80
1668.0,60,1.0,63,1,0,0,120,64,100,80
1669.0,62,1.0,63,1,0,0,120,64,100,80
1670.0,60,1.0,63,1,0,0,120,64,100,80
1671.0,62,1.0,63,1,0,0,120,64,100,80
1672.0,62,1.0,63,1,0,0,120,64,100,80
1673.0,65,1.0,63,1,0,0,120,64,100,80
1674.0,62,1.0,63,1,0,0,120,64,100,80
1675.0,65,1.0,63,1,0,0,120,64,100,80
1676.0,69,1.0,63,1,0,0,120,64,100,80
1677.0,67,1.0,63,1,0,0,120,64,100,80
1678.0,65,1.0,63,1,0,0,120,64,100,80
1679.0,60,1.0,63,1,0,0,120,64,100,80
1680.0,62,1.0,63,1,0,0,120,64,100,80
1681.0,60,1.0,63,1,0,0,120,64,100,80
1682.0,60,1.0,63,1,0,0,120,64,100,80
1683.0,62,1.0,63,1,0,0,120,64,100,80
1684.0,67,1.0,63,1,0,0,120,64,100,80
1685.0,60,1.0,63,1,0,0,120,64,100,80
1686.0,64,1.0,63,1,0,0,120,64,100,80
1687.0,64,1.0,63,1,0,0,120,64,100,80
1688.0,60,1.0,63,1,0,0,120,64,100,80
1689.0,64,1.0,63,1,0,0,120,64,100,80
1690.0,60,1.0,63,1,0,0,120,64,100,80
1691.0,62,1.0,63,1,0,0,120,64,100,80
1692.0,60,1.0,63,1,0,0,120,64,100,80
1693.0,60,1.0,63,1,0,0,120,64,100,80
1694.0,65,1.0,63,1,0,0,120,64,100,80
1695.0,67,1.0,63,1,0,0,120,64,100,80
1696.0,65,1.0,63,1,0,0,120,64,100,80
1697.0,60,1.0,63,1,0,0,120,64,100,80
1698.0,71,1.0,63,1,0,0,120,64,100,80
1699.0,60,1.0,63,1,0,0,120,64,100,80
1700.0,60,1.0,63,1,0,0,120,64,100,80
1701.0,0,1.0,63,1,0,0,120,64,100,80
1702.0,60,1.0,63,1,0,0,120,64,100,80
1703.0,0,1.0,63,1,0,0,120,64,100,80
1704.0,64,1.0,63,1,0,0,120,64,100,80
1705.0,67,1.0,63,1,0,0,120,64,100,80
1706.0,62,1.0,63,1,0,0,120,64,100,80
1707.0,69,1.0,63,1,0,0,120,64,100,80
1708.0,67,1.0,63,1,0,0,120,64,100,80
1709.0,65,1.0,63,1,0,0,120,64,100,80
1710.0,69,1.0,63,1,0,0,120,64,100,80
1711.0,60,1.0,63,1,0,0,120,64,100,80
1712.0,60,1.0,63,1,0,0,120,64,100,80
1713.0,60,1.0,63,1,0,0,120,64,100,80
1714.0,64,1.0,63,1,0,0,120,64,100,80
1715.0,65,1.0,63,1,0,0,120,64,100,80
1716.0,69,1.0,63,1,0,0,120,64,100,80
1717.0,64,1.0,63,1,0,0,120,64,100,80
1718.0,60,1.0,63,1,0,0,120,64,100,80
1719.0,60,1.0,63,1,0,0,120,64,100,80
1720.0,62,1.0,63,1,0,0,120,64,100,80
1721.0,69,1.0,63,1,0,0,120,64,100,80
1722.0,60,1.0,63,1,0,0,120,64,100,80
1723.0,60,1.0,63,1,0,0,120,64,100,80
1724.0,60,1.0,63,1,0,0,120,64,100,80
1725.0,67,1.0,63,1,0,0,120,64,100,80
1726.0,60,1.0,63,1,0,0,120,64,100,80
1727.0,64,1.0,63,1,0,0,120,64,100,80
1728.0,62,1.0,63,1,0,0,120,64,100,80
1729.0,71,1.0,63,1,0,0,120,64,100,80
1730.0,64,1.0,63,1,0,0,120,64,100,80
1731.0,67,1.0,63,1,0,0,120,64,100,80
1732.0,64,1.0,63,1,0,0,120,64,100,80
1733.0,60,1.0,63,1,0,0,120,64,100,80
1734.0,62,1.0,63,1,0,0,120,64,100,80
1735.0,60,1.0,63,1,0,0,120,64,100,80
1736.0,65,1.0,63,1,0,0,120,64,100,80
1737.0,60,1.0,63,1,0,0,120,64,100,80
1738.0,0,1.0,63,1,0,0,120,64,100,80
1739.0,69,1.0,63,1,0,0,120,64,100,80
1740.0,60,1.0,63,1,0,0,120,64,100,80
1741.0,62,1.0,63,1,0,0,120,64,100,80
1742.0,60,1.0,63,1,0,0,120,64,100,80
1743.0,65,1.0,63,1,0,0,120,64,100,80
1744.0,62,1.0,63,1,0,0,120,64,100,80
1745.0,62,1.0,63,1,0,0,120,64,100,80
1746.0,60,1.0,63,1,0,0,120,64,100,80
1747.0,64,1.0,63,1,0,0,120,64,100,80
1748.0,65,1.0,63,1,0,0,120,64,100,80
1749.0,69,1.0,63,1,0,0,120,64,100,80
1750.0,64,1.0,63,1,0,0,120,64,100,80
1751.0,64,1.0,63,1,0,0,120,64,100,80
1752.0,64,1.0,63,1,0,0,120,64,100,80
1753.0,65,1.0,63,1,0,0,120,64,100,80
1754.0,69,1.0,63,1,0,0,120,64,100,80
1755.0,69,1.0,63,1,0,0,120,64,100,80
1756.0,64,1.0,63,1,0,0,120,64,100,80
1757.0,71,1.0,63,1,0,0,120,64,100,80
1758.0,60,1.0,63,1,0,0,120,64,100,80
1759.0,60,1.0,63,1,0,0,120,64,100,80
1760.0,64,1.0,63,1,0,0,120,64,100,80
1761.0,64,1.0,63,1,0,0,120,64,100,80
1762.0,69,1.0,63,1,0,0,120,64,100,80
1763.0,64,1.0,63,1,0,0,120,64,100,80
1764.0,67,1.0,63,1,0,0,120,64,100,80
1765.0,62,1.0,63,1,0,0,120,64,100,80
1766.0,64,1.0,63,1,0,0,120,64,100,80
1767.0,69,1.0,63,1,0,0,120,64,100,80
1768.0,69,1.0,63,1,0,0,120,64,100,80
1769.0,60,1.0,63,1,0,0,120,64,100,80
1770.0,64,1.0,63,1,0,0,120,64,100,80
1771.0,62,1.0,63,1,0,0,120,64,100,80
1772.0,60,1.0,63,1,0,0,120,64,100,80
1773.0,60,1.0,63,1,0,0,120,64,100,80
1774.0,64,1.0,63,1,0,0,120,64,100,80
1775.0,69,1.0,63,1,0,0,120,64,100,80
1776.0,60,1.0,63,1,0,0,120,64,100,80
1777.0,62,1.0,63,1,0,0,120,64,100,80
1778.0,64,1.0,63,1,0,0,120,64,100,80
1779.0,71,1.0,63,1,0,0,120,64,100,80
1780.0,60,1.0,63,1,0,0,120,64,100,80
1781.0,62,1.0,63,1,0,0,120,64,100,80
1782.0,67,1.0,63,1,0,0,120,64,100,80
1783.0,69,1.0,63,1,0,0,120,64,100,80
1784.0,62,1.0,63,1,0,0,120,64,100,80
1785.0,69,1.0,63,1,0,0,120,64,100,80
1786.0,64,1.0,63,1,0,0,120,64,100,80
1787.0,62,1.0,63,1,0,0,120,64,100,80
1788.0,69,1.0,63,1,0,0,120,64,100,80
1789.0,65,1.0,63,1,0,0,120,64,100,80
1790.0,62,1.0,63,1,0,0,120,64,100,80
1791.0,67,1.0,63,1,0,0,120,64,100,80
1792.0,69,1.0,63,1,0,0,120,64,100,80
1793.0,64,1.0,63,1,0,0,120,64,100,80
1794.0,67,1.0,63,1,0,0,120,64,100,80
1795.0,64,1.0,63,1,0,0,120,64,100,80
1796.0,71,1.0,63,1,0,0,120,64,100,80
1797.0,0,1.0,63,1,0,0,120,64,100,80
1798.0,62,1.0,63,1,0,0,120,64,100,80
1799.0,69,1.0,63,1,0,0,120,64,100,80
1800.0,62,1.0,63,1,0,0,120,64,100,80
1801.0,60,1.0,63,1,0,0,120,64,100,80
1802.0,65,1.0,63,1,0,0,120,64,100,80
1803.0,60,1.0,63,1,0,0,120,64,100,80
1804.0,62,1.0,63,1,0,0,120,64,100,80
1805.0,60,1.0,63,1,0,0,120,64,100,80
1806.0,64,1.0,63,1,0,0,120,64,100,80
1807.0,67,1.0,63,1,0,0,120,64,100,80
1808.0,71,1.0,63,1,0,0,120,64,100,80
1809.0,64,1.0,63,1,0,0,120,64,100,80
1810.0,60,1.0,63,1,0,0,120,64,100,80
1811.0,60,1.0,63,1,0,0,120,64,100,80
1812.0,60,1.0,63,1,0,0,120,64,100,80
1813.0,67,1.0,63,1,0,0,120,64,100,80
1814.0,64,1.0,63,1,0,0,120,64,100,80
1815.0,71,1.0,63,1,0,0,120,64,100,80
1816.0,60,1.0,63,1,0,0,120,64,100,80
1817.0,60,1.0,63,1,0,0,120,64,100,80
1818.0,69,1.0,63,1,0,0,120,64,100,80
1819.0,64,1.0,63,1,0,0,120,64,100,80
1820.0,60,1.0,63,1,0,0,120,64,100,80
1821.0,60,1.0,63,1,0,0,120,64,100,80
1822.0,64,1.0,63,1,0,0,120,64,100,80
1823.0,71,1.0,63,1,0,0,120,64,100,80
1824.0,60,1.0,63,1,0,0,120,64,100,80
1825.0,62,1.0,63,1,0,0,120,64,100,80
1826.0,69,1.0,63,1,0,0,120,64,100,80
1827.0,0,1.0,63,1,0,0,120,64,100,80
1828.0,60,1.0,63,1,0,0,120,64,100,80
1829.0,62,1.0,63,1,0,0,120,64,100,80
1830.0,71,1.0,63,1,0,0,120,64,100,80
1831.0,69,1.0,63,1,0,0,120,64,100,80
1832.0,0,1.0,63,1,0,0,120,64,100,80
1833.0,64,1.0,63,1,0,0,120,64,100,80
1834.0,64,1.0,63,1,0,0,120,64,100,80
1835.0,64,1.0,63,1,0,0,120,64,100,80
1836.0,67,1.0,63,1,0,0,120,64,100,80
1837.0,62,1.0,63,1,0,0,120,64,100,80
1838.0,64,1.0,63,1,0,0,120,64,100,80
1839.0,69,1.0,63,1,0,0,120,64,100,80
1840.0,65,1.0,63,1,0,0,120,64,100,80
1841.0,62,1.0,63,1,0,0,120,64,100,80
1842.0,60,1.0,63,1,0,0,120,64,100,80
1843.0,69,1.0,63,1,0,0,120,64,100,80
1844.0,62,1.0,63,1,0,0,120,64,100,80
1845.0,64,1.0,63,1,0,0,120,64,100,80
1846.0,67,1.0,63,1,0,0,120,64,100,80
1847.0,65,1.0,63,1,0,0,120,64,100,80
1848.0,69,1.0,63,1,0,0,120,64,100,80
1849.0,69,1.0,63,1,0,0,120,64,100,80
1850.0,64,1.0,63,1,0,0,120,64,100,80
1851.0,62,1.0,63,1,0,0,120,64,100,80
1852.0,60,1.0,63,1,0,0,120,64,100,80
1853.0,0,1.0,63,1,0,0,120,64,100,80
1854.0,71,1.0,63,1,0,0,120,64,100,80
1855.0,65,1.0,63,1,0,0,120,64,100,80
1856.0,60,1.0,63,1,0,0,120,64,100,80
1857.0,64,1.0,63,1,0,0,120,64,100,80
1858.0,62,1.0,63,1,0,0,120,64,100,80
1859.0,65,1.0,63,1,0,0,120,64,100,80
1860.0,60,1.0,63,1,0,0,120,64,100,80
1861.0,65,1.0,63,1,0,0,120,64,100,80
1862.0,64,1.0,63,1,0,0,120,64,100,80
1863.0,69,1.0,63,1,0,0,120,64,100,80
1864.0,69,1.0,63,1,0,0,120,64,100,80
1865.0,65,1.0,63,1,0,0,120,64,100,80
1866.0,65,1.0,63,1,0,0,120,64,100,80
1867.0,60,1.0,63,1,0,0,120,64,100,80
1868.0,64,1.0,63,1,0,0,120,64,100,80
1869.0,64,1.0,63,1,0,0,120,64,100,80
1870.0,64,1.0,63,1,0,0,120,64,100,80
1871.0,65,1.0,63,1,0,0,120,64,100,80
1872.0,69,1.0,63,1,0,0,120,64,100,80
1873.0,60,1.0,63,1,0,0,120,64,100,80
1874.0,69,1.0,63,1,0,0,120,64,100,80
1875.0,65,1.0,63,1,0,0,120,64,100,80
1876.0,62,1.0,63,1,0,0,120,64,100,80
1877.0,64,1.0,63,1,0,0,120,64,100,80
1878.0,71,1.0,63,1,0,0,120,64,100,80
1879.0,64,1.0,63,1,0,0,120,64,100,80
1880.0,67,1.0,63,1,0,0,120,64,100,80
1881.0,64,1.0,63,1,0,0,120,64,100,80
1882.0,62,1.0,63,1,0,0,120,64,100,80
1883.0,65,1.0,63,1,0,0,120,64,100,80
1884.0,64,1.0,63,1,0,0,120,64,100,80
1885.0,65,1.0,63,1,0,0,120,64,100,80
1886.0,69,1.0,63,1,0,0,120,64,100,80
1887.0,64,1.0,63,1,0,0,120,64,100,80
1888.0,62,1.0,63,1,0,0,120,64,100,80
1889.0,64,1.0,63,1,0,0,120,64,100,80
1890.0,69,1.0,63,1,0,0,120,64,100,80
1891.0,62,1.0,63,1,0,0,120,64,100,80
1892.0,67,1.0,63,1,0,0,120,64,100,80
1893.0,60,1.0,63,1,0,0,120,64,100,80
1894.0,62,1.0,63,1,0,0,120,64,100,80
1895.0,67,1.0,63,1,0,0,120,64,100,80
1896.0,71,1.0,63,1,0,0,120,64,100,80
1897.0,64,1.0,63,1,0,0,120,64,100,80
1898.0,62,1.0,63,1,0,0,120,64,100,80
1899.0,67,1.0,63,1,0,0,120,64,100,80
1900.0,67,1.0,63,1,0,0,120,64,100,80
1901.0,69,1.0,63,1,0,0,120,64,100,80
1902.0,60,1.0,63,1,0,0,120,64,100,80
1903.0,67,1.0,63,1,0,0,120,64,100,80
1904.0,67,1.0,63,1,0,0,120,64,100,80
1905.0,64,1.0,63,1,0,0,120,64,100,80
1906.0,64,1.0,63,1,0,0,120,64,100,80
1907.0,64,1.0,63,1,0,0,120,64,100,80
1908.0,60,1.0,63,1,0,0,120,64,100,80
1909.0,64,1.0,63,1,0,0,120,64,100,80
1910.0,62,1.0,63,1,0,0,120,64,100,80
1911.0,60,1.0,63,1,0,0,120,64,100,80
1912.0,67,1.0,63,1,0,0,120,64,100,80
1913.0,64,1.0,63,1,0,0,120,64,100,80
1914.0,65,1.0,63,1,0,0,120,64,100,80
1915.0,60,1.0,63,1,0,0,120,64,100,80
1916.0,62,1.0,63,1,0,0,120,64,100,80
1917.0,60,1.0,63,1,0,0,120,64,100,80
1918.0,64,1.0,63,1,0,0,120,64,100,80
1919.0,60,1.0,63,1,0,0,120,64,100,80
1920.0,60,1.0,63,1,0,0,120,64,100,80
1921.0,60,1.0,63,1,0,0,120,64,100,80
1922.0,64,1.0,63,1,0,0,120,64,100,80
1923.0,65,1.0,63,1,0,0,120,64,100,80
1924.0,64,1.0,63,1,0,0,120,64,100,80
1925.0,62,1.0,63,1,0,0,120,64,100,80
1926.0,60,1.0,63,1,0,0,120,64,100,80
1927.0,69,1.0,63,1,0,0,120,64,100,80
1928.0,64,1.0,63,1,0,0,120,64,100,80
1929.0,60,1.0,63,1,0,0,120,64,100,80
1930.0,60,1.0,63,1,0,0,120,64,100,80
1931.0,60,1.0,63,1,0,0,120,64,100,80
1932.0,69,1.0,63,1,0,0,120,64,100,80
1933.0,71,1.0,63,1,0,0,120,64,100,80
1934.0,64,1.0,63,1,0,0,120,64,100,80
1935.0,64,1.0,63,1,0,0,120,64,100,80
1936.0,71,1.0,63,1,0,0,120,64,100,80
1937.0,60,1.0,63,1,0,0,120,64,100,80
1938.0,60,1.0,63,1,0,0,120,64,100,80
1939.0,60,1.0,63,1,0,0,120,64,100,80
1940.0,64,1.0,63,1,0,0,120,64,100,80
1941.0,65,1.0,63,1,0,0,120,64,100,80
1942.0,60,1.0,63,1,0,0,120,64,100,80
1943.0,64,1.0,63,1,0,0,120,64,100,80
1944.0,62,1.0,63,1,0,0,120,64,100,80
1945.0,69,1.0,63,1,0,0,120,64,100,80
1946.0,71,1.0,63,1,0,0,120,64,100,80
1947.0,69,1.0,63,1,0,0,120,64,100,80
1948.0,69,1.0,63,1,0,0,120,64,100,80
1949.0,65,1.0,63,1,0,0,120,64,100,80
1950.0,62,1.0,63,1,0,0,120,64,100,80
1951.0,60,1.0,63,1,0,0,120,64,100,80
1952.0,64,1.0,63,1,0,0,120,64,100,80
1953.0,65,1.0,63,1,0,0,120,64,100,80
1954.0,60,1.0,63,1,0,0,120,64,100,80
1955.0,67,1.0,63,1,0,0,120,64,100,80
1956.0,69,1.0,63,1,0,0,120,64,100,80
1957.0,60,1.0,63,1,0,0,120,64,100,80
1958.0,71,1.0,63,1,0,0,120,64,100,80
1959.0,65,1.0,63,1,0,0,120,64,100,80
1960.0,64,1.0,63,1,0,0,120,64,100,80
1961.0,60,1.0,63,1,0,0,120,64,100,80
1962.0,60,1.0,63,1,0,0,120,64,100,80
1963.0,62,1.0,63,1,0,0,120,64,100,80
1964.0,60,1.0,63,1,0,0,120,64,100,80
1965.0,69,1.0,63,1,0,0,120,64,100,80
1966.0,71,1.0,63,1,0,0,120,64,100,80
1967.0,60,1.0,63,1,0,0,120,64,100,80
1968.0,60,1.0,63,1,0,0,120,64,100,80
1969.0,60,1.0,63,1,0,0,120,64,100,80
1970.0,60,1.0,63,1,0,0,120,64,100,80
1971.0,69,1.0,63,1,0,0,120,64,100,80
1972.0,60,1.0,63,1,0,0,120,64,100,80
1973.0,65,1.0,63,1,0,0,120,64,100,80
1974.0,65,1.0,63,1,0,0,120,64,100,80
1975.0,60,1.0,63,1,0,0,120,64,100,80
1976.0,71,1.0,63,1,0,0,120,64,100,80
1977.0,71,1.0,63,1,0,0,120,64,100,80
1978.0,71,1.0,63,1,0,0,120,64,100,80
1979.0,62,1.0,63,1,0,0,120,64,100,80
1980.0,60,1.0,63,1,0,0,120,64,100,80
1981.0,69,1.0,63,1,0,0,120,64,100,80
1982.0,64,1.0,63,1,0,0,120,64,100,80
1983.0,64,1.0,63,1,0,0,120,64,100,80
1984.0,64,1.0,63,1,0,0,120,64,100,80
1985.0,69,1.0,63,1,0,0,120,64,100,80
1986.0,69,1.0,63,1,0,0,120,64,100,80
1987.0,69,1.0,63,1,0,0,120,64,100,80
1988.0,71,1.0,63,1,0,0,120,64,100,80
1989.0,60,1.0,63,1,0,0,120,64,100,80
1990.0,62,1.0,63,1,0,0,120,64,100,80
1991.0,60,1.0,63,1,0,0,120,64,100,80
1992.0,64,1.0,63,1,0,0,120,64,100,80
1993.0,71,1.0,63,1,0,0,120,64,100,80
1994.0,69,1.0,63,1,0,0,120,64,100,80
1995.0,64,1.0,63,1,0,0,120,64,100,80
1996.0,65,1.0,63,1,0,0,120,64,100,80
1997.0,60,1.0,63,1,0,0,120,64,100,80
1998.0,71,1.0,63,1,0,0,120,64,100,80
1999.0,60,1.0,63,1,0,0,120,64,100,80
2000.0,69,1.0,63,1,0,0,120,64,100,80
2001.0,60,1.0,63,1,0,0,120,64,100,80
2002.0,65,1.0,63,1,0,0,120,64,100,80
2003.0,64,1.0,63,1,0,0,120,64,100,80
2004.0,64,1.0,63,1,0,0,120,64,100,80
2005.0,60,1.0,63,1,0,0,120,64,100,80
2006.0,69,1.0,63,1,0,0,120,64,100,80
2007.0,69,1.0,63,1,0,0,120,64,100,80
2008.0,65,1.0,63,1,0,0,120,64,100,80
2009.0,60,1.0,63,1,0,0,120,64,100,80
2010.0,60,1.0,63,1,0,0,120,64,100,80
2011.0,65,1.0,63,1,0,0,120,64,100,80
2012.0,0,1.0,63,1,0,0,120,64,100,80
2013.0,69,1.0,63,1,0,0,120,64,100,80
2014.0,69,1.0,63,1,0,0,120,64,100,80
2015.0,69,1.0,63,1,0,0,120,64,100,80
2016.0,60,1.0,63,1,0,0,120,64,100,80
2017.0,0,1.0,63,1,0,0,120,64,100,80
2018.0,64,1.0,63,1,0,0,120,64,100,80
2019.0,60,1.0,63,1,0,0,120,64,100,80
2020.0,64,1.0,63,1,0,0,120,64,100,80
2021.0,69,1.0,63,1,0,0,120,64,100,80
2022.0,60,1.0,63,1,0,0,120,64,100,80
2023.0,60,1.0,63,1,0,0,120,64,100,80
2024.0,62,1.0,63,1,0,0,120,64,100,80
2025.0,60,1.0,63,1,0,0,120,64,100,80
2026.0,69,1.0,63,1,0,0,120,64,100,80
2027.0,69,1.0,63,1,0,0,120,64,100,80
2028.0,60,1.0,63,1,0,0,120,64,100,80
2029.0,60,1.0,63,1,0,0,120,64,100,80
2030.0,65,1.0,63,1,0,0,120,64,100,80
2031.0,67,1.0,63,1,0,0,120,64,100,80
2032.0,60,1.0,63,1,0,0,120,64,100,80
2033.0,60,1.0,63,1,0,0,120,64,100,80
2034.0,64,1.0,63,1,0,0,120,64,100,80
2035.0,60,1.0,63,1,0,0,120,64,100,80
2036.0,60,1.0,63,1,0,0,120,64,100,80
2037.0,69,1.0,63,1,0,0,120,64,100,80
2038.0,62,1.0,63,1,0,0,120,64,100,80
2039.0,71,1.0,63,1,0,0,120,64,100,80
2040.0,60,1.0,63,1,0,0,120,64,100,80
2041.0,60,1.0,63,1,0,0,120,64,100,80
2042.0,71,1.0,63,1,0,0,120,64,100,80
2043.0,65,1.0,63,1,0,0,120,64,100,80
2044.0,60,1.0,63,1,0,0,120,64,100,80
2045.0,60,1.0,63,1,0,0,120,64,100,80
2046.0,64,1.0,63,1,0,0,120,64,100,80
2047.0,69,1.0,63,1,0,0,120,64,100,80
2048.0,65,1.0,63,1,0,0,120,64,100,80
2049.0,64,1.0,63,1,0,0,120,64,100,80
2050.0,69,1.0,63,1,0,0,120,64,100,80
2051.0,65,1.0,63,1,0,0,120,64,100,80
2052.0,62,1.0,63,1,0,0,120,64,100,80
2053.0,62,1.0,63,1,0,0,120,64,100,80
2054.0,60,1.0,63,1,0,0,120,64,100,80
2055.0,71,1.0,63,1,0,0,120,64,100,80
2056.0,62,1.0,63,1,0,0,120,64,100,80
2057.0,64,1.0,63,1,0,0,120,64,100,80
2058.0,64,1.0,63,1,0,0,120,64,100,80
2059.0,60,1.0,63,1,0,0,120,64,100,80
2060.0,65,1.0,63,1,0,0,120,64,100,80
2061.0,60,1.0,63,1,0,0,120,64,100,80
2062.0,71,1.0,63,1,0,0,120,64,100,80
2063.0,60,1.0,63,1,0,0,120,64,100,80
2064.0,67,1.0,63,1,0,0,120,64,100,80
2065.0,60,1.0,63,1,0,0,120,64,100,80
2066.0,60,1.0,63,1,0,0,120,64,100,80
2067.0,60,1.0,63,1,0,0,120,64,100,80
2068.0,62,1.0,63,1,0,0,120,64,100,80
2069.0,65,1.0,63,1,0,0,120,64,100,80
2070.0,65,1.0,63,1,0,0,120,64,100,80
2071.0,67,1.0,63,1,0,0,120,64,100,80
2072.0,64,1.0,63,1,0,0,120,64,100,80
2073.0,62,1.0,63,1,0,0,120,64,100,80
2074.0,69,1.0,63,1,0,0,120,64,100,80
2075.0,67,1.0,63,1,0,0,120,64,100,80
2076.0,62,1.0,63,1,0,0,120,64,100,80
2077.0,60,1.0,63,1,0,0,120,64,100,80
2078.0,64,1.0,63,1,0,0,120,64,100,80
2079.0,71,1.0,63,1,0,0,120,64,100,80
2080.0,60,1.0,63,1,0,0,120,64,100,80
2081.0,71,1.0,63,1,0,0,120,64,100,80
2082.0,69,1.0,63,1,0,0,120,64,100,80
2083.0,62,1.0,63,1,0,0,120,64,100,80
2084.0,60,1.0,63,1,0,0,120,64,100,80
2085.0,60,1.0,63,1,0,0,120,64,100,80
2086.0,60,1.0,63,1,0,0,120,64,100,80
2087.0,60,1.0,63,1,0,0,120,64,100,80
2088.0,71,1.0,63,1,0,0,120,64,100,80
2089.0,71,1.0,63,1,0,0,120,64,100,80
2090.0,60,1.0,63,1,0,0,120,64,100,80
2091.0,0,1.0,63,1,0,0,120,64,100,80
2092.0,64,1.0,63,1,0,0,120,64,100,80
2093.0,65,1.0,63,1,0,0,120,64,100,80
2094.0,65,1.0,63,1,0,0,120,64,100,80
2095.0,64,1.0,63,1,0,0,120,64,100,80
2096.0,64,1.0,63,1,0,0,120,64,100,80
2097.0,64,1.0,63,1,0,0,120,64,100,80
2098.0,60,1.0,63,1,0,0,120,64,100,80
2099.0,62,1.0,63,1,0,0,120,64,100,80
2100.0,65,1.0,63,1,0,0,120,64,100,80
2101.0,60,1.0,63,1,0,0,120,64,100,80
2102.0,71,1.0,63,1,0,0,120,64,100,80
2103.0,71,1.0,63,1,0,0,120,64,100,80
2104.0,60,1.0,63,1,0,0,120,64,100,80
2105.0,60,1.0,63,1,0,0,120,64,100,80
2106.0,64,1.0,63,1,0,0,120,64,100,80
2107.0,67,1.0,63,1,0,0,120,64,100,80
2108.0,69,1.0,63,1,0,0,120,64,100,80
2109.0,60,1.0,63,1,0,0,120,64,100,80
2110.0,62,1.0,63,1,0,0,120,64,100,80
2111.0,71,1.0,63,1,0,0,120,64,100,80
2112.0,69,1.0,63,1,0,0,120,64,100,80
2113.0,69,1.0,63,1,0,0,120,64,100,80
2114.0,62,1.0,63,1,0,0,120,64,100,80
2115.0,64,1.0,63,1,0,0,120,64,100,80
2116.0,62,1.0,63,1,0,0,120,64,100,80
2117.0,71,1.0,63,1,0,0,120,64,100,80
2118.0,71,1.0,63,1,0,0,120,64,100,80
2119.0,60,1.0,63,1,0,0,120,64,100,80
2120.0,60,1.0,63,1,0,0,120,64,100,80
2121.0,71,1.0,63,1,0,0,120,64,100,80
2122.0,69,1.0,63,1,0,0,120,64,100,80
2123.0,69,1.0,63,1,0,0,120,64,100,80
2124.0,62,1.0,63,1,0,0,120,64,100,80
2125.0,60,1.0,63,1,0,0,120,64,100,80
2126.0,69,1.0,63,1,0,0,120,64,100,80
2127.0,67,1.0,63,1,0,0,120,64,100,80
2128.0,62,1.0,63,1,0,0,120,64,100,80
2129.0,60,1.0,63,1,0,0,120,64,100,80
2130.0,65,1.0,63,1,0,0,120,64,100,80
2131.0,69,1.0,63,1,0,0,120,64,100,80
2132.0,62,1.0,63,1,0,0,120,64,100,80
2133.0,65,1.0,63,1,0,0,120,64,100,80
2134.0,62,1.0,63,1,0,0,120,64,100,80
2135.0,69,1.0,63,1,0,0,120,64,100,80
2136.0,64,1.0,63,1,0,0,120,64,100,80
2137.0,69,1.0,63,1,0,0,120,64,100,80
2138.0,67,1.0,63,1,0,0,120,64,100,80
2139.0,71,1.0,63,1,0,0,120,64,100,80
2140.0,64,1.0,63,1,0,0,120,64,100,80
2141.0,62,1.0,63,1,0,0,120,64,100,80
2142.0,65,1.0,63,1,0,0,120,64,100,80
2143.0,64,1.0,63,1,0,0,120,64,100,80
2144.0,60,1.0,63,1,0,0,120,64,100,80
2145.0,69,1.0,63,1,0,0,120,64,100,80
2146.0,69,1.0,63,1,0,0,120,64,100,80
2147.0,62,1.0,63,1,0,0,120,64,100,80
2148.0,60,1.0,63,1,0,0,120,64,100,80
2149.0,60,1.0,63,1,0,0,120,64,100,80
2150.0,69,1.0,63,1,0,0,120,64,100,80
2151.0,62,1.0,63,1,0,0,120,64,100,80
2152.0,0,1.0,63,1,0,0,120,64,100,80
2153.0,60,1.0,63,1,0,0,120,64,100,80
2154.0,62,1.0,63,1,0,0,120,64,100,80
2155.0,64,1.0,63,1,0,0,120,64,100,80
2156.0,65,1.0,63,1,0,0,120,64,100,80
2157.0,65,1.0,63,1,0,0,120,64,100,80
2158.0,64,1.0,63,1,0,0,120,64,100,80
2159.0,71,1.0,63,1,0,0,120,64,100,80
2160.0,62,1.0,63,1,0,0,120,64,100,80
2161.0,65,1.0,63,1,0,0,120,64,100,80
2162.0,62,1.0,63,1,0,0,120,64,100,80
2163.0,60,1.0,63,1,0,0,120,64,100,80
2164.0,60,1.0,63,1,0,0,120,64,100,80
2165.0,65,1.0,63,1,0,0,120,64,100,80
2166.0,0,1.0,63,1,0,0,120,64,100,80
2167.0,60,1.0,63,1,0,0,120,64,100,80
2168.0,62,1.0,63,1,0,0,120,64,100,80
2169.0,69,1.0,63,1,0,0,120,64,100,80
2170.0,60,1.0,63,1,0,0,120,64,100,80
2171.0,69,1.0,63,1,0,0,120,64,100,80
2172.0,62,1.0,63,1,0,0,120,64,100,80
2173.0,64,1.0,63,1,0,0,120,64,100,80
2174.0,60,1.0,63,1,0,0,120,64,100,80
2175.0,0,1.0,63,1,0,0,120,64,100,80
2176.0,0,1.0,63,1,0,0,120,64,100,80
2177.0,64,1.0,63,1,0,0,120,64,100,80
2178.0,60,1.0,63,1,0,0,120,64,100,80
2179.0,65,1.0,63,1,0,0,120,64,100,80
2180.0,71,1.0,63,1,0,0,120,64,100,80
2181.0,69,1.0,63,1,0,0,120,64,100,80
2182.0,67,1.0,63,1,0,0,120,64,100,80
2183.0,71,1.0,63,1,0,0,120,64,100,80
2184.0,62,1.0,63,1,0,0,120,64,100,80
2185.0,60,1.0,63,1,0,0,120,64,100,80
2186.0,65,1.0,63,1,0,0,120,64,100,80
2187.0,71,1.0,63,1,0,0,120,64,100,80
2188.0,60,1.0,63,1,0,0,120,64,100,80
2189.0,64,1.0,63,1,0,0,120,64,100,80
2190.0,67,1.0,63,1,0,0,120,64,100,80
2191.0,60,1.0,63,1,0,0,120,64,100,80
2192.0,60,1.0,63,1,0,0,120,64,100,80
2193.0,60,1.0,63,1,0,0,120,64,100,80
2194.0,71,1.0,63,1,0,0,120,64,100,80
2195.0,62,1.0,63,1,0,0,120,64,100,80
2196.0,67,1.0,63,1,0,0,120,64,100,80
2197.0,62,1.0,63,1,0,0,120,64,100,80
2198.0,64,1.0,63,1,0,0,120,64,100,80
2199.0,65,1.0,63,1,0,0,120,64,100,80
2200.0,67,1.0,63,1,0,0,120,64,100,80
2201.0,65,1.0,63,1,0,0,120,64,100,80
2202.0,60,1.0,63,1,0,0,120,64,100,80
2203.0,62,1.0,63,1,0,0,120,64,100,80
2204.0,65,1.0,63,1,0,0,120,64,100,80
2205.0,60,1.0,63,1,0,0,120,64,100,80
2206.0,60,1.0,63,1,0,0,120,64,100,80
2207.0,64,1.0,63,1,0,0,120,64,100,80
2208.0,65,1.0,63,1,0,0,120,64,100,80
2209.0,60,1.0,63,1,0,0,120,64,100,80
2210.0,67,1.0,63,1,0,0,120,64,100,80
2211.0,60,1.0,63,1,0,0,120,64,100,80
2212.0,65,1.0,63,1,0,0,120,64,100,80
2213.0,60,1.0,63,1,0,0,120,64,100,80
2214.0,64,1.0,63,1,0,0,120,64,100,80
2215.0,64,1.0,63,1,0,0,120,64,100,80
2216.0,64,1.0,63,1,0,0,120,64,100,80
2217.0,64,1.0,63,1,0,0,120,64,100,80
2218.0,65,1.0,63,1,0,0,120,64,100,80
2219.0,69,1.0,63,1,0,0,120,64,100,80
2220.0,60,1.0,63,1,0,0,120,64,100,80
2221.0,64,1.0,63,1,0,0,120,64,100,80
2222.0,62,1.0,63,1,0,0,120,64,100,80
2223.0,69,1.0,63,1,0,0,120,64,100,80
2224.0,71,1.0,63,1,0,0,120,64,100,80
2225.0,69,1.0,63,1,0,0,120,64,100,80
2226.0,60,1.0,63,1,0,0,120,64,100,80
2227.0,71,1.0,63,1,0,0,120,64,100,80
2228.0,62,1.0,63,1,0,0,120,64,100,80
2229.0,64,1.0,63,1,0,0,120,64,100,80
2230.0,0,1.0,63,1,0,0,120,64,100,80
2231.0,69,1.0,63,1,0,0,120,64,100,80
2232.0,67,1.0,63,1,0,0,120,64,100,80
2233.0,69,1.0,63,1,0,0,120,64,100,80
2234.0,65,1.0,63,1,0,0,120,64,100,80
2235.0,69,1.0,63,1,0,0,120,64,100,80
2236.0,64,1.0,63,1,0,0,120,64,100,80
2237.0,60,1.0,63,1,0,0,120,64,100,80
2238.0,64,1.0,63,1,0,0,120,64,100,80
2239.0,71,1.0,63,1,0,0,120,64,100,80
2240.0,60,1.0,63,1,0,0,120,64,100,80
2241.0,64,1.0,63,1,0,0,120,64,100,80
2242.0,62,1.0,63,1,0,0,120,64,100,80
2243.0,64,1.0,63,1,0,0,120,64,100,80
2244.0,67,1.0,63,1,0,0,120,64,100,80
2245.0,69,1.0,63,1,0,0,120,64,100,80
2246.0,64,1.0,63,1,0,0,120,64,100,80
2247.0,69,1.0,63,1,0,0,120,64,100,80
2248.0,64,1.0,63,1,0,0,120,64,100,80
2249.0,0,1.0,63,1,0,0,120,64,100,80
2250.0,67,1.0,63,1,0,0,120,64,100,80
2251.0,62,1.0,63,1,0,0,120,64,100,80
2252.0,64,1.0,63,1,0,0,120,64,100,80
2253.0,0,1.0,63,1,0,0,120,64,100,80
2254.0,60,1.0,63,1,0,0,120,64,100,80
2255.0,60,1.0,63,1,0,0,120,64,100,80
2256.0,64,1.0,63,1,0,0,120,64,100,80
2257.0,0,1.0,63,1,0,0,120,64,100,80
2258.0,64,1.0,63,1,0,0,120,64,100,80
2259.0,62,1.0,63,1,0,0,120,64,100,80
2260.0,64,1.0,63,1,0,0,120,64,100,80
2261.0,69,1.0,63,1,0,0,120,64,100,80
2262.0,0,1.0,63,1,0,0,120,64,100,80
2263.0,0,1.0,63,1,0,0,120,64,100,80
2264.0,67,1.0,63,1,0,0,120,64,100,80
2265.0,69,1.0,63,1,0,0,120,64,100,80
2266.0,67,1.0,63,1,0,0,120,64,100,80
2267.0,64,1.0,63,1,0,0,120,64,100,80
2268.0,69,1.0,63,1,0,0,120,64,100,80
2269.0,64,1.0,63,1,0,0,120,64,100,80
2270.0,62,1.0,63,1,0,0,120,64,100,80
2271.0,65,1.0,63,1,0,0,120,64,100,80
2272.0,69,1.0,63,1,0,0,120,64,100,80
2273.0,69,1.0,63,1,0,0,120,64,100,80
2274.0,60,1.0,63,1,0,0,120,64,100,80
2275.0,64,1.0,63,1,0,0,120,64,100,80
2276.0,62,1.0,63,1,0,0,120,64,100,80
2277.0,62,1.0,63,1,0,0,120,64,100,80
2278.0,60,1.0,63,1,0,0,120,64,100,80
2279.0,0,1.0,63,1,0,0,120,64,100,80
2280.0,62,1.0,63,1,0,0,120,64,100,80
2281.0,69,1.0,63,1,0,0,120,64,100,80
2282.0,62,1.0,63,1,0,0,120,64,100,80
2283.0,60,1.0,63,1,0,0,120,64,100,80
2284.0,60,1.0,63,1,0,0,120,64,100,80
2285.0,62,1.0,63,1,0,0,120,64,100,80
2286.0,60,1.0,63,1,0,0,120,64,100,80
2287.0,64,1.0,63,1,0,0,120,64,100,80
2288.0,67,1.0,63,1,0,0,120,64,100,80
2289.0,60,1.0,63,1,0,0,120,64,100,80
2290.0,64,1.0,63,1,0,0,120,64,100,80
2291.0,64,1.0,63,1,0,0,120,64,100,80
2292.0,60,1.0,63,1,0,0,120,64,100,80
2293.0,60,1.0,63,1,0,0,120,64,100,80
2294.0,64,1.0,63,1,0,0,120,64,100,80
2295.0,60,1.0,63,1,0,0,120,64,100,80
2296.0,64,1.0,63,1,0,0,120,64,100,80
2297.0,62,1.0,63,1,0,0,120,64,100,80
2298.0,64,1.0,63,1,0,0,120,64,100,80
2299.0,69,1.0,63,1,0,0,120,64,100,80
2300.0,60,1.0,63,1,0,0,120,64,100,80
2301.0,69,1.0,63,1,0,0,120,64,100,80
2302.0,60,1.0,63,1,0,0,120,64,100,80
2303.0,60,1.0,63,1,0,0,120,64,100,80
2304.0,60,1.0,63,1,0,0,120,64,100,80
2305.0,65,1.0,63,1,0,0,120,64,100,80
2306.0,60,1.0,63,1,0,0,120,64,100,80
2307.0,69,1.0,63,1,0,0,120,64,100,80
2308.0,60,1.0,63,1,0,0,120,64,100,80
2309.0,0,1.0,63,1,0,0,120,64,100,80
2310.0,60,1.0,63,1,0,0,120,64,100,80
2311.0,65,1.0,63,1,0,0,120,64,100,80
2312.0,69,1.0,63,1,0,0,120,64,100,80
2313.0,71,1.0,63,1,0,0,120,64,100,80
2314.0,67,1.0,63,1,0,0,120,64,100,80
2315.0,69,1.0,63,1,0,0,120,64,100,80
2316.0,60,1.0,63,1,0,0,120,64,100,80
2317.0,60,1.0,63,1,0,0,120,64,100,80
2318.0,60,1.0,63,1,0,0,120,64,100,80
2319.0,60,1.0,63,1,0,0,120,64,100,80
2320.0,65,1.0,63,1,0,0,120,64,100,80
2321.0,60,1.0,63,1,0,0,120,64,100,80
2322.0,60,1.0,63,1,0,0,120,64,100,80
2323.0,69,1.0,63,1,0,0,120,64,100,80
2324.0,67,1.0,63,1,0,0,120,64,100,80
2325.0,71,1.0,63,1,0,0,120,64,100,80
2326.0,69,1.0,63,1,0,0,120,64,100,80
2327.0,69,1.0,63,1,0,0,120,64,100,80
2328.0,62,1.0,63,1,0,0,120,64,100,80
2329.0,60,1.0,63,1,0,0,120,64,100,80
2330.0,69,1.0,63,1,0,0,120,64,100,80
2331.0,62,1.0,63,1,0,0,120,64,100,80
2332.0,62,1.0,63,1,0,0,120,64,100,80
2333.0,60,1.0,63,1,0,0,120,64,100,80
2334.0,64,1.0,63,1,0,0,120,64,100,80
2335.0,65,1.0,63,1,0,0,120,64,100,80
2336.0,60,1.0,63,1,0,0,120,64,100,80
2337.0,69,1.0,63,1,0,0,120,64,100,80
2338.0,71,1.0,63,1,0,0,120,64,100,80
2339.0,71,1.0,63,1,0,0,120,64,100,80
2340.0,0,1.0,63,1,0,0,120,64,100,80
2341.0,60,1.0,63,1,0,0,120,64,100,80
2342.0,64,1.0,63,1,0,0,120,64,100,80
2343.0,64,1.0,63,1,0,0,120,64,100,80
2344.0,60,1.0,63,1,0,0,120,64,100,80
2345.0,60,1.0,63,1,0,0,120,64,100,80
2346.0,62,1.0,63,1,0,0,120,64,100,80
2347.0,64,1.0,63,1,0,0,120,64,100,80
2348.0,60,1.0,63,1,0,0,120,64,100,80
2349.0,62,1.0,63,1,0,0,120,64,100,80
2350.0,69,1.0,63,1,0,0,120,64,100,80
2351.0,69,1.0,63,1,0,0,120,64,100,80
2352.0,64,1.0,63,1,0,0,120,64,100,80
2353.0,69,1.0,63,1,0,0,120,64,100,80
2354.0,60,1.0,63,1,0,0,120,64,100,80
2355.0,69,1.0,63,1,0,0,120,64,100,80
2356.0,60,1.0,63,1,0,0,120,64,100,80
2357.0,60,1.0,63,1,0,0,120,64,100,80
2358.0,69,1.0,63,1,0,0,120,64,100,80
2359.0,62,1.0,63,1,0,0,120,64,100,80
2360.0,65,1.0,63,1,0,0,120,64,100,80
2361.0,65,1.0,63,1,0,0,120,64,100,80
2362.0,64,1.0,63,1,0,0,120,64,100,80
2363.0,69,1.0,63,1,0,0,120,64,100,80
2364.0,65,1.0,63,1,0,0,120,64,100,80
2365.0,69,1.0,63,1,0,0,120,64,100,80
2366.0,64,1.0,63,1,0,0,120,64,100,80
2367.0,62,1.0,63,1,0,0,120,64,100,80
2368.0,62,1.0,63,1,0,0,120,64,100,80
2369.0,71,1.0,63,1,0,0,120,64,100,80
2370.0,69,1.0,63,1,0,0,120,64,100,80
2371.0,64,1.0,63,1,0,0,120,64,100,80
2372.0,60,1.0,63,1,0,0,120,64,100,80
2373.0,64,1.0,63,1,0,0,120,64,100,80
2374.0,60,1.0,63,1,0,0,120,64,100,80
2375.0,69,1.0,63,1,0,0,120,64,100,80
2376.0,64,1.0,63,1,0,0,120,64,100,80
2377.0,60,1.0,63,1,0,0,120,64,100,80
2378.0,69,1.0,63,1,0,0,120,64,100,80
2379.0,69,1.0,63,1,0,0,120,64,100,80
2380.0,62,1.0,63,1,0,0,120,64,100,80
2381.0,65,1.0,63,1,0,0,120,64,100,80
2382.0,60,1.0,63,1,0,0,120,64,100,80
2383.0,69,1.0,63,1,0,0,120,64,100,80
2384.0,64,1.0,63,1,0,0,120,64,100,80
2385.0,69,1.0,63,1,0,0,120,64,100,80
2386.0,0,1.0,63,1,0,0,120,64,100,80
2387.0,69,1.0,63,1,0,0,120,64,100,80
2388.0,65,1.0,63,1,0,0,120,64,100,80
2389.0,64,1.0,63,1,0,0,120,64,100,80
2390.0,60,1.0,63,1,0,0,120,64,100,80
2391.0,67,1.0,63,1,0,0,120,64,100,80
2392.0,69,1.0,63,1,0,0,120,64,100,80
2393.0,60,1.0,63,1,0,0,120,64,100,80
2394.0,69,1.0,63,1,0,0,120,64,100,80
2395.0,62,1.0,63,1,0,0,120,64,100,80
2396.0,69,1.0,63,1,0,0,120,64,100,80
2397.0,69,1.0,63,1,0,0,120,64,100,80
2398.0,69,1.0,63,1,0,0,120,64,100,80
2399.0,71,1.0,63,1,0,0,120,64,100,80
2400.0,67,1.0,63,1,0,0,120,64,100,80
2401.0,60,1.0,63,1,0,0,120,64,100,80
2402.0,60,1.0,63,1,0,0,120,64,100,80
2403.0,64,1.0,63,1,0,0,120,64,100,80
2404.0,64,1.0,63,1,0,0,120,64,100,80
2405.0,0,1.0,63,1,0,0,120,64,100,80
2406.0,62,1.0,63,1,0,0,120,64,100,80
2407.0,60,1.0,63,1,0,0,120,64,100,80
2408.0,60,1.0,63,1,0,0,120,64,100,80
2409.0,67,1.0,63,1,0,0,120,64,100,80
2410.0,60,1.0,63,1,0,0,120,64,100,80
2411.0,69,1.0,63,1,0,0,120,64,100,80
2412.0,60,1.0,63,1,0,0,120,64,100,80
2413.0,69,1.0,63,1,0,0,120,64,100,80
2414.0,67,1.0,63,1,0,0,120,64,100,80
2415.0,62,1.0,63,1,0,0,120,64,100,80
2416.0,60,1.0,63,1,0,0,120,64,100,80
2417.0,60,1.0,63,1,0,0,120,64,100,80
2418.0,71,1.0,63,1,0,0,120,64,100,80
2419.0,64,1.0,63,1,0,0,120,64,100,80
2420.0,0,1.0,63,1,0,0,120,64,100,80
2421.0,60,1.0,63,1,0,0,120,64,100,80
2422.0,62,1.0,63,1,0,0,120,64,100,80
2423.0,60,1.0,63,1,0,0,120,64,100,80
2424.0,71,1.0,63,1,0,0,120,64,100,80
2425.0,69,1.0,63,1,0,0,120,64,100,80
2426.0,60,1.0,63,1,0,0,120,64,100,80
2427.0,62,1.0,63,1,0,0,120,64,100,80
2428.0,67,1.0,63,1,0,0,120,64,100,80
2429.0,67,1.0,63,1,0,0,120,64,100,80
2430.0,64,1.0,63,1,0,0,120,64,100,80
2431.0,60,1.0,63,1,0,0,120,64,100,80
2432.0,67,1.0,63,1,0,0,120,64,100,80
2433.0,60,1.0,63,1,0,0,120,64,100,80
2434.0,60,1.0,63,1,0,0,120,64,100,80
2435.0,64,1.0,63,1,0,0,120,64,100,80
2436.0,64,1.0,63,1,0,0,120,64,100,80
2437.0,62,1.0,63,1,0,0,120,64,100,80
2438.0,62,1.0,63,1,0,0,120,64,100,80
2439.0,71,1.0,63,1,0,0,120,64,100,80
2440.0,0,1.0,63,1,0,0,120,64,100,80
2441.0,64,1.0,63,1,0,0,120,64,100,80
2442.0,64,1.0,63,1,0,0,120,64,100,80
2443.0,60,1.0,63,1,0,0,120,64,100,80
2444.0,62,1.0,63,1,0,0,120,64,100,80
2445.0,60,1.0,63,1,0,0,120,64,100,80
2446.0,67,1.0,63,1,0,0,120,64,100,80
2447.0,65,1.0,63,1,0,0,120,64,100,80
2448.0,64,1.0,63,1,0,0,120,64,100,80
2449.0,60,1.0,63,1,0,0,120,64,100,80
2450.0,60,1.0,63,1,0,0,120,64,100,80
2451.0,62,1.0,63,1,0,0,120,64,100,80
2452.0,62,1.0,63,1,0,0,120,64,100,80
2453.0,60,1.0,63,1,0,0,120,64,100,80
2454.0,69,1.0,63,1,0,0,120,64,100,80
2455.0,0,1.0,63,1,0,0,120,64,100,80
2456.0,60,1.0,63,1,0,0,120,64,100,80
2457.0,62,1.0,63,1,0,0,120,64,100,80
2458.0,60,1.0,63,1,0,0,120,64,100,80
2459.0,60,1.0,63,1,0,0,120,64,100,80
2460.0,62,1.0,63,1,0,0,120,64,100,80
2461.0,62,1.0,63,1,0,0,120,64,100,80
2462.0,71,1.0,63,1,0,0,120,64,100,80
2463.0,69,1.0,63,1,0,0,120,64,100,80
2464.0,64,1.0,63,1,0,0,120,64,100,80
2465.0,64,1.0,63,1,0,0,120,64,100,80
2466.0,65,1.0,63,1,0,0,120,64,100,80
2467.0,60,1.0,63,1,0,0,120,64,100,80
2468.0,65,1.0,63,1,0,0,120,64,100,80
2469.0,71,1.0,63,1,0,0,120,64,100,80
2470.0,69,1.0,63,1,0,0,120,64,100,80
2471.0,60,1.0,63,1,0,0,120,64,100,80
2472.0,60,1.0,63,1,0,0,120,64,100,80
2473.0,60,1.0,63,1,0,0,120,64,100,80
2474.0,71,1.0,63,1,0,0,120,64,100,80
2475.0,69,1.0,63,1,0,0,120,64,100,80
2476.0,71,1.0,63,1,0,0,120,64,100,80
2477.0,60,1.0,63,1,0,0,120,64,100,80
2478.0,62,1.0,63,1,0,0,120,64,100,80
2479.0,60,1.0,63,1,0,0,120,64,100,80
2480.0,65,1.0,63,1,0,0,120,64,100,80
2481.0,64,1.0,63,1,0,0,120,64,100,80
2482.0,69,1.0,63,1,0,0,120,64,100,80
2483.0,65,1.0,63,1,0,0,120,64,100,80
2484.0,60,1.0,63,1,0,0,120,64,100,80
2485.0,60,1.0,63,1,0,0,120,64,100,80
2486.0,62,1.0,63,1,0,0,120,64,100,80
2487.0,0,1.0,63,1,0,0,120,64,100,80
2488.0,0,1.0,63,1,0,0,120,64,100,80
2489.0,69,1.0,63,1,0,0,120,64,100,80
2490.0,64,1.0,63,1,0,0,120,64,100,80
2491.0,60,1.0,63,1,0,0,120,64,100,80
2492.0,67,1.0,63,1,0,0,120,64,100,80
2493.0,60,1.0,63,1,0,0,120,64,100,80
2494.0,60,1.0,63,1,0,0,120,64,100,80
2495.0,69,1.0,63,1,0,0,120,64,100,80
2496.0,69,1.0,63,1,0,0,120,64,100,80
2497.0,60,1.0,63,1,0,0,120,64,100,80
2498.0,62,1.0,63,1,0,0,120,64,100,80
2499.0,62,1.0,63,1,0,0,120,64,100,80
2500.0,60,1.0,63,1,0,0,120,64,100,80
2501.0,64,1.0,63,1,0,0,120,64,100,80
2502.0,62,1.0,63,1,0,0,120,64,100,80
2503.0,0,1.0,63,1,0,0,120,64,100,80
2504.0,60,1.0,63,1,0,0,120,64,100,80
2505.0,62,1.0,63,1,0,0,120,64,100,80
2506.0,69,1.0,63,1,0,0,120,64,100,80
2507.0,67,1.0,63,1,0,0,120,64,100,80
2508.0,60,1.0,63,1,0,0,120,64,100,80
2509.0,67,1.0,63,1,0,0,120,64,100,80
2510.0,60,1.0,63,1,0,0,120,64,100,80
2511.0,64,1.0,63,1,0,0,120,64,100,80
2512.0,65,1.0,63,1,0,0,120,64,100,80
2513.0,67,1.0,63,1,0,0,120,64,100,80
2514.0,60,1.0,63,1,0,0,120,64,100,80
2515.0,62,1.0,63,1,0,0,120,64,100,80
2516.0,67,1.0,63,1,0,0,120,64,100,80
2517.0,62,1.0,63,1,0,0,120,64,100,80
2518.0,71,1.0,63,1,0,0,120,64,100,80
2519.0,64,1.0,63,1,0,0,120,64,100,80
2520.0,60,1.0,63,1,0,0,120,64,100,80
2521.0,69,1.0,63,1,0,0,120,64,100,80
2522.0,0,1.0,63,1,0,0,120,64,100,80
2523.0,0,1.0,63,1,0,0,120,64,100,80
2524.0,60,1.0,63,1,0,0,120,64,100,80
2525.0,64,1.0,63,1,0,0,120,64,100,80
2526.0,60,1.0,63,1,0,0,120,64,100,80
2527.0,60,1.0,63,1,0,0,120,64,100,80
2528.0,64,1.0,63,1,0,0,120,64,100,80
2529.0,71,1.0,63,1,0,0,120,64,100,80
2530.0,69,1.0,63,1,0,0,120,64,100,80
2531.0,62,1.0,63,1,0,0,120,64,100,80
2532.0,69,1.0,63,1,0,0,120,64,100,80
2533.0,62,1.0,63,1,0,0,120,64,100,80
2534.0,64,1.0,63,1,0,0,120,64,100,80
2535.0,69,1.0,63,1,0,0,120,64,100,80
2536.0,64,1.0,63,1,0,0,120,64,100,80
2537.0,71,1.0,63,1,0,0,120,64,100,80
2538.0,60,1.0,63,1,0,0,120,64,100,80
2539.0,67,1.0,63,1,0,0,120,64,100,80
2540.0,69,1.0,63,1,0,0,120,64,100,80
2541.0,62,1.0,63,1,0,0,120,64,100,80
2542.0,64,1.0,63,1,0,0,120,64,100,80
2543.0,60,1.0,63,1,0,0,120,64,100,80
2544.0,64,1.0,63,1,0,0,120,64,100,80
2545.0,67,1.0,63,1,0,0,120,64,100,80
2546.0,67,1.0,63,1,0,0,120,64,100,80
2547.0,69,1.0,63,1,0,0,120,64,100,80
2548.0,60,1.0,63,1,0,0,120,64,100,80
2549.0,64,1.0,63,1,0,0,120,64,100,80
2550.0,62,1.0,63,1,0,0,120,64,100,80
2551.0,60,1.0,63,1,0,0,120,64,100,80
2552.0,65,1.0,63,1,0,0,120,64,100,80
2553.0,60,1.0,63,1,0,0,120,64,100,80
2554.0,64,1.0,63,1,0,0,120,64,100,80
2555.0,60,1.0,63,1,0,0,120,64,100,80
2556.0,60,1.0,63,1,0,0,120,64,100,80
2557.0,60,1.0,63,1,0,0,120,64,100,80
2558.0,65,1.0,63,1,0,0,120,64,100,80
2559.0,0,1.0,63,1,0,0,120,64,100,80
2560.0,60,1.0,63,1,0,0,120,64,100,80
2561.0,69,1.0,63,1,0,0,120,64,100,80
2562.0,62,1.0,63,1,0,0,120,64,100,80
2563.0,64,1.0,63,1,0,0,120,64,100,80
2564.0,69,1.0,63,1,0,0,120,64,100,80
2565.0,60,1.0,63,1,0,0,120,64,100,80
2566.0,60,1.0,63,1,0,0,120,64,100,80
2567.0,69,1.0,63,1,0,0,120,64,100,80
2568.0,62,1.0,63,1,0,0,120,64,100,80
2569.0,69,1.0,63,1,0,0,120,64,100,80
2570.0,71,1.0,63,1,0,0,120,64,100,80
2571.0,69,1.0,63,1,0,0,120,64,100,80
2572.0,0,1.0,63,1,0,0,120,64,100,80
2573.0,64,1.0,63,1,0,0,120,64,100,80
2574.0,64,1.0,63,1,0,0,120,64,100,80
2575.0,60,1.0,63,1,0,0,120,64,100,80
2576.0,0,1.0,63,1,0,0,120,64,100,80
2577.0,64,1.0,63,1,0,0,120,64,100,80
2578.0,62,1.0,63,1,0,0,120,64,100,80
2579.0,62,1.0,63,1,0,0,120,64,100,80
2580.0,62,1.0,63,1,0,0,120,64,100,80
2581.0,0,1.0,63,1,0,0,120,64,100,80
2582.0,69,1.0,63,1,0,0,120,64,100,80
2583.0,65,1.0,63,1,0,0,120,64,100,80
2584.0,64,1.0,63,1,0,0,120,64,100,80
2585.0,71,1.0,63,1,0,0,120,64,100,80
2586.0,69,1.0,63,1,0,0,120,64,100,80
2587.0,69,1.0,63,1,0,0,120,64,100,80
2588.0,62,1.0,63,1,0,0,120,64,100,80
2589.0,62,1.0,63,1,0,0,120,64,100,80
2590.0,60,1.0,63,1,0,0,120,64,100,80
2591.0,62,1.0,63,1,0,0,120,64,100,80
2592.0,67,1.0,63,1,0,0,120,64,100,80
2593.0,71,1.0,63,1,0,0,120,64,100,80
2594.0,71,1.0,63,1,0,0,120,64,100,80
2595.0,60,1.0,63,1,0,0,120,64,100,80
2596.0,64,1.0,63,1,0,0,120,64,100,80
2597.0,69,1.0,63,1,0,0,120,64,100,80
2598.0,60,1.0,63,1,0,0,120,64,100,80
2599.0,64,1.0,63,1,0,0,120,64,100,80
2600.0,60,1.0,63,1,0,0,120,64,100,80
2601.0,67,1.0,63,1,0,0,120,64,100,80
2602.0,60,1.0,63,1,0,0,120,64,100,80
2603.0,64,1.0,63,1,0,0,120,64,100,80
2604.0,64,1.0,63,1,0,0,120,64,100,80
2605.0,60,1.0,63,1,0,0,120,64,100,80
2606.0,60,1.0,63,1,0,0,120,64,100,80
2607.0,0,1.0,63,1,0,0,120,64,100,80
2608.0,60,1.0,63,1,0,0,120,64,100,80
2609.0,62,1.0,63,1,0,0,120,64,100,80
2610.0,64,1.0,63,1,0,0,120,64,100,80
2611.0,67,1.0,63,1,0,0,120,64,100,80
2612.0,64,1.0,63,1,0,0,120,64,100,80
2613.0,60,1.0,63,1,0,0,120,64,100,80
2614.0,62,1.0,63,1,0,0,120,64,100,80
2615.0,65,1.0,63,1,0,0,120,64,100,80
2616.0,62,1.0,63,1,0,0,120,64,100,80
2617.0,60,1.0,63,1,0,0,120,64,100,80
2618.0,62,1.0,63,1,0,0,120,64,100,80
2619.0,62,1.0,63,1,0,0,120,64,100,80
2620.0,60,1.0,63,1,0,0,120,64,100,80
2621.0,62,1.0,63,1,0,0,120,64,100,80
2622.0,71,1.0,63,1,0,0,120,64,100,80
2623.0,65,1.0,63,1,0,0,120,64,100,80
2624.0,60,1.0,63,1,0,0,120,64,100,80
2625.0,71,1.0,63,1,0,0,120,64,100,80
2626.0,71,1.0,63,1,0,0,120,64,100,80
2627.0,65,1.0,63,1,0,0,120,64,100,80
2628.0,64,1.0,63,1,0,0,120,64,100,80
2629.0,65,1.0,63,1,0,0,120,64,100,80
2630.0,60,1.0,63,1,0,0,120,64,100,80
2631.0,60,1.0,63,1,0,0,120,64,100,80
2632.0,60,1.0,63,1,0,0,120,64,100,80
2633.0,60,1.0,63,1,0,0,120,64,100,80
2634.0,62,1.0,63,1,0,0,120,64,100,80
2635.0,71,1.0,63,1,0,0,120,64,100,80
2636.0,60,1.0,63,1,0,0,120,64,100,80
2637.0,60,1.0,63,1,0,0,120,64,100,80
2638.0,62,1.0,63,1,0,0,120,64,100,80
2639.0,67,1.0,63,1,0,0,120,64,100,80
2640.0,62,1.0,63,1,0,0,120,64,100,80
2641.0,69,1.0,63,1,0,0,120,64,100,80
2642.0,67,1.0,63,1,0,0,120,64,100,80
2643.0,69,1.0,63,1,0,0,120,64,100,80
2644.0,62,1.0,63,1,0,0,120,64,100,80
2645.0,69,1.0,63,1,0,0,120,64,100,80
2646.0,62,1.0,63,1,0,0,120,64,100,80
2647.0,64,1.0,63,1,0,0,120,64,100,80
2648.0,0,1.0,63,1,0,0,120,64,100,80
2649.0,64,1.0,63,1,0,0,120,64,100,80
2650.0,65,1.0,63,1,0,0,120,64,100,80
2651.0,60,1.0,63,1,0,0,120,64,100,80
2652.0,64,1.0,63,1,0,0,120,64,100,80
2653.0,60,1.0,63,1,0,0,120,64,100,80
2654.0,60,1.0,63,1,0,0,120,64,100,80
2655.0,62,1.0,63,1,0,0,120,64,100,80
2656.0,65,1.0,63,1,0,0,120,64,100,80
2657.0,62,1.0,63,1,0,0,120,64,100,80
2658.0,67,1.0,63,1,0,0,120,64,100,80
2659.0,65,1.0,63,1,0,0,120,64,100,80
2660.0,62,1.0,63,1,0,0,120,64,100,80
2661.0,60,1.0,63,1,0,0,120,64,100,80
2662.0,69,1.0,63,1,0,0,120,64,100,80
2663.0,64,1.0,63,1,0,0,120,64,100,80
2664.0,62,1.0,63,1,0,0,120,64,100,80
2665.0,69,1.0,63,1,0,0,120,64,100,80
2666.0,60,1.0,63,1,0,0,120,64,100,80
2667.0,69,1.0,63,1,0,0,120,64,100,80
2668.0,60,1.0,63,1,0,0,120,64,100,80
2669.0,69,1.0,63,1,0,0,120,64,100,80
2670.0,64,1.0,63,1,0,0,120,64,100,80
2671.0,67,1.0,63,1,0,0,120,64,100,80
2672.0,65,1.0,63,1,0,0,120,64,100,80
2673.0,71,1.0,63,1,0,0,120,64,100,80
2674.0,71,1.0,63,1,0,0,120,64,100,80
2675.0,62,1.0,63,1,0,0,120,64,100,80
2676.0,69,1.0,63,1,0,0,120,64,100,80
2677.0,60,1.0,63,1,0,0,120,64,100,80
2678.0,62,1.0,63,1,0,0,120,64,100,80
2679.0,60,1.0,63,1,0,0,120,64,100,80
2680.0,67,1.0,63,1,0,0,120,64,100,80
2681.0,62,1.0,63,1,0,0,120,64,100,80
2682.0,69,1.0,63,1,0,0,120,64,100,80
2683.0,69,1.0,63,1,0,0,120,64,100,80
2684.0,64,1.0,63,1,0,0,120,64,100,80
2685.0,65,1.0,63,1,0,0,120,64,100,80
2686.0,67,1.0,63,1,0,0,120,64,100,80
2687.0,60,1.0,63,1,0,0,120,64,100,80
2688.0,71,1.0,63,1,0,0,120,64,100,80
2689.0,69,1.0,63,1,0,0,120,64,100,80
2690.0,67,1.0,63,1,0,0,120,64,100,80
2691.0,60,1.0,63,1,0,0,120,64,100,80
2692.0,65,1.0,63,1,0,0,120,64,100,80
2693.0,62,1.0,63,1,0,0,120,64,100,80
2694.0,65,1.0,63,1,0,0,120,64,100,80
2695.0,65,1.0,63,1,0,0,120,64,100,80
2696.0,60,1.0,63,1,0,0,120,64,100,80
2697.0,67,1.0,63,1,0,0,120,64,100,80
2698.0,0,1.0,63,1,0,0,120,64,100,80
2699.0,65,1.0,63,1,0,0,120,64,100,80
2700.0,64,1.0,63,1,0,0,120,64,100,80
2701.0,60,1.0,63,1,0,0,120,64,100,80
2702.0,0,1.0,63,1,0,0,120,64,100,80
2703.0,60,1.0,63,1,0,0,120,64,100,80
2704.0,69,1.0,63,1,0,0,120,64,100,80
2705.0,62,1.0,63,1,0,0,120,64,100,80
2706.0,64,1.0,63,1,0,0,120,64,100,80
2707.0,67,1.0,63,1,0,0,120,64,100,80
2708.0,60,1.0,63,1,0,0,120,64,100,80
2709.0,0,1.0,63,1,0,0,120,64,100,80
2710.0,60,1.0,63,1,0,0,120,64,100,80
2711.0,71,1.0,63,1,0,0,120,64,100,80
2712.0,64,1.0,63,1,0,0,120,64,100,80
2713.0,71,1.0,63,1,0,0,120,64,100,80
2714.0,62,1.0,63,1,0,0,120,64,100,80
2715.0,69,1.0,63,1,0,0,120,64,100,80
2716.0,64,1.0,63,1,0,0,120,64,100,80
2717.0,69,1.0,63,1,0,0,120,64,100,80
2718.0,67,1.0,63,1,0,0,120,64,100,80
2719.0,60,1.0,63,1,0,0,120,64,100,80
2720.0,60,1.0,63,1,0,0,120,64,100,80
2721.0,62,1.0,63,1,0,0,120,64,100,80
2722.0,67,1.0,63,1,0,0,120,64,100,80
2723.0,71,1.0,63,1,0,0,120,64,100,80
2724.0,62,1.0,63,1,0,0,120,64,100,80
2725.0,60,1.0,63,1,0,0,120,64,100,80
2726.0,67,1.0,63,1,0,0,120,64,100,80
2727.0,60,1.0,63,1,0,0,120,64,100,80
2728.0,64,1.0,63,1,0,0,120,64,100,80
2729.0,62,1.0,63,1,0,0,120,64,100,80
2730.0,60,1.0,63,1,0,0,120,64,100,80
2731.0,60,1.0,63,1,0,0,120,64,100,80
2732.0,64,1.0,63,1,0,0,120,64,100,80
2733.0,67,1.0,63,1,0,0,120,64,100,80
2734.0,65,1.0,63,1,0,0,120,64,100,80
2735.0,71,1.0,63,1,0,0,120,64,100,80
2736.0,69,1.0,63,1,0,0,120,64,100,80
2737.0,65,1.0,63,1,0,0,120,64,100,80
2738.0,67,1.0,63,1,0,0,120,64,100,80
2739.0,67,1.0,63,1,0,0,120,64,100,80
2740.0,60,1.0,63,1,0,0,120,64,100,80
2741.0,64,1.0,63,1,0,0,120,64,100,80
2742.0,60,1.0,63,1,0,0,120,64,100,80
2743.0,60,1.0,63,1,0,0,120,64,100,80
2744.0,67,1.0,63,1,0,0,120,64,100,80
2745.0,65,1.0,63,1,0,0,120,64,100,80
2746.0,67,1.0,63,1,0,0,120,64,100,80
2747.0,62,1.0,63,1,0,0,120,64,100,80
2748.0,62,1.0,63,1,0,0,120,64,100,80
2749.0,69,1.0,63,1,0,0,120,64,100,80
2750.0,62,1.0,63,1,0,0,120,64,100,80
2751.0,60,1.0,63,1,0,0,120,64,100,80
2752.0,69,1.0,63,1,0,0,120,64,100,80
2753.0,62,1.0,63,1,0,0,120,64,100,80
2754.0,69,1.0,63,1,0,0,120,64,100,80
2755.0,60,1.0,63,1,0,0,120,64,100,80
2756.0,65,1.0,63,1,0,0,120,64,100,80
2757.0,62,1.0,63,1,0,0,120,64,100,80
2758.0,65,1.0,63,1,0,0,120,64,100,80
2759.0,71,1.0,63,1,0,0,120,64,100,80
2760.0,69,1.0,63,1,0,0,120,64,100,80
2761.0,71,1.0,63,1,0,0,120,64,100,80
2762.0,64,1.0,63,1,0,0,120,64,100,80
2763.0,60,1.0,63,1,0,0,120,64,100,80
2764.0,0,1.0,63,1,0,0,120,64,100,80
2765.0,62,1.0,63,1,0,0,120,64,100,80
2766.0,65,1.0,63,1,0,0,120,64,100,80
2767.0,60,1.0,63,1,0,0,120,64,100,80
2768.0,69,1.0,63,1,0,0,120,64,100,80
2769.0,62,1.0,63,1,0,0,120,64,100,80
2770.0,60,1.0,63,1,0,0,120,64,100,80
2771.0,62,1.0,63,1,0,0,120,64,100,80
2772.0,65,1.0,63,1,0,0,120,64,100,80
2773.0,64,1.0,63,1,0,0,120,64,100,80
2774.0,64,1.0,63,1,0,0,120,64,100,80
2775.0,60,1.0,63,1,0,0,120,64,100,80
2776.0,60,1.0,63,1,0,0,120,64,100,80
2777.0,67,1.0,63,1,0,0,120,64,100,80
2778.0,60,1.0,63,1,0,0,120,64,100,80
2779.0,60,1.0,63,1,0,0,120,64,100,80
2780.0,71,1.0,63,1,0,0,120,64,100,80
2781.0,60,1.0,63,1,0,0,120,64,100,80
2782.0,69,1.0,63,1,0,0,120,64,100,80
2783.0,64,1.0,63,1,0,0,120,64,100,80
2784.0,62,1.0,63,1,0,0,120,64,100,80
2785.0,60,1.0,63,1,0,0,120,64,100,80
2786.0,60,1.0,63,1,0,0,120,64,100,80
2787.0,67,1.0,63,1,0,0,120,64,100,80
2788.0,69,1.0,63,1,0,0,120,64,100,80
2789.0,60,1.0,63,1,0,0,120,64,100,80
2790.0,60,1.0,63,1,0,0,120,64,100,80
2791.0,64,1.0,63,1,0,0,120,64,100,80
2792.0,64,1.0,63,1,0,0,120,64,100,80
2793.0,60,1.0,63,1,0,0,120,64,100,80
2794.0,65,1.0,63,1,0,0,120,64,100,80
2795.0,60,1.0,63,1,0,0,120,64,100,80
2796.0,62,1.0,63,1,0,0,120,64,100,80
2797.0,65,1.0,63,1,0,0,120,64,100,80
2798.0,69,1.0,63,1,0,0,120,64,100,80
2799.0,62,1.0,63,1,0,0,120,64,100,80
2800.0,62,1.0,63,1,0,0,120,64,100,80
2801.0,60,1.0,63,1,0,0,120,64,100,80
2802.0,64,1.0,63,1,0,0,120,64,100,80
2803.0,60,1.0,63,1,0,0,120,64,100,80
2804.0,60,1.0,63,1,0,0,120,64,100,80
2805.0,60,1.0,63,1,0,0,120,64,100,80
2806.0,64,1.0,63,1,0,0,120,64,100,80
2807.0,71,1.0,63,1,0,0,120,64,100,80
2808.0,62,1.0,63,1,0,0,120,64,100,80
2809.0,69,1.0,63,1,0,0,120,64,100,80
2810.0,64,1.0,63,1,0,0,120,64,100,80
2811.0,60,1.0,63,1,0,0,120,64,100,80
2812.0,69,1.0,63,1,0,0,120,64,100,80
2813.0,67,1.0,63,1,0,0,120,64,100,80
2814.0,71,1.0,63,1,0,0,120,64,100,80
2815.0,62,1.0,63,1,0,0,120,64,100,80
2816.0,60,1.0,63,1,0,0,120,64,100,80
2817.0,69,1.0,63,1,0,0,120,64,100,80
2818.0,62,1.0,63,1,0,0,120,64,100,80
2819.0,60,1.0,63,1,0,0,120,64,100,80
2820.0,65,1.0,63,1,0,0,120,64,100,80
2821.0,69,1.0,63,1,0,0,120,64,100,80
2822.0,64,1.0,63,1,0,0,120,64,100,80
2823.0,60,1.0,63,1,0,0,120,64,100,80
2824.0,60,1.0,63,1,0,0,120,64,100,80
2825.0,62,1.0,63,1,0,0,120,64,100,80
2826.0,69,1.0,63,1,0,0,120,64,100,80
2827.0,65,1.0,63,1,0,0,120,64,100,80
2828.0,64,1.0,63,1,0,0,120,64,100,80
2829.0,60,1.0,63,1,0,0,120,64,100,80
2830.0,69,1.0,63,1,0,0,120,64,100,80
2831.0,62,1.0,63,1,0,0,120,64,100,80
2832.0,62,1.0,63,1,0,0,120,64,100,80
2833.0,60,1.0,63,1,0,0,120,64,100,80
2834.0,64,1.0,63,1,0,0,120,64,100,80
2835.0,64,1.0,63,1,0,0,120,64,100,80
2836.0,64,1.0,63,1,0,0,120,64,100,80
2837.0,60,1.0,63,1,0,0,120,64,100,80
2838.0,62,1.0,63,1,0,0,120,64,100,80
2839.0,62,1.0,63,1,0,0,120,64,100,80
2840.0,60,1.0,63,1,0,0,120,64,100,80
2841.0,62,1.0,63,1,0,0,120,64,100,80
2842.0,60,1.0,63,1,0,0,120,64,100,80
2843.0,62,1.0,63,1,0,0,120,64,100,80
2844.0,60,1.0,63,1,0,0,120,64,100,80
2845.0,60,1.0,63,1,0,0,120,64,100,80
2846.0,60,1.0,63,1,0,0,120,64,100,80
2847.0,60,1.0,63,1,0,0,120,64,100,80
2848.0,69,1.0,63,1,0,0,120,64,100,80
2849.0,62,1.0,63,1,0,0,120,64,100,80
2850.0,69,1.0,63,1,0,0,120,64,100,80
2851.0,62,1.0,63,1,0,0,120,64,100,80
2852.0,62,1.0,63,1,0,0,120,64,100,80
2853.0,62,1.0,63,1,0,0,120,64,100,80
2854.0,64,1.0,63,1,0,0,120,64,100,80
2855.0,60,1.0,63,1,0,0,120,64,100,80
2856.0,67,1.0,63,1,0,0,120,64,100,80
2857.0,64,1.0,63,1,0,0,120,64,100,80
2858.0,60,1.0,63,1,0,0,120,64,100,80
2859.0,60,1.0,63,1,0,0,120,64,100,80
2860.0,60,1.0,63,1,0,0,120,64,100,80
2861.0,64,1.0,63,1,0,0,120,64,100,80
2862.0,64,1.0,63,1,0,0,120,64,100,80
2863.0,67,1.0,63,1,0,0,120,64,100,80
2864.0,62,1.0,63,1,0,0,120,64,100,80
2865.0,64,1.0,63,1,0,0,120,64,100,80
2866.0,67,1.0,63,1,0,0,120,64,100,80
2867.0,71,1.0,63,1,0,0,120,64,100,80
2868.0,60,1.0,63,1,0,0,120,64,100,80
2869.0,60,1.0,63,1,0,0,120,64,100,80
2870.0,65,1.0,63,1,0,0,120,64,100,80
2871.0,67,1.0,63,1,0,0,120,64,100,80
2872.0,71,1.0,63,1,0,0,120,64,100,80
2873.0,69,1.0,63,1,0,0,120,64,100,80
2874.0,64,1.0,63,1,0,0,120,64,100,80
2875.0,67,1.0,63,1,0,0,120,64,100,80
2876.0,65,1.0,63,1,0,0,120,64,100,80
2877.0,60,1.0,63,1,0,0,120,64,100,80
2878.0,62,1.0,63,1,0,0,120,64,100,80
2879.0,69,1.0,63,1,0,0,120,64,100,80
2880.0,60,1.0,63,1,0,0,120,64,100,80
2881.0,60,1.0,63,1,0,0,120,64,100,80
2882.0,67,1.0,63,1,0,0,120,64,100,80
2883.0,62,1.0,63,1,0,0,120,64,100,80
2884.0,60,1.0,63,1,0,0,120,64,100,80
2885.0,60,1.0,63,1,0,0,120,64,100,80
2886.0,64,1.0,63,1,0,0,120,64,100,80
2887.0,60,1.0,63,1,0,0,120,64,100,80
2888.0,67,1.0,63,1,0,0,120,64,100,80
2889.0,62,1.0,63,1,0,0,120,64,100,80
2890.0,64,1.0,63,1,0,0,120,64,100,80
2891.0,64,1.0,63,1,0,0,120,64,100,80
2892.0,64,1.0,63,1,0,0,120,64,100,80
2893.0,69,1.0,63,1,0,0,120,64,100,80
2894.0,71,1.0,63,1,0,0,120,64,100,80
2895.0,65,1.0,63,1,0,0,120,64,100,80
2896.0,71,1.0,63,1,0,0,120,64,100,80
2897.0,60,1.0,63,1,0,0,120,64,100,80
2898.0,64,1.0,63,1,0,0,120,64,100,80
2899.0,62,1.0,63,1,0,0,120,64,100,80
2900.0,65,1.0,63,1,0,0,120,64,100,80
2901.0,65,1.0,63,1,0,0,120,64,100,80
2902.0,65,1.0,63,1,0,0,120,64,100,80
2903.0,65,1.0,63,1,0,0,120,64,100,80
2904.0,67,1.0,63,1,0,0,120,64,100,80
2905.0,60,1.0,63,1,0,0,120,64,100,80
2906.0,67,1.0,63,1,0,0,120,64,100,80
2907.0,60,1.0,63,1,0,0,120,64,100,80
2908.0,64,1.0,63,1,0,0,120,64,100,80
2909.0,69,1.0,63,1,0,0,120,64,100,80
2910.0,64,1.0,63,1,0,0,120,64,100,80
2911.0,65,1.0,63,1,0,0,120,64,100,80
2912.0,62,1.0,63,1,0,0,120,64,100,80
2913.0,60,1.0,63,1,0,0,120,64,100,80
2914.0,64,1.0,63,1,0,0,120,64,100,80
2915.0,69,1.0,63,1,0,0,120,64,100,80
2916.0,60,1.0,63,1,0,0,120,64,100,80
2917.0,69,1.0,63,1,0,0,120,64,100,80
2918.0,69,1.0,63,1,0,0,120,64,100,80
2919.0,71,1.0,63,1,0,0,120,64,100,80
2920.0,67,1.0,63,1,0,0,120,64,100,80
2921.0,69,1.0,63,1,0,0,120,64,100,80
2922.0,71,1.0,63,1,0,0,120,64,100,80
2923.0,65,1.0,63,1,0,0,120,64,100,80
2924.0,64,1.0,63,1,0,0,120,64,100,80
2925.0,71,1.0,63,1,0,0,120,64,100,80
2926.0,69,1.0,63,1,0,0,120,64,100,80
2927.0,69,1.0,63,1,0,0,120,64,100,80
2928.0,67,1.0,63,1,0,0,120,64,100,80
2929.0,71,1.0,63,1,0,0,120,64,100,80
2930.0,60,1.0,63,1,0,0,120,64,100,80
2931.0,60,1.0,63,1,0,0,120,64,100,80
2932.0,60,1.0,63,1,0,0,120,64,100,80
2933.0,71,1.0,63,1,0,0,120,64,100,80
2934.0,62,1.0,63,1,0,0,120,64,100,80
2935.0,67,1.0,63,1,0,0,120,64,100,80
2936.0,0,1.0,63,1,0,0,120,64,100,80
2937.0,62,1.0,63,1,0,0,120,64,100,80
2938.0,69,1.0,63,1,0,0,120,64,100,80
2939.0,71,1.0,63,1,0,0,120,64,100,80
2940.0,62,1.0,63,1,0,0,120,64,100,80
2941.0,60,1.0,63,1,0,0,120,64,100,80
2942.0,64,1.0,63,1,0,0,120,64,100,80
2943.0,64,1.0,63,1,0,0,120,64,100,80
2944.0,64,1.0,63,1,0,0,120,64,100,80
2945.0,69,1.0,63,1,0,0,120,64,100,80
2946.0,0,1.0,63,1,0,0,120,64,100,80
2947.0,62,1.0,63,1,0,0,120,64,100,80
2948.0,64,1.0,63,1,0,0,120,64,100,80
2949.0,64,1.0,63,1,0,0,120,64,100,80
2950.0,62,1.0,63,1,0,0,120,64,100,80
2951.0,60,1.0,63,1,0,0,120,64,100,80
2952.0,65,1.0,63,1,0,0,120,64,100,80
2953.0,71,1.0,63,1,0,0,120,64,100,80
2954.0,69,1.0,63,1,0,0,120,64,100,80
2955.0,67,1.0,63,1,0,0,120,64,100,80
2956.0,60,1.0,63,1,0,0,120,64,100,80
2957.0,62,1.0,63,1,0,0,120,64,100,80
2958.0,60,1.0,63,1,0,0,120,64,100,80
2959.0,62,1.0,63,1,0,0,120,64,100,80
2960.0,64,1.0,63,1,0,0,120,64,100,80
2961.0,67,1.0,63,1,0,0,120,64,100,80
2962.0,62,1.0,63,1,0,0,120,64,100,80
2963.0,64,1.0,63,1,0,0,120,64,100,80
2964.0,65,1.0,63,1,0,0,120,64,100,80
2965.0,67,1.0,63,1,0,0,120,64,100,80
2966.0,69,1.0,63,1,0,0,120,64,100,80
2967.0,60,1.0,63,1,0,0,120,64,100,80
2968.0,67,1.0,63,1,0,0,120,64,100,80
2969.0,64,1.0,63,1,0,0,120,64,100,80
2970.0,69,1.0,63,1,0,0,120,64,100,80
2971.0,60,1.0,63,1,0,0,120,64,100,80
2972.0,60,1.0,63,1,0,0,120,64,100,80
2973.0,0,1.0,63,1,0,0,120,64,100,80
2974.0,0,1.0,63,1,0,0,120,64,100,80
2975.0,64,1.0,63,1,0,0,120,64,100,80
2976.0,67,1.0,63,1,0,0,120,64,100,80
2977.0,0,1.0,63,1,0,0,120,64,100,80
2978.0,60,1.0,63,1,0,0,120,64,100,80
2979.0,65,1.0,63,1,0,0,120,64,100,80
2980.0,69,1.0,63,1,0,0,120,64,100,80
2981.0,64,1.0,63,1,0,0,120,64,100,80
2982.0,62,1.0,63,1,0,0,120,64,100,80
2983.0,62,1.0,63,1,0,0,120,64,100,80
2984.0,67,1.0,63,1,0,0,120,64,100,80
2985.0,62,1.0,63,1,0,0,120,64,100,80
2986.0,67,1.0,63,1,0,0,120,64,100,80
2987.0,71,1.0,63,1,0,0,120,64,100,80
2988.0,64,1.0,63,1,0,0,120,64,100,80
2989.0,69,1.0,63,1,0,0,120,64,100,80
2990.0,62,1.0,63,1,0,0,120,64,100,80
2991.0,64,1.0,63,1,0,0,120,64,100,80
2992.0,67,1.0,63,1,0,0,120,64,100,80
2993.0,0,1.0,63,1,0,0,120,64,100,80
2994.0,62,1.0,63,1,0,0,120,64,100,80
2995.0,60,1.0,63,1,0,0,120,64,100,80
2996.0,0,1.0,63,1,0,0,120,64,100,80
2997.0,62,1.0,63,1,0,0,120,64,100,80
2998.0,64,1.0,63,1,0,0,120,64,100,80
2999.0,62,1.0,63,1,0,0,120,64,100,80
3000.0,62,1.0,63,1,0,0,120,64,100,80
3001.0,67,1.0,63,1,0,0,120,64,100,80
3002.0,60,1.0,63,1,0,0,120,64,100,80
3003.0,65,1.0,63,1,0,0,120,64,100,80
3004.0,0,1.0,63,1,0,0,120,64,100,80
3005.0,0,1.0,63,1,0,0,120,64,100,80
3006.0,65,1.0,63,1,0,0,120,64,100,80
3007.0,0,1.0,63,1,0,0,120,64,100,80
3008.0,64,1.0,63,1,0,0,120,64,100,80
3009.0,67,1.0,63,1,0,0,120,64,100,80
3010.0,0,1.0,63,1,0,0,120,64,100,80
3011.0,67,1.0,63,1,0,0,120,64,100,80
3012.0,64,1.0,63,1,0,0,120,64,100,80
3013.0,0,1.0,63,1,0,0,120,64,100,80
3014.0,0,1.0,63,1,0,0,120,64,100,80
3015.0,62,1.0,63,1,0,0,120,64,100,80
3016.0,67,1.0,63,1,0,0,120,64,100,80
3017.0,64,1.0,63,1,0,0,120,64,100,80
3018.0,67,1.0,63,1,0,0,120,64,100,80
3019.0,62,1.0,63,1,0,0,120,64,100,80
3020.0,69,1.0,63,1,0,0,120,64,100,80
3021.0,65,1.0,63,1,0,0,120,64,100,80
3022.0,67,1.0,63,1,0,0,120,64,100,80
3023.0,62,1.0,63,1,0,0,120,64,100,80
3024.0,60,1.0,63,1,0,0,120,64,100,80
3025.0,65,1.0,63,1,0,0,120,64,100,80
3026.0,62,1.0,63,1,0,0,120,64,100,80
3027.0,65,1.0,63,1,0,0,120,64,100,80
3028.0,60,1.0,63,1,0,0,120,64,100,80
3029.0,64,1.0,63,1,0,0,120,64,100,80
3030.0,64,1.0,63,1,0,0,120,64,100,80
3031.0,67,1.0,63,1,0,0,120,64,100,80
3032.0,64,1.0,63,1,0,0,120,64,100,80
3033.0,65,1.0,63,1,0,0,120,64,100,80
3034.0,71,1.0,63,1,0,0,120,64,100,80
3035.0,64,1.0,63,1,0,0,120,64,100,80
3036.0,62,1.0,63,1,0,0,120,64,100,80
3037.0,71,1.0,63,1,0,0,120,64,100,80
3038.0,60,1.0,63,1,0,0,120,64,100,80
3039.0,65,1.0,63,1,0,0,120,64,100,80
3040.0,65,1.0,63,1,0,0,120,64,100,80
3041.0,60,1.0,63,1,0,0,120,64,100,80
3042.0,60,1.0,63,1,0,0,120,64,100,80
3043.0,64,1.0,63,1,0,0,120,64,100,80
3044.0,67,1.0,63,1,0,0,120,64,100,80
3045.0,0,1.0,63,1,0,0,120,64,100,80
3046.0,60,1.0,63,1,0,0,120,64,100,80
3047.0,64,1.0,63,1,0,0,120,64,100,80
3048.0,62,1.0,63,1,0,0,120,64,100,80
3049.0,60,1.0,63,1,0,0,120,64,100,80
3050.0,65,1.0,63,1,0,0,120,64,100,80
3051.0,67,1.0,63,1,0,0,120,64,100,80
3052.0,60,1.0,63,1,0,0,120,64,100,80
3053.0,69,1.0,63,1,0,0,120,64,100,80
3054.0,69,1.0,63,1,0,0,120,64,100,80
3055.0,64,1.0,63,1,0,0,120,64,100,80
3056.0,67,1.0,63,1,0,0,120,64,100,80
3057.0,62,1.0,63,1,0,0,120,64,100,80
3058.0,0,1.0,63,1,0,0,120,64,100,80
3059.0,69,1.0,63,1,0,0,120,64,100,80
3060.0,64,1.0,63,1,0,0,120,64,100,80
3061.0,71,1.0,63,1,0,0,120,64,100,80
3062.0,60,1.0,63,1,0,0,120,64,100,80
3063.0,69,1.0,63,1,0,0,120,64,100,80
3064.0,62,1.0,63,1,0,0,120,64,100,80
3065.0,60,1.0,63,1,0,0,120,64,100,80
3066.0,69,1.0,63,1,0,0,120,64,100,80
3067.0,62,1.0,63,1,0,0,120,64,100,80
3068.0,69,1.0,63,1,0,0,120,64,100,80
3069.0,60,1.0,63,1,0,0,120,64,100,80
3070.0,60,1.0,63,1,0,0,120,64,100,80
3071.0,69,1.0,63,1,0,0,120,64,100,80
3072.0,69,1.0,63,1,0,0,120,64,100,80
3073.0,71,1.0,63,1,0,0,120,64,100,80
3074.0,60,1.0,63,1,0,0,120,64,100,80
3075.0,65,1.0,63,1,0,0,120,64,100,80
3076.0,65,1.0,63,1,0,0,120,64,100,80
3077.0,62,1.0,63,1,0,0,120,64,100,80
3078.0,69,1.0,63,1,0,0,120,64,100,80
3079.0,71,1.0,63,1,0,0,120,64,100,80
3080.0,71,1.0,63,1,0,0,120,64,100,80
3081.0,69,1.0,63,1,0,0,120,64,100,80
3082.0,60,1.0,63,1,0,0,120,64,100,80
3083.0,71,1.0,63,1,0,0,120,64,100,80
3084.0,62,1.0,63,1,0,0,120,64,100,80
3085.0,65,1.0,63,1,0,0,120,64,100,80
3086.0,62,1.0,63,1,0,0,120,64,100,80
3087.0,64,1.0,63,1,0,0,120,64,100,80
3088.0,0,1.0,63,1,0,0,120,64,100,80
3089.0,67,1.0,63,1,0,0,120,64,100,80
3090.0,62,1.0,63,1,0,0,120,64,100,80
3091.0,60,1.0,63,1,0,0,120,64,100,80
3092.0,71,1.0,63,1,0,0,120,64,100,80
3093.0,69,1.0,63,1,0,0,120,64,100,80
3094.0,60,1.0,63,1,0,0,120,64,100,80
3095.0,64,1.0,63,1,0,0,120,64,100,80
3096.0,60,1.0,63,1,0,0,120,64,100,80
3097.0,64,1.0,63,1,0,0,120,64,100,80
3098.0,69,1.0,63,1,0,0,120,64,100,80
3099.0,60,1.0,63,1,0,0,120,64,100,80
3100.0,0,1.0,63,1,0,0,120,64,100,80
3101.0,60,1.0,63,1,0,0,120,64,100,80
3102.0,65,1.0,63,1,0,0,120,64,100,80
3103.0,0,1.0,63,1,0,0,120,64,100,80
3104.0,64,1.0,63,1,0,0,120,64,100,80
3105.0,62,1.0,63,1,0,0,120,64,100,80
3106.0,62,1.0,63,1,0,0,120,64,100,80
3107.0,62,1.0,63,1,0,0,120,64,100,80
3108.0,71,1.0,63,1,0,0,120,64,100,80
3109.0,71,1.0,63,1,0,0,120,64,100,80
3110.0,62,1.0,63,1,0,0,120,64,100,80
3111.0,65,1.0,63,1,0,0,120,64,100,80
3112.0,65,1.0,63,1,0,0,120,64,100,80
3113.0,60,1.0,63,1,0,0,120,64,100,80
3114.0,62,1.0,63,1,0,0,120,64,100,80
3115.0,60,1.0,63,1,0,0,120,64,100,80
3116.0,62,1.0,63,1,0,0,120,64,100,80
3117.0,60,1.0,63,1,0,0,120,64,100,80
3118.0,69,1.0,63,1,0,0,120,64,100,80
3119.0,67,1.0,63,1,0,0,120,64,100,80
3120.0,60,1.0,63,1,0,0,120,64,100,80
3121.0,0,1.0,63,1,0,0,120,64,100,80
3122.0,71,1.0,63,1,0,0,120,64,100,80
3123.0,60,1.0,63,1,0,0,120,64,100,80
3124.0,64,1.0,63,1,0,0,120,64,100,80
3125.0,69,1.0,63,1,0,0,120,64,100,80
3126.0,64,1.0,63,1,0,0,120,64,100,80
3127.0,62,1.0,63,1,0,0,120,64,100,80
3128.0,62,1.0,63,1,0,0,120,64,100,80
3129.0,67,1.0,63,1,0,0,120,64,100,80
3130.0,71,1.0,63,1,0,0,120,64,100,80
3131.0,69,1.0,63,1,0,0,120,64,100,80
3132.0,64,1.0,63,1,0,0,120,64,100,80
3133.0,69,1.0,63,1,0,0,120,64,100,80
3134.0,0,1.0,63,1,0,0,120,64,100,80
3135.0,69,1.0,63,1,0,0,120,64,100,80
3136.0,60,1.0,63,1,0,0,120,64,100,80
3137.0,69,1.0,63,1,0,0,120,64,100,80
3138.0,60,1.0,63,1,0,0,120,64,100,80
3139.0,64,1.0,63,1,0,0,120,64,100,80
3140.0,64,1.0,63,1,0,0,120,64,100,80
3141.0,67,1.0,63,1,0,0,120,64,100,80
3142.0,62,1.0,63,1,0,0,120,64,100,80
3143.0,69,1.0,63,1,0,0,120,64,100,80
3144.0,64,1.0,63,1,0,0,120,64,100,80
3145.0,69,1.0,63,1,0,0,120,64,100,80
3146.0,62,1.0,63,1,0,0,120,64,100,80
3147.0,60,1.0,63,1,0,0,120,64,100,80
3148.0,71,1.0,63,1,0,0,120,64,100,80
3149.0,65,1.0,63,1,0,0,120,64,100,80
3150.0,60,1.0,63,1,0,0,120,64,100,80
3151.0,62,1.0,63,1,0,0,120,64,100,80
3152.0,0,1.0,63,1,0,0,120,64,100,80
3153.0,62,1.0,63,1,0,0,120,64,100,80
3154.0,67,1.0,63,1,0,0,120,64,100,80
3155.0,62,1.0,63,1,0,0,120,64,100,80
3156.0,69,1.0,63,1,0,0,120,64,100,80
3157.0,69,1.0,63,1,0,0,120,64,100,80
3158.0,69,1.0,63,1,0,0,120,64,100,80
3159.0,69,1.0,63,1,0,0,120,64,100,80
3160.0,64,1.0,63,1,0,0,120,64,100,80
3161.0,64,1.0,63,1,0,0,120,64,100,80
3162.0,62,1.0,63,1,0,0,120,64,100,80
3163.0,69,1.0,63,1,0,0,120,64,100,80
3164.0,69,1.0,63,1,0,0,120,64,100,80
3165.0,64,1.0,63,1,0,0,120,64,100,80
3166.0,65,1.0,63,1,0,0,120,64,100,80
3167.0,64,1.0,63,1,0,0,120,64,100,80
3168.0,60,1.0,63,1,0,0,120,64,100,80
3169.0,69,1.0,63,1,0,0,120,64,100,80
3170.0,60,1.0,63,1,0,0,120,64,100,80
3171.0,67,1.0,63,1,0,0,120,64,100,80
3172.0,71,1.0,63,1,0,0,120,64,100,80
3173.0,60,1.0,63,1,0,0,120,64,100,80
3174.0,60,1.0,63,1,0,0,120,64,100,80
3175.0,67,1.0,63,1,0,0,120,64,100,80
3176.0,69,1.0,63,1,0,0,120,64,100,80
3177.0,64,1.0,63,1,0,0,120,64,100,80
3178.0,64,1.0,63,1,0,0,120,64,100,80
3179.0,71,1.0,63,1,0,0,120,64,100,80
3180.0,67,1.0,63,1,0,0,120,64,100,80
3181.0,71,1.0,63,1,0,0,120,64,100,80
3182.0,65,1.0,63,1,0,0,120,64,100,80
3183.0,71,1.0,63,1,0,0,120,64,100,80
3184.0,67,1.0,63,1,0,0,120,64,100,80
3185.0,69,1.0,63,1,0,0,120,64,100,80
3186.0,64,1.0,63,1,0,0,120,64,100,80
3187.0,65,1.0,63,1,0,0,120,64,100,80
3188.0,64,1.0,63,1,0,0,120,64,100,80
3189.0,65,1.0,63,1,0,0,120,64,100,80
3190.0,69,1.0,63,1,0,0,120,64,100,80
3191.0,60,1.0,63,1,0,0,120,64,100,80
3192.0,60,1.0,63,1,0,0,120,64,100,80
3193.0,67,1.0,63,1,0,0,120,64,100,80
3194.0,67,1.0,63,1,0,0,120,64,100,80
3195.0,64,1.0,63,1,0,0,120,64,100,80
3196.0,71,1.0,63,1,0,0,120,64,100,80
3197.0,65,1.0,63,1,0,0,120,64,100,80
3198.0,69,1.0,63,1,0,0,120,64,100,80
3199.0,60,1.0,63,1,0,0,120,64,100,80
3200.0,67,1.0,63,1,0,0,120,64,100,80
3201.0,69,1.0,63,1,0,0,120,64,100,80
3202.0,60,1.0,63,1,0,0,120,64,100,80
3203.0,65,1.0,63,1,0,0,120,64,100,80
3204.0,65,1.0,63,1,0,0,120,64,100,80
3205.0,0,1.0,63,1,0,0,120,64,100,80
3206.0,60,1.0,63,1,0,0,120,64,100,80
3207.0,64,1.0,63,1,0,0,120,64,100,80
3208.0,67,1.0,63,1,0,0,120,64,100,80
3209.0,64,1.0,63,1,0,0,120,64,100,80
3210.0,64,1.0,63,1,0,0,120,64,100,80
3211.0,60,1.0,63,1,0,0,120,64,100,80
3212.0,0,1.0,63,1,0,0,120,64,100,80
3213.0,71,1.0,63,1,0,0,120,64,100,80
3214.0,71,1.0,63,1,0,0,120,64,100,80
3215.0,69,1.0,63,1,0,0,120,64,100,80
3216.0,69,1.0,63,1,0,0,120,64,100,80
3217.0,69,1.0,63,1,0,0,120,64,100,80
3218.0,64,1.0,63,1,0,0,120,64,100,80
3219.0,64,1.0,63,1,0,0,120,64,100,80
3220.0,60,1.0,63,1,0,0,120,64,100,80
3221.0,64,1.0,63,1,0,0,120,64,100,80
3222.0,62,1.0,63,1,0,0,120,64,100,80
3223.0,62,1.0,63,1,0,0,120,64,100,80
3224.0,60,1.0,63,1,0,0,120,64,100,80
3225.0,62,1.0,63,1,0,0,120,64,100,80
3226.0,0,1.0,63,1,0,0,120,64,100,80
3227.0,71,1.0,63,1,0,0,120,64,100,80
3228.0,64,1.0,63,1,0,0,120,64,100,80
3229.0,65,1.0,63,1,0,0,120,64,100,80
3230.0,64,1.0,63,1,0,0,120,64,100,80
3231.0,62,1.0,63,1,0,0,120,64,100,80
3232.0,64,1.0,63,1,0,0,120,64,100,80
3233.0,67,1.0,63,1,0,0,120,64,100,80
3234.0,67,1.0,63,1,0,0,120,64,100,80
3235.0,71,1.0,63,1,0,0,120,64,100,80
3236.0,62,1.0,63,1,0,0,120,64,100,80
3237.0,64,1.0,63,1,0,0,120,64,100,80
3238.0,62,1.0,63,1,0,0,120,64,100,80
3239.0,62,1.0,63,1,0,0,120,64,100,80
3240.0,62,1.0,63,1,0,0,120,64,100,80
3241.0,64,1.0,63,1,0,0,120,64,100,80
3242.0,65,1.0,63,1,0,0,120,64,100,80
3243.0,67,1.0,63,1,0,0,120,64,100,80
3244.0,0,1.0,63,1,0,0,120,64,100,80
3245.0,62,1.0,63,1,0,0,120,64,100,80
3246.0,67,1.0,63,1,0,0,120,64,100,80
3247.0,62,1.0,63,1,0,0,120,64,100,80
3248.0,0,1.0,63,1,0,0,120,64,100,80
3249.0,60,1.0,63,1,0,0,120,64,100,80
3250.0,67,1.0,63,1,0,0,120,64,100,80
3251.0,69,1.0,63,1,0,0,120,64,100,80
3252.0,62,1.0,63,1,0,0,120,64,100,80
3253.0,71,1.0,63,1,0,0,120,64,100,80
3254.0,62,1.0,63,1,0,0,120,64,100,80
3255.0,64,1.0,63,1,0,0,120,64,100,80
3256.0,64,1.0,63,1,0,0,120,64,100,80
3257.0,62,1.0,63,1,0,0,120,64,100,80
3258.0,67,1.0,63,1,0,0,120,64,100,80
3259.0,0,1.0,63,1,0,0,120,64,100,80
3260.0,64,1.0,63,1,0,0,120,64,100,80
3261.0,67,1.0,63,1,0,0,120,64,100,80
3262.0,64,1.0,63,1,0,0,120,64,100,80
3263.0,62,1.0,63,1,0,0,120,64,100,80
3264.0,64,1.0,63,1,0,0,120,64,100,80
3265.0,64,1.0,63,1,0,0,120,64,100,80
3266.0,64,1.0,63,1,0,0,120,64,100,80
3267.0,62,1.0,63,1,0,0,120,64,100,80
3268.0,62,1.0,63,1,0,0,120,64,100,80
3269.0,60,1.0,63,1,0,0,120,64,100,80
3270.0,60,1.0,63,1,0,0,120,64,100,80
3271.0,67,1.0,63,1,0,0,120,64,100,80
3272.0,64,1.0,63,1,0,0,120,64,100,80
3273.0,64,1.0,63,1,0,0,120,64,100,80
3274.0,64,1.0,63,1,0,0,120,64,100,80
3275.0,71,1.0,63,1,0,0,120,64,100,80
3276.0,60,1.0,63,1,0,0,120,64,100,80
3277.0,64,1.0,63,1,0,0,120,64,100,80
3278.0,60,1.0,63,1,0,0,120,64,100,80
3279.0,64,1.0,63,1,0,0,120,64,100,80
3280.0,60,1.0,63,1,0,0,120,64,100,80
3281.0,62,1.0,63,1,0,0,120,64,100,80
3282.0,60,1.0,63,1,0,0,120,64,100,80
3283.0,64,1.0,63,1,0,0,120,64,100,80
3284.0,0,1.0,63,1,0,0,120,64,100,80
3285.0,60,1.0,63,1,0,0,120,64,100,80
3286.0,60,1.0,63,1,0,0,120,64,100,80
3287.0,0,1.0,63,1,0,0,120,64,100,80
3288.0,60,1.0,63,1,0,0,120,64,100,80
3289.0,64,1.0,63,1,0,0,120,64,100,80
3290.0,60,1.0,63,1,0,0,120,64,100,80
3291.0,67,1.0,63,1,0,0,120,64,100,80
3292.0,64,1.0,63,1,0,0,120,64,100,80
3293.0,62,1.0,63,1,0,0,120,64,100,80
3294.0,67,1.0,63,1,0,0,120,64,100,80
3295.0,65,1.0,63,1,0,0,120,64,100,80
3296.0,67,1.0,63,1,0,0,120,64,100,80
3297.0,60,1.0,63,1,0,0,120,64,100,80
3298.0,67,1.0,63,1,0,0,120,64,100,80
3299.0,62,1.0,63,1,0,0,120,64,100,80
3300.0,60,1.0,63,1,0,0,120,64,100,80
3301.0,62,1.0,63,1,0,0,120,64,100,80
3302.0,67,1.0,63,1,0,0,120,64,100,80
3303.0,69,1.0,63,1,0,0,120,64,100,80
3304.0,62,1.0,63,1,0,0,120,64,100,80
3305.0,60,1.0,63,1,0,0,120,64,100,80
3306.0,64,1.0,63,1,0,0,120,64,100,80
3307.0,65,1.0,63,1,0,0,120,64,100,80
3308.0,64,1.0,63,1,0,0,120,64,100,80
3309.0,62,1.0,63,1,0,0,120,64,100,80
3310.0,64,1.0,63,1,0,0,120,64,100,80
3311.0,64,1.0,63,1,0,0,120,64,100,80
3312.0,60,1.0,63,1,0,0,120,64,100,80
3313.0,64,1.0,63,1,0,0,120,64,100,80
3314.0,62,1.0,63,1,0,0,120,64,100,80
3315.0,64,1.0,63,1,0,0,120,64,100,80
3316.0,65,1.0,63,1,0,0,120,64,100,80
3317.0,64,1.0,63,1,0,0,120,64,100,80
3318.0,62,1.0,63,1,0,0,120,64,100,80
3319.0,67,1.0,63,1,0,0,120,64,100,80
3320.0,67,1.0,63,1,0,0,120,64,100,80
3321.0,67,1.0,63,1,0,0,120,64,100,80
3322.0,64,1.0,63,1,0,0,120,64,100,80
3323.0,62,1.0,63,1,0,0,120,64,100,80
3324.0,69,1.0,63,1,0,0,120,64,100,80
3325.0,60,1.0,63,1,0,0,120,64,100,80
3326.0,67,1.0,63,1,0,0,120,64,100,80
3327.0,65,1.0,63,1,0,0,120,64,100,80
3328.0,0,1.0,63,1,0,0,120,64,100,80
3329.0,62,1.0,63,1,0,0,120,64,100,80
3330.0,60,1.0,63,1,0,0,120,64,100,80
3331.0,71,1.0,63,1,0,0,120,64,100,80
3332.0,62,1.0,63,1,0,0,120,64,100,80
3333.0,62,1.0,63,1,0,0,120,64,100,80
3334.0,62,1.0,63,1,0,0,120,64,100,80
3335.0,64,1.0,63,1,0,0,120,64,100,80
3336.0,64,1.0,63,1,0,0,120,64,100,80
3337.0,69,1.0,63,1,0,0,120,64,100,80
3338.0,71,1.0,63,1,0,0,120,64,100,80
3339.0,67,1.0,63,1,0,0,120,64,100,80
3340.0,67,1.0,63,1,0,0,120,64,100,80
3341.0,64,1.0,63,1,0,0,120,64,100,80
3342.0,60,1.0,63,1,0,0,120,64,100,80
3343.0,60,1.0,63,1,0,0,120,64,100,80
3344.0,67,1.0,63,1,0,0,120,64,100,80
3345.0,62,1.0,63,1,0,0,120,64,100,80
3346.0,60,1.0,63,1,0,0,120,64,100,80
3347.0,62,1.0,63,1,0,0,120,64,100,80
3348.0,60,1.0,63,1,0,0,120,64,100,80
3349.0,65,1.0,63,1,0,0,120,64,100,80
3350.0,65,1.0,63,1,0,0,120,64,100,80
3351.0,60,1.0,63,1,0,0,120,64,100,80
3352.0,65,1.0,63,1,0,0,120,64,100,80
3353.0,65,1.0,63,1,0,0,120,64,100,80
3354.0,71,1.0,63,1,0,0,120,64,100,80
3355.0,69,1.0,63,1,0,0,120,64,100,80
3356.0,62,1.0,63,1,0,0,120,64,100,80
3357.0,71,1.0,63,1,0,0,120,64,100,80
3358.0,62,1.0,63,1,0,0,120,64,100,80
3359.0,0,1.0,63,1,0,0,120,64,100,80
3360.0,64,1.0,63,1,0,0,120,64,100,80
3361.0,69,1.0,63,1,0,0,120,64,100,80
3362.0,64,1.0,63,1,0,0,120,64,100,80
3363.0,65,1.0,63,1,0,0,120,64,100,80
3364.0,64,1.0,63,1,0,0,120,64,100,80
3365.0,65,1.0,63,1,0,0,120,64,100,80
3366.0,60,1.0,63,1,0,0,120,64,100,80
3367.0,62,1.0,63,1,0,0,120,64,100,80
3368.0,65,1.0,63,1,0,0,120,64,100,80
3369.0,64,1.0,63,1,0,0,120,64,100,80
3370.0,64,1.0,63,1,0,0,120,64,100,80
3371.0,67,1.0,63,1,0,0,120,64,100,80
3372.0,64,1.0,63,1,0,0,120,64,100,80
3373.0,64,1.0,63,1,0,0,120,64,100,80
3374.0,60,1.0,63,1,0,0,120,64,100,80
3375.0,62,1.0,63,1,0,0,120,64,100,80
3376.0,0,1.0,63,1,0,0,120,64,100,80
3377.0,62,1.0,63,1,0,0,120,64,100,80
3378.0,0,1.0,63,1,0,0,120,64,100,80
3379.0,64,1.0,63,1,0,0,120,64,100,80
3380.0,64,1.0,63,1,0,0,120,64,100,80
3381.0,65,1.0,63,1,0,0,120,64,100,80
3382.0,64,1.0,63,1,0,0,120,64,100,80
3383.0,65,1.0,63,1,0,0,120,64,100,80
3384.0,67,1.0,63,1,0,0,120,64,100,80
3385.0,64,1.0,63,1,0,0,120,64,100,80
3386.0,64,1.0,63,1,0,0,120,64,100,80
3387.0,64,1.0,63,1,0,0,120,64,100,80
3388.0,71,1.0,63,1,0,0,120,64,100,80
3389.0,64,1.0,63,1,0,0,120,64,100,80
3390.0,60,1.0,63,1,0,0,120,64,100,80
3391.0,67,1.0,63,1,0,0,120,64,100,80
3392.0,64,1.0,63,1,0,0,120,64,100,80
3393.0,60,1.0,63,1,0,0,120,64,100,80
3394.0,65,1.0,63,1,0,0,120,64,100,80
3395.0,62,1.0,63,1,0,0,120,64,100,80
3396.0,71,1.0,63,1,0,0,120,64,100,80
3397.0,62,1.0,63,1,0,0,120,64,100,80
3398.0,60,1.0,63,1,0,0,120,64,100,80
3399.0,64,1.0,63,1,0,0,120,64,100,80
3400.0,65,1.0,63,1,0,0,120,64,100,80
3401.0,60,1.0,63,1,0,0,120,64,100,80
3402.0,0,1.0,63,1,0,0,120,64,100,80
3403.0,62,1.0,63,1,0,0,120,64,100,80
3404.0,65,1.0,63,1,0,0,120,64,100,80
3405.0,65,1.0,63,1,0,0,120,64,100,80
3406.0,65,1.0,63,1,0,0,120,64,100,80
3407.0,60,1.0,63,1,0,0,120,64,100,80
3408.0,71,1.0,63,1,0,0,120,64,100,80
3409.0,64,1.0,63,1,0,0,120,64,100,80
3410.0,64,1.0,63,1,0,0,120,64,100,80
3411.0,69,1.0,63,1,0,0,120,64,100,80
3412.0,60,1.0,63,1,0,0,120,64,100,80
3413.0,67,1.0,63,1,0,0,120,64,100,80
3414.0,65,1.0,63,1,0,0,120,64,100,80
3415.0,65,1.0,63,1,0,0,120,64,100,80
3416.0,60,1.0,63,1,0,0,120,64,100,80
3417.0,60,1.0,63,1,0,0,120,64,100,80
3418.0,64,1.0,63,1,0,0,120,64,100,80
3419.0,60,1.0,63,1,0,0,120,64,100,80
3420.0,67,1.0,63,1,0,0,120,64,100,80
3421.0,62,1.0,63,1,0,0,120,64,100,80
3422.0,67,1.0,63,1,0,0,120,64,100,80
3423.0,67,1.0,63,1,0,0,120,64,100,80
3424.0,62,1.0,63,1,0,0,120,64,100,80
3425.0,62,1.0,63,1,0,0,120,64,100,80
3426.0,69,1.0,63,1,0,0,120,64,100,80
3427.0,65,1.0,63,1,0,0,120,64,100,80
3428.0,60,1.0,63,1,0,0,120,64,100,80
3429.0,60,1.0,63,1,0,0,120,64,100,80
3430.0,64,1.0,63,1,0,0,120,64,100,80
3431.0,64,1.0,63,1,0,0,120,64,100,80
3432.0,65,1.0,63,1,0,0,120,64,100,80
3433.0,0,1.0,63,1,0,0,120,64,100,80
3434.0,67,1.0,63,1,0,0,120,64,100,80
3435.0,67,1.0,63,1,0,0,120,64,100,80
3436.0,0,1.0,63,1,0,0,120,64,100,80
3437.0,60,1.0,63,1,0,0,120,64,100,80
3438.0,62,1.0,63,1,0,0,120,64,100,80
3439.0,62,1.0,63,1,0,0,120,64,100,80
3440.0,60,1.0,63,1,0,0,120,64,100,80
3441.0,62,1.0,63,1,0,0,120,64,100,80
3442.0,0,1.0,63,1,0,0,120,64,100,80
3443.0,67,1.0,63,1,0,0,120,64,100,80
3444.0,62,1.0,63,1,0,0,120,64,100,80
3445.0,67,1.0,63,1,0,0,120,64,100,80
3446.0,60,1.0,63,1,0,0,120,64,100,80
3447.0,64,1.0,63,1,0,0,120,64,100,80
3448.0,0,1.0,63,1,0,0,120,64,100,80
3449.0,62,1.0,63,1,0,0,120,64,100,80
3450.0,60,1.0,63,1,0,0,120,64,100,80
3451.0,62,1.0,63,1,0,0,120,64,100,80
3452.0,62,1.0,63,1,0,0,120,64,100,80
3453.0,67,1.0,63,1,0,0,120,64,100,80
3454.0,62,1.0,63,1,0,0,120,64,100,80
3455.0,60,1.0,63,1,0,0,120,64,100,80
3456.0,62,1.0,63,1,0,0,120,64,100,80
3457.0,67,1.0,63,1,0,0,120,64,100,80
3458.0,60,1.0,63,1,0,0,120,64,100,80
3459.0,60,1.0,63,1,0,0,120,64,100,80
3460.0,67,1.0,63,1,0,0,120,64,100,80
3461.0,64,1.0,63,1,0,0,120,64,100,80
3462.0,60,1.0,63,1,0,0,120,64,100,80
3463.0,60,1.0,63,1,0,0,120,64,100,80
3464.0,65,1.0,63,1,0,0,120,64,100,80
3465.0,65,1.0,63,1,0,0,120,64,100,80
3466.0,64,1.0,63,1,0,0,120,64,100,80
3467.0,64,1.0,63,1,0,0,120,64,100,80
3468.0,60,1.0,63,1,0,0,120,64,100,80
3469.0,62,1.0,63,1,0,0,120,64,100,80
3470.0,62,1.0,63,1,0,0,120,64,100,80
3471.0,62,1.0,63,1,0,0,120,64,100,80
3472.0,64,1.0,63,1,0,0,120,64,100,80
3473.0,62,1.0,63,1,0,0,120,64,100,80
3474.0,64,1.0,63,1,0,0,120,64,100,80
3475.0,60,1.0,63,1,0,0,120,64,100,80
3476.0,64,1.0,63,1,0,0,120,64,100,80
3477.0,65,1.0,63,1,0,0,120,64,100,80
3478.0,64,1.0,63,1,0,0,120,64,100,80
3479.0,64,1.0,63,1,0,0,120,64,100,80
3480.0,64,1.0,63,1,0,0,120,64,100,80
3481.0,64,1.0,63,1,0,0,120,64,100,80
3482.0,60,1.0,63,1,0,0,120,64,100,80
3483.0,60,1.0,63,1,0,0,120,64,100,80
3484.0,65,1.0,63,1,0,0,120,64,100,80
3485.0,69,1.0,63,1,0,0,120,64,100,80
3486.0,64,1.0,63,1,0,0,120,64,100,80
3487.0,64,1.0,63,1,0,0,120,64,100,80
3488.0,65,1.0,63,1,0,0,120,64,100,80
3489.0,71,1.0,63,1,0,0,120,64,100,80
3490.0,69,1.0,63,1,0,0,120,64,100,80
3491.0,60,1.0,63,1,0,0,120,64,100,80
3492.0,64,1.0,63,1,0,0,120,64,100,80
3493.0,71,1.0,63,1,0,0,120,64,100,80
3494.0,64,1.0,63,1,0,0,120,64,100,80
3495.0,60,1.0,63,1,0,0,120,64,100,80
3496.0,64,1.0,63,1,0,0,120,64,100,80
3497.0,60,1.0,63,1,0,0,120,64,100,80
3498.0,60,1.0,63,1,0,0,120,64,100,80
3499.0,67,1.0,63,1,0,0,120,64,100,80
3500.0,0,1.0,63,1,0,0,120,64,100,80
3501.0,62,1.0,63,1,0,0,120,64,100,80
3502.0,60,1.0,63,1,0,0,120,64,100,80
3503.0,71,1.0,63,1,0,0,120,64,100,80
3504.0,67,1.0,63,1,0,0,120,64,100,80
3505.0,60,1.0,63,1,0,0,120,64,100,80
3506.0,62,1.0,63,1,0,0,120,64,100,80
3507.0,62,1.0,63,1,0,0,120,64,100,80
3508.0,60,1.0,63,1,0,0,120,64,100,80
3509.0,0,1.0,63,1,0,0,120,64,100,80
3510.0,60,1.0,63,1,0,0,120,64,100,80
3511.0,71,1.0,63,1,0,0,120,64,100,80
3512.0,64,1.0,63,1,0,0,120,64,100,80
3513.0,71,1.0,63,1,0,0,120,64,100,80
3514.0,60,1.0,63,1,0,0,120,64,100,80
3515.0,60,1.0,63,1,0,0,120,64,100,80
3516.0,62,1.0,63,1,0,0,120,64,100,80
3517.0,65,1.0,63,1,0,0,120,64,100,80
3518.0,62,1.0,63,1,0,0,120,64,100,80
3519.0,65,1.0,63,1,0,0,120,64,100,80
3520.0,65,1.0,63,1,0,0,120,64,100,80
3521.0,65,1.0,63,1,0,0,120,64,100,80
3522.0,62,1.0,63,1,0,0,120,64,100,80
3523.0,60,1.0,63,1,0,0,120,64,100,80
3524.0,60,1.0,63,1,0,0,120,64,100,80
3525.0,67,1.0,63,1,0,0,120,64,100,80
3526.0,67,1.0,63,1,0,0,120,64,100,80
3527.0,71,1.0,63,1,0,0,120,64,100,80
3528.0,60,1.0,63,1,0,0,120,64,100,80
3529.0,62,1.0,63,1,0,0,120,64,100,80
3530.0,62,1.0,63,1,0,0,120,64,100,80
3531.0,71,1.0,63,1,0,0,120,64,100,80
3532.0,60,1.0,63,1,0,0,120,64,100,80
3533.0,71,1.0,63,1,0,0,120,64,100,80
3534.0,69,1.0,63,1,0,0,120,64,100,80
3535.0,64,1.0,63,1,0,0,120,64,100,80
3536.0,64,1.0,63,1,0,0,120,64,100,80
3537.0,62,1.0,63,1,0,0,120,64,100,80
3538.0,69,1.0,63,1,0,0,120,64,100,80
3539.0,0,1.0,63,1,0,0,120,64,100,80
3540.0,60,1.0,63,1,0,0,120,64,100,80
3541.0,71,1.0,63,1,0,0,120,64,100,80
3542.0,67,1.0,63,1,0,0,120,64,100,80
3543.0,71,1.0,63,1,0,0,120,64,100,80
3544.0,60,1.0,63,1,0,0,120,64,100,80
3545.0,69,1.0,63,1,0,0,120,64,100,80
3546.0,62,1.0,63,1,0,0,120,64,100,80
3547.0,67,1.0,63,1,0,0,120,64,100,80
3548.0,65,1.0,63,1,0,0,120,64,100,80
3549.0,62,1.0,63,1,0,0,120,64,100,80
3550.0,60,1.0,63,1,0,0,120,64,100,80
3551.0,60,1.0,63,1,0,0,120,64,100,80
3552.0,64,1.0,63,1,0,0,120,64,100,80
3553.0,69,1.0,63,1,0,0,120,64,100,80
3554.0,60,1.0,63,1,0,0,120,64,100,80
3555.0,60,1.0,63,1,0,0,120,64,100,80
3556.0,64,1.0,63,1,0,0,120,64,100,80
3557.0,69,1.0,63,1,0,0,120,64,100,80
3558.0,60,1.0,63,1,0,0,120,64,100,80
3559.0,64,1.0,63,1,0,0,120,64,100,80
3560.0,0,1.0,63,1,0,0,120,64,100,80
3561.0,69,1.0,63,1,0,0,120,64,100,80
3562.0,64,1.0,63,1,0,0,120,64,100,80
3563.0,62,1.0,63,1,0,0,120,64,100,80
3564.0,64,1.0,63,1,0,0,120,64,100,80
3565.0,69,1.0,63,1,0,0,120,64,100,80
3566.0,64,1.0,63,1,0,0,120,64,100,80
3567.0,64,1.0,63,1,0,0,120,64,100,80
3568.0,65,1.0,63,1,0,0,120,64,100,80
3569.0,71,1.0,63,1,0,0,120,64,100,80
3570.0,62,1.0,63,1,0,0,120,64,100,80
3571.0,62,1.0,63,1,0,0,120,64,100,80
3572.0,69,1.0,63,1,0,0,120,64,100,80
3573.0,62,1.0,63,1,0,0,120,64,100,80
3574.0,62,1.0,63,1,0,0,120,64,100,80
3575.0,64,1.0,63,1,0,0,120,64,100,80
3576.0,0,1.0,63,1,0,0,120,64,100,80
3577.0,71,1.0,63,1,0,0,120,64,100,80
3578.0,64,1.0,63,1,0,0,120,64,100,80
3579.0,67,1.0,63,1,0,0,120,64,100,80
3580.0,64,1.0,63,1,0,0,120,64,100,80
3581.0,62,1.0,63,1,0,0,120,64,100,80
3582.0,60,1.0,63,1,0,0,120,64,100,80
3583.0,64,1.0,63,1,0,0,120,64,100,80
3584.0,64,1.0,63,1,0,0,120,64,100,80
3585.0,65,1.0,63,1,0,0,120,64,100,80
3586.0,0,1.0,63,1,0,0,120,64,100,80
3587.0,64,1.0,63,1,0,0,120,64,100,80
3588.0,67,1.0,63,1,0,0,120,64,100,80
3589.0,67,1.0,63,1,0,0,120,64,100,80
3590.0,64,1.0,63,1,0,0,120,64,100,80
3591.0,69,1.0,63,1,0,0,120,64,100,80
3592.0,71,1.0,63,1,0,0,120,64,100,80
3593.0,64,1.0,63,1,0,0,120,64,100,80
3594.0,60,1.0,63,1,0,0,120,64,100,80
3595.0,65,1.0,63,1,0,0,120,64,100,80
3596.0,71,1.0,63,1,0,0,120,64,100,80
3597.0,60,1.0,63,1,0,0,120,64,100,80
3598.0,71,1.0,63,1,0,0,120,64,100,80
3599.0,69,1.0,63,1,0,0,120,64,100,80
3600.0,60,1.0,63,1,0,0,120,64,100,80
3601.0,71,1.0,63,1,0,0,120,64,100,80
3602.0,60,1.0,63,1,0,0,120,64,100,80
3603.0,64,1.0,63,1,0,0,120,64,100,80
3604.0,64,1.0,63,1,0,0,120,64,100,80
3605.0,0,1.0,63,1,0,0,120,64,100,80
3606.0,65,1.0,63,1,0,0,120,64,100,80
3607.0,62,1.0,63,1,0,0,120,64,100,80
3608.0,65,1.0,63,1,0,0,120,64,100,80
3609.0,64,1.0,63,1,0,0,120,64,100,80
3610.0,64,1.0,63,1,0,0,120,64,100,80
3611.0,67,1.0,63,1,0,0,120,64,100,80
3612.0,0,1.0,63,1,0,0,120,64,100,80
3613.0,62,1.0,63,1,0,0,120,64,100,80
3614.0,60,1.0,63,1,0,0,120,64,100,80
3615.0,60,1.0,63,1,0,0,120,64,100,80
3616.0,65,1.0,63,1,0,0,120,64,100,80
3617.0,69,1.0,63,1,0,0,120,64,100,80
3618.0,65,1.0,63,1,0,0,120,64,100,80
3619.0,67,1.0,63,1,0,0,120,64,100,80
3620.0,64,1.0,63,1,0,0,120,64,100,80
3621.0,60,1.0,63,1,0,0,120,64,100,80
3622.0,67,1.0,63,1,0,0,120,64,100,80
3623.0,64,1.0,63,1,0,0,120,64,100,80
3624.0,69,1.0,63,1,0,0,120,64,100,80
3625.0,60,1.0,63,1,0,0,120,64,100,80
3626.0,60,1.0,63,1,0,0,120,64,100,80
3627.0,60,1.0,63,1,0,0,120,64,100,80
3628.0,64,1.0,63,1,0,0,120,64,100,80
3629.0,64,1.0,63,1,0,0,120,64,100,80
3630.0,62,1.0,63,1,0,0,120,64,100,80
3631.0,62,1.0,63,1,0,0,120,64,100,80
3632.0,67,1.0,63,1,0,0,120,64,100,80
3633.0,69,1.0,63,1,0,0,120,64,100,80
3634.0,62,1.0,63,1,0,0,120,64,100,80
3635.0,64,1.0,63,1,0,0,120,64,100,80
3636.0,0,1.0,63,1,0,0,120,64,100,80
3637.0,62,1.0,63,1,0,0,120,64,100,80
3638.0,64,1.0,63,1,0,0,120,64,100,80
3639.0,69,1.0,63,1,0,0,120,64,100,80
3640.0,69,1.0,63,1,0,0,120,64,100,80
3641.0,64,1.0,63,1,0,0,120,64,100,80
3642.0,62,1.0,63,1,0,0,120,64,100,80
3643.0,60,1.0,63,1,0,0,120,64,100,80
3644.0,60,1.0,63,1,0,0,120,64,100,80
3645.0,60,1.0,63,1,0,0,120,64,100,80
3646.0,0,1.0,63,1,0,0,120,64,100,80
3647.0,71,1.0,63,1,0,0,120,64,100,80
3648.0,71,1.0,63,1,0,0,120,64,100,80
3649.0,71,1.0,63,1,0,0,120,64,100,80
3650.0,64,1.0,63,1,0,0,120,64,100,80
3651.0,62,1.0,63,1,0,0,120,64,100,80
3652.0,64,1.0,63,1,0,0,120,64,100,80
3653.0,62,1.0,63,1,0,0,120,64,100,80
3654.0,0,1.0,63,1,0,0,120,64,100,80
3655.0,69,1.0,63,1,0,0,120,64,100,80
3656.0,67,1.0,63,1,0,0,120,64,100,80
3657.0,62,1.0,63,1,0,0,120,64,100,80
3658.0,69,1.0,63,1,0,0,120,64,100,80
3659.0,71,1.0,63,1,0,0,120,64,100,80
3660.0,64,1.0,63,1,0,0,120,64,100,80
3661.0,71,1.0,63,1,0,0,120,64,100,80
3662.0,60,1.0,63,1,0,0,120,64,100,80
3663.0,0,1.0,63,1,0,0,120,64,100,80
3664.0,71,1.0,63,1,0,0,120,64,100,80
3665.0,60,1.0,63,1,0,0,120,64,100,80
3666.0,60,1.0,63,1,0,0,120,64,100,80
3667.0,60,1.0,63,1,0,0,120,64,100,80
3668.0,62,1.0,63,1,0,0,120,64,100,80
3669.0,71,1.0,63,1,0,0,120,64,100,80
3670.0,60,1.0,63,1,0,0,120,64,100,80
3671.0,62,1.0,63,1,0,0,120,64,100,80
3672.0,64,1.0,63,1,0,0,120,64,100,80
3673.0,69,1.0,63,1,0,0,120,64,100,80
3674.0,60,1.0,63,1,0,0,120,64,100,80
3675.0,60,1.0,63,1,0,0,120,64,100,80
3676.0,71,1.0,63,1,0,0,120,64,100,80
3677.0,71,1.0,63,1,0,0,120,64,100,80
3678.0,64,1.0,63,1,0,0,120,64,100,80
3679.0,62,1.0,63,1,0,0,120,64,100,80
3680.0,67,1.0,63,1,0,0,120,64,100,80
3681.0,64,1.0,63,1,0,0,120,64,100,80
3682.0,71,1.0,63,1,0,0,120,64,100,80
3683.0,62,1.0,63,1,0,0,120,64,100,80
3684.0,62,1.0,63,1,0,0,120,64,100,80
3685.0,69,1.0,63,1,0,0,120,64,100,80
3686.0,62,1.0,63,1,0,0,120,64,100,80
3687.0,67,1.0,63,1,0,0,120,64,100,80
3688.0,67,1.0,63,1,0,0,120,64,100,80
3689.0,60,1.0,63,1,0,0,120,64,100,80
3690.0,69,1.0,63,1,0,0,120,64,100,80
3691.0,60,1.0,63,1,0,0,120,64,100,80
3692.0,62,1.0,63,1,0,0,120,64,100,80
3693.0,0,1.0,63,1,0,0,120,64,100,80
3694.0,64,1.0,63,1,0,0,120,64,100,80
3695.0,67,1.0,63,1,0,0,120,64,100,80
3696.0,67,1.0,63,1,0,0,120,64,100,80
3697.0,60,1.0,63,1,0,0,120,64,100,80
3698.0,64,1.0,63,1,0,0,120,64,100,80
3699.0,64,1.0,63,1,0,0,120,64,100,80
3700.0,65,1.0,63,1,0,0,120,64,100,80
3701.0,71,1.0,63,1,0,0,120,64,100,80
3702.0,60,1.0,63,1,0,0,120,64,100,80
3703.0,71,1.0,63,1,0,0,120,64,100,80
3704.0,60,1.0,63,1,0,0,120,64,100,80
3705.0,60,1.0,63,1,0,0,120,64,100,80
3706.0,69,1.0,63,1,0,0,120,64,100,80
3707.0,64,1.0,63,1,0,0,120,64,100,80
3708.0,60,1.0,63,1,0,0,120,64,100,80
3709.0,69,1.0,63,1,0,0,120,64,100,80
3710.0,60,1.0,63,1,0,0,120,64,100,80
3711.0,71,1.0,63,1,0,0,120,64,100,80
3712.0,69,1.0,63,1,0,0,120,64,100,80
3713.0,69,1.0,63,1,0,0,120,64,100,80
3714.0,62,1.0,63,1,0,0,120,64,100,80
3715.0,65,1.0,63,1,0,0,120,64,100,80
3716.0,64,1.0,63,1,0,0,120,64,100,80
3717.0,67,1.0,63,1,0,0,120,64,100,80
3718.0,60,1.0,63,1,0,0,120,64,100,80
3719.0,62,1.0,63,1,0,0,120,64,100,80
3720.0,69,1.0,63,1,0,0,120,64,100,80
3721.0,67,1.0,63,1,0,0,120,64,100,80
3722.0,62,1.0,63,1,0,0,120,64,100,80
3723.0,60,1.0,63,1,0,0,120,64,100,80
3724.0,62,1.0,63,1,0,0,120,64,100,80
3725.0,62,1.0,63,1,0,0,120,64,100,80
3726.0,62,1.0,63,1,0,0,120,64,100,80
3727.0,60,1.0,63,1,0,0,120,64,100,80
3728.0,60,1.0,63,1,0,0,120,64,100,80
3729.0,62,1.0,63,1,0,0,120,64,100,80
3730.0,60,1.0,63,1,0,0,120,64,100,80
3731.0,60,1.0,63,1,0,0,120,64,100,80
3732.0,62,1.0,63,1,0,0,120,64,100,80
3733.0,60,1.0,63,1,0,0,120,64,100,80
3734.0,65,1.0,63,1,0,0,120,64,100,80
3735.0,60,1.0,63,1,0,0,120,64,100,80
3736.0,64,1.0,63,1,0,0,120,64,100,80
3737.0,62,1.0,63,1,0,0,120,64,100,80
3738.0,67,1.0,63,1,0,0,120,64,100,80
3739.0,60,1.0,63,1,0,0,120,64,100,80
3740.0,62,1.0,63,1,0,0,120,64,100,80
3741.0,62,1.0,63,1,0,0,120,64,100,80
3742.0,60,1.0,63,1,0,0,120,64,100,80
3743.0,60,1.0,63,1,0,0,120,64,100,80
3744.0,65,1.0,63,1,0,0,120,64,100,80
3745.0,62,1.0,63,1,0,0,120,64,100,80
3746.0,60,1.0,63,1,0,0,120,64,100,80
3747.0,67,1.0,63,1,0,0,120,64,100,80
3748.0,62,1.0,63,1,0,0,120,64,100,80
3749.0,64,1.0,63,1,0,0,120,64,100,80
3750.0,62,1.0,63,1,0,0,120,64,100,80
3751.0,60,1.0,63,1,0,0,120,64,100,80
3752.0,62,1.0,63,1,0,0,120,64,100,80
3753.0,69,1.0,63,1,0,0,120,64,100,80
3754.0,62,1.0,63,1,0,0,120,64,100,80
3755.0,64,1.0,63,1,0,0,120,64,100,80
3756.0,60,1.0,63,1,0,0,120,64,100,80
3757.0,64,1.0,63,1,0,0,120,64,100,80
3758.0,62,1.0,63,1,0,0,120,64,100,80
3759.0,60,1.0,63,1,0,0,120,64,100,80
3760.0,64,1.0,63,1,0,0,120,64,100,80
3761.0,60,1.0,63,1,0,0,120,64,100,80
3762.0,67,1.0,63,1,0,0,120,64,100,80
3763.0,60,1.0,63,1,0,0,120,64,100,80
3764.0,64,1.0,63,1,0,0,120,64,100,80
3765.0,60,1.0,63,1,0,0,120,64,100,80
3766.0,64,1.0,63,1,0,0,120,64,100,80
3767.0,65,1.0,63,1,0,0,120,64,100,80
3768.0,60,1.0,63,1,0,0,120,64,100,80
3769.0,62,1.0,63,1,0,0,120,64,100,80
3770.0,65,1.0,63,1,0,0,120,64,100,80
3771.0,62,1.0,63,1,0,0,120,64,100,80
3772.0,67,1.0,63,1,0,0,120,64,100,80
3773.0,67,1.0,63,1,0,0,120,64,100,80
3774.0,60,1.0,63,1,0,0,120,64,100,80
3775.0,71,1.0,63,1,0,0,120,64,100,80
3776.0,64,1.0,63,1,0,0,120,64,100,80
3777.0,69,1.0,63,1,0,0,120,64,100,80
3778.0,69,1.0,63,1,0,0,120,64,100,80
3779.0,64,1.0,63,1,0,0,120,64,100,80
3780.0,69,1.0,63,1,0,0,120,64,100,80
3781.0,62,1.0,63,1,0,0,120,64,100,80
3782.0,69,1.0,63,1,0,0,120,64,100,80
3783.0,62,1.0,63,1,0,0,120,64,100,80
3784.0,62,1.0,63,1,0,0,120,64,100,80
3785.0,65,1.0,63,1,0,0,120,64,100,80
3786.0,62,1.0,63,1,0,0,120,64,100,80
3787.0,60,1.0,63,1,0,0,120,64,100,80
3788.0,62,1.0,63,1,0,0,120,64,100,80
3789.0,62,1.0,63,1,0,0,120,64,100,80
3790.0,69,1.0,63,1,0,0,120,64,100,80
3791.0,65,1.0,63,1,0,0,120,64,100,80
3792.0,69,1.0,63,1,0,0,120,64,100,80
3793.0,62,1.0,63,1,0,0,120,64,100,80
3794.0,69,1.0,63,1,0,0,120,64,100,80
3795.0,60,1.0,63,1,0,0,120,64,100,80
3796.0,65,1.0,63,1,0,0,120,64,100,80
3797.0,69,1.0,63,1,0,0,120,64,100,80
3798.0,62,1.0,63,1,0,0,120,64,100,80
3799.0,62,1.0,63,1,0,0,120,64,100,80
3800.0,69,1.0,63,1,0,0,120,64,100,80
3801.0,62,1.0,63,1,0,0,120,64,100,80
3802.0,62,1.0,63,1,0,0,120,64,100,80
3803.0,62,1.0,63,1,0,0,120,64,100,80
3804.0,60,1.0,63,1,0,0,120,64,100,80
3805.0,62,1.0,63,1,0,0,120,64,100,80
3806.0,64,1.0,63,1,0,0,120,64,100,80
3807.0,60,1.0,63,1,0,0,120,64,100,80
3808.0,62,1.0,63,1,0,0,120,64,100,80
3809.0,67,1.0,63,1,0,0,120,64,100,80
3810.0,64,1.0,63,1,0,0,120,64,100,80
3811.0,60,1.0,63,1,0,0,120,64,100,80
3812.0,64,1.0,63,1,0,0,120,64,100,80
3813.0,69,1.0,63,1,0,0,120,64,100,80
3814.0,62,1.0,63,1,0,0,120,64,100,80
3815.0,62,1.0,63,1,0,0,120,64,100,80
3816.0,65,1.0,63,1,0,0,120,64,100,80
3817.0,71,1.0,63,1,0,0,120,64,100,80
3818.0,64,1.0,63,1,0,0,120,64,100,80
3819.0,62,1.0,63,1,0,0,120,64,100,80
3820.0,60,1.0,63,1,0,0,120,64,100,80
3821.0,60,1.0,63,1,0,0,120,64,100,80
3822.0,60,1.0,63,1,0,0,120,64,100,80
3823.0,62,1.0,63,1,0,0,120,64,100,80
3824.0,71,1.0,63,1,0,0,120,64,100,80
3825.0,69,1.0,63,1,0,0,120,64,100,80
3826.0,69,1.0,63,1,0,0,120,64,100,80
3827.0,62,1.0,63,1,0,0,120,64,100,80
3828.0,62,1.0,63,1,0,0,120,64,100,80
3829.0,69,1.0,63,1,0,0,120,64,100,80
3830.0,67,1.0,63,1,0,0,120,64,100,80
3831.0,65,1.0,63,1,0,0,120,64,100,80
3832.0,64,1.0,63,1,0,0,120,64,100,80
3833.0,69,1.0,63,1,0,0,120,64,100,80
3834.0,67,1.0,63,1,0,0,120,64,100,80
3835.0,60,1.0,63,1,0,0,120,64,100,80
3836.0,62,1.0,63,1,0,0,120,64,100,80
3837.0,64,1.0,63,1,0,0,120,64,100,80
3838.0,60,1.0,63,1,0,0,120,64,100,80
3839.0,62,1.0,63,1,0,0,120,64,100,80
3840.0,69,1.0,63,1,0,0,120,64,100,80
3841.0,64,1.0,63,1,0,0,120,64,100,80
3842.0,67,1.0,63,1,0,0,120,64,100,80
3843.0,64,1.0,63,1,0,0,120,64,100,80
3844.0,0,1.0,63,1,0,0,120,64,100,80
3845.0,62,1.0,63,1,0,0,120,64,100,80
3846.0,69,1.0,63,1,0,0,120,64,100,80
3847.0,0,1.0,63,1,0,0,120,64,100,80
3848.0,62,1.0,63,1,0,0,120,64,100,80
3849.0,60,1.0,63,1,0,0,120,64,100,80
3850.0,69,1.0,63,1,0,0,120,64,100,80
3851.0,67,1.0,63,1,0,0,120,64,100,80
3852.0,64,1.0,63,1,0,0,120,64,100,80
3853.0,62,1.0,63,1,0,0,120,64,100,80
3854.0,62,1.0,63,1,0,0,120,64,100,80
3855.0,64,1.0,63,1,0,0,120,64,100,80
3856.0,60,1.0,63,1,0,0,120,64,100,80
3857.0,69,1.0,63,1,0,0,120,64,100,80
3858.0,71,1.0,63,1,0,0,120,64,100,80
3859.0,67,1.0,63,1,0,0,120,64,100,80
3860.0,62,1.0,63,1,0,0,120,64,100,80
3861.0,69,1.0,63,1,0,0,120,64,100,80
3862.0,60,1.0,63,1,0,0,120,64,100,80
3863.0,62,1.0,63,1,0,0,120,64,100,80
3864.0,67,1.0,63,1,0,0,120,64,100,80
3865.0,60,1.0,63,1,0,0,120,64,100,80
3866.0,60,1.0,63,1,0,0,120,64,100,80
3867.0,64,1.0,63,1,0,0,120,64,100,80
3868.0,60,1.0,63,1,0,0,120,64,100,80
3869.0,60,1.0,63,1,0,0,120,64,100,80
3870.0,64,1.0,63,1,0,0,120,64,100,80
3871.0,69,1.0,63,1,0,0,120,64,100,80
3872.0,60,1.0,63,1,0,0,120,64,100,80
3873.0,69,1.0,63,1,0,0,120,64,100,80
3874.0,60,1.0,63,1,0,0,120,64,100,80
3875.0,62,1.0,63,1,0,0,120,64,100,80
3876.0,67,1.0,63,1,0,0,120,64,100,80
3877.0,67,1.0,63,1,0,0,120,64,100,80
3878.0,69,1.0,63,1,0,0,120,64,100,80
3879.0,67,1.0,63,1,0,0,120,64,100,80
3880.0,69,1.0,63,1,0,0,120,64,100,80
3881.0,64,1.0,63,1,0,0,120,64,100,80
3882.0,65,1.0,63,1,0,0,120,64,100,80
3883.0,64,1.0,63,1,0,0,120,64,100,80
3884.0,64,1.0,63,1,0,0,120,64,100,80
3885.0,64,1.0,63,1,0,0,120,64,100,80
3886.0,60,1.0,63,1,0,0,120,64,100,80
3887.0,0,1.0,63,1,0,0,120,64,100,80
3888.0,64,1.0,63,1,0,0,120,64,100,80
3889.0,64,1.0,63,1,0,0,120,64,100,80
3890.0,62,1.0,63,1,0,0,120,64,100,80
3891.0,0,1.0,63,1,0,0,120,64,100,80
3892.0,64,1.0,63,1,0,0,120,64,100,80
3893.0,67,1.0,63,1,0,0,120,64,100,80
3894.0,0,1.0,63,1,0,0,120,64,100,80
3895.0,67,1.0,63,1,0,0,120,64,100,80
3896.0,64,1.0,63,1,0,0,120,64,100,80
3897.0,0,1.0,63,1,0,0,120,64,100,80
3898.0,0,1.0,63,1,0,0,120,64,100,80
3899.0,62,1.0,63,1,0,0,120,64,100,80
3900.0,67,1.0,63,1,0,0,120,64,100,80
3901.0,64,1.0,63,1,0,0,120,64,100,80
3902.0,67,1.0,63,1,0,0,120,64,100,80
3903.0,62,1.0,63,1,0,0,120,64,100,80
3904.0,69,1.0,63,1,0,0,120,64,100,80
3905.0,65,1.0,63,1,0,0,120,64,100,80
3906.0,67,1.0,63,1,0,0,120,64,100,80
3907.0,62,1.0,63,1,0,0,120,64,100,80
3908.0,60,1.0,63,1,0,0,120,64,100,80
3909.0,65,1.0,63,1,0,0,120,64,100,80
3910.0,62,1.0,63,1,0,0,120,64,100,80
3911.0,65,1.0,63,1,0,0,120,64,100,80
3912.0,60,1.0,63,1,0,0,120,64,100,80
3913.0,64,1.0,63,1,0,0,120,64,100,80
3914.0,64,1.0,63,1,0,0,120,64,100,80
3915.0,67,1.0,63,1,0,0,120,64,100,80
3916.0,64,1.0,63,1,0,0,120,64,100,80
3917.0,65,1.0,63,1,0,0,120,64,100,80
3918.0,71,1.0,63,1,0,0,120,64,100,80
3919.0,64,1.0,63,1,0,0,120,64,100,80
3920.0,62,1.0,63,1,0,0,120,64,100,80
3921.0,71,1.0,63,1,0,0,120,64,100,80
3922.0,60,1.0,63,1,0,0,120,64,100,80
3923.0,65,1.0,63,1,0,0,120,64,100,80
3924.0,65,1.0,63,1,0,0,120,64,100,80
3925.0,60,1.0,63,1,0,0,120,64,100,80
3926.0,60,1.0,63,1,0,0,120,64,100,80
3927.0,64,1.0,63,1,0,0,120,64,100,80
3928.0,67,1.0,63,1,0,0,120,64,100,80
3929.0,71,1.0,63,1,0,0,120,64,100,80
3930.0,60,1.0,63,1,0,0,120,64,100,80
3931.0,64,1.0,63,1,0,0,120,64,100,80
3932.0,62,1.0,63,1,0,0,120,64,100,80
3933.0,60,1.0,63,1,0,0,120,64,100,80
3934.0,65,1.0,63,1,0,0,120,64,100,80
3935.0,67,1.0,63,1,0,0,120,64,100,80
3936.0,60,1.0,63,1,0,0,120,64,100,80
3937.0,69,1.0,63,1,0,0,120,64,100,80
3938.0,69,1.0,63,1,0,0,120,64,100,80
3939.0,64,1.0,63,1,0,0,120,64,100,80
3940.0,67,1.0,63,1,0,0,120,64,100,80
3941.0,62,1.0,63,1,0,0,120,64,100,80
3942.0,0,1.0,63,1,0,0,120,64,100,80
3943.0,69,1.0,63,1,0,0,120,64,100,80
3944.0,64,1.0,63,1,0,0,120,64,100,80
3945.0,71,1.0,63,1,0,0,120,64,100,80
3946.0,60,1.0,63,1,0,0,120,64,100,80
3947.0,69,1.0,63,1,0,0,120,64,100,80
3948.0,62,1.0,63,1,0,0,120,64,100,80
3949.0,60,1.0,63,1,0,0,120,64,100,80
3950.0,69,1.0,63,1,0,0,120,64,100,80
3951.0,62,1.0,63,1,0,0,120,64,100,80
3952.0,69,1.0,63,1,0,0,120,64,100,80
3953.0,60,1.0,63,1,0,0,120,64,100,80
3954.0,60,1.0,63,1,0,0,120,64,100,80
3955.0,69,1.0,63,1,0,0,120,64,100,80
3956.0,69,1.0,63,1,0,0,120,64,100,80
3957.0,71,1.0,63,1,0,0,120,64,100,80
3958.0,60,1.0,63,1,0,0,120,64,100,80
3959.0,65,1.0,63,1,0,0,120,64,100,80
3960.0,65,1.0,63,1,0,0,120,64,100,80
3961.0,62,1.0,63,1,0,0,120,64,100,80
3962.0,69,1.0,63,1,0,0,120,64,100,80
3963.0,0,1.0,63,1,0,0,120,64,100,80
3964.0,71,1.0,63,1,0,0,120,64,100,80
3965.0,69,1.0,63,1,0,0,120,64,100,80
3966.0,60,1.0,63,1,0,0,120,64,100,80
3967.0,71,1.0,63,1,0,0,120,64,100,80
3968.0,62,1.0,63,1,0,0,120,64,100,80
3969.0,65,1.0,63,1,0,0,120,64,100,80
3970.0,62,1.0,63,1,0,0,120,64,100,80
3971.0,64,1.0,63,1,0,0,120,64,100,80
3972.0,0,1.0,63,1,0,0,120,64,100,80
3973.0,67,1.0,63,1,0,0,120,64,100,80
3974.0,62,1.0,63,1,0,0,120,64,100,80
3975.0,60,1.0,63,1,0,0,120,64,100,80
3976.0,71,1.0,63,1,0,0,120,64,100,80
3977.0,69,1.0,63,1,0,0,120,64,100,80
3978.0,60,1.0,63,1,0,0,120,64,100,80
3979.0,64,1.0,63,1,0,0,120,64,100,80
3980.0,60,1.0,63,1,0,0,120,64,100,80
3981.0,64,1.0,63,1,0,0,120,64,100,80
3982.0,69,1.0,63,1,0,0,120,64,100,80
3983.0,60,1.0,63,1,0,0,120,64,100,80
3984.0,0,1.0,63,1,0,0,120,64,100,80
3985.0,60,1.0,63,1,0,0,120,64,100,80
3986.0,65,1.0,63,1,0,0,120,64,100,80
3987.0,0,1.0,63,1,0,0,120,64,100,80
3988.0,64,1.0,63,1,0,0,120,64,100,80
3989.0,62,1.0,63,1,0,0,120,64,100,80
3990.0,62,1.0,63,1,0,0,120,64,100,80
3991.0,62,1.0,63,1,0,0,120,64,100,80
3992.0,71,1.0,63,1,0,0,120,64,100,80
3993.0,71,1.0,63,1,0,0,120,64,100,80
3994.0,62,1.0,63,1,0,0,120,64,100,80
3995.0,65,1.0,63,1,0,0,120,64,100,80
3996.0,65,1.0,63,1,0,0,120,64,100,80
3997.0,60,1.0,63,1,0,0,120,64,100,80
3998.0,62,1.0,63,1,0,0,120,64,100,80
3999.0,60,1.0,63,1,0,0,120,64,100,80
4000.0,62,1.0,63,1,0,0,120,64,100,80
4001.0,60,1.0,63,1,0,0,120,64,100,80
4002.0,69,1.0,63,1,0,0,120,64,100,80
4003.0,67,1.0,63,1,0,0,120,64,100,80
4004.0,60,1.0,63,1,0,0,120,64,100,80
4005.0,0,1.0,63,1,0,0,120,64,100,80
4006.0,71,1.0,63,1,0,0,120,64,100,80
4007.0,60,1.0,63,1,0,0,120,64,100,80
4008.0,62,1.0,63,1,0,0,120,64,100,80
4009.0,69,1.0,63,1,0,0,120,64,100,80
4010.0,64,1.0,63,1,0,0,120,64,100,80
4011.0,62,1.0,63,1,0,0,120,64,100,80
4012.0,62,1.0,63,1,0,0,120,64,100,80
4013.0,60,1.0,63,1,0,0,120,64,100,80
4014.0,67,1.0,63,1,0,0,120,64,100,80
4015.0,69,1.0,63,1,0,0,120,64,100,80
4016.0,64,1.0,63,1,0,0,120,64,100,80
4017.0,65,1.0,63,1,0,0,120,64,100,80
4018.0,71,1.0,63,1,0,0,120,64,100,80
4019.0,62,1.0,63,1,0,0,120,64,100,80
4020.0,65,1.0,63,1,0,0,120,64,100,80
4021.0,69,1.0,63,1,0,0,120,64,100,80
4022.0,62,1.0,63,1,0,0,120,64,100,80
4023.0,71,1.0,63,1,0,0,120,64,100,80
4024.0,65,1.0,63,1,0,0,120,64,100,80
4025.0,0,1.0,63,1,0,0,120,64,100,80
4026.0,60,1.0,63,1,0,0,120,64,100,80
4027.0,64,1.0,63,1,0,0,120,64,100,80
4028.0,60,1.0,63,1,0,0,120,64,100,80
4029.0,67,1.0,63,1,0,0,120,64,100,80
4030.0,62,1.0,63,1,0,0,120,64,100,80
4031.0,64,1.0,63,1,0,0,120,64,100,80
4032.0,69,1.0,63,1,0,0,120,64,100,80
4033.0,62,1.0,63,1,0,0,120,64,100,80
4034.0,62,1.0,63,1,0,0,120,64,100,80
4035.0,69,1.0,63,1,0,0,120,64,100,80
4036.0,0,1.0,63,1,0,0,120,64,100,80
4037.0,62,1.0,63,1,0,0,120,64,100,80
4038.0,0,1.0,63,1,0,0,120,64,100,80
4039.0,60,1.0,63,1,0,0,120,64,100,80
4040.0,62,1.0,63,1,0,0,120,64,100,80
4041.0,62,1.0,63,1,0,0,120,64,100,80
4042.0,71,1.0,63,1,0,0,120,64,100,80
4043.0,64,1.0,63,1,0,0,120,64,100,80
4044.0,62,1.0,63,1,0,0,120,64,100,80
4045.0,69,1.0,63,1,0,0,120,64,100,80
4046.0,67,1.0,63,1,0,0,120,64,100,80
4047.0,69,1.0,63,1,0,0,120,64,100,80
4048.0,60,1.0,63,1,0,0,120,64,100,80
4049.0,69,1.0,63,1,0,0,120,64,100,80
4050.0,69,1.0,63,1,0,0,120,64,100,80
4051.0,64,1.0,63,1,0,0,120,64,100,80
4052.0,67,1.0,63,1,0,0,120,64,100,80
4053.0,60,1.0,63,1,0,0,120,64,100,80
4054.0,62,1.0,63,1,0,0,120,64,100,80
4055.0,60,1.0,63,1,0,0,120,64,100,80
4056.0,62,1.0,63,1,0,0,120,64,100,80
4057.0,69,1.0,63,1,0,0,120,64,100,80
4058.0,67,1.0,63,1,0,0,120,64,100,80
4059.0,69,1.0,63,1,0,0,120,64,100,80
4060.0,60,1.0,63,1,0,0,120,64,100,80
4061.0,62,1.0,63,1,0,0,120,64,100,80
4062.0,64,1.0,63,1,0,0,120,64,100,80
4063.0,67,1.0,63,1,0,0,120,64,100,80
4064.0,69,1.0,63,1,0,0,120,64,100,80
4065.0,62,1.0,63,1,0,0,120,64,100,80
4066.0,65,1.0,63,1,0,0,120,64,100,80
4067.0,67,1.0,63,1,0,0,120,64,100,80
4068.0,62,1.0,63,1,0,0,120,64,100,80
4069.0,64,1.0,63,1,0,0,120,64,100,80
4070.0,64,1.0,63,1,0,0,120,64,100,80
4071.0,60,1.0,63,1,0,0,120,64,100,80
4072.0,62,1.0,63,1,0,0,120,64,100,80
4073.0,62,1.0,63,1,0,0,120,64,100,80
4074.0,65,1.0,63,1,0,0,120,64,100,80
4075.0,65,1.0,63,1,0,0,120,64,100,80
4076.0,69,1.0,63,1,0,0,120,64,100,80
4077.0,60,1.0,63,1,0,0,120,64,100,80
4078.0,67,1.0,63,1,0,0,120,64,100,80
4079.0,64,1.0,63,1,0,0,120,64,100,80
4080.0,64,1.0,63,1,0,0,120,64,100,80
4081.0,62,1.0,63,1,0,0,120,64,100,80
4082.0,69,1.0,63,1,0,0,120,64,100,80
4083.0,62,1.0,63,1,0,0,120,64,100,80
4084.0,64,1.0,63,1,0,0,120,64,100,80
4085.0,65,1.0,63,1,0,0,120,64,100,80
4086.0,60,1.0,63,1,0,0,120,64,100,80
4087.0,60,1.0,63,1,0,0,120,64,100,80
4088.0,69,1.0,63,1,0,0,120,64,100,80
4089.0,69,1.0,63,1,0,0,120,64,100,80
4090.0,60,1.0,63,1,0,0,120,64,100,80
4091.0,64,1.0,63,1,0,0,120,64,100,80
4092.0,64,1.0,63,1,0,0,120,64,100,80
4093.0,60,1.0,63,1,0,0,120,64,100,80
4094.0,64,1.0,63,1,0,0,120,64,100,80
4095.0,60,1.0,63,1,0,0,120,64,100,80
4096.0,62,1.0,63,1,0,0,120,64,100,80
4097.0,65,1.0,63,1,0,0,120,64,100,80
4098.0,67,1.0,63,1,0,0,120,64,100,80
4099.0,62,1.0,63,1,0,0,120,64,100,80
4100.0,64,1.0,63,1,0,0,120,64,100,80
4101.0,64,1.0,63,1,0,0,120,64,100,80
4102.0,60,1.0,63,1,0,0,120,64,100,80
4103.0,69,1.0,63,1,0,0,120,64,100,80
4104.0,60,1.0,63,1,0,0,120,64,100,80
4105.0,65,1.0,63,1,0,0,120,64,100,80
4106.0,69,1.0,63,1,0,0,120,64,100,80
4107.0,60,1.0,63,1,0,0,120,64,100,80
4108.0,60,1.0,63,1,0,0,120,64,100,80
4109.0,64,1.0,63,1,0,0,120,64,100,80
4110.0,60,1.0,63,1,0,0,120,64,100,80
4111.0,67,1.0,63,1,0,0,120,64,100,80
4112.0,60,1.0,63,1,0,0,120,64,100,80
4113.0,60,1.0,63,1,0,0,120,64,100,80
4114.0,64,1.0,63,1,0,0,120,64,100,80
4115.0,60,1.0,63,1,0,0,120,64,100,80
4116.0,65,1.0,63,1,0,0,120,64,100,80
4117.0,60,1.0,63,1,0,0,120,64,100,80
4118.0,60,1.0,63,1,0,0,120,64,100,80
4119.0,69,1.0,63,1,0,0,120,64,100,80
4120.0,67,1.0,63,1,0,0,120,64,100,80
4121.0,69,1.0,63,1,0,0,120,64,100,80
4122.0,62,1.0,63,1,0,0,120,64,100,80
4123.0,60,1.0,63,1,0,0,120,64,100,80
4124.0,60,1.0,63,1,0,0,120,64,100,80
4125.0,64,1.0,63,1,0,0,120,64,100,80
4126.0,65,1.0,63,1,0,0,120,64,100,80
4127.0,67,1.0,63,1,0,0,120,64,100,80
4128.0,60,1.0,63,1,0,0,120,64,100,80
4129.0,60,1.0,63,1,0,0,120,64,100,80
4130.0,60,1.0,63,1,0,0,120,64,100,80
4131.0,67,1.0,63,1,0,0,120,64,100,80
4132.0,67,1.0,63,1,0,0,120,64,100,80
4133.0,0,1.0,63,1,0,0,120,64,100,80
4134.0,62,1.0,63,1,0,0,120,64,100,80
4135.0,60,1.0,63,1,0,0,120,64,100,80
4136.0,60,1.0,63,1,0,0,120,64,100,80
4137.0,69,1.0,63,1,0,0,120,64,100,80
4138.0,62,1.0,63,1,0,0,120,64,100,80
4139.0,62,1.0,63,1,0,0,120,64,100,80
4140.0,60,1.0,63,1,0,0,120,64,100,80
4141.0,67,1.0,63,1,0,0,120,64,100,80
4142.0,60,1.0,63,1,0,0,120,64,100,80
4143.0,62,1.0,63,1,0,0,120,64,100,80
4144.0,64,1.0,63,1,0,0,120,64,100,80
4145.0,64,1.0,63,1,0,0,120,64,100,80
4146.0,65,1.0,63,1,0,0,120,64,100,80
4147.0,62,1.0,63,1,0,0,120,64,100,80
4148.0,60,1.0,63,1,0,0,120,64,100,80
4149.0,60,1.0,63,1,0,0,120,64,100,80
4150.0,67,1.0,63,1,0,0,120,64,100,80
4151.0,64,1.0,63,1,0,0,120,64,100,80
4152.0,62,1.0,63,1,0,0,120,64,100,80
4153.0,64,1.0,63,1,0,0,120,64,100,80
4154.0,62,1.0,63,1,0,0,120,64,100,80
4155.0,60,1.0,63,1,0,0,120,64,100,80
4156.0,0,1.0,63,1,0,0,120,64,100,80
4157.0,65,1.0,63,1,0,0,120,64,100,80
4158.0,65,1.0,63,1,0,0,120,64,100,80
4159.0,69,1.0,63,1,0,0,120,64,100,80
4160.0,69,1.0,63,1,0,0,120,64,100,80
4161.0,64,1.0,63,1,0,0,120,64,100,80
4162.0,60,1.0,63,1,0,0,120,64,100,80
4163.0,60,1.0,63,1,0,0,120,64,100,80
4164.0,60,1.0,63,1,0,0,120,64,100,80
4165.0,62,1.0,63,1,0,0,120,64,100,80
4166.0,69,1.0,63,1,0,0,120,64,100,80
4167.0,60,1.0,63,1,0,0,120,64,100,80
4168.0,69,1.0,63,1,0,0,120,64,100,80
4169.0,67,1.0,63,1,0,0,120,64,100,80
4170.0,67,1.0,63,1,0,0,120,64,100,80
4171.0,60,1.0,63,1,0,0,120,64,100,80
4172.0,0,1.0,63,1,0,0,120,64,100,80
4173.0,69,1.0,63,1,0,0,120,64,100,80
4174.0,64,1.0,63,1,0,0,120,64,100,80
4175.0,71,1.0,63,1,0,0,120,64,100,80
4176.0,60,1.0,63,1,0,0,120,64,100,80
4177.0,69,1.0,63,1,0,0,120,64,100,80
4178.0,62,1.0,63,1,0,0,120,64,100,80
4179.0,60,1.0,63,1,0,0,120,64,100,80
4180.0,69,1.0,63,1,0,0,120,64,100,80
4181.0,60,1.0,63,1,0,0,120,64,100,80
4182.0,69,1.0,63,1,0,0,120,64,100,80
4183.0,60,1.0,63,1,0,0,120,64,100,80
4184.0,60,1.0,63,1,0,0,120,64,100,80
4185.0,62,1.0,63,1,0,0,120,64,100,80
4186.0,69,1.0,63,1,0,0,120,64,100,80
4187.0,71,1.0,63,1,0,0,120,64,100,80
4188.0,60,1.0,63,1,0,0,120,64,100,80
4189.0,64,1.0,63,1,0,0,120,64,100,80
4190.0,65,1.0,63,1,0,0,120,64,100,80
4191.0,62,1.0,63,1,0,0,120,64,100,80
4192.0,69,1.0,63,1,0,0,120,64,100,80
4193.0,71,1.0,63,1,0,0,120,64,100,80
4194.0,71,1.0,63,1,0,0,120,64,100,80
4195.0,69,1.0,63,1,0,0,120,64,100,80
4196.0,60,1.0,63,1,0,0,120,64,100,80
4197.0,71,1.0,63,1,0,0,120,64,100,80
4198.0,62,1.0,63,1,0,0,120,64,100,80
4199.0,60,1.0,63,1,0,0,120,64,100,80
4200.0,62,1.0,63,1,0,0,120,64,100,80
4201.0,62,1.0,63,1,0,0,120,64,100,80
4202.0,64,1.0,63,1,0,0,120,64,100,80
4203.0,69,1.0,63,1,0,0,120,64,100,80
4204.0,67,1.0,63,1,0,0,120,64,100,80
4205.0,62,1.0,63,1,0,0,120,64,100,80
4206.0,65,1.0,63,1,0,0,120,64,100,80
4207.0,60,1.0,63,1,0,0,120,64,100,80
4208.0,60,1.0,63,1,0,0,120,64,100,80
4209.0,60,1.0,63,1,0,0,120,64,100,80
4210.0,60,1.0,63,1,0,0,120,64,100,80
4211.0,62,1.0,63,1,0,0,120,64,100,80
4212.0,60,1.0,63,1,0,0,120,64,100,80
4213.0,69,1.0,63,1,0,0,120,64,100,80
4214.0,64,1.0,63,1,0,0,120,64,100,80
4215.0,62,1.0,63,1,0,0,120,64,100,80
4216.0,60,1.0,63,1,0,0,120,64,100,80
4217.0,60,1.0,63,1,0,0,120,64,100,80
4218.0,69,1.0,63,1,0,0,120,64,100,80
4219.0,65,1.0,63,1,0,0,120,64,100,80
4220.0,67,1.0,63,1,0,0,120,64,100,80
4221.0,60,1.0,63,1,0,0,120,64,100,80
4222.0,69,1.0,63,1,0,0,120,64,100,80
4223.0,65,1.0,63,1,0,0,120,64,100,80
4224.0,60,1.0,63,1,0,0,120,64,100,80
4225.0,69,1.0,63,1,0,0,120,64,100,80
4226.0,67,1.0,63,1,0,0,120,64,100,80
4227.0,64,1.0,63,1,0,0,120,64,100,80
4228.0,60,1.0,63,1,0,0,120,64,100,80
4229.0,60,1.0,63,1,0,0,120,64,100,80
4230.0,62,1.0,63,1,0,0,120,64,100,80
4231.0,67,1.0,63,1,0,0,120,64,100,80
4232.0,60,1.0,63,1,0,0,120,64,100,80
4233.0,65,1.0,63,1,0,0,120,64,100,80
4234.0,0,1.0,63,1,0,0,120,64,100,80
4235.0,64,1.0,63,1,0,0,120,64,100,80
4236.0,71,1.0,63,1,0,0,120,64,100,80
4237.0,64,1.0,63,1,0,0,120,64,100,80
4238.0,60,1.0,63,1,0,0,120,64,100,80
4239.0,69,1.0,63,1,0,0,120,64,100,80
4240.0,71,1.0,63,1,0,0,120,64,100,80
4241.0,62,1.0,63,1,0,0,120,64,100,80
4242.0,62,1.0,63,1,0,0,120,64,100,80
4243.0,60,1.0,63,1,0,0,120,64,100,80
4244.0,62,1.0,63,1,0,0,120,64,100,80
4245.0,60,1.0,63,1,0,0,120,64,100,80
4246.0,62,1.0,63,1,0,0,120,64,100,80
4247.0,60,1.0,63,1,0,0,120,64,100,80
4248.0,60,1.0,63,1,0,0,120,64,100,80
4249.0,60,1.0,63,1,0,0,120,64,100,80
4250.0,64,1.0,63,1,0,0,120,64,100,80
4251.0,62,1.0,63,1,0,0,120,64,100,80
4252.0,64,1.0,63,1,0,0,120,64,100,80
4253.0,64,1.0,63,1,0,0,120,64,100,80
4254.0,60,1.0,63,1,0,0,120,64,100,80
4255.0,67,1.0,63,1,0,0,120,64,100,80
4256.0,67,1.0,63,1,0,0,120,64,100,80
4257.0,64,1.0,63,1,0,0,120,64,100,80
4258.0,69,1.0,63,1,0,0,120,64,100,80
4259.0,64,1.0,63,1,0,0,120,64,100,80
4260.0,69,1.0,63,1,0,0,120,64,100,80
4261.0,60,1.0,63,1,0,0,120,64,100,80
4262.0,62,1.0,63,1,0,0,120,64,100,80
4263.0,62,1.0,63,1,0,0,120,64,100,80
4264.0,62,1.0,63,1,0,0,120,64,100,80
4265.0,60,1.0,63,1,0,0,120,64,100,80
4266.0,60,1.0,63,1,0,0,120,64,100,80
4267.0,60,1.0,63,1,0,0,120,64,100,80
4268.0,64,1.0,63,1,0,0,120,64,100,80
4269.0,60,1.0,63,1,0,0,120,64,100,80
4270.0,65,1.0,63,1,0,0,120,64,100,80
4271.0,65,1.0,63,1,0,0,120,64,100,80
4272.0,60,1.0,63,1,0,0,120,64,100,80
4273.0,64,1.0,63,1,0,0,120,64,100,80
4274.0,69,1.0,63,1,0,0,120,64,100,80
4275.0,64,1.0,63,1,0,0,120,64,100,80
4276.0,67,1.0,63,1,0,0,120,64,100,80
4277.0,64,1.0,63,1,0,0,120,64,100,80
4278.0,62,1.0,63,1,0,0,120,64,100,80
4279.0,67,1.0,63,1,0,0,120,64,100,80
4280.0,69,1.0,63,1,0,0,120,64,100,80
4281.0,60,1.0,63,1,0,0,120,64,100,80
4282.0,60,1.0,63,1,0,0,120,64,100,80
4283.0,62,1.0,63,1,0,0,120,64,100,80
4284.0,62,1.0,63,1,0,0,120,64,100,80
4285.0,62,1.0,63,1,0,0,120,64,100,80
4286.0,60,1.0,63,1,0,0,120,64,100,80
4287.0,65,1.0,63,1,0,0,120,64,100,80
4288.0,60,1.0,63,1,0,0,120,64,100,80
4289.0,62,1.0,63,1,0,0,120,64,100,80
4290.0,60,1.0,63,1,0,0,120,64,100,80
4291.0,62,1.0,63,1,0,0,120,64,100,80
4292.0,60,1.0,63,1,0,0,120,64,100,80
4293.0,60,1.0,63,1,0,0,120,64,100,80
4294.0,60,1.0,63,1,0,0,120,64,100,80
4295.0,60,1.0,63,1,0,0,120,64,100,80
4296.0,62,1.0,63,1,0,0,120,64,100,80
4297.0,65,1.0,63,1,0,0,120,64,100,80
4298.0,60,1.0,63,1,0,0,120,64,100,80
4299.0,64,1.0,63,1,0,0,120,64,100,80
4300.0,62,1.0,63,1,0,0,120,64,100,80
4301.0,69,1.0,63,1,0,0,120,64,100,80
4302.0,60,1.0,63,1,0,0,120,64,100,80
4303.0,60,1.0,63,1,0,0,120,64,100,80
4304.0,62,1.0,63,1,0,0,120,64,100,80
4305.0,62,1.0,63,1,0,0,120,64,100,80
4306.0,60,1.0,63,1,0,0,120,64,100,80
4307.0,64,1.0,63,1,0,0,120,64,100,80
4308.0,60,1.0,63,1,0,0,120,64,100,80
4309.0,60,1.0,63,1,0,0,120,64,100,80
4310.0,60,1.0,63,1,0,0,120,64,100,80
4311.0,62,1.0,63,1,0,0,120,64,100,80
4312.0,64,1.0,63,1,0,0,120,64,100,80
4313.0,65,1.0,63,1,0,0,120,64,100,80
4314.0,0,1.0,63,1,0,0,120,64,100,80
4315.0,65,1.0,63,1,0,0,120,64,100,80
4316.0,62,1.0,63,1,0,0,120,64,100,80
4317.0,65,1.0,63,1,0,0,120,64,100,80
4318.0,60,1.0,63,1,0,0,120,64,100,80
4319.0,60,1.0,63,1,0,0,120,64,100,80
4320.0,60,1.0,63,1,0,0,120,64,100,80
4321.0,64,1.0,63,1,0,0,120,64,100,80
4322.0,0,1.0,63,1,0,0,120,64,100,80
4323.0,65,1.0,63,1,0,0,120,64,100,80
4324.0,62,1.0,63,1,0,0,120,64,100,80
4325.0,60,1.0,63,1,0,0,120,64,100,80
4326.0,65,1.0,63,1,0,0,120,64,100,80
4327.0,64,1.0,63,1,0,0,120,64,100,80
4328.0,65,1.0,63,1,0,0,120,64,100,80
4329.0,65,1.0,63,1,0,0,120,64,100,80
4330.0,60,1.0,63,1,0,0,120,64,100,80
4331.0,69,1.0,63,1,0,0,120,64,100,80
4332.0,0,1.0,63,1,0,0,120,64,100,80
4333.0,62,1.0,63,1,0,0,120,64,100,80
4334.0,69,1.0,63,1,0,0,120,64,100,80
4335.0,62,1.0,63,1,0,0,120,64,100,80
4336.0,0,1.0,63,1,0,0,120,64,100,80
4337.0,64,1.0,63,1,0,0,120,64,100,80
4338.0,67,1.0,63,1,0,0,120,64,100,80
4339.0,62,1.0,63,1,0,0,120,64,100,80
4340.0,62,1.0,63,1,0,0,120,64,100,80
4341.0,71,1.0,63,1,0,0,120,64,100,80
4342.0,67,1.0,63,1,0,0,120,64,100,80
4343.0,64,1.0,63,1,0,0,120,64,100,80
4344.0,64,1.0,63,1,0,0,120,64,100,80
4345.0,64,1.0,63,1,0,0,120,64,100,80
4346.0,67,1.0,63,1,0,0,120,64,100,80
4347.0,71,1.0,63,1,0,0,120,64,100,80
4348.0,65,1.0,63,1,0,0,120,64,100,80
4349.0,69,1.0,63,1,0,0,120,64,100,80
4350.0,67,1.0,63,1,0,0,120,64,100,80
4351.0,64,1.0,63,1,0,0,120,64,100,80
4352.0,64,1.0,63,1,0,0,120,64,100,80
4353.0,71,1.0,63,1,0,0,120,64,100,80
4354.0,62,1.0,63,1,0,0,120,64,100,80
4355.0,60,1.0,63,1,0,0,120,64,100,80
4356.0,69,1.0,63,1,0,0,120,64,100,80
4357.0,67,1.0,63,1,0,0,120,64,100,80
4358.0,64,1.0,63,1,0,0,120,64,100,80
4359.0,64,1.0,63,1,0,0,120,64,100,80
4360.0,65,1.0,63,1,0,0,120,64,100,80
4361.0,64,1.0,63,1,0,0,120,64,100,80
4362.0,60,1.0,63,1,0,0,120,64,100,80
4363.0,65,1.0,63,1,0,0,120,64,100,80
4364.0,64,1.0,63,1,0,0,120,64,100,80
4365.0,64,1.0,63,1,0,0,120,64,100,80
4366.0,67,1.0,63,1,0,0,120,64,100,80
4367.0,62,1.0,63,1,0,0,120,64,100,80
4368.0,64,1.0,63,1,0,0,120,64,100,80
4369.0,60,1.0,63,1,0,0,120,64,100,80
4370.0,64,1.0,63,1,0,0,120,64,100,80
4371.0,60,1.0,63,1,0,0,120,64,100,80
4372.0,60,1.0,63,1,0,0,120,64,100,80
4373.0,62,1.0,63,1,0,0,120,64,100,80
4374.0,71,1.0,63,1,0,0,120,64,100,80
4375.0,60,1.0,63,1,0,0,120,64,100,80
4376.0,69,1.0,63,1,0,0,120,64,100,80
4377.0,62,1.0,63,1,0,0,120,64,100,80
4378.0,69,1.0,63,1,0,0,120,64,100,80
4379.0,67,1.0,63,1,0,0,120,64,100,80
4380.0,60,1.0,63,1,0,0,120,64,100,80
4381.0,62,1.0,63,1,0,0,120,64,100,80
4382.0,69,1.0,63,1,0,0,120,64,100,80
4383.0,71,1.0,63,1,0,0,120,64,100,80
4384.0,64,1.0,63,1,0,0,120,64,100,80
4385.0,69,1.0,63,1,0,0,120,64,100,80
4386.0,67,1.0,63,1,0,0,120,64,100,80
4387.0,69,1.0,63,1,0,0,120,64,100,80
4388.0,62,1.0,63,1,0,0,120,64,100,80
4389.0,69,1.0,63,1,0,0,120,64,100,80
4390.0,60,1.0,63,1,0,0,120,64,100,80
4391.0,69,1.0,63,1,0,0,120,64,100,80
4392.0,62,1.0,63,1,0,0,120,64,100,80
4393.0,60,1.0,63,1,0,0,120,64,100,80
4394.0,64,1.0,63,1,0,0,120,64,100,80
4395.0,71,1.0,63,1,0,0,120,64,100,80
4396.0,65,1.0,63,1,0,0,120,64,100,80
4397.0,65,1.0,63,1,0,0,120,64,100,80
4398.0,64,1.0,63,1,0,0,120,64,100,80
4399.0,64,1.0,63,1,0,0,120,64,100,80
4400.0,64,1.0,63,1,0,0,120,64,100,80
4401.0,60,1.0,63,1,0,0,120,64,100,80
4402.0,60,1.0,63,1,0,0,120,64,100,80
4403.0,60,1.0,63,1,0,0,120,64,100,80
4404.0,62,1.0,63,1,0,0,120,64,100,80
4405.0,62,1.0,63,1,0,0,120,64,100,80
4406.0,60,1.0,63,1,0,0,120,64,100,80
4407.0,62,1.0,63,1,0,0,120,64,100,80
4408.0,64,1.0,63,1,0,0,120,64,100,80
4409.0,64,1.0,63,1,0,0,120,64,100,80
4410.0,64,1.0,63,1,0,0,120,64,100,80
4411.0,60,1.0,63,1,0,0,120,64,100,80
4412.0,64,1.0,63,1,0,0,120,64,100,80
4413.0,65,1.0,63,1,0,0,120,64,100,80
4414.0,65,1.0,63,1,0,0,120,64,100,80
4415.0,60,1.0,63,1,0,0,120,64,100,80
4416.0,65,1.0,63,1,0,0,120,64,100,80
4417.0,62,1.0,63,1,0,0,120,64,100,80
4418.0,60,1.0,63,1,0,0,120,64,100,80
4419.0,65,1.0,63,1,0,0,120,64,100,80
4420.0,65,1.0,63,1,0,0,120,64,100,80
4421.0,69,1.0,63,1,0,0,120,64,100,80
4422.0,69,1.0,63,1,0,0,120,64,100,80
4423.0,64,1.0,63,1,0,0,120,64,100,80
4424.0,67,1.0,63,1,0,0,120,64,100,80
4425.0,65,1.0,63,1,0,0,120,64,100,80
4426.0,60,1.0,63,1,0,0,120,64,100,80
4427.0,67,1.0,63,1,0,0,120,64,100,80
4428.0,60,1.0,63,1,0,0,120,64,100,80
4429.0,64,1.0,63,1,0,0,120,64,100,80
4430.0,62,1.0,63,1,0,0,120,64,100,80
4431.0,60,1.0,63,1,0,0,120,64,100,80
4432.0,60,1.0,63,1,0,0,120,64,100,80
4433.0,64,1.0,63,1,0,0,120,64,100,80
4434.0,60,1.0,63,1,0,0,120,64,100,80
4435.0,60,1.0,63,1,0,0,120,64,100,80
4436.0,60,1.0,63,1,0,0,120,64,100,80
4437.0,65,1.0,63,1,0,0,120,64,100,80
4438.0,60,1.0,63,1,0,0,120,64,100,80
4439.0,69,1.0,63,1,0,0,120,64,100,80
4440.0,69,1.0,63,1,0,0,120,64,100,80
4441.0,69,1.0,63,1,0,0,120,64,100,80
4442.0,62,1.0,63,1,0,0,120,64,100,80
4443.0,69,1.0,63,1,0,0,120,64,100,80
4444.0,65,1.0,63,1,0,0,120,64,100,80
4445.0,71,1.0,63,1,0,0,120,64,100,80
4446.0,69,1.0,63,1,0,0,120,64,100,80
4447.0,65,1.0,63,1,0,0,120,64,100,80
4448.0,65,1.0,63,1,0,0,120,64,100,80
4449.0,64,1.0,63,1,0,0,120,64,100,80
4450.0,69,1.0,63,1,0,0,120,64,100,80
4451.0,69,1.0,63,1,0,0,120,64,100,80
4452.0,64,1.0,63,1,0,0,120,64,100,80
4453.0,69,1.0,63,1,0,0,120,64,100,80
4454.0,69,1.0,63,1,0,0,120,64,100,80
4455.0,69,1.0,63,1,0,0,120,64,100,80
4456.0,69,1.0,63,1,0,0,120,64,100,80
4457.0,60,1.0,63,1,0,0,120,64,100,80
4458.0,71,1.0,63,1,0,0,120,64,100,80
4459.0,62,1.0,63,1,0,0,120,64,100,80
4460.0,60,1.0,63,1,0,0,120,64,100,80
4461.0,67,1.0,63,1,0,0,120,64,100,80
4462.0,65,1.0,63,1,0,0,120,64,100,80
4463.0,69,1.0,63,1,0,0,120,64,100,80
4464.0,69,1.0,63,1,0,0,120,64,100,80
4465.0,64,1.0,63,1,0,0,120,64,100,80
4466.0,62,1.0,63,1,0,0,120,64,100,80
4467.0,67,1.0,63,1,0,0,120,64,100,80
4468.0,67,1.0,63,1,0,0,120,64,100,80
4469.0,65,1.0,63,1,0,0,120,64,100,80
4470.0,60,1.0,63,1,0,0,120,64,100,80
4471.0,60,1.0,63,1,0,0,120,64,100,80
4472.0,62,1.0,63,1,0,0,120,64,100,80
4473.0,64,1.0,63,1,0,0,120,64,100,80
4474.0,60,1.0,63,1,0,0,120,64,100,80
4475.0,60,1.0,63,1,0,0,120,64,100,80
4476.0,64,1.0,63,1,0,0,120,64,100,80
4477.0,65,1.0,63,1,0,0,120,64,100,80
4478.0,60,1.0,63,1,0,0,120,64,100,80
4479.0,0,1.0,63,1,0,0,120,64,100,80
4480.0,64,1.0,63,1,0,0,120,64,100,80
4481.0,62,1.0,63,1,0,0,120,64,100,80
4482.0,60,1.0,63,1,0,0,120,64,100,80
4483.0,71,1.0,63,1,0,0,120,64,100,80
4484.0,62,1.0,63,1,0,0,120,64,100,80
4485.0,60,1.0,63,1,0,0,120,64,100,80
4486.0,60,1.0,63,1,0,0,120,64,100,80
4487.0,64,1.0,63,1,0,0,120,64,100,80
4488.0,67,1.0,63,1,0,0,120,64,100,80
4489.0,64,1.0,63,1,0,0,120,64,100,80
4490.0,62,1.0,63,1,0,0,120,64,100,80
4491.0,60,1.0,63,1,0,0,120,64,100,80
4492.0,64,1.0,63,1,0,0,120,64,100,80
4493.0,71,1.0,63,1,0,0,120,64,100,80
4494.0,60,1.0,63,1,0,0,120,64,100,80
4495.0,67,1.0,63,1,0,0,120,64,100,80
4496.0,71,1.0,63,1,0,0,120,64,100,80
4497.0,62,1.0,63,1,0,0,120,64,100,80
4498.0,60,1.0,63,1,0,0,120,64,100,80
4499.0,64,1.0,63,1,0,0,120,64,100,80
4500.0,62,1.0,63,1,0,0,120,64,100,80
4501.0,64,1.0,63,1,0,0,120,64,100,80
4502.0,62,1.0,63,1,0,0,120,64,100,80
4503.0,62,1.0,63,1,0,0,120,64,100,80
4504.0,60,1.0,63,1,0,0,120,64,100,80
4505.0,60,1.0,63,1,0,0,120,64,100,80
4506.0,69,1.0,63,1,0,0,120,64,100,80
4507.0,62,1.0,63,1,0,0,120,64,100,80
4508.0,62,1.0,63,1,0,0,120,64,100,80
4509.0,60,1.0,63,1,0,0,120,64,100,80
4510.0,62,1.0,63,1,0,0,120,64,100,80
4511.0,60,1.0,63,1,0,0,120,64,100,80
4512.0,60,1.0,63,1,0,0,120,64,100,80
4513.0,69,1.0,63,1,0,0,120,64,100,80
4514.0,64,1.0,63,1,0,0,120,64,100,80
4515.0,62,1.0,63,1,0,0,120,64,100,80
4516.0,69,1.0,63,1,0,0,120,64,100,80
4517.0,62,1.0,63,1,0,0,120,64,100,80
4518.0,60,1.0,63,1,0,0,120,64,100,80
4519.0,60,1.0,63,1,0,0,120,64,100,80
4520.0,60,1.0,63,1,0,0,120,64,100,80
4521.0,64,1.0,63,1,0,0,120,64,100,80
4522.0,64,1.0,63,1,0,0,120,64,100,80
4523.0,62,1.0,63,1,0,0,120,64,100,80
4524.0,71,1.0,63,1,0,0,120,64,100,80
4525.0,62,1.0,63,1,0,0,120,64,100,80
4526.0,60,1.0,63,1,0,0,120,64,100,80
4527.0,65,1.0,63,1,0,0,120,64,100,80
4528.0,60,1.0,63,1,0,0,120,64,100,80
4529.0,0,1.0,63,1,0,0,120,64,100,80
4530.0,62,1.0,63,1,0,0,120,64,100,80
4531.0,65,1.0,63,1,0,0,120,64,100,80
4532.0,62,1.0,63,1,0,0,120,64,100,80
4533.0,67,1.0,63,1,0,0,120,64,100,80
4534.0,62,1.0,63,1,0,0,120,64,100,80
4535.0,65,1.0,63,1,0,0,120,64,100,80
4536.0,60,1.0,63,1,0,0,120,64,100,80
4537.0,62,1.0,63,1,0,0,120,64,100,80
4538.0,64,1.0,63,1,0,0,120,64,100,80
4539.0,69,1.0,63,1,0,0,120,64,100,80
4540.0,0,1.0,63,1,0,0,120,64,100,80
4541.0,62,1.0,63,1,0,0,120,64,100,80
4542.0,62,1.0,63,1,0,0,120,64,100,80
4543.0,64,1.0,63,1,0,0,120,64,100,80
4544.0,69,1.0,63,1,0,0,120,64,100,80
4545.0,60,1.0,63,1,0,0,120,64,100,80
4546.0,69,1.0,63,1,0,0,120,64,100,80
4547.0,64,1.0,63,1,0,0,120,64,100,80
4548.0,60,1.0,63,1,0,0,120,64,100,80
4549.0,71,1.0,63,1,0,0,120,64,100,80
4550.0,62,1.0,63,1,0,0,120,64,100,80
4551.0,64,1.0,63,1,0,0,120,64,100,80
4552.0,67,1.0,63,1,0,0,120,64,100,80
4553.0,62,1.0,63,1,0,0,120,64,100,80
4554.0,60,1.0,63,1,0,0,120,64,100,80
4555.0,0,1.0,63,1,0,0,120,64,100,80
4556.0,62,1.0,63,1,0,0,120,64,100,80
4557.0,64,1.0,63,1,0,0,120,64,100,80
4558.0,64,1.0,63,1,0,0,120,64,100,80
4559.0,62,1.0,63,1,0,0,120,64,100,80
4560.0,64,1.0,63,1,0,0,120,64,100,80
4561.0,69,1.0,63,1,0,0,120,64,100,80
4562.0,71,1.0,63,1,0,0,120,64,100,80
4563.0,62,1.0,63,1,0,0,120,64,100,80
4564.0,64,1.0,63,1,0,0,120,64,100,80
4565.0,60,1.0,63,1,0,0,120,64,100,80
4566.0,69,1.0,63,1,0,0,120,64,100,80
4567.0,69,1.0,63,1,0,0,120,64,100,80
4568.0,65,1.0,63,1,0,0,120,64,100,80
4569.0,69,1.0,63,1,0,0,120,64,100,80
4570.0,62,1.0,63,1,0,0,120,64,100,80
4571.0,62,1.0,63,1,0,0,120,64,100,80
4572.0,62,1.0,63,1,0,0,120,64,100,80
4573.0,64,1.0,63,1,0,0,120,64,100,80
4574.0,60,1.0,63,1,0,0,120,64,100,80
4575.0,60,1.0,63,1,0,0,120,64,100,80
4576.0,64,1.0,63,1,0,0,120,64,100,80
4577.0,64,1.0,63,1,0,0,120,64,100,80
4578.0,71,1.0,63,1,0,0,120,64,100,80
4579.0,71,1.0,63,1,0,0,120,64,100,80
4580.0,67,1.0,63,1,0,0,120,64,100,80
4581.0,69,1.0,63,1,0,0,120,64,100,80
4582.0,60,1.0,63,1,0,0,120,64,100,80
4583.0,60,1.0,63,1,0,0,120,64,100,80
4584.0,64,1.0,63,1,0,0,120,64,100,80
4585.0,60,1.0,63,1,0,0,120,64,100,80
4586.0,69,1.0,63,1,0,0,120,64,100,80
4587.0,64,1.0,63,1,0,0,120,64,100,80
4588.0,62,1.0,63,1,0,0,120,64,100,80
4589.0,60,1.0,63,1,0,0,120,64,100,80
4590.0,60,1.0,63,1,0,0,120,64,100,80
4591.0,62,1.0,63,1,0,0,120,64,100,80
4592.0,62,1.0,63,1,0,0,120,64,100,80
4593.0,67,1.0,63,1,0,0,120,64,100,80
4594.0,64,1.0,63,1,0,0,120,64,100,80
4595.0,60,1.0,63,1,0,0,120,64,100,80
4596.0,64,1.0,63,1,0,0,120,64,100,80
4597.0,64,1.0,63,1,0,0,120,64,100,80
4598.0,62,1.0,63,1,0,0,120,64,100,80
4599.0,60,1.0,63,1,0,0,120,64,100,80
4600.0,67,1.0,63,1,0,0,120,64,100,80
4601.0,62,1.0,63,1,0,0,120,64,100,80
4602.0,71,1.0,63,1,0,0,120,64,100,80
4603.0,69,1.0,63,1,0,0,120,64,100,80
4604.0,60,1.0,63,1,0,0,120,64,100,80
4605.0,60,1.0,63,1,0,0,120,64,100,80
4606.0,0,1.0,63,1,0,0,120,64,100,80
4607.0,64,1.0,63,1,0,0,120,64,100,80
4608.0,60,1.0,63,1,0,0,120,64,100,80
4609.0,64,1.0,63,1,0,0,120,64,100,80
4610.0,60,1.0,63,1,0,0,120,64,100,80
4611.0,62,1.0,63,1,0,0,120,64,100,80
4612.0,60,1.0,63,1,0,0,120,64,100,80
4613.0,64,1.0,63,1,0,0,120,64,100,80
4614.0,69,1.0,63,1,0,0,120,64,100,80
4615.0,64,1.0,63,1,0,0,120,64,100,80
4616.0,69,1.0,63,1,0,0,120,64,100,80
4617.0,69,1.0,63,1,0,0,120,64,100,80
4618.0,60,1.0,63,1,0,0,120,64,100,80
4619.0,65,1.0,63,1,0,0,120,64,100,80
4620.0,60,1.0,63,1,0,0,120,64,100,80
4621.0,0,1.0,63,1,0,0,120,64,100,80
4622.0,62,1.0,63,1,0,0,120,64,100,80
4623.0,64,1.0,63,1,0,0,120,64,100,80
4624.0,69,1.0,63,1,0,0,120,64,100,80
4625.0,64,1.0,63,1,0,0,120,64,100,80
4626.0,65,1.0,63,1,0,0,120,64,100,80
4627.0,69,1.0,63,1,0,0,120,64,100,80
4628.0,69,1.0,63,1,0,0,120,64,100,80
4629.0,65,1.0,63,1,0,0,120,64,100,80
4630.0,60,1.0,63,1,0,0,120,64,100,80
4631.0,64,1.0,63,1,0,0,120,64,100,80
4632.0,64,1.0,63,1,0,0,120,64,100,80
4633.0,60,1.0,63,1,0,0,120,64,100,80
4634.0,64,1.0,63,1,0,0,120,64,100,80
4635.0,65,1.0,63,1,0,0,120,64,100,80
4636.0,60,1.0,63,1,0,0,120,64,100,80
4637.0,60,1.0,63,1,0,0,120,64,100,80
4638.0,62,1.0,63,1,0,0,120,64,100,80
4639.0,64,1.0,63,1,0,0,120,64,100,80
4640.0,60,1.0,63,1,0,0,120,64,100,80
4641.0,60,1.0,63,1,0,0,120,64,100,80
4642.0,60,1.0,63,1,0,0,120,64,100,80
4643.0,64,1.0,63,1,0,0,120,64,100,80
4644.0,60,1.0,63,1,0,0,120,64,100,80
4645.0,60,1.0,63,1,0,0,120,64,100,80
4646.0,60,1.0,63,1,0,0,120,64,100,80
4647.0,62,1.0,63,1,0,0,120,64,100,80
4648.0,62,1.0,63,1,0,0,120,64,100,80
4649.0,64,1.0,63,1,0,0,120,64,100,80
4650.0,65,1.0,63,1,0,0,120,64,100,80
4651.0,64,1.0,63,1,0,0,120,64,100,80
4652.0,60,1.0,63,1,0,0,120,64,100,80
4653.0,64,1.0,63,1,0,0,120,64,100,80
4654.0,62,1.0,63,1,0,0,120,64,100,80
4655.0,69,1.0,63,1,0,0,120,64,100,80
4656.0,64,1.0,63,1,0,0,120,64,100,80
4657.0,62,1.0,63,1,0,0,120,64,100,80
4658.0,69,1.0,63,1,0,0,120,64,100,80
4659.0,60,1.0,63,1,0,0,120,64,100,80
4660.0,60,1.0,63,1,0,0,120,64,100,80
4661.0,65,1.0,63,1,0,0,120,64,100,80
4662.0,62,1.0,63,1,0,0,120,64,100,80
4663.0,67,1.0,63,1,0,0,120,64,100,80
4664.0,64,1.0,63,1,0,0,120,64,100,80
4665.0,60,1.0,63,1,0,0,120,64,100,80
4666.0,60,1.0,63,1,0,0,120,64,100,80
4667.0,62,1.0,63,1,0,0,120,64,100,80
4668.0,62,1.0,63,1,0,0,120,64,100,80
4669.0,60,1.0,63,1,0,0,120,64,100,80
4670.0,69,1.0,63,1,0,0,120,64,100,80
4671.0,67,1.0,63,1,0,0,120,64,100,80
4672.0,60,1.0,63,1,0,0,120,64,100,80
4673.0,64,1.0,63,1,0,0,120,64,100,80
4674.0,60,1.0,63,1,0,0,120,64,100,80
4675.0,67,1.0,63,1,0,0,120,64,100,80
4676.0,60,1.0,63,1,0,0,120,64,100,80
4677.0,60,1.0,63,1,0,0,120,64,100,80
4678.0,60,1.0,63,1,0,0,120,64,100,80
4679.0,60,1.0,63,1,0,0,120,64,100,80
4680.0,64,1.0,63,1,0,0,120,64,100,80
4681.0,60,1.0,63,1,0,0,120,64,100,80
4682.0,60,1.0,63,1,0,0,120,64,100,80
4683.0,64,1.0,63,1,0,0,120,64,100,80
4684.0,71,1.0,63,1,0,0,120,64,100,80
4685.0,60,1.0,63,1,0,0,120,64,100,80
4686.0,62,1.0,63,1,0,0,120,64,100,80
4687.0,62,1.0,63,1,0,0,120,64,100,80
4688.0,0,1.0,63,1,0,0,120,64,100,80
4689.0,62,1.0,63,1,0,0,120,64,100,80
4690.0,62,1.0,63,1,0,0,120,64,100,80
4691.0,62,1.0,63,1,0,0,120,64,100,80
4692.0,60,1.0,63,1,0,0,120,64,100,80
4693.0,67,1.0,63,1,0,0,120,64,100,80
4694.0,65,1.0,63,1,0,0,120,64,100,80
4695.0,62,1.0,63,1,0,0,120,64,100,80
4696.0,60,1.0,63,1,0,0,120,64,100,80
4697.0,64,1.0,63,1,0,0,120,64,100,80
4698.0,67,1.0,63,1,0,0,120,64,100,80
4699.0,71,1.0,63,1,0,0,120,64,100,80
4700.0,60,1.0,63,1,0,0,120,64,100,80
4701.0,69,1.0,63,1,0,0,120,64,100,80
4702.0,69,1.0,63,1,0,0,120,64,100,80
4703.0,62,1.0,63,1,0,0,120,64,100,80
4704.0,65,1.0,63,1,0,0,120,64,100,80
4705.0,65,1.0,63,1,0,0,120,64,100,80
4706.0,60,1.0,63,1,0,0,120,64,100,80
4707.0,64,1.0,63,1,0,0,120,64,100,80
4708.0,65,1.0,63,1,0,0,120,64,100,80
4709.0,67,1.0,63,1,0,0,120,64,100,80
4710.0,60,1.0,63,1,0,0,120,64,100,80
4711.0,69,1.0,63,1,0,0,120,64,100,80
4712.0,62,1.0,63,1,0,0,120,64,100,80
4713.0,64,1.0,63,1,0,0,120,64,100,80
4714.0,67,1.0,63,1,0,0,120,64,100,80
4715.0,65,1.0,63,1,0,0,120,64,100,80
4716.0,62,1.0,63,1,0,0,120,64,100,80
4717.0,64,1.0,63,1,0,0,120,64,100,80
4718.0,71,1.0,63,1,0,0,120,64,100,80
4719.0,67,1.0,63,1,0,0,120,64,100,80
4720.0,62,1.0,63,1,0,0,120,64,100,80
4721.0,64,1.0,63,1,0,0,120,64,100,80
4722.0,65,1.0,63,1,0,0,120,64,100,80
4723.0,60,1.0,63,1,0,0,120,64,100,80
4724.0,60,1.0,63,1,0,0,120,64,100,80
4725.0,60,1.0,63,1,0,0,120,64,100,80
4726.0,69,1.0,63,1,0,0,120,64,100,80
4727.0,69,1.0,63,1,0,0,120,64,100,80
4728.0,60,1.0,63,1,0,0,120,64,100,80
4729.0,60,1.0,63,1,0,0,120,64,100,80
4730.0,67,1.0,63,1,0,0,120,64,100,80
4731.0,60,1.0,63,1,0,0,120,64,100,80
4732.0,69,1.0,63,1,0,0,120,64,100,80
4733.0,64,1.0,63,1,0,0,120,64,100,80
4734.0,65,1.0,63,1,0,0,120,64,100,80
4735.0,60,1.0,63,1,0,0,120,64,100,80
4736.0,0,1.0,63,1,0,0,120,64,100,80
4737.0,64,1.0,63,1,0,0,120,64,100,80
4738.0,69,1.0,63,1,0,0,120,64,100,80
4739.0,67,1.0,63,1,0,0,120,64,100,80
4740.0,62,1.0,63,1,0,0,120,64,100,80
4741.0,62,1.0,63,1,0,0,120,64,100,80
4742.0,64,1.0,63,1,0,0,120,64,100,80
4743.0,64,1.0,63,1,0,0,120,64,100,80
4744.0,69,1.0,63,1,0,0,120,64,100,80
4745.0,65,1.0,63,1,0,0,120,64,100,80
4746.0,62,1.0,63,1,0,0,120,64,100,80
4747.0,64,1.0,63,1,0,0,120,64,100,80
4748.0,71,1.0,63,1,0,0,120,64,100,80
4749.0,69,1.0,63,1,0,0,120,64,100,80
4750.0,67,1.0,63,1,0,0,120,64,100,80
4751.0,64,1.0,63,1,0,0,120,64,100,80
4752.0,62,1.0,63,1,0,0,120,64,100,80
4753.0,67,1.0,63,1,0,0,120,64,100,80
4754.0,60,1.0,63,1,0,0,120,64,100,80
4755.0,71,1.0,63,1,0,0,120,64,100,80
4756.0,64,1.0,63,1,0,0,120,64,100,80
4757.0,71,1.0,63,1,0,0,120,64,100,80
4758.0,60,1.0,63,1,0,0,120,64,100,80
4759.0,65,1.0,63,1,0,0,120,64,100,80
4760.0,65,1.0,63,1,0,0,120,64,100,80
4761.0,60,1.0,63,1,0,0,120,64,100,80
4762.0,62,1.0,63,1,0,0,120,64,100,80
4763.0,62,1.0,63,1,0,0,120,64,100,80
4764.0,62,1.0,63,1,0,0,120,64,100,80
4765.0,60,1.0,63,1,0,0,120,64,100,80
4766.0,64,1.0,63,1,0,0,120,64,100,80
4767.0,71,1.0,63,1,0,0,120,64,100,80
4768.0,62,1.0,63,1,0,0,120,64,100,80
4769.0,60,1.0,63,1,0,0,120,64,100,80
4770.0,71,1.0,63,1,0,0,120,64,100,80
4771.0,62,1.0,63,1,0,0,120,64,100,80
4772.0,64,1.0,63,1,0,0,120,64,100,80
4773.0,60,1.0,63,1,0,0,120,64,100,80
4774.0,69,1.0,63,1,0,0,120,64,100,80
4775.0,64,1.0,63,1,0,0,120,64,100,80
4776.0,60,1.0,63,1,0,0,120,64,100,80
4777.0,60,1.0,63,1,0,0,120,64,100,80
4778.0,60,1.0,63,1,0,0,120,64,100,80
4779.0,62,1.0,63,1,0,0,120,64,100,80
4780.0,67,1.0,63,1,0,0,120,64,100,80
4781.0,69,1.0,63,1,0,0,120,64,100,80
4782.0,62,1.0,63,1,0,0,120,64,100,80
4783.0,60,1.0,63,1,0,0,120,64,100,80
4784.0,60,1.0,63,1,0,0,120,64,100,80
4785.0,69,1.0,63,1,0,0,120,64,100,80
4786.0,60,1.0,63,1,0,0,120,64,100,80
4787.0,67,1.0,63,1,0,0,120,64,100,80
4788.0,69,1.0,63,1,0,0,120,64,100,80
4789.0,60,1.0,63,1,0,0,120,64,100,80
4790.0,69,1.0,63,1,0,0,120,64,100,80
4791.0,62,1.0,63,1,0,0,120,64,100,80
4792.0,64,1.0,63,1,0,0,120,64,100,80
4793.0,60,1.0,63,1,0,0,120,64,100,80
4794.0,64,1.0,63,1,0,0,120,64,100,80
4795.0,60,1.0,63,1,0,0,120,64,100,80
4796.0,60,1.0,63,1,0,0,120,64,100,80
4797.0,60,1.0,63,1,0,0,120,64,100,80
4798.0,60,1.0,63,1,0,0,120,64,100,80
4799.0,60,1.0,63,1,0,0,120,64,100,80
4800.0,62,1.0,63,1,0,0,120,64,100,80
4801.0,67,1.0,63,1,0,0,120,64,100,80
4802.0,60,1.0,63,1,0,0,120,64,100,80
4803.0,62,1.0,63,1,0,0,120,64,100,80
4804.0,67,1.0,63,1,0,0,120,64,100,80
4805.0,60,1.0,63,1,0,0,120,64,100,80
4806.0,65,1.0,63,1,0,0,120,64,100,80
4807.0,60,1.0,63,1,0,0,120,64,100,80
4808.0,60,1.0,63,1,0,0,120,64,100,80
4809.0,64,1.0,63,1,0,0,120,64,100,80
4810.0,62,1.0,63,1,0,0,120,64,100,80
4811.0,64,1.0,63,1,0,0,120,64,100,80
4812.0,64,1.0,63,1,0,0,120,64,100,80
4813.0,64,1.0,63,1,0,0,120,64,100,80
4814.0,67,1.0,63,1,0,0,120,64,100,80
4815.0,0,1.0,63,1,0,0,120,64,100,80
4816.0,69,1.0,63,1,0,0,120,64,100,80
4817.0,62,1.0,63,1,0,0,120,64,100,80
4818.0,60,1.0,63,1,0,0,120,64,100,80
4819.0,60,1.0,63,1,0,0,120,64,100,80
4820.0,65,1.0,63,1,0,0,120,64,100,80
4821.0,69,1.0,63,1,0,0,120,64,100,80
4822.0,64,1.0,63,1,0,0,120,64,100,80
4823.0,62,1.0,63,1,0,0,120,64,100,80
4824.0,69,1.0,63,1,0,0,120,64,100,80
4825.0,64,1.0,63,1,0,0,120,64,100,80
4826.0,60,1.0,63,1,0,0,120,64,100,80
4827.0,71,1.0,63,1,0,0,120,64,100,80
4828.0,0,1.0,63,1,0,0,120,64,100,80
4829.0,60,1.0,63,1,0,0,120,64,100,80
4830.0,64,1.0,63,1,0,0,120,64,100,80
4831.0,71,1.0,63,1,0,0,120,64,100,80
4832.0,69,1.0,63,1,0,0,120,64,100,80
4833.0,64,1.0,63,1,0,0,120,64,100,80
4834.0,60,1.0,63,1,0,0,120,64,100,80
4835.0,65,1.0,63,1,0,0,120,64,100,80
4836.0,60,1.0,63,1,0,0,120,64,100,80
4837.0,67,1.0,63,1,0,0,120,64,100,80
4838.0,60,1.0,63,1,0,0,120,64,100,80
4839.0,62,1.0,63,1,0,0,120,64,100,80
4840.0,60,1.0,63,1,0,0,120,64,100,80
4841.0,64,1.0,63,1,0,0,120,64,100,80
4842.0,60,1.0,63,1,0,0,120,64,100,80
4843.0,62,1.0,63,1,0,0,120,64,100,80
4844.0,60,1.0,63,1,0,0,120,64,100,80
4845.0,62,1.0,63,1,0,0,120,64,100,80
4846.0,64,1.0,63,1,0,0,120,64,100,80
4847.0,60,1.0,63,1,0,0,120,64,100,80
4848.0,65,1.0,63,1,0,0,120,64,100,80
4849.0,60,1.0,63,1,0,0,120,64,100,80
4850.0,69,1.0,63,1,0,0,120,64,100,80
4851.0,60,1.0,63,1,0,0,120,64,100,80
4852.0,60,1.0,63,1,0,0,120,64,100,80
4853.0,64,1.0,63,1,0,0,120,64,100,80
4854.0,60,1.0,63,1,0,0,120,64,100,80
4855.0,60,1.0,63,1,0,0,120,64,100,80
4856.0,69,1.0,63,1,0,0,120,64,100,80
4857.0,64,1.0,63,1,0,0,120,64,100,80
4858.0,0,1.0,63,1,0,0,120,64,100,80
4859.0,69,1.0,63,1,0,0,120,64,100,80
4860.0,60,1.0,63,1,0,0,120,64,100,80
4861.0,62,1.0,63,1,0,0,120,64,100,80
4862.0,67,1.0,63,1,0,0,120,64,100,80
4863.0,60,1.0,63,1,0,0,120,64,100,80
4864.0,60,1.0,63,1,0,0,120,64,100,80
4865.0,64,1.0,63,1,0,0,120,64,100,80
4866.0,60,1.0,63,1,0,0,120,64,100,80
4867.0,62,1.0,63,1,0,0,120,64,100,80
4868.0,69,1.0,63,1,0,0,120,64,100,80
4869.0,69,1.0,63,1,0,0,120,64,100,80
4870.0,60,1.0,63,1,0,0,120,64,100,80
4871.0,71,1.0,63,1,0,0,120,64,100,80
4872.0,67,1.0,63,1,0,0,120,64,100,80
4873.0,69,1.0,63,1,0,0,120,64,100,80
4874.0,60,1.0,63,1,0,0,120,64,100,80
4875.0,64,1.0,63,1,0,0,120,64,100,80
4876.0,60,1.0,63,1,0,0,120,64,100,80
4877.0,60,1.0,63,1,0,0,120,64,100,80
4878.0,71,1.0,63,1,0,0,120,64,100,80
4879.0,69,1.0,63,1,0,0,120,64,100,80
4880.0,64,1.0,63,1,0,0,120,64,100,80
4881.0,67,1.0,63,1,0,0,120,64,100,80
4882.0,60,1.0,63,1,0,0,120,64,100,80
4883.0,67,1.0,63,1,0,0,120,64,100,80
4884.0,69,1.0,63,1,0,0,120,64,100,80
4885.0,60,1.0,63,1,0,0,120,64,100,80
4886.0,60,1.0,63,1,0,0,120,64,100,80
4887.0,62,1.0,63,1,0,0,120,64,100,80
4888.0,64,1.0,63,1,0,0,120,64,100,80
4889.0,62,1.0,63,1,0,0,120,64,100,80
4890.0,65,1.0,63,1,0,0,120,64,100,80
4891.0,65,1.0,63,1,0,0,120,64,100,80
4892.0,62,1.0,63,1,0,0,120,64,100,80
4893.0,64,1.0,63,1,0,0,120,64,100,80
4894.0,62,1.0,63,1,0,0,120,64,100,80
4895.0,62,1.0,63,1,0,0,120,64,100,80
4896.0,60,1.0,63,1,0,0,120,64,100,80
4897.0,65,1.0,63,1,0,0,120,64,100,80
4898.0,60,1.0,63,1,0,0,120,64,100,80
4899.0,69,1.0,63,1,0,0,120,64,100,80
4900.0,64,1.0,63,1,0,0,120,64,100,80
4901.0,64,1.0,63,1,0,0,120,64,100,80
4902.0,69,1.0,63,1,0,0,120,64,100,80
4903.0,62,1.0,63,1,0,0,120,64,100,80
4904.0,64,1.0,63,1,0,0,120,64,100,80
4905.0,64,1.0,63,1,0,0,120,64,100,80
4906.0,62,1.0,63,1,0,0,120,64,100,80
4907.0,62,1.0,63,1,0,0,120,64,100,80
4908.0,64,1.0,63,1,0,0,120,64,100,80
4909.0,62,1.0,63,1,0,0,120,64,100,80
4910.0,62,1.0,63,1,0,0,120,64,100,80
4911.0,60,1.0,63,1,0,0,120,64,100,80
4912.0,65,1.0,63,1,0,0,120,64,100,80
4913.0,60,1.0,63,1,0,0,120,64,100,80
4914.0,60,1.0,63,1,0,0,120,64,100,80
4915.0,65,1.0,63,1,0,0,120,64,100,80
4916.0,65,1.0,63,1,0,0,120,64,100,80
4917.0,64,1.0,63,1,0,0,120,64,100,80
4918.0,60,1.0,63,1,0,0,120,64,100,80
4919.0,62,1.0,63,1,0,0,120,64,100,80
4920.0,65,1.0,63,1,0,0,120,64,100,80
4921.0,60,1.0,63,1,0,0,120,64,100,80
4922.0,60,1.0,63,1,0,0,120,64,100,80
4923.0,71,1.0,63,1,0,0,120,64,100,80
4924.0,60,1.0,63,1,0,0,120,64,100,80
4925.0,60,1.0,63,1,0,0,120,64,100,80
4926.0,62,1.0,63,1,0,0,120,64,100,80
4927.0,64,1.0,63,1,0,0,120,64,100,80
4928.0,62,1.0,63,1,0,0,120,64,100,80
4929.0,62,1.0,63,1,0,0,120,64,100,80
4930.0,67,1.0,63,1,0,0,120,64,100,80
4931.0,62,1.0,63,1,0,0,120,64,100,80
4932.0,64,1.0,63,1,0,0,120,64,100,80
4933.0,62,1.0,63,1,0,0,120,64,100,80
4934.0,60,1.0,63,1,0,0,120,64,100,80
4935.0,60,1.0,63,1,0,0,120,64,100,80
4936.0,62,1.0,63,1,0,0,120,64,100,80
4937.0,62,1.0,63,1,0,0,120,64,100,80
4938.0,60,1.0,63,1,0,0,120,64,100,80
4939.0,67,1.0,63,1,0,0,120,64,100,80
4940.0,60,1.0,63,1,0,0,120,64,100,80
4941.0,62,1.0,63,1,0,0,120,64,100,80
4942.0,64,1.0,63,1,0,0,120,64,100,80
4943.0,64,1.0,63,1,0,0,120,64,100,80
4944.0,65,1.0,63,1,0,0,120,64,100,80
4945.0,67,1.0,63,1,0,0,120,64,100,80
4946.0,67,1.0,63,1,0,0,120,64,100,80
4947.0,67,1.0,63,1,0,0,120,64,100,80
4948.0,64,1.0,63,1,0,0,120,64,100,80
4949.0,60,1.0,63,1,0,0,120,64,100,80
4950.0,60,1.0,63,1,0,0,120,64,100,80
4951.0,62,1.0,63,1,0,0,120,64,100,80
4952.0,64,1.0,63,1,0,0,120,64,100,80
4953.0,65,1.0,63,1,0,0,120,64,100,80
4954.0,69,1.0,63,1,0,0,120,64,100,80
4955.0,69,1.0,63,1,0,0,120,64,100,80
4956.0,71,1.0,63,1,0,0,120,64,100,80
4957.0,60,1.0,63,1,0,0,120,64,100,80
4958.0,69,1.0,63,1,0,0,120,64,100,80
4959.0,65,1.0,63,1,0,0,120,64,100,80
4960.0,64,1.0,63,1,0,0,120,64,100,80
4961.0,69,1.0,63,1,0,0,120,64,100,80
4962.0,62,1.0,63,1,0,0,120,64,100,80
4963.0,62,1.0,63,1,0,0,120,64,100,80
4964.0,69,1.0,63,1,0,0,120,64,100,80
4965.0,69,1.0,63,1,0,0,120,64,100,80
4966.0,67,1.0,63,1,0,0,120,64,100,80
4967.0,67,1.0,63,1,0,0,120,64,100,80
4968.0,64,1.0,63,1,0,0,120,64,100,80
4969.0,64,1.0,63,1,0,0,120,64,100,80
4970.0,65,1.0,63,1,0,0,120,64,100,80
4971.0,71,1.0,63,1,0,0,120,64,100,80
4972.0,64,1.0,63,1,0,0,120,64,100,80
4973.0,64,1.0,63,1,0,0,120,64,100,80
4974.0,60,1.0,63,1,0,0,120,64,100,80
4975.0,65,1.0,63,1,0,0,120,64,100,80
4976.0,69,1.0,63,1,0,0,120,64,100,80
4977.0,71,1.0,63,1,0,0,120,64,100,80
4978.0,64,1.0,63,1,0,0,120,64,100,80
4979.0,65,1.0,63,1,0,0,120,64,100,80
4980.0,60,1.0,63,1,0,0,120,64,100,80
4981.0,67,1.0,63,1,0,0,120,64,100,80
4982.0,60,1.0,63,1,0,0,120,64,100,80
4983.0,71,1.0,63,1,0,0,120,64,100,80
4984.0,64,1.0,63,1,0,0,120,64,100,80
4985.0,71,1.0,63,1,0,0,120,64,100,80
4986.0,60,1.0,63,1,0,0,120,64,100,80
4987.0,62,1.0,63,1,0,0,120,64,100,80
4988.0,64,1.0,63,1,0,0,120,64,100,80
4989.0,67,1.0,63,1,0,0,120,64,100,80
4990.0,71,1.0,63,1,0,0,120,64,100,80
4991.0,60,1.0,63,1,0,0,120,64,100,80
4992.0,62,1.0,63,1,0,0,120,64,100,80
4993.0,65,1.0,63,1,0,0,120,64,100,80
4994.0,60,1.0,63,1,0,0,120,64,100,80
4995.0,64,1.0,63,1,0,0,120,64,100,80
4996.0,64,1.0,63,1,0,0,120,64,100,80
4997.0,67,1.0,63,1,0,0,120,64,100,80
4998.0,62,1.0,63,1,0,0,120,64,100,80
4999.0,60,1.0,63,1,0,0,120,64,100,80
5000.0,60,1.0,63,1,0,0,120,64,100,80
5001.0,69,1.0,63,1,0,0,120,64,100,80
5002.0,60,1.0,63,1,0,0,120,64,100,80
5003.0,69,1.0,63,1,0,0,120,64,100,80
5004.0,65,1.0,63,1,0,0,120,64,100,80
5005.0,64,1.0,63,1,0,0,120,64,100,80
5006.0,60,1.0,63,1,0,0,120,64,100,80
5007.0,67,1.0,63,1,0,0,120,64,100,80
5008.0,65,1.0,63,1,0,0,120,64,100,80
5009.0,64,1.0,63,1,0,0,120,64,100,80
5010.0,65,1.0,63,1,0,0,120,64,100,80
5011.0,67,1.0,63,1,0,0,120,64,100,80
5012.0,62,1.0,63,1,0,0,120,64,100,80
5013.0,65,1.0,63,1,0,0,120,64,100,80
5014.0,62,1.0,63,1,0,0,120,64,100,80
5015.0,60,1.0,63,1,0,0,120,64,100,80
5016.0,60,1.0,63,1,0,0,120,64,100,80
5017.0,60,1.0,63,1,0,0,120,64,100,80
5018.0,65,1.0,63,1,0,0,120,64,100,80
5019.0,64,1.0,63,1,0,0,120,64,100,80
5020.0,60,1.0,63,1,0,0,120,64,100,80
5021.0,71,1.0,63,1,0,0,120,64,100,80
5022.0,65,1.0,63,1,0,0,120,64,100,80
5023.0,67,1.0,63,1,0,0,120,64,100,80
5024.0,65,1.0,63,1,0,0,120,64,100,80
5025.0,69,1.0,63,1,0,0,120,64,100,80
5026.0,60,1.0,63,1,0,0,120,64,100,80
5027.0,60,1.0,63,1,0,0,120,64,100,80
5028.0,71,1.0,63,1,0,0,120,64,100,80
5029.0,65,1.0,63,1,0,0,120,64,100,80
5030.0,69,1.0,63,1,0,0,120,64,100,80
5031.0,67,1.0,63,1,0,0,120,64,100,80
5032.0,69,1.0,63,1,0,0,120,64,100,80
5033.0,60,1.0,63,1,0,0,120,64,100,80
5034.0,62,1.0,63,1,0,0,120,64,100,80
5035.0,71,1.0,63,1,0,0,120,64,100,80
5036.0,62,1.0,63,1,0,0,120,64,100,80
5037.0,67,1.0,63,1,0,0,120,64,100,80
5038.0,60,1.0,63,1,0,0,120,64,100,80
5039.0,69,1.0,63,1,0,0,120,64,100,80
5040.0,69,1.0,63,1,0,0,120,64,100,80
5041.0,71,1.0,63,1,0,0,120,64,100,80
5042.0,64,1.0,63,1,0,0,120,64,100,80
5043.0,62,1.0,63,1,0,0,120,64,100,80
5044.0,60,1.0,63,1,0,0,120,64,100,80
5045.0,64,1.0,63,1,0,0,120,64,100,80
5046.0,60,1.0,63,1,0,0,120,64,100,80
5047.0,60,1.0,63,1,0,0,120,64,100,80
5048.0,71,1.0,63,1,0,0,120,64,100,80
5049.0,71,1.0,63,1,0,0,120,64,100,80
5050.0,67,1.0,63,1,0,0,120,64,100,80
5051.0,64,1.0,63,1,0,0,120,64,100,80
5052.0,65,1.0,63,1,0,0,120,64,100,80
5053.0,64,1.0,63,1,0,0,120,64,100,80
5054.0,62,1.0,63,1,0,0,120,64,100,80
5055.0,60,1.0,63,1,0,0,120,64,100,80
5056.0,62,1.0,63,1,0,0,120,64,100,80
5057.0,60,1.0,63,1,0,0,120,64,100,80
5058.0,65,1.0,63,1,0,0,120,64,100,80
5059.0,69,1.0,63,1,0,0,120,64,100,80
5060.0,69,1.0,63,1,0,0,120,64,100,80
5061.0,62,1.0,63,1,0,0,120,64,100,80
5062.0,64,1.0,63,1,0,0,120,64,100,80
5063.0,60,1.0,63,1,0,0,120,64,100,80
5064.0,60,1.0,63,1,0,0,120,64,100,80
5065.0,60,1.0,63,1,0,0,120,64,100,80
5066.0,67,1.0,63,1,0,0,120,64,100,80
5067.0,69,1.0,63,1,0,0,120,64,100,80
5068.0,69,1.0,63,1,0,0,120,64,100,80
5069.0,64,1.0,63,1,0,0,120,64,100,80
5070.0,65,1.0,63,1,0,0,120,64,100,80
5071.0,64,1.0,63,1,0,0,120,64,100,80
5072.0,65,1.0,63,1,0,0,120,64,100,80
5073.0,67,1.0,63,1,0,0,120,64,100,80
5074.0,64,1.0,63,1,0,0,120,64,100,80
5075.0,69,1.0,63,1,0,0,120,64,100,80
5076.0,64,1.0,63,1,0,0,120,64,100,80
5077.0,60,1.0,63,1,0,0,120,64,100,80
5078.0,65,1.0,63,1,0,0,120,64,100,80
5079.0,64,1.0,63,1,0,0,120,64,100,80
5080.0,60,1.0,63,1,0,0,120,64,100,80
5081.0,69,1.0,63,1,0,0,120,64,100,80
5082.0,65,1.0,63,1,0,0,120,64,100,80
5083.0,60,1.0,63,1,0,0,120,64,100,80
5084.0,64,1.0,63,1,0,0,120,64,100,80
5085.0,60,1.0,63,1,0,0,120,64,100,80
5086.0,60,1.0,63,1,0,0,120,64,100,80
5087.0,60,1.0,63,1,0,0,120,64,100,80
5088.0,62,1.0,63,1,0,0,120,64,100,80
5089.0,65,1.0,63,1,0,0,120,64,100,80
5090.0,64,1.0,63,1,0,0,120,64,100,80
5091.0,62,1.0,63,1,0,0,120,64,100,80
5092.0,60,1.0,63,1,0,0,120,64,100,80
5093.0,67,1.0,63,1,0,0,120,64,100,80
5094.0,60,1.0,63,1,0,0,120,64,100,80
5095.0,60,1.0,63,1,0,0,120,64,100,80
5096.0,67,1.0,63,1,0,0,120,64,100,80
5097.0,71,1.0,63,1,0,0,120,64,100,80
5098.0,71,1.0,63,1,0,0,120,64,100,80
5099.0,65,1.0,63,1,0,0,120,64,100,80
5100.0,60,1.0,63,1,0,0,120,64,100,80
5101.0,65,1.0,63,1,0,0,120,64,100,80
5102.0,67,1.0,63,1,0,0,120,64,100,80
5103.0,65,1.0,63,1,0,0,120,64,100,80
5104.0,60,1.0,63,1,0,0,120,64,100,80
5105.0,65,1.0,63,1,0,0,120,64,100,80
5106.0,69,1.0,63,1,0,0,120,64,100,80
5107.0,60,1.0,63,1,0,0,120,64,100,80
5108.0,65,1.0,63,1,0,0,120,64,100,80
5109.0,67,1.0,63,1,0,0,120,64,100,80
5110.0,69,1.0,63,1,0,0,120,64,100,80
5111.0,60,1.0,63,1,0,0,120,64,100,80
5112.0,60,1.0,63,1,0,0,120,64,100,80
5113.0,60,1.0,63,1,0,0,120,64,100,80
5114.0,60,1.0,63,1,0,0,120,64,100,80
5115.0,65,1.0,63,1,0,0,120,64,100,80
5116.0,67,1.0,63,1,0,0,120,64,100,80
5117.0,65,1.0,63,1,0,0,120,64,100,80
5118.0,65,1.0,63,1,0,0,120,64,100,80
5119.0,71,1.0,63,1,0,0,120,64,100,80
5120.0,62,1.0,63,1,0,0,120,64,100,80
5121.0,64,1.0,63,1,0,0,120,64,100,80
5122.0,64,1.0,63,1,0,0,120,64,100,80
5123.0,69,1.0,63,1,0,0,120,64,100,80
5124.0,65,1.0,63,1,0,0,120,64,100,80
5125.0,69,1.0,63,1,0,0,120,64,100,80
5126.0,69,1.0,63,1,0,0,120,64,100,80
5127.0,60,1.0,63,1,0,0,120,64,100,80
5128.0,62,1.0,63,1,0,0,120,64,100,80
5129.0,69,1.0,63,1,0,0,120,64,100,80
5130.0,67,1.0,63,1,0,0,120,64,100,80
5131.0,67,1.0,63,1,0,0,120,64,100,80
5132.0,69,1.0,63,1,0,0,120,64,100,80
5133.0,64,1.0,63,1,0,0,120,64,100,80
5134.0,69,1.0,63,1,0,0,120,64,100,80
5135.0,65,1.0,63,1,0,0,120,64,100,80
5136.0,64,1.0,63,1,0,0,120,64,100,80
5137.0,69,1.0,63,1,0,0,120,64,100,80
5138.0,69,1.0,63,1,0,0,120,64,100,80
5139.0,62,1.0,63,1,0,0,120,64,100,80
5140.0,69,1.0,63,1,0,0,120,64,100,80
5141.0,62,1.0,63,1,0,0,120,64,100,80
5142.0,69,1.0,63,1,0,0,120,64,100,80
5143.0,60,1.0,63,1,0,0,120,64,100,80
5144.0,60,1.0,63,1,0,0,120,64,100,80
5145.0,71,1.0,63,1,0,0,120,64,100,80
5146.0,60,1.0,63,1,0,0,120,64,100,80
5147.0,64,1.0,63,1,0,0,120,64,100,80
5148.0,69,1.0,63,1,0,0,120,64,100,80
5149.0,69,1.0,63,1,0,0,120,64,100,80
5150.0,67,1.0,63,1,0,0,120,64,100,80
5151.0,60,1.0,63,1,0,0,120,64,100,80
5152.0,65,1.0,63,1,0,0,120,64,100,80
5153.0,69,1.0,63,1,0,0,120,64,100,80
5154.0,65,1.0,63,1,0,0,120,64,100,80
5155.0,64,1.0,63,1,0,0,120,64,100,80
5156.0,62,1.0,63,1,0,0,120,64,100,80
5157.0,62,1.0,63,1,0,0,120,64,100,80
5158.0,64,1.0,63,1,0,0,120,64,100,80
5159.0,60,1.0,63,1,0,0,120,64,100,80
5160.0,65,1.0,63,1,0,0,120,64,100,80
5161.0,64,1.0,63,1,0,0,120,64,100,80
5162.0,64,1.0,63,1,0,0,120,64,100,80
5163.0,69,1.0,63,1,0,0,120,64,100,80
5164.0,64,1.0,63,1,0,0,120,64,100,80
5165.0,62,1.0,63,1,0,0,120,64,100,80
5166.0,64,1.0,63,1,0,0,120,64,100,80
5167.0,71,1.0,63,1,0,0,120,64,100,80
5168.0,67,1.0,63,1,0,0,120,64,100,80
5169.0,69,1.0,63,1,0,0,120,64,100,80
5170.0,65,1.0,63,1,0,0,120,64,100,80
5171.0,69,1.0,63,1,0,0,120,64,100,80
5172.0,64,1.0,63,1,0,0,120,64,100,80
5173.0,69,1.0,63,1,0,0,120,64,100,80
5174.0,67,1.0,63,1,0,0,120,64,100,80
5175.0,60,1.0,63,1,0,0,120,64,100,80
5176.0,60,1.0,63,1,0,0,120,64,100,80
5177.0,67,1.0,63,1,0,0,120,64,100,80
5178.0,69,1.0,63,1,0,0,120,64,100,80
5179.0,62,1.0,63,1,0,0,120,64,100,80
5180.0,69,1.0,63,1,0,0,120,64,100,80
5181.0,60,1.0,63,1,0,0,120,64,100,80
5182.0,71,1.0,63,1,0,0,120,64,100,80
5183.0,71,1.0,63,1,0,0,120,64,100,80
5184.0,62,1.0,63,1,0,0,120,64,100,80
5185.0,71,1.0,63,1,0,0,120,64,100,80
5186.0,64,1.0,63,1,0,0,120,64,100,80
5187.0,60,1.0,63,1,0,0,120,64,100,80
5188.0,60,1.0,63,1,0,0,120,64,100,80
5189.0,64,1.0,63,1,0,0,120,64,100,80
5190.0,60,1.0,63,1,0,0,120,64,100,80
5191.0,60,1.0,63,1,0,0,120,64,100,80
5192.0,69,1.0,63,1,0,0,120,64,100,80
5193.0,65,1.0,63,1,0,0,120,64,100,80
5194.0,65,1.0,63,1,0,0,120,64,100,80
5195.0,69,1.0,63,1,0,0,120,64,100,80
5196.0,64,1.0,63,1,0,0,120,64,100,80
5197.0,65,1.0,63,1,0,0,120,64,100,80
5198.0,64,1.0,63,1,0,0,120,64,100,80
5199.0,62,1.0,63,1,0,0,120,64,100,80
5200.0,69,1.0,63,1,0,0,120,64,100,80
5201.0,64,1.0,63,1,0,0,120,64,100,80
5202.0,69,1.0,63,1,0,0,120,64,100,80
5203.0,69,1.0,63,1,0,0,120,64,100,80
5204.0,69,1.0,63,1,0,0,120,64,100,80
5205.0,69,1.0,63,1,0,0,120,64,100,80
5206.0,69,1.0,63,1,0,0,120,64,100,80
5207.0,65,1.0,63,1,0,0,120,64,100,80
5208.0,69,1.0,63,1,0,0,120,64,100,80
5209.0,65,1.0,63,1,0,0,120,64,100,80
5210.0,69,1.0,63,1,0,0,120,64,100,80
5211.0,71,1.0,63,1,0,0,120,64,100,80
5212.0,62,1.0,63,1,0,0,120,64,100,80
5213.0,60,1.0,63,1,0,0,120,64,100,80
5214.0,67,1.0,63,1,0,0,120,64,100,80
5215.0,65,1.0,63,1,0,0,120,64,100,80
5216.0,60,1.0,63,1,0,0,120,64,100,80
5217.0,65,1.0,63,1,0,0,120,64,100,80
5218.0,69,1.0,63,1,0,0,120,64,100,80
5219.0,60,1.0,63,1,0,0,120,64,100,80
5220.0,62,1.0,63,1,0,0,120,64,100,80
5221.0,65,1.0,63,1,0,0,120,64,100,80
5222.0,60,1.0,63,1,0,0,120,64,100,80
5223.0,64,1.0,63,1,0,0,120,64,100,80
5224.0,60,1.0,63,1,0,0,120,64,100,80
5225.0,67,1.0,63,1,0,0,120,64,100,80
5226.0,65,1.0,63,1,0,0,120,64,100,80
5227.0,60,1.0,63,1,0,0,120,64,100,80
5228.0,69,1.0,63,1,0,0,120,64,100,80
5229.0,64,1.0,63,1,0,0,120,64,100,80
5230.0,64,1.0,63,1,0,0,120,64,100,80
5231.0,60,1.0,63,1,0,0,120,64,100,80
5232.0,65,1.0,63,1,0,0,120,64,100,80
5233.0,62,1.0,63,1,0,0,120,64,100,80
5234.0,62,1.0,63,1,0,0,120,64,100,80
5235.0,60,1.0,63,1,0,0,120,64,100,80
5236.0,62,1.0,63,1,0,0,120,64,100,80
5237.0,64,1.0,63,1,0,0,120,64,100,80
5238.0,65,1.0,63,1,0,0,120,64,100,80
5239.0,60,1.0,63,1,0,0,120,64,100,80
5240.0,71,1.0,63,1,0,0,120,64,100,80
5241.0,65,1.0,63,1,0,0,120,64,100,80
5242.0,64,1.0,63,1,0,0,120,64,100,80
5243.0,65,1.0,63,1,0,0,120,64,100,80
5244.0,65,1.0,63,1,0,0,120,64,100,80
5245.0,67,1.0,63,1,0,0,120,64,100,80
5246.0,60,1.0,63,1,0,0,120,64,100,80
5247.0,65,1.0,63,1,0,0,120,64,100,80
5248.0,60,1.0,63,1,0,0,120,64,100,80
5249.0,67,1.0,63,1,0,0,120,64,100,80
5250.0,71,1.0,63,1,0,0,120,64,100,80
5251.0,60,1.0,63,1,0,0,120,64,100,80
5252.0,62,1.0,63,1,0,0,120,64,100,80
5253.0,67,1.0,63,1,0,0,120,64,100,80
5254.0,65,1.0,63,1,0,0,120,64,100,80
5255.0,71,1.0,63,1,0,0,120,64,100,80
5256.0,60,1.0,63,1,0,0,120,64,100,80
5257.0,65,1.0,63,1,0,0,120,64,100,80
5258.0,60,1.0,63,1,0,0,120,64,100,80
5259.0,64,1.0,63,1,0,0,120,64,100,80
5260.0,67,1.0,63,1,0,0,120,64,100,80
5261.0,60,1.0,63,1,0,0,120,64,100,80
5262.0,71,1.0,63,1,0,0,120,64,100,80
5263.0,69,1.0,63,1,0,0,120,64,100,80
5264.0,60,1.0,63,1,0,0,120,64,100,80
5265.0,64,1.0,63,1,0,0,120,64,100,80
5266.0,67,1.0,63,1,0,0,120,64,100,80
5267.0,71,1.0,63,1,0,0,120,64,100,80
5268.0,69,1.0,63,1,0,0,120,64,100,80
5269.0,60,1.0,63,1,0,0,120,64,100,80
5270.0,62,1.0,63,1,0,0,120,64,100,80
5271.0,65,1.0,63,1,0,0,120,64,100,80
5272.0,65,1.0,63,1,0,0,120,64,100,80
5273.0,69,1.0,63,1,0,0,120,64,100,80
5274.0,64,1.0,63,1,0,0,120,64,100,80
5275.0,65,1.0,63,1,0,0,120,64,100,80
5276.0,65,1.0,63,1,0,0,120,64,100,80
5277.0,71,1.0,63,1,0,0,120,64,100,80
5278.0,60,1.0,63,1,0,0,120,64,100,80
5279.0,65,1.0,63,1,0,0,120,64,100,80
5280.0,71,1.0,63,1,0,0,120,64,100,80
5281.0,67,1.0,63,1,0,0,120,64,100,80
5282.0,64,1.0,63,1,0,0,120,64,100,80
5283.0,64,1.0,63,1,0,0,120,64,100,80
5284.0,60,1.0,63,1,0,0,120,64,100,80
5285.0,64,1.0,63,1,0,0,120,64,100,80
5286.0,60,1.0,63,1,0,0,120,64,100,80
5287.0,64,1.0,63,1,0,0,120,64,100,80
5288.0,67,1.0,63,1,0,0,120,64,100,80
5289.0,64,1.0,63,1,0,0,120,64,100,80
5290.0,60,1.0,63,1,0,0,120,64,100,80
5291.0,65,1.0,63,1,0,0,120,64,100,80
5292.0,60,1.0,63,1,0,0,120,64,100,80
5293.0,65,1.0,63,1,0,0,120,64,100,80
5294.0,64,1.0,63,1,0,0,120,64,100,80
5295.0,71,1.0,63,1,0,0,120,64,100,80
5296.0,69,1.0,63,1,0,0,120,64,100,80
5297.0,71,1.0,63,1,0,0,120,64,100,80
5298.0,64,1.0,63,1,0,0,120,64,100,80
5299.0,65,1.0,63,1,0,0,120,64,100,80
5300.0,60,1.0,63,1,0,0,120,64,100,80
5301.0,60,1.0,63,1,0,0,120,64,100,80
5302.0,60,1.0,63,1,0,0,120,64,100,80
5303.0,60,1.0,63,1,0,0,120,64,100,80
5304.0,67,1.0,63,1,0,0,120,64,100,80
5305.0,65,1.0,63,1,0,0,120,64,100,80
5306.0,69,1.0,63,1,0,0,120,64,100,80
5307.0,60,1.0,63,1,0,0,120,64,100,80
5308.0,64,1.0,63,1,0,0,120,64,100,80
5309.0,62,1.0,63,1,0,0,120,64,100,80
5310.0,64,1.0,63,1,0,0,120,64,100,80
5311.0,64,1.0,63,1,0,0,120,64,100,80
5312.0,69,1.0,63,1,0,0,120,64,100,80
5313.0,64,1.0,63,1,0,0,120,64,100,80
5314.0,62,1.0,63,1,0,0,120,64,100,80
5315.0,69,1.0,63,1,0,0,120,64,100,80
5316.0,62,1.0,63,1,0,0,120,64,100,80
5317.0,69,1.0,63,1,0,0,120,64,100,80
5318.0,67,1.0,63,1,0,0,120,64,100,80
5319.0,67,1.0,63,1,0,0,120,64,100,80
5320.0,60,1.0,63,1,0,0,120,64,100,80
5321.0,64,1.0,63,1,0,0,120,64,100,80
5322.0,69,1.0,63,1,0,0,120,64,100,80
5323.0,65,1.0,63,1,0,0,120,64,100,80
5324.0,67,1.0,63,1,0,0,120,64,100,80
5325.0,65,1.0,63,1,0,0,120,64,100,80
5326.0,65,1.0,63,1,0,0,120,64,100,80
5327.0,60,1.0,63,1,0,0,120,64,100,80
5328.0,62,1.0,63,1,0,0,120,64,100,80
5329.0,69,1.0,63,1,0,0,120,64,100,80
5330.0,71,1.0,63,1,0,0,120,64,100,80
5331.0,65,1.0,63,1,0,0,120,64,100,80
5332.0,65,1.0,63,1,0,0,120,64,100,80
5333.0,64,1.0,63,1,0,0,120,64,100,80
5334.0,65,1.0,63,1,0,0,120,64,100,80
5335.0,62,1.0,63,1,0,0,120,64,100,80
5336.0,60,1.0,63,1,0,0,120,64,100,80
5337.0,71,1.0,63,1,0,0,120,64,100,80
5338.0,60,1.0,63,1,0,0,120,64,100,80
5339.0,71,1.0,63,1,0,0,120,64,100,80
5340.0,64,1.0,63,1,0,0,120,64,100,80
5341.0,64,1.0,63,1,0,0,120,64,100,80
5342.0,64,1.0,63,1,0,0,120,64,100,80
5343.0,69,1.0,63,1,0,0,120,64,100,80
5344.0,64,1.0,63,1,0,0,120,64,100,80
5345.0,64,1.0,63,1,0,0,120,64,100,80
5346.0,64,1.0,63,1,0,0,120,64,100,80
5347.0,60,1.0,63,1,0,0,120,64,100,80
5348.0,71,1.0,63,1,0,0,120,64,100,80
5349.0,71,1.0,63,1,0,0,120,64,100,80
5350.0,64,1.0,63,1,0,0,120,64,100,80
5351.0,64,1.0,63,1,0,0,120,64,100,80
5352.0,65,1.0,63,1,0,0,120,64,100,80
5353.0,60,1.0,63,1,0,0,120,64,100,80
5354.0,60,1.0,63,1,0,0,120,64,100,80
5355.0,62,1.0,63,1,0,0,120,64,100,80
5356.0,65,1.0,63,1,0,0,120,64,100,80
5357.0,60,1.0,63,1,0,0,120,64,100,80
5358.0,65,1.0,63,1,0,0,120,64,100,80
5359.0,69,1.0,63,1,0,0,120,64,100,80
5360.0,62,1.0,63,1,0,0,120,64,100,80
5361.0,67,1.0,63,1,0,0,120,64,100,80
5362.0,69,1.0,63,1,0,0,120,64,100,80
5363.0,65,1.0,63,1,0,0,120,64,100,80
5364.0,69,1.0,63,1,0,0,120,64,100,80
5365.0,69,1.0,63,1,0,0,120,64,100,80
5366.0,67,1.0,63,1,0,0,120,64,100,80
5367.0,65,1.0,63,1,0,0,120,64,100,80
5368.0,64,1.0,63,1,0,0,120,64,100,80
5369.0,64,1.0,63,1,0,0,120,64,100,80
5370.0,65,1.0,63,1,0,0,120,64,100,80
5371.0,60,1.0,63,1,0,0,120,64,100,80
5372.0,67,1.0,63,1,0,0,120,64,100,80
5373.0,67,1.0,63,1,0,0,120,64,100,80
5374.0,69,1.0,63,1,0,0,120,64,100,80
5375.0,64,1.0,63,1,0,0,120,64,100,80
5376.0,64,1.0,63,1,0,0,120,64,100,80
5377.0,62,1.0,63,1,0,0,120,64,100,80
5378.0,65,1.0,63,1,0,0,120,64,100,80
5379.0,64,1.0,63,1,0,0,120,64,100,80
5380.0,60,1.0,63,1,0,0,120,64,100,80
5381.0,62,1.0,63,1,0,0,120,64,100,80
5382.0,65,1.0,63,1,0,0,120,64,100,80
5383.0,60,1.0,63,1,0,0,120,64,100,80
5384.0,60,1.0,63,1,0,0,120,64,100,80
5385.0,65,1.0,63,1,0,0,120,64,100,80
5386.0,65,1.0,63,1,0,0,120,64,100,80
5387.0,67,1.0,63,1,0,0,120,64,100,80
5388.0,62,1.0,63,1,0,0,120,64,100,80
5389.0,65,1.0,63,1,0,0,120,64,100,80
5390.0,65,1.0,63,1,0,0,120,64,100,80
5391.0,60,1.0,63,1,0,0,120,64,100,80
5392.0,65,1.0,63,1,0,0,120,64,100,80
5393.0,64,1.0,63,1,0,0,120,64,100,80
5394.0,69,1.0,63,1,0,0,120,64,100,80
5395.0,60,1.0,63,1,0,0,120,64,100,80
5396.0,60,1.0,63,1,0,0,120,64,100,80
5397.0,64,1.0,63,1,0,0,120,64,100,80
5398.0,65,1.0,63,1,0,0,120,64,100,80
5399.0,71,1.0,63,1,0,0,120,64,100,80
5400.0,62,1.0,63,1,0,0,120,64,100,80
5401.0,69,1.0,63,1,0,0,120,64,100,80
5402.0,60,1.0,63,1,0,0,120,64,100,80
5403.0,60,1.0,63,1,0,0,120,64,100,80
5404.0,64,1.0,63,1,0,0,120,64,100,80
5405.0,69,1.0,63,1,0,0,120,64,100,80
5406.0,60,1.0,63,1,0,0,120,64,100,80
5407.0,64,1.0,63,1,0,0,120,64,100,80
5408.0,65,1.0,63,1,0,0,120,64,100,80
5409.0,60,1.0,63,1,0,0,120,64,100,80
5410.0,60,1.0,63,1,0,0,120,64,100,80
5411.0,60,1.0,63,1,0,0,120,64,100,80
5412.0,60,1.0,63,1,0,0,120,64,100,80
5413.0,64,1.0,63,1,0,0,120,64,100,80
5414.0,71,1.0,63,1,0,0,120,64,100,80
5415.0,64,1.0,63,1,0,0,120,64,100,80
5416.0,69,1.0,63,1,0,0,120,64,100,80
5417.0,64,1.0,63,1,0,0,120,64,100,80
5418.0,62,1.0,63,1,0,0,120,64,100,80
5419.0,69,1.0,63,1,0,0,120,64,100,80
5420.0,69,1.0,63,1,0,0,120,64,100,80
5421.0,64,1.0,63,1,0,0,120,64,100,80
5422.0,69,1.0,63,1,0,0,120,64,100,80
5423.0,60,1.0,63,1,0,0,120,64,100,80
5424.0,65,1.0,63,1,0,0,120,64,100,80
5425.0,71,1.0,63,1,0,0,120,64,100,80
5426.0,60,1.0,63,1,0,0,120,64,100,80
5427.0,65,1.0,63,1,0,0,120,64,100,80
5428.0,69,1.0,63,1,0,0,120,64,100,80
5429.0,60,1.0,63,1,0,0,120,64,100,80
5430.0,64,1.0,63,1,0,0,120,64,100,80
5431.0,69,1.0,63,1,0,0,120,64,100,80
5432.0,67,1.0,63,1,0,0,120,64,100,80
5433.0,64,1.0,63,1,0,0,120,64,100,80
5434.0,64,1.0,63,1,0,0,120,64,100,80
5435.0,62,1.0,63,1,0,0,120,64,100,80
5436.0,67,1.0,63,1,0,0,120,64,100,80
5437.0,71,1.0,63,1,0,0,120,64,100,80
5438.0,65,1.0,63,1,0,0,120,64,100,80
5439.0,64,1.0,63,1,0,0,120,64,100,80
5440.0,69,1.0,63,1,0,0,120,64,100,80
5441.0,65,1.0,63,1,0,0,120,64,100,80
5442.0,71,1.0,63,1,0,0,120,64,100,80
5443.0,64,1.0,63,1,0,0,120,64,100,80
5444.0,64,1.0,63,1,0,0,120,64,100,80
5445.0,69,1.0,63,1,0,0,120,64,100,80
5446.0,60,1.0,63,1,0,0,120,64,100,80
5447.0,0,1.0,63,1,0,0,120,64,100,80
5448.0,60,1.0,63,1,0,0,120,64,100,80
5449.0,64,1.0,63,1,0,0,120,64,100,80
5450.0,64,1.0,63,1,0,0,120,64,100,80
5451.0,62,1.0,63,1,0,0,120,64,100,80
5452.0,71,1.0,63,1,0,0,120,64,100,80
5453.0,62,1.0,63,1,0,0,120,64,100,80
5454.0,69,1.0,63,1,0,0,120,64,100,80
5455.0,62,1.0,63,1,0,0,120,64,100,80
5456.0,65,1.0,63,1,0,0,120,64,100,80
5457.0,69,1.0,63,1,0,0,120,64,100,80
5458.0,69,1.0,63,1,0,0,120,64,100,80
5459.0,62,1.0,63,1,0,0,120,64,100,80
5460.0,65,1.0,63,1,0,0,120,64,100,80
5461.0,71,1.0,63,1,0,0,120,64,100,80
5462.0,60,1.0,63,1,0,0,120,64,100,80
5463.0,62,1.0,63,1,0,0,120,64,100,80
5464.0,62,1.0,63,1,0,0,120,64,100,80
5465.0,60,1.0,63,1,0,0,120,64,100,80
5466.0,64,1.0,63,1,0,0,120,64,100,80
5467.0,60,1.0,63,1,0,0,120,64,100,80
5468.0,71,1.0,63,1,0,0,120,64,100,80
5469.0,60,1.0,63,1,0,0,120,64,100,80
5470.0,60,1.0,63,1,0,0,120,64,100,80
5471.0,60,1.0,63,1,0,0,120,64,100,80
5472.0,60,1.0,63,1,0,0,120,64,100,80
5473.0,71,1.0,63,1,0,0,120,64,100,80
5474.0,62,1.0,63,1,0,0,120,64,100,80
5475.0,67,1.0,63,1,0,0,120,64,100,80
5476.0,69,1.0,63,1,0,0,120,64,100,80
5477.0,64,1.0,63,1,0,0,120,64,100,80
5478.0,62,1.0,63,1,0,0,120,64,100,80
5479.0,64,1.0,63,1,0,0,120,64,100,80
5480.0,64,1.0,63,1,0,0,120,64,100,80
5481.0,69,1.0,63,1,0,0,120,64,100,80
5482.0,60,1.0,63,1,0,0,120,64,100,80
5483.0,69,1.0,63,1,0,0,120,64,100,80
5484.0,62,1.0,63,1,0,0,120,64,100,80
5485.0,0,1.0,63,1,0,0,120,64,100,80
5486.0,60,1.0,63,1,0,0,120,64,100,80
5487.0,60,1.0,63,1,0,0,120,64,100,80
5488.0,62,1.0,63,1,0,0,120,64,100,80
5489.0,62,1.0,63,1,0,0,120,64,100,80
5490.0,60,1.0,63,1,0,0,120,64,100,80
5491.0,64,1.0,63,1,0,0,120,64,100,80
5492.0,64,1.0,63,1,0,0,120,64,100,80
5493.0,62,1.0,63,1,0,0,120,64,100,80
5494.0,62,1.0,63,1,0,0,120,64,100,80
5495.0,71,1.0,63,1,0,0,120,64,100,80
5496.0,62,1.0,63,1,0,0,120,64,100,80
5497.0,0,1.0,63,1,0,0,120,64,100,80
5498.0,60,1.0,63,1,0,0,120,64,100,80
5499.0,67,1.0,63,1,0,0,120,64,100,80
5500.0,62,1.0,63,1,0,0,120,64,100,80
5501.0,60,1.0,63,1,0,0,120,64,100,80
5502.0,60,1.0,63,1,0,0,120,64,100,80
5503.0,65,1.0,63,1,0,0,120,64,100,80
5504.0,60,1.0,63,1,0,0,120,64,100,80
5505.0,65,1.0,63,1,0,0,120,64,100,80
5506.0,69,1.0,63,1,0,0,120,64,100,80
5507.0,60,1.0,63,1,0,0,120,64,100,80
5508.0,62,1.0,63,1,0,0,120,64,100,80
5509.0,64,1.0,63,1,0,0,120,64,100,80
5510.0,62,1.0,63,1,0,0,120,64,100,80
5511.0,64,1.0,63,1,0,0,120,64,100,80
5512.0,67,1.0,63,1,0,0,120,64,100,80
5513.0,62,1.0,63,1,0,0,120,64,100,80
5514.0,60,1.0,63,1,0,0,120,64,100,80
5515.0,69,1.0,63,1,0,0,120,64,100,80
5516.0,60,1.0,63,1,0,0,120,64,100,80
5517.0,71,1.0,63,1,0,0,120,64,100,80
5518.0,69,1.0,63,1,0,0,120,64,100,80
5519.0,60,1.0,63,1,0,0,120,64,100,80
5520.0,65,1.0,63,1,0,0,120,64,100,80
5521.0,69,1.0,63,1,0,0,120,64,100,80
5522.0,69,1.0,63,1,0,0,120,64,100,80
5523.0,64,1.0,63,1,0,0,120,64,100,80
5524.0,71,1.0,63,1,0,0,120,64,100,80
5525.0,71,1.0,63,1,0,0,120,64,100,80
5526.0,64,1.0,63,1,0,0,120,64,100,80
5527.0,62,1.0,63,1,0,0,120,64,100,80
5528.0,60,1.0,63,1,0,0,120,64,100,80
5529.0,60,1.0,63,1,0,0,120,64,100,80
5530.0,64,1.0,63,1,0,0,120,64,100,80
5531.0,69,1.0,63,1,0,0,120,64,100,80
5532.0,60,1.0,63,1,0,0,120,64,100,80
5533.0,62,1.0,63,1,0,0,120,64,100,80
5534.0,64,1.0,63,1,0,0,120,64,100,80
5535.0,71,1.0,63,1,0,0,120,64,100,80
5536.0,60,1.0,63,1,0,0,120,64,100,80
5537.0,64,1.0,63,1,0,0,120,64,100,80
5538.0,60,1.0,63,1,0,0,120,64,100,80
5539.0,60,1.0,63,1,0,0,120,64,100,80
5540.0,71,1.0,63,1,0,0,120,64,100,80
5541.0,69,1.0,63,1,0,0,120,64,100,80
5542.0,62,1.0,63,1,0,0,120,64,100,80
5543.0,69,1.0,63,1,0,0,120,64,100,80
5544.0,67,1.0,63,1,0,0,120,64,100,80
5545.0,60,1.0,63,1,0,0,120,64,100,80
5546.0,69,1.0,63,1,0,0,120,64,100,80
5547.0,62,1.0,63,1,0,0,120,64,100,80
5548.0,71,1.0,63,1,0,0,120,64,100,80
5549.0,69,1.0,63,1,0,0,120,64,100,80
5550.0,60,1.0,63,1,0,0,120,64,100,80
5551.0,69,1.0,63,1,0,0,120,64,100,80
5552.0,62,1.0,63,1,0,0,120,64,100,80
5553.0,60,1.0,63,1,0,0,120,64,100,80
5554.0,0,1.0,63,1,0,0,120,64,100,80
5555.0,69,1.0,63,1,0,0,120,64,100,80
5556.0,62,1.0,63,1,0,0,120,64,100,80
5557.0,71,1.0,63,1,0,0,120,64,100,80
5558.0,60,1.0,63,1,0,0,120,64,100,80
5559.0,71,1.0,63,1,0,0,120,64,100,80
5560.0,67,1.0,63,1,0,0,120,64,100,80
5561.0,60,1.0,63,1,0,0,120,64,100,80
5562.0,71,1.0,63,1,0,0,120,64,100,80
5563.0,71,1.0,63,1,0,0,120,64,100,80
5564.0,69,1.0,63,1,0,0,120,64,100,80
5565.0,60,1.0,63,1,0,0,120,64,100,80
5566.0,0,1.0,63,1,0,0,120,64,100,80
5567.0,69,1.0,63,1,0,0,120,64,100,80
5568.0,65,1.0,63,1,0,0,120,64,100,80
5569.0,60,1.0,63,1,0,0,120,64,100,80
5570.0,67,1.0,63,1,0,0,120,64,100,80
5571.0,64,1.0,63,1,0,0,120,64,100,80
5572.0,60,1.0,63,1,0,0,120,64,100,80
5573.0,62,1.0,63,1,0,0,120,64,100,80
5574.0,62,1.0,63,1,0,0,120,64,100,80
5575.0,67,1.0,63,1,0,0,120,64,100,80
5576.0,71,1.0,63,1,0,0,120,64,100,80
5577.0,62,1.0,63,1,0,0,120,64,100,80
5578.0,69,1.0,63,1,0,0,120,64,100,80
5579.0,60,1.0,63,1,0,0,120,64,100,80
5580.0,60,1.0,63,1,0,0,120,64,100,80
5581.0,64,1.0,63,1,0,0,120,64,100,80
5582.0,69,1.0,63,1,0,0,120,64,100,80
5583.0,62,1.0,63,1,0,0,120,64,100,80
5584.0,60,1.0,63,1,0,0,120,64,100,80
5585.0,67,1.0,63,1,0,0,120,64,100,80
5586.0,69,1.0,63,1,0,0,120,64,100,80
5587.0,60,1.0,63,1,0,0,120,64,100,80
5588.0,71,1.0,63,1,0,0,120,64,100,80
5589.0,67,1.0,63,1,0,0,120,64,100,80
5590.0,62,1.0,63,1,0,0,120,64,100,80
5591.0,60,1.0,63,1,0,0,120,64,100,80
5592.0,60,1.0,63,1,0,0,120,64,100,80
5593.0,62,1.0,63,1,0,0,120,64,100,80
5594.0,60,1.0,63,1,0,0,120,64,100,80
5595.0,67,1.0,63,1,0,0,120,64,100,80
5596.0,69,1.0,63,1,0,0,120,64,100,80
5597.0,71,1.0,63,1,0,0,120,64,100,80
5598.0,71,1.0,63,1,0,0,120,64,100,80
5599.0,65,1.0,63,1,0,0,120,64,100,80
5600.0,64,1.0,63,1,0,0,120,64,100,80
5601.0,62,1.0,63,1,0,0,120,64,100,80
5602.0,0,1.0,63,1,0,0,120,64,100,80
5603.0,69,1.0,63,1,0,0,120,64,100,80
5604.0,65,1.0,63,1,0,0,120,64,100,80
5605.0,62,1.0,63,1,0,0,120,64,100,80
5606.0,69,1.0,63,1,0,0,120,64,100,80
5607.0,60,1.0,63,1,0,0,120,64,100,80
5608.0,60,1.0,63,1,0,0,120,64,100,80
5609.0,64,1.0,63,1,0,0,120,64,100,80
5610.0,69,1.0,63,1,0,0,120,64,100,80
5611.0,62,1.0,63,1,0,0,120,64,100,80
5612.0,69,1.0,63,1,0,0,120,64,100,80
5613.0,71,1.0,63,1,0,0,120,64,100,80
5614.0,60,1.0,63,1,0,0,120,64,100,80
5615.0,62,1.0,63,1,0,0,120,64,100,80
5616.0,67,1.0,63,1,0,0,120,64,100,80
5617.0,71,1.0,63,1,0,0,120,64,100,80
5618.0,71,1.0,63,1,0,0,120,64,100,80
5619.0,60,1.0,63,1,0,0,120,64,100,80
5620.0,71,1.0,63,1,0,0,120,64,100,80
5621.0,60,1.0,63,1,0,0,120,64,100,80
5622.0,64,1.0,63,1,0,0,120,64,100,80
5623.0,64,1.0,63,1,0,0,120,64,100,80
5624.0,60,1.0,63,1,0,0,120,64,100,80
5625.0,69,1.0,63,1,0,0,120,64,100,80
5626.0,64,1.0,63,1,0,0,120,64,100,80
5627.0,69,1.0,63,1,0,0,120,64,100,80
5628.0,64,1.0,63,1,0,0,120,64,100,80
5629.0,62,1.0,63,1,0,0,120,64,100,80
5630.0,64,1.0,63,1,0,0,120,64,100,80
5631.0,69,1.0,63,1,0,0,120,64,100,80
5632.0,64,1.0,63,1,0,0,120,64,100,80
5633.0,69,1.0,63,1,0,0,120,64,100,80
5634.0,60,1.0,63,1,0,0,120,64,100,80
5635.0,60,1.0,63,1,0,0,120,64,100,80
5636.0,69,1.0,63,1,0,0,120,64,100,80
5637.0,71,1.0,63,1,0,0,120,64,100,80
5638.0,60,1.0,63,1,0,0,120,64,100,80
5639.0,64,1.0,63,1,0,0,120,64,100,80
5640.0,60,1.0,63,1,0,0,120,64,100,80
5641.0,60,1.0,63,1,0,0,120,64,100,80
5642.0,62,1.0,63,1,0,0,120,64,100,80
5643.0,71,1.0,63,1,0,0,120,64,100,80
5644.0,60,1.0,63,1,0,0,120,64,100,80
5645.0,60,1.0,63,1,0,0,120,64,100,80
5646.0,69,1.0,63,1,0,0,120,64,100,80
5647.0,62,1.0,63,1,0,0,120,64,100,80
5648.0,67,1.0,63,1,0,0,120,64,100,80
5649.0,64,1.0,63,1,0,0,120,64,100,80
5650.0,0,1.0,63,1,0,0,120,64,100,80
5651.0,69,1.0,63,1,0,0,120,64,100,80
5652.0,64,1.0,63,1,0,0,120,64,100,80
5653.0,71,1.0,63,1,0,0,120,64,100,80
5654.0,60,1.0,63,1,0,0,120,64,100,80
5655.0,69,1.0,63,1,0,0,120,64,100,80
5656.0,65,1.0,63,1,0,0,120,64,100,80
5657.0,71,1.0,63,1,0,0,120,64,100,80
5658.0,67,1.0,63,1,0,0,120,64,100,80
5659.0,60,1.0,63,1,0,0,120,64,100,80
5660.0,64,1.0,63,1,0,0,120,64,100,80
5661.0,69,1.0,63,1,0,0,120,64,100,80
5662.0,65,1.0,63,1,0,0,120,64,100,80
5663.0,60,1.0,63,1,0,0,120,64,100,80
5664.0,67,1.0,63,1,0,0,120,64,100,80
5665.0,60,1.0,63,1,0,0,120,64,100,80
5666.0,67,1.0,63,1,0,0,120,64,100,80
5667.0,60,1.0,63,1,0,0,120,64,100,80
5668.0,60,1.0,63,1,0,0,120,64,100,80
5669.0,69,1.0,63,1,0,0,120,64,100,80
5670.0,65,1.0,63,1,0,0,120,64,100,80
5671.0,69,1.0,63,1,0,0,120,64,100,80
5672.0,60,1.0,63,1,0,0,120,64,100,80
5673.0,0,1.0,63,1,0,0,120,64,100,80
5674.0,60,1.0,63,1,0,0,120,64,100,80
5675.0,60,1.0,63,1,0,0,120,64,100,80
5676.0,60,1.0,63,1,0,0,120,64,100,80
5677.0,64,1.0,63,1,0,0,120,64,100,80
5678.0,64,1.0,63,1,0,0,120,64,100,80
5679.0,62,1.0,63,1,0,0,120,64,100,80
5680.0,62,1.0,63,1,0,0,120,64,100,80
5681.0,60,1.0,63,1,0,0,120,64,100,80
5682.0,64,1.0,63,1,0,0,120,64,100,80
5683.0,69,1.0,63,1,0,0,120,64,100,80
5684.0,62,1.0,63,1,0,0,120,64,100,80
5685.0,62,1.0,63,1,0,0,120,64,100,80
5686.0,64,1.0,63,1,0,0,120,64,100,80
5687.0,0,1.0,63,1,0,0,120,64,100,80
5688.0,60,1.0,63,1,0,0,120,64,100,80
5689.0,71,1.0,63,1,0,0,120,64,100,80
5690.0,69,1.0,63,1,0,0,120,64,100,80
5691.0,65,1.0,63,1,0,0,120,64,100,80
5692.0,71,1.0,63,1,0,0,120,64,100,80
5693.0,62,1.0,63,1,0,0,120,64,100,80
5694.0,69,1.0,63,1,0,0,120,64,100,80
5695.0,65,1.0,63,1,0,0,120,64,100,80
5696.0,69,1.0,63,1,0,0,120,64,100,80
5697.0,60,1.0,63,1,0,0,120,64,100,80
5698.0,60,1.0,63,1,0,0,120,64,100,80
5699.0,69,1.0,63,1,0,0,120,64,100,80
5700.0,60,1.0,63,1,0,0,120,64,100,80
5701.0,64,1.0,63,1,0,0,120,64,100,80
5702.0,71,1.0,63,1,0,0,120,64,100,80
5703.0,67,1.0,63,1,0,0,120,64,100,80
5704.0,69,1.0,63,1,0,0,120,64,100,80
5705.0,64,1.0,63,1,0,0,120,64,100,80
5706.0,62,1.0,63,1,0,0,120,64,100,80
5707.0,60,1.0,63,1,0,0,120,64,100,80
5708.0,64,1.0,63,1,0,0,120,64,100,80
5709.0,60,1.0,63,1,0,0,120,64,100,80
5710.0,69,1.0,63,1,0,0,120,64,100,80
5711.0,60,1.0,63,1,0,0,120,64,100,80
5712.0,60,1.0,63,1,0,0,120,64,100,80
5713.0,71,1.0,63,1,0,0,120,64,100,80
5714.0,64,1.0,63,1,0,0,120,64,100,80
5715.0,0,1.0,63,1,0,0,120,64,100,80
5716.0,65,1.0,63,1,0,0,120,64,100,80
5717.0,71,1.0,63,1,0,0,120,64,100,80
5718.0,64,1.0,63,1,0,0,120,64,100,80
5719.0,69,1.0,63,1,0,0,120,64,100,80
5720.0,64,1.0,63,1,0,0,120,64,100,80
5721.0,62,1.0,63,1,0,0,120,64,100,80
5722.0,71,1.0,63,1,0,0,120,64,100,80
5723.0,62,1.0,63,1,0,0,120,64,100,80
5724.0,64,1.0,63,1,0,0,120,64,100,80
5725.0,67,1.0,63,1,0,0,120,64,100,80
5726.0,69,1.0,63,1,0,0,120,64,100,80
5727.0,60,1.0,63,1,0,0,120,64,100,80
5728.0,0,1.0,63,1,0,0,120,64,100,80
5729.0,60,1.0,63,1,0,0,120,64,100,80
5730.0,65,1.0,63,1,0,0,120,64,100,80
5731.0,64,1.0,63,1,0,0,120,64,100,80
5732.0,67,1.0,63,1,0,0,120,64,100,80
5733.0,60,1.0,63,1,0,0,120,64,100,80
5734.0,65,1.0,63,1,0,0,120,64,100,80
5735.0,60,1.0,63,1,0,0,120,64,100,80
5736.0,64,1.0,63,1,0,0,120,64,100,80
5737.0,64,1.0,63,1,0,0,120,64,100,80
5738.0,67,1.0,63,1,0,0,120,64,100,80
5739.0,69,1.0,63,1,0,0,120,64,100,80
5740.0,67,1.0,63,1,0,0,120,64,100,80
5741.0,60,1.0,63,1,0,0,120,64,100,80
5742.0,65,1.0,63,1,0,0,120,64,100,80
5743.0,60,1.0,63,1,0,0,120,64,100,80
5744.0,60,1.0,63,1,0,0,120,64,100,80
5745.0,69,1.0,63,1,0,0,120,64,100,80
5746.0,67,1.0,63,1,0,0,120,64,100,80
5747.0,69,1.0,63,1,0,0,120,64,100,80
5748.0,60,1.0,63,1,0,0,120,64,100,80
5749.0,62,1.0,63,1,0,0,120,64,100,80
5750.0,62,1.0,63,1,0,0,120,64,100,80
5751.0,65,1.0,63,1,0,0,120,64,100,80
5752.0,69,1.0,63,1,0,0,120,64,100,80
5753.0,65,1.0,63,1,0,0,120,64,100,80
5754.0,67,1.0,63,1,0,0,120,64,100,80
5755.0,69,1.0,63,1,0,0,120,64,100,80
5756.0,69,1.0,63,1,0,0,120,64,100,80
5757.0,64,1.0,63,1,0,0,120,64,100,80
5758.0,69,1.0,63,1,0,0,120,64,100,80
5759.0,60,1.0,63,1,0,0,120,64,100,80
5760.0,62,1.0,63,1,0,0,120,64,100,80
5761.0,60,1.0,63,1,0,0,120,64,100,80
5762.0,69,1.0,63,1,0,0,120,64,100,80
5763.0,60,1.0,63,1,0,0,120,64,100,80
5764.0,69,1.0,63,1,0,0,120,64,100,80
5765.0,65,1.0,63,1,0,0,120,64,100,80
5766.0,69,1.0,63,1,0,0,120,64,100,80
5767.0,62,1.0,63,1,0,0,120,64,100,80
5768.0,60,1.0,63,1,0,0,120,64,100,80
5769.0,60,1.0,63,1,0,0,120,64,100,80
5770.0,69,1.0,63,1,0,0,120,64,100,80
5771.0,65,1.0,63,1,0,0,120,64,100,80
5772.0,65,1.0,63,1,0,0,120,64,100,80
5773.0,69,1.0,63,1,0,0,120,64,100,80
5774.0,60,1.0,63,1,0,0,120,64,100,80
5775.0,69,1.0,63,1,0,0,120,64,100,80
5776.0,65,1.0,63,1,0,0,120,64,100,80
5777.0,65,1.0,63,1,0,0,120,64,100,80
5778.0,65,1.0,63,1,0,0,120,64,100,80
5779.0,64,1.0,63,1,0,0,120,64,100,80
5780.0,60,1.0,63,1,0,0,120,64,100,80
5781.0,64,1.0,63,1,0,0,120,64,100,80
5782.0,69,1.0,63,1,0,0,120,64,100,80
5783.0,60,1.0,63,1,0,0,120,64,100,80
5784.0,62,1.0,63,1,0,0,120,64,100,80
5785.0,60,1.0,63,1,0,0,120,64,100,80
5786.0,65,1.0,63,1,0,0,120,64,100,80
5787.0,62,1.0,63,1,0,0,120,64,100,80
5788.0,67,1.0,63,1,0,0,120,64,100,80
5789.0,60,1.0,63,1,0,0,120,64,100,80
5790.0,64,1.0,63,1,0,0,120,64,100,80
5791.0,64,1.0,63,1,0,0,120,64,100,80
5792.0,69,1.0,63,1,0,0,120,64,100,80
5793.0,67,1.0,63,1,0,0,120,64,100,80
5794.0,65,1.0,63,1,0,0,120,64,100,80
5795.0,64,1.0,63,1,0,0,120,64,100,80
5796.0,65,1.0,63,1,0,0,120,64,100,80
5797.0,71,1.0,63,1,0,0,120,64,100,80
5798.0,65,1.0,63,1,0,0,120,64,100,80
5799.0,65,1.0,63,1,0,0,120,64,100,80
5800.0,64,1.0,63,1,0,0,120,64,100,80
5801.0,69,1.0,63,1,0,0,120,64,100,80
5802.0,62,1.0,63,1,0,0,120,64,100,80
5803.0,65,1.0,63,1,0,0,120,64,100,80
5804.0,64,1.0,63,1,0,0,120,64,100,80
5805.0,64,1.0,63,1,0,0,120,64,100,80
5806.0,69,1.0,63,1,0,0,120,64,100,80
5807.0,69,1.0,63,1,0,0,120,64,100,80
5808.0,60,1.0,63,1,0,0,120,64,100,80
5809.0,60,1.0,63,1,0,0,120,64,100,80
5810.0,69,1.0,63,1,0,0,120,64,100,80
5811.0,65,1.0,63,1,0,0,120,64,100,80
5812.0,62,1.0,63,1,0,0,120,64,100,80
5813.0,62,1.0,63,1,0,0,120,64,100,80
5814.0,69,1.0,63,1,0,0,120,64,100,80
5815.0,60,1.0,63,1,0,0,120,64,100,80
5816.0,71,1.0,63,1,0,0,120,64,100,80
5817.0,69,1.0,63,1,0,0,120,64,100,80
5818.0,65,1.0,63,1,0,0,120,64,100,80
5819.0,60,1.0,63,1,0,0,120,64,100,80
5820.0,69,1.0,63,1,0,0,120,64,100,80
5821.0,65,1.0,63,1,0,0,120,64,100,80
5822.0,64,1.0,63,1,0,0,120,64,100,80
5823.0,65,1.0,63,1,0,0,120,64,100,80
5824.0,69,1.0,63,1,0,0,120,64,100,80
5825.0,69,1.0,63,1,0,0,120,64,100,80
5826.0,65,1.0,63,1,0,0,120,64,100,80
5827.0,64,1.0,63,1,0,0,120,64,100,80
5828.0,69,1.0,63,1,0,0,120,64,100,80
5829.0,65,1.0,63,1,0,0,120,64,100,80
5830.0,64,1.0,63,1,0,0,120,64,100,80
5831.0,62,1.0,63,1,0,0,120,64,100,80
5832.0,69,1.0,63,1,0,0,120,64,100,80
5833.0,67,1.0,63,1,0,0,120,64,100,80
5834.0,60,1.0,63,1,0,0,120,64,100,80
5835.0,62,1.0,63,1,0,0,120,64,100,80
5836.0,65,1.0,63,1,0,0,120,64,100,80
5837.0,67,1.0,63,1,0,0,120,64,100,80
5838.0,62,1.0,63,1,0,0,120,64,100,80
5839.0,65,1.0,63,1,0,0,120,64,100,80
5840.0,62,1.0,63,1,0,0,120,64,100,80
5841.0,64,1.0,63,1,0,0,120,64,100,80
5842.0,60,1.0,63,1,0,0,120,64,100,80
5843.0,60,1.0,63,1,0,0,120,64,100,80
5844.0,64,1.0,63,1,0,0,120,64,100,80
5845.0,60,1.0,63,1,0,0,120,64,100,80
5846.0,71,1.0,63,1,0,0,120,64,100,80
5847.0,62,1.0,63,1,0,0,120,64,100,80
5848.0,69,1.0,63,1,0,0,120,64,100,80
5849.0,62,1.0,63,1,0,0,120,64,100,80
5850.0,60,1.0,63,1,0,0,120,64,100,80
5851.0,65,1.0,63,1,0,0,120,64,100,80
5852.0,64,1.0,63,1,0,0,120,64,100,80
5853.0,62,1.0,63,1,0,0,120,64,100,80
5854.0,60,1.0,63,1,0,0,120,64,100,80
5855.0,69,1.0,63,1,0,0,120,64,100,80
5856.0,69,1.0,63,1,0,0,120,64,100,80
5857.0,60,1.0,63,1,0,0,120,64,100,80
5858.0,62,1.0,63,1,0,0,120,64,100,80
5859.0,71,1.0,63,1,0,0,120,64,100,80
5860.0,69,1.0,63,1,0,0,120,64,100,80
5861.0,65,1.0,63,1,0,0,120,64,100,80
5862.0,67,1.0,63,1,0,0,120,64,100,80
5863.0,64,1.0,63,1,0,0,120,64,100,80
5864.0,62,1.0,63,1,0,0,120,64,100,80
5865.0,69,1.0,63,1,0,0,120,64,100,80
5866.0,71,1.0,63,1,0,0,120,64,100,80
5867.0,69,1.0,63,1,0,0,120,64,100,80
5868.0,67,1.0,63,1,0,0,120,64,100,80
5869.0,69,1.0,63,1,0,0,120,64,100,80
5870.0,71,1.0,63,1,0,0,120,64,100,80
5871.0,60,1.0,63,1,0,0,120,64,100,80
5872.0,69,1.0,63,1,0,0,120,64,100,80
5873.0,64,1.0,63,1,0,0,120,64,100,80
5874.0,60,1.0,63,1,0,0,120,64,100,80
5875.0,60,1.0,63,1,0,0,120,64,100,80
5876.0,71,1.0,63,1,0,0,120,64,100,80
5877.0,60,1.0,63,1,0,0,120,64,100,80
5878.0,62,1.0,63,1,0,0,120,64,100,80
5879.0,60,1.0,63,1,0,0,120,64,100,80
5880.0,60,1.0,63,1,0,0,120,64,100,80
5881.0,69,1.0,63,1,0,0,120,64,100,80
5882.0,67,1.0,63,1,0,0,120,64,100,80
5883.0,71,1.0,63,1,0,0,120,64,100,80
5884.0,64,1.0,63,1,0,0,120,64,100,80
5885.0,60,1.0,63,1,0,0,120,64,100,80
5886.0,62,1.0,63,1,0,0,120,64,100,80
5887.0,65,1.0,63,1,0,0,120,64,100,80
5888.0,71,1.0,63,1,0,0,120,64,100,80
5889.0,65,1.0,63,1,0,0,120,64,100,80
5890.0,69,1.0,63,1,0,0,120,64,100,80
5891.0,60,1.0,63,1,0,0,120,64,100,80
5892.0,64,1.0,63,1,0,0,120,64,100,80
5893.0,69,1.0,63,1,0,0,120,64,100,80
5894.0,69,1.0,63,1,0,0,120,64,100,80
5895.0,64,1.0,63,1,0,0,120,64,100,80
5896.0,65,1.0,63,1,0,0,120,64,100,80
5897.0,60,1.0,63,1,0,0,120,64,100,80
5898.0,65,1.0,63,1,0,0,120,64,100,80
5899.0,64,1.0,63,1,0,0,120,64,100,80
5900.0,64,1.0,63,1,0,0,120,64,100,80
5901.0,71,1.0,63,1,0,0,120,64,100,80
5902.0,65,1.0,63,1,0,0,120,64,100,80
5903.0,64,1.0,63,1,0,0,120,64,100,80
5904.0,67,1.0,63,1,0,0,120,64,100,80
5905.0,64,1.0,63,1,0,0,120,64,100,80
5906.0,67,1.0,63,1,0,0,120,64,100,80
5907.0,64,1.0,63,1,0,0,120,64,100,80
5908.0,60,1.0,63,1,0,0,120,64,100,80
5909.0,62,1.0,63,1,0,0,120,64,100,80
5910.0,65,1.0,63,1,0,0,120,64,100,80
5911.0,64,1.0,63,1,0,0,120,64,100,80
5912.0,64,1.0,63,1,0,0,120,64,100,80
5913.0,65,1.0,63,1,0,0,120,64,100,80
5914.0,64,1.0,63,1,0,0,120,64,100,80
5915.0,67,1.0,63,1,0,0,120,64,100,80
5916.0,64,1.0,63,1,0,0,120,64,100,80
5917.0,62,1.0,63,1,0,0,120,64,100,80
5918.0,62,1.0,63,1,0,0,120,64,100,80
5919.0,60,1.0,63,1,0,0,120,64,100,80
5920.0,64,1.0,63,1,0,0,120,64,100,80
5921.0,69,1.0,63,1,0,0,120,64,100,80
5922.0,71,1.0,63,1,0,0,120,64,100,80
5923.0,64,1.0,63,1,0,0,120,64,100,80
5924.0,65,1.0,63,1,0,0,120,64,100,80
5925.0,64,1.0,63,1,0,0,120,64,100,80
5926.0,65,1.0,63,1,0,0,120,64,100,80
5927.0,62,1.0,63,1,0,0,120,64,100,80
5928.0,64,1.0,63,1,0,0,120,64,100,80
5929.0,60,1.0,63,1,0,0,120,64,100,80
5930.0,64,1.0,63,1,0,0,120,64,100,80
5931.0,65,1.0,63,1,0,0,120,64,100,80
5932.0,65,1.0,63,1,0,0,120,64,100,80
5933.0,62,1.0,63,1,0,0,120,64,100,80
5934.0,71,1.0,63,1,0,0,120,64,100,80
5935.0,64,1.0,63,1,0,0,120,64,100,80
5936.0,60,1.0,63,1,0,0,120,64,100,80
5937.0,69,1.0,63,1,0,0,120,64,100,80
5938.0,64,1.0,63,1,0,0,120,64,100,80
5939.0,65,1.0,63,1,0,0,120,64,100,80
5940.0,71,1.0,63,1,0,0,120,64,100,80
5941.0,60,1.0,63,1,0,0,120,64,100,80
5942.0,64,1.0,63,1,0,0,120,64,100,80
5943.0,65,1.0,63,1,0,0,120,64,100,80
5944.0,69,1.0,63,1,0,0,120,64,100,80
5945.0,62,1.0,63,1,0,0,120,64,100,80
5946.0,60,1.0,63,1,0,0,120,64,100,80
5947.0,69,1.0,63,1,0,0,120,64,100,80
5948.0,62,1.0,63,1,0,0,120,64,100,80
5949.0,60,1.0,63,1,0,0,120,64,100,80
5950.0,62,1.0,63,1,0,0,120,64,100,80
5951.0,69,1.0,63,1,0,0,120,64,100,80
5952.0,64,1.0,63,1,0,0,120,64,100,80
5953.0,69,1.0,63,1,0,0,120,64,100,80
5954.0,64,1.0,63,1,0,0,120,64,100,80
5955.0,65,1.0,63,1,0,0,120,64,100,80
5956.0,64,1.0,63,1,0,0,120,64,100,80
5957.0,69,1.0,63,1,0,0,120,64,100,80
5958.0,62,1.0,63,1,0,0,120,64,100,80
5959.0,65,1.0,63,1,0,0,120,64,100,80
5960.0,60,1.0,63,1,0,0,120,64,100,80
5961.0,69,1.0,63,1,0,0,120,64,100,80
5962.0,64,1.0,63,1,0,0,120,64,100,80
5963.0,64,1.0,63,1,0,0,120,64,100,80
5964.0,60,1.0,63,1,0,0,120,64,100,80
5965.0,69,1.0,63,1,0,0,120,64,100,80
5966.0,64,1.0,63,1,0,0,120,64,100,80
5967.0,62,1.0,63,1,0,0,120,64,100,80
5968.0,64,1.0,63,1,0,0,120,64,100,80
5969.0,69,1.0,63,1,0,0,120,64,100,80
5970.0,65,1.0,63,1,0,0,120,64,100,80
5971.0,65,1.0,63,1,0,0,120,64,100,80
5972.0,65,1.0,63,1,0,0,120,64,100,80
5973.0,64,1.0,63,1,0,0,120,64,100,80
5974.0,64,1.0,63,1,0,0,120,64,100,80
5975.0,64,1.0,63,1,0,0,120,64,100,80
5976.0,64,1.0,63,1,0,0,120,64,100,80
5977.0,64,1.0,63,1,0,0,120,64,100,80
5978.0,69,1.0,63,1,0,0,120,64,100,80
5979.0,60,1.0,63,1,0,0,120,64,100,80
5980.0,65,1.0,63,1,0,0,120,64,100,80
5981.0,64,1.0,63,1,0,0,120,64,100,80
5982.0,65,1.0,63,1,0,0,120,64,100,80
5983.0,64,1.0,63,1,0,0,120,64,100,80
5984.0,64,1.0,63,1,0,0,120,64,100,80
5985.0,64,1.0,63,1,0,0,120,64,100,80
5986.0,62,1.0,63,1,0,0,120,64,100,80
5987.0,69,1.0,63,1,0,0,120,64,100,80
5988.0,60,1.0,63,1,0,0,120,64,100,80
5989.0,60,1.0,63,1,0,0,120,64,100,80
5990.0,62,1.0,63,1,0,0,120,64,100,80
5991.0,69,1.0,63,1,0,0,120,64,100,80
5992.0,64,1.0,63,1,0,0,120,64,100,80
5993.0,62,1.0,63,1,0,0,120,64,100,80
5994.0,65,1.0,63,1,0,0,120,64,100,80
5995.0,64,1.0,63,1,0,0,120,64,100,80
5996.0,65,1.0,63,1,0,0,120,64,100,80
5997.0,64,1.0,63,1,0,0,120,64,100,80
5998.0,65,1.0,63,1,0,0,120,64,100,80
5999.0,71,1.0,63,1,0,0,120,64,100,80
6000.0,65,1.0,63,1,0,0,120,64,100,80
6001.0,64,1.0,63,1,0,0,120,64,100,80
6002.0,60,1.0,63,1,0,0,120,64,100,80
6003.0,71,1.0,63,1,0,0,120,64,100,80
6004.0,60,1.0,63,1,0,0,120,64,100,80
6005.0,65,1.0,63,1,0,0,120,64,100,80
6006.0,64,1.0,63,1,0,0,120,64,100,80
6007.0,60,1.0,63,1,0,0,120,64,100,80
6008.0,60,1.0,63,1,0,0,120,64,100,80
6009.0,60,1.0,63,1,0,0,120,64,100,80
6010.0,62,1.0,63,1,0,0,120,64,100,80
6011.0,60,1.0,63,1,0,0,120,64,100,80
6012.0,64,1.0,63,1,0,0,120,64,100,80
6013.0,60,1.0,63,1,0,0,120,64,100,80
6014.0,64,1.0,63,1,0,0,120,64,100,80
6015.0,60,1.0,63,1,0,0,120,64,100,80
6016.0,62,1.0,63,1,0,0,120,64,100,80
6017.0,62,1.0,63,1,0,0,120,64,100,80
6018.0,64,1.0,63,1,0,0,120,64,100,80
6019.0,60,1.0,63,1,0,0,120,64,100,80
6020.0,69,1.0,63,1,0,0,120,64,100,80
6021.0,62,1.0,63,1,0,0,120,64,100,80
6022.0,60,1.0,63,1,0,0,120,64,100,80
6023.0,65,1.0,63,1,0,0,120,64,100,80
6024.0,60,1.0,63,1,0,0,120,64,100,80
6025.0,60,1.0,63,1,0,0,120,64,100,80
6026.0,62,1.0,63,1,0,0,120,64,100,80
6027.0,65,1.0,63,1,0,0,120,64,100,80
6028.0,64,1.0,63,1,0,0,120,64,100,80
6029.0,62,1.0,63,1,0,0,120,64,100,80
6030.0,60,1.0,63,1,0,0,120,64,100,80
6031.0,60,1.0,63,1,0,0,120,64,100,80
6032.0,60,1.0,63,1,0,0,120,64,100,80
6033.0,69,1.0,63,1,0,0,120,64,100,80
6034.0,64,1.0,63,1,0,0,120,64,100,80
6035.0,60,1.0,63,1,0,0,120,64,100,80
6036.0,62,1.0,63,1,0,0,120,64,100,80
6037.0,60,1.0,63,1,0,0,120,64,100,80
6038.0,69,1.0,63,1,0,0,120,64,100,80
6039.0,64,1.0,63,1,0,0,120,64,100,80
6040.0,60,1.0,63,1,0,0,120,64,100,80
6041.0,60,1.0,63,1,0,0,120,64,100,80
6042.0,71,1.0,63,1,0,0,120,64,100,80
6043.0,64,1.0,63,1,0,0,120,64,100,80
6044.0,71,1.0,63,1,0,0,120,64,100,80
6045.0,62,1.0,63,1,0,0,120,64,100,80
6046.0,71,1.0,63,1,0,0,120,64,100,80
6047.0,62,1.0,63,1,0,0,120,64,100,80
6048.0,69,1.0,63,1,0,0,120,64,100,80
6049.0,60,1.0,63,1,0,0,120,64,100,80
6050.0,62,1.0,63,1,0,0,120,64,100,80
6051.0,64,1.0,63,1,0,0,120,64,100,80
6052.0,65,1.0,63,1,0,0,120,64,100,80
6053.0,60,1.0,63,1,0,0,120,64,100,80
6054.0,62,1.0,63,1,0,0,120,64,100,80
6055.0,65,1.0,63,1,0,0,120,64,100,80
6056.0,64,1.0,63,1,0,0,120,64,100,80
6057.0,60,1.0,63,1,0,0,120,64,100,80
6058.0,60,1.0,63,1,0,0,120,64,100,80
6059.0,65,1.0,63,1,0,0,120,64,100,80
6060.0,65,1.0,63,1,0,0,120,64,100,80
6061.0,64,1.0,63,1,0,0,120,64,100,80
6062.0,60,1.0,63,1,0,0,120,64,100,80
6063.0,64,1.0,63,1,0,0,120,64,100,80
6064.0,60,1.0,63,1,0,0,120,64,100,80
6065.0,60,1.0,63,1,0,0,120,64,100,80
6066.0,60,1.0,63,1,0,0,120,64,100,80
6067.0,65,1.0,63,1,0,0,120,64,100,80
6068.0,60,1.0,63,1,0,0,120,64,100,80
6069.0,71,1.0,63,1,0,0,120,64,100,80
6070.0,64,1.0,63,1,0,0,120,64,100,80
6071.0,65,1.0,63,1,0,0,120,64,100,80
6072.0,60,1.0,63,1,0,0,120,64,100,80
6073.0,62,1.0,63,1,0,0,120,64,100,80
6074.0,60,1.0,63,1,0,0,120,64,100,80
6075.0,60,1.0,63,1,0,0,120,64,100,80
6076.0,62,1.0,63,1,0,0,120,64,100,80
6077.0,69,1.0,63,1,0,0,120,64,100,80
6078.0,60,1.0,63,1,0,0,120,64,100,80
6079.0,65,1.0,63,1,0,0,120,64,100,80
6080.0,62,1.0,63,1,0,0,120,64,100,80
6081.0,65,1.0,63,1,0,0,120,64,100,80
6082.0,60,1.0,63,1,0,0,120,64,100,80
6083.0,62,1.0,63,1,0,0,120,64,100,80
6084.0,62,1.0,63,1,0,0,120,64,100,80
6085.0,60,1.0,63,1,0,0,120,64,100,80
6086.0,64,1.0,63,1,0,0,120,64,100,80
6087.0,60,1.0,63,1,0,0,120,64,100,80
6088.0,64,1.0,63,1,0,0,120,64,100,80
6089.0,60,1.0,63,1,0,0,120,64,100,80
6090.0,62,1.0,63,1,0,0,120,64,100,80
6091.0,60,1.0,63,1,0,0,120,64,100,80
6092.0,64,1.0,63,1,0,0,120,64,100,80
6093.0,62,1.0,63,1,0,0,120,64,100,80
6094.0,60,1.0,63,1,0,0,120,64,100,80
6095.0,71,1.0,63,1,0,0,120,64,100,80
6096.0,60,1.0,63,1,0,0,120,64,100,80
6097.0,69,1.0,63,1,0,0,120,64,100,80
6098.0,64,1.0,63,1,0,0,120,64,100,80
6099.0,67,1.0,63,1,0,0,120,64,100,80
6100.0,64,1.0,63,1,0,0,120,64,100,80
6101.0,71,1.0,63,1,0,0,120,64,100,80
6102.0,60,1.0,63,1,0,0,120,64,100,80
6103.0,64,1.0,63,1,0,0,120,64,100,80
6104.0,62,1.0,63,1,0,0,120,64,100,80
6105.0,64,1.0,63,1,0,0,120,64,100,80
6106.0,64,1.0,63,1,0,0,120,64,100,80
6107.0,65,1.0,63,1,0,0,120,64,100,80
6108.0,65,1.0,63,1,0,0,120,64,100,80
6109.0,65,1.0,63,1,0,0,120,64,100,80
6110.0,60,1.0,63,1,0,0,120,64,100,80
6111.0,60,1.0,63,1,0,0,120,64,100,80
6112.0,69,1.0,63,1,0,0,120,64,100,80
6113.0,69,1.0,63,1,0,0,120,64,100,80
6114.0,65,1.0,63,1,0,0,120,64,100,80
6115.0,62,1.0,63,1,0,0,120,64,100,80
6116.0,62,1.0,63,1,0,0,120,64,100,80
6117.0,64,1.0,63,1,0,0,120,64,100,80
6118.0,69,1.0,63,1,0,0,120,64,100,80
6119.0,60,1.0,63,1,0,0,120,64,100,80
6120.0,60,1.0,63,1,0,0,120,64,100,80
6121.0,62,1.0,63,1,0,0,120,64,100,80
6122.0,60,1.0,63,1,0,0,120,64,100,80
6123.0,62,1.0,63,1,0,0,120,64,100,80
6124.0,69,1.0,63,1,0,0,120,64,100,80
6125.0,71,1.0,63,1,0,0,120,64,100,80
6126.0,65,1.0,63,1,0,0,120,64,100,80
6127.0,60,1.0,63,1,0,0,120,64,100,80
6128.0,60,1.0,63,1,0,0,120,64,100,80
6129.0,60,1.0,63,1,0,0,120,64,100,80
6130.0,64,1.0,63,1,0,0,120,64,100,80
6131.0,64,1.0,63,1,0,0,120,64,100,80
6132.0,69,1.0,63,1,0,0,120,64,100,80
6133.0,69,1.0,63,1,0,0,120,64,100,80
6134.0,64,1.0,63,1,0,0,120,64,100,80
6135.0,71,1.0,63,1,0,0,120,64,100,80
6136.0,69,1.0,63,1,0,0,120,64,100,80
6137.0,60,1.0,63,1,0,0,120,64,100,80
6138.0,65,1.0,63,1,0,0,120,64,100,80
6139.0,60,1.0,63,1,0,0,120,64,100,80
6140.0,69,1.0,63,1,0,0,120,64,100,80
6141.0,62,1.0,63,1,0,0,120,64,100,80
6142.0,69,1.0,63,1,0,0,120,64,100,80
6143.0,69,1.0,63,1,0,0,120,64,100,80
6144.0,71,1.0,63,1,0,0,120,64,100,80
6145.0,69,1.0,63,1,0,0,120,64,100,80
6146.0,64,1.0,63,1,0,0,120,64,100,80
6147.0,64,1.0,63,1,0,0,120,64,100,80
6148.0,60,1.0,63,1,0,0,120,64,100,80
6149.0,62,1.0,63,1,0,0,120,64,100,80
6150.0,71,1.0,63,1,0,0,120,64,100,80
6151.0,69,1.0,63,1,0,0,120,64,100,80
6152.0,64,1.0,63,1,0,0,120,64,100,80
6153.0,62,1.0,63,1,0,0,120,64,100,80
6154.0,62,1.0,63,1,0,0,120,64,100,80
6155.0,65,1.0,63,1,0,0,120,64,100,80
6156.0,64,1.0,63,1,0,0,120,64,100,80
6157.0,64,1.0,63,1,0,0,120,64,100,80
6158.0,71,1.0,63,1,0,0,120,64,100,80
6159.0,69,1.0,63,1,0,0,120,64,100,80
6160.0,64,1.0,63,1,0,0,120,64,100,80
6161.0,71,1.0,63,1,0,0,120,64,100,80
6162.0,69,1.0,63,1,0,0,120,64,100,80
6163.0,65,1.0,63,1,0,0,120,64,100,80
6164.0,0,1.0,63,1,0,0,120,64,100,80
6165.0,71,1.0,63,1,0,0,120,64,100,80
6166.0,71,1.0,63,1,0,0,120,64,100,80
6167.0,69,1.0,63,1,0,0,120,64,100,80
6168.0,67,1.0,63,1,0,0,120,64,100,80
6169.0,69,1.0,63,1,0,0,120,64,100,80
6170.0,67,1.0,63,1,0,0,120,64,100,80
6171.0,71,1.0,63,1,0,0,120,64,100,80
6172.0,62,1.0,63,1,0,0,120,64,100,80
6173.0,62,1.0,63,1,0,0,120,64,100,80
6174.0,60,1.0,63,1,0,0,120,64,100,80
6175.0,60,1.0,63,1,0,0,120,64,100,80
6176.0,71,1.0,63,1,0,0,120,64,100,80
6177.0,69,1.0,63,1,0,0,120,64,100,80
6178.0,64,1.0,63,1,0,0,120,64,100,80
6179.0,60,1.0,63,1,0,0,120,64,100,80
6180.0,69,1.0,63,1,0,0,120,64,100,80
6181.0,60,1.0,63,1,0,0,120,64,100,80
6182.0,69,1.0,63,1,0,0,120,64,100,80
6183.0,60,1.0,63,1,0,0,120,64,100,80
6184.0,64,1.0,63,1,0,0,120,64,100,80
6185.0,67,1.0,63,1,0,0,120,64,100,80
6186.0,69,1.0,63,1,0,0,120,64,100,80
6187.0,60,1.0,63,1,0,0,120,64,100,80
6188.0,67,1.0,63,1,0,0,120,64,100,80
6189.0,69,1.0,63,1,0,0,120,64,100,80
6190.0,69,1.0,63,1,0,0,120,64,100,80
6191.0,60,1.0,63,1,0,0,120,64,100,80
6192.0,60,1.0,63,1,0,0,120,64,100,80
6193.0,60,1.0,63,1,0,0,120,64,100,80
6194.0,60,1.0,63,1,0,0,120,64,100,80
6195.0,65,1.0,63,1,0,0,120,64,100,80
6196.0,64,1.0,63,1,0,0,120,64,100,80
6197.0,64,1.0,63,1,0,0,120,64,100,80
6198.0,69,1.0,63,1,0,0,120,64,100,80
6199.0,65,1.0,63,1,0,0,120,64,100,80
6200.0,64,1.0,63,1,0,0,120,64,100,80
6201.0,65,1.0,63,1,0,0,120,64,100,80
6202.0,60,1.0,63,1,0,0,120,64,100,80
6203.0,71,1.0,63,1,0,0,120,64,100,80
6204.0,60,1.0,63,1,0,0,120,64,100,80
6205.0,64,1.0,63,1,0,0,120,64,100,80
6206.0,67,1.0,63,1,0,0,120,64,100,80
6207.0,69,1.0,63,1,0,0,120,64,100,80
6208.0,62,1.0,63,1,0,0,120,64,100,80
6209.0,64,1.0,63,1,0,0,120,64,100,80
6210.0,69,1.0,63,1,0,0,120,64,100,80
6211.0,60,1.0,63,1,0,0,120,64,100,80
6212.0,60,1.0,63,1,0,0,120,64,100,80
6213.0,69,1.0,63,1,0,0,120,64,100,80
6214.0,60,1.0,63,1,0,0,120,64,100,80
6215.0,60,1.0,63,1,0,0,120,64,100,80
6216.0,60,1.0,63,1,0,0,120,64,100,80
6217.0,69,1.0,63,1,0,0,120,64,100,80
6218.0,60,1.0,63,1,0,0,120,64,100,80
6219.0,62,1.0,63,1,0,0,120,64,100,80
6220.0,67,1.0,63,1,0,0,120,64,100,80
6221.0,60,1.0,63,1,0,0,120,64,100,80
6222.0,64,1.0,63,1,0,0,120,64,100,80
6223.0,60,1.0,63,1,0,0,120,64,100,80
6224.0,60,1.0,63,1,0,0,120,64,100,80
6225.0,60,1.0,63,1,0,0,120,64,100,80
6226.0,62,1.0,63,1,0,0,120,64,100,80
6227.0,69,1.0,63,1,0,0,120,64,100,80
6228.0,71,1.0,63,1,0,0,120,64,100,80
6229.0,69,1.0,63,1,0,0,120,64,100,80
6230.0,60,1.0,63,1,0,0,120,64,100,80
6231.0,69,1.0,63,1,0,0,120,64,100,80
6232.0,69,1.0,63,1,0,0,120,64,100,80
6233.0,71,1.0,63,1,0,0,120,64,100,80
6234.0,64,1.0,63,1,0,0,120,64,100,80
6235.0,64,1.0,63,1,0,0,120,64,100,80
6236.0,62,1.0,63,1,0,0,120,64,100,80
6237.0,64,1.0,63,1,0,0,120,64,100,80
6238.0,65,1.0,63,1,0,0,120,64,100,80
6239.0,67,1.0,63,1,0,0,120,64,100,80
6240.0,60,1.0,63,1,0,0,120,64,100,80
6241.0,62,1.0,63,1,0,0,120,64,100,80
6242.0,62,1.0,63,1,0,0,120,64,100,80
6243.0,60,1.0,63,1,0,0,120,64,100,80
6244.0,69,1.0,63,1,0,0,120,64,100,80
6245.0,60,1.0,63,1,0,0,120,64,100,80
6246.0,71,1.0,63,1,0,0,120,64,100,80
6247.0,60,1.0,63,1,0,0,120,64,100,80
6248.0,67,1.0,63,1,0,0,120,64,100,80
6249.0,64,1.0,63,1,0,0,120,64,100,80
6250.0,69,1.0,63,1,0,0,120,64,100,80
6251.0,60,1.0,63,1,0,0,120,64,100,80
6252.0,64,1.0,63,1,0,0,120,64,100,80
6253.0,71,1.0,63,1,0,0,120,64,100,80
6254.0,69,1.0,63,1,0,0,120,64,100,80
6255.0,62,1.0,63,1,0,0,120,64,100,80
6256.0,71,1.0,63,1,0,0,120,64,100,80
6257.0,60,1.0,63,1,0,0,120,64,100,80
6258.0,0,1.0,63,1,0,0,120,64,100,80
6259.0,64,1.0,63,1,0,0,120,64,100,80
6260.0,60,1.0,63,1,0,0,120,64,100,80
6261.0,71,1.0,63,1,0,0,120,64,100,80
6262.0,64,1.0,63,1,0,0,120,64,100,80
6263.0,69,1.0,63,1,0,0,120,64,100,80
6264.0,60,1.0,63,1,0,0,120,64,100,80
6265.0,67,1.0,63,1,0,0,120,64,100,80
6266.0,60,1.0,63,1,0,0,120,64,100,80
6267.0,69,1.0,63,1,0,0,120,64,100,80
6268.0,65,1.0,63,1,0,0,120,64,100,80
6269.0,69,1.0,63,1,0,0,120,64,100,80
6270.0,60,1.0,63,1,0,0,120,64,100,80
6271.0,62,1.0,63,1,0,0,120,64,100,80
6272.0,62,1.0,63,1,0,0,120,64,100,80
6273.0,60,1.0,63,1,0,0,120,64,100,80
6274.0,60,1.0,63,1,0,0,120,64,100,80
6275.0,62,1.0,63,1,0,0,120,64,100,80
6276.0,69,1.0,63,1,0,0,120,64,100,80
6277.0,64,1.0,63,1,0,0,120,64,100,80
6278.0,62,1.0,63,1,0,0,120,64,100,80
6279.0,69,1.0,63,1,0,0,120,64,100,80
6280.0,69,1.0,63,1,0,0,120,64,100,80
6281.0,64,1.0,63,1,0,0,120,64,100,80
6282.0,60,1.0,63,1,0,0,120,64,100,80
6283.0,71,1.0,63,1,0,0,120,64,100,80
6284.0,71,1.0,63,1,0,0,120,64,100,80
6285.0,64,1.0,63,1,0,0,120,64,100,80
6286.0,69,1.0,63,1,0,0,120,64,100,80
6287.0,62,1.0,63,1,0,0,120,64,100,80
6288.0,64,1.0,63,1,0,0,120,64,100,80
6289.0,65,1.0,63,1,0,0,120,64,100,80
6290.0,71,1.0,63,1,0,0,120,64,100,80
6291.0,71,1.0,63,1,0,0,120,64,100,80
6292.0,60,1.0,63,1,0,0,120,64,100,80
6293.0,60,1.0,63,1,0,0,120,64,100,80
6294.0,60,1.0,63,1,0,0,120,64,100,80
6295.0,0,1.0,63,1,0,0,120,64,100,80
6296.0,60,1.0,63,1,0,0,120,64,100,80
6297.0,69,1.0,63,1,0,0,120,64,100,80
6298.0,64,1.0,63,1,0,0,120,64,100,80
6299.0,71,1.0,63,1,0,0,120,64,100,80
6300.0,60,1.0,63,1,0,0,120,64,100,80
6301.0,71,1.0,63,1,0,0,120,64,100,80
6302.0,60,1.0,63,1,0,0,120,64,100,80
6303.0,0,1.0,63,1,0,0,120,64,100,80
6304.0,62,1.0,63,1,0,0,120,64,100,80
6305.0,64,1.0,63,1,0,0,120,64,100,80
6306.0,71,1.0,63,1,0,0,120,64,100,80
6307.0,60,1.0,63,1,0,0,120,64,100,80
6308.0,60,1.0,63,1,0,0,120,64,100,80
6309.0,62,1.0,63,1,0,0,120,64,100,80
6310.0,67,1.0,63,1,0,0,120,64,100,80
6311.0,60,1.0,63,1,0,0,120,64,100,80
6312.0,64,1.0,63,1,0,0,120,64,100,80
6313.0,69,1.0,63,1,0,0,120,64,100,80
6314.0,60,1.0,63,1,0,0,120,64,100,80
6315.0,64,1.0,63,1,0,0,120,64,100,80
6316.0,69,1.0,63,1,0,0,120,64,100,80
6317.0,69,1.0,63,1,0,0,120,64,100,80
6318.0,69,1.0,63,1,0,0,120,64,100,80
6319.0,60,1.0,63,1,0,0,120,64,100,80
6320.0,69,1.0,63,1,0,0,120,64,100,80
6321.0,60,1.0,63,1,0,0,120,64,100,80
6322.0,64,1.0,63,1,0,0,120,64,100,80
6323.0,71,1.0,63,1,0,0,120,64,100,80
6324.0,64,1.0,63,1,0,0,120,64,100,80
6325.0,64,1.0,63,1,0,0,120,64,100,80
6326.0,71,1.0,63,1,0,0,120,64,100,80
6327.0,64,1.0,63,1,0,0,120,64,100,80
6328.0,60,1.0,63,1,0,0,120,64,100,80
6329.0,71,1.0,63,1,0,0,120,64,100,80
6330.0,0,1.0,63,1,0,0,120,64,100,80
6331.0,65,1.0,63,1,0,0,120,64,100,80
6332.0,62,1.0,63,1,0,0,120,64,100,80
6333.0,62,1.0,63,1,0,0,120,64,100,80
6334.0,60,1.0,63,1,0,0,120,64,100,80
6335.0,62,1.0,63,1,0,0,120,64,100,80
6336.0,67,1.0,63,1,0,0,120,64,100,80
6337.0,60,1.0,63,1,0,0,120,64,100,80
6338.0,60,1.0,63,1,0,0,120,64,100,80
6339.0,60,1.0,63,1,0,0,120,64,100,80
6340.0,62,1.0,63,1,0,0,120,64,100,80
6341.0,65,1.0,63,1,0,0,120,64,100,80
6342.0,71,1.0,63,1,0,0,120,64,100,80
6343.0,65,1.0,63,1,0,0,120,64,100,80
6344.0,71,1.0,63,1,0,0,120,64,100,80
6345.0,69,1.0,63,1,0,0,120,64,100,80
6346.0,69,1.0,63,1,0,0,120,64,100,80
6347.0,60,1.0,63,1,0,0,120,64,100,80
6348.0,62,1.0,63,1,0,0,120,64,100,80
6349.0,62,1.0,63,1,0,0,120,64,100,80
6350.0,62,1.0,63,1,0,0,120,64,100,80
6351.0,60,1.0,63,1,0,0,120,64,100,80
6352.0,60,1.0,63,1,0,0,120,64,100,80
6353.0,62,1.0,63,1,0,0,120,64,100,80
6354.0,64,1.0,63,1,0,0,120,64,100,80
6355.0,60,1.0,63,1,0,0,120,64,100,80
6356.0,60,1.0,63,1,0,0,120,64,100,80
6357.0,60,1.0,63,1,0,0,120,64,100,80
6358.0,60,1.0,63,1,0,0,120,64,100,80
6359.0,62,1.0,63,1,0,0,120,64,100,80
6360.0,69,1.0,63,1,0,0,120,64,100,80
6361.0,65,1.0,63,1,0,0,120,64,100,80
6362.0,62,1.0,63,1,0,0,120,64,100,80
6363.0,65,1.0,63,1,0,0,120,64,100,80
6364.0,64,1.0,63,1,0,0,120,64,100,80
6365.0,60,1.0,63,1,0,0,120,64,100,80
6366.0,67,1.0,63,1,0,0,120,64,100,80
6367.0,64,1.0,63,1,0,0,120,64,100,80
6368.0,64,1.0,63,1,0,0,120,64,100,80
6369.0,71,1.0,63,1,0,0,120,64,100,80
6370.0,69,1.0,63,1,0,0,120,64,100,80
6371.0,62,1.0,63,1,0,0,120,64,100,80
6372.0,64,1.0,63,1,0,0,120,64,100,80
6373.0,60,1.0,63,1,0,0,120,64,100,80
6374.0,0,1.0,63,1,0,0,120,64,100,80
6375.0,67,1.0,63,1,0,0,120,64,100,80
6376.0,60,1.0,63,1,0,0,120,64,100,80
6377.0,60,1.0,63,1,0,0,120,64,100,80
6378.0,67,1.0,63,1,0,0,120,64,100,80
6379.0,64,1.0,63,1,0,0,120,64,100,80
6380.0,71,1.0,63,1,0,0,120,64,100,80
6381.0,60,1.0,63,1,0,0,120,64,100,80
6382.0,67,1.0,63,1,0,0,120,64,100,80
6383.0,69,1.0,63,1,0,0,120,64,100,80
6384.0,69,1.0,63,1,0,0,120,64,100,80
6385.0,65,1.0,63,1,0,0,120,64,100,80
6386.0,0,1.0,63,1,0,0,120,64,100,80
6387.0,64,1.0,63,1,0,0,120,64,100,80
6388.0,71,1.0,63,1,0,0,120,64,100,80
6389.0,60,1.0,63,1,0,0,120,64,100,80
6390.0,60,1.0,63,1,0,0,120,64,100,80
6391.0,64,1.0,63,1,0,0,120,64,100,80
6392.0,69,1.0,63,1,0,0,120,64,100,80
6393.0,60,1.0,63,1,0,0,120,64,100,80
6394.0,69,1.0,63,1,0,0,120,64,100,80
6395.0,62,1.0,63,1,0,0,120,64,100,80
6396.0,62,1.0,63,1,0,0,120,64,100,80
6397.0,62,1.0,63,1,0,0,120,64,100,80
6398.0,69,1.0,63,1,0,0,120,64,100,80
6399.0,62,1.0,63,1,0,0,120,64,100,80
6400.0,64,1.0,63,1,0,0,120,64,100,80
6401.0,69,1.0,63,1,0,0,120,64,100,80
6402.0,62,1.0,63,1,0,0,120,64,100,80
6403.0,64,1.0,63,1,0,0,120,64,100,80
6404.0,64,1.0,63,1,0,0,120,64,100,80
6405.0,64,1.0,63,1,0,0,120,64,100,80
6406.0,67,1.0,63,1,0,0,120,64,100,80
6407.0,60,1.0,63,1,0,0,120,64,100,80
6408.0,64,1.0,63,1,0,0,120,64,100,80
6409.0,69,1.0,63,1,0,0,120,64,100,80
6410.0,60,1.0,63,1,0,0,120,64,100,80
6411.0,60,1.0,63,1,0,0,120,64,100,80
6412.0,60,1.0,63,1,0,0,120,64,100,80
6413.0,60,1.0,63,1,0,0,120,64,100,80
6414.0,60,1.0,63,1,0,0,120,64,100,80
6415.0,62,1.0,63,1,0,0,120,64,100,80
6416.0,65,1.0,63,1,0,0,120,64,100,80
6417.0,67,1.0,63,1,0,0,120,64,100,80
6418.0,60,1.0,63,1,0,0,120,64,100,80
6419.0,67,1.0,63,1,0,0,120,64,100,80
6420.0,60,1.0,63,1,0,0,120,64,100,80
6421.0,62,1.0,63,1,0,0,120,64,100,80
6422.0,60,1.0,63,1,0,0,120,64,100,80
6423.0,71,1.0,63,1,0,0,120,64,100,80
6424.0,60,1.0,63,1,0,0,120,64,100,80
6425.0,60,1.0,63,1,0,0,120,64,100,80
6426.0,71,1.0,63,1,0,0,120,64,100,80
6427.0,69,1.0,63,1,0,0,120,64,100,80
6428.0,62,1.0,63,1,0,0,120,64,100,80
6429.0,65,1.0,63,1,0,0,120,64,100,80
6430.0,60,1.0,63,1,0,0,120,64,100,80
6431.0,62,1.0,63,1,0,0,120,64,100,80
6432.0,62,1.0,63,1,0,0,120,64,100,80
6433.0,62,1.0,63,1,0,0,120,64,100,80
6434.0,60,1.0,63,1,0,0,120,64,100,80
6435.0,60,1.0,63,1,0,0,120,64,100,80
6436.0,62,1.0,63,1,0,0,120,64,100,80
6437.0,67,1.0,63,1,0,0,120,64,100,80
6438.0,62,1.0,63,1,0,0,120,64,100,80
6439.0,64,1.0,63,1,0,0,120,64,100,80
6440.0,69,1.0,63,1,0,0,120,64,100,80
6441.0,65,1.0,63,1,0,0,120,64,100,80
6442.0,71,1.0,63,1,0,0,120,64,100,80
6443.0,69,1.0,63,1,0,0,120,64,100,80
6444.0,62,1.0,63,1,0,0,120,64,100,80
6445.0,71,1.0,63,1,0,0,120,64,100,80
6446.0,65,1.0,63,1,0,0,120,64,100,80
6447.0,69,1.0,63,1,0,0,120,64,100,80
6448.0,60,1.0,63,1,0,0,120,64,100,80
6449.0,64,1.0,63,1,0,0,120,64,100,80
6450.0,60,1.0,63,1,0,0,120,64,100,80
6451.0,64,1.0,63,1,0,0,120,64,100,80
6452.0,62,1.0,63,1,0,0,120,64,100,80
6453.0,60,1.0,63,1,0,0,120,64,100,80
6454.0,62,1.0,63,1,0,0,120,64,100,80
6455.0,60,1.0,63,1,0,0,120,64,100,80
6456.0,71,1.0,63,1,0,0,120,64,100,80
6457.0,69,1.0,63,1,0,0,120,64,100,80
6458.0,64,1.0,63,1,0,0,120,64,100,80
6459.0,62,1.0,63,1,0,0,120,64,100,80
6460.0,64,1.0,63,1,0,0,120,64,100,80
6461.0,62,1.0,63,1,0,0,120,64,100,80
6462.0,62,1.0,63,1,0,0,120,64,100,80
6463.0,69,1.0,63,1,0,0,120,64,100,80
6464.0,60,1.0,63,1,0,0,120,64,100,80
6465.0,71,1.0,63,1,0,0,120,64,100,80
6466.0,67,1.0,63,1,0,0,120,64,100,80
6467.0,62,1.0,63,1,0,0,120,64,100,80
6468.0,65,1.0,63,1,0,0,120,64,100,80
6469.0,64,1.0,63,1,0,0,120,64,100,80
6470.0,62,1.0,63,1,0,0,120,64,100,80
6471.0,62,1.0,63,1,0,0,120,64,100,80
6472.0,60,1.0,63,1,0,0,120,64,100,80
6473.0,62,1.0,63,1,0,0,120,64,100,80
6474.0,60,1.0,63,1,0,0,120,64,100,80
6475.0,64,1.0,63,1,0,0,120,64,100,80
6476.0,60,1.0,63,1,0,0,120,64,100,80
6477.0,60,1.0,63,1,0,0,120,64,100,80
6478.0,62,1.0,63,1,0,0,120,64,100,80
6479.0,62,1.0,63,1,0,0,120,64,100,80
6480.0,62,1.0,63,1,0,0,120,64,100,80
6481.0,71,1.0,63,1,0,0,120,64,100,80
6482.0,60,1.0,63,1,0,0,120,64,100,80
6483.0,64,1.0,63,1,0,0,120,64,100,80
6484.0,60,1.0,63,1,0,0,120,64,100,80
6485.0,69,1.0,63,1,0,0,120,64,100,80
6486.0,0,1.0,63,1,0,0,120,64,100,80
6487.0,62,1.0,63,1,0,0,120,64,100,80
6488.0,0,1.0,63,1,0,0,120,64,100,80
6489.0,60,1.0,63,1,0,0,120,64,100,80
6490.0,65,1.0,63,1,0,0,120,64,100,80
6491.0,69,1.0,63,1,0,0,120,64,100,80
6492.0,62,1.0,63,1,0,0,120,64,100,80
6493.0,60,1.0,63,1,0,0,120,64,100,80
6494.0,67,1.0,63,1,0,0,120,64,100,80
6495.0,60,1.0,63,1,0,0,120,64,100,80
6496.0,62,1.0,63,1,0,0,120,64,100,80
6497.0,60,1.0,63,1,0,0,120,64,100,80
6498.0,71,1.0,63,1,0,0,120,64,100,80
6499.0,60,1.0,63,1,0,0,120,64,100,80
6500.0,67,1.0,63,1,0,0,120,64,100,80
6501.0,60,1.0,63,1,0,0,120,64,100,80
6502.0,67,1.0,63,1,0,0,120,64,100,80
6503.0,60,1.0,63,1,0,0,120,64,100,80
6504.0,62,1.0,63,1,0,0,120,64,100,80
6505.0,64,1.0,63,1,0,0,120,64,100,80
6506.0,60,1.0,63,1,0,0,120,64,100,80
6507.0,60,1.0,63,1,0,0,120,64,100,80
6508.0,60,1.0,63,1,0,0,120,64,100,80
6509.0,62,1.0,63,1,0,0,120,64,100,80
6510.0,64,1.0,63,1,0,0,120,64,100,80
6511.0,67,1.0,63,1,0,0,120,64,100,80
6512.0,64,1.0,63,1,0,0,120,64,100,80
6513.0,60,1.0,63,1,0,0,120,64,100,80
6514.0,64,1.0,63,1,0,0,120,64,100,80
6515.0,64,1.0,63,1,0,0,120,64,100,80
6516.0,65,1.0,63,1,0,0,120,64,100,80
6517.0,65,1.0,63,1,0,0,120,64,100,80
6518.0,64,1.0,63,1,0,0,120,64,100,80
6519.0,60,1.0,63,1,0,0,120,64,100,80
6520.0,60,1.0,63,1,0,0,120,64,100,80
6521.0,64,1.0,63,1,0,0,120,64,100,80
6522.0,65,1.0,63,1,0,0,120,64,100,80
6523.0,64,1.0,63,1,0,0,120,64,100,80
6524.0,67,1.0,63,1,0,0,120,64,100,80
6525.0,0,1.0,63,1,0,0,120,64,100,80
6526.0,64,1.0,63,1,0,0,120,64,100,80
6527.0,64,1.0,63,1,0,0,120,64,100,80
6528.0,69,1.0,63,1,0,0,120,64,100,80
6529.0,60,1.0,63,1,0,0,120,64,100,80
6530.0,62,1.0,63,1,0,0,120,64,100,80
6531.0,69,1.0,63,1,0,0,120,64,100,80
6532.0,60,1.0,63,1,0,0,120,64,100,80
6533.0,65,1.0,63,1,0,0,120,64,100,80
6534.0,62,1.0,63,1,0,0,120,64,100,80
6535.0,69,1.0,63,1,0,0,120,64,100,80
6536.0,62,1.0,63,1,0,0,120,64,100,80
6537.0,71,1.0,63,1,0,0,120,64,100,80
6538.0,67,1.0,63,1,0,0,120,64,100,80
6539.0,65,1.0,63,1,0,0,120,64,100,80
6540.0,69,1.0,63,1,0,0,120,64,100,80
6541.0,69,1.0,63,1,0,0,120,64,100,80
6542.0,60,1.0,63,1,0,0,120,64,100,80
6543.0,60,1.0,63,1,0,0,120,64,100,80
6544.0,69,1.0,63,1,0,0,120,64,100,80
6545.0,67,1.0,63,1,0,0,120,64,100,80
6546.0,69,1.0,63,1,0,0,120,64,100,80
6547.0,60,1.0,63,1,0,0,120,64,100,80
6548.0,64,1.0,63,1,0,0,120,64,100,80
6549.0,60,1.0,63,1,0,0,120,64,100,80
6550.0,69,1.0,63,1,0,0,120,64,100,80
6551.0,67,1.0,63,1,0,0,120,64,100,80
6552.0,62,1.0,63,1,0,0,120,64,100,80
6553.0,62,1.0,63,1,0,0,120,64,100,80
6554.0,64,1.0,63,1,0,0,120,64,100,80
6555.0,71,1.0,63,1,0,0,120,64,100,80
6556.0,71,1.0,63,1,0,0,120,64,100,80
6557.0,64,1.0,63,1,0,0,120,64,100,80
6558.0,67,1.0,63,1,0,0,120,64,100,80
6559.0,60,1.0,63,1,0,0,120,64,100,80
6560.0,60,1.0,63,1,0,0,120,64,100,80
6561.0,67,1.0,63,1,0,0,120,64,100,80
6562.0,67,1.0,63,1,0,0,120,64,100,80
6563.0,69,1.0,63,1,0,0,120,64,100,80
6564.0,60,1.0,63,1,0,0,120,64,100,80
6565.0,62,1.0,63,1,0,0,120,64,100,80
6566.0,60,1.0,63,1,0,0,120,64,100,80
6567.0,64,1.0,63,1,0,0,120,64,100,80
6568.0,60,1.0,63,1,0,0,120,64,100,80
6569.0,60,1.0,63,1,0,0,120,64,100,80
6570.0,65,1.0,63,1,0,0,120,64,100,80
6571.0,60,1.0,63,1,0,0,120,64,100,80
6572.0,0,1.0,63,1,0,0,120,64,100,80
6573.0,62,1.0,63,1,0,0,120,64,100,80
6574.0,64,1.0,63,1,0,0,120,64,100,80
6575.0,60,1.0,63,1,0,0,120,64,100,80
6576.0,62,1.0,63,1,0,0,120,64,100,80
6577.0,65,1.0,63,1,0,0,120,64,100,80
6578.0,67,1.0,63,1,0,0,120,64,100,80
6579.0,67,1.0,63,1,0,0,120,64,100,80
6580.0,0,1.0,63,1,0,0,120,64,100,80
6581.0,60,1.0,63,1,0,0,120,64,100,80
6582.0,64,1.0,63,1,0,0,120,64,100,80
6583.0,67,1.0,63,1,0,0,120,64,100,80
6584.0,64,1.0,63,1,0,0,120,64,100,80
6585.0,60,1.0,63,1,0,0,120,64,100,80
6586.0,60,1.0,63,1,0,0,120,64,100,80
6587.0,60,1.0,63,1,0,0,120,64,100,80
6588.0,62,1.0,63,1,0,0,120,64,100,80
6589.0,62,1.0,63,1,0,0,120,64,100,80
6590.0,60,1.0,63,1,0,0,120,64,100,80
6591.0,60,1.0,63,1,0,0,120,64,100,80
6592.0,0,1.0,63,1,0,0,120,64,100,80
6593.0,71,1.0,63,1,0,0,120,64,100,80
6594.0,0,1.0,63,1,0,0,120,64,100,80
6595.0,64,1.0,63,1,0,0,120,64,100,80
6596.0,60,1.0,63,1,0,0,120,64,100,80
6597.0,67,1.0,63,1,0,0,120,64,100,80
6598.0,64,1.0,63,1,0,0,120,64,100,80
6599.0,60,1.0,63,1,0,0,120,64,100,80
6600.0,62,1.0,63,1,0,0,120,64,100,80
6601.0,64,1.0,63,1,0,0,120,64,100,80
6602.0,62,1.0,63,1,0,0,120,64,100,80
6603.0,60,1.0,63,1,0,0,120,64,100,80
6604.0,64,1.0,63,1,0,0,120,64,100,80
6605.0,69,1.0,63,1,0,0,120,64,100,80
6606.0,0,1.0,63,1,0,0,120,64,100,80
6607.0,64,1.0,63,1,0,0,120,64,100,80
6608.0,60,1.0,63,1,0,0,120,64,100,80
6609.0,69,1.0,63,1,0,0,120,64,100,80
6610.0,60,1.0,63,1,0,0,120,64,100,80
6611.0,60,1.0,63,1,0,0,120,64,100,80
6612.0,60,1.0,63,1,0,0,120,64,100,80
6613.0,62,1.0,63,1,0,0,120,64,100,80
6614.0,60,1.0,63,1,0,0,120,64,100,80
6615.0,67,1.0,63,1,0,0,120,64,100,80
6616.0,62,1.0,63,1,0,0,120,64,100,80
6617.0,64,1.0,63,1,0,0,120,64,100,80
6618.0,60,1.0,63,1,0,0,120,64,100,80
6619.0,60,1.0,63,1,0,0,120,64,100,80
6620.0,67,1.0,63,1,0,0,120,64,100,80
6621.0,64,1.0,63,1,0,0,120,64,100,80
6622.0,65,1.0,63,1,0,0,120,64,100,80
6623.0,71,1.0,63,1,0,0,120,64,100,80
6624.0,64,1.0,63,1,0,0,120,64,100,80
6625.0,65,1.0,63,1,0,0,120,64,100,80
6626.0,60,1.0,63,1,0,0,120,64,100,80
6627.0,60,1.0,63,1,0,0,120,64,100,80
6628.0,64,1.0,63,1,0,0,120,64,100,80
6629.0,65,1.0,63,1,0,0,120,64,100,80
6630.0,62,1.0,63,1,0,0,120,64,100,80
6631.0,71,1.0,63,1,0,0,120,64,100,80
6632.0,60,1.0,63,1,0,0,120,64,100,80
6633.0,62,1.0,63,1,0,0,120,64,100,80
6634.0,64,1.0,63,1,0,0,120,64,100,80
6635.0,69,1.0,63,1,0,0,120,64,100,80
6636.0,62,1.0,63,1,0,0,120,64,100,80
6637.0,60,1.0,63,1,0,0,120,64,100,80
6638.0,62,1.0,63,1,0,0,120,64,100,80
6639.0,60,1.0,63,1,0,0,120,64,100,80
6640.0,60,1.0,63,1,0,0,120,64,100,80
6641.0,67,1.0,63,1,0,0,120,64,100,80
6642.0,60,1.0,63,1,0,0,120,64,100,80
6643.0,69,1.0,63,1,0,0,120,64,100,80
6644.0,64,1.0,63,1,0,0,120,64,100,80
6645.0,60,1.0,63,1,0,0,120,64,100,80
6646.0,65,1.0,63,1,0,0,120,64,100,80
6647.0,62,1.0,63,1,0,0,120,64,100,80
6648.0,69,1.0,63,1,0,0,120,64,100,80
6649.0,64,1.0,63,1,0,0,120,64,100,80
6650.0,69,1.0,63,1,0,0,120,64,100,80
6651.0,62,1.0,63,1,0,0,120,64,100,80
6652.0,62,1.0,63,1,0,0,120,64,100,80
6653.0,62,1.0,63,1,0,0,120,64,100,80
6654.0,60,1.0,63,1,0,0,120,64,100,80
6655.0,60,1.0,63,1,0,0,120,64,100,80
6656.0,67,1.0,63,1,0,0,120,64,100,80
6657.0,62,1.0,63,1,0,0,120,64,100,80
6658.0,60,1.0,63,1,0,0,120,64,100,80
6659.0,62,1.0,63,1,0,0,120,64,100,80
6660.0,67,1.0,63,1,0,0,120,64,100,80
6661.0,69,1.0,63,1,0,0,120,64,100,80
6662.0,67,1.0,63,1,0,0,120,64,100,80
6663.0,62,1.0,63,1,0,0,120,64,100,80
6664.0,62,1.0,63,1,0,0,120,64,100,80
6665.0,62,1.0,63,1,0,0,120,64,100,80
6666.0,71,1.0,63,1,0,0,120,64,100,80
6667.0,62,1.0,63,1,0,0,120,64,100,80
6668.0,60,1.0,63,1,0,0,120,64,100,80
6669.0,64,1.0,63,1,0,0,120,64,100,80
6670.0,62,1.0,63,1,0,0,120,64,100,80
6671.0,60,1.0,63,1,0,0,120,64,100,80
6672.0,64,1.0,63,1,0,0,120,64,100,80
6673.0,60,1.0,63,1,0,0,120,64,100,80
6674.0,69,1.0,63,1,0,0,120,64,100,80
6675.0,65,1.0,63,1,0,0,120,64,100,80
6676.0,60,1.0,63,1,0,0,120,64,100,80
6677.0,60,1.0,63,1,0,0,120,64,100,80
6678.0,64,1.0,63,1,0,0,120,64,100,80
6679.0,60,1.0,63,1,0,0,120,64,100,80
6680.0,0,1.0,63,1,0,0,120,64,100,80
6681.0,62,1.0,63,1,0,0,120,64,100,80
6682.0,60,1.0,63,1,0,0,120,64,100,80
6683.0,62,1.0,63,1,0,0,120,64,100,80
6684.0,69,1.0,63,1,0,0,120,64,100,80
6685.0,60,1.0,63,1,0,0,120,64,100,80
6686.0,65,1.0,63,1,0,0,120,64,100,80
6687.0,64,1.0,63,1,0,0,120,64,100,80
6688.0,62,1.0,63,1,0,0,120,64,100,80
6689.0,62,1.0,63,1,0,0,120,64,100,80
6690.0,65,1.0,63,1,0,0,120,64,100,80
6691.0,60,1.0,63,1,0,0,120,64,100,80
6692.0,64,1.0,63,1,0,0,120,64,100,80
6693.0,64,1.0,63,1,0,0,120,64,100,80
6694.0,67,1.0,63,1,0,0,120,64,100,80
6695.0,67,1.0,63,1,0,0,120,64,100,80
6696.0,69,1.0,63,1,0,0,120,64,100,80
6697.0,65,1.0,63,1,0,0,120,64,100,80
6698.0,71,1.0,63,1,0,0,120,64,100,80
6699.0,62,1.0,63,1,0,0,120,64,100,80
6700.0,62,1.0,63,1,0,0,120,64,100,80
6701.0,60,1.0,63,1,0,0,120,64,100,80
6702.0,64,1.0,63,1,0,0,120,64,100,80
6703.0,62,1.0,63,1,0,0,120,64,100,80
6704.0,64,1.0,63,1,0,0,120,64,100,80
6705.0,60,1.0,63,1,0,0,120,64,100,80
6706.0,69,1.0,63,1,0,0,120,64,100,80
6707.0,71,1.0,63,1,0,0,120,64,100,80
6708.0,71,1.0,63,1,0,0,120,64,100,80
6709.0,60,1.0,63,1,0,0,120,64,100,80
6710.0,60,1.0,63,1,0,0,120,64,100,80
6711.0,69,1.0,63,1,0,0,120,64,100,80
6712.0,69,1.0,63,1,0,0,120,64,100,80
6713.0,65,1.0,63,1,0,0,120,64,100,80
6714.0,60,1.0,63,1,0,0,120,64,100,80
6715.0,62,1.0,63,1,0,0,120,64,100,80
6716.0,69,1.0,63,1,0,0,120,64,100,80
6717.0,62,1.0,63,1,0,0,120,64,100,80
6718.0,64,1.0,63,1,0,0,120,64,100,80
6719.0,65,1.0,63,1,0,0,120,64,100,80
6720.0,65,1.0,63,1,0,0,120,64,100,80
6721.0,64,1.0,63,1,0,0,120,64,100,80
6722.0,64,1.0,63,1,0,0,120,64,100,80
6723.0,62,1.0,63,1,0,0,120,64,100,80
6724.0,60,1.0,63,1,0,0,120,64,100,80
6725.0,67,1.0,63,1,0,0,120,64,100,80
6726.0,65,1.0,63,1,0,0,120,64,100,80
6727.0,60,1.0,63,1,0,0,120,64,100,80
6728.0,65,1.0,63,1,0,0,120,64,100,80
6729.0,60,1.0,63,1,0,0,120,64,100,80
6730.0,62,1.0,63,1,0,0,120,64,100,80
6731.0,0,1.0,63,1,0,0,120,64,100,80
6732.0,62,1.0,63,1,0,0,120,64,100,80
6733.0,62,1.0,63,1,0,0,120,64,100,80
6734.0,60,1.0,63,1,0,0,120,64,100,80
6735.0,65,1.0,63,1,0,0,120,64,100,80
6736.0,60,1.0,63,1,0,0,120,64,100,80
6737.0,60,1.0,63,1,0,0,120,64,100,80
6738.0,62,1.0,63,1,0,0,120,64,100,80
6739.0,69,1.0,63,1,0,0,120,64,100,80
6740.0,64,1.0,63,1,0,0,120,64,100,80
6741.0,62,1.0,63,1,0,0,120,64,100,80
6742.0,64,1.0,63,1,0,0,120,64,100,80
6743.0,0,1.0,63,1,0,0,120,64,100,80
6744.0,64,1.0,63,1,0,0,120,64,100,80
6745.0,71,1.0,63,1,0,0,120,64,100,80
6746.0,64,1.0,63,1,0,0,120,64,100,80
6747.0,65,1.0,63,1,0,0,120,64,100,80
6748.0,65,1.0,63,1,0,0,120,64,100,80
6749.0,0,1.0,63,1,0,0,120,64,100,80
6750.0,0,1.0,63,1,0,0,120,64,100,80
6751.0,60,1.0,63,1,0,0,120,64,100,80
6752.0,60,1.0,63,1,0,0,120,64,100,80
6753.0,0,1.0,63,1,0,0,120,64,100,80
6754.0,60,1.0,63,1,0,0,120,64,100,80
6755.0,64,1.0,63,1,0,0,120,64,100,80
6756.0,60,1.0,63,1,0,0,120,64,100,80
6757.0,60,1.0,63,1,0,0,120,64,100,80
6758.0,67,1.0,63,1,0,0,120,64,100,80
6759.0,60,1.0,63,1,0,0,120,64,100,80
6760.0,62,1.0,63,1,0,0,120,64,100,80
6761.0,64,1.0,63,1,0,0,120,64,100,80
6762.0,62,1.0,63,1,0,0,120,64,100,80
6763.0,60,1.0,63,1,0,0,120,64,100,80
6764.0,64,1.0,63,1,0,0,120,64,100,80
6765.0,62,1.0,63,1,0,0,120,64,100,80
6766.0,69,1.0,63,1,0,0,120,64,100,80
6767.0,67,1.0,63,1,0,0,120,64,100,80
6768.0,62,1.0,63,1,0,0,120,64,100,80
6769.0,69,1.0,63,1,0,0,120,64,100,80
6770.0,65,1.0,63,1,0,0,120,64,100,80
6771.0,62,1.0,63,1,0,0,120,64,100,80
6772.0,67,1.0,63,1,0,0,120,64,100,80
6773.0,65,1.0,63,1,0,0,120,64,100,80
6774.0,60,1.0,63,1,0,0,120,64,100,80
6775.0,64,1.0,63,1,0,0,120,64,100,80
6776.0,62,1.0,63,1,0,0,120,64,100,80
6777.0,64,1.0,63,1,0,0,120,64,100,80
6778.0,62,1.0,63,1,0,0,120,64,100,80
6779.0,62,1.0,63,1,0,0,120,64,100,80
6780.0,64,1.0,63,1,0,0,120,64,100,80
6781.0,69,1.0,63,1,0,0,120,64,100,80
6782.0,62,1.0,63,1,0,0,120,64,100,80
6783.0,69,1.0,63,1,0,0,120,64,100,80
6784.0,60,1.0,63,1,0,0,120,64,100,80
6785.0,71,1.0,63,1,0,0,120,64,100,80
6786.0,60,1.0,63,1,0,0,120,64,100,80
6787.0,60,1.0,63,1,0,0,120,64,100,80
6788.0,64,1.0,63,1,0,0,120,64,100,80
6789.0,69,1.0,63,1,0,0,120,64,100,80
6790.0,60,1.0,63,1,0,0,120,64,100,80
6791.0,60,1.0,63,1,0,0,120,64,100,80
6792.0,0,1.0,63,1,0,0,120,64,100,80
6793.0,69,1.0,63,1,0,0,120,64,100,80
6794.0,65,1.0,63,1,0,0,120,64,100,80
6795.0,60,1.0,63,1,0,0,120,64,100,80
6796.0,64,1.0,63,1,0,0,120,64,100,80
6797.0,62,1.0,63,1,0,0,120,64,100,80
6798.0,60,1.0,63,1,0,0,120,64,100,80
6799.0,71,1.0,63,1,0,0,120,64,100,80
6800.0,60,1.0,63,1,0,0,120,64,100,80
6801.0,67,1.0,63,1,0,0,120,64,100,80
6802.0,69,1.0,63,1,0,0,120,64,100,80
6803.0,60,1.0,63,1,0,0,120,64,100,80
6804.0,62,1.0,63,1,0,0,120,64,100,80
6805.0,64,1.0,63,1,0,0,120,64,100,80
6806.0,64,1.0,63,1,0,0,120,64,100,80
6807.0,60,1.0,63,1,0,0,120,64,100,80
6808.0,60,1.0,63,1,0,0,120,64,100,80
6809.0,62,1.0,63,1,0,0,120,64,100,80
6810.0,62,1.0,63,1,0,0,120,64,100,80
6811.0,60,1.0,63,1,0,0,120,64,100,80
6812.0,64,1.0,63,1,0,0,120,64,100,80
6813.0,60,1.0,63,1,0,0,120,64,100,80
6814.0,60,1.0,63,1,0,0,120,64,100,80
6815.0,69,1.0,63,1,0,0,120,64,100,80
6816.0,60,1.0,63,1,0,0,120,64,100,80
6817.0,64,1.0,63,1,0,0,120,64,100,80
6818.0,64,1.0,63,1,0,0,120,64,100,80
6819.0,60,1.0,63,1,0,0,120,64,100,80
6820.0,65,1.0,63,1,0,0,120,64,100,80
6821.0,62,1.0,63,1,0,0,120,64,100,80
6822.0,65,1.0,63,1,0,0,120,64,100,80
6823.0,71,1.0,63,1,0,0,120,64,100,80
6824.0,69,1.0,63,1,0,0,120,64,100,80
6825.0,65,1.0,63,1,0,0,120,64,100,80
6826.0,69,1.0,63,1,0,0,120,64,100,80
6827.0,62,1.0,63,1,0,0,120,64,100,80
6828.0,71,1.0,63,1,0,0,120,64,100,80
6829.0,60,1.0,63,1,0,0,120,64,100,80
6830.0,65,1.0,63,1,0,0,120,64,100,80
6831.0,62,1.0,63,1,0,0,120,64,100,80
6832.0,60,1.0,63,1,0,0,120,64,100,80
6833.0,60,1.0,63,1,0,0,120,64,100,80
6834.0,64,1.0,63,1,0,0,120,64,100,80
6835.0,60,1.0,63,1,0,0,120,64,100,80
6836.0,62,1.0,63,1,0,0,120,64,100,80
6837.0,60,1.0,63,1,0,0,120,64,100,80
6838.0,60,1.0,63,1,0,0,120,64,100,80
6839.0,65,1.0,63,1,0,0,120,64,100,80
6840.0,71,1.0,63,1,0,0,120,64,100,80
6841.0,67,1.0,63,1,0,0,120,64,100,80
6842.0,60,1.0,63,1,0,0,120,64,100,80
6843.0,65,1.0,63,1,0,0,120,64,100,80
6844.0,62,1.0,63,1,0,0,120,64,100,80
6845.0,60,1.0,63,1,0,0,120,64,100,80
6846.0,71,1.0,63,1,0,0,120,64,100,80
6847.0,60,1.0,63,1,0,0,120,64,100,80
6848.0,60,1.0,63,1,0,0,120,64,100,80
6849.0,67,1.0,63,1,0,0,120,64,100,80
6850.0,69,1.0,63,1,0,0,120,64,100,80
6851.0,67,1.0,63,1,0,0,120,64,100,80
6852.0,64,1.0,63,1,0,0,120,64,100,80
6853.0,69,1.0,63,1,0,0,120,64,100,80
6854.0,69,1.0,63,1,0,0,120,64,100,80
6855.0,69,1.0,63,1,0,0,120,64,100,80
6856.0,64,1.0,63,1,0,0,120,64,100,80
6857.0,65,1.0,63,1,0,0,120,64,100,80
6858.0,64,1.0,63,1,0,0,120,64,100,80
6859.0,62,1.0,63,1,0,0,120,64,100,80
6860.0,65,1.0,63,1,0,0,120,64,100,80
6861.0,62,1.0,63,1,0,0,120,64,100,80
6862.0,60,1.0,63,1,0,0,120,64,100,80
6863.0,69,1.0,63,1,0,0,120,64,100,80
6864.0,62,1.0,63,1,0,0,120,64,100,80
6865.0,67,1.0,63,1,0,0,120,64,100,80
6866.0,60,1.0,63,1,0,0,120,64,100,80
6867.0,69,1.0,63,1,0,0,120,64,100,80
6868.0,60,1.0,63,1,0,0,120,64,100,80
6869.0,60,1.0,63,1,0,0,120,64,100,80
6870.0,60,1.0,63,1,0,0,120,64,100,80
6871.0,0,1.0,63,1,0,0,120,64,100,80
6872.0,69,1.0,63,1,0,0,120,64,100,80
6873.0,62,1.0,63,1,0,0,120,64,100,80
6874.0,69,1.0,63,1,0,0,120,64,100,80
6875.0,62,1.0,63,1,0,0,120,64,100,80
6876.0,60,1.0,63,1,0,0,120,64,100,80
6877.0,65,1.0,63,1,0,0,120,64,100,80
6878.0,62,1.0,63,1,0,0,120,64,100,80
6879.0,64,1.0,63,1,0,0,120,64,100,80
6880.0,64,1.0,63,1,0,0,120,64,100,80
6881.0,69,1.0,63,1,0,0,120,64,100,80
6882.0,69,1.0,63,1,0,0,120,64,100,80
6883.0,62,1.0,63,1,0,0,120,64,100,80
6884.0,69,1.0,63,1,0,0,120,64,100,80
6885.0,62,1.0,63,1,0,0,120,64,100,80
6886.0,60,1.0,63,1,0,0,120,64,100,80
6887.0,69,1.0,63,1,0,0,120,64,100,80
6888.0,69,1.0,63,1,0,0,120,64,100,80
6889.0,71,1.0,63,1,0,0,120,64,100,80
6890.0,62,1.0,63,1,0,0,120,64,100,80
6891.0,65,1.0,63,1,0,0,120,64,100,80
6892.0,60,1.0,63,1,0,0,120,64,100,80
6893.0,60,1.0,63,1,0,0,120,64,100,80
6894.0,62,1.0,63,1,0,0,120,64,100,80
6895.0,67,1.0,63,1,0,0,120,64,100,80
6896.0,60,1.0,63,1,0,0,120,64,100,80
6897.0,69,1.0,63,1,0,0,120,64,100,80
6898.0,71,1.0,63,1,0,0,120,64,100,80
6899.0,69,1.0,63,1,0,0,120,64,100,80
6900.0,65,1.0,63,1,0,0,120,64,100,80
6901.0,71,1.0,63,1,0,0,120,64,100,80
6902.0,60,1.0,63,1,0,0,120,64,100,80
6903.0,67,1.0,63,1,0,0,120,64,100,80
6904.0,60,1.0,63,1,0,0,120,64,100,80
6905.0,69,1.0,63,1,0,0,120,64,100,80
6906.0,71,1.0,63,1,0,0,120,64,100,80
6907.0,69,1.0,63,1,0,0,120,64,100,80
6908.0,60,1.0,63,1,0,0,120,64,100,80
6909.0,62,1.0,63,1,0,0,120,64,100,80
6910.0,71,1.0,63,1,0,0,120,64,100,80
6911.0,69,1.0,63,1,0,0,120,64,100,80
6912.0,69,1.0,63,1,0,0,120,64,100,80
6913.0,69,1.0,63,1,0,0,120,64,100,80
6914.0,64,1.0,63,1,0,0,120,64,100,80
6915.0,60,1.0,63,1,0,0,120,64,100,80
6916.0,62,1.0,63,1,0,0,120,64,100,80
6917.0,71,1.0,63,1,0,0,120,64,100,80
6918.0,65,1.0,63,1,0,0,120,64,100,80
6919.0,64,1.0,63,1,0,0,120,64,100,80
6920.0,65,1.0,63,1,0,0,120,64,100,80
6921.0,60,1.0,63,1,0,0,120,64,100,80
6922.0,65,1.0,63,1,0,0,120,64,100,80
6923.0,65,1.0,63,1,0,0,120,64,100,80
6924.0,60,1.0,63,1,0,0,120,64,100,80
6925.0,65,1.0,63,1,0,0,120,64,100,80
6926.0,60,1.0,63,1,0,0,120,64,100,80
6927.0,71,1.0,63,1,0,0,120,64,100,80
6928.0,69,1.0,63,1,0,0,120,64,100,80
6929.0,64,1.0,63,1,0,0,120,64,100,80
6930.0,67,1.0,63,1,0,0,120,64,100,80
6931.0,60,1.0,63,1,0,0,120,64,100,80
6932.0,60,1.0,63,1,0,0,120,64,100,80
6933.0,60,1.0,63,1,0,0,120,64,100,80
6934.0,69,1.0,63,1,0,0,120,64,100,80
6935.0,60,1.0,63,1,0,0,120,64,100,80
6936.0,65,1.0,63,1,0,0,120,64,100,80
6937.0,60,1.0,63,1,0,0,120,64,100,80
6938.0,65,1.0,63,1,0,0,120,64,100,80
6939.0,69,1.0,63,1,0,0,120,64,100,80
6940.0,62,1.0,63,1,0,0,120,64,100,80
6941.0,62,1.0,63,1,0,0,120,64,100,80
6942.0,60,1.0,63,1,0,0,120,64,100,80
6943.0,69,1.0,63,1,0,0,120,64,100,80
6944.0,67,1.0,63,1,0,0,120,64,100,80
6945.0,64,1.0,63,1,0,0,120,64,100,80
6946.0,64,1.0,63,1,0,0,120,64,100,80
6947.0,69,1.0,63,1,0,0,120,64,100,80
6948.0,0,1.0,63,1,0,0,120,64,100,80
6949.0,60,1.0,63,1,0,0,120,64,100,80
6950.0,60,1.0,63,1,0,0,120,64,100,80
6951.0,60,1.0,63,1,0,0,120,64,100,80
6952.0,69,1.0,63,1,0,0,120,64,100,80
6953.0,60,1.0,63,1,0,0,120,64,100,80
6954.0,60,1.0,63,1,0,0,120,64,100,80
6955.0,69,1.0,63,1,0,0,120,64,100,80
6956.0,60,1.0,63,1,0,0,120,64,100,80
6957.0,62,1.0,63,1,0,0,120,64,100,80
6958.0,62,1.0,63,1,0,0,120,64,100,80
6959.0,60,1.0,63,1,0,0,120,64,100,80
6960.0,65,1.0,63,1,0,0,120,64,100,80
6961.0,60,1.0,63,1,0,0,120,64,100,80
6962.0,71,1.0,63,1,0,0,120,64,100,80
6963.0,64,1.0,63,1,0,0,120,64,100,80
6964.0,62,1.0,63,1,0,0,120,64,100,80
6965.0,64,1.0,63,1,0,0,120,64,100,80
6966.0,65,1.0,63,1,0,0,120,64,100,80
6967.0,69,1.0,63,1,0,0,120,64,100,80
6968.0,60,1.0,63,1,0,0,120,64,100,80
6969.0,69,1.0,63,1,0,0,120,64,100,80
6970.0,69,1.0,63,1,0,0,120,64,100,80
6971.0,69,1.0,63,1,0,0,120,64,100,80
6972.0,64,1.0,63,1,0,0,120,64,100,80
6973.0,69,1.0,63,1,0,0,120,64,100,80
6974.0,69,1.0,63,1,0,0,120,64,100,80
6975.0,69,1.0,63,1,0,0,120,64,100,80
6976.0,60,1.0,63,1,0,0,120,64,100,80
6977.0,62,1.0,63,1,0,0,120,64,100,80
6978.0,0,1.0,63,1,0,0,120,64,100,80
6979.0,65,1.0,63,1,0,0,120,64,100,80
6980.0,67,1.0,63,1,0,0,120,64,100,80
6981.0,64,1.0,63,1,0,0,120,64,100,80
6982.0,65,1.0,63,1,0,0,120,64,100,80
6983.0,60,1.0,63,1,0,0,120,64,100,80
6984.0,62,1.0,63,1,0,0,120,64,100,80
6985.0,65,1.0,63,1,0,0,120,64,100,80
6986.0,60,1.0,63,1,0,0,120,64,100,80
6987.0,60,1.0,63,1,0,0,120,64,100,80
6988.0,62,1.0,63,1,0,0,120,64,100,80
6989.0,69,1.0,63,1,0,0,120,64,100,80
6990.0,69,1.0,63,1,0,0,120,64,100,80
6991.0,69,1.0,63,1,0,0,120,64,100,80
6992.0,69,1.0,63,1,0,0,120,64,100,80
6993.0,69,1.0,63,1,0,0,120,64,100,80
6994.0,60,1.0,63,1,0,0,120,64,100,80
6995.0,60,1.0,63,1,0,0,120,64,100,80
6996.0,64,1.0,63,1,0,0,120,64,100,80
6997.0,71,1.0,63,1,0,0,120,64,100,80
6998.0,71,1.0,63,1,0,0,120,64,100,80
6999.0,60,1.0,63,1,0,0,120,64,100,80
7000.0,64,1.0,63,1,0,0,120,64,100,80
7001.0,71,1.0,63,1,0,0,120,64,100,80
7002.0,64,1.0,63,1,0,0,120,64,100,80
7003.0,60,1.0,63,1,0,0,120,64,100,80
7004.0,69,1.0,63,1,0,0,120,64,100,80
7005.0,69,1.0,63,1,0,0,120,64,100,80
7006.0,71,1.0,63,1,0,0,120,64,100,80
7007.0,60,1.0,63,1,0,0,120,64,100,80
7008.0,69,1.0,63,1,0,0,120,64,100,80
7009.0,62,1.0,63,1,0,0,120,64,100,80
7010.0,65,1.0,63,1,0,0,120,64,100,80
7011.0,69,1.0,63,1,0,0,120,64,100,80
7012.0,67,1.0,63,1,0,0,120,64,100,80
7013.0,67,1.0,63,1,0,0,120,64,100,80
7014.0,65,1.0,63,1,0,0,120,64,100,80
7015.0,62,1.0,63,1,0,0,120,64,100,80
7016.0,62,1.0,63,1,0,0,120,64,100,80
7017.0,62,1.0,63,1,0,0,120,64,100,80
7018.0,69,1.0,63,1,0,0,120,64,100,80
7019.0,71,1.0,63,1,0,0,120,64,100,80
7020.0,64,1.0,63,1,0,0,120,64,100,80
7021.0,69,1.0,63,1,0,0,120,64,100,80
7022.0,64,1.0,63,1,0,0,120,64,100,80
7023.0,69,1.0,63,1,0,0,120,64,100,80
7024.0,65,1.0,63,1,0,0,120,64,100,80
7025.0,60,1.0,63,1,0,0,120,64,100,80
7026.0,69,1.0,63,1,0,0,120,64,100,80
7027.0,60,1.0,63,1,0,0,120,64,100,80
7028.0,60,1.0,63,1,0,0,120,64,100,80
7029.0,60,1.0,63,1,0,0,120,64,100,80
7030.0,60,1.0,63,1,0,0,120,64,100,80
7031.0,71,1.0,63,1,0,0,120,64,100,80
7032.0,65,1.0,63,1,0,0,120,64,100,80
7033.0,69,1.0,63,1,0,0,120,64,100,80
7034.0,69,1.0,63,1,0,0,120,64,100,80
7035.0,65,1.0,63,1,0,0,120,64,100,80
7036.0,69,1.0,63,1,0,0,120,64,100,80
7037.0,65,1.0,63,1,0,0,120,64,100,80
7038.0,62,1.0,63,1,0,0,120,64,100,80
7039.0,69,1.0,63,1,0,0,120,64,100,80
7040.0,60,1.0,63,1,0,0,120,64,100,80
7041.0,69,1.0,63,1,0,0,120,64,100,80
7042.0,65,1.0,63,1,0,0,120,64,100,80
7043.0,60,1.0,63,1,0,0,120,64,100,80
7044.0,60,1.0,63,1,0,0,120,64,100,80
7045.0,64,1.0,63,1,0,0,120,64,100,80
7046.0,65,1.0,63,1,0,0,120,64,100,80
7047.0,60,1.0,63,1,0,0,120,64,100,80
7048.0,69,1.0,63,1,0,0,120,64,100,80
7049.0,64,1.0,63,1,0,0,120,64,100,80
7050.0,60,1.0,63,1,0,0,120,64,100,80
7051.0,71,1.0,63,1,0,0,120,64,100,80
7052.0,60,1.0,63,1,0,0,120,64,100,80
7053.0,71,1.0,63,1,0,0,120,64,100,80
7054.0,60,1.0,63,1,0,0,120,64,100,80
7055.0,60,1.0,63,1,0,0,120,64,100,80
7056.0,71,1.0,63,1,0,0,120,64,100,80
7057.0,67,1.0,63,1,0,0,120,64,100,80
7058.0,65,1.0,63,1,0,0,120,64,100,80
7059.0,62,1.0,63,1,0,0,120,64,100,80
7060.0,64,1.0,63,1,0,0,120,64,100,80
7061.0,60,1.0,63,1,0,0,120,64,100,80
7062.0,71,1.0,63,1,0,0,120,64,100,80
7063.0,71,1.0,63,1,0,0,120,64,100,80
7064.0,69,1.0,63,1,0,0,120,64,100,80
7065.0,69,1.0,63,1,0,0,120,64,100,80
7066.0,64,1.0,63,1,0,0,120,64,100,80
7067.0,60,1.0,63,1,0,0,120,64,100,80
7068.0,65,1.0,63,1,0,0,120,64,100,80
7069.0,67,1.0,63,1,0,0,120,64,100,80
7070.0,60,1.0,63,1,0,0,120,64,100,80
7071.0,69,1.0,63,1,0,0,120,64,100,80
7072.0,64,1.0,63,1,0,0,120,64,100,80
7073.0,64,1.0,63,1,0,0,120,64,100,80
7074.0,64,1.0,63,1,0,0,120,64,100,80
7075.0,69,1.0,63,1,0,0,120,64,100,80
7076.0,60,1.0,63,1,0,0,120,64,100,80
7077.0,60,1.0,63,1,0,0,120,64,100,80
7078.0,65,1.0,63,1,0,0,120,64,100,80
7079.0,64,1.0,63,1,0,0,120,64,100,80
7080.0,65,1.0,63,1,0,0,120,64,100,80
7081.0,62,1.0,63,1,0,0,120,64,100,80
7082.0,65,1.0,63,1,0,0,120,64,100,80
7083.0,62,1.0,63,1,0,0,120,64,100,80
7084.0,60,1.0,63,1,0,0,120,64,100,80
7085.0,62,1.0,63,1,0,0,120,64,100,80
7086.0,60,1.0,63,1,0,0,120,64,100,80
7087.0,60,1.0,63,1,0,0,120,64,100,80
7088.0,69,1.0,63,1,0,0,120,64,100,80
7089.0,64,1.0,63,1,0,0,120,64,100,80
7090.0,60,1.0,63,1,0,0,120,64,100,80
7091.0,60,1.0,63,1,0,0,120,64,100,80
7092.0,62,1.0,63,1,0,0,120,64,100,80
7093.0,60,1.0,63,1,0,0,120,64,100,80
7094.0,60,1.0,63,1,0,0,120,64,100,80
7095.0,62,1.0,63,1,0,0,120,64,100,80
7096.0,60,1.0,63,1,0,0,120,64,100,80
7097.0,60,1.0,63,1,0,0,120,64,100,80
7098.0,60,1.0,63,1,0,0,120,64,100,80
7099.0,64,1.0,63,1,0,0,120,64,100,80
7100.0,69,1.0,63,1,0,0,120,64,100,80
7101.0,69,1.0,63,1,0,0,120,64,100,80
7102.0,64,1.0,63,1,0,0,120,64,100,80
7103.0,62,1.0,63,1,0,0,120,64,100,80
7104.0,65,1.0,63,1,0,0,120,64,100,80
7105.0,60,1.0,63,1,0,0,120,64,100,80
7106.0,64,1.0,63,1,0,0,120,64,100,80
7107.0,60,1.0,63,1,0,0,120,64,100,80
7108.0,64,1.0,63,1,0,0,120,64,100,80
7109.0,60,1.0,63,1,0,0,120,64,100,80
7110.0,60,1.0,63,1,0,0,120,64,100,80
7111.0,67,1.0,63,1,0,0,120,64,100,80
7112.0,60,1.0,63,1,0,0,120,64,100,80
7113.0,69,1.0,63,1,0,0,120,64,100,80
7114.0,62,1.0,63,1,0,0,120,64,100,80
7115.0,62,1.0,63,1,0,0,120,64,100,80
7116.0,71,1.0,63,1,0,0,120,64,100,80
7117.0,69,1.0,63,1,0,0,120,64,100,80
7118.0,60,1.0,63,1,0,0,120,64,100,80
7119.0,65,1.0,63,1,0,0,120,64,100,80
7120.0,65,1.0,63,1,0,0,120,64,100,80
7121.0,62,1.0,63,1,0,0,120,64,100,80
7122.0,64,1.0,63,1,0,0,120,64,100,80
7123.0,64,1.0,63,1,0,0,120,64,100,80
7124.0,60,1.0,63,1,0,0,120,64,100,80
7125.0,60,1.0,63,1,0,0,120,64,100,80
7126.0,62,1.0,63,1,0,0,120,64,100,80
7127.0,69,1.0,63,1,0,0,120,64,100,80
7128.0,64,1.0,63,1,0,0,120,64,100,80
7129.0,65,1.0,63,1,0,0,120,64,100,80
7130.0,64,1.0,63,1,0,0,120,64,100,80
7131.0,62,1.0,63,1,0,0,120,64,100,80
7132.0,69,1.0,63,1,0,0,120,64,100,80
7133.0,65,1.0,63,1,0,0,120,64,100,80
7134.0,64,1.0,63,1,0,0,120,64,100,80
7135.0,64,1.0,63,1,0,0,120,64,100,80
7136.0,67,1.0,63,1,0,0,120,64,100,80
7137.0,64,1.0,63,1,0,0,120,64,100,80
7138.0,64,1.0,63,1,0,0,120,64,100,80
7139.0,64,1.0,63,1,0,0,120,64,100,80
7140.0,71,1.0,63,1,0,0,120,64,100,80
7141.0,60,1.0,63,1,0,0,120,64,100,80
7142.0,65,1.0,63,1,0,0,120,64,100,80
7143.0,65,1.0,63,1,0,0,120,64,100,80
7144.0,64,1.0,63,1,0,0,120,64,100,80
7145.0,62,1.0,63,1,0,0,120,64,100,80
7146.0,62,1.0,63,1,0,0,120,64,100,80
7147.0,0,1.0,63,1,0,0,120,64,100,80
7148.0,62,1.0,63,1,0,0,120,64,100,80
7149.0,71,1.0,63,1,0,0,120,64,100,80
7150.0,60,1.0,63,1,0,0,120,64,100,80
7151.0,64,1.0,63,1,0,0,120,64,100,80
7152.0,64,1.0,63,1,0,0,120,64,100,80
7153.0,62,1.0,63,1,0,0,120,64,100,80
7154.0,62,1.0,63,1,0,0,120,64,100,80
7155.0,65,1.0,63,1,0,0,120,64,100,80
7156.0,64,1.0,63,1,0,0,120,64,100,80
7157.0,60,1.0,63,1,0,0,120,64,100,80
7158.0,62,1.0,63,1,0,0,120,64,100,80
7159.0,69,1.0,63,1,0,0,120,64,100,80
7160.0,0,1.0,63,1,0,0,120,64,100,80
7161.0,64,1.0,63,1,0,0,120,64,100,80
7162.0,60,1.0,63,1,0,0,120,64,100,80
7163.0,62,1.0,63,1,0,0,120,64,100,80
7164.0,67,1.0,63,1,0,0,120,64,100,80
7165.0,65,1.0,63,1,0,0,120,64,100,80
7166.0,62,1.0,63,1,0,0,120,64,100,80
7167.0,62,1.0,63,1,0,0,120,64,100,80
7168.0,60,1.0,63,1,0,0,120,64,100,80
7169.0,64,1.0,63,1,0,0,120,64,100,80
7170.0,64,1.0,63,1,0,0,120,64,100,80
7171.0,67,1.0,63,1,0,0,120,64,100,80
7172.0,67,1.0,63,1,0,0,120,64,100,80
7173.0,69,1.0,63,1,0,0,120,64,100,80
7174.0,60,1.0,63,1,0,0,120,64,100,80
7175.0,60,1.0,63,1,0,0,120,64,100,80
7176.0,69,1.0,63,1,0,0,120,64,100,80
7177.0,64,1.0,63,1,0,0,120,64,100,80
7178.0,65,1.0,63,1,0,0,120,64,100,80
7179.0,67,1.0,63,1,0,0,120,64,100,80
7180.0,60,1.0,63,1,0,0,120,64,100,80
7181.0,64,1.0,63,1,0,0,120,64,100,80
7182.0,65,1.0,63,1,0,0,120,64,100,80
7183.0,0,1.0,63,1,0,0,120,64,100,80
7184.0,64,1.0,63,1,0,0,120,64,100,80
7185.0,69,1.0,63,1,0,0,120,64,100,80
7186.0,65,1.0,63,1,0,0,120,64,100,80
7187.0,60,1.0,63,1,0,0,120,64,100,80
7188.0,60,1.0,63,1,0,0,120,64,100,80
7189.0,64,1.0,63,1,0,0,120,64,100,80
7190.0,62,1.0,63,1,0,0,120,64,100,80
7191.0,60,1.0,63,1,0,0,120,64,100,80
7192.0,62,1.0,63,1,0,0,120,64,100,80
7193.0,65,1.0,63,1,0,0,120,64,100,80
7194.0,60,1.0,63,1,0,0,120,64,100,80
7195.0,60,1.0,63,1,0,0,120,64,100,80
7196.0,62,1.0,63,1,0,0,120,64,100,80
7197.0,62,1.0,63,1,0,0,120,64,100,80
7198.0,64,1.0,63,1,0,0,120,64,100,80
7199.0,0,1.0,63,1,0,0,120,64,100,80
7200.0,64,1.0,63,1,0,0,120,64,100,80
7201.0,69,1.0,63,1,0,0,120,64,100,80
7202.0,64,1.0,63,1,0,0,120,64,100,80
7203.0,69,1.0,63,1,0,0,120,64,100,80
7204.0,64,1.0,63,1,0,0,120,64,100,80
7205.0,67,1.0,63,1,0,0,120,64,100,80
7206.0,64,1.0,63,1,0,0,120,64,100,80
7207.0,64,1.0,63,1,0,0,120,64,100,80
7208.0,60,1.0,63,1,0,0,120,64,100,80
7209.0,64,1.0,63,1,0,0,120,64,100,80
7210.0,60,1.0,63,1,0,0,120,64,100,80
7211.0,67,1.0,63,1,0,0,120,64,100,80
7212.0,60,1.0,63,1,0,0,120,64,100,80
7213.0,62,1.0,63,1,0,0,120,64,100,80
7214.0,60,1.0,63,1,0,0,120,64,100,80
7215.0,64,1.0,63,1,0,0,120,64,100,80
7216.0,62,1.0,63,1,0,0,120,64,100,80
7217.0,65,1.0,63,1,0,0,120,64,100,80
7218.0,62,1.0,63,1,0,0,120,64,100,80
7219.0,65,1.0,63,1,0,0,120,64,100,80
7220.0,60,1.0,63,1,0,0,120,64,100,80
7221.0,65,1.0,63,1,0,0,120,64,100,80
7222.0,60,1.0,63,1,0,0,120,64,100,80
7223.0,62,1.0,63,1,0,0,120,64,100,80
7224.0,69,1.0,63,1,0,0,120,64,100,80
7225.0,60,1.0,63,1,0,0,120,64,100,80
7226.0,65,1.0,63,1,0,0,120,64,100,80
7227.0,0,1.0,63,1,0,0,120,64,100,80
7228.0,71,1.0,63,1,0,0,120,64,100,80
7229.0,60,1.0,63,1,0,0,120,64,100,80
7230.0,64,1.0,63,1,0,0,120,64,100,80
7231.0,64,1.0,63,1,0,0,120,64,100,80
7232.0,60,1.0,63,1,0,0,120,64,100,80
7233.0,60,1.0,63,1,0,0,120,64,100,80
7234.0,60,1.0,63,1,0,0,120,64,100,80
7235.0,62,1.0,63,1,0,0,120,64,100,80
7236.0,62,1.0,63,1,0,0,120,64,100,80
7237.0,62,1.0,63,1,0,0,120,64,100,80
7238.0,64,1.0,63,1,0,0,120,64,100,80
7239.0,69,1.0,63,1,0,0,120,64,100,80
7240.0,65,1.0,63,1,0,0,120,64,100,80
7241.0,62,1.0,63,1,0,0,120,64,100,80
7242.0,60,1.0,63,1,0,0,120,64,100,80
7243.0,60,1.0,63,1,0,0,120,64,100,80
7244.0,67,1.0,63,1,0,0,120,64,100,80
7245.0,62,1.0,63,1,0,0,120,64,100,80
7246.0,62,1.0,63,1,0,0,120,64,100,80
7247.0,60,1.0,63,1,0,0,120,64,100,80
7248.0,65,1.0,63,1,0,0,120,64,100,80
7249.0,69,1.0,63,1,0,0,120,64,100,80
7250.0,60,1.0,63,1,0,0,120,64,100,80
7251.0,69,1.0,63,1,0,0,120,64,100,80
7252.0,62,1.0,63,1,0,0,120,64,100,80
7253.0,64,1.0,63,1,0,0,120,64,100,80
7254.0,62,1.0,63,1,0,0,120,64,100,80
7255.0,64,1.0,63,1,0,0,120,64,100,80
7256.0,60,1.0,63,1,0,0,120,64,100,80
7257.0,69,1.0,63,1,0,0,120,64,100,80
7258.0,64,1.0,63,1,0,0,120,64,100,80
7259.0,60,1.0,63,1,0,0,120,64,100,80
7260.0,60,1.0,63,1,0,0,120,64,100,80
7261.0,67,1.0,63,1,0,0,120,64,100,80
7262.0,60,1.0,63,1,0,0,120,64,100,80
7263.0,69,1.0,63,1,0,0,120,64,100,80
7264.0,60,1.0,63,1,0,0,120,64,100,80
7265.0,69,1.0,63,1,0,0,120,64,100,80
7266.0,64,1.0,63,1,0,0,120,64,100,80
7267.0,60,1.0,63,1,0,0,120,64,100,80
7268.0,71,1.0,63,1,0,0,120,64,100,80
7269.0,60,1.0,63,1,0,0,120,64,100,80
7270.0,64,1.0,63,1,0,0,120,64,100,80
7271.0,65,1.0,63,1,0,0,120,64,100,80
7272.0,69,1.0,63,1,0,0,120,64,100,80
7273.0,71,1.0,63,1,0,0,120,64,100,80
7274.0,62,1.0,63,1,0,0,120,64,100,80
7275.0,60,1.0,63,1,0,0,120,64,100,80
7276.0,60,1.0,63,1,0,0,120,64,100,80
7277.0,65,1.0,63,1,0,0,120,64,100,80
7278.0,64,1.0,63,1,0,0,120,64,100,80
7279.0,62,1.0,63,1,0,0,120,64,100,80
7280.0,0,1.0,63,1,0,0,120,64,100,80
7281.0,60,1.0,63,1,0,0,120,64,100,80
7282.0,60,1.0,63,1,0,0,120,64,100,80
7283.0,60,1.0,63,1,0,0,120,64,100,80
7284.0,60,1.0,63,1,0,0,120,64,100,80
7285.0,65,1.0,63,1,0,0,120,64,100,80
7286.0,67,1.0,63,1,0,0,120,64,100,80
7287.0,71,1.0,63,1,0,0,120,64,100,80
7288.0,62,1.0,63,1,0,0,120,64,100,80
7289.0,60,1.0,63,1,0,0,120,64,100,80
7290.0,71,1.0,63,1,0,0,120,64,100,80
7291.0,62,1.0,63,1,0,0,120,64,100,80
7292.0,71,1.0,63,1,0,0,120,64,100,80
7293.0,71,1.0,63,1,0,0,120,64,100,80
7294.0,60,1.0,63,1,0,0,120,64,100,80
7295.0,60,1.0,63,1,0,0,120,64,100,80
7296.0,65,1.0,63,1,0,0,120,64,100,80
7297.0,69,1.0,63,1,0,0,120,64,100,80
7298.0,60,1.0,63,1,0,0,120,64,100,80
7299.0,64,1.0,63,1,0,0,120,64,100,80
7300.0,60,1.0,63,1,0,0,120,64,100,80
7301.0,64,1.0,63,1,0,0,120,64,100,80
7302.0,60,1.0,63,1,0,0,120,64,100,80
7303.0,71,1.0,63,1,0,0,120,64,100,80
7304.0,64,1.0,63,1,0,0,120,64,100,80
7305.0,62,1.0,63,1,0,0,120,64,100,80
7306.0,67,1.0,63,1,0,0,120,64,100,80
7307.0,69,1.0,63,1,0,0,120,64,100,80
7308.0,69,1.0,63,1,0,0,120,64,100,80
7309.0,69,1.0,63,1,0,0,120,64,100,80
7310.0,65,1.0,63,1,0,0,120,64,100,80
7311.0,67,1.0,63,1,0,0,120,64,100,80
7312.0,65,1.0,63,1,0,0,120,64,100,80
7313.0,71,1.0,63,1,0,0,120,64,100,80
7314.0,67,1.0,63,1,0,0,120,64,100,80
7315.0,60,1.0,63,1,0,0,120,64,100,80
7316.0,60,1.0,63,1,0,0,120,64,100,80
7317.0,64,1.0,63,1,0,0,120,64,100,80
7318.0,69,1.0,63,1,0,0,120,64,100,80
7319.0,65,1.0,63,1,0,0,120,64,100,80
7320.0,60,1.0,63,1,0,0,120,64,100,80
7321.0,67,1.0,63,1,0,0,120,64,100,80
7322.0,62,1.0,63,1,0,0,120,64,100,80
7323.0,60,1.0,63,1,0,0,120,64,100,80
7324.0,60,1.0,63,1,0,0,120,64,100,80
7325.0,71,1.0,63,1,0,0,120,64,100,80
7326.0,62,1.0,63,1,0,0,120,64,100,80
7327.0,60,1.0,63,1,0,0,120,64,100,80
7328.0,64,1.0,63,1,0,0,120,64,100,80
7329.0,69,1.0,63,1,0,0,120,64,100,80
7330.0,62,1.0,63,1,0,0,120,64,100,80
7331.0,60,1.0,63,1,0,0,120,64,100,80
7332.0,62,1.0,63,1,0,0,120,64,100,80
7333.0,60,1.0,63,1,0,0,120,64,100,80
7334.0,60,1.0,63,1,0,0,120,64,100,80
7335.0,65,1.0,63,1,0,0,120,64,100,80
7336.0,60,1.0,63,1,0,0,120,64,100,80
7337.0,69,1.0,63,1,0,0,120,64,100,80
7338.0,69,1.0,63,1,0,0,120,64,100,80
7339.0,60,1.0,63,1,0,0,120,64,100,80
7340.0,65,1.0,63,1,0,0,120,64,100,80
7341.0,69,1.0,63,1,0,0,120,64,100,80
7342.0,65,1.0,63,1,0,0,120,64,100,80
7343.0,64,1.0,63,1,0,0,120,64,100,80
7344.0,60,1.0,63,1,0,0,120,64,100,80
7345.0,71,1.0,63,1,0,0,120,64,100,80
7346.0,62,1.0,63,1,0,0,120,64,100,80
7347.0,60,1.0,63,1,0,0,120,64,100,80
7348.0,69,1.0,63,1,0,0,120,64,100,80
7349.0,62,1.0,63,1,0,0,120,64,100,80
7350.0,65,1.0,63,1,0,0,120,64,100,80
7351.0,60,1.0,63,1,0,0,120,64,100,80
7352.0,64,1.0,63,1,0,0,120,64,100,80
7353.0,62,1.0,63,1,0,0,120,64,100,80
7354.0,64,1.0,63,1,0,0,120,64,100,80
7355.0,60,1.0,63,1,0,0,120,64,100,80
7356.0,62,1.0,63,1,0,0,120,64,100,80
7357.0,60,1.0,63,1,0,0,120,64,100,80
7358.0,0,1.0,63,1,0,0,120,64,100,80
7359.0,60,1.0,63,1,0,0,120,64,100,80
7360.0,60,1.0,63,1,0,0,120,64,100,80
7361.0,0,1.0,63,1,0,0,120,64,100,80
7362.0,64,1.0,63,1,0,0,120,64,100,80
7363.0,60,1.0,63,1,0,0,120,64,100,80
7364.0,64,1.0,63,1,0,0,120,64,100,80
7365.0,69,1.0,63,1,0,0,120,64,100,80
7366.0,60,1.0,63,1,0,0,120,64,100,80
7367.0,60,1.0,63,1,0,0,120,64,100,80
7368.0,62,1.0,63,1,0,0,120,64,100,80
7369.0,60,1.0,63,1,0,0,120,64,100,80
7370.0,65,1.0,63,1,0,0,120,64,100,80
7371.0,69,1.0,63,1,0,0,120,64,100,80
7372.0,64,1.0,63,1,0,0,120,64,100,80
7373.0,60,1.0,63,1,0,0,120,64,100,80
7374.0,65,1.0,63,1,0,0,120,64,100,80
7375.0,71,1.0,63,1,0,0,120,64,100,80
7376.0,69,1.0,63,1,0,0,120,64,100,80
7377.0,60,1.0,63,1,0,0,120,64,100,80
7378.0,62,1.0,63,1,0,0,120,64,100,80
7379.0,60,1.0,63,1,0,0,120,64,100,80
7380.0,62,1.0,63,1,0,0,120,64,100,80
7381.0,62,1.0,63,1,0,0,120,64,100,80
7382.0,60,1.0,63,1,0,0,120,64,100,80
7383.0,69,1.0,63,1,0,0,120,64,100,80
7384.0,71,1.0,63,1,0,0,120,64,100,80
7385.0,65,1.0,63,1,0,0,120,64,100,80
7386.0,60,1.0,63,1,0,0,120,64,100,80
7387.0,65,1.0,63,1,0,0,120,64,100,80
7388.0,60,1.0,63,1,0,0,120,64,100,80
7389.0,62,1.0,63,1,0,0,120,64,100,80
7390.0,62,1.0,63,1,0,0,120,64,100,80
7391.0,60,1.0,63,1,0,0,120,64,100,80
7392.0,69,1.0,63,1,0,0,120,64,100,80
7393.0,64,1.0,63,1,0,0,120,64,100,80
7394.0,62,1.0,63,1,0,0,120,64,100,80
7395.0,60,1.0,63,1,0,0,120,64,100,80
7396.0,60,1.0,63,1,0,0,120,64,100,80
7397.0,60,1.0,63,1,0,0,120,64,100,80
7398.0,71,1.0,63,1,0,0,120,64,100,80
7399.0,62,1.0,63,1,0,0,120,64,100,80
7400.0,69,1.0,63,1,0,0,120,64,100,80
7401.0,71,1.0,63,1,0,0,120,64,100,80
7402.0,64,1.0,63,1,0,0,120,64,100,80
7403.0,67,1.0,63,1,0,0,120,64,100,80
7404.0,62,1.0,63,1,0,0,120,64,100,80
7405.0,0,1.0,63,1,0,0,120,64,100,80
7406.0,0,1.0,63,1,0,0,120,64,100,80
7407.0,69,1.0,63,1,0,0,120,64,100,80
7408.0,69,1.0,63,1,0,0,120,64,100,80
7409.0,64,1.0,63,1,0,0,120,64,100,80
7410.0,64,1.0,63,1,0,0,120,64,100,80
7411.0,60,1.0,63,1,0,0,120,64,100,80
7412.0,62,1.0,63,1,0,0,120,64,100,80
7413.0,71,1.0,63,1,0,0,120,64,100,80
7414.0,64,1.0,63,1,0,0,120,64,100,80
7415.0,65,1.0,63,1,0,0,120,64,100,80
7416.0,60,1.0,63,1,0,0,120,64,100,80
7417.0,60,1.0,63,1,0,0,120,64,100,80
7418.0,67,1.0,63,1,0,0,120,64,100,80
7419.0,69,1.0,63,1,0,0,120,64,100,80
7420.0,69,1.0,63,1,0,0,120,64,100,80
7421.0,71,1.0,63,1,0,0,120,64,100,80
7422.0,69,1.0,63,1,0,0,120,64,100,80
7423.0,62,1.0,63,1,0,0,120,64,100,80
7424.0,60,1.0,63,1,0,0,120,64,100,80
7425.0,71,1.0,63,1,0,0,120,64,100,80
7426.0,60,1.0,63,1,0,0,120,64,100,80
7427.0,69,1.0,63,1,0,0,120,64,100,80
7428.0,71,1.0,63,1,0,0,120,64,100,80
7429.0,69,1.0,63,1,0,0,120,64,100,80
7430.0,62,1.0,63,1,0,0,120,64,100,80
7431.0,62,1.0,63,1,0,0,120,64,100,80
7432.0,60,1.0,63,1,0,0,120,64,100,80
7433.0,69,1.0,63,1,0,0,120,64,100,80
7434.0,0,1.0,63,1,0,0,120,64,100,80
7435.0,60,1.0,63,1,0,0,120,64,100,80
7436.0,65,1.0,63,1,0,0,120,64,100,80
7437.0,60,1.0,63,1,0,0,120,64,100,80
7438.0,60,1.0,63,1,0,0,120,64,100,80
7439.0,62,1.0,63,1,0,0,120,64,100,80
7440.0,71,1.0,63,1,0,0,120,64,100,80
7441.0,62,1.0,63,1,0,0,120,64,100,80
7442.0,62,1.0,63,1,0,0,120,64,100,80
7443.0,71,1.0,63,1,0,0,120,64,100,80
7444.0,64,1.0,63,1,0,0,120,64,100,80
7445.0,69,1.0,63,1,0,0,120,64,100,80
7446.0,60,1.0,63,1,0,0,120,64,100,80
7447.0,64,1.0,63,1,0,0,120,64,100,80
7448.0,64,1.0,63,1,0,0,120,64,100,80
7449.0,69,1.0,63,1,0,0,120,64,100,80
7450.0,69,1.0,63,1,0,0,120,64,100,80
7451.0,62,1.0,63,1,0,0,120,64,100,80
7452.0,60,1.0,63,1,0,0,120,64,100,80
7453.0,62,1.0,63,1,0,0,120,64,100,80
7454.0,71,1.0,63,1,0,0,120,64,100,80
7455.0,65,1.0,63,1,0,0,120,64,100,80
7456.0,60,1.0,63,1,0,0,120,64,100,80
7457.0,0,1.0,63,1,0,0,120,64,100,80
7458.0,60,1.0,63,1,0,0,120,64,100,80
7459.0,64,1.0,63,1,0,0,120,64,100,80
7460.0,60,1.0,63,1,0,0,120,64,100,80
7461.0,69,1.0,63,1,0,0,120,64,100,80
7462.0,60,1.0,63,1,0,0,120,64,100,80
7463.0,60,1.0,63,1,0,0,120,64,100,80
7464.0,60,1.0,63,1,0,0,120,64,100,80
7465.0,62,1.0,63,1,0,0,120,64,100,80
7466.0,69,1.0,63,1,0,0,120,64,100,80
7467.0,60,1.0,63,1,0,0,120,64,100,80
7468.0,62,1.0,63,1,0,0,120,64,100,80
7469.0,60,1.0,63,1,0,0,120,64,100,80
7470.0,69,1.0,63,1,0,0,120,64,100,80
7471.0,60,1.0,63,1,0,0,120,64,100,80
7472.0,60,1.0,63,1,0,0,120,64,100,80
7473.0,67,1.0,63,1,0,0,120,64,100,80
7474.0,67,1.0,63,1,0,0,120,64,100,80
7475.0,60,1.0,63,1,0,0,120,64,100,80
7476.0,60,1.0,63,1,0,0,120,64,100,80
7477.0,67,1.0,63,1,0,0,120,64,100,80
7478.0,67,1.0,63,1,0,0,120,64,100,80
7479.0,69,1.0,63,1,0,0,120,64,100,80
7480.0,64,1.0,63,1,0,0,120,64,100,80
7481.0,62,1.0,63,1,0,0,120,64,100,80
7482.0,62,1.0,63,1,0,0,120,64,100,80
7483.0,60,1.0,63,1,0,0,120,64,100,80
7484.0,60,1.0,63,1,0,0,120,64,100,80
7485.0,60,1.0,63,1,0,0,120,64,100,80
7486.0,64,1.0,63,1,0,0,120,64,100,80
7487.0,65,1.0,63,1,0,0,120,64,100,80
7488.0,62,1.0,63,1,0,0,120,64,100,80
7489.0,69,1.0,63,1,0,0,120,64,100,80
7490.0,69,1.0,63,1,0,0,120,64,100,80
7491.0,60,1.0,63,1,0,0,120,64,100,80
7492.0,65,1.0,63,1,0,0,120,64,100,80
7493.0,60,1.0,63,1,0,0,120,64,100,80
7494.0,0,1.0,63,1,0,0,120,64,100,80
7495.0,69,1.0,63,1,0,0,120,64,100,80
7496.0,60,1.0,63,1,0,0,120,64,100,80
7497.0,0,1.0,63,1,0,0,120,64,100,80
7498.0,62,1.0,63,1,0,0,120,64,100,80
7499.0,67,1.0,63,1,0,0,120,64,100,80
7500.0,60,1.0,63,1,0,0,120,64,100,80
7501.0,64,1.0,63,1,0,0,120,64,100,80
7502.0,64,1.0,63,1,0,0,120,64,100,80
7503.0,67,1.0,63,1,0,0,120,64,100,80
7504.0,71,1.0,63,1,0,0,120,64,100,80
7505.0,69,1.0,63,1,0,0,120,64,100,80
7506.0,64,1.0,63,1,0,0,120,64,100,80
7507.0,69,1.0,63,1,0,0,120,64,100,80
7508.0,69,1.0,63,1,0,0,120,64,100,80
7509.0,60,1.0,63,1,0,0,120,64,100,80
7510.0,60,1.0,63,1,0,0,120,64,100,80
7511.0,69,1.0,63,1,0,0,120,64,100,80
7512.0,60,1.0,63,1,0,0,120,64,100,80
7513.0,65,1.0,63,1,0,0,120,64,100,80
7514.0,67,1.0,63,1,0,0,120,64,100,80
7515.0,64,1.0,63,1,0,0,120,64,100,80
7516.0,67,1.0,63,1,0,0,120,64,100,80
7517.0,60,1.0,63,1,0,0,120,64,100,80
7518.0,64,1.0,63,1,0,0,120,64,100,80
7519.0,64,1.0,63,1,0,0,120,64,100,80
7520.0,64,1.0,63,1,0,0,120,64,100,80
7521.0,62,1.0,63,1,0,0,120,64,100,80
7522.0,62,1.0,63,1,0,0,120,64,100,80
7523.0,71,1.0,63,1,0,0,120,64,100,80
7524.0,69,1.0,63,1,0,0,120,64,100,80
7525.0,60,1.0,63,1,0,0,120,64,100,80
7526.0,60,1.0,63,1,0,0,120,64,100,80
7527.0,60,1.0,63,1,0,0,120,64,100,80
7528.0,65,1.0,63,1,0,0,120,64,100,80
7529.0,67,1.0,63,1,0,0,120,64,100,80
7530.0,71,1.0,63,1,0,0,120,64,100,80
7531.0,64,1.0,63,1,0,0,120,64,100,80
7532.0,60,1.0,63,1,0,0,120,64,100,80
7533.0,60,1.0,63,1,0,0,120,64,100,80
7534.0,64,1.0,63,1,0,0,120,64,100,80
7535.0,69,1.0,63,1,0,0,120,64,100,80
7536.0,69,1.0,63,1,0,0,120,64,100,80
7537.0,62,1.0,63,1,0,0,120,64,100,80
7538.0,60,1.0,63,1,0,0,120,64,100,80
7539.0,60,1.0,63,1,0,0,120,64,100,80
7540.0,60,1.0,63,1,0,0,120,64,100,80
7541.0,60,1.0,63,1,0,0,120,64,100,80
7542.0,64,1.0,63,1,0,0,120,64,100,80
7543.0,64,1.0,63,1,0,0,120,64,100,80
7544.0,64,1.0,63,1,0,0,120,64,100,80
7545.0,67,1.0,63,1,0,0,120,64,100,80
7546.0,69,1.0,63,1,0,0,120,64,100,80
7547.0,69,1.0,63,1,0,0,120,64,100,80
7548.0,62,1.0,63,1,0,0,120,64,100,80
7549.0,64,1.0,63,1,0,0,120,64,100,80
7550.0,62,1.0,63,1,0,0,120,64,100,80
7551.0,60,1.0,63,1,0,0,120,64,100,80
7552.0,60,1.0,63,1,0,0,120,64,100,80
7553.0,65,1.0,63,1,0,0,120,64,100,80
7554.0,62,1.0,63,1,0,0,120,64,100,80
7555.0,60,1.0,63,1,0,0,120,64,100,80
7556.0,69,1.0,63,1,0,0,120,64,100,80
7557.0,62,1.0,63,1,0,0,120,64,100,80
7558.0,60,1.0,63,1,0,0,120,64,100,80
7559.0,64,1.0,63,1,0,0,120,64,100,80
7560.0,69,1.0,63,1,0,0,120,64,100,80
7561.0,67,1.0,63,1,0,0,120,64,100,80
7562.0,60,1.0,63,1,0,0,120,64,100,80
7563.0,60,1.0,63,1,0,0,120,64,100,80
7564.0,64,1.0,63,1,0,0,120,64,100,80
7565.0,67,1.0,63,1,0,0,120,64,100,80
7566.0,64,1.0,63,1,0,0,120,64,100,80
7567.0,60,1.0,63,1,0,0,120,64,100,80
7568.0,67,1.0,63,1,0,0,120,64,100,80
7569.0,60,1.0,63,1,0,0,120,64,100,80
7570.0,60,1.0,63,1,0,0,120,64,100,80
7571.0,69,1.0,63,1,0,0,120,64,100,80
7572.0,69,1.0,63,1,0,0,120,64,100,80
7573.0,64,1.0,63,1,0,0,120,64,100,80
7574.0,60,1.0,63,1,0,0,120,64,100,80
7575.0,60,1.0,63,1,0,0,120,64,100,80
7576.0,60,1.0,63,1,0,0,120,64,100,80
7577.0,65,1.0,63,1,0,0,120,64,100,80
7578.0,65,1.0,63,1,0,0,120,64,100,80
7579.0,65,1.0,63,1,0,0,120,64,100,80
7580.0,60,1.0,63,1,0,0,120,64,100,80
7581.0,69,1.0,63,1,0,0,120,64,100,80
7582.0,62,1.0,63,1,0,0,120,64,100,80
7583.0,69,1.0,63,1,0,0,120,64,100,80
7584.0,71,1.0,63,1,0,0,120,64,100,80
7585.0,67,1.0,63,1,0,0,120,64,100,80
7586.0,62,1.0,63,1,0,0,120,64,100,80
7587.0,60,1.0,63,1,0,0,120,64,100,80
7588.0,60,1.0,63,1,0,0,120,64,100,80
7589.0,69,1.0,63,1,0,0,120,64,100,80
7590.0,60,1.0,63,1,0,0,120,64,100,80
7591.0,69,1.0,63,1,0,0,120,64,100,80
7592.0,67,1.0,63,1,0,0,120,64,100,80
7593.0,64,1.0,63,1,0,0,120,64,100,80
7594.0,62,1.0,63,1,0,0,120,64,100,80
7595.0,62,1.0,63,1,0,0,120,64,100,80
7596.0,71,1.0,63,1,0,0,120,64,100,80
7597.0,62,1.0,63,1,0,0,120,64,100,80
7598.0,62,1.0,63,1,0,0,120,64,100,80
7599.0,60,1.0,63,1,0,0,120,64,100,80
7600.0,60,1.0,63,1,0,0,120,64,100,80
7601.0,0,1.0,63,1,0,0,120,64,100,80
7602.0,69,1.0,63,1,0,0,120,64,100,80
7603.0,69,1.0,63,1,0,0,120,64,100,80
7604.0,62,1.0,63,1,0,0,120,64,100,80
7605.0,64,1.0,63,1,0,0,120,64,100,80
7606.0,69,1.0,63,1,0,0,120,64,100,80
7607.0,69,1.0,63,1,0,0,120,64,100,80
7608.0,60,1.0,63,1,0,0,120,64,100,80
7609.0,67,1.0,63,1,0,0,120,64,100,80
7610.0,69,1.0,63,1,0,0,120,64,100,80
7611.0,71,1.0,63,1,0,0,120,64,100,80
7612.0,65,1.0,63,1,0,0,120,64,100,80
7613.0,60,1.0,63,1,0,0,120,64,100,80
7614.0,60,1.0,63,1,0,0,120,64,100,80
7615.0,60,1.0,63,1,0,0,120,64,100,80
7616.0,65,1.0,63,1,0,0,120,64,100,80
7617.0,62,1.0,63,1,0,0,120,64,100,80
7618.0,60,1.0,63,1,0,0,120,64,100,80
7619.0,64,1.0,63,1,0,0,120,64,100,80
7620.0,69,1.0,63,1,0,0,120,64,100,80
7621.0,67,1.0,63,1,0,0,120,64,100,80
7622.0,71,1.0,63,1,0,0,120,64,100,80
7623.0,67,1.0,63,1,0,0,120,64,100,80
7624.0,71,1.0,63,1,0,0,120,64,100,80
7625.0,71,1.0,63,1,0,0,120,64,100,80
7626.0,69,1.0,63,1,0,0,120,64,100,80
7627.0,65,1.0,63,1,0,0,120,64,100,80
7628.0,62,1.0,63,1,0,0,120,64,100,80
7629.0,71,1.0,63,1,0,0,120,64,100,80
7630.0,62,1.0,63,1,0,0,120,64,100,80
7631.0,62,1.0,63,1,0,0,120,64,100,80
7632.0,69,1.0,63,1,0,0,120,64,100,80
7633.0,60,1.0,63,1,0,0,120,64,100,80
7634.0,62,1.0,63,1,0,0,120,64,100,80
7635.0,69,1.0,63,1,0,0,120,64,100,80
7636.0,65,1.0,63,1,0,0,120,64,100,80
7637.0,60,1.0,63,1,0,0,120,64,100,80
7638.0,71,1.0,63,1,0,0,120,64,100,80
7639.0,64,1.0,63,1,0,0,120,64,100,80
7640.0,69,1.0,63,1,0,0,120,64,100,80
7641.0,69,1.0,63,1,0,0,120,64,100,80
7642.0,69,1.0,63,1,0,0,120,64,100,80
7643.0,69,1.0,63,1,0,0,120,64,100,80
7644.0,69,1.0,63,1,0,0,120,64,100,80
7645.0,64,1.0,63,1,0,0,120,64,100,80
7646.0,69,1.0,63,1,0,0,120,64,100,80
7647.0,0,1.0,63,1,0,0,120,64,100,80
7648.0,62,1.0,63,1,0,0,120,64,100,80
7649.0,60,1.0,63,1,0,0,120,64,100,80
7650.0,64,1.0,63,1,0,0,120,64,100,80
7651.0,64,1.0,63,1,0,0,120,64,100,80
7652.0,60,1.0,63,1,0,0,120,64,100,80
7653.0,60,1.0,63,1,0,0,120,64,100,80
7654.0,67,1.0,63,1,0,0,120,64,100,80
7655.0,60,1.0,63,1,0,0,120,64,100,80
7656.0,62,1.0,63,1,0,0,120,64,100,80
7657.0,60,1.0,63,1,0,0,120,64,100,80
7658.0,60,1.0,63,1,0,0,120,64,100,80
7659.0,67,1.0,63,1,0,0,120,64,100,80
7660.0,64,1.0,63,1,0,0,120,64,100,80
7661.0,71,1.0,63,1,0,0,120,64,100,80
7662.0,0,1.0,63,1,0,0,120,64,100,80
7663.0,62,1.0,63,1,0,0,120,64,100,80
7664.0,60,1.0,63,1,0,0,120,64,100,80
7665.0,69,1.0,63,1,0,0,120,64,100,80
7666.0,60,1.0,63,1,0,0,120,64,100,80
7667.0,67,1.0,63,1,0,0,120,64,100,80
7668.0,67,1.0,63,1,0,0,120,64,100,80
7669.0,60,1.0,63,1,0,0,120,64,100,80
7670.0,60,1.0,63,1,0,0,120,64,100,80
7671.0,60,1.0,63,1,0,0,120,64,100,80
7672.0,71,1.0,63,1,0,0,120,64,100,80
7673.0,71,1.0,63,1,0,0,120,64,100,80
7674.0,67,1.0,63,1,0,0,120,64,100,80
7675.0,60,1.0,63,1,0,0,120,64,100,80
7676.0,64,1.0,63,1,0,0,120,64,100,80
7677.0,65,1.0,63,1,0,0,120,64,100,80
7678.0,71,1.0,63,1,0,0,120,64,100,80
7679.0,65,1.0,63,1,0,0,120,64,100,80
7680.0,64,1.0,63,1,0,0,120,64,100,80
7681.0,60,1.0,63,1,0,0,120,64,100,80
7682.0,69,1.0,63,1,0,0,120,64,100,80
7683.0,60,1.0,63,1,0,0,120,64,100,80
7684.0,67,1.0,63,1,0,0,120,64,100,80
7685.0,71,1.0,63,1,0,0,120,64,100,80
7686.0,62,1.0,63,1,0,0,120,64,100,80
7687.0,60,1.0,63,1,0,0,120,64,100,80
7688.0,64,1.0,63,1,0,0,120,64,100,80
7689.0,60,1.0,63,1,0,0,120,64,100,80
7690.0,60,1.0,63,1,0,0,120,64,100,80
7691.0,62,1.0,63,1,0,0,120,64,100,80
7692.0,62,1.0,63,1,0,0,120,64,100,80
7693.0,65,1.0,63,1,0,0,120,64,100,80
7694.0,65,1.0,63,1,0,0,120,64,100,80
7695.0,65,1.0,63,1,0,0,120,64,100,80
7696.0,60,1.0,63,1,0,0,120,64,100,80
7697.0,69,1.0,63,1,0,0,120,64,100,80
7698.0,60,1.0,63,1,0,0,120,64,100,80
7699.0,65,1.0,63,1,0,0,120,64,100,80
7700.0,62,1.0,63,1,0,0,120,64,100,80
7701.0,64,1.0,63,1,0,0,120,64,100,80
7702.0,65,1.0,63,1,0,0,120,64,100,80
7703.0,69,1.0,63,1,0,0,120,64,100,80
7704.0,65,1.0,63,1,0,0,120,64,100,80
7705.0,69,1.0,63,1,0,0,120,64,100,80
7706.0,69,1.0,63,1,0,0,120,64,100,80
7707.0,60,1.0,63,1,0,0,120,64,100,80
7708.0,60,1.0,63,1,0,0,120,64,100,80
7709.0,65,1.0,63,1,0,0,120,64,100,80
7710.0,60,1.0,63,1,0,0,120,64,100,80
7711.0,60,1.0,63,1,0,0,120,64,100,80
7712.0,60,1.0,63,1,0,0,120,64,100,80
7713.0,62,1.0,63,1,0,0,120,64,100,80
7714.0,69,1.0,63,1,0,0,120,64,100,80
7715.0,62,1.0,63,1,0,0,120,64,100,80
7716.0,64,1.0,63,1,0,0,120,64,100,80
7717.0,64,1.0,63,1,0,0,120,64,100,80
7718.0,0,1.0,63,1,0,0,120,64,100,80
7719.0,62,1.0,63,1,0,0,120,64,100,80
7720.0,60,1.0,63,1,0,0,120,64,100,80
7721.0,71,1.0,63,1,0,0,120,64,100,80
7722.0,60,1.0,63,1,0,0,120,64,100,80
7723.0,64,1.0,63,1,0,0,120,64,100,80
7724.0,60,1.0,63,1,0,0,120,64,100,80
7725.0,69,1.0,63,1,0,0,120,64,100,80
7726.0,64,1.0,63,1,0,0,120,64,100,80
7727.0,60,1.0,63,1,0,0,120,64,100,80
7728.0,62,1.0,63,1,0,0,120,64,100,80
7729.0,67,1.0,63,1,0,0,120,64,100,80
7730.0,60,1.0,63,1,0,0,120,64,100,80
7731.0,71,1.0,63,1,0,0,120,64,100,80
7732.0,60,1.0,63,1,0,0,120,64,100,80
7733.0,60,1.0,63,1,0,0,120,64,100,80
7734.0,62,1.0,63,1,0,0,120,64,100,80
7735.0,60,1.0,63,1,0,0,120,64,100,80
7736.0,60,1.0,63,1,0,0,120,64,100,80
7737.0,60,1.0,63,1,0,0,120,64,100,80
7738.0,69,1.0,63,1,0,0,120,64,100,80
7739.0,60,1.0,63,1,0,0,120,64,100,80
7740.0,60,1.0,63,1,0,0,120,64,100,80
7741.0,64,1.0,63,1,0,0,120,64,100,80
7742.0,62,1.0,63,1,0,0,120,64,100,80
7743.0,64,1.0,63,1,0,0,120,64,100,80
7744.0,64,1.0,63,1,0,0,120,64,100,80
7745.0,64,1.0,63,1,0,0,120,64,100,80
7746.0,69,1.0,63,1,0,0,120,64,100,80
7747.0,69,1.0,63,1,0,0,120,64,100,80
7748.0,60,1.0,63,1,0,0,120,64,100,80
7749.0,71,1.0,63,1,0,0,120,64,100,80
7750.0,60,1.0,63,1,0,0,120,64,100,80
7751.0,64,1.0,63,1,0,0,120,64,100,80
7752.0,71,1.0,63,1,0,0,120,64,100,80
7753.0,69,1.0,63,1,0,0,120,64,100,80
7754.0,62,1.0,63,1,0,0,120,64,100,80
7755.0,0,1.0,63,1,0,0,120,64,100,80
7756.0,64,1.0,63,1,0,0,120,64,100,80
7757.0,69,1.0,63,1,0,0,120,64,100,80
7758.0,60,1.0,63,1,0,0,120,64,100,80
7759.0,62,1.0,63,1,0,0,120,64,100,80
7760.0,64,1.0,63,1,0,0,120,64,100,80
7761.0,71,1.0,63,1,0,0,120,64,100,80
7762.0,65,1.0,63,1,0,0,120,64,100,80
7763.0,69,1.0,63,1,0,0,120,64,100,80
7764.0,60,1.0,63,1,0,0,120,64,100,80
7765.0,62,1.0,63,1,0,0,120,64,100,80
7766.0,69,1.0,63,1,0,0,120,64,100,80
7767.0,60,1.0,63,1,0,0,120,64,100,80
7768.0,69,1.0,63,1,0,0,120,64,100,80
7769.0,60,1.0,63,1,0,0,120,64,100,80
7770.0,71,1.0,63,1,0,0,120,64,100,80
7771.0,62,1.0,63,1,0,0,120,64,100,80
7772.0,64,1.0,63,1,0,0,120,64,100,80
7773.0,64,1.0,63,1,0,0,120,64,100,80
7774.0,64,1.0,63,1,0,0,120,64,100,80
7775.0,60,1.0,63,1,0,0,120,64,100,80
7776.0,0,1.0,63,1,0,0,120,64,100,80
7777.0,60,1.0,63,1,0,0,120,64,100,80
7778.0,69,1.0,63,1,0,0,120,64,100,80
7779.0,62,1.0,63,1,0,0,120,64,100,80
7780.0,65,1.0,63,1,0,0,120,64,100,80
7781.0,69,1.0,63,1,0,0,120,64,100,80
7782.0,69,1.0,63,1,0,0,120,64,100,80
7783.0,65,1.0,63,1,0,0,120,64,100,80
7784.0,60,1.0,63,1,0,0,120,64,100,80
7785.0,60,1.0,63,1,0,0,120,64,100,80
7786.0,65,1.0,63,1,0,0,120,64,100,80
7787.0,64,1.0,63,1,0,0,120,64,100,80
7788.0,64,1.0,63,1,0,0,120,64,100,80
7789.0,60,1.0,63,1,0,0,120,64,100,80
7790.0,69,1.0,63,1,0,0,120,64,100,80
7791.0,71,1.0,63,1,0,0,120,64,100,80
7792.0,60,1.0,63,1,0,0,120,64,100,80
7793.0,67,1.0,63,1,0,0,120,64,100,80
7794.0,69,1.0,63,1,0,0,120,64,100,80
7795.0,67,1.0,63,1,0,0,120,64,100,80
7796.0,64,1.0,63,1,0,0,120,64,100,80
7797.0,62,1.0,63,1,0,0,120,64,100,80
7798.0,60,1.0,63,1,0,0,120,64,100,80
7799.0,60,1.0,63,1,0,0,120,64,100,80
7800.0,64,1.0,63,1,0,0,120,64,100,80
7801.0,64,1.0,63,1,0,0,120,64,100,80
7802.0,62,1.0,63,1,0,0,120,64,100,80
7803.0,60,1.0,63,1,0,0,120,64,100,80
7804.0,60,1.0,63,1,0,0,120,64,100,80
7805.0,60,1.0,63,1,0,0,120,64,100,80
7806.0,60,1.0,63,1,0,0,120,64,100,80
7807.0,64,1.0,63,1,0,0,120,64,100,80
7808.0,69,1.0,63,1,0,0,120,64,100,80
7809.0,69,1.0,63,1,0,0,120,64,100,80
7810.0,62,1.0,63,1,0,0,120,64,100,80
7811.0,71,1.0,63,1,0,0,120,64,100,80
7812.0,60,1.0,63,1,0,0,120,64,100,80
7813.0,60,1.0,63,1,0,0,120,64,100,80
7814.0,64,1.0,63,1,0,0,120,64,100,80
7815.0,60,1.0,63,1,0,0,120,64,100,80
7816.0,71,1.0,63,1,0,0,120,64,100,80
7817.0,65,1.0,63,1,0,0,120,64,100,80
7818.0,62,1.0,63,1,0,0,120,64,100,80
7819.0,64,1.0,63,1,0,0,120,64,100,80
7820.0,60,1.0,63,1,0,0,120,64,100,80
7821.0,0,1.0,63,1,0,0,120,64,100,80
7822.0,60,1.0,63,1,0,0,120,64,100,80
7823.0,64,1.0,63,1,0,0,120,64,100,80
7824.0,65,1.0,63,1,0,0,120,64,100,80
7825.0,60,1.0,63,1,0,0,120,64,100,80
7826.0,0,1.0,63,1,0,0,120,64,100,80
7827.0,69,1.0,63,1,0,0,120,64,100,80
7828.0,62,1.0,63,1,0,0,120,64,100,80
7829.0,69,1.0,63,1,0,0,120,64,100,80
7830.0,60,1.0,63,1,0,0,120,64,100,80
7831.0,71,1.0,63,1,0,0,120,64,100,80
7832.0,60,1.0,63,1,0,0,120,64,100,80
7833.0,71,1.0,63,1,0,0,120,64,100,80
7834.0,69,1.0,63,1,0,0,120,64,100,80
7835.0,69,1.0,63,1,0,0,120,64,100,80
7836.0,64,1.0,63,1,0,0,120,64,100,80
7837.0,60,1.0,63,1,0,0,120,64,100,80
7838.0,64,1.0,63,1,0,0,120,64,100,80
7839.0,65,1.0,63,1,0,0,120,64,100,80
7840.0,60,1.0,63,1,0,0,120,64,100,80
7841.0,69,1.0,63,1,0,0,120,64,100,80
7842.0,65,1.0,63,1,0,0,120,64,100,80
7843.0,69,1.0,63,1,0,0,120,64,100,80
7844.0,60,1.0,63,1,0,0,120,64,100,80
7845.0,69,1.0,63,1,0,0,120,64,100,80
7846.0,71,1.0,63,1,0,0,120,64,100,80
7847.0,60,1.0,63,1,0,0,120,64,100,80
7848.0,60,1.0,63,1,0,0,120,64,100,80
7849.0,60,1.0,63,1,0,0,120,64,100,80
7850.0,64,1.0,63,1,0,0,120,64,100,80
7851.0,67,1.0,63,1,0,0,120,64,100,80
7852.0,62,1.0,63,1,0,0,120,64,100,80
7853.0,64,1.0,63,1,0,0,120,64,100,80
7854.0,64,1.0,63,1,0,0,120,64,100,80
7855.0,60,1.0,63,1,0,0,120,64,100,80
7856.0,64,1.0,63,1,0,0,120,64,100,80
7857.0,60,1.0,63,1,0,0,120,64,100,80
7858.0,60,1.0,63,1,0,0,120,64,100,80
7859.0,62,1.0,63,1,0,0,120,64,100,80
7860.0,60,1.0,63,1,0,0,120,64,100,80
7861.0,69,1.0,63,1,0,0,120,64,100,80
7862.0,71,1.0,63,1,0,0,120,64,100,80
7863.0,62,1.0,63,1,0,0,120,64,100,80
7864.0,69,1.0,63,1,0,0,120,64,100,80
7865.0,60,1.0,63,1,0,0,120,64,100,80
7866.0,64,1.0,63,1,0,0,120,64,100,80
7867.0,71,1.0,63,1,0,0,120,64,100,80
7868.0,60,1.0,63,1,0,0,120,64,100,80
7869.0,71,1.0,63,1,0,0,120,64,100,80
7870.0,64,1.0,63,1,0,0,120,64,100,80
7871.0,71,1.0,63,1,0,0,120,64,100,80
7872.0,60,1.0,63,1,0,0,120,64,100,80
7873.0,60,1.0,63,1,0,0,120,64,100,80
7874.0,71,1.0,63,1,0,0,120,64,100,80
7875.0,69,1.0,63,1,0,0,120,64,100,80
7876.0,60,1.0,63,1,0,0,120,64,100,80
7877.0,65,1.0,63,1,0,0,120,64,100,80
7878.0,71,1.0,63,1,0,0,120,64,100,80
7879.0,69,1.0,63,1,0,0,120,64,100,80
7880.0,60,1.0,63,1,0,0,120,64,100,80
7881.0,60,1.0,63,1,0,0,120,64,100,80
7882.0,60,1.0,63,1,0,0,120,64,100,80
7883.0,65,1.0,63,1,0,0,120,64,100,80
7884.0,69,1.0,63,1,0,0,120,64,100,80
7885.0,71,1.0,63,1,0,0,120,64,100,80
7886.0,71,1.0,63,1,0,0,120,64,100,80
7887.0,69,1.0,63,1,0,0,120,64,100,80
7888.0,64,1.0,63,1,0,0,120,64,100,80
7889.0,69,1.0,63,1,0,0,120,64,100,80
7890.0,0,1.0,63,1,0,0,120,64,100,80
7891.0,62,1.0,63,1,0,0,120,64,100,80
7892.0,60,1.0,63,1,0,0,120,64,100,80
7893.0,62,1.0,63,1,0,0,120,64,100,80
7894.0,65,1.0,63,1,0,0,120,64,100,80
7895.0,60,1.0,63,1,0,0,120,64,100,80
7896.0,60,1.0,63,1,0,0,120,64,100,80
7897.0,69,1.0,63,1,0,0,120,64,100,80
7898.0,69,1.0,63,1,0,0,120,64,100,80
7899.0,64,1.0,63,1,0,0,120,64,100,80
7900.0,71,1.0,63,1,0,0,120,64,100,80
7901.0,60,1.0,63,1,0,0,120,64,100,80
7902.0,64,1.0,63,1,0,0,120,64,100,80
7903.0,64,1.0,63,1,0,0,120,64,100,80
7904.0,60,1.0,63,1,0,0,120,64,100,80
7905.0,60,1.0,63,1,0,0,120,64,100,80
7906.0,64,1.0,63,1,0,0,120,64,100,80
7907.0,60,1.0,63,1,0,0,120,64,100,80
7908.0,67,1.0,63,1,0,0,120,64,100,80
7909.0,69,1.0,63,1,0,0,120,64,100,80
7910.0,60,1.0,63,1,0,0,120,64,100,80
7911.0,71,1.0,63,1,0,0,120,64,100,80
7912.0,62,1.0,63,1,0,0,120,64,100,80
7913.0,64,1.0,63,1,0,0,120,64,100,80
7914.0,60,1.0,63,1,0,0,120,64,100,80
7915.0,60,1.0,63,1,0,0,120,64,100,80
7916.0,60,1.0,63,1,0,0,120,64,100,80
7917.0,64,1.0,63,1,0,0,120,64,100,80
7918.0,71,1.0,63,1,0,0,120,64,100,80
7919.0,60,1.0,63,1,0,0,120,64,100,80
7920.0,60,1.0,63,1,0,0,120,64,100,80
7921.0,0,1.0,63,1,0,0,120,64,100,80
7922.0,69,1.0,63,1,0,0,120,64,100,80
7923.0,60,1.0,63,1,0,0,120,64,100,80
7924.0,64,1.0,63,1,0,0,120,64,100,80
7925.0,71,1.0,63,1,0,0,120,64,100,80
7926.0,69,1.0,63,1,0,0,120,64,100,80
7927.0,71,1.0,63,1,0,0,120,64,100,80
7928.0,64,1.0,63,1,0,0,120,64,100,80
7929.0,71,1.0,63,1,0,0,120,64,100,80
7930.0,71,1.0,63,1,0,0,120,64,100,80
7931.0,60,1.0,63,1,0,0,120,64,100,80
7932.0,60,1.0,63,1,0,0,120,64,100,80
7933.0,62,1.0,63,1,0,0,120,64,100,80
7934.0,71,1.0,63,1,0,0,120,64,100,80
7935.0,69,1.0,63,1,0,0,120,64,100,80
7936.0,62,1.0,63,1,0,0,120,64,100,80
7937.0,62,1.0,63,1,0,0,120,64,100,80
7938.0,69,1.0,63,1,0,0,120,64,100,80
7939.0,60,1.0,63,1,0,0,120,64,100,80
7940.0,62,1.0,63,1,0,0,120,64,100,80
7941.0,69,1.0,63,1,0,0,120,64,100,80
7942.0,60,1.0,63,1,0,0,120,64,100,80
7943.0,64,1.0,63,1,0,0,120,64,100,80
7944.0,64,1.0,63,1,0,0,120,64,100,80
7945.0,64,1.0,63,1,0,0,120,64,100,80
7946.0,60,1.0,63,1,0,0,120,64,100,80
7947.0,71,1.0,63,1,0,0,120,64,100,80
7948.0,64,1.0,63,1,0,0,120,64,100,80
7949.0,60,1.0,63,1,0,0,120,64,100,80
7950.0,62,1.0,63,1,0,0,120,64,100,80
7951.0,67,1.0,63,1,0,0,120,64,100,80
7952.0,64,1.0,63,1,0,0,120,64,100,80
7953.0,69,1.0,63,1,0,0,120,64,100,80
7954.0,62,1.0,63,1,0,0,120,64,100,80
7955.0,71,1.0,63,1,0,0,120,64,100,80
7956.0,64,1.0,63,1,0,0,120,64,100,80
7957.0,60,1.0,63,1,0,0,120,64,100,80
7958.0,64,1.0,63,1,0,0,120,64,100,80
7959.0,60,1.0,63,1,0,0,120,64,100,80
7960.0,69,1.0,63,1,0,0,120,64,100,80
7961.0,62,1.0,63,1,0,0,120,64,100,80
7962.0,69,1.0,63,1,0,0,120,64,100,80
7963.0,60,1.0,63,1,0,0,120,64,100,80
7964.0,69,1.0,63,1,0,0,120,64,100,80
7965.0,65,1.0,63,1,0,0,120,64,100,80
7966.0,62,1.0,63,1,0,0,120,64,100,80
7967.0,60,1.0,63,1,0,0,120,64,100,80
7968.0,0,1.0,63,1,0,0,120,64,100,80
7969.0,67,1.0,63,1,0,0,120,64,100,80
7970.0,65,1.0,63,1,0,0,120,64,100,80
7971.0,62,1.0,63,1,0,0,120,64,100,80
7972.0,60,1.0,63,1,0,0,120,64,100,80
7973.0,60,1.0,63,1,0,0,120,64,100,80
7974.0,67,1.0,63,1,0,0,120,64,100,80
7975.0,69,1.0,63,1,0,0,120,64,100,80
7976.0,69,1.0,63,1,0,0,120,64,100,80
7977.0,71,1.0,63,1,0,0,120,64,100,80
7978.0,60,1.0,63,1,0,0,120,64,100,80
7979.0,65,1.0,63,1,0,0,120,64,100,80
7980.0,60,1.0,63,1,0,0,120,64,100,80
7981.0,60,1.0,63,1,0,0,120,64,100,80
7982.0,60,1.0,63,1,0,0,120,64,100,80
7983.0,67,1.0,63,1,0,0,120,64,100,80
7984.0,60,1.0,63,1,0,0,120,64,100,80
7985.0,62,1.0,63,1,0,0,120,64,100,80
7986.0,65,1.0,63,1,0,0,120,64,100,80
7987.0,60,1.0,63,1,0,0,120,64,100,80
7988.0,71,1.0,63,1,0,0,120,64,100,80
7989.0,62,1.0,63,1,0,0,120,64,100,80
7990.0,65,1.0,63,1,0,0,120,64,100,80
7991.0,71,1.0,63,1,0,0,120,64,100,80
7992.0,62,1.0,63,1,0,0,120,64,100,80
7993.0,62,1.0,63,1,0,0,120,64,100,80
7994.0,65,1.0,63,1,0,0,120,64,100,80
7995.0,0,1.0,63,1,0,0,120,64,100,80
7996.0,71,1.0,63,1,0,0,120,64,100,80
7997.0,69,1.0,63,1,0,0,120,64,100,80
7998.0,64,1.0,63,1,0,0,120,64,100,80
7999.0,69,1.0,63,1,0,0,120,64,100,80
8000.0,60,1.0,63,1,0,0,120,64,100,80
8001.0,71,1.0,63,1,0,0,120,64,100,80
8002.0,67,1.0,63,1,0,0,120,64,100,80
8003.0,60,1.0,63,1,0,0,120,64,100,80
8004.0,67,1.0,63,1,0,0,120,64,100,80
8005.0,64,1.0,63,1,0,0,120,64,100,80
8006.0,60,1.0,63,1,0,0,120,64,100,80
8007.0,64,1.0,63,1,0,0,120,64,100,80
8008.0,65,1.0,63,1,0,0,120,64,100,80
8009.0,71,1.0,63,1,0,0,120,64,100,80
8010.0,62,1.0,63,1,0,0,120,64,100,80
8011.0,71,1.0,63,1,0,0,120,64,100,80
8012.0,69,1.0,63,1,0,0,120,64,100,80
8013.0,67,1.0,63,1,0,0,120,64,100,80
8014.0,71,1.0,63,1,0,0,120,64,100,80
8015.0,62,1.0,63,1,0,0,120,64,100,80
8016.0,64,1.0,63,1,0,0,120,64,100,80
8017.0,65,1.0,63,1,0,0,120,64,100,80
8018.0,65,1.0,63,1,0,0,120,64,100,80
8019.0,69,1.0,63,1,0,0,120,64,100,80
8020.0,64,1.0,63,1,0,0,120,64,100,80
8021.0,62,1.0,63,1,0,0,120,64,100,80
8022.0,60,1.0,63,1,0,0,120,64,100,80
8023.0,62,1.0,63,1,0,0,120,64,100,80
8024.0,0,1.0,63,1,0,0,120,64,100,80
8025.0,60,1.0,63,1,0,0,120,64,100,80
8026.0,0,1.0,63,1,0,0,120,64,100,80
8027.0,71,1.0,63,1,0,0,120,64,100,80
8028.0,65,1.0,63,1,0,0,120,64,100,80
8029.0,71,1.0,63,1,0,0,120,64,100,80
8030.0,65,1.0,63,1,0,0,120,64,100,80
8031.0,64,1.0,63,1,0,0,120,64,100,80
8032.0,67,1.0,63,1,0,0,120,64,100,80
8033.0,60,1.0,63,1,0,0,120,64,100,80
8034.0,0,1.0,63,1,0,0,120,64,100,80
8035.0,62,1.0,63,1,0,0,120,64,100,80
8036.0,62,1.0,63,1,0,0,120,64,100,80
8037.0,69,1.0,63,1,0,0,120,64,100,80
8038.0,69,1.0,63,1,0,0,120,64,100,80
8039.0,60,1.0,63,1,0,0,120,64,100,80
8040.0,64,1.0,63,1,0,0,120,64,100,80
8041.0,67,1.0,63,1,0,0,120,64,100,80
8042.0,71,1.0,63,1,0,0,120,64,100,80
8043.0,64,1.0,63,1,0,0,120,64,100,80
8044.0,65,1.0,63,1,0,0,120,64,100,80
8045.0,62,1.0,63,1,0,0,120,64,100,80
8046.0,62,1.0,63,1,0,0,120,64,100,80
8047.0,60,1.0,63,1,0,0,120,64,100,80
8048.0,60,1.0,63,1,0,0,120,64,100,80
8049.0,67,1.0,63,1,0,0,120,64,100,80
8050.0,71,1.0,63,1,0,0,120,64,100,80
8051.0,64,1.0,63,1,0,0,120,64,100,80
8052.0,69,1.0,63,1,0,0,120,64,100,80
8053.0,62,1.0,63,1,0,0,120,64,100,80
8054.0,64,1.0,63,1,0,0,120,64,100,80
8055.0,64,1.0,63,1,0,0,120,64,100,80
8056.0,69,1.0,63,1,0,0,120,64,100,80
8057.0,69,1.0,63,1,0,0,120,64,100,80
8058.0,60,1.0,63,1,0,0,120,64,100,80
8059.0,69,1.0,63,1,0,0,120,64,100,80
8060.0,71,1.0,63,1,0,0,120,64,100,80
8061.0,64,1.0,63,1,0,0,120,64,100,80
8062.0,71,1.0,63,1,0,0,120,64,100,80
8063.0,60,1.0,63,1,0,0,120,64,100,80
8064.0,64,1.0,63,1,0,0,120,64,100,80
8065.0,71,1.0,63,1,0,0,120,64,100,80
8066.0,69,1.0,63,1,0,0,120,64,100,80
8067.0,69,1.0,63,1,0,0,120,64,100,80
8068.0,71,1.0,63,1,0,0,120,64,100,80
8069.0,71,1.0,63,1,0,0,120,64,100,80
8070.0,0,1.0,63,1,0,0,120,64,100,80
8071.0,60,1.0,63,1,0,0,120,64,100,80
8072.0,71,1.0,63,1,0,0,120,64,100,80
8073.0,60,1.0,63,1,0,0,120,64,100,80
8074.0,62,1.0,63,1,0,0,120,64,100,80
8075.0,71,1.0,63,1,0,0,120,64,100,80
8076.0,71,1.0,63,1,0,0,120,64,100,80
8077.0,62,1.0,63,1,0,0,120,64,100,80
8078.0,69,1.0,63,1,0,0,120,64,100,80
8079.0,71,1.0,63,1,0,0,120,64,100,80
8080.0,60,1.0,63,1,0,0,120,64,100,80
8081.0,60,1.0,63,1,0,0,120,64,100,80
8082.0,60,1.0,63,1,0,0,120,64,100,80
8083.0,64,1.0,63,1,0,0,120,64,100,80
8084.0,65,1.0,63,1,0,0,120,64,100,80
8085.0,62,1.0,63,1,0,0,120,64,100,80
8086.0,71,1.0,63,1,0,0,120,64,100,80
8087.0,60,1.0,63,1,0,0,120,64,100,80
8088.0,65,1.0,63,1,0,0,120,64,100,80
8089.0,71,1.0,63,1,0,0,120,64,100,80
8090.0,64,1.0,63,1,0,0,120,64,100,80
8091.0,62,1.0,63,1,0,0,120,64,100,80
8092.0,67,1.0,63,1,0,0,120,64,100,80
8093.0,0,1.0,63,1,0,0,120,64,100,80
8094.0,65,1.0,63,1,0,0,120,64,100,80
8095.0,69,1.0,63,1,0,0,120,64,100,80
8096.0,64,1.0,63,1,0,0,120,64,100,80
8097.0,69,1.0,63,1,0,0,120,64,100,80
8098.0,64,1.0,63,1,0,0,120,64,100,80
8099.0,60,1.0,63,1,0,0,120,64,100,80
8100.0,65,1.0,63,1,0,0,120,64,100,80
8101.0,62,1.0,63,1,0,0,120,64,100,80
8102.0,64,1.0,63,1,0,0,120,64,100,80
8103.0,64,1.0,63,1,0,0,120,64,100,80
8104.0,64,1.0,63,1,0,0,120,64,100,80
8105.0,65,1.0,63,1,0,0,120,64,100,80
8106.0,69,1.0,63,1,0,0,120,64,100,80
8107.0,62,1.0,63,1,0,0,120,64,100,80
8108.0,65,1.0,63,1,0,0,120,64,100,80
8109.0,60,1.0,63,1,0,0,120,64,100,80
8110.0,64,1.0,63,1,0,0,120,64,100,80
8111.0,60,1.0,63,1,0,0,120,64,100,80
8112.0,60,1.0,63,1,0,0,120,64,100,80
8113.0,64,1.0,63,1,0,0,120,64,100,80
8114.0,65,1.0,63,1,0,0,120,64,100,80
8115.0,60,1.0,63,1,0,0,120,64,100,80
8116.0,69,1.0,63,1,0,0,120,64,100,80
8117.0,65,1.0,63,1,0,0,120,64,100,80
8118.0,64,1.0,63,1,0,0,120,64,100,80
8119.0,60,1.0,63,1,0,0,120,64,100,80
8120.0,69,1.0,63,1,0,0,120,64,100,80
8121.0,69,1.0,63,1,0,0,120,64,100,80
8122.0,60,1.0,63,1,0,0,120,64,100,80
8123.0,64,1.0,63,1,0,0,120,64,100,80
8124.0,62,1.0,63,1,0,0,120,64,100,80
8125.0,62,1.0,63,1,0,0,120,64,100,80
8126.0,67,1.0,63,1,0,0,120,64,100,80
8127.0,69,1.0,63,1,0,0,120,64,100,80
8128.0,60,1.0,63,1,0,0,120,64,100,80
8129.0,60,1.0,63,1,0,0,120,64,100,80
8130.0,60,1.0,63,1,0,0,120,64,100,80
8131.0,69,1.0,63,1,0,0,120,64,100,80
8132.0,60,1.0,63,1,0,0,120,64,100,80
8133.0,65,1.0,63,1,0,0,120,64,100,80
8134.0,60,1.0,63,1,0,0,120,64,100,80
8135.0,65,1.0,63,1,0,0,120,64,100,80
8136.0,62,1.0,63,1,0,0,120,64,100,80
8137.0,71,1.0,63,1,0,0,120,64,100,80
8138.0,69,1.0,63,1,0,0,120,64,100,80
8139.0,69,1.0,63,1,0,0,120,64,100,80
8140.0,60,1.0,63,1,0,0,120,64,100,80
8141.0,62,1.0,63,1,0,0,120,64,100,80
8142.0,60,1.0,63,1,0,0,120,64,100,80
8143.0,65,1.0,63,1,0,0,120,64,100,80
8144.0,69,1.0,63,1,0,0,120,64,100,80
8145.0,62,1.0,63,1,0,0,120,64,100,80
8146.0,64,1.0,63,1,0,0,120,64,100,80
8147.0,69,1.0,63,1,0,0,120,64,100,80
8148.0,64,1.0,63,1,0,0,120,64,100,80
8149.0,69,1.0,63,1,0,0,120,64,100,80
8150.0,62,1.0,63,1,0,0,120,64,100,80
8151.0,64,1.0,63,1,0,0,120,64,100,80
8152.0,67,1.0,63,1,0,0,120,64,100,80
8153.0,65,1.0,63,1,0,0,120,64,100,80
8154.0,60,1.0,63,1,0,0,120,64,100,80
8155.0,64,1.0,63,1,0,0,120,64,100,80
8156.0,65,1.0,63,1,0,0,120,64,100,80
8157.0,64,1.0,63,1,0,0,120,64,100,80
8158.0,62,1.0,63,1,0,0,120,64,100,80
8159.0,60,1.0,63,1,0,0,120,64,100,80
8160.0,65,1.0,63,1,0,0,120,64,100,80
8161.0,69,1.0,63,1,0,0,120,64,100,80
8162.0,67,1.0,63,1,0,0,120,64,100,80
8163.0,65,1.0,63,1,0,0,120,64,100,80
8164.0,60,1.0,63,1,0,0,120,64,100,80
8165.0,65,1.0,63,1,0,0,120,64,100,80
8166.0,69,1.0,63,1,0,0,120,64,100,80
8167.0,64,1.0,63,1,0,0,120,64,100,80
8168.0,64,1.0,63,1,0,0,120,64,100,80
8169.0,67,1.0,63,1,0,0,120,64,100,80
8170.0,69,1.0,63,1,0,0,120,64,100,80
8171.0,65,1.0,63,1,0,0,120,64,100,80
8172.0,64,1.0,63,1,0,0,120,64,100,80
8173.0,60,1.0,63,1,0,0,120,64,100,80
8174.0,64,1.0,63,1,0,0,120,64,100,80
8175.0,62,1.0,63,1,0,0,120,64,100,80
8176.0,64,1.0,63,1,0,0,120,64,100,80
8177.0,60,1.0,63,1,0,0,120,64,100,80
8178.0,60,1.0,63,1,0,0,120,64,100,80
8179.0,64,1.0,63,1,0,0,120,64,100,80
8180.0,65,1.0,63,1,0,0,120,64,100,80
8181.0,64,1.0,63,1,0,0,120,64,100,80
8182.0,67,1.0,63,1,0,0,120,64,100,80
8183.0,71,1.0,63,1,0,0,120,64,100,80
8184.0,65,1.0,63,1,0,0,120,64,100,80
8185.0,69,1.0,63,1,0,0,120,64,100,80
8186.0,64,1.0,63,1,0,0,120,64,100,80
8187.0,69,1.0,63,1,0,0,120,64,100,80
8188.0,65,1.0,63,1,0,0,120,64,100,80
8189.0,64,1.0,63,1,0,0,120,64,100,80
8190.0,64,1.0,63,1,0,0,120,64,100,80
8191.0,65,1.0,63,1,0,0,120,64,100,80
8192.0,62,1.0,63,1,0,0,120,64,100,80
8193.0,60,1.0,63,1,0,0,120,64,100,80
8194.0,65,1.0,63,1,0,0,120,64,100,80
8195.0,67,1.0,63,1,0,0,120,64,100,80
8196.0,71,1.0,63,1,0,0,120,64,100,80
8197.0,65,1.0,63,1,0,0,120,64,100,80
8198.0,65,1.0,63,1,0,0,120,64,100,80
8199.0,64,1.0,63,1,0,0,120,64,100,80
8200.0,69,1.0,63,1,0,0,120,64,100,80
8201.0,67,1.0,63,1,0,0,120,64,100,80
8202.0,64,1.0,63,1,0,0,120,64,100,80
8203.0,62,1.0,63,1,0,0,120,64,100,80
8204.0,67,1.0,63,1,0,0,120,64,100,80
8205.0,67,1.0,63,1,0,0,120,64,100,80
8206.0,62,1.0,63,1,0,0,120,64,100,80
8207.0,62,1.0,63,1,0,0,120,64,100,80
8208.0,69,1.0,63,1,0,0,120,64,100,80
8209.0,62,1.0,63,1,0,0,120,64,100,80
8210.0,65,1.0,63,1,0,0,120,64,100,80
8211.0,62,1.0,63,1,0,0,120,64,100,80
8212.0,64,1.0,63,1,0,0,120,64,100,80
8213.0,67,1.0,63,1,0,0,120,64,100,80
8214.0,64,1.0,63,1,0,0,120,64,100,80
8215.0,69,1.0,63,1,0,0,120,64,100,80
8216.0,67,1.0,63,1,0,0,120,64,100,80
8217.0,65,1.0,63,1,0,0,120,64,100,80
8218.0,65,1.0,63,1,0,0,120,64,100,80
8219.0,69,1.0,63,1,0,0,120,64,100,80
8220.0,62,1.0,63,1,0,0,120,64,100,80
8221.0,60,1.0,63,1,0,0,120,64,100,80
8222.0,60,1.0,63,1,0,0,120,64,100,80
8223.0,60,1.0,63,1,0,0,120,64,100,80
8224.0,67,1.0,63,1,0,0,120,64,100,80
8225.0,60,1.0,63,1,0,0,120,64,100,80
8226.0,62,1.0,63,1,0,0,120,64,100,80
8227.0,62,1.0,63,1,0,0,120,64,100,80
8228.0,64,1.0,63,1,0,0,120,64,100,80
8229.0,64,1.0,63,1,0,0,120,64,100,80
8230.0,64,1.0,63,1,0,0,120,64,100,80
8231.0,71,1.0,63,1,0,0,120,64,100,80
8232.0,64,1.0,63,1,0,0,120,64,100,80
8233.0,64,1.0,63,1,0,0,120,64,100,80
8234.0,65,1.0,63,1,0,0,120,64,100,80
8235.0,60,1.0,63,1,0,0,120,64,100,80
8236.0,62,1.0,63,1,0,0,120,64,100,80
8237.0,67,1.0,63,1,0,0,120,64,100,80
8238.0,64,1.0,63,1,0,0,120,64,100,80
8239.0,62,1.0,63,1,0,0,120,64,100,80
8240.0,64,1.0,63,1,0,0,120,64,100,80
8241.0,65,1.0,63,1,0,0,120,64,100,80
8242.0,69,1.0,63,1,0,0,120,64,100,80
8243.0,60,1.0,63,1,0,0,120,64,100,80
8244.0,62,1.0,63,1,0,0,120,64,100,80
8245.0,60,1.0,63,1,0,0,120,64,100,80
8246.0,67,1.0,63,1,0,0,120,64,100,80
8247.0,0,1.0,63,1,0,0,120,64,100,80
8248.0,69,1.0,63,1,0,0,120,64,100,80
8249.0,60,1.0,63,1,0,0,120,64,100,80
8250.0,62,1.0,63,1,0,0,120,64,100,80
8251.0,64,1.0,63,1,0,0,120,64,100,80
8252.0,60,1.0,63,1,0,0,120,64,100,80
8253.0,67,1.0,63,1,0,0,120,64,100,80
8254.0,60,1.0,63,1,0,0,120,64,100,80
8255.0,65,1.0,63,1,0,0,120,64,100,80
8256.0,64,1.0,63,1,0,0,120,64,100,80
8257.0,62,1.0,63,1,0,0,120,64,100,80
8258.0,62,1.0,63,1,0,0,120,64,100,80
8259.0,67,1.0,63,1,0,0,120,64,100,80
8260.0,69,1.0,63,1,0,0,120,64,100,80
8261.0,60,1.0,63,1,0,0,120,64,100,80
8262.0,60,1.0,63,1,0,0,120,64,100,80
8263.0,62,1.0,63,1,0,0,120,64,100,80
8264.0,64,1.0,63,1,0,0,120,64,100,80
8265.0,67,1.0,63,1,0,0,120,64,100,80
8266.0,69,1.0,63,1,0,0,120,64,100,80
8267.0,60,1.0,63,1,0,0,120,64,100,80
8268.0,64,1.0,63,1,0,0,120,64,100,80
8269.0,64,1.0,63,1,0,0,120,64,100,80
8270.0,67,1.0,63,1,0,0,120,64,100,80
8271.0,69,1.0,63,1,0,0,120,64,100,80
8272.0,67,1.0,63,1,0,0,120,64,100,80
8273.0,64,1.0,63,1,0,0,120,64,100,80
8274.0,64,1.0,63,1,0,0,120,64,100,80
8275.0,62,1.0,63,1,0,0,120,64,100,80
8276.0,65,1.0,63,1,0,0,120,64,100,80
8277.0,69,1.0,63,1,0,0,120,64,100,80
8278.0,64,1.0,63,1,0,0,120,64,100,80
8279.0,69,1.0,63,1,0,0,120,64,100,80
8280.0,71,1.0,63,1,0,0,120,64,100,80
8281.0,60,1.0,63,1,0,0,120,64,100,80
8282.0,67,1.0,63,1,0,0,120,64,100,80
8283.0,65,1.0,63,1,0,0,120,64,100,80
8284.0,71,1.0,63,1,0,0,120,64,100,80
8285.0,62,1.0,63,1,0,0,120,64,100,80
8286.0,0,1.0,63,1,0,0,120,64,100,80
8287.0,64,1.0,63,1,0,0,120,64,100,80
8288.0,65,1.0,63,1,0,0,120,64,100,80
8289.0,64,1.0,63,1,0,0,120,64,100,80
8290.0,69,1.0,63,1,0,0,120,64,100,80
8291.0,62,1.0,63,1,0,0,120,64,100,80
8292.0,65,1.0,63,1,0,0,120,64,100,80
8293.0,60,1.0,63,1,0,0,120,64,100,80
8294.0,67,1.0,63,1,0,0,120,64,100,80
8295.0,60,1.0,63,1,0,0,120,64,100,80
8296.0,62,1.0,63,1,0,0,120,64,100,80
8297.0,64,1.0,63,1,0,0,120,64,100,80
8298.0,69,1.0,63,1,0,0,120,64,100,80
8299.0,62,1.0,63,1,0,0,120,64,100,80
8300.0,71,1.0,63,1,0,0,120,64,100,80
8301.0,60,1.0,63,1,0,0,120,64,100,80
8302.0,60,1.0,63,1,0,0,120,64,100,80
8303.0,69,1.0,63,1,0,0,120,64,100,80
8304.0,64,1.0,63,1,0,0,120,64,100,80
8305.0,60,1.0,63,1,0,0,120,64,100,80
8306.0,62,1.0,63,1,0,0,120,64,100,80
8307.0,60,1.0,63,1,0,0,120,64,100,80
8308.0,62,1.0,63,1,0,0,120,64,100,80
8309.0,69,1.0,63,1,0,0,120,64,100,80
8310.0,64,1.0,63,1,0,0,120,64,100,80
8311.0,60,1.0,63,1,0,0,120,64,100,80
8312.0,64,1.0,63,1,0,0,120,64,100,80
8313.0,60,1.0,63,1,0,0,120,64,100,80
8314.0,0,1.0,63,1,0,0,120,64,100,80
8315.0,65,1.0,63,1,0,0,120,64,100,80
8316.0,62,1.0,63,1,0,0,120,64,100,80
8317.0,64,1.0,63,1,0,0,120,64,100,80
8318.0,71,1.0,63,1,0,0,120,64,100,80
8319.0,69,1.0,63,1,0,0,120,64,100,80
8320.0,62,1.0,63,1,0,0,120,64,100,80
8321.0,69,1.0,63,1,0,0,120,64,100,80
8322.0,69,1.0,63,1,0,0,120,64,100,80
8323.0,69,1.0,63,1,0,0,120,64,100,80
8324.0,69,1.0,63,1,0,0,120,64,100,80
8325.0,71,1.0,63,1,0,0,120,64,100,80
8326.0,69,1.0,63,1,0,0,120,64,100,80
8327.0,64,1.0,63,1,0,0,120,64,100,80
8328.0,67,1.0,63,1,0,0,120,64,100,80
8329.0,71,1.0,63,1,0,0,120,64,100,80
8330.0,65,1.0,63,1,0,0,120,64,100,80
8331.0,65,1.0,63,1,0,0,120,64,100,80
8332.0,71,1.0,63,1,0,0,120,64,100,80
8333.0,65,1.0,63,1,0,0,120,64,100,80
8334.0,60,1.0,63,1,0,0,120,64,100,80
8335.0,67,1.0,63,1,0,0,120,64,100,80
8336.0,60,1.0,63,1,0,0,120,64,100,80
8337.0,69,1.0,63,1,0,0,120,64,100,80
8338.0,69,1.0,63,1,0,0,120,64,100,80
8339.0,71,1.0,63,1,0,0,120,64,100,80
8340.0,60,1.0,63,1,0,0,120,64,100,80
8341.0,62,1.0,63,1,0,0,120,64,100,80
8342.0,64,1.0,63,1,0,0,120,64,100,80
8343.0,62,1.0,63,1,0,0,120,64,100,80
8344.0,67,1.0,63,1,0,0,120,64,100,80
8345.0,62,1.0,63,1,0,0,120,64,100,80
8346.0,67,1.0,63,1,0,0,120,64,100,80
8347.0,65,1.0,63,1,0,0,120,64,100,80
8348.0,65,1.0,63,1,0,0,120,64,100,80
8349.0,69,1.0,63,1,0,0,120,64,100,80
8350.0,60,1.0,63,1,0,0,120,64,100,80
8351.0,64,1.0,63,1,0,0,120,64,100,80
8352.0,69,1.0,63,1,0,0,120,64,100,80
8353.0,60,1.0,63,1,0,0,120,64,100,80
8354.0,60,1.0,63,1,0,0,120,64,100,80
8355.0,60,1.0,63,1,0,0,120,64,100,80
8356.0,69,1.0,63,1,0,0,120,64,100,80
8357.0,60,1.0,63,1,0,0,120,64,100,80
8358.0,71,1.0,63,1,0,0,120,64,100,80
8359.0,62,1.0,63,1,0,0,120,64,100,80
8360.0,69,1.0,63,1,0,0,120,64,100,80
8361.0,60,1.0,63,1,0,0,120,64,100,80
8362.0,60,1.0,63,1,0,0,120,64,100,80
8363.0,60,1.0,63,1,0,0,120,64,100,80
8364.0,60,1.0,63,1,0,0,120,64,100,80
8365.0,60,1.0,63,1,0,0,120,64,100,80
8366.0,60,1.0,63,1,0,0,120,64,100,80
8367.0,62,1.0,63,1,0,0,120,64,100,80
8368.0,65,1.0,63,1,0,0,120,64,100,80
8369.0,67,1.0,63,1,0,0,120,64,100,80
8370.0,60,1.0,63,1,0,0,120,64,100,80
8371.0,69,1.0,63,1,0,0,120,64,100,80
8372.0,64,1.0,63,1,0,0,120,64,100,80
8373.0,64,1.0,63,1,0,0,120,64,100,80
8374.0,62,1.0,63,1,0,0,120,64,100,80
8375.0,60,1.0,63,1,0,0,120,64,100,80
8376.0,69,1.0,63,1,0,0,120,64,100,80
8377.0,60,1.0,63,1,0,0,120,64,100,80
8378.0,64,1.0,63,1,0,0,120,64,100,80
8379.0,60,1.0,63,1,0,0,120,64,100,80
8380.0,60,1.0,63,1,0,0,120,64,100,80
8381.0,60,1.0,63,1,0,0,120,64,100,80
8382.0,65,1.0,63,1,0,0,120,64,100,80
8383.0,65,1.0,63,1,0,0,120,64,100,80
8384.0,0,1.0,63,1,0,0,120,64,100,80
8385.0,62,1.0,63,1,0,0,120,64,100,80
8386.0,69,1.0,63,1,0,0,120,64,100,80
8387.0,60,1.0,63,1,0,0,120,64,100,80
8388.0,60,1.0,63,1,0,0,120,64,100,80
8389.0,64,1.0,63,1,0,0,120,64,100,80
8390.0,60,1.0,63,1,0,0,120,64,100,80
8391.0,60,1.0,63,1,0,0,120,64,100,80
8392.0,71,1.0,63,1,0,0,120,64,100,80
8393.0,67,1.0,63,1,0,0,120,64,100,80
8394.0,60,1.0,63,1,0,0,120,64,100,80
8395.0,69,1.0,63,1,0,0,120,64,100,80
8396.0,60,1.0,63,1,0,0,120,64,100,80
8397.0,69,1.0,63,1,0,0,120,64,100,80
8398.0,62,1.0,63,1,0,0,120,64,100,80
8399.0,64,1.0,63,1,0,0,120,64,100,80
8400.0,64,1.0,63,1,0,0,120,64,100,80
8401.0,69,1.0,63,1,0,0,120,64,100,80
8402.0,60,1.0,63,1,0,0,120,64,100,80
8403.0,69,1.0,63,1,0,0,120,64,100,80
8404.0,65,1.0,63,1,0,0,120,64,100,80
8405.0,0,1.0,63,1,0,0,120,64,100,80
8406.0,62,1.0,63,1,0,0,120,64,100,80
8407.0,69,1.0,63,1,0,0,120,64,100,80
8408.0,60,1.0,63,1,0,0,120,64,100,80
8409.0,0,1.0,63,1,0,0,120,64,100,80
8410.0,64,1.0,63,1,0,0,120,64,100,80
8411.0,69,1.0,63,1,0,0,120,64,100,80
8412.0,0,1.0,63,1,0,0,120,64,100,80
8413.0,64,1.0,63,1,0,0,120,64,100,80
8414.0,67,1.0,63,1,0,0,120,64,100,80
8415.0,71,1.0,63,1,0,0,120,64,100,80
8416.0,60,1.0,63,1,0,0,120,64,100,80
8417.0,0,1.0,63,1,0,0,120,64,100,80
8418.0,71,1.0,63,1,0,0,120,64,100,80
8419.0,67,1.0,63,1,0,0,120,64,100,80
8420.0,69,1.0,63,1,0,0,120,64,100,80
8421.0,60,1.0,63,1,0,0,120,64,100,80
8422.0,60,1.0,63,1,0,0,120,64,100,80
8423.0,64,1.0,63,1,0,0,120,64,100,80
8424.0,64,1.0,63,1,0,0,120,64,100,80
8425.0,60,1.0,63,1,0,0,120,64,100,80
8426.0,60,1.0,63,1,0,0,120,64,100,80
8427.0,60,1.0,63,1,0,0,120,64,100,80
8428.0,60,1.0,63,1,0,0,120,64,100,80
8429.0,65,1.0,63,1,0,0,120,64,100,80
8430.0,62,1.0,63,1,0,0,120,64,100,80
8431.0,60,1.0,63,1,0,0,120,64,100,80
8432.0,62,1.0,63,1,0,0,120,64,100,80
8433.0,65,1.0,63,1,0,0,120,64,100,80
8434.0,67,1.0,63,1,0,0,120,64,100,80
8435.0,71,1.0,63,1,0,0,120,64,100,80
8436.0,60,1.0,63,1,0,0,120,64,100,80
8437.0,71,1.0,63,1,0,0,120,64,100,80
8438.0,69,1.0,63,1,0,0,120,64,100,80
8439.0,71,1.0,63,1,0,0,120,64,100,80
8440.0,60,1.0,63,1,0,0,120,64,100,80
8441.0,64,1.0,63,1,0,0,120,64,100,80
8442.0,64,1.0,63,1,0,0,120,64,100,80
8443.0,60,1.0,63,1,0,0,120,64,100,80
8444.0,60,1.0,63,1,0,0,120,64,100,80
8445.0,69,1.0,63,1,0,0,120,64,100,80
8446.0,62,1.0,63,1,0,0,120,64,100,80
8447.0,60,1.0,63,1,0,0,120,64,100,80
8448.0,69,1.0,63,1,0,0,120,64,100,80
8449.0,65,1.0,63,1,0,0,120,64,100,80
8450.0,65,1.0,63,1,0,0,120,64,100,80
8451.0,0,1.0,63,1,0,0,120,64,100,80
8452.0,60,1.0,63,1,0,0,120,64,100,80
8453.0,67,1.0,63,1,0,0,120,64,100,80
8454.0,62,1.0,63,1,0,0,120,64,100,80
8455.0,71,1.0,63,1,0,0,120,64,100,80
8456.0,67,1.0,63,1,0,0,120,64,100,80
8457.0,69,1.0,63,1,0,0,120,64,100,80
8458.0,60,1.0,63,1,0,0,120,64,100,80
8459.0,60,1.0,63,1,0,0,120,64,100,80
8460.0,60,1.0,63,1,0,0,120,64,100,80
8461.0,60,1.0,63,1,0,0,120,64,100,80
8462.0,60,1.0,63,1,0,0,120,64,100,80
8463.0,71,1.0,63,1,0,0,120,64,100,80
8464.0,62,1.0,63,1,0,0,120,64,100,80
8465.0,64,1.0,63,1,0,0,120,64,100,80
8466.0,69,1.0,63,1,0,0,120,64,100,80
8467.0,60,1.0,63,1,0,0,120,64,100,80
8468.0,69,1.0,63,1,0,0,120,64,100,80
8469.0,60,1.0,63,1,0,0,120,64,100,80
8470.0,60,1.0,63,1,0,0,120,64,100,80
8471.0,71,1.0,63,1,0,0,120,64,100,80
8472.0,71,1.0,63,1,0,0,120,64,100,80
8473.0,60,1.0,63,1,0,0,120,64,100,80
8474.0,62,1.0,63,1,0,0,120,64,100,80
8475.0,65,1.0,63,1,0,0,120,64,100,80
8476.0,60,1.0,63,1,0,0,120,64,100,80
8477.0,65,1.0,63,1,0,0,120,64,100,80
8478.0,60,1.0,63,1,0,0,120,64,100,80
8479.0,60,1.0,63,1,0,0,120,64,100,80
8480.0,60,1.0,63,1,0,0,120,64,100,80
8481.0,62,1.0,63,1,0,0,120,64,100,80
8482.0,60,1.0,63,1,0,0,120,64,100,80
8483.0,60,1.0,63,1,0,0,120,64,100,80
8484.0,60,1.0,63,1,0,0,120,64,100,80
8485.0,64,1.0,63,1,0,0,120,64,100,80
8486.0,67,1.0,63,1,0,0,120,64,100,80
8487.0,71,1.0,63,1,0,0,120,64,100,80
8488.0,60,1.0,63,1,0,0,120,64,100,80
8489.0,60,1.0,63,1,0,0,120,64,100,80
8490.0,62,1.0,63,1,0,0,120,64,100,80
8491.0,60,1.0,63,1,0,0,120,64,100,80
8492.0,60,1.0,63,1,0,0,120,64,100,80
8493.0,67,1.0,63,1,0,0,120,64,100,80
8494.0,60,1.0,63,1,0,0,120,64,100,80
8495.0,62,1.0,63,1,0,0,120,64,100,80
8496.0,71,1.0,63,1,0,0,120,64,100,80
8497.0,71,1.0,63,1,0,0,120,64,100,80
8498.0,64,1.0,63,1,0,0,120,64,100,80
8499.0,0,1.0,63,1,0,0,120,64,100,80
8500.0,62,1.0,63,1,0,0,120,64,100,80
8501.0,0,1.0,63,1,0,0,120,64,100,80
8502.0,62,1.0,63,1,0,0,120,64,100,80
8503.0,69,1.0,63,1,0,0,120,64,100,80
8504.0,62,1.0,63,1,0,0,120,64,100,80
8505.0,60,1.0,63,1,0,0,120,64,100,80
8506.0,60,1.0,63,1,0,0,120,64,100,80
8507.0,71,1.0,63,1,0,0,120,64,100,80
8508.0,60,1.0,63,1,0,0,120,64,100,80
8509.0,60,1.0,63,1,0,0,120,64,100,80
8510.0,64,1.0,63,1,0,0,120,64,100,80
8511.0,60,1.0,63,1,0,0,120,64,100,80
8512.0,71,1.0,63,1,0,0,120,64,100,80
8513.0,69,1.0,63,1,0,0,120,64,100,80
8514.0,71,1.0,63,1,0,0,120,64,100,80
8515.0,64,1.0,63,1,0,0,120,64,100,80
8516.0,60,1.0,63,1,0,0,120,64,100,80
8517.0,64,1.0,63,1,0,0,120,64,100,80
8518.0,62,1.0,63,1,0,0,120,64,100,80
8519.0,0,1.0,63,1,0,0,120,64,100,80
8520.0,62,1.0,63,1,0,0,120,64,100,80
8521.0,60,1.0,63,1,0,0,120,64,100,80
8522.0,64,1.0,63,1,0,0,120,64,100,80
8523.0,69,1.0,63,1,0,0,120,64,100,80
8524.0,60,1.0,63,1,0,0,120,64,100,80
8525.0,62,1.0,63,1,0,0,120,64,100,80
8526.0,65,1.0,63,1,0,0,120,64,100,80
8527.0,71,1.0,63,1,0,0,120,64,100,80
8528.0,65,1.0,63,1,0,0,120,64,100,80
8529.0,71,1.0,63,1,0,0,120,64,100,80
8530.0,65,1.0,63,1,0,0,120,64,100,80
8531.0,62,1.0,63,1,0,0,120,64,100,80
8532.0,64,1.0,63,1,0,0,120,64,100,80
8533.0,64,1.0,63,1,0,0,120,64,100,80
8534.0,71,1.0,63,1,0,0,120,64,100,80
8535.0,62,1.0,63,1,0,0,120,64,100,80
8536.0,60,1.0,63,1,0,0,120,64,100,80
8537.0,64,1.0,63,1,0,0,120,64,100,80
8538.0,60,1.0,63,1,0,0,120,64,100,80
8539.0,64,1.0,63,1,0,0,120,64,100,80
8540.0,64,1.0,63,1,0,0,120,64,100,80
8541.0,65,1.0,63,1,0,0,120,64,100,80
8542.0,65,1.0,63,1,0,0,120,64,100,80
8543.0,60,1.0,63,1,0,0,120,64,100,80
8544.0,65,1.0,63,1,0,0,120,64,100,80
8545.0,65,1.0,63,1,0,0,120,64,100,80
8546.0,65,1.0,63,1,0,0,120,64,100,80
8547.0,60,1.0,63,1,0,0,120,64,100,80
8548.0,62,1.0,63,1,0,0,120,64,100,80
8549.0,60,1.0,63,1,0,0,120,64,100,80
8550.0,71,1.0,63,1,0,0,120,64,100,80
8551.0,69,1.0,63,1,0,0,120,64,100,80
8552.0,64,1.0,63,1,0,0,120,64,100,80
8553.0,69,1.0,63,1,0,0,120,64,100,80
8554.0,69,1.0,63,1,0,0,120,64,100,80
8555.0,60,1.0,63,1,0,0,120,64,100,80
8556.0,69,1.0,63,1,0,0,120,64,100,80
8557.0,0,1.0,63,1,0,0,120,64,100,80
8558.0,60,1.0,63,1,0,0,120,64,100,80
8559.0,69,1.0,63,1,0,0,120,64,100,80
8560.0,62,1.0,63,1,0,0,120,64,100,80
8561.0,62,1.0,63,1,0,0,120,64,100,80
8562.0,60,1.0,63,1,0,0,120,64,100,80
8563.0,64,1.0,63,1,0,0,120,64,100,80
8564.0,64,1.0,63,1,0,0,120,64,100,80
8565.0,71,1.0,63,1,0,0,120,64,100,80
8566.0,60,1.0,63,1,0,0,120,64,100,80
8567.0,64,1.0,63,1,0,0,120,64,100,80
8568.0,69,1.0,63,1,0,0,120,64,100,80
8569.0,64,1.0,63,1,0,0,120,64,100,80
8570.0,69,1.0,63,1,0,0,120,64,100,80
8571.0,64,1.0,63,1,0,0,120,64,100,80
8572.0,64,1.0,63,1,0,0,120,64,100,80
8573.0,69,1.0,63,1,0,0,120,64,100,80
8574.0,60,1.0,63,1,0,0,120,64,100,80
8575.0,65,1.0,63,1,0,0,120,64,100,80
8576.0,64,1.0,63,1,0,0,120,64,100,80
8577.0,60,1.0,63,1,0,0,120,64,100,80
8578.0,62,1.0,63,1,0,0,120,64,100,80
8579.0,62,1.0,63,1,0,0,120,64,100,80
8580.0,64,1.0,63,1,0,0,120,64,100,80
8581.0,65,1.0,63,1,0,0,120,64,100,80
8582.0,60,1.0,63,1,0,0,120,64,100,80
8583.0,60,1.0,63,1,0,0,120,64,100,80
8584.0,71,1.0,63,1,0,0,120,64,100,80
8585.0,60,1.0,63,1,0,0,120,64,100,80
8586.0,64,1.0,63,1,0,0,120,64,100,80
8587.0,64,1.0,63,1,0,0,120,64,100,80
8588.0,62,1.0,63,1,0,0,120,64,100,80
8589.0,60,1.0,63,1,0,0,120,64,100,80
8590.0,69,1.0,63,1,0,0,120,64,100,80
8591.0,60,1.0,63,1,0,0,120,64,100,80
8592.0,60,1.0,63,1,0,0,120,64,100,80
8593.0,64,1.0,63,1,0,0,120,64,100,80
8594.0,62,1.0,63,1,0,0,120,64,100,80
8595.0,60,1.0,63,1,0,0,120,64,100,80
8596.0,64,1.0,63,1,0,0,120,64,100,80
8597.0,60,1.0,63,1,0,0,120,64,100,80
8598.0,60,1.0,63,1,0,0,120,64,100,80
8599.0,69,1.0,63,1,0,0,120,64,100,80
8600.0,71,1.0,63,1,0,0,120,64,100,80
8601.0,69,1.0,63,1,0,0,120,64,100,80
8602.0,62,1.0,63,1,0,0,120,64,100,80
8603.0,69,1.0,63,1,0,0,120,64,100,80
8604.0,60,1.0,63,1,0,0,120,64,100,80
8605.0,62,1.0,63,1,0,0,120,64,100,80
8606.0,65,1.0,63,1,0,0,120,64,100,80
8607.0,65,1.0,63,1,0,0,120,64,100,80
8608.0,60,1.0,63,1,0,0,120,64,100,80
8609.0,60,1.0,63,1,0,0,120,64,100,80
8610.0,69,1.0,63,1,0,0,120,64,100,80
8611.0,64,1.0,63,1,0,0,120,64,100,80
8612.0,60,1.0,63,1,0,0,120,64,100,80
8613.0,69,1.0,63,1,0,0,120,64,100,80
8614.0,62,1.0,63,1,0,0,120,64,100,80
8615.0,64,1.0,63,1,0,0,120,64,100,80
8616.0,69,1.0,63,1,0,0,120,64,100,80
8617.0,65,1.0,63,1,0,0,120,64,100,80
8618.0,62,1.0,63,1,0,0,120,64,100,80
8619.0,60,1.0,63,1,0,0,120,64,100,80
8620.0,67,1.0,63,1,0,0,120,64,100,80
8621.0,71,1.0,63,1,0,0,120,64,100,80
8622.0,60,1.0,63,1,0,0,120,64,100,80
8623.0,64,1.0,63,1,0,0,120,64,100,80
8624.0,60,1.0,63,1,0,0,120,64,100,80
8625.0,64,1.0,63,1,0,0,120,64,100,80
8626.0,60,1.0,63,1,0,0,120,64,100,80
8627.0,60,1.0,63,1,0,0,120,64,100,80
8628.0,64,1.0,63,1,0,0,120,64,100,80
8629.0,69,1.0,63,1,0,0,120,64,100,80
8630.0,65,1.0,63,1,0,0,120,64,100,80
8631.0,64,1.0,63,1,0,0,120,64,100,80
8632.0,64,1.0,63,1,0,0,120,64,100,80
8633.0,60,1.0,63,1,0,0,120,64,100,80
8634.0,67,1.0,63,1,0,0,120,64,100,80
8635.0,69,1.0,63,1,0,0,120,64,100,80
8636.0,67,1.0,63,1,0,0,120,64,100,80
8637.0,60,1.0,63,1,0,0,120,64,100,80
8638.0,67,1.0,63,1,0,0,120,64,100,80
8639.0,60,1.0,63,1,0,0,120,64,100,80
8640.0,60,1.0,63,1,0,0,120,64,100,80
8641.0,67,1.0,63,1,0,0,120,64,100,80
8642.0,69,1.0,63,1,0,0,120,64,100,80
8643.0,62,1.0,63,1,0,0,120,64,100,80
8644.0,69,1.0,63,1,0,0,120,64,100,80
8645.0,62,1.0,63,1,0,0,120,64,100,80
8646.0,65,1.0,63,1,0,0,120,64,100,80
8647.0,67,1.0,63,1,0,0,120,64,100,80
8648.0,65,1.0,63,1,0,0,120,64,100,80
8649.0,62,1.0,63,1,0,0,120,64,100,80
8650.0,65,1.0,63,1,0,0,120,64,100,80
8651.0,0,1.0,63,1,0,0,120,64,100,80
8652.0,62,1.0,63,1,0,0,120,64,100,80
8653.0,69,1.0,63,1,0,0,120,64,100,80
8654.0,65,1.0,63,1,0,0,120,64,100,80
8655.0,69,1.0,63,1,0,0,120,64,100,80
8656.0,67,1.0,63,1,0,0,120,64,100,80
8657.0,64,1.0,63,1,0,0,120,64,100,80
8658.0,64,1.0,63,1,0,0,120,64,100,80
8659.0,64,1.0,63,1,0,0,120,64,100,80
8660.0,71,1.0,63,1,0,0,120,64,100,80
8661.0,64,1.0,63,1,0,0,120,64,100,80
8662.0,60,1.0,63,1,0,0,120,64,100,80
8663.0,62,1.0,63,1,0,0,120,64,100,80
8664.0,64,1.0,63,1,0,0,120,64,100,80
8665.0,0,1.0,63,1,0,0,120,64,100,80
8666.0,60,1.0,63,1,0,0,120,64,100,80
8667.0,60,1.0,63,1,0,0,120,64,100,80
8668.0,0,1.0,63,1,0,0,120,64,100,80
8669.0,65,1.0,63,1,0,0,120,64,100,80
8670.0,62,1.0,63,1,0,0,120,64,100,80
8671.0,60,1.0,63,1,0,0,120,64,100,80
8672.0,0,1.0,63,1,0,0,120,64,100,80
8673.0,60,1.0,63,1,0,0,120,64,100,80
8674.0,64,1.0,63,1,0,0,120,64,100,80
8675.0,67,1.0,63,1,0,0,120,64,100,80
8676.0,69,1.0,63,1,0,0,120,64,100,80
8677.0,65,1.0,63,1,0,0,120,64,100,80
8678.0,62,1.0,63,1,0,0,120,64,100,80
8679.0,64,1.0,63,1,0,0,120,64,100,80
8680.0,62,1.0,63,1,0,0,120,64,100,80
8681.0,60,1.0,63,1,0,0,120,64,100,80
8682.0,65,1.0,63,1,0,0,120,64,100,80
8683.0,60,1.0,63,1,0,0,120,64,100,80
8684.0,71,1.0,63,1,0,0,120,64,100,80
8685.0,60,1.0,63,1,0,0,120,64,100,80
8686.0,60,1.0,63,1,0,0,120,64,100,80
8687.0,65,1.0,63,1,0,0,120,64,100,80
8688.0,71,1.0,63,1,0,0,120,64,100,80
8689.0,67,1.0,63,1,0,0,120,64,100,80
8690.0,64,1.0,63,1,0,0,120,64,100,80
8691.0,60,1.0,63,1,0,0,120,64,100,80
8692.0,60,1.0,63,1,0,0,120,64,100,80
8693.0,0,1.0,63,1,0,0,120,64,100,80
8694.0,60,1.0,63,1,0,0,120,64,100,80
8695.0,69,1.0,63,1,0,0,120,64,100,80
8696.0,69,1.0,63,1,0,0,120,64,100,80
8697.0,64,1.0,63,1,0,0,120,64,100,80
8698.0,64,1.0,63,1,0,0,120,64,100,80
8699.0,64,1.0,63,1,0,0,120,64,100,80
8700.0,60,1.0,63,1,0,0,120,64,100,80
8701.0,0,1.0,63,1,0,0,120,64,100,80
8702.0,62,1.0,63,1,0,0,120,64,100,80
8703.0,60,1.0,63,1,0,0,120,64,100,80
8704.0,0,1.0,63,1,0,0,120,64,100,80
8705.0,62,1.0,63,1,0,0,120,64,100,80
8706.0,69,1.0,63,1,0,0,120,64,100,80
8707.0,60,1.0,63,1,0,0,120,64,100,80
8708.0,69,1.0,63,1,0,0,120,64,100,80
8709.0,71,1.0,63,1,0,0,120,64,100,80
8710.0,60,1.0,63,1,0,0,120,64,100,80
8711.0,71,1.0,63,1,0,0,120,64,100,80
8712.0,62,1.0,63,1,0,0,120,64,100,80
8713.0,71,1.0,63,1,0,0,120,64,100,80
8714.0,65,1.0,63,1,0,0,120,64,100,80
8715.0,65,1.0,63,1,0,0,120,64,100,80
8716.0,60,1.0,63,1,0,0,120,64,100,80
8717.0,64,1.0,63,1,0,0,120,64,100,80
8718.0,62,1.0,63,1,0,0,120,64,100,80
8719.0,60,1.0,63,1,0,0,120,64,100,80
8720.0,62,1.0,63,1,0,0,120,64,100,80
8721.0,64,1.0,63,1,0,0,120,64,100,80
8722.0,0,1.0,63,1,0,0,120,64,100,80
8723.0,67,1.0,63,1,0,0,120,64,100,80
8724.0,60,1.0,63,1,0,0,120,64,100,80
8725.0,71,1.0,63,1,0,0,120,64,100,80
8726.0,60,1.0,63,1,0,0,120,64,100,80
8727.0,64,1.0,63,1,0,0,120,64,100,80
8728.0,62,1.0,63,1,0,0,120,64,100,80
8729.0,64,1.0,63,1,0,0,120,64,100,80
8730.0,64,1.0,63,1,0,0,120,64,100,80
8731.0,60,1.0,63,1,0,0,120,64,100,80
8732.0,64,1.0,63,1,0,0,120,64,100,80
8733.0,65,1.0,63,1,0,0,120,64,100,80
8734.0,64,1.0,63,1,0,0,120,64,100,80
8735.0,71,1.0,63,1,0,0,120,64,100,80
8736.0,65,1.0,63,1,0,0,120,64,100,80
8737.0,67,1.0,63,1,0,0,120,64,100,80
8738.0,60,1.0,63,1,0,0,120,64,100,80
8739.0,60,1.0,63,1,0,0,120,64,100,80
8740.0,69,1.0,63,1,0,0,120,64,100,80
8741.0,60,1.0,63,1,0,0,120,64,100,80
8742.0,69,1.0,63,1,0,0,120,64,100,80
8743.0,65,1.0,63,1,0,0,120,64,100,80
8744.0,60,1.0,63,1,0,0,120,64,100,80
8745.0,67,1.0,63,1,0,0,120,64,100,80
8746.0,62,1.0,63,1,0,0,120,64,100,80
8747.0,60,1.0,63,1,0,0,120,64,100,80
8748.0,69,1.0,63,1,0,0,120,64,100,80
8749.0,67,1.0,63,1,0,0,120,64,100,80
8750.0,69,1.0,63,1,0,0,120,64,100,80
8751.0,60,1.0,63,1,0,0,120,64,100,80
8752.0,60,1.0,63,1,0,0,120,64,100,80
8753.0,60,1.0,63,1,0,0,120,64,100,80
8754.0,60,1.0,63,1,0,0,120,64,100,80
8755.0,60,1.0,63,1,0,0,120,64,100,80
8756.0,60,1.0,63,1,0,0,120,64,100,80
8757.0,67,1.0,63,1,0,0,120,64,100,80
8758.0,62,1.0,63,1,0,0,120,64,100,80
8759.0,62,1.0,63,1,0,0,120,64,100,80
8760.0,60,1.0,63,1,0,0,120,64,100,80
8761.0,71,1.0,63,1,0,0,120,64,100,80
8762.0,69,1.0,63,1,0,0,120,64,100,80
8763.0,60,1.0,63,1,0,0,120,64,100,80
8764.0,62,1.0,63,1,0,0,120,64,100,80
8765.0,69,1.0,63,1,0,0,120,64,100,80
8766.0,60,1.0,63,1,0,0,120,64,100,80
8767.0,60,1.0,63,1,0,0,120,64,100,80
8768.0,62,1.0,63,1,0,0,120,64,100,80
8769.0,62,1.0,63,1,0,0,120,64,100,80
8770.0,67,1.0,63,1,0,0,120,64,100,80
8771.0,60,1.0,63,1,0,0,120,64,100,80
8772.0,71,1.0,63,1,0,0,120,64,100,80
8773.0,60,1.0,63,1,0,0,120,64,100,80
8774.0,60,1.0,63,1,0,0,120,64,100,80
8775.0,71,1.0,63,1,0,0,120,64,100,80
8776.0,64,1.0,63,1,0,0,120,64,100,80
8777.0,69,1.0,63,1,0,0,120,64,100,80
8778.0,60,1.0,63,1,0,0,120,64,100,80
8779.0,69,1.0,63,1,0,0,120,64,100,80
8780.0,60,1.0,63,1,0,0,120,64,100,80
8781.0,71,1.0,63,1,0,0,120,64,100,80
8782.0,67,1.0,63,1,0,0,120,64,100,80
8783.0,67,1.0,63,1,0,0,120,64,100,80
8784.0,60,1.0,63,1,0,0,120,64,100,80
8785.0,60,1.0,63,1,0,0,120,64,100,80
8786.0,69,1.0,63,1,0,0,120,64,100,80
8787.0,69,1.0,63,1,0,0,120,64,100,80
8788.0,64,1.0,63,1,0,0,120,64,100,80
8789.0,64,1.0,63,1,0,0,120,64,100,80
8790.0,64,1.0,63,1,0,0,120,64,100,80
8791.0,62,1.0,63,1,0,0,120,64,100,80
8792.0,71,1.0,63,1,0,0,120,64,100,80
8793.0,69,1.0,63,1,0,0,120,64,100,80
8794.0,71,1.0,63,1,0,0,120,64,100,80
8795.0,60,1.0,63,1,0,0,120,64,100,80
8796.0,62,1.0,63,1,0,0,120,64,100,80
8797.0,62,1.0,63,1,0,0,120,64,100,80
8798.0,69,1.0,63,1,0,0,120,64,100,80
8799.0,71,1.0,63,1,0,0,120,64,100,80
8800.0,62,1.0,63,1,0,0,120,64,100,80
8801.0,65,1.0,63,1,0,0,120,64,100,80
8802.0,71,1.0,63,1,0,0,120,64,100,80
8803.0,65,1.0,63,1,0,0,120,64,100,80
8804.0,71,1.0,63,1,0,0,120,64,100,80
8805.0,65,1.0,63,1,0,0,120,64,100,80
8806.0,62,1.0,63,1,0,0,120,64,100,80
8807.0,60,1.0,63,1,0,0,120,64,100,80
8808.0,64,1.0,63,1,0,0,120,64,100,80
8809.0,69,1.0,63,1,0,0,120,64,100,80
8810.0,60,1.0,63,1,0,0,120,64,100,80
8811.0,71,1.0,63,1,0,0,120,64,100,80
8812.0,71,1.0,63,1,0,0,120,64,100,80
8813.0,64,1.0,63,1,0,0,120,64,100,80
8814.0,69,1.0,63,1,0,0,120,64,100,80
8815.0,69,1.0,63,1,0,0,120,64,100,80
8816.0,69,1.0,63,1,0,0,120,64,100,80
8817.0,69,1.0,63,1,0,0,120,64,100,80
8818.0,71,1.0,63,1,0,0,120,64,100,80
8819.0,69,1.0,63,1,0,0,120,64,100,80
8820.0,60,1.0,63,1,0,0,120,64,100,80
8821.0,60,1.0,63,1,0,0,120,64,100,80
8822.0,62,1.0,63,1,0,0,120,64,100,80
8823.0,69,1.0,63,1,0,0,120,64,100,80
8824.0,71,1.0,63,1,0,0,120,64,100,80
8825.0,62,1.0,63,1,0,0,120,64,100,80
8826.0,69,1.0,63,1,0,0,120,64,100,80
8827.0,69,1.0,63,1,0,0,120,64,100,80
8828.0,71,1.0,63,1,0,0,120,64,100,80
8829.0,69,1.0,63,1,0,0,120,64,100,80
8830.0,67,1.0,63,1,0,0,120,64,100,80
8831.0,67,1.0,63,1,0,0,120,64,100,80
8832.0,69,1.0,63,1,0,0,120,64,100,80
8833.0,60,1.0,63,1,0,0,120,64,100,80
8834.0,69,1.0,63,1,0,0,120,64,100,80
8835.0,60,1.0,63,1,0,0,120,64,100,80
8836.0,65,1.0,63,1,0,0,120,64,100,80
8837.0,69,1.0,63,1,0,0,120,64,100,80
8838.0,64,1.0,63,1,0,0,120,64,100,80
8839.0,60,1.0,63,1,0,0,120,64,100,80
8840.0,65,1.0,63,1,0,0,120,64,100,80
8841.0,69,1.0,63,1,0,0,120,64,100,80
8842.0,67,1.0,63,1,0,0,120,64,100,80
8843.0,0,1.0,63,1,0,0,120,64,100,80
8844.0,0,1.0,63,1,0,0,120,64,100,80
8845.0,60,1.0,63,1,0,0,120,64,100,80
8846.0,62,1.0,63,1,0,0,120,64,100,80
8847.0,69,1.0,63,1,0,0,120,64,100,80
8848.0,62,1.0,63,1,0,0,120,64,100,80
8849.0,65,1.0,63,1,0,0,120,64,100,80
8850.0,60,1.0,63,1,0,0,120,64,100,80
8851.0,64,1.0,63,1,0,0,120,64,100,80
8852.0,69,1.0,63,1,0,0,120,64,100,80
8853.0,67,1.0,63,1,0,0,120,64,100,80
8854.0,60,1.0,63,1,0,0,120,64,100,80
8855.0,69,1.0,63,1,0,0,120,64,100,80
8856.0,64,1.0,63,1,0,0,120,64,100,80
8857.0,60,1.0,63,1,0,0,120,64,100,80
8858.0,60,1.0,63,1,0,0,120,64,100,80
8859.0,65,1.0,63,1,0,0,120,64,100,80
8860.0,64,1.0,63,1,0,0,120,64,100,80
8861.0,65,1.0,63,1,0,0,120,64,100,80
8862.0,65,1.0,63,1,0,0,120,64,100,80
8863.0,69,1.0,63,1,0,0,120,64,100,80
8864.0,65,1.0,63,1,0,0,120,64,100,80
8865.0,67,1.0,63,1,0,0,120,64,100,80
8866.0,64,1.0,63,1,0,0,120,64,100,80
8867.0,60,1.0,63,1,0,0,120,64,100,80
8868.0,69,1.0,63,1,0,0,120,64,100,80
8869.0,67,1.0,63,1,0,0,120,64,100,80
8870.0,71,1.0,63,1,0,0,120,64,100,80
8871.0,71,1.0,63,1,0,0,120,64,100,80
8872.0,64,1.0,63,1,0,0,120,64,100,80
8873.0,67,1.0,63,1,0,0,120,64,100,80
8874.0,69,1.0,63,1,0,0,120,64,100,80
8875.0,64,1.0,63,1,0,0,120,64,100,80
8876.0,60,1.0,63,1,0,0,120,64,100,80
8877.0,60,1.0,63,1,0,0,120,64,100,80
8878.0,69,1.0,63,1,0,0,120,64,100,80
8879.0,60,1.0,63,1,0,0,120,64,100,80
8880.0,62,1.0,63,1,0,0,120,64,100,80
8881.0,60,1.0,63,1,0,0,120,64,100,80
8882.0,64,1.0,63,1,0,0,120,64,100,80
8883.0,65,1.0,63,1,0,0,120,64,100,80
8884.0,62,1.0,63,1,0,0,120,64,100,80
8885.0,65,1.0,63,1,0,0,120,64,100,80
8886.0,60,1.0,63,1,0,0,120,64,100,80
8887.0,62,1.0,63,1,0,0,120,64,100,80
8888.0,62,1.0,63,1,0,0,120,64,100,80
8889.0,60,1.0,63,1,0,0,120,64,100,80
8890.0,65,1.0,63,1,0,0,120,64,100,80
8891.0,65,1.0,63,1,0,0,120,64,100,80
8892.0,71,1.0,63,1,0,0,120,64,100,80
8893.0,69,1.0,63,1,0,0,120,64,100,80
8894.0,60,1.0,63,1,0,0,120,64,100,80
8895.0,65,1.0,63,1,0,0,120,64,100,80
8896.0,62,1.0,63,1,0,0,120,64,100,80
8897.0,69,1.0,63,1,0,0,120,64,100,80
8898.0,60,1.0,63,1,0,0,120,64,100,80
8899.0,64,1.0,63,1,0,0,120,64,100,80
8900.0,65,1.0,63,1,0,0,120,64,100,80
8901.0,64,1.0,63,1,0,0,120,64,100,80
8902.0,64,1.0,63,1,0,0,120,64,100,80
8903.0,71,1.0,63,1,0,0,120,64,100,80
8904.0,60,1.0,63,1,0,0,120,64,100,80
8905.0,60,1.0,63,1,0,0,120,64,100,80
8906.0,60,1.0,63,1,0,0,120,64,100,80
8907.0,64,1.0,63,1,0,0,120,64,100,80
8908.0,69,1.0,63,1,0,0,120,64,100,80
8909.0,65,1.0,63,1,0,0,120,64,100,80
8910.0,65,1.0,63,1,0,0,120,64,100,80
8911.0,60,1.0,63,1,0,0,120,64,100,80
8912.0,65,1.0,63,1,0,0,120,64,100,80
8913.0,64,1.0,63,1,0,0,120,64,100,80
8914.0,62,1.0,63,1,0,0,120,64,100,80
8915.0,65,1.0,63,1,0,0,120,64,100,80
8916.0,65,1.0,63,1,0,0,120,64,100,80
8917.0,64,1.0,63,1,0,0,120,64,100,80
8918.0,60,1.0,63,1,0,0,120,64,100,80
8919.0,69,1.0,63,1,0,0,120,64,100,80
8920.0,60,1.0,63,1,0,0,120,64,100,80
8921.0,64,1.0,63,1,0,0,120,64,100,80
8922.0,69,1.0,63,1,0,0,120,64,100,80
8923.0,60,1.0,63,1,0,0,120,64,100,80
8924.0,64,1.0,63,1,0,0,120,64,100,80
8925.0,64,1.0,63,1,0,0,120,64,100,80
8926.0,69,1.0,63,1,0,0,120,64,100,80
8927.0,60,1.0,63,1,0,0,120,64,100,80
8928.0,71,1.0,63,1,0,0,120,64,100,80
8929.0,60,1.0,63,1,0,0,120,64,100,80
8930.0,60,1.0,63,1,0,0,120,64,100,80
8931.0,65,1.0,63,1,0,0,120,64,100,80
8932.0,65,1.0,63,1,0,0,120,64,100,80
8933.0,67,1.0,63,1,0,0,120,64,100,80
8934.0,60,1.0,63,1,0,0,120,64,100,80
8935.0,62,1.0,63,1,0,0,120,64,100,80
8936.0,69,1.0,63,1,0,0,120,64,100,80
8937.0,64,1.0,63,1,0,0,120,64,100,80
8938.0,64,1.0,63,1,0,0,120,64,100,80
8939.0,64,1.0,63,1,0,0,120,64,100,80
8940.0,64,1.0,63,1,0,0,120,64,100,80
8941.0,65,1.0,63,1,0,0,120,64,100,80
8942.0,71,1.0,63,1,0,0,120,64,100,80
8943.0,64,1.0,63,1,0,0,120,64,100,80
8944.0,62,1.0,63,1,0,0,120,64,100,80
8945.0,60,1.0,63,1,0,0,120,64,100,80
8946.0,69,1.0,63,1,0,0,120,64,100,80
8947.0,62,1.0,63,1,0,0,120,64,100,80
8948.0,69,1.0,63,1,0,0,120,64,100,80
8949.0,60,1.0,63,1,0,0,120,64,100,80
8950.0,67,1.0,63,1,0,0,120,64,100,80
8951.0,65,1.0,63,1,0,0,120,64,100,80
8952.0,64,1.0,63,1,0,0,120,64,100,80
8953.0,60,1.0,63,1,0,0,120,64,100,80
8954.0,65,1.0,63,1,0,0,120,64,100,80
8955.0,65,1.0,63,1,0,0,120,64,100,80
8956.0,65,1.0,63,1,0,0,120,64,100,80
8957.0,69,1.0,63,1,0,0,120,64,100,80
8958.0,71,1.0,63,1,0,0,120,64,100,80
8959.0,65,1.0,63,1,0,0,120,64,100,80
8960.0,65,1.0,63,1,0,0,120,64,100,80
8961.0,65,1.0,63,1,0,0,120,64,100,80
8962.0,69,1.0,63,1,0,0,120,64,100,80
8963.0,64,1.0,63,1,0,0,120,64,100,80
8964.0,60,1.0,63,1,0,0,120,64,100,80
8965.0,67,1.0,63,1,0,0,120,64,100,80
8966.0,69,1.0,63,1,0,0,120,64,100,80
8967.0,64,1.0,63,1,0,0,120,64,100,80
8968.0,64,1.0,63,1,0,0,120,64,100,80
8969.0,65,1.0,63,1,0,0,120,64,100,80
8970.0,64,1.0,63,1,0,0,120,64,100,80
8971.0,64,1.0,63,1,0,0,120,64,100,80
8972.0,64,1.0,63,1,0,0,120,64,100,80
8973.0,62,1.0,63,1,0,0,120,64,100,80
8974.0,64,1.0,63,1,0,0,120,64,100,80
8975.0,62,1.0,63,1,0,0,120,64,100,80
8976.0,65,1.0,63,1,0,0,120,64,100,80
8977.0,65,1.0,63,1,0,0,120,64,100,80
8978.0,60,1.0,63,1,0,0,120,64,100,80
8979.0,65,1.0,63,1,0,0,120,64,100,80
8980.0,65,1.0,63,1,0,0,120,64,100,80
8981.0,64,1.0,63,1,0,0,120,64,100,80
8982.0,60,1.0,63,1,0,0,120,64,100,80
8983.0,60,1.0,63,1,0,0,120,64,100,80
8984.0,69,1.0,63,1,0,0,120,64,100,80
8985.0,65,1.0,63,1,0,0,120,64,100,80
8986.0,62,1.0,63,1,0,0,120,64,100,80
8987.0,64,1.0,63,1,0,0,120,64,100,80
8988.0,62,1.0,63,1,0,0,120,64,100,80
8989.0,65,1.0,63,1,0,0,120,64,100,80
8990.0,60,1.0,63,1,0,0,120,64,100,80
8991.0,65,1.0,63,1,0,0,120,64,100,80
8992.0,65,1.0,63,1,0,0,120,64,100,80
8993.0,62,1.0,63,1,0,0,120,64,100,80
8994.0,64,1.0,63,1,0,0,120,64,100,80
8995.0,62,1.0,63,1,0,0,120,64,100,80
8996.0,64,1.0,63,1,0,0,120,64,100,80
8997.0,71,1.0,63,1,0,0,120,64,100,80
8998.0,60,1.0,63,1,0,0,120,64,100,80
8999.0,62,1.0,63,1,0,0,120,64,100,80
9000.0,64,1.0,63,1,0,0,120,64,100,80
9001.0,65,1.0,63,1,0,0,120,64,100,80
9002.0,71,1.0,63,1,0,0,120,64,100,80
9003.0,60,1.0,63,1,0,0,120,64,100,80
9004.0,69,1.0,63,1,0,0,120,64,100,80
9005.0,65,1.0,63,1,0,0,120,64,100,80
9006.0,71,1.0,63,1,0,0,120,64,100,80
9007.0,62,1.0,63,1,0,0,120,64,100,80
9008.0,69,1.0,63,1,0,0,120,64,100,80
9009.0,62,1.0,63,1,0,0,120,64,100,80
9010.0,69,1.0,63,1,0,0,120,64,100,80
9011.0,60,1.0,63,1,0,0,120,64,100,80
9012.0,62,1.0,63,1,0,0,120,64,100,80
9013.0,60,1.0,63,1,0,0,120,64,100,80
9014.0,62,1.0,63,1,0,0,120,64,100,80
9015.0,60,1.0,63,1,0,0,120,64,100,80
9016.0,62,1.0,63,1,0,0,120,64,100,80
9017.0,64,1.0,63,1,0,0,120,64,100,80
9018.0,64,1.0,63,1,0,0,120,64,100,80
9019.0,71,1.0,63,1,0,0,120,64,100,80
9020.0,64,1.0,63,1,0,0,120,64,100,80
9021.0,60,1.0,63,1,0,0,120,64,100,80
9022.0,67,1.0,63,1,0,0,120,64,100,80
9023.0,65,1.0,63,1,0,0,120,64,100,80
9024.0,0,1.0,63,1,0,0,120,64,100,80
9025.0,62,1.0,63,1,0,0,120,64,100,80
9026.0,62,1.0,63,1,0,0,120,64,100,80
9027.0,64,1.0,63,1,0,0,120,64,100,80
9028.0,60,1.0,63,1,0,0,120,64,100,80
9029.0,64,1.0,63,1,0,0,120,64,100,80
9030.0,65,1.0,63,1,0,0,120,64,100,80
9031.0,0,1.0,63,1,0,0,120,64,100,80
9032.0,62,1.0,63,1,0,0,120,64,100,80
9033.0,69,1.0,63,1,0,0,120,64,100,80
9034.0,0,1.0,63,1,0,0,120,64,100,80
9035.0,67,1.0,63,1,0,0,120,64,100,80
9036.0,62,1.0,63,1,0,0,120,64,100,80
9037.0,67,1.0,63,1,0,0,120,64,100,80
9038.0,60,1.0,63,1,0,0,120,64,100,80
9039.0,62,1.0,63,1,0,0,120,64,100,80
9040.0,65,1.0,63,1,0,0,120,64,100,80
9041.0,60,1.0,63,1,0,0,120,64,100,80
9042.0,62,1.0,63,1,0,0,120,64,100,80
9043.0,64,1.0,63,1,0,0,120,64,100,80
9044.0,60,1.0,63,1,0,0,120,64,100,80
9045.0,67,1.0,63,1,0,0,120,64,100,80
9046.0,60,1.0,63,1,0,0,120,64,100,80
9047.0,62,1.0,63,1,0,0,120,64,100,80
9048.0,60,1.0,63,1,0,0,120,64,100,80
9049.0,67,1.0,63,1,0,0,120,64,100,80
9050.0,69,1.0,63,1,0,0,120,64,100,80
9051.0,62,1.0,63,1,0,0,120,64,100,80
9052.0,64,1.0,63,1,0,0,120,64,100,80
9053.0,71,1.0,63,1,0,0,120,64,100,80
9054.0,60,1.0,63,1,0,0,120,64,100,80
9055.0,60,1.0,63,1,0,0,120,64,100,80
9056.0,64,1.0,63,1,0,0,120,64,100,80
9057.0,62,1.0,63,1,0,0,120,64,100,80
9058.0,62,1.0,63,1,0,0,120,64,100,80
9059.0,60,1.0,63,1,0,0,120,64,100,80
9060.0,62,1.0,63,1,0,0,120,64,100,80
9061.0,60,1.0,63,1,0,0,120,64,100,80
9062.0,69,1.0,63,1,0,0,120,64,100,80
9063.0,69,1.0,63,1,0,0,120,64,100,80
9064.0,64,1.0,63,1,0,0,120,64,100,80
9065.0,69,1.0,63,1,0,0,120,64,100,80
9066.0,0,1.0,63,1,0,0,120,64,100,80
9067.0,0,1.0,63,1,0,0,120,64,100,80
9068.0,69,1.0,63,1,0,0,120,64,100,80
9069.0,60,1.0,63,1,0,0,120,64,100,80
9070.0,60,1.0,63,1,0,0,120,64,100,80
9071.0,64,1.0,63,1,0,0,120,64,100,80
9072.0,69,1.0,63,1,0,0,120,64,100,80
9073.0,65,1.0,63,1,0,0,120,64,100,80
9074.0,64,1.0,63,1,0,0,120,64,100,80
9075.0,60,1.0,63,1,0,0,120,64,100,80
9076.0,60,1.0,63,1,0,0,120,64,100,80
9077.0,62,1.0,63,1,0,0,120,64,100,80
9078.0,64,1.0,63,1,0,0,120,64,100,80
9079.0,62,1.0,63,1,0,0,120,64,100,80
9080.0,62,1.0,63,1,0,0,120,64,100,80
9081.0,69,1.0,63,1,0,0,120,64,100,80
9082.0,67,1.0,63,1,0,0,120,64,100,80
9083.0,69,1.0,63,1,0,0,120,64,100,80
9084.0,65,1.0,63,1,0,0,120,64,100,80
9085.0,64,1.0,63,1,0,0,120,64,100,80
9086.0,64,1.0,63,1,0,0,120,64,100,80
9087.0,65,1.0,63,1,0,0,120,64,100,80
9088.0,60,1.0,63,1,0,0,120,64,100,80
9089.0,64,1.0,63,1,0,0,120,64,100,80
9090.0,62,1.0,63,1,0,0,120,64,100,80
9091.0,62,1.0,63,1,0,0,120,64,100,80
9092.0,60,1.0,63,1,0,0,120,64,100,80
9093.0,62,1.0,63,1,0,0,120,64,100,80
9094.0,69,1.0,63,1,0,0,120,64,100,80
9095.0,60,1.0,63,1,0,0,120,64,100,80
9096.0,0,1.0,63,1,0,0,120,64,100,80
9097.0,62,1.0,63,1,0,0,120,64,100,80
9098.0,64,1.0,63,1,0,0,120,64,100,80
9099.0,60,1.0,63,1,0,0,120,64,100,80
9100.0,69,1.0,63,1,0,0,120,64,100,80
9101.0,60,1.0,63,1,0,0,120,64,100,80
9102.0,64,1.0,63,1,0,0,120,64,100,80
9103.0,62,1.0,63,1,0,0,120,64,100,80
9104.0,62,1.0,63,1,0,0,120,64,100,80
9105.0,67,1.0,63,1,0,0,120,64,100,80
9106.0,0,1.0,63,1,0,0,120,64,100,80
9107.0,60,1.0,63,1,0,0,120,64,100,80
9108.0,60,1.0,63,1,0,0,120,64,100,80
9109.0,65,1.0,63,1,0,0,120,64,100,80
9110.0,60,1.0,63,1,0,0,120,64,100,80
9111.0,67,1.0,63,1,0,0,120,64,100,80
9112.0,60,1.0,63,1,0,0,120,64,100,80
9113.0,69,1.0,63,1,0,0,120,64,100,80
9114.0,64,1.0,63,1,0,0,120,64,100,80
9115.0,64,1.0,63,1,0,0,120,64,100,80
9116.0,71,1.0,63,1,0,0,120,64,100,80
9117.0,62,1.0,63,1,0,0,120,64,100,80
9118.0,62,1.0,63,1,0,0,120,64,100,80
9119.0,64,1.0,63,1,0,0,120,64,100,80
9120.0,60,1.0,63,1,0,0,120,64,100,80
9121.0,60,1.0,63,1,0,0,120,64,100,80
9122.0,60,1.0,63,1,0,0,120,64,100,80
9123.0,62,1.0,63,1,0,0,120,64,100,80
9124.0,64,1.0,63,1,0,0,120,64,100,80
9125.0,62,1.0,63,1,0,0,120,64,100,80
9126.0,64,1.0,63,1,0,0,120,64,100,80
9127.0,62,1.0,63,1,0,0,120,64,100,80
9128.0,60,1.0,63,1,0,0,120,64,100,80
9129.0,65,1.0,63,1,0,0,120,64,100,80
9130.0,69,1.0,63,1,0,0,120,64,100,80
9131.0,62,1.0,63,1,0,0,120,64,100,80
9132.0,64,1.0,63,1,0,0,120,64,100,80
9133.0,60,1.0,63,1,0,0,120,64,100,80
9134.0,60,1.0,63,1,0,0,120,64,100,80
9135.0,67,1.0,63,1,0,0,120,64,100,80
9136.0,60,1.0,63,1,0,0,120,64,100,80
9137.0,62,1.0,63,1,0,0,120,64,100,80
9138.0,65,1.0,63,1,0,0,120,64,100,80
9139.0,60,1.0,63,1,0,0,120,64,100,80
9140.0,67,1.0,63,1,0,0,120,64,100,80
9141.0,69,1.0,63,1,0,0,120,64,100,80
9142.0,0,1.0,63,1,0,0,120,64,100,80
9143.0,64,1.0,63,1,0,0,120,64,100,80
9144.0,60,1.0,63,1,0,0,120,64,100,80
9145.0,62,1.0,63,1,0,0,120,64,100,80
9146.0,64,1.0,63,1,0,0,120,64,100,80
9147.0,69,1.0,63,1,0,0,120,64,100,80
9148.0,60,1.0,63,1,0,0,120,64,100,80
9149.0,60,1.0,63,1,0,0,120,64,100,80
9150.0,62,1.0,63,1,0,0,120,64,100,80
9151.0,69,1.0,63,1,0,0,120,64,100,80
9152.0,71,1.0,63,1,0,0,120,64,100,80
9153.0,60,1.0,63,1,0,0,120,64,100,80
9154.0,67,1.0,63,1,0,0,120,64,100,80
9155.0,0,1.0,63,1,0,0,120,64,100,80
9156.0,60,1.0,63,1,0,0,120,64,100,80
9157.0,60,1.0,63,1,0,0,120,64,100,80
9158.0,64,1.0,63,1,0,0,120,64,100,80
9159.0,65,1.0,63,1,0,0,120,64,100,80
9160.0,64,1.0,63,1,0,0,120,64,100,80
9161.0,60,1.0,63,1,0,0,120,64,100,80
9162.0,0,1.0,63,1,0,0,120,64,100,80
9163.0,60,1.0,63,1,0,0,120,64,100,80
9164.0,62,1.0,63,1,0,0,120,64,100,80
9165.0,69,1.0,63,1,0,0,120,64,100,80
9166.0,64,1.0,63,1,0,0,120,64,100,80
9167.0,0,1.0,63,1,0,0,120,64,100,80
9168.0,60,1.0,63,1,0,0,120,64,100,80
9169.0,64,1.0,63,1,0,0,120,64,100,80
9170.0,60,1.0,63,1,0,0,120,64,100,80
9171.0,64,1.0,63,1,0,0,120,64,100,80
9172.0,71,1.0,63,1,0,0,120,64,100,80
9173.0,65,1.0,63,1,0,0,120,64,100,80
9174.0,60,1.0,63,1,0,0,120,64,100,80
9175.0,62,1.0,63,1,0,0,120,64,100,80
9176.0,60,1.0,63,1,0,0,120,64,100,80
9177.0,64,1.0,63,1,0,0,120,64,100,80
9178.0,60,1.0,63,1,0,0,120,64,100,80
9179.0,62,1.0,63,1,0,0,120,64,100,80
9180.0,0,1.0,63,1,0,0,120,64,100,80
9181.0,62,1.0,63,1,0,0,120,64,100,80
9182.0,60,1.0,63,1,0,0,120,64,100,80
9183.0,64,1.0,63,1,0,0,120,64,100,80
9184.0,62,1.0,63,1,0,0,120,64,100,80
9185.0,62,1.0,63,1,0,0,120,64,100,80
9186.0,67,1.0,63,1,0,0,120,64,100,80
9187.0,65,1.0,63,1,0,0,120,64,100,80
9188.0,62,1.0,63,1,0,0,120,64,100,80
9189.0,65,1.0,63,1,0,0,120,64,100,80
9190.0,71,1.0,63,1,0,0,120,64,100,80
9191.0,62,1.0,63,1,0,0,120,64,100,80
9192.0,69,1.0,63,1,0,0,120,64,100,80
9193.0,69,1.0,63,1,0,0,120,64,100,80
9194.0,71,1.0,63,1,0,0,120,64,100,80
9195.0,60,1.0,63,1,0,0,120,64,100,80
9196.0,69,1.0,63,1,0,0,120,64,100,80
9197.0,65,1.0,63,1,0,0,120,64,100,80
9198.0,64,1.0,63,1,0,0,120,64,100,80
9199.0,69,1.0,63,1,0,0,120,64,100,80
9200.0,67,1.0,63,1,0,0,120,64,100,80
9201.0,0,1.0,63,1,0,0,120,64,100,80
9202.0,69,1.0,63,1,0,0,120,64,100,80
9203.0,65,1.0,63,1,0,0,120,64,100,80
9204.0,71,1.0,63,1,0,0,120,64,100,80
9205.0,69,1.0,63,1,0,0,120,64,100,80
9206.0,65,1.0,63,1,0,0,120,64,100,80
9207.0,62,1.0,63,1,0,0,120,64,100,80
9208.0,69,1.0,63,1,0,0,120,64,100,80
9209.0,60,1.0,63,1,0,0,120,64,100,80
9210.0,71,1.0,63,1,0,0,120,64,100,80
9211.0,60,1.0,63,1,0,0,120,64,100,80
9212.0,71,1.0,63,1,0,0,120,64,100,80
9213.0,62,1.0,63,1,0,0,120,64,100,80
9214.0,60,1.0,63,1,0,0,120,64,100,80
9215.0,69,1.0,63,1,0,0,120,64,100,80
9216.0,60,1.0,63,1,0,0,120,64,100,80
9217.0,60,1.0,63,1,0,0,120,64,100,80
9218.0,69,1.0,63,1,0,0,120,64,100,80
9219.0,64,1.0,63,1,0,0,120,64,100,80
9220.0,64,1.0,63,1,0,0,120,64,100,80
9221.0,71,1.0,63,1,0,0,120,64,100,80
9222.0,67,1.0,63,1,0,0,120,64,100,80
9223.0,60,1.0,63,1,0,0,120,64,100,80
9224.0,60,1.0,63,1,0,0,120,64,100,80
9225.0,60,1.0,63,1,0,0,120,64,100,80
9226.0,60,1.0,63,1,0,0,120,64,100,80
9227.0,65,1.0,63,1,0,0,120,64,100,80
9228.0,62,1.0,63,1,0,0,120,64,100,80
9229.0,60,1.0,63,1,0,0,120,64,100,80
9230.0,60,1.0,63,1,0,0,120,64,100,80
9231.0,71,1.0,63,1,0,0,120,64,100,80
9232.0,67,1.0,63,1,0,0,120,64,100,80
9233.0,71,1.0,63,1,0,0,120,64,100,80
9234.0,64,1.0,63,1,0,0,120,64,100,80
9235.0,69,1.0,63,1,0,0,120,64,100,80
9236.0,60,1.0,63,1,0,0,120,64,100,80
9237.0,60,1.0,63,1,0,0,120,64,100,80
9238.0,69,1.0,63,1,0,0,120,64,100,80
9239.0,60,1.0,63,1,0,0,120,64,100,80
9240.0,60,1.0,63,1,0,0,120,64,100,80
9241.0,69,1.0,63,1,0,0,120,64,100,80
9242.0,71,1.0,63,1,0,0,120,64,100,80
9243.0,71,1.0,63,1,0,0,120,64,100,80
9244.0,60,1.0,63,1,0,0,120,64,100,80
9245.0,64,1.0,63,1,0,0,120,64,100,80
9246.0,65,1.0,63,1,0,0,120,64,100,80
9247.0,71,1.0,63,1,0,0,120,64,100,80
9248.0,65,1.0,63,1,0,0,120,64,100,80
9249.0,60,1.0,63,1,0,0,120,64,100,80
9250.0,64,1.0,63,1,0,0,120,64,100,80
9251.0,60,1.0,63,1,0,0,120,64,100,80
9252.0,60,1.0,63,1,0,0,120,64,100,80
9253.0,60,1.0,63,1,0,0,120,64,100,80
9254.0,62,1.0,63,1,0,0,120,64,100,80
9255.0,65,1.0,63,1,0,0,120,64,100,80
9256.0,69,1.0,63,1,0,0,120,64,100,80
9257.0,69,1.0,63,1,0,0,120,64,100,80
9258.0,71,1.0,63,1,0,0,120,64,100,80
9259.0,69,1.0,63,1,0,0,120,64,100,80
9260.0,62,1.0,63,1,0,0,120,64,100,80
9261.0,60,1.0,63,1,0,0,120,64,100,80
9262.0,71,1.0,63,1,0,0,120,64,100,80
9263.0,69,1.0,63,1,0,0,120,64,100,80
9264.0,69,1.0,63,1,0,0,120,64,100,80
9265.0,67,1.0,63,1,0,0,120,64,100,80
9266.0,71,1.0,63,1,0,0,120,64,100,80
9267.0,60,1.0,63,1,0,0,120,64,100,80
9268.0,60,1.0,63,1,0,0,120,64,100,80
9269.0,69,1.0,63,1,0,0,120,64,100,80
9270.0,60,1.0,63,1,0,0,120,64,100,80
9271.0,69,1.0,63,1,0,0,120,64,100,80
9272.0,71,1.0,63,1,0,0,120,64,100,80
9273.0,60,1.0,63,1,0,0,120,64,100,80
9274.0,0,1.0,63,1,0,0,120,64,100,80
9275.0,64,1.0,63,1,0,0,120,64,100,80
9276.0,64,1.0,63,1,0,0,120,64,100,80
9277.0,62,1.0,63,1,0,0,120,64,100,80
9278.0,69,1.0,63,1,0,0,120,64,100,80
9279.0,60,1.0,63,1,0,0,120,64,100,80
9280.0,62,1.0,63,1,0,0,120,64,100,80
9281.0,60,1.0,63,1,0,0,120,64,100,80
9282.0,64,1.0,63,1,0,0,120,64,100,80
9283.0,71,1.0,63,1,0,0,120,64,100,80
9284.0,60,1.0,63,1,0,0,120,64,100,80
9285.0,60,1.0,63,1,0,0,120,64,100,80
9286.0,64,1.0,63,1,0,0,120,64,100,80
9287.0,60,1.0,63,1,0,0,120,64,100,80
9288.0,69,1.0,63,1,0,0,120,64,100,80
9289.0,64,1.0,63,1,0,0,120,64,100,80
9290.0,60,1.0,63,1,0,0,120,64,100,80
9291.0,71,1.0,63,1,0,0,120,64,100,80
9292.0,65,1.0,63,1,0,0,120,64,100,80
9293.0,71,1.0,63,1,0,0,120,64,100,80
9294.0,60,1.0,63,1,0,0,120,64,100,80
9295.0,65,1.0,63,1,0,0,120,64,100,80
9296.0,64,1.0,63,1,0,0,120,64,100,80
9297.0,60,1.0,63,1,0,0,120,64,100,80
9298.0,65,1.0,63,1,0,0,120,64,100,80
9299.0,62,1.0,63,1,0,0,120,64,100,80
9300.0,60,1.0,63,1,0,0,120,64,100,80
9301.0,60,1.0,63,1,0,0,120,64,100,80
9302.0,60,1.0,63,1,0,0,120,64,100,80
9303.0,60,1.0,63,1,0,0,120,64,100,80
9304.0,65,1.0,63,1,0,0,120,64,100,80
9305.0,64,1.0,63,1,0,0,120,64,100,80
9306.0,69,1.0,63,1,0,0,120,64,100,80
9307.0,60,1.0,63,1,0,0,120,64,100,80
9308.0,69,1.0,63,1,0,0,120,64,100,80
9309.0,60,1.0,63,1,0,0,120,64,100,80
9310.0,60,1.0,63,1,0,0,120,64,100,80
9311.0,60,1.0,63,1,0,0,120,64,100,80
9312.0,62,1.0,63,1,0,0,120,64,100,80
9313.0,60,1.0,63,1,0,0,120,64,100,80
9314.0,69,1.0,63,1,0,0,120,64,100,80
9315.0,60,1.0,63,1,0,0,120,64,100,80
9316.0,65,1.0,63,1,0,0,120,64,100,80
9317.0,60,1.0,63,1,0,0,120,64,100,80
9318.0,64,1.0,63,1,0,0,120,64,100,80
9319.0,62,1.0,63,1,0,0,120,64,100,80
9320.0,60,1.0,63,1,0,0,120,64,100,80
9321.0,0,1.0,63,1,0,0,120,64,100,80
9322.0,71,1.0,63,1,0,0,120,64,100,80
9323.0,71,1.0,63,1,0,0,120,64,100,80
9324.0,64,1.0,63,1,0,0,120,64,100,80
9325.0,69,1.0,63,1,0,0,120,64,100,80
9326.0,60,1.0,63,1,0,0,120,64,100,80
9327.0,65,1.0,63,1,0,0,120,64,100,80
9328.0,62,1.0,63,1,0,0,120,64,100,80
9329.0,64,1.0,63,1,0,0,120,64,100,80
9330.0,71,1.0,63,1,0,0,120,64,100,80
9331.0,60,1.0,63,1,0,0,120,64,100,80
9332.0,69,1.0,63,1,0,0,120,64,100,80
9333.0,60,1.0,63,1,0,0,120,64,100,80
9334.0,65,1.0,63,1,0,0,120,64,100,80
9335.0,60,1.0,63,1,0,0,120,64,100,80
9336.0,60,1.0,63,1,0,0,120,64,100,80
9337.0,69,1.0,63,1,0,0,120,64,100,80
9338.0,64,1.0,63,1,0,0,120,64,100,80
9339.0,62,1.0,63,1,0,0,120,64,100,80
9340.0,60,1.0,63,1,0,0,120,64,100,80
9341.0,65,1.0,63,1,0,0,120,64,100,80
9342.0,60,1.0,63,1,0,0,120,64,100,80
9343.0,65,1.0,63,1,0,0,120,64,100,80
9344.0,71,1.0,63,1,0,0,120,64,100,80
9345.0,60,1.0,63,1,0,0,120,64,100,80
9346.0,71,1.0,63,1,0,0,120,64,100,80
9347.0,64,1.0,63,1,0,0,120,64,100,80
9348.0,60,1.0,63,1,0,0,120,64,100,80
9349.0,71,1.0,63,1,0,0,120,64,100,80
9350.0,69,1.0,63,1,0,0,120,64,100,80
9351.0,60,1.0,63,1,0,0,120,64,100,80
9352.0,67,1.0,63,1,0,0,120,64,100,80
9353.0,71,1.0,63,1,0,0,120,64,100,80
9354.0,60,1.0,63,1,0,0,120,64,100,80
9355.0,60,1.0,63,1,0,0,120,64,100,80
9356.0,69,1.0,63,1,0,0,120,64,100,80
9357.0,60,1.0,63,1,0,0,120,64,100,80
9358.0,71,1.0,63,1,0,0,120,64,100,80
9359.0,69,1.0,63,1,0,0,120,64,100,80
9360.0,71,1.0,63,1,0,0,120,64,100,80
9361.0,65,1.0,63,1,0,0,120,64,100,80
9362.0,62,1.0,63,1,0,0,120,64,100,80
9363.0,65,1.0,63,1,0,0,120,64,100,80
9364.0,0,1.0,63,1,0,0,120,64,100,80
9365.0,69,1.0,63,1,0,0,120,64,100,80
9366.0,71,1.0,63,1,0,0,120,64,100,80
9367.0,64,1.0,63,1,0,0,120,64,100,80
9368.0,64,1.0,63,1,0,0,120,64,100,80
9369.0,64,1.0,63,1,0,0,120,64,100,80
9370.0,69,1.0,63,1,0,0,120,64,100,80
9371.0,60,1.0,63,1,0,0,120,64,100,80
9372.0,60,1.0,63,1,0,0,120,64,100,80
9373.0,60,1.0,63,1,0,0,120,64,100,80
9374.0,67,1.0,63,1,0,0,120,64,100,80
9375.0,71,1.0,63,1,0,0,120,64,100,80
9376.0,60,1.0,63,1,0,0,120,64,100,80
9377.0,71,1.0,63,1,0,0,120,64,100,80
9378.0,71,1.0,63,1,0,0,120,64,100,80
9379.0,65,1.0,63,1,0,0,120,64,100,80
9380.0,65,1.0,63,1,0,0,120,64,100,80
9381.0,62,1.0,63,1,0,0,120,64,100,80
9382.0,62,1.0,63,1,0,0,120,64,100,80
9383.0,71,1.0,63,1,0,0,120,64,100,80
9384.0,65,1.0,63,1,0,0,120,64,100,80
9385.0,60,1.0,63,1,0,0,120,64,100,80
9386.0,71,1.0,63,1,0,0,120,64,100,80
9387.0,64,1.0,63,1,0,0,120,64,100,80
9388.0,60,1.0,63,1,0,0,120,64,100,80
9389.0,71,1.0,63,1,0,0,120,64,100,80
9390.0,64,1.0,63,1,0,0,120,64,100,80
9391.0,71,1.0,63,1,0,0,120,64,100,80
9392.0,60,1.0,63,1,0,0,120,64,100,80
9393.0,60,1.0,63,1,0,0,120,64,100,80
9394.0,67,1.0,63,1,0,0,120,64,100,80
9395.0,0,1.0,63,1,0,0,120,64,100,80
9396.0,64,1.0,63,1,0,0,120,64,100,80
9397.0,62,1.0,63,1,0,0,120,64,100,80
9398.0,71,1.0,63,1,0,0,120,64,100,80
9399.0,69,1.0,63,1,0,0,120,64,100,80
9400.0,60,1.0,63,1,0,0,120,64,100,80
9401.0,71,1.0,63,1,0,0,120,64,100,80
9402.0,69,1.0,63,1,0,0,120,64,100,80
9403.0,65,1.0,63,1,0,0,120,64,100,80
9404.0,64,1.0,63,1,0,0,120,64,100,80
9405.0,64,1.0,63,1,0,0,120,64,100,80
9406.0,64,1.0,63,1,0,0,120,64,100,80
9407.0,60,1.0,63,1,0,0,120,64,100,80
9408.0,69,1.0,63,1,0,0,120,64,100,80
9409.0,62,1.0,63,1,0,0,120,64,100,80
9410.0,71,1.0,63,1,0,0,120,64,100,80
9411.0,64,1.0,63,1,0,0,120,64,100,80
9412.0,62,1.0,63,1,0,0,120,64,100,80
9413.0,60,1.0,63,1,0,0,120,64,100,80
9414.0,69,1.0,63,1,0,0,120,64,100,80
9415.0,69,1.0,63,1,0,0,120,64,100,80
9416.0,64,1.0,63,1,0,0,120,64,100,80
9417.0,65,1.0,63,1,0,0,120,64,100,80
9418.0,62,1.0,63,1,0,0,120,64,100,80
9419.0,64,1.0,63,1,0,0,120,64,100,80
9420.0,69,1.0,63,1,0,0,120,64,100,80
9421.0,64,1.0,63,1,0,0,120,64,100,80
9422.0,60,1.0,63,1,0,0,120,64,100,80
9423.0,69,1.0,63,1,0,0,120,64,100,80
9424.0,62,1.0,63,1,0,0,120,64,100,80
9425.0,71,1.0,63,1,0,0,120,64,100,80
9426.0,64,1.0,63,1,0,0,120,64,100,80
9427.0,69,1.0,63,1,0,0,120,64,100,80
9428.0,60,1.0,63,1,0,0,120,64,100,80
9429.0,67,1.0,63,1,0,0,120,64,100,80
9430.0,64,1.0,63,1,0,0,120,64,100,80
9431.0,69,1.0,63,1,0,0,120,64,100,80
9432.0,69,1.0,63,1,0,0,120,64,100,80
9433.0,64,1.0,63,1,0,0,120,64,100,80
9434.0,60,1.0,63,1,0,0,120,64,100,80
9435.0,69,1.0,63,1,0,0,120,64,100,80
9436.0,64,1.0,63,1,0,0,120,64,100,80
9437.0,64,1.0,63,1,0,0,120,64,100,80
9438.0,60,1.0,63,1,0,0,120,64,100,80
9439.0,65,1.0,63,1,0,0,120,64,100,80
9440.0,65,1.0,63,1,0,0,120,64,100,80
9441.0,67,1.0,63,1,0,0,120,64,100,80
9442.0,62,1.0,63,1,0,0,120,64,100,80
9443.0,62,1.0,63,1,0,0,120,64,100,80
9444.0,64,1.0,63,1,0,0,120,64,100,80
9445.0,60,1.0,63,1,0,0,120,64,100,80
9446.0,71,1.0,63,1,0,0,120,64,100,80
9447.0,69,1.0,63,1,0,0,120,64,100,80
9448.0,65,1.0,63,1,0,0,120,64,100,80
9449.0,64,1.0,63,1,0,0,120,64,100,80
9450.0,64,1.0,63,1,0,0,120,64,100,80
9451.0,65,1.0,63,1,0,0,120,64,100,80
9452.0,64,1.0,63,1,0,0,120,64,100,80
9453.0,69,1.0,63,1,0,0,120,64,100,80
9454.0,60,1.0,63,1,0,0,120,64,100,80
9455.0,62,1.0,63,1,0,0,120,64,100,80
9456.0,60,1.0,63,1,0,0,120,64,100,80
9457.0,65,1.0,63,1,0,0,120,64,100,80
9458.0,69,1.0,63,1,0,0,120,64,100,80
9459.0,69,1.0,63,1,0,0,120,64,100,80
9460.0,64,1.0,63,1,0,0,120,64,100,80
9461.0,60,1.0,63,1,0,0,120,64,100,80
9462.0,67,1.0,63,1,0,0,120,64,100,80
9463.0,60,1.0,63,1,0,0,120,64,100,80
9464.0,67,1.0,63,1,0,0,120,64,100,80
9465.0,65,1.0,63,1,0,0,120,64,100,80
9466.0,60,1.0,63,1,0,0,120,64,100,80
9467.0,64,1.0,63,1,0,0,120,64,100,80
9468.0,65,1.0,63,1,0,0,120,64,100,80
9469.0,71,1.0,63,1,0,0,120,64,100,80
9470.0,69,1.0,63,1,0,0,120,64,100,80
9471.0,71,1.0,63,1,0,0,120,64,100,80
9472.0,60,1.0,63,1,0,0,120,64,100,80
9473.0,65,1.0,63,1,0,0,120,64,100,80
9474.0,65,1.0,63,1,0,0,120,64,100,80
9475.0,64,1.0,63,1,0,0,120,64,100,80
9476.0,64,1.0,63,1,0,0,120,64,100,80
9477.0,64,1.0,63,1,0,0,120,64,100,80
9478.0,65,1.0,63,1,0,0,120,64,100,80
9479.0,67,1.0,63,1,0,0,120,64,100,80
9480.0,60,1.0,63,1,0,0,120,64,100,80
9481.0,64,1.0,63,1,0,0,120,64,100,80
9482.0,64,1.0,63,1,0,0,120,64,100,80
9483.0,62,1.0,63,1,0,0,120,64,100,80
9484.0,60,1.0,63,1,0,0,120,64,100,80
9485.0,69,1.0,63,1,0,0,120,64,100,80
9486.0,69,1.0,63,1,0,0,120,64,100,80
9487.0,64,1.0,63,1,0,0,120,64,100,80
9488.0,60,1.0,63,1,0,0,120,64,100,80
9489.0,62,1.0,63,1,0,0,120,64,100,80
9490.0,65,1.0,63,1,0,0,120,64,100,80
9491.0,69,1.0,63,1,0,0,120,64,100,80
9492.0,65,1.0,63,1,0,0,120,64,100,80
9493.0,64,1.0,63,1,0,0,120,64,100,80
9494.0,60,1.0,63,1,0,0,120,64,100,80
9495.0,64,1.0,63,1,0,0,120,64,100,80
9496.0,69,1.0,63,1,0,0,120,64,100,80
9497.0,69,1.0,63,1,0,0,120,64,100,80
9498.0,69,1.0,63,1,0,0,120,64,100,80
9499.0,69,1.0,63,1,0,0,120,64,100,80
9500.0,67,1.0,63,1,0,0,120,64,100,80
9501.0,65,1.0,63,1,0,0,120,64,100,80
9502.0,65,1.0,63,1,0,0,120,64,100,80
9503.0,62,1.0,63,1,0,0,120,64,100,80
9504.0,67,1.0,63,1,0,0,120,64,100,80
9505.0,69,1.0,63,1,0,0,120,64,100,80
9506.0,67,1.0,63,1,0,0,120,64,100,80
9507.0,62,1.0,63,1,0,0,120,64,100,80
9508.0,62,1.0,63,1,0,0,120,64,100,80
9509.0,69,1.0,63,1,0,0,120,64,100,80
9510.0,64,1.0,63,1,0,0,120,64,100,80
9511.0,60,1.0,63,1,0,0,120,64,100,80
9512.0,69,1.0,63,1,0,0,120,64,100,80
9513.0,67,1.0,63,1,0,0,120,64,100,80
9514.0,60,1.0,63,1,0,0,120,64,100,80
9515.0,62,1.0,63,1,0,0,120,64,100,80
9516.0,60,1.0,63,1,0,0,120,64,100,80
9517.0,62,1.0,63,1,0,0,120,64,100,80
9518.0,64,1.0,63,1,0,0,120,64,100,80
9519.0,60,1.0,63,1,0,0,120,64,100,80
9520.0,64,1.0,63,1,0,0,120,64,100,80
9521.0,60,1.0,63,1,0,0,120,64,100,80
9522.0,62,1.0,63,1,0,0,120,64,100,80
9523.0,64,1.0,63,1,0,0,120,64,100,80
9524.0,69,1.0,63,1,0,0,120,64,100,80
9525.0,64,1.0,63,1,0,0,120,64,100,80
9526.0,71,1.0,63,1,0,0,120,64,100,80
9527.0,62,1.0,63,1,0,0,120,64,100,80
9528.0,69,1.0,63,1,0,0,120,64,100,80
9529.0,62,1.0,63,1,0,0,120,64,100,80
9530.0,65,1.0,63,1,0,0,120,64,100,80
9531.0,60,1.0,63,1,0,0,120,64,100,80
9532.0,69,1.0,63,1,0,0,120,64,100,80
9533.0,69,1.0,63,1,0,0,120,64,100,80
9534.0,67,1.0,63,1,0,0,120,64,100,80
9535.0,64,1.0,63,1,0,0,120,64,100,80
9536.0,71,1.0,63,1,0,0,120,64,100,80
9537.0,60,1.0,63,1,0,0,120,64,100,80
9538.0,64,1.0,63,1,0,0,120,64,100,80
9539.0,71,1.0,63,1,0,0,120,64,100,80
9540.0,62,1.0,63,1,0,0,120,64,100,80
9541.0,67,1.0,63,1,0,0,120,64,100,80
9542.0,60,1.0,63,1,0,0,120,64,100,80
9543.0,64,1.0,63,1,0,0,120,64,100,80
9544.0,69,1.0,63,1,0,0,120,64,100,80
9545.0,64,1.0,63,1,0,0,120,64,100,80
9546.0,67,1.0,63,1,0,0,120,64,100,80
9547.0,60,1.0,63,1,0,0,120,64,100,80
9548.0,69,1.0,63,1,0,0,120,64,100,80
9549.0,64,1.0,63,1,0,0,120,64,100,80
9550.0,65,1.0,63,1,0,0,120,64,100,80
9551.0,65,1.0,63,1,0,0,120,64,100,80
9552.0,60,1.0,63,1,0,0,120,64,100,80
9553.0,69,1.0,63,1,0,0,120,64,100,80
9554.0,69,1.0,63,1,0,0,120,64,100,80
9555.0,64,1.0,63,1,0,0,120,64,100,80
9556.0,64,1.0,63,1,0,0,120,64,100,80
9557.0,60,1.0,63,1,0,0,120,64,100,80
9558.0,64,1.0,63,1,0,0,120,64,100,80
9559.0,65,1.0,63,1,0,0,120,64,100,80
9560.0,64,1.0,63,1,0,0,120,64,100,80
9561.0,65,1.0,63,1,0,0,120,64,100,80
9562.0,60,1.0,63,1,0,0,120,64,100,80
9563.0,67,1.0,63,1,0,0,120,64,100,80
9564.0,60,1.0,63,1,0,0,120,64,100,80
9565.0,65,1.0,63,1,0,0,120,64,100,80
9566.0,64,1.0,63,1,0,0,120,64,100,80
9567.0,71,1.0,63,1,0,0,120,64,100,80
9568.0,62,1.0,63,1,0,0,120,64,100,80
9569.0,60,1.0,63,1,0,0,120,64,100,80
9570.0,64,1.0,63,1,0,0,120,64,100,80
9571.0,69,1.0,63,1,0,0,120,64,100,80
9572.0,64,1.0,63,1,0,0,120,64,100,80
9573.0,65,1.0,63,1,0,0,120,64,100,80
9574.0,60,1.0,63,1,0,0,120,64,100,80
9575.0,65,1.0,63,1,0,0,120,64,100,80
9576.0,60,1.0,63,1,0,0,120,64,100,80
9577.0,64,1.0,63,1,0,0,120,64,100,80
9578.0,67,1.0,63,1,0,0,120,64,100,80
9579.0,69,1.0,63,1,0,0,120,64,100,80
9580.0,64,1.0,63,1,0,0,120,64,100,80
9581.0,62,1.0,63,1,0,0,120,64,100,80
9582.0,64,1.0,63,1,0,0,120,64,100,80
9583.0,62,1.0,63,1,0,0,120,64,100,80
9584.0,64,1.0,63,1,0,0,120,64,100,80
9585.0,64,1.0,63,1,0,0,120,64,100,80
9586.0,60,1.0,63,1,0,0,120,64,100,80
9587.0,69,1.0,63,1,0,0,120,64,100,80
9588.0,65,1.0,63,1,0,0,120,64,100,80
9589.0,65,1.0,63,1,0,0,120,64,100,80
9590.0,65,1.0,63,1,0,0,120,64,100,80
9591.0,64,1.0,63,1,0,0,120,64,100,80
9592.0,65,1.0,63,1,0,0,120,64,100,80
9593.0,60,1.0,63,1,0,0,120,64,100,80
9594.0,60,1.0,63,1,0,0,120,64,100,80
9595.0,67,1.0,63,1,0,0,120,64,100,80
9596.0,65,1.0,63,1,0,0,120,64,100,80
9597.0,71,1.0,63,1,0,0,120,64,100,80
9598.0,62,1.0,63,1,0,0,120,64,100,80
9599.0,64,1.0,63,1,0,0,120,64,100,80
9600.0,69,1.0,63,1,0,0,120,64,100,80
9601.0,67,1.0,63,1,0,0,120,64,100,80
9602.0,64,1.0,63,1,0,0,120,64,100,80
9603.0,64,1.0,63,1,0,0,120,64,100,80
9604.0,60,1.0,63,1,0,0,120,64,100,80
9605.0,65,1.0,63,1,0,0,120,64,100,80
9606.0,69,1.0,63,1,0,0,120,64,100,80
9607.0,60,1.0,63,1,0,0,120,64,100,80
9608.0,65,1.0,63,1,0,0,120,64,100,80
9609.0,64,1.0,63,1,0,0,120,64,100,80
9610.0,69,1.0,63,1,0,0,120,64,100,80
9611.0,60,1.0,63,1,0,0,120,64,100,80
9612.0,69,1.0,63,1,0,0,120,64,100,80
9613.0,69,1.0,63,1,0,0,120,64,100,80
9614.0,65,1.0,63,1,0,0,120,64,100,80
9615.0,64,1.0,63,1,0,0,120,64,100,80
9616.0,67,1.0,63,1,0,0,120,64,100,80
9617.0,69,1.0,63,1,0,0,120,64,100,80
9618.0,65,1.0,63,1,0,0,120,64,100,80
9619.0,64,1.0,63,1,0,0,120,64,100,80
9620.0,69,1.0,63,1,0,0,120,64,100,80
9621.0,60,1.0,63,1,0,0,120,64,100,80
9622.0,65,1.0,63,1,0,0,120,64,100,80
9623.0,64,1.0,63,1,0,0,120,64,100,80
9624.0,71,1.0,63,1,0,0,120,64,100,80
9625.0,60,1.0,63,1,0,0,120,64,100,80
9626.0,71,1.0,63,1,0,0,120,64,100,80
9627.0,64,1.0,63,1,0,0,120,64,100,80
9628.0,69,1.0,63,1,0,0,120,64,100,80
9629.0,65,1.0,63,1,0,0,120,64,100,80
9630.0,0,1.0,63,1,0,0,120,64,100,80
9631.0,60,1.0,63,1,0,0,120,64,100,80
9632.0,69,1.0,63,1,0,0,120,64,100,80
9633.0,62,1.0,63,1,0,0,120,64,100,80
9634.0,64,1.0,63,1,0,0,120,64,100,80
9635.0,60,1.0,63,1,0,0,120,64,100,80
9636.0,62,1.0,63,1,0,0,120,64,100,80
9637.0,69,1.0,63,1,0,0,120,64,100,80
9638.0,69,1.0,63,1,0,0,120,64,100,80
9639.0,69,1.0,63,1,0,0,120,64,100,80
9640.0,65,1.0,63,1,0,0,120,64,100,80
9641.0,0,1.0,63,1,0,0,120,64,100,80
9642.0,62,1.0,63,1,0,0,120,64,100,80
9643.0,60,1.0,63,1,0,0,120,64,100,80
9644.0,64,1.0,63,1,0,0,120,64,100,80
9645.0,71,1.0,63,1,0,0,120,64,100,80
9646.0,60,1.0,63,1,0,0,120,64,100,80
9647.0,60,1.0,63,1,0,0,120,64,100,80
9648.0,67,1.0,63,1,0,0,120,64,100,80
9649.0,60,1.0,63,1,0,0,120,64,100,80
9650.0,65,1.0,63,1,0,0,120,64,100,80
9651.0,64,1.0,63,1,0,0,120,64,100,80
9652.0,62,1.0,63,1,0,0,120,64,100,80
9653.0,62,1.0,63,1,0,0,120,64,100,80
9654.0,62,1.0,63,1,0,0,120,64,100,80
9655.0,64,1.0,63,1,0,0,120,64,100,80
9656.0,64,1.0,63,1,0,0,120,64,100,80
9657.0,64,1.0,63,1,0,0,120,64,100,80
9658.0,60,1.0,63,1,0,0,120,64,100,80
9659.0,60,1.0,63,1,0,0,120,64,100,80
9660.0,62,1.0,63,1,0,0,120,64,100,80
9661.0,69,1.0,63,1,0,0,120,64,100,80
9662.0,62,1.0,63,1,0,0,120,64,100,80
9663.0,60,1.0,63,1,0,0,120,64,100,80
9664.0,60,1.0,63,1,0,0,120,64,100,80
9665.0,64,1.0,63,1,0,0,120,64,100,80
9666.0,62,1.0,63,1,0,0,120,64,100,80
9667.0,60,1.0,63,1,0,0,120,64,100,80
9668.0,60,1.0,63,1,0,0,120,64,100,80
9669.0,62,1.0,63,1,0,0,120,64,100,80
9670.0,62,1.0,63,1,0,0,120,64,100,80
9671.0,60,1.0,63,1,0,0,120,64,100,80
9672.0,64,1.0,63,1,0,0,120,64,100,80
9673.0,60,1.0,63,1,0,0,120,64,100,80
9674.0,62,1.0,63,1,0,0,120,64,100,80
9675.0,64,1.0,63,1,0,0,120,64,100,80
9676.0,60,1.0,63,1,0,0,120,64,100,80
9677.0,62,1.0,63,1,0,0,120,64,100,80
9678.0,62,1.0,63,1,0,0,120,64,100,80
9679.0,69,1.0,63,1,0,0,120,64,100,80
9680.0,67,1.0,63,1,0,0,120,64,100,80
9681.0,67,1.0,63,1,0,0,120,64,100,80
9682.0,65,1.0,63,1,0,0,120,64,100,80
9683.0,62,1.0,63,1,0,0,120,64,100,80
9684.0,67,1.0,63,1,0,0,120,64,100,80
9685.0,62,1.0,63,1,0,0,120,64,100,80
9686.0,62,1.0,63,1,0,0,120,64,100,80
9687.0,71,1.0,63,1,0,0,120,64,100,80
9688.0,67,1.0,63,1,0,0,120,64,100,80
9689.0,64,1.0,63,1,0,0,120,64,100,80
9690.0,60,1.0,63,1,0,0,120,64,100,80
9691.0,65,1.0,63,1,0,0,120,64,100,80
9692.0,62,1.0,63,1,0,0,120,64,100,80
9693.0,69,1.0,63,1,0,0,120,64,100,80
9694.0,60,1.0,63,1,0,0,120,64,100,80
9695.0,65,1.0,63,1,0,0,120,64,100,80
9696.0,60,1.0,63,1,0,0,120,64,100,80
9697.0,0,1.0,63,1,0,0,120,64,100,80
9698.0,62,1.0,63,1,0,0,120,64,100,80
9699.0,69,1.0,63,1,0,0,120,64,100,80
9700.0,64,1.0,63,1,0,0,120,64,100,80
9701.0,64,1.0,63,1,0,0,120,64,100,80
9702.0,71,1.0,63,1,0,0,120,64,100,80
9703.0,60,1.0,63,1,0,0,120,64,100,80
9704.0,0,1.0,63,1,0,0,120,64,100,80
9705.0,62,1.0,63,1,0,0,120,64,100,80
9706.0,62,1.0,63,1,0,0,120,64,100,80
9707.0,64,1.0,63,1,0,0,120,64,100,80
9708.0,62,1.0,63,1,0,0,120,64,100,80
9709.0,69,1.0,63,1,0,0,120,64,100,80
9710.0,64,1.0,63,1,0,0,120,64,100,80
9711.0,60,1.0,63,1,0,0,120,64,100,80
9712.0,60,1.0,63,1,0,0,120,64,100,80
9713.0,60,1.0,63,1,0,0,120,64,100,80
9714.0,60,1.0,63,1,0,0,120,64,100,80
9715.0,62,1.0,63,1,0,0,120,64,100,80
9716.0,60,1.0,63,1,0,0,120,64,100,80
9717.0,60,1.0,63,1,0,0,120,64,100,80
9718.0,0,1.0,63,1,0,0,120,64,100,80
9719.0,60,1.0,63,1,0,0,120,64,100,80
9720.0,60,1.0,63,1,0,0,120,64,100,80
9721.0,62,1.0,63,1,0,0,120,64,100,80
9722.0,64,1.0,63,1,0,0,120,64,100,80
9723.0,64,1.0,63,1,0,0,120,64,100,80
9724.0,64,1.0,63,1,0,0,120,64,100,80
9725.0,60,1.0,63,1,0,0,120,64,100,80
9726.0,69,1.0,63,1,0,0,120,64,100,80
9727.0,62,1.0,63,1,0,0,120,64,100,80
9728.0,60,1.0,63,1,0,0,120,64,100,80
9729.0,64,1.0,63,1,0,0,120,64,100,80
9730.0,71,1.0,63,1,0,0,120,64,100,80
9731.0,62,1.0,63,1,0,0,120,64,100,80
9732.0,67,1.0,63,1,0,0,120,64,100,80
9733.0,64,1.0,63,1,0,0,120,64,100,80
9734.0,64,1.0,63,1,0,0,120,64,100,80
9735.0,60,1.0,63,1,0,0,120,64,100,80
9736.0,62,1.0,63,1,0,0,120,64,100,80
9737.0,60,1.0,63,1,0,0,120,64,100,80
9738.0,64,1.0,63,1,0,0,120,64,100,80
9739.0,60,1.0,63,1,0,0,120,64,100,80
9740.0,0,1.0,63,1,0,0,120,64,100,80
9741.0,69,1.0,63,1,0,0,120,64,100,80
9742.0,62,1.0,63,1,0,0,120,64,100,80
9743.0,60,1.0,63,1,0,0,120,64,100,80
9744.0,64,1.0,63,1,0,0,120,64,100,80
9745.0,67,1.0,63,1,0,0,120,64,100,80
9746.0,64,1.0,63,1,0,0,120,64,100,80
9747.0,64,1.0,63,1,0,0,120,64,100,80
9748.0,64,1.0,63,1,0,0,120,64,100,80
9749.0,64,1.0,63,1,0,0,120,64,100,80
9750.0,64,1.0,63,1,0,0,120,64,100,80
9751.0,0,1.0,63,1,0,0,120,64,100,80
9752.0,60,1.0,63,1,0,0,120,64,100,80
9753.0,64,1.0,63,1,0,0,120,64,100,80
9754.0,64,1.0,63,1,0,0,120,64,100,80
9755.0,65,1.0,63,1,0,0,120,64,100,80
9756.0,64,1.0,63,1,0,0,120,64,100,80
9757.0,64,1.0,63,1,0,0,120,64,100,80
9758.0,64,1.0,63,1,0,0,120,64,100,80
9759.0,69,1.0,63,1,0,0,120,64,100,80
9760.0,64,1.0,63,1,0,0,120,64,100,80
9761.0,69,1.0,63,1,0,0,120,64,100,80
9762.0,64,1.0,63,1,0,0,120,64,100,80
9763.0,64,1.0,63,1,0,0,120,64,100,80
9764.0,60,1.0,63,1,0,0,120,64,100,80
9765.0,64,1.0,63,1,0,0,120,64,100,80
9766.0,69,1.0,63,1,0,0,120,64,100,80
9767.0,65,1.0,63,1,0,0,120,64,100,80
9768.0,60,1.0,63,1,0,0,120,64,100,80
9769.0,65,1.0,63,1,0,0,120,64,100,80
9770.0,69,1.0,63,1,0,0,120,64,100,80
9771.0,64,1.0,63,1,0,0,120,64,100,80
9772.0,64,1.0,63,1,0,0,120,64,100,80
9773.0,60,1.0,63,1,0,0,120,64,100,80
9774.0,69,1.0,63,1,0,0,120,64,100,80
9775.0,65,1.0,63,1,0,0,120,64,100,80
9776.0,64,1.0,63,1,0,0,120,64,100,80
9777.0,64,1.0,63,1,0,0,120,64,100,80
9778.0,64,1.0,63,1,0,0,120,64,100,80
9779.0,65,1.0,63,1,0,0,120,64,100,80
9780.0,60,1.0,63,1,0,0,120,64,100,80
9781.0,67,1.0,63,1,0,0,120,64,100,80
9782.0,65,1.0,63,1,0,0,120,64,100,80
9783.0,67,1.0,63,1,0,0,120,64,100,80
9784.0,60,1.0,63,1,0,0,120,64,100,80
9785.0,69,1.0,63,1,0,0,120,64,100,80
9786.0,65,1.0,63,1,0,0,120,64,100,80
9787.0,64,1.0,63,1,0,0,120,64,100,80
9788.0,69,1.0,63,1,0,0,120,64,100,80
9789.0,64,1.0,63,1,0,0,120,64,100,80
9790.0,64,1.0,63,1,0,0,120,64,100,80
9791.0,64,1.0,63,1,0,0,120,64,100,80
9792.0,62,1.0,63,1,0,0,120,64,100,80
9793.0,65,1.0,63,1,0,0,120,64,100,80
9794.0,60,1.0,63,1,0,0,120,64,100,80
9795.0,64,1.0,63,1,0,0,120,64,100,80
9796.0,65,1.0,63,1,0,0,120,64,100,80
9797.0,64,1.0,63,1,0,0,120,64,100,80
9798.0,69,1.0,63,1,0,0,120,64,100,80
9799.0,71,1.0,63,1,0,0,120,64,100,80
9800.0,69,1.0,63,1,0,0,120,64,100,80
9801.0,65,1.0,63,1,0,0,120,64,100,80
9802.0,64,1.0,63,1,0,0,120,64,100,80
9803.0,60,1.0,63,1,0,0,120,64,100,80
9804.0,64,1.0,63,1,0,0,120,64,100,80
9805.0,60,1.0,63,1,0,0,120,64,100,80
9806.0,64,1.0,63,1,0,0,120,64,100,80
9807.0,60,1.0,63,1,0,0,120,64,100,80
9808.0,64,1.0,63,1,0,0,120,64,100,80
9809.0,69,1.0,63,1,0,0,120,64,100,80
9810.0,60,1.0,63,1,0,0,120,64,100,80
9811.0,62,1.0,63,1,0,0,120,64,100,80
9812.0,62,1.0,63,1,0,0,120,64,100,80
9813.0,65,1.0,63,1,0,0,120,64,100,80
9814.0,60,1.0,63,1,0,0,120,64,100,80
9815.0,60,1.0,63,1,0,0,120,64,100,80
9816.0,67,1.0,63,1,0,0,120,64,100,80
9817.0,67,1.0,63,1,0,0,120,64,100,80
9818.0,60,1.0,63,1,0,0,120,64,100,80
9819.0,60,1.0,63,1,0,0,120,64,100,80
9820.0,64,1.0,63,1,0,0,120,64,100,80
9821.0,60,1.0,63,1,0,0,120,64,100,80
9822.0,67,1.0,63,1,0,0,120,64,100,80
9823.0,71,1.0,63,1,0,0,120,64,100,80
9824.0,60,1.0,63,1,0,0,120,64,100,80
9825.0,67,1.0,63,1,0,0,120,64,100,80
9826.0,69,1.0,63,1,0,0,120,64,100,80
9827.0,67,1.0,63,1,0,0,120,64,100,80
9828.0,65,1.0,63,1,0,0,120,64,100,80
9829.0,60,1.0,63,1,0,0,120,64,100,80
9830.0,69,1.0,63,1,0,0,120,64,100,80
9831.0,69,1.0,63,1,0,0,120,64,100,80
9832.0,65,1.0,63,1,0,0,120,64,100,80
9833.0,67,1.0,63,1,0,0,120,64,100,80
9834.0,64,1.0,63,1,0,0,120,64,100,80
9835.0,64,1.0,63,1,0,0,120,64,100,80
9836.0,60,1.0,63,1,0,0,120,64,100,80
9837.0,64,1.0,63,1,0,0,120,64,100,80
9838.0,62,1.0,63,1,0,0,120,64,100,80
9839.0,60,1.0,63,1,0,0,120,64,100,80
9840.0,64,1.0,63,1,0,0,120,64,100,80
9841.0,64,1.0,63,1,0,0,120,64,100,80
9842.0,69,1.0,63,1,0,0,120,64,100,80
9843.0,64,1.0,63,1,0,0,120,64,100,80
9844.0,65,1.0,63,1,0,0,120,64,100,80
9845.0,60,1.0,63,1,0,0,120,64,100,80
9846.0,60,1.0,63,1,0,0,120,64,100,80
9847.0,62,1.0,63,1,0,0,120,64,100,80
9848.0,60,1.0,63,1,0,0,120,64,100,80
9849.0,71,1.0,63,1,0,0,120,64,100,80
9850.0,60,1.0,63,1,0,0,120,64,100,80
9851.0,62,1.0,63,1,0,0,120,64,100,80
9852.0,62,1.0,63,1,0,0,120,64,100,80
9853.0,60,1.0,63,1,0,0,120,64,100,80
9854.0,60,1.0,63,1,0,0,120,64,100,80
9855.0,64,1.0,63,1,0,0,120,64,100,80
9856.0,65,1.0,63,1,0,0,120,64,100,80
9857.0,65,1.0,63,1,0,0,120,64,100,80
9858.0,65,1.0,63,1,0,0,120,64,100,80
9859.0,64,1.0,63,1,0,0,120,64,100,80
9860.0,69,1.0,63,1,0,0,120,64,100,80
9861.0,60,1.0,63,1,0,0,120,64,100,80
9862.0,69,1.0,63,1,0,0,120,64,100,80
9863.0,67,1.0,63,1,0,0,120,64,100,80
9864.0,64,1.0,63,1,0,0,120,64,100,80
9865.0,65,1.0,63,1,0,0,120,64,100,80
9866.0,60,1.0,63,1,0,0,120,64,100,80
9867.0,60,1.0,63,1,0,0,120,64,100,80
9868.0,71,1.0,63,1,0,0,120,64,100,80
9869.0,69,1.0,63,1,0,0,120,64,100,80
9870.0,64,1.0,63,1,0,0,120,64,100,80
9871.0,60,1.0,63,1,0,0,120,64,100,80
9872.0,60,1.0,63,1,0,0,120,64,100,80
9873.0,60,1.0,63,1,0,0,120,64,100,80
9874.0,64,1.0,63,1,0,0,120,64,100,80
9875.0,65,1.0,63,1,0,0,120,64,100,80
9876.0,60,1.0,63,1,0,0,120,64,100,80
9877.0,69,1.0,63,1,0,0,120,64,100,80
9878.0,65,1.0,63,1,0,0,120,64,100,80
9879.0,64,1.0,63,1,0,0,120,64,100,80
9880.0,67,1.0,63,1,0,0,120,64,100,80
9881.0,65,1.0,63,1,0,0,120,64,100,80
9882.0,64,1.0,63,1,0,0,120,64,100,80
9883.0,64,1.0,63,1,0,0,120,64,100,80
9884.0,65,1.0,63,1,0,0,120,64,100,80
9885.0,64,1.0,63,1,0,0,120,64,100,80
9886.0,65,1.0,63,1,0,0,120,64,100,80
9887.0,65,1.0,63,1,0,0,120,64,100,80
9888.0,64,1.0,63,1,0,0,120,64,100,80
9889.0,60,1.0,63,1,0,0,120,64,100,80
9890.0,60,1.0,63,1,0,0,120,64,100,80
9891.0,64,1.0,63,1,0,0,120,64,100,80
9892.0,69,1.0,63,1,0,0,120,64,100,80
9893.0,60,1.0,63,1,0,0,120,64,100,80
9894.0,60,1.0,63,1,0,0,120,64,100,80
9895.0,62,1.0,63,1,0,0,120,64,100,80
9896.0,65,1.0,63,1,0,0,120,64,100,80
9897.0,69,1.0,63,1,0,0,120,64,100,80
9898.0,67,1.0,63,1,0,0,120,64,100,80
9899.0,60,1.0,63,1,0,0,120,64,100,80
9900.0,60,1.0,63,1,0,0,120,64,100,80
9901.0,65,1.0,63,1,0,0,120,64,100,80
9902.0,65,1.0,63,1,0,0,120,64,100,80
9903.0,69,1.0,63,1,0,0,120,64,100,80
9904.0,69,1.0,63,1,0,0,120,64,100,80
9905.0,69,1.0,63,1,0,0,120,64,100,80
9906.0,65,1.0,63,1,0,0,120,64,100,80
9907.0,60,1.0,63,1,0,0,120,64,100,80
9908.0,60,1.0,63,1,0,0,120,64,100,80
9909.0,69,1.0,63,1,0,0,120,64,100,80
9910.0,60,1.0,63,1,0,0,120,64,100,80
9911.0,69,1.0,63,1,0,0,120,64,100,80
9912.0,64,1.0,63,1,0,0,120,64,100,80
9913.0,64,1.0,63,1,0,0,120,64,100,80
9914.0,60,1.0,63,1,0,0,120,64,100,80
9915.0,71,1.0,63,1,0,0,120,64,100,80
9916.0,60,1.0,63,1,0,0,120,64,100,80
9917.0,65,1.0,63,1,0,0,120,64,100,80
9918.0,64,1.0,63,1,0,0,120,64,100,80
9919.0,62,1.0,63,1,0,0,120,64,100,80
9920.0,65,1.0,63,1,0,0,120,64,100,80
9921.0,64,1.0,63,1,0,0,120,64,100,80
9922.0,69,1.0,63,1,0,0,120,64,100,80
9923.0,67,1.0,63,1,0,0,120,64,100,80
9924.0,65,1.0,63,1,0,0,120,64,100,80
9925.0,64,1.0,63,1,0,0,120,64,100,80
9926.0,65,1.0,63,1,0,0,120,64,100,80
9927.0,71,1.0,63,1,0,0,120,64,100,80
9928.0,67,1.0,63,1,0,0,120,64,100,80
9929.0,69,1.0,63,1,0,0,120,64,100,80
9930.0,65,1.0,63,1,0,0,120,64,100,80
9931.0,67,1.0,63,1,0,0,120,64,100,80
9932.0,60,1.0,63,1,0,0,120,64,100,80
9933.0,62,1.0,63,1,0,0,120,64,100,80
9934.0,64,1.0,63,1,0,0,120,64,100,80
9935.0,69,1.0,63,1,0,0,120,64,100,80
9936.0,60,1.0,63,1,0,0,120,64,100,80
9937.0,69,1.0,63,1,0,0,120,64,100,80
9938.0,60,1.0,63,1,0,0,120,64,100,80
9939.0,71,1.0,63,1,0,0,120,64,100,80
9940.0,62,1.0,63,1,0,0,120,64,100,80
9941.0,64,1.0,63,1,0,0,120,64,100,80
9942.0,60,1.0,63,1,0,0,120,64,100,80
9943.0,62,1.0,63,1,0,0,120,64,100,80
9944.0,64,1.0,63,1,0,0,120,64,100,80
9945.0,60,1.0,63,1,0,0,120,64,100,80
9946.0,60,1.0,63,1,0,0,120,64,100,80
9947.0,64,1.0,63,1,0,0,120,64,100,80
9948.0,60,1.0,63,1,0,0,120,64,100,80
9949.0,62,1.0,63,1,0,0,120,64,100,80
9950.0,71,1.0,63,1,0,0,120,64,100,80
9951.0,64,1.0,63,1,0,0,120,64,100,80
9952.0,64,1.0,63,1,0,0,120,64,100,80
9953.0,60,1.0,63,1,0,0,120,64,100,80
9954.0,64,1.0,63,1,0,0,120,64,100,80
9955.0,71,1.0,63,1,0,0,120,64,100,80
9956.0,69,1.0,63,1,0,0,120,64,100,80
9957.0,65,1.0,63,1,0,0,120,64,100,80
9958.0,62,1.0,63,1,0,0,120,64,100,80
9959.0,64,1.0,63,1,0,0,120,64,100,80
9960.0,62,1.0,63,1,0,0,120,64,100,80
9961.0,65,1.0,63,1,0,0,120,64,100,80
9962.0,60,1.0,63,1,0,0,120,64,100,80
9963.0,60,1.0,63,1,0,0,120,64,100,80
9964.0,64,1.0,63,1,0,0,120,64,100,80
9965.0,62,1.0,63,1,0,0,120,64,100,80
9966.0,60,1.0,63,1,0,0,120,64,100,80
9967.0,64,1.0,63,1,0,0,120,64,100,80
9968.0,69,1.0,63,1,0,0,120,64,100,80
9969.0,60,1.0,63,1,0,0,120,64,100,80
9970.0,64,1.0,63,1,0,0,120,64,100,80
9971.0,65,1.0,63,1,0,0,120,64,100,80
9972.0,69,1.0,63,1,0,0,120,64,100,80
9973.0,65,1.0,63,1,0,0,120,64,100,80
9974.0,71,1.0,63,1,0,0,120,64,100,80
9975.0,62,1.0,63,1,0,0,120,64,100,80
9976.0,64,1.0,63,1,0,0,120,64,100,80
9977.0,71,1.0,63,1,0,0,120,64,100,80
9978.0,67,1.0,63,1,0,0,120,64,100,80
9979.0,60,1.0,63,1,0,0,120,64,100,80
9980.0,65,1.0,63,1,0,0,120,64,100,80
9981.0,67,1.0,63,1,0,0,120,64,100,80
9982.0,64,1.0,63,1,0,0,120,64,100,80
9983.0,65,1.0,63,1,0,0,120,64,100,80
9984.0,62,1.0,63,1,0,0,120,64,100,80
9985.0,65,1.0,63,1,0,0,120,64,100,80
9986.0,60,1.0,63,1,0,0,120,64,100,80
9987.0,71,1.0,63,1,0,0,120,64,100,80
9988.0,65,1.0,63,1,0,0,120,64,100,80
9989.0,60,1.0,63,1,0,0,120,64,100,80
9990.0,64,1.0,63,1,0,0,120,64,100,80
9991.0,69,1.0,63,1,0,0,120,64,100,80
9992.0,65,1.0,63,1,0,0,120,64,100,80
9993.0,65,1.0,63,1,0,0,120,64,100,80
9994.0,65,1.0,63,1,0,0,120,64,100,80
9995.0,62,1.0,63,1,0,0,120,64,100,80
9996.0,69,1.0,63,1,0,0,120,64,100,80
9997.0,71,1.0,63,1,0,0,120,64,100,80
9998.0,62,1.0,63,1,0,0,120,64,100,80
9999.0,60,1.0,63,1,0,0,120,64,100,80
10000.0,67,1.0,63,1,0,0,120,64,100,80
10001.0,65,1.0,63,1,0,0,120,64,100,80
10002.0,62,1.0,63,1,0,0,120,64,100,80
10003.0,60,1.0,63,1,0,0,120,64,100,80
10004.0,64,1.0,63,1,0,0,120,64,100,80
10005.0,69,1.0,63,1,0,0,120,64,100,80
10006.0,69,1.0,63,1,0,0,120,64,100,80
10007.0,64,1.0,63,1,0,0,120,64,100,80
10008.0,64,1.0,63,1,0,0,120,64,100,80
10009.0,65,1.0,63,1,0,0,120,64,100,80
10010.0,64,1.0,63,1,0,0,120,64,100,80
10011.0,60,1.0,63,1,0,0,120,64,100,80
10012.0,60,1.0,63,1,0,0,120,64,100,80
10013.0,71,1.0,63,1,0,0,120,64,100,80
10014.0,60,1.0,63,1,0,0,120,64,100,80
10015.0,64,1.0,63,1,0,0,120,64,100,80
10016.0,64,1.0,63,1,0,0,120,64,100,80
10017.0,62,1.0,63,1,0,0,120,64,100,80
10018.0,67,1.0,63,1,0,0,120,64,100,80
10019.0,62,1.0,63,1,0,0,120,64,100,80
10020.0,62,1.0,63,1,0,0,120,64,100,80
10021.0,60,1.0,63,1,0,0,120,64,100,80
10022.0,69,1.0,63,1,0,0,120,64,100,80
10023.0,60,1.0,63,1,0,0,120,64,100,80
10024.0,69,1.0,63,1,0,0,120,64,100,80
10025.0,67,1.0,63,1,0,0,120,64,100,80
10026.0,67,1.0,63,1,0,0,120,64,100,80
10027.0,69,1.0,63,1,0,0,120,64,100,80
10028.0,64,1.0,63,1,0,0,120,64,100,80
10029.0,65,1.0,63,1,0,0,120,64,100,80
10030.0,71,1.0,63,1,0,0,120,64,100,80
10031.0,65,1.0,63,1,0,0,120,64,100,80
10032.0,67,1.0,63,1,0,0,120,64,100,80
10033.0,60,1.0,63,1,0,0,120,64,100,80
10034.0,65,1.0,63,1,0,0,120,64,100,80
10035.0,64,1.0,63,1,0,0,120,64,100,80
10036.0,69,1.0,63,1,0,0,120,64,100,80
10037.0,60,1.0,63,1,0,0,120,64,100,80
10038.0,62,1.0,63,1,0,0,120,64,100,80
10039.0,69,1.0,63,1,0,0,120,64,100,80
10040.0,71,1.0,63,1,0,0,120,64,100,80
10041.0,62,1.0,63,1,0,0,120,64,100,80
10042.0,69,1.0,63,1,0,0,120,64,100,80
10043.0,60,1.0,63,1,0,0,120,64,100,80
10044.0,65,1.0,63,1,0,0,120,64,100,80
10045.0,60,1.0,63,1,0,0,120,64,100,80
10046.0,67,1.0,63,1,0,0,120,64,100,80
10047.0,64,1.0,63,1,0,0,120,64,100,80
10048.0,60,1.0,63,1,0,0,120,64,100,80
10049.0,69,1.0,63,1,0,0,120,64,100,80
10050.0,60,1.0,63,1,0,0,120,64,100,80
10051.0,60,1.0,63,1,0,0,120,64,100,80
10052.0,60,1.0,63,1,0,0,120,64,100,80
10053.0,64,1.0,63,1,0,0,120,64,100,80
10054.0,67,1.0,63,1,0,0,120,64,100,80
10055.0,64,1.0,63,1,0,0,120,64,100,80
10056.0,60,1.0,63,1,0,0,120,64,100,80
10057.0,60,1.0,63,1,0,0,120,64,100,80
10058.0,65,1.0,63,1,0,0,120,64,100,80
10059.0,64,1.0,63,1,0,0,120,64,100,80
10060.0,65,1.0,63,1,0,0,120,64,100,80
10061.0,60,1.0,63,1,0,0,120,64,100,80
10062.0,60,1.0,63,1,0,0,120,64,100,80
10063.0,60,1.0,63,1,0,0,120,64,100,80
10064.0,62,1.0,63,1,0,0,120,64,100,80
10065.0,62,1.0,63,1,0,0,120,64,100,80
10066.0,65,1.0,63,1,0,0,120,64,100,80
10067.0,60,1.0,63,1,0,0,120,64,100,80
10068.0,64,1.0,63,1,0,0,120,64,100,80
10069.0,69,1.0,63,1,0,0,120,64,100,80
10070.0,71,1.0,63,1,0,0,120,64,100,80
10071.0,60,1.0,63,1,0,0,120,64,100,80
10072.0,60,1.0,63,1,0,0,120,64,100,80
10073.0,65,1.0,63,1,0,0,120,64,100,80
10074.0,60,1.0,63,1,0,0,120,64,100,80
10075.0,64,1.0,63,1,0,0,120,64,100,80
10076.0,60,1.0,63,1,0,0,120,64,100,80
10077.0,60,1.0,63,1,0,0,120,64,100,80
10078.0,64,1.0,63,1,0,0,120,64,100,80
10079.0,60,1.0,63,1,0,0,120,64,100,80
10080.0,69,1.0,63,1,0,0,120,64,100,80
10081.0,62,1.0,63,1,0,0,120,64,100,80
10082.0,65,1.0,63,1,0,0,120,64,100,80
10083.0,62,1.0,63,1,0,0,120,64,100,80
10084.0,60,1.0,63,1,0,0,120,64,100,80
10085.0,60,1.0,63,1,0,0,120,64,100,80
10086.0,65,1.0,63,1,0,0,120,64,100,80
10087.0,69,1.0,63,1,0,0,120,64,100,80
10088.0,65,1.0,63,1,0,0,120,64,100,80
10089.0,64,1.0,63,1,0,0,120,64,100,80
10090.0,69,1.0,63,1,0,0,120,64,100,80
10091.0,67,1.0,63,1,0,0,120,64,100,80
10092.0,64,1.0,63,1,0,0,120,64,100,80
10093.0,65,1.0,63,1,0,0,120,64,100,80
10094.0,69,1.0,63,1,0,0,120,64,100,80
10095.0,64,1.0,63,1,0,0,120,64,100,80
10096.0,62,1.0,63,1,0,0,120,64,100,80
10097.0,65,1.0,63,1,0,0,120,64,100,80
10098.0,62,1.0,63,1,0,0,120,64,100,80
10099.0,69,1.0,63,1,0,0,120,64,100,80
10100.0,67,1.0,63,1,0,0,120,64,100,80
10101.0,65,1.0,63,1,0,0,120,64,100,80
10102.0,64,1.0,63,1,0,0,120,64,100,80
10103.0,60,1.0,63,1,0,0,120,64,100,80
10104.0,60,1.0,63,1,0,0,120,64,100,80
10105.0,60,1.0,63,1,0,0,120,64,100,80
10106.0,65,1.0,63,1,0,0,120,64,100,80
10107.0,67,1.0,63,1,0,0,120,64,100,80
10108.0,60,1.0,63,1,0,0,120,64,100,80
10109.0,69,1.0,63,1,0,0,120,64,100,80
10110.0,65,1.0,63,1,0,0,120,64,100,80
10111.0,69,1.0,63,1,0,0,120,64,100,80
10112.0,69,1.0,63,1,0,0,120,64,100,80
10113.0,64,1.0,63,1,0,0,120,64,100,80
10114.0,69,1.0,63,1,0,0,120,64,100,80
10115.0,65,1.0,63,1,0,0,120,64,100,80
10116.0,71,1.0,63,1,0,0,120,64,100,80
10117.0,60,1.0,63,1,0,0,120,64,100,80
10118.0,64,1.0,63,1,0,0,120,64,100,80
10119.0,65,1.0,63,1,0,0,120,64,100,80
10120.0,65,1.0,63,1,0,0,120,64,100,80
10121.0,62,1.0,63,1,0,0,120,64,100,80
10122.0,71,1.0,63,1,0,0,120,64,100,80
10123.0,64,1.0,63,1,0,0,120,64,100,80
10124.0,64,1.0,63,1,0,0,120,64,100,80
10125.0,69,1.0,63,1,0,0,120,64,100,80
10126.0,60,1.0,63,1,0,0,120,64,100,80
10127.0,67,1.0,63,1,0,0,120,64,100,80
10128.0,69,1.0,63,1,0,0,120,64,100,80
10129.0,65,1.0,63,1,0,0,120,64,100,80
10130.0,64,1.0,63,1,0,0,120,64,100,80
10131.0,64,1.0,63,1,0,0,120,64,100,80
10132.0,65,1.0,63,1,0,0,120,64,100,80
10133.0,60,1.0,63,1,0,0,120,64,100,80
10134.0,69,1.0,63,1,0,0,120,64,100,80
10135.0,64,1.0,63,1,0,0,120,64,100,80
10136.0,69,1.0,63,1,0,0,120,64,100,80
10137.0,60,1.0,63,1,0,0,120,64,100,80
10138.0,67,1.0,63,1,0,0,120,64,100,80
10139.0,65,1.0,63,1,0,0,120,64,100,80
10140.0,62,1.0,63,1,0,0,120,64,100,80
10141.0,60,1.0,63,1,0,0,120,64,100,80
10142.0,60,1.0,63,1,0,0,120,64,100,80
10143.0,60,1.0,63,1,0,0,120,64,100,80
10144.0,60,1.0,63,1,0,0,120,64,100,80
10145.0,69,1.0,63,1,0,0,120,64,100,80
10146.0,62,1.0,63,1,0,0,120,64,100,80
10147.0,69,1.0,63,1,0,0,120,64,100,80
10148.0,60,1.0,63,1,0,0,120,64,100,80
10149.0,71,1.0,63,1,0,0,120,64,100,80
10150.0,65,1.0,63,1,0,0,120,64,100,80
10151.0,60,1.0,63,1,0,0,120,64,100,80
10152.0,65,1.0,63,1,0,0,120,64,100,80
10153.0,65,1.0,63,1,0,0,120,64,100,80
10154.0,0,1.0,63,1,0,0,120,64,100,80
10155.0,69,1.0,63,1,0,0,120,64,100,80
10156.0,60,1.0,63,1,0,0,120,64,100,80
10157.0,71,1.0,63,1,0,0,120,64,100,80
10158.0,60,1.0,63,1,0,0,120,64,100,80
10159.0,60,1.0,63,1,0,0,120,64,100,80
10160.0,64,1.0,63,1,0,0,120,64,100,80
10161.0,60,1.0,63,1,0,0,120,64,100,80
10162.0,62,1.0,63,1,0,0,120,64,100,80
10163.0,60,1.0,63,1,0,0,120,64,100,80
10164.0,62,1.0,63,1,0,0,120,64,100,80
10165.0,60,1.0,63,1,0,0,120,64,100,80
10166.0,69,1.0,63,1,0,0,120,64,100,80
10167.0,67,1.0,63,1,0,0,120,64,100,80
10168.0,60,1.0,63,1,0,0,120,64,100,80
10169.0,67,1.0,63,1,0,0,120,64,100,80
10170.0,71,1.0,63,1,0,0,120,64,100,80
10171.0,60,1.0,63,1,0,0,120,64,100,80
10172.0,62,1.0,63,1,0,0,120,64,100,80
10173.0,69,1.0,63,1,0,0,120,64,100,80
10174.0,64,1.0,63,1,0,0,120,64,100,80
10175.0,62,1.0,63,1,0,0,120,64,100,80
10176.0,62,1.0,63,1,0,0,120,64,100,80
10177.0,60,1.0,63,1,0,0,120,64,100,80
10178.0,67,1.0,63,1,0,0,120,64,100,80
10179.0,69,1.0,63,1,0,0,120,64,100,80
10180.0,64,1.0,63,1,0,0,120,64,100,80
10181.0,0,1.0,63,1,0,0,120,64,100,80
10182.0,60,1.0,63,1,0,0,120,64,100,80
10183.0,60,1.0,63,1,0,0,120,64,100,80
10184.0,64,1.0,63,1,0,0,120,64,100,80
10185.0,60,1.0,63,1,0,0,120,64,100,80
10186.0,60,1.0,63,1,0,0,120,64,100,80
10187.0,60,1.0,63,1,0,0,120,64,100,80
10188.0,62,1.0,63,1,0,0,120,64,100,80
10189.0,65,1.0,63,1,0,0,120,64,100,80
10190.0,65,1.0,63,1,0,0,120,64,100,80
10191.0,65,1.0,63,1,0,0,120,64,100,80
10192.0,69,1.0,63,1,0,0,120,64,100,80
10193.0,64,1.0,63,1,0,0,120,64,100,80
10194.0,60,1.0,63,1,0,0,120,64,100,80
10195.0,64,1.0,63,1,0,0,120,64,100,80
10196.0,65,1.0,63,1,0,0,120,64,100,80
10197.0,62,1.0,63,1,0,0,120,64,100,80
10198.0,60,1.0,63,1,0,0,120,64,100,80
10199.0,69,1.0,63,1,0,0,120,64,100,80
10200.0,67,1.0,63,1,0,0,120,64,100,80
10201.0,64,1.0,63,1,0,0,120,64,100,80
10202.0,64,1.0,63,1,0,0,120,64,100,80
10203.0,69,1.0,63,1,0,0,120,64,100,80
10204.0,60,1.0,63,1,0,0,120,64,100,80
10205.0,60,1.0,63,1,0,0,120,64,100,80
10206.0,65,1.0,63,1,0,0,120,64,100,80
10207.0,64,1.0,63,1,0,0,120,64,100,80
10208.0,60,1.0,63,1,0,0,120,64,100,80
10209.0,69,1.0,63,1,0,0,120,64,100,80
10210.0,64,1.0,63,1,0,0,120,64,100,80
10211.0,67,1.0,63,1,0,0,120,64,100,80
10212.0,65,1.0,63,1,0,0,120,64,100,80
10213.0,69,1.0,63,1,0,0,120,64,100,80
10214.0,64,1.0,63,1,0,0,120,64,100,80
10215.0,65,1.0,63,1,0,0,120,64,100,80
10216.0,71,1.0,63,1,0,0,120,64,100,80
10217.0,60,1.0,63,1,0,0,120,64,100,80
10218.0,60,1.0,63,1,0,0,120,64,100,80
10219.0,69,1.0,63,1,0,0,120,64,100,80
10220.0,67,1.0,63,1,0,0,120,64,100,80
10221.0,60,1.0,63,1,0,0,120,64,100,80
10222.0,69,1.0,63,1,0,0,120,64,100,80
10223.0,60,1.0,63,1,0,0,120,64,100,80
10224.0,69,1.0,63,1,0,0,120,64,100,80
10225.0,64,1.0,63,1,0,0,120,64,100,80
10226.0,62,1.0,63,1,0,0,120,64,100,80
10227.0,64,1.0,63,1,0,0,120,64,100,80
10228.0,62,1.0,63,1,0,0,120,64,100,80
10229.0,67,1.0,63,1,0,0,120,64,100,80
10230.0,62,1.0,63,1,0,0,120,64,100,80
10231.0,64,1.0,63,1,0,0,120,64,100,80
10232.0,65,1.0,63,1,0,0,120,64,100,80
10233.0,65,1.0,63,1,0,0,120,64,100,80
10234.0,62,1.0,63,1,0,0,120,64,100,80
10235.0,71,1.0,63,1,0,0,120,64,100,80
10236.0,0,1.0,63,1,0,0,120,64,100,80
10237.0,65,1.0,63,1,0,0,120,64,100,80
10238.0,62,1.0,63,1,0,0,120,64,100,80
10239.0,60,1.0,63,1,0,0,120,64,100,80
10240.0,71,1.0,63,1,0,0,120,64,100,80
10241.0,62,1.0,63,1,0,0,120,64,100,80
10242.0,60,1.0,63,1,0,0,120,64,100,80
10243.0,62,1.0,63,1,0,0,120,64,100,80
10244.0,71,1.0,63,1,0,0,120,64,100,80
10245.0,64,1.0,63,1,0,0,120,64,100,80
10246.0,60,1.0,63,1,0,0,120,64,100,80
10247.0,62,1.0,63,1,0,0,120,64,100,80
10248.0,69,1.0,63,1,0,0,120,64,100,80
10249.0,62,1.0,63,1,0,0,120,64,100,80
10250.0,60,1.0,63,1,0,0,120,64,100,80
10251.0,62,1.0,63,1,0,0,120,64,100,80
10252.0,62,1.0,63,1,0,0,120,64,100,80
10253.0,69,1.0,63,1,0,0,120,64,100,80
10254.0,62,1.0,63,1,0,0,120,64,100,80
10255.0,64,1.0,63,1,0,0,120,64,100,80
10256.0,64,1.0,63,1,0,0,120,64,100,80
10257.0,64,1.0,63,1,0,0,120,64,100,80
10258.0,60,1.0,63,1,0,0,120,64,100,80
10259.0,64,1.0,63,1,0,0,120,64,100,80
10260.0,60,1.0,63,1,0,0,120,64,100,80
10261.0,62,1.0,63,1,0,0,120,64,100,80
10262.0,60,1.0,63,1,0,0,120,64,100,80
10263.0,64,1.0,63,1,0,0,120,64,100,80
10264.0,62,1.0,63,1,0,0,120,64,100,80
10265.0,67,1.0,63,1,0,0,120,64,100,80
10266.0,62,1.0,63,1,0,0,120,64,100,80
10267.0,60,1.0,63,1,0,0,120,64,100,80
10268.0,62,1.0,63,1,0,0,120,64,100,80
10269.0,62,1.0,63,1,0,0,120,64,100,80
10270.0,71,1.0,63,1,0,0,120,64,100,80
10271.0,69,1.0,63,1,0,0,120,64,100,80
10272.0,64,1.0,63,1,0,0,120,64,100,80
10273.0,60,1.0,63,1,0,0,120,64,100,80
10274.0,60,1.0,63,1,0,0,120,64,100,80
10275.0,60,1.0,63,1,0,0,120,64,100,80
10276.0,64,1.0,63,1,0,0,120,64,100,80
10277.0,69,1.0,63,1,0,0,120,64,100,80
10278.0,60,1.0,63,1,0,0,120,64,100,80
10279.0,67,1.0,63,1,0,0,120,64,100,80
10280.0,69,1.0,63,1,0,0,120,64,100,80
10281.0,60,1.0,63,1,0,0,120,64,100,80
10282.0,60,1.0,63,1,0,0,120,64,100,80
10283.0,69,1.0,63,1,0,0,120,64,100,80
10284.0,62,1.0,63,1,0,0,120,64,100,80
10285.0,60,1.0,63,1,0,0,120,64,100,80
10286.0,65,1.0,63,1,0,0,120,64,100,80
10287.0,69,1.0,63,1,0,0,120,64,100,80
10288.0,64,1.0,63,1,0,0,120,64,100,80
10289.0,64,1.0,63,1,0,0,120,64,100,80
10290.0,69,1.0,63,1,0,0,120,64,100,80
10291.0,65,1.0,63,1,0,0,120,64,100,80
10292.0,69,1.0,63,1,0,0,120,64,100,80
10293.0,69,1.0,63,1,0,0,120,64,100,80
10294.0,64,1.0,63,1,0,0,120,64,100,80
10295.0,60,1.0,63,1,0,0,120,64,100,80
10296.0,64,1.0,63,1,0,0,120,64,100,80
10297.0,69,1.0,63,1,0,0,120,64,100,80
10298.0,62,1.0,63,1,0,0,120,64,100,80
10299.0,60,1.0,63,1,0,0,120,64,100,80
10300.0,62,1.0,63,1,0,0,120,64,100,80
10301.0,69,1.0,63,1,0,0,120,64,100,80
10302.0,60,1.0,63,1,0,0,120,64,100,80
10303.0,69,1.0,63,1,0,0,120,64,100,80
10304.0,67,1.0,63,1,0,0,120,64,100,80
10305.0,62,1.0,63,1,0,0,120,64,100,80
10306.0,60,1.0,63,1,0,0,120,64,100,80
10307.0,69,1.0,63,1,0,0,120,64,100,80
10308.0,60,1.0,63,1,0,0,120,64,100,80
10309.0,64,1.0,63,1,0,0,120,64,100,80
10310.0,64,1.0,63,1,0,0,120,64,100,80
10311.0,62,1.0,63,1,0,0,120,64,100,80
10312.0,64,1.0,63,1,0,0,120,64,100,80
10313.0,67,1.0,63,1,0,0,120,64,100,80
10314.0,60,1.0,63,1,0,0,120,64,100,80
10315.0,71,1.0,63,1,0,0,120,64,100,80
10316.0,69,1.0,63,1,0,0,120,64,100,80
10317.0,62,1.0,63,1,0,0,120,64,100,80
10318.0,71,1.0,63,1,0,0,120,64,100,80
10319.0,65,1.0,63,1,0,0,120,64,100,80
10320.0,60,1.0,63,1,0,0,120,64,100,80
10321.0,64,1.0,63,1,0,0,120,64,100,80
10322.0,67,1.0,63,1,0,0,120,64,100,80
10323.0,64,1.0,63,1,0,0,120,64,100,80
10324.0,64,1.0,63,1,0,0,120,64,100,80
10325.0,62,1.0,63,1,0,0,120,64,100,80
10326.0,65,1.0,63,1,0,0,120,64,100,80
10327.0,62,1.0,63,1,0,0,120,64,100,80
10328.0,69,1.0,63,1,0,0,120,64,100,80
10329.0,64,1.0,63,1,0,0,120,64,100,80
10330.0,69,1.0,63,1,0,0,120,64,100,80
10331.0,60,1.0,63,1,0,0,120,64,100,80
10332.0,62,1.0,63,1,0,0,120,64,100,80
10333.0,69,1.0,63,1,0,0,120,64,100,80
10334.0,65,1.0,63,1,0,0,120,64,100,80
10335.0,60,1.0,63,1,0,0,120,64,100,80
10336.0,65,1.0,63,1,0,0,120,64,100,80
10337.0,62,1.0,63,1,0,0,120,64,100,80
10338.0,60,1.0,63,1,0,0,120,64,100,80
10339.0,60,1.0,63,1,0,0,120,64,100,80
10340.0,62,1.0,63,1,0,0,120,64,100,80
10341.0,69,1.0,63,1,0,0,120,64,100,80
10342.0,69,1.0,63,1,0,0,120,64,100,80
10343.0,60,1.0,63,1,0,0,120,64,100,80
10344.0,71,1.0,63,1,0,0,120,64,100,80
10345.0,67,1.0,63,1,0,0,120,64,100,80
10346.0,65,1.0,63,1,0,0,120,64,100,80
10347.0,62,1.0,63,1,0,0,120,64,100,80
10348.0,69,1.0,63,1,0,0,120,64,100,80
10349.0,62,1.0,63,1,0,0,120,64,100,80
10350.0,67,1.0,63,1,0,0,120,64,100,80
10351.0,60,1.0,63,1,0,0,120,64,100,80
10352.0,62,1.0,63,1,0,0,120,64,100,80
10353.0,60,1.0,63,1,0,0,120,64,100,80
10354.0,60,1.0,63,1,0,0,120,64,100,80
10355.0,62,1.0,63,1,0,0,120,64,100,80
10356.0,62,1.0,63,1,0,0,120,64,100,80
10357.0,69,1.0,63,1,0,0,120,64,100,80
10358.0,62,1.0,63,1,0,0,120,64,100,80
10359.0,60,1.0,63,1,0,0,120,64,100,80
10360.0,60,1.0,63,1,0,0,120,64,100,80
10361.0,62,1.0,63,1,0,0,120,64,100,80
10362.0,62,1.0,63,1,0,0,120,64,100,80
10363.0,62,1.0,63,1,0,0,120,64,100,80
10364.0,62,1.0,63,1,0,0,120,64,100,80
10365.0,71,1.0,63,1,0,0,120,64,100,80
10366.0,65,1.0,63,1,0,0,120,64,100,80
10367.0,60,1.0,63,1,0,0,120,64,100,80
10368.0,60,1.0,63,1,0,0,120,64,100,80
10369.0,67,1.0,63,1,0,0,120,64,100,80
10370.0,69,1.0,63,1,0,0,120,64,100,80
10371.0,60,1.0,63,1,0,0,120,64,100,80
10372.0,62,1.0,63,1,0,0,120,64,100,80
10373.0,64,1.0,63,1,0,0,120,64,100,80
10374.0,62,1.0,63,1,0,0,120,64,100,80
10375.0,64,1.0,63,1,0,0,120,64,100,80
10376.0,0,1.0,63,1,0,0,120,64,100,80
10377.0,60,1.0,63,1,0,0,120,64,100,80
10378.0,62,1.0,63,1,0,0,120,64,100,80
10379.0,62,1.0,63,1,0,0,120,64,100,80
10380.0,67,1.0,63,1,0,0,120,64,100,80
10381.0,60,1.0,63,1,0,0,120,64,100,80
10382.0,60,1.0,63,1,0,0,120,64,100,80
10383.0,60,1.0,63,1,0,0,120,64,100,80
10384.0,69,1.0,63,1,0,0,120,64,100,80
10385.0,60,1.0,63,1,0,0,120,64,100,80
10386.0,62,1.0,63,1,0,0,120,64,100,80
10387.0,65,1.0,63,1,0,0,120,64,100,80
10388.0,62,1.0,63,1,0,0,120,64,100,80
10389.0,64,1.0,63,1,0,0,120,64,100,80
10390.0,64,1.0,63,1,0,0,120,64,100,80
10391.0,60,1.0,63,1,0,0,120,64,100,80
10392.0,65,1.0,63,1,0,0,120,64,100,80
10393.0,64,1.0,63,1,0,0,120,64,100,80
10394.0,0,1.0,63,1,0,0,120,64,100,80
10395.0,64,1.0,63,1,0,0,120,64,100,80
10396.0,65,1.0,63,1,0,0,120,64,100,80
10397.0,62,1.0,63,1,0,0,120,64,100,80
10398.0,67,1.0,63,1,0,0,120,64,100,80
10399.0,65,1.0,63,1,0,0,120,64,100,80
10400.0,62,1.0,63,1,0,0,120,64,100,80
10401.0,62,1.0,63,1,0,0,120,64,100,80
10402.0,69,1.0,63,1,0,0,120,64,100,80
10403.0,67,1.0,63,1,0,0,120,64,100,80
10404.0,67,1.0,63,1,0,0,120,64,100,80
10405.0,69,1.0,63,1,0,0,120,64,100,80
10406.0,60,1.0,63,1,0,0,120,64,100,80
10407.0,69,1.0,63,1,0,0,120,64,100,80
10408.0,69,1.0,63,1,0,0,120,64,100,80
10409.0,0,1.0,63,1,0,0,120,64,100,80
10410.0,69,1.0,63,1,0,0,120,64,100,80
10411.0,62,1.0,63,1,0,0,120,64,100,80
10412.0,62,1.0,63,1,0,0,120,64,100,80
10413.0,62,1.0,63,1,0,0,120,64,100,80
10414.0,64,1.0,63,1,0,0,120,64,100,80
10415.0,69,1.0,63,1,0,0,120,64,100,80
10416.0,65,1.0,63,1,0,0,120,64,100,80
10417.0,60,1.0,63,1,0,0,120,64,100,80
10418.0,62,1.0,63,1,0,0,120,64,100,80
10419.0,62,1.0,63,1,0,0,120,64,100,80
10420.0,60,1.0,63,1,0,0,120,64,100,80
10421.0,60,1.0,63,1,0,0,120,64,100,80
10422.0,60,1.0,63,1,0,0,120,64,100,80
10423.0,71,1.0,63,1,0,0,120,64,100,80
10424.0,60,1.0,63,1,0,0,120,64,100,80
10425.0,62,1.0,63,1,0,0,120,64,100,80
10426.0,60,1.0,63,1,0,0,120,64,100,80
10427.0,62,1.0,63,1,0,0,120,64,100,80
10428.0,60,1.0,63,1,0,0,120,64,100,80
10429.0,69,1.0,63,1,0,0,120,64,100,80
10430.0,64,1.0,63,1,0,0,120,64,100,80
10431.0,64,1.0,63,1,0,0,120,64,100,80
10432.0,62,1.0,63,1,0,0,120,64,100,80
10433.0,69,1.0,63,1,0,0,120,64,100,80
10434.0,64,1.0,63,1,0,0,120,64,100,80
10435.0,60,1.0,63,1,0,0,120,64,100,80
10436.0,60,1.0,63,1,0,0,120,64,100,80
10437.0,64,1.0,63,1,0,0,120,64,100,80
10438.0,60,1.0,63,1,0,0,120,64,100,80
10439.0,0,1.0,63,1,0,0,120,64,100,80
10440.0,65,1.0,63,1,0,0,120,64,100,80
10441.0,62,1.0,63,1,0,0,120,64,100,80
10442.0,64,1.0,63,1,0,0,120,64,100,80
10443.0,64,1.0,63,1,0,0,120,64,100,80
10444.0,60,1.0,63,1,0,0,120,64,100,80
10445.0,60,1.0,63,1,0,0,120,64,100,80
10446.0,64,1.0,63,1,0,0,120,64,100,80
10447.0,67,1.0,63,1,0,0,120,64,100,80
10448.0,64,1.0,63,1,0,0,120,64,100,80
10449.0,69,1.0,63,1,0,0,120,64,100,80
10450.0,64,1.0,63,1,0,0,120,64,100,80
10451.0,64,1.0,63,1,0,0,120,64,100,80
10452.0,60,1.0,63,1,0,0,120,64,100,80
10453.0,62,1.0,63,1,0,0,120,64,100,80
10454.0,67,1.0,63,1,0,0,120,64,100,80
10455.0,60,1.0,63,1,0,0,120,64,100,80
10456.0,62,1.0,63,1,0,0,120,64,100,80
10457.0,67,1.0,63,1,0,0,120,64,100,80
10458.0,62,1.0,63,1,0,0,120,64,100,80
10459.0,67,1.0,63,1,0,0,120,64,100,80
10460.0,67,1.0,63,1,0,0,120,64,100,80
10461.0,64,1.0,63,1,0,0,120,64,100,80
10462.0,62,1.0,63,1,0,0,120,64,100,80
10463.0,67,1.0,63,1,0,0,120,64,100,80
10464.0,60,1.0,63,1,0,0,120,64,100,80
10465.0,64,1.0,63,1,0,0,120,64,100,80
10466.0,64,1.0,63,1,0,0,120,64,100,80
10467.0,67,1.0,63,1,0,0,120,64,100,80
10468.0,60,1.0,63,1,0,0,120,64,100,80
10469.0,65,1.0,63,1,0,0,120,64,100,80
10470.0,64,1.0,63,1,0,0,120,64,100,80
10471.0,60,1.0,63,1,0,0,120,64,100,80
10472.0,62,1.0,63,1,0,0,120,64,100,80
10473.0,71,1.0,63,1,0,0,120,64,100,80
10474.0,69,1.0,63,1,0,0,120,64,100,80
10475.0,71,1.0,63,1,0,0,120,64,100,80
10476.0,64,1.0,63,1,0,0,120,64,100,80
10477.0,60,1.0,63,1,0,0,120,64,100,80
10478.0,62,1.0,63,1,0,0,120,64,100,80
10479.0,60,1.0,63,1,0,0,120,64,100,80
10480.0,62,1.0,63,1,0,0,120,64,100,80
10481.0,69,1.0,63,1,0,0,120,64,100,80
10482.0,60,1.0,63,1,0,0,120,64,100,80
10483.0,65,1.0,63,1,0,0,120,64,100,80
10484.0,62,1.0,63,1,0,0,120,64,100,80
10485.0,60,1.0,63,1,0,0,120,64,100,80
10486.0,65,1.0,63,1,0,0,120,64,100,80
10487.0,62,1.0,63,1,0,0,120,64,100,80
10488.0,60,1.0,63,1,0,0,120,64,100,80
10489.0,60,1.0,63,1,0,0,120,64,100,80
10490.0,64,1.0,63,1,0,0,120,64,100,80
10491.0,60,1.0,63,1,0,0,120,64,100,80
10492.0,64,1.0,63,1,0,0,120,64,100,80
10493.0,64,1.0,63,1,0,0,120,64,100,80
10494.0,64,1.0,63,1,0,0,120,64,100,80
10495.0,67,1.0,63,1,0,0,120,64,100,80
10496.0,65,1.0,63,1,0,0,120,64,100,80
10497.0,64,1.0,63,1,0,0,120,64,100,80
10498.0,62,1.0,63,1,0,0,120,64,100,80
10499.0,60,1.0,63,1,0,0,120,64,100,80
10500.0,64,1.0,63,1,0,0,120,64,100,80
10501.0,60,1.0,63,1,0,0,120,64,100,80
10502.0,71,1.0,63,1,0,0,120,64,100,80
10503.0,0,1.0,63,1,0,0,120,64,100,80
10504.0,69,1.0,63,1,0,0,120,64,100,80
10505.0,62,1.0,63,1,0,0,120,64,100,80
10506.0,60,1.0,63,1,0,0,120,64,100,80
10507.0,64,1.0,63,1,0,0,120,64,100,80
10508.0,62,1.0,63,1,0,0,120,64,100,80
10509.0,60,1.0,63,1,0,0,120,64,100,80
10510.0,64,1.0,63,1,0,0,120,64,100,80
10511.0,62,1.0,63,1,0,0,120,64,100,80
10512.0,64,1.0,63,1,0,0,120,64,100,80
10513.0,65,1.0,63,1,0,0,120,64,100,80
10514.0,69,1.0,63,1,0,0,120,64,100,80
10515.0,62,1.0,63,1,0,0,120,64,100,80
10516.0,62,1.0,63,1,0,0,120,64,100,80
10517.0,64,1.0,63,1,0,0,120,64,100,80
10518.0,64,1.0,63,1,0,0,120,64,100,80
10519.0,62,1.0,63,1,0,0,120,64,100,80
10520.0,64,1.0,63,1,0,0,120,64,100,80
10521.0,60,1.0,63,1,0,0,120,64,100,80
10522.0,60,1.0,63,1,0,0,120,64,100,80
10523.0,62,1.0,63,1,0,0,120,64,100,80
10524.0,62,1.0,63,1,0,0,120,64,100,80
10525.0,67,1.0,63,1,0,0,120,64,100,80
10526.0,60,1.0,63,1,0,0,120,64,100,80
10527.0,60,1.0,63,1,0,0,120,64,100,80
10528.0,67,1.0,63,1,0,0,120,64,100,80
10529.0,64,1.0,63,1,0,0,120,64,100,80
10530.0,60,1.0,63,1,0,0,120,64,100,80
10531.0,60,1.0,63,1,0,0,120,64,100,80
10532.0,60,1.0,63,1,0,0,120,64,100,80
10533.0,62,1.0,63,1,0,0,120,64,100,80
10534.0,69,1.0,63,1,0,0,120,64,100,80
10535.0,62,1.0,63,1,0,0,120,64,100,80
10536.0,71,1.0,63,1,0,0,120,64,100,80
10537.0,60,1.0,63,1,0,0,120,64,100,80
10538.0,60,1.0,63,1,0,0,120,64,100,80
10539.0,64,1.0,63,1,0,0,120,64,100,80
10540.0,65,1.0,63,1,0,0,120,64,100,80
10541.0,60,1.0,63,1,0,0,120,64,100,80
10542.0,65,1.0,63,1,0,0,120,64,100,80
10543.0,60,1.0,63,1,0,0,120,64,100,80
10544.0,69,1.0,63,1,0,0,120,64,100,80
10545.0,60,1.0,63,1,0,0,120,64,100,80
10546.0,69,1.0,63,1,0,0,120,64,100,80
10547.0,65,1.0,63,1,0,0,120,64,100,80
10548.0,69,1.0,63,1,0,0,120,64,100,80
10549.0,65,1.0,63,1,0,0,120,64,100,80
10550.0,60,1.0,63,1,0,0,120,64,100,80
10551.0,60,1.0,63,1,0,0,120,64,100,80
10552.0,60,1.0,63,1,0,0,120,64,100,80
10553.0,0,1.0,63,1,0,0,120,64,100,80
10554.0,69,1.0,63,1,0,0,120,64,100,80
10555.0,64,1.0,63,1,0,0,120,64,100,80
10556.0,69,1.0,63,1,0,0,120,64,100,80
10557.0,71,1.0,63,1,0,0,120,64,100,80
10558.0,60,1.0,63,1,0,0,120,64,100,80
10559.0,62,1.0,63,1,0,0,120,64,100,80
10560.0,71,1.0,63,1,0,0,120,64,100,80
10561.0,69,1.0,63,1,0,0,120,64,100,80
10562.0,71,1.0,63,1,0,0,120,64,100,80
10563.0,69,1.0,63,1,0,0,120,64,100,80
10564.0,64,1.0,63,1,0,0,120,64,100,80
10565.0,62,1.0,63,1,0,0,120,64,100,80
10566.0,64,1.0,63,1,0,0,120,64,100,80
10567.0,67,1.0,63,1,0,0,120,64,100,80
10568.0,71,1.0,63,1,0,0,120,64,100,80
10569.0,64,1.0,63,1,0,0,120,64,100,80
10570.0,0,1.0,63,1,0,0,120,64,100,80
10571.0,60,1.0,63,1,0,0,120,64,100,80
10572.0,64,1.0,63,1,0,0,120,64,100,80
10573.0,64,1.0,63,1,0,0,120,64,100,80
10574.0,60,1.0,63,1,0,0,120,64,100,80
10575.0,69,1.0,63,1,0,0,120,64,100,80
10576.0,62,1.0,63,1,0,0,120,64,100,80
10577.0,60,1.0,63,1,0,0,120,64,100,80
10578.0,60,1.0,63,1,0,0,120,64,100,80
10579.0,64,1.0,63,1,0,0,120,64,100,80
10580.0,60,1.0,63,1,0,0,120,64,100,80
10581.0,71,1.0,63,1,0,0,120,64,100,80
10582.0,67,1.0,63,1,0,0,120,64,100,80
10583.0,69,1.0,63,1,0,0,120,64,100,80
10584.0,69,1.0,63,1,0,0,120,64,100,80
10585.0,71,1.0,63,1,0,0,120,64,100,80
10586.0,62,1.0,63,1,0,0,120,64,100,80
10587.0,69,1.0,63,1,0,0,120,64,100,80
10588.0,60,1.0,63,1,0,0,120,64,100,80
10589.0,69,1.0,63,1,0,0,120,64,100,80
10590.0,62,1.0,63,1,0,0,120,64,100,80
10591.0,64,1.0,63,1,0,0,120,64,100,80
10592.0,60,1.0,63,1,0,0,120,64,100,80
10593.0,60,1.0,63,1,0,0,120,64,100,80
10594.0,67,1.0,63,1,0,0,120,64,100,80
10595.0,62,1.0,63,1,0,0,120,64,100,80
10596.0,60,1.0,63,1,0,0,120,64,100,80
10597.0,62,1.0,63,1,0,0,120,64,100,80
10598.0,64,1.0,63,1,0,0,120,64,100,80
10599.0,60,1.0,63,1,0,0,120,64,100,80
10600.0,62,1.0,63,1,0,0,120,64,100,80
10601.0,64,1.0,63,1,0,0,120,64,100,80
10602.0,64,1.0,63,1,0,0,120,64,100,80
10603.0,60,1.0,63,1,0,0,120,64,100,80
10604.0,60,1.0,63,1,0,0,120,64,100,80
10605.0,62,1.0,63,1,0,0,120,64,100,80
10606.0,0,1.0,63,1,0,0,120,64,100,80
10607.0,60,1.0,63,1,0,0,120,64,100,80
10608.0,60,1.0,63,1,0,0,120,64,100,80
10609.0,0,1.0,63,1,0,0,120,64,100,80
10610.0,65,1.0,63,1,0,0,120,64,100,80
10611.0,62,1.0,63,1,0,0,120,64,100,80
10612.0,60,1.0,63,1,0,0,120,64,100,80
10613.0,65,1.0,63,1,0,0,120,64,100,80
10614.0,69,1.0,63,1,0,0,120,64,100,80
10615.0,67,1.0,63,1,0,0,120,64,100,80
10616.0,71,1.0,63,1,0,0,120,64,100,80
10617.0,64,1.0,63,1,0,0,120,64,100,80
10618.0,64,1.0,63,1,0,0,120,64,100,80
10619.0,62,1.0,63,1,0,0,120,64,100,80
10620.0,60,1.0,63,1,0,0,120,64,100,80
10621.0,67,1.0,63,1,0,0,120,64,100,80
10622.0,60,1.0,63,1,0,0,120,64,100,80
10623.0,62,1.0,63,1,0,0,120,64,100,80
10624.0,64,1.0,63,1,0,0,120,64,100,80
10625.0,60,1.0,63,1,0,0,120,64,100,80
10626.0,62,1.0,63,1,0,0,120,64,100,80
10627.0,67,1.0,63,1,0,0,120,64,100,80
10628.0,65,1.0,63,1,0,0,120,64,100,80
10629.0,62,1.0,63,1,0,0,120,64,100,80
10630.0,69,1.0,63,1,0,0,120,64,100,80
10631.0,64,1.0,63,1,0,0,120,64,100,80
10632.0,60,1.0,63,1,0,0,120,64,100,80
10633.0,0,1.0,63,1,0,0,120,64,100,80
10634.0,69,1.0,63,1,0,0,120,64,100,80
10635.0,60,1.0,63,1,0,0,120,64,100,80
10636.0,64,1.0,63,1,0,0,120,64,100,80
10637.0,62,1.0,63,1,0,0,120,64,100,80
10638.0,60,1.0,63,1,0,0,120,64,100,80
10639.0,64,1.0,63,1,0,0,120,64,100,80
10640.0,62,1.0,63,1,0,0,120,64,100,80
10641.0,69,1.0,63,1,0,0,120,64,100,80
10642.0,69,1.0,63,1,0,0,120,64,100,80
10643.0,64,1.0,63,1,0,0,120,64,100,80
10644.0,65,1.0,63,1,0,0,120,64,100,80
10645.0,69,1.0,63,1,0,0,120,64,100,80
10646.0,64,1.0,63,1,0,0,120,64,100,80
10647.0,62,1.0,63,1,0,0,120,64,100,80
10648.0,60,1.0,63,1,0,0,120,64,100,80
10649.0,65,1.0,63,1,0,0,120,64,100,80
10650.0,60,1.0,63,1,0,0,120,64,100,80
10651.0,71,1.0,63,1,0,0,120,64,100,80
10652.0,64,1.0,63,1,0,0,120,64,100,80
10653.0,65,1.0,63,1,0,0,120,64,100,80
10654.0,71,1.0,63,1,0,0,120,64,100,80
10655.0,71,1.0,63,1,0,0,120,64,100,80
10656.0,60,1.0,63,1,0,0,120,64,100,80
10657.0,69,1.0,63,1,0,0,120,64,100,80
10658.0,65,1.0,63,1,0,0,120,64,100,80
10659.0,60,1.0,63,1,0,0,120,64,100,80
10660.0,62,1.0,63,1,0,0,120,64,100,80
10661.0,64,1.0,63,1,0,0,120,64,100,80
10662.0,62,1.0,63,1,0,0,120,64,100,80
10663.0,67,1.0,63,1,0,0,120,64,100,80
10664.0,69,1.0,63,1,0,0,120,64,100,80
10665.0,71,1.0,63,1,0,0,120,64,100,80
10666.0,60,1.0,63,1,0,0,120,64,100,80
10667.0,64,1.0,63,1,0,0,120,64,100,80
10668.0,67,1.0,63,1,0,0,120,64,100,80
10669.0,65,1.0,63,1,0,0,120,64,100,80
10670.0,62,1.0,63,1,0,0,120,64,100,80
10671.0,69,1.0,63,1,0,0,120,64,100,80
10672.0,65,1.0,63,1,0,0,120,64,100,80
10673.0,60,1.0,63,1,0,0,120,64,100,80
10674.0,60,1.0,63,1,0,0,120,64,100,80
10675.0,60,1.0,63,1,0,0,120,64,100,80
10676.0,64,1.0,63,1,0,0,120,64,100,80
10677.0,60,1.0,63,1,0,0,120,64,100,80
10678.0,64,1.0,63,1,0,0,120,64,100,80
10679.0,71,1.0,63,1,0,0,120,64,100,80
10680.0,0,1.0,63,1,0,0,120,64,100,80
10681.0,60,1.0,63,1,0,0,120,64,100,80
10682.0,67,1.0,63,1,0,0,120,64,100,80
10683.0,69,1.0,63,1,0,0,120,64,100,80
10684.0,64,1.0,63,1,0,0,120,64,100,80
10685.0,60,1.0,63,1,0,0,120,64,100,80
10686.0,60,1.0,63,1,0,0,120,64,100,80
10687.0,62,1.0,63,1,0,0,120,64,100,80
10688.0,64,1.0,63,1,0,0,120,64,100,80
10689.0,62,1.0,63,1,0,0,120,64,100,80
10690.0,64,1.0,63,1,0,0,120,64,100,80
10691.0,65,1.0,63,1,0,0,120,64,100,80
10692.0,64,1.0,63,1,0,0,120,64,100,80
10693.0,69,1.0,63,1,0,0,120,64,100,80
10694.0,0,1.0,63,1,0,0,120,64,100,80
10695.0,64,1.0,63,1,0,0,120,64,100,80
10696.0,60,1.0,63,1,0,0,120,64,100,80
10697.0,65,1.0,63,1,0,0,120,64,100,80
10698.0,64,1.0,63,1,0,0,120,64,100,80
10699.0,64,1.0,63,1,0,0,120,64,100,80
10700.0,60,1.0,63,1,0,0,120,64,100,80
10701.0,64,1.0,63,1,0,0,120,64,100,80
10702.0,65,1.0,63,1,0,0,120,64,100,80
10703.0,62,1.0,63,1,0,0,120,64,100,80
10704.0,64,1.0,63,1,0,0,120,64,100,80
10705.0,64,1.0,63,1,0,0,120,64,100,80
10706.0,71,1.0,63,1,0,0,120,64,100,80
10707.0,60,1.0,63,1,0,0,120,64,100,80
10708.0,60,1.0,63,1,0,0,120,64,100,80
10709.0,60,1.0,63,1,0,0,120,64,100,80
10710.0,64,1.0,63,1,0,0,120,64,100,80
10711.0,65,1.0,63,1,0,0,120,64,100,80
10712.0,0,1.0,63,1,0,0,120,64,100,80
10713.0,65,1.0,63,1,0,0,120,64,100,80
10714.0,64,1.0,63,1,0,0,120,64,100,80
10715.0,69,1.0,63,1,0,0,120,64,100,80
10716.0,69,1.0,63,1,0,0,120,64,100,80
10717.0,65,1.0,63,1,0,0,120,64,100,80
10718.0,69,1.0,63,1,0,0,120,64,100,80
10719.0,60,1.0,63,1,0,0,120,64,100,80
10720.0,62,1.0,63,1,0,0,120,64,100,80
10721.0,64,1.0,63,1,0,0,120,64,100,80
10722.0,60,1.0,63,1,0,0,120,64,100,80
10723.0,65,1.0,63,1,0,0,120,64,100,80
10724.0,64,1.0,63,1,0,0,120,64,100,80
10725.0,67,1.0,63,1,0,0,120,64,100,80
10726.0,60,1.0,63,1,0,0,120,64,100,80
10727.0,69,1.0,63,1,0,0,120,64,100,80
10728.0,69,1.0,63,1,0,0,120,64,100,80
10729.0,71,1.0,63,1,0,0,120,64,100,80
10730.0,62,1.0,63,1,0,0,120,64,100,80
10731.0,65,1.0,63,1,0,0,120,64,100,80
10732.0,65,1.0,63,1,0,0,120,64,100,80
10733.0,60,1.0,63,1,0,0,120,64,100,80
10734.0,65,1.0,63,1,0,0,120,64,100,80
10735.0,71,1.0,63,1,0,0,120,64,100,80
10736.0,69,1.0,63,1,0,0,120,64,100,80
10737.0,60,1.0,63,1,0,0,120,64,100,80
10738.0,62,1.0,63,1,0,0,120,64,100,80
10739.0,64,1.0,63,1,0,0,120,64,100,80
10740.0,69,1.0,63,1,0,0,120,64,100,80
10741.0,60,1.0,63,1,0,0,120,64,100,80
10742.0,62,1.0,63,1,0,0,120,64,100,80
10743.0,69,1.0,63,1,0,0,120,64,100,80
10744.0,60,1.0,63,1,0,0,120,64,100,80
10745.0,60,1.0,63,1,0,0,120,64,100,80
10746.0,60,1.0,63,1,0,0,120,64,100,80
10747.0,65,1.0,63,1,0,0,120,64,100,80
10748.0,69,1.0,63,1,0,0,120,64,100,80
10749.0,69,1.0,63,1,0,0,120,64,100,80
10750.0,64,1.0,63,1,0,0,120,64,100,80
10751.0,69,1.0,63,1,0,0,120,64,100,80
10752.0,65,1.0,63,1,0,0,120,64,100,80
10753.0,67,1.0,63,1,0,0,120,64,100,80
10754.0,69,1.0,63,1,0,0,120,64,100,80
10755.0,62,1.0,63,1,0,0,120,64,100,80
10756.0,65,1.0,63,1,0,0,120,64,100,80
10757.0,71,1.0,63,1,0,0,120,64,100,80
10758.0,71,1.0,63,1,0,0,120,64,100,80
10759.0,64,1.0,63,1,0,0,120,64,100,80
10760.0,60,1.0,63,1,0,0,120,64,100,80
10761.0,60,1.0,63,1,0,0,120,64,100,80
10762.0,64,1.0,63,1,0,0,120,64,100,80
10763.0,60,1.0,63,1,0,0,120,64,100,80
10764.0,69,1.0,63,1,0,0,120,64,100,80
10765.0,64,1.0,63,1,0,0,120,64,100,80
10766.0,64,1.0,63,1,0,0,120,64,100,80
10767.0,69,1.0,63,1,0,0,120,64,100,80
10768.0,65,1.0,63,1,0,0,120,64,100,80
10769.0,69,1.0,63,1,0,0,120,64,100,80
10770.0,65,1.0,63,1,0,0,120,64,100,80
10771.0,62,1.0,63,1,0,0,120,64,100,80
10772.0,71,1.0,63,1,0,0,120,64,100,80
10773.0,64,1.0,63,1,0,0,120,64,100,80
10774.0,60,1.0,63,1,0,0,120,64,100,80
10775.0,64,1.0,63,1,0,0,120,64,100,80
10776.0,60,1.0,63,1,0,0,120,64,100,80
10777.0,65,1.0,63,1,0,0,120,64,100,80
10778.0,65,1.0,63,1,0,0,120,64,100,80
10779.0,60,1.0,63,1,0,0,120,64,100,80
10780.0,64,1.0,63,1,0,0,120,64,100,80
10781.0,71,1.0,63,1,0,0,120,64,100,80
10782.0,65,1.0,63,1,0,0,120,64,100,80
10783.0,62,1.0,63,1,0,0,120,64,100,80
10784.0,60,1.0,63,1,0,0,120,64,100,80
10785.0,69,1.0,63,1,0,0,120,64,100,80
10786.0,71,1.0,63,1,0,0,120,64,100,80
10787.0,71,1.0,63,1,0,0,120,64,100,80
10788.0,60,1.0,63,1,0,0,120,64,100,80
10789.0,65,1.0,63,1,0,0,120,64,100,80
10790.0,71,1.0,63,1,0,0,120,64,100,80
10791.0,62,1.0,63,1,0,0,120,64,100,80
10792.0,60,1.0,63,1,0,0,120,64,100,80
10793.0,64,1.0,63,1,0,0,120,64,100,80
10794.0,67,1.0,63,1,0,0,120,64,100,80
10795.0,62,1.0,63,1,0,0,120,64,100,80
10796.0,64,1.0,63,1,0,0,120,64,100,80
10797.0,69,1.0,63,1,0,0,120,64,100,80
10798.0,65,1.0,63,1,0,0,120,64,100,80
10799.0,67,1.0,63,1,0,0,120,64,100,80
10800.0,64,1.0,63,1,0,0,120,64,100,80
10801.0,60,1.0,63,1,0,0,120,64,100,80
10802.0,62,1.0,63,1,0,0,120,64,100,80
10803.0,67,1.0,63,1,0,0,120,64,100,80
10804.0,69,1.0,63,1,0,0,120,64,100,80
10805.0,64,1.0,63,1,0,0,120,64,100,80
10806.0,62,1.0,63,1,0,0,120,64,100,80
10807.0,65,1.0,63,1,0,0,120,64,100,80
10808.0,71,1.0,63,1,0,0,120,64,100,80
10809.0,62,1.0,63,1,0,0,120,64,100,80
10810.0,67,1.0,63,1,0,0,120,64,100,80
10811.0,0,1.0,63,1,0,0,120,64,100,80
10812.0,67,1.0,63,1,0,0,120,64,100,80
10813.0,67,1.0,63,1,0,0,120,64,100,80
10814.0,64,1.0,63,1,0,0,120,64,100,80
10815.0,62,1.0,63,1,0,0,120,64,100,80
10816.0,62,1.0,63,1,0,0,120,64,100,80
10817.0,62,1.0,63,1,0,0,120,64,100,80
10818.0,60,1.0,63,1,0,0,120,64,100,80
10819.0,0,1.0,63,1,0,0,120,64,100,80
10820.0,64,1.0,63,1,0,0,120,64,100,80
10821.0,60,1.0,63,1,0,0,120,64,100,80
10822.0,69,1.0,63,1,0,0,120,64,100,80
10823.0,67,1.0,63,1,0,0,120,64,100,80
10824.0,60,1.0,63,1,0,0,120,64,100,80
10825.0,67,1.0,63,1,0,0,120,64,100,80
10826.0,64,1.0,63,1,0,0,120,64,100,80
10827.0,67,1.0,63,1,0,0,120,64,100,80
10828.0,64,1.0,63,1,0,0,120,64,100,80
10829.0,65,1.0,63,1,0,0,120,64,100,80
10830.0,67,1.0,63,1,0,0,120,64,100,80
10831.0,62,1.0,63,1,0,0,120,64,100,80
10832.0,64,1.0,63,1,0,0,120,64,100,80
10833.0,62,1.0,63,1,0,0,120,64,100,80
10834.0,64,1.0,63,1,0,0,120,64,100,80
10835.0,64,1.0,63,1,0,0,120,64,100,80
10836.0,67,1.0,63,1,0,0,120,64,100,80
10837.0,64,1.0,63,1,0,0,120,64,100,80
10838.0,69,1.0,63,1,0,0,120,64,100,80
10839.0,69,1.0,63,1,0,0,120,64,100,80
10840.0,69,1.0,63,1,0,0,120,64,100,80
10841.0,65,1.0,63,1,0,0,120,64,100,80
10842.0,62,1.0,63,1,0,0,120,64,100,80
10843.0,67,1.0,63,1,0,0,120,64,100,80
10844.0,69,1.0,63,1,0,0,120,64,100,80
10845.0,65,1.0,63,1,0,0,120,64,100,80
10846.0,69,1.0,63,1,0,0,120,64,100,80
10847.0,64,1.0,63,1,0,0,120,64,100,80
10848.0,64,1.0,63,1,0,0,120,64,100,80
10849.0,64,1.0,63,1,0,0,120,64,100,80
10850.0,67,1.0,63,1,0,0,120,64,100,80
10851.0,60,1.0,63,1,0,0,120,64,100,80
10852.0,65,1.0,63,1,0,0,120,64,100,80
10853.0,71,1.0,63,1,0,0,120,64,100,80
10854.0,62,1.0,63,1,0,0,120,64,100,80
10855.0,0,1.0,63,1,0,0,120,64,100,80
10856.0,65,1.0,63,1,0,0,120,64,100,80
10857.0,67,1.0,63,1,0,0,120,64,100,80
10858.0,69,1.0,63,1,0,0,120,64,100,80
10859.0,67,1.0,63,1,0,0,120,64,100,80
10860.0,60,1.0,63,1,0,0,120,64,100,80
10861.0,60,1.0,63,1,0,0,120,64,100,80
10862.0,60,1.0,63,1,0,0,120,64,100,80
10863.0,0,1.0,63,1,0,0,120,64,100,80
10864.0,62,1.0,63,1,0,0,120,64,100,80
10865.0,69,1.0,63,1,0,0,120,64,100,80
10866.0,67,1.0,63,1,0,0,120,64,100,80
10867.0,62,1.0,63,1,0,0,120,64,100,80
10868.0,64,1.0,63,1,0,0,120,64,100,80
10869.0,67,1.0,63,1,0,0,120,64,100,80
10870.0,60,1.0,63,1,0,0,120,64,100,80
10871.0,67,1.0,63,1,0,0,120,64,100,80
10872.0,60,1.0,63,1,0,0,120,64,100,80
10873.0,60,1.0,63,1,0,0,120,64,100,80
10874.0,62,1.0,63,1,0,0,120,64,100,80
10875.0,64,1.0,63,1,0,0,120,64,100,80
10876.0,60,1.0,63,1,0,0,120,64,100,80
10877.0,60,1.0,63,1,0,0,120,64,100,80
10878.0,62,1.0,63,1,0,0,120,64,100,80
10879.0,67,1.0,63,1,0,0,120,64,100,80
10880.0,62,1.0,63,1,0,0,120,64,100,80
10881.0,64,1.0,63,1,0,0,120,64,100,80
10882.0,71,1.0,63,1,0,0,120,64,100,80
10883.0,69,1.0,63,1,0,0,120,64,100,80
10884.0,67,1.0,63,1,0,0,120,64,100,80
10885.0,65,1.0,63,1,0,0,120,64,100,80
10886.0,69,1.0,63,1,0,0,120,64,100,80
10887.0,67,1.0,63,1,0,0,120,64,100,80
10888.0,65,1.0,63,1,0,0,120,64,100,80
10889.0,0,1.0,63,1,0,0,120,64,100,80
10890.0,65,1.0,63,1,0,0,120,64,100,80
10891.0,60,1.0,63,1,0,0,120,64,100,80
10892.0,0,1.0,63,1,0,0,120,64,100,80
10893.0,62,1.0,63,1,0,0,120,64,100,80
10894.0,69,1.0,63,1,0,0,120,64,100,80
10895.0,65,1.0,63,1,0,0,120,64,100,80
10896.0,67,1.0,63,1,0,0,120,64,100,80
10897.0,69,1.0,63,1,0,0,120,64,100,80
10898.0,64,1.0,63,1,0,0,120,64,100,80
10899.0,64,1.0,63,1,0,0,120,64,100,80
10900.0,62,1.0,63,1,0,0,120,64,100,80
10901.0,69,1.0,63,1,0,0,120,64,100,80
10902.0,60,1.0,63,1,0,0,120,64,100,80
10903.0,62,1.0,63,1,0,0,120,64,100,80
10904.0,60,1.0,63,1,0,0,120,64,100,80
10905.0,69,1.0,63,1,0,0,120,64,100,80
10906.0,65,1.0,63,1,0,0,120,64,100,80
10907.0,69,1.0,63,1,0,0,120,64,100,80
10908.0,64,1.0,63,1,0,0,120,64,100,80
10909.0,65,1.0,63,1,0,0,120,64,100,80
10910.0,67,1.0,63,1,0,0,120,64,100,80
10911.0,60,1.0,63,1,0,0,120,64,100,80
10912.0,65,1.0,63,1,0,0,120,64,100,80
10913.0,64,1.0,63,1,0,0,120,64,100,80
10914.0,64,1.0,63,1,0,0,120,64,100,80
10915.0,60,1.0,63,1,0,0,120,64,100,80
10916.0,62,1.0,63,1,0,0,120,64,100,80
10917.0,67,1.0,63,1,0,0,120,64,100,80
10918.0,67,1.0,63,1,0,0,120,64,100,80
10919.0,62,1.0,63,1,0,0,120,64,100,80
10920.0,62,1.0,63,1,0,0,120,64,100,80
10921.0,65,1.0,63,1,0,0,120,64,100,80
10922.0,69,1.0,63,1,0,0,120,64,100,80
10923.0,65,1.0,63,1,0,0,120,64,100,80
10924.0,67,1.0,63,1,0,0,120,64,100,80
10925.0,60,1.0,63,1,0,0,120,64,100,80
10926.0,67,1.0,63,1,0,0,120,64,100,80
10927.0,0,1.0,63,1,0,0,120,64,100,80
10928.0,62,1.0,63,1,0,0,120,64,100,80
10929.0,60,1.0,63,1,0,0,120,64,100,80
10930.0,65,1.0,63,1,0,0,120,64,100,80
10931.0,62,1.0,63,1,0,0,120,64,100,80
10932.0,60,1.0,63,1,0,0,120,64,100,80
10933.0,67,1.0,63,1,0,0,120,64,100,80
10934.0,65,1.0,63,1,0,0,120,64,100,80
10935.0,60,1.0,63,1,0,0,120,64,100,80
10936.0,64,1.0,63,1,0,0,120,64,100,80
10937.0,69,1.0,63,1,0,0,120,64,100,80
10938.0,65,1.0,63,1,0,0,120,64,100,80
10939.0,65,1.0,63,1,0,0,120,64,100,80
10940.0,60,1.0,63,1,0,0,120,64,100,80
10941.0,60,1.0,63,1,0,0,120,64,100,80
10942.0,60,1.0,63,1,0,0,120,64,100,80
10943.0,65,1.0,63,1,0,0,120,64,100,80
10944.0,69,1.0,63,1,0,0,120,64,100,80
10945.0,69,1.0,63,1,0,0,120,64,100,80
10946.0,69,1.0,63,1,0,0,120,64,100,80
10947.0,60,1.0,63,1,0,0,120,64,100,80
10948.0,65,1.0,63,1,0,0,120,64,100,80
10949.0,64,1.0,63,1,0,0,120,64,100,80
10950.0,60,1.0,63,1,0,0,120,64,100,80
10951.0,64,1.0,63,1,0,0,120,64,100,80
10952.0,67,1.0,63,1,0,0,120,64,100,80
10953.0,62,1.0,63,1,0,0,120,64,100,80
10954.0,67,1.0,63,1,0,0,120,64,100,80
10955.0,60,1.0,63,1,0,0,120,64,100,80
10956.0,62,1.0,63,1,0,0,120,64,100,80
10957.0,69,1.0,63,1,0,0,120,64,100,80
10958.0,64,1.0,63,1,0,0,120,64,100,80
10959.0,69,1.0,63,1,0,0,120,64,100,80
10960.0,64,1.0,63,1,0,0,120,64,100,80
10961.0,65,1.0,63,1,0,0,120,64,100,80
10962.0,64,1.0,63,1,0,0,120,64,100,80
10963.0,62,1.0,63,1,0,0,120,64,100,80
10964.0,62,1.0,63,1,0,0,120,64,100,80
10965.0,60,1.0,63,1,0,0,120,64,100,80
10966.0,69,1.0,63,1,0,0,120,64,100,80
10967.0,62,1.0,63,1,0,0,120,64,100,80
10968.0,60,1.0,63,1,0,0,120,64,100,80
10969.0,71,1.0,63,1,0,0,120,64,100,80
10970.0,65,1.0,63,1,0,0,120,64,100,80
10971.0,64,1.0,63,1,0,0,120,64,100,80
10972.0,64,1.0,63,1,0,0,120,64,100,80
10973.0,62,1.0,63,1,0,0,120,64,100,80
10974.0,67,1.0,63,1,0,0,120,64,100,80
10975.0,62,1.0,63,1,0,0,120,64,100,80
10976.0,69,1.0,63,1,0,0,120,64,100,80
10977.0,62,1.0,63,1,0,0,120,64,100,80
10978.0,64,1.0,63,1,0,0,120,64,100,80
10979.0,67,1.0,63,1,0,0,120,64,100,80
10980.0,69,1.0,63,1,0,0,120,64,100,80
10981.0,62,1.0,63,1,0,0,120,64,100,80
10982.0,69,1.0,63,1,0,0,120,64,100,80
10983.0,60,1.0,63,1,0,0,120,64,100,80
10984.0,62,1.0,63,1,0,0,120,64,100,80
10985.0,65,1.0,63,1,0,0,120,64,100,80
10986.0,67,1.0,63,1,0,0,120,64,100,80
10987.0,60,1.0,63,1,0,0,120,64,100,80
10988.0,64,1.0,63,1,0,0,120,64,100,80
10989.0,64,1.0,63,1,0,0,120,64,100,80
10990.0,67,1.0,63,1,0,0,120,64,100,80
10991.0,69,1.0,63,1,0,0,120,64,100,80
10992.0,67,1.0,63,1,0,0,120,64,100,80
10993.0,67,1.0,63,1,0,0,120,64,100,80
10994.0,64,1.0,63,1,0,0,120,64,100,80
10995.0,60,1.0,63,1,0,0,120,64,100,80
10996.0,62,1.0,63,1,0,0,120,64,100,80
10997.0,62,1.0,63,1,0,0,120,64,100,80
10998.0,64,1.0,63,1,0,0,120,64,100,80
10999.0,67,1.0,63,1,0,0,120,64,100,80
11000.0,64,1.0,63,1,0,0,120,64,100,80
11001.0,65,1.0,63,1,0,0,120,64,100,80
11002.0,65,1.0,63,1,0,0,120,64,100,80
11003.0,0,1.0,63,1,0,0,120,64,100,80
11004.0,69,1.0,63,1,0,0,120,64,100,80
11005.0,67,1.0,63,1,0,0,120,64,100,80
11006.0,62,1.0,63,1,0,0,120,64,100,80
11007.0,62,1.0,63,1,0,0,120,64,100,80
11008.0,62,1.0,63,1,0,0,120,64,100,80
11009.0,60,1.0,63,1,0,0,120,64,100,80
11010.0,62,1.0,63,1,0,0,120,64,100,80
11011.0,60,1.0,63,1,0,0,120,64,100,80
11012.0,62,1.0,63,1,0,0,120,64,100,80
11013.0,64,1.0,63,1,0,0,120,64,100,80
11014.0,69,1.0,63,1,0,0,120,64,100,80
11015.0,67,1.0,63,1,0,0,120,64,100,80
11016.0,69,1.0,63,1,0,0,120,64,100,80
11017.0,60,1.0,63,1,0,0,120,64,100,80
11018.0,69,1.0,63,1,0,0,120,64,100,80
11019.0,65,1.0,63,1,0,0,120,64,100,80
11020.0,62,1.0,63,1,0,0,120,64,100,80
11021.0,60,1.0,63,1,0,0,120,64,100,80
11022.0,64,1.0,63,1,0,0,120,64,100,80
11023.0,64,1.0,63,1,0,0,120,64,100,80
11024.0,64,1.0,63,1,0,0,120,64,100,80
11025.0,69,1.0,63,1,0,0,120,64,100,80
11026.0,64,1.0,63,1,0,0,120,64,100,80
11027.0,64,1.0,63,1,0,0,120,64,100,80
11028.0,67,1.0,63,1,0,0,120,64,100,80
11029.0,67,1.0,63,1,0,0,120,64,100,80
11030.0,64,1.0,63,1,0,0,120,64,100,80
11031.0,62,1.0,63,1,0,0,120,64,100,80
11032.0,0,1.0,63,1,0,0,120,64,100,80
11033.0,62,1.0,63,1,0,0,120,64,100,80
11034.0,62,1.0,63,1,0,0,120,64,100,80
11035.0,60,1.0,63,1,0,0,120,64,100,80
11036.0,0,1.0,63,1,0,0,120,64,100,80
11037.0,69,1.0,63,1,0,0,120,64,100,80
11038.0,60,1.0,63,1,0,0,120,64,100,80
11039.0,0,1.0,63,1,0,0,120,64,100,80
11040.0,69,1.0,63,1,0,0,120,64,100,80
11041.0,65,1.0,63,1,0,0,120,64,100,80
11042.0,62,1.0,63,1,0,0,120,64,100,80
11043.0,0,1.0,63,1,0,0,120,64,100,80
11044.0,69,1.0,63,1,0,0,120,64,100,80
11045.0,69,1.0,63,1,0,0,120,64,100,80
11046.0,0,1.0,63,1,0,0,120,64,100,80
11047.0,60,1.0,63,1,0,0,120,64,100,80
11048.0,0,1.0,63,1,0,0,120,64,100,80
11049.0,62,1.0,63,1,0,0,120,64,100,80
11050.0,67,1.0,63,1,0,0,120,64,100,80
11051.0,60,1.0,63,1,0,0,120,64,100,80
11052.0,62,1.0,63,1,0,0,120,64,100,80
11053.0,67,1.0,63,1,0,0,120,64,100,80
11054.0,60,1.0,63,1,0,0,120,64,100,80
11055.0,67,1.0,63,1,0,0,120,64,100,80
11056.0,64,1.0,63,1,0,0,120,64,100,80
11057.0,64,1.0,63,1,0,0,120,64,100,80
11058.0,67,1.0,63,1,0,0,120,64,100,80
11059.0,64,1.0,63,1,0,0,120,64,100,80
11060.0,62,1.0,63,1,0,0,120,64,100,80
11061.0,60,1.0,63,1,0,0,120,64,100,80
11062.0,60,1.0,63,1,0,0,120,64,100,80
11063.0,65,1.0,63,1,0,0,120,64,100,80
11064.0,62,1.0,63,1,0,0,120,64,100,80
11065.0,60,1.0,63,1,0,0,120,64,100,80
11066.0,64,1.0,63,1,0,0,120,64,100,80
11067.0,69,1.0,63,1,0,0,120,64,100,80
11068.0,64,1.0,63,1,0,0,120,64,100,80
11069.0,60,1.0,63,1,0,0,120,64,100,80
11070.0,69,1.0,63,1,0,0,120,64,100,80
11071.0,69,1.0,63,1,0,0,120,64,100,80
11072.0,67,1.0,63,1,0,0,120,64,100,80
11073.0,71,1.0,63,1,0,0,120,64,100,80
11074.0,62,1.0,63,1,0,0,120,64,100,80
11075.0,60,1.0,63,1,0,0,120,64,100,80
11076.0,62,1.0,63,1,0,0,120,64,100,80
11077.0,67,1.0,63,1,0,0,120,64,100,80
11078.0,64,1.0,63,1,0,0,120,64,100,80
11079.0,62,1.0,63,1,0,0,120,64,100,80
11080.0,62,1.0,63,1,0,0,120,64,100,80
11081.0,64,1.0,63,1,0,0,120,64,100,80
11082.0,60,1.0,63,1,0,0,120,64,100,80
11083.0,67,1.0,63,1,0,0,120,64,100,80
11084.0,62,1.0,63,1,0,0,120,64,100,80
11085.0,65,1.0,63,1,0,0,120,64,100,80
11086.0,67,1.0,63,1,0,0,120,64,100,80
11087.0,62,1.0,63,1,0,0,120,64,100,80
11088.0,60,1.0,63,1,0,0,120,64,100,80
11089.0,64,1.0,63,1,0,0,120,64,100,80
11090.0,60,1.0,63,1,0,0,120,64,100,80
11091.0,60,1.0,63,1,0,0,120,64,100,80
11092.0,60,1.0,63,1,0,0,120,64,100,80
11093.0,67,1.0,63,1,0,0,120,64,100,80
11094.0,0,1.0,63,1,0,0,120,64,100,80
11095.0,67,1.0,63,1,0,0,120,64,100,80
11096.0,64,1.0,63,1,0,0,120,64,100,80
11097.0,62,1.0,63,1,0,0,120,64,100,80
11098.0,64,1.0,63,1,0,0,120,64,100,80
11099.0,62,1.0,63,1,0,0,120,64,100,80
11100.0,64,1.0,63,1,0,0,120,64,100,80
11101.0,65,1.0,63,1,0,0,120,64,100,80
11102.0,60,1.0,63,1,0,0,120,64,100,80
11103.0,64,1.0,63,1,0,0,120,64,100,80
11104.0,0,1.0,63,1,0,0,120,64,100,80
11105.0,69,1.0,63,1,0,0,120,64,100,80
11106.0,62,1.0,63,1,0,0,120,64,100,80
11107.0,71,1.0,63,1,0,0,120,64,100,80
11108.0,62,1.0,63,1,0,0,120,64,100,80
11109.0,60,1.0,63,1,0,0,120,64,100,80
11110.0,62,1.0,63,1,0,0,120,64,100,80
11111.0,71,1.0,63,1,0,0,120,64,100,80
11112.0,69,1.0,63,1,0,0,120,64,100,80
11113.0,67,1.0,63,1,0,0,120,64,100,80
11114.0,62,1.0,63,1,0,0,120,64,100,80
11115.0,60,1.0,63,1,0,0,120,64,100,80
11116.0,69,1.0,63,1,0,0,120,64,100,80
11117.0,0,1.0,63,1,0,0,120,64,100,80
11118.0,65,1.0,63,1,0,0,120,64,100,80
11119.0,65,1.0,63,1,0,0,120,64,100,80
11120.0,64,1.0,63,1,0,0,120,64,100,80
11121.0,62,1.0,63,1,0,0,120,64,100,80
11122.0,69,1.0,63,1,0,0,120,64,100,80
11123.0,69,1.0,63,1,0,0,120,64,100,80
11124.0,65,1.0,63,1,0,0,120,64,100,80
11125.0,0,1.0,63,1,0,0,120,64,100,80
11126.0,67,1.0,63,1,0,0,120,64,100,80
11127.0,69,1.0,63,1,0,0,120,64,100,80
11128.0,64,1.0,63,1,0,0,120,64,100,80
11129.0,67,1.0,63,1,0,0,120,64,100,80
11130.0,60,1.0,63,1,0,0,120,64,100,80
11131.0,60,1.0,63,1,0,0,120,64,100,80
11132.0,60,1.0,63,1,0,0,120,64,100,80
11133.0,60,1.0,63,1,0,0,120,64,100,80
11134.0,62,1.0,63,1,0,0,120,64,100,80
11135.0,69,1.0,63,1,0,0,120,64,100,80
11136.0,69,1.0,63,1,0,0,120,64,100,80
11137.0,64,1.0,63,1,0,0,120,64,100,80
11138.0,65,1.0,63,1,0,0,120,64,100,80
11139.0,62,1.0,63,1,0,0,120,64,100,80
11140.0,64,1.0,63,1,0,0,120,64,100,80
11141.0,65,1.0,63,1,0,0,120,64,100,80
11142.0,60,1.0,63,1,0,0,120,64,100,80
11143.0,0,1.0,63,1,0,0,120,64,100,80
11144.0,71,1.0,63,1,0,0,120,64,100,80
11145.0,65,1.0,63,1,0,0,120,64,100,80
11146.0,62,1.0,63,1,0,0,120,64,100,80
11147.0,65,1.0,63,1,0,0,120,64,100,80
11148.0,62,1.0,63,1,0,0,120,64,100,80
11149.0,65,1.0,63,1,0,0,120,64,100,80
11150.0,62,1.0,63,1,0,0,120,64,100,80
11151.0,65,1.0,63,1,0,0,120,64,100,80
11152.0,67,1.0,63,1,0,0,120,64,100,80
11153.0,60,1.0,63,1,0,0,120,64,100,80
11154.0,65,1.0,63,1,0,0,120,64,100,80
11155.0,69,1.0,63,1,0,0,120,64,100,80
11156.0,69,1.0,63,1,0,0,120,64,100,80
11157.0,67,1.0,63,1,0,0,120,64,100,80
11158.0,62,1.0,63,1,0,0,120,64,100,80
11159.0,65,1.0,63,1,0,0,120,64,100,80
11160.0,65,1.0,63,1,0,0,120,64,100,80
11161.0,0,1.0,63,1,0,0,120,64,100,80
11162.0,62,1.0,63,1,0,0,120,64,100,80
11163.0,65,1.0,63,1,0,0,120,64,100,80
11164.0,60,1.0,63,1,0,0,120,64,100,80
11165.0,0,1.0,63,1,0,0,120,64,100,80
11166.0,62,1.0,63,1,0,0,120,64,100,80
11167.0,69,1.0,63,1,0,0,120,64,100,80
11168.0,62,1.0,63,1,0,0,120,64,100,80
11169.0,60,1.0,63,1,0,0,120,64,100,80
11170.0,60,1.0,63,1,0,0,120,64,100,80
11171.0,64,1.0,63,1,0,0,120,64,100,80
11172.0,62,1.0,63,1,0,0,120,64,100,80
11173.0,60,1.0,63,1,0,0,120,64,100,80
11174.0,69,1.0,63,1,0,0,120,64,100,80
11175.0,69,1.0,63,1,0,0,120,64,100,80
11176.0,60,1.0,63,1,0,0,120,64,100,80
11177.0,65,1.0,63,1,0,0,120,64,100,80
11178.0,62,1.0,63,1,0,0,120,64,100,80
11179.0,65,1.0,63,1,0,0,120,64,100,80
11180.0,60,1.0,63,1,0,0,120,64,100,80
11181.0,69,1.0,63,1,0,0,120,64,100,80
11182.0,60,1.0,63,1,0,0,120,64,100,80
11183.0,62,1.0,63,1,0,0,120,64,100,80
11184.0,60,1.0,63,1,0,0,120,64,100,80
11185.0,62,1.0,63,1,0,0,120,64,100,80
11186.0,62,1.0,63,1,0,0,120,64,100,80
11187.0,62,1.0,63,1,0,0,120,64,100,80
11188.0,60,1.0,63,1,0,0,120,64,100,80
11189.0,67,1.0,63,1,0,0,120,64,100,80
11190.0,64,1.0,63,1,0,0,120,64,100,80
11191.0,62,1.0,63,1,0,0,120,64,100,80
11192.0,64,1.0,63,1,0,0,120,64,100,80
11193.0,67,1.0,63,1,0,0,120,64,100,80
11194.0,60,1.0,63,1,0,0,120,64,100,80
11195.0,60,1.0,63,1,0,0,120,64,100,80
11196.0,62,1.0,63,1,0,0,120,64,100,80
11197.0,62,1.0,63,1,0,0,120,64,100,80
11198.0,62,1.0,63,1,0,0,120,64,100,80
11199.0,60,1.0,63,1,0,0,120,64,100,80
11200.0,64,1.0,63,1,0,0,120,64,100,80
11201.0,60,1.0,63,1,0,0,120,64,100,80
11202.0,64,1.0,63,1,0,0,120,64,100,80
11203.0,60,1.0,63,1,0,0,120,64,100,80
11204.0,67,1.0,63,1,0,0,120,64,100,80
11205.0,64,1.0,63,1,0,0,120,64,100,80
11206.0,60,1.0,63,1,0,0,120,64,100,80
11207.0,62,1.0,63,1,0,0,120,64,100,80
11208.0,62,1.0,63,1,0,0,120,64,100,80
11209.0,60,1.0,63,1,0,0,120,64,100,80
11210.0,65,1.0,63,1,0,0,120,64,100,80
11211.0,60,1.0,63,1,0,0,120,64,100,80
11212.0,65,1.0,63,1,0,0,120,64,100,80
11213.0,62,1.0,63,1,0,0,120,64,100,80
11214.0,60,1.0,63,1,0,0,120,64,100,80
11215.0,60,1.0,63,1,0,0,120,64,100,80
11216.0,69,1.0,63,1,0,0,120,64,100,80
11217.0,64,1.0,63,1,0,0,120,64,100,80
11218.0,60,1.0,63,1,0,0,120,64,100,80
11219.0,62,1.0,63,1,0,0,120,64,100,80
11220.0,64,1.0,63,1,0,0,120,64,100,80
11221.0,69,1.0,63,1,0,0,120,64,100,80
11222.0,60,1.0,63,1,0,0,120,64,100,80
11223.0,62,1.0,63,1,0,0,120,64,100,80
11224.0,69,1.0,63,1,0,0,120,64,100,80
11225.0,69,1.0,63,1,0,0,120,64,100,80
11226.0,60,1.0,63,1,0,0,120,64,100,80
11227.0,62,1.0,63,1,0,0,120,64,100,80
11228.0,67,1.0,63,1,0,0,120,64,100,80
11229.0,60,1.0,63,1,0,0,120,64,100,80
11230.0,64,1.0,63,1,0,0,120,64,100,80
11231.0,60,1.0,63,1,0,0,120,64,100,80
11232.0,71,1.0,63,1,0,0,120,64,100,80
11233.0,67,1.0,63,1,0,0,120,64,100,80
11234.0,65,1.0,63,1,0,0,120,64,100,80
11235.0,67,1.0,63,1,0,0,120,64,100,80
11236.0,60,1.0,63,1,0,0,120,64,100,80
11237.0,60,1.0,63,1,0,0,120,64,100,80
11238.0,0,1.0,63,1,0,0,120,64,100,80
11239.0,62,1.0,63,1,0,0,120,64,100,80
11240.0,65,1.0,63,1,0,0,120,64,100,80
11241.0,69,1.0,63,1,0,0,120,64,100,80
11242.0,65,1.0,63,1,0,0,120,64,100,80
11243.0,71,1.0,63,1,0,0,120,64,100,80
11244.0,65,1.0,63,1,0,0,120,64,100,80
11245.0,64,1.0,63,1,0,0,120,64,100,80
11246.0,60,1.0,63,1,0,0,120,64,100,80
11247.0,64,1.0,63,1,0,0,120,64,100,80
11248.0,60,1.0,63,1,0,0,120,64,100,80
11249.0,0,1.0,63,1,0,0,120,64,100,80
11250.0,64,1.0,63,1,0,0,120,64,100,80
11251.0,60,1.0,63,1,0,0,120,64,100,80
11252.0,62,1.0,63,1,0,0,120,64,100,80
11253.0,62,1.0,63,1,0,0,120,64,100,80
11254.0,62,1.0,63,1,0,0,120,64,100,80
11255.0,64,1.0,63,1,0,0,120,64,100,80
11256.0,69,1.0,63,1,0,0,120,64,100,80
11257.0,65,1.0,63,1,0,0,120,64,100,80
11258.0,69,1.0,63,1,0,0,120,64,100,80
11259.0,64,1.0,63,1,0,0,120,64,100,80
11260.0,71,1.0,63,1,0,0,120,64,100,80
11261.0,60,1.0,63,1,0,0,120,64,100,80
11262.0,62,1.0,63,1,0,0,120,64,100,80
11263.0,67,1.0,63,1,0,0,120,64,100,80
11264.0,64,1.0,63,1,0,0,120,64,100,80
11265.0,69,1.0,63,1,0,0,120,64,100,80
11266.0,60,1.0,63,1,0,0,120,64,100,80
11267.0,69,1.0,63,1,0,0,120,64,100,80
11268.0,0,1.0,63,1,0,0,120,64,100,80
11269.0,60,1.0,63,1,0,0,120,64,100,80
11270.0,60,1.0,63,1,0,0,120,64,100,80
11271.0,62,1.0,63,1,0,0,120,64,100,80
11272.0,60,1.0,63,1,0,0,120,64,100,80
11273.0,67,1.0,63,1,0,0,120,64,100,80
11274.0,60,1.0,63,1,0,0,120,64,100,80
11275.0,60,1.0,63,1,0,0,120,64,100,80
11276.0,69,1.0,63,1,0,0,120,64,100,80
11277.0,71,1.0,63,1,0,0,120,64,100,80
11278.0,60,1.0,63,1,0,0,120,64,100,80
11279.0,64,1.0,63,1,0,0,120,64,100,80
11280.0,60,1.0,63,1,0,0,120,64,100,80
11281.0,69,1.0,63,1,0,0,120,64,100,80
11282.0,64,1.0,63,1,0,0,120,64,100,80
11283.0,69,1.0,63,1,0,0,120,64,100,80
11284.0,69,1.0,63,1,0,0,120,64,100,80
11285.0,60,1.0,63,1,0,0,120,64,100,80
11286.0,71,1.0,63,1,0,0,120,64,100,80
11287.0,62,1.0,63,1,0,0,120,64,100,80
11288.0,62,1.0,63,1,0,0,120,64,100,80
11289.0,60,1.0,63,1,0,0,120,64,100,80
11290.0,60,1.0,63,1,0,0,120,64,100,80
11291.0,64,1.0,63,1,0,0,120,64,100,80
11292.0,60,1.0,63,1,0,0,120,64,100,80
11293.0,71,1.0,63,1,0,0,120,64,100,80
11294.0,62,1.0,63,1,0,0,120,64,100,80
11295.0,60,1.0,63,1,0,0,120,64,100,80
11296.0,67,1.0,63,1,0,0,120,64,100,80
11297.0,65,1.0,63,1,0,0,120,64,100,80
11298.0,67,1.0,63,1,0,0,120,64,100,80
11299.0,65,1.0,63,1,0,0,120,64,100,80
11300.0,60,1.0,63,1,0,0,120,64,100,80
11301.0,60,1.0,63,1,0,0,120,64,100,80
11302.0,62,1.0,63,1,0,0,120,64,100,80
11303.0,64,1.0,63,1,0,0,120,64,100,80
11304.0,60,1.0,63,1,0,0,120,64,100,80
11305.0,64,1.0,63,1,0,0,120,64,100,80
11306.0,69,1.0,63,1,0,0,120,64,100,80
11307.0,64,1.0,63,1,0,0,120,64,100,80
11308.0,65,1.0,63,1,0,0,120,64,100,80
11309.0,60,1.0,63,1,0,0,120,64,100,80
11310.0,71,1.0,63,1,0,0,120,64,100,80
11311.0,65,1.0,63,1,0,0,120,64,100,80
11312.0,64,1.0,63,1,0,0,120,64,100,80
11313.0,60,1.0,63,1,0,0,120,64,100,80
11314.0,64,1.0,63,1,0,0,120,64,100,80
11315.0,69,1.0,63,1,0,0,120,64,100,80
11316.0,69,1.0,63,1,0,0,120,64,100,80
11317.0,69,1.0,63,1,0,0,120,64,100,80
11318.0,60,1.0,63,1,0,0,120,64,100,80
11319.0,64,1.0,63,1,0,0,120,64,100,80
11320.0,62,1.0,63,1,0,0,120,64,100,80
11321.0,67,1.0,63,1,0,0,120,64,100,80
11322.0,60,1.0,63,1,0,0,120,64,100,80
11323.0,65,1.0,63,1,0,0,120,64,100,80
11324.0,69,1.0,63,1,0,0,120,64,100,80
11325.0,60,1.0,63,1,0,0,120,64,100,80
11326.0,69,1.0,63,1,0,0,120,64,100,80
11327.0,60,1.0,63,1,0,0,120,64,100,80
11328.0,0,1.0,63,1,0,0,120,64,100,80
11329.0,62,1.0,63,1,0,0,120,64,100,80
11330.0,60,1.0,63,1,0,0,120,64,100,80
11331.0,62,1.0,63,1,0,0,120,64,100,80
11332.0,60,1.0,63,1,0,0,120,64,100,80
11333.0,67,1.0,63,1,0,0,120,64,100,80
11334.0,60,1.0,63,1,0,0,120,64,100,80
11335.0,62,1.0,63,1,0,0,120,64,100,80
11336.0,0,1.0,63,1,0,0,120,64,100,80
11337.0,64,1.0,63,1,0,0,120,64,100,80
11338.0,60,1.0,63,1,0,0,120,64,100,80
11339.0,62,1.0,63,1,0,0,120,64,100,80
11340.0,60,1.0,63,1,0,0,120,64,100,80
11341.0,69,1.0,63,1,0,0,120,64,100,80
11342.0,71,1.0,63,1,0,0,120,64,100,80
11343.0,69,1.0,63,1,0,0,120,64,100,80
11344.0,60,1.0,63,1,0,0,120,64,100,80
11345.0,69,1.0,63,1,0,0,120,64,100,80
11346.0,67,1.0,63,1,0,0,120,64,100,80
11347.0,69,1.0,63,1,0,0,120,64,100,80
11348.0,71,1.0,63,1,0,0,120,64,100,80
11349.0,67,1.0,63,1,0,0,120,64,100,80
11350.0,62,1.0,63,1,0,0,120,64,100,80
11351.0,64,1.0,63,1,0,0,120,64,100,80
11352.0,60,1.0,63,1,0,0,120,64,100,80
11353.0,67,1.0,63,1,0,0,120,64,100,80
11354.0,71,1.0,63,1,0,0,120,64,100,80
11355.0,64,1.0,63,1,0,0,120,64,100,80
11356.0,65,1.0,63,1,0,0,120,64,100,80
11357.0,64,1.0,63,1,0,0,120,64,100,80
11358.0,62,1.0,63,1,0,0,120,64,100,80
11359.0,0,1.0,63,1,0,0,120,64,100,80
11360.0,64,1.0,63,1,0,0,120,64,100,80
11361.0,62,1.0,63,1,0,0,120,64,100,80
11362.0,64,1.0,63,1,0,0,120,64,100,80
11363.0,60,1.0,63,1,0,0,120,64,100,80
11364.0,69,1.0,63,1,0,0,120,64,100,80
11365.0,67,1.0,63,1,0,0,120,64,100,80
11366.0,69,1.0,63,1,0,0,120,64,100,80
11367.0,64,1.0,63,1,0,0,120,64,100,80
11368.0,64,1.0,63,1,0,0,120,64,100,80
11369.0,65,1.0,63,1,0,0,120,64,100,80
11370.0,62,1.0,63,1,0,0,120,64,100,80
11371.0,71,1.0,63,1,0,0,120,64,100,80
11372.0,69,1.0,63,1,0,0,120,64,100,80
11373.0,60,1.0,63,1,0,0,120,64,100,80
11374.0,67,1.0,63,1,0,0,120,64,100,80
11375.0,65,1.0,63,1,0,0,120,64,100,80
11376.0,67,1.0,63,1,0,0,120,64,100,80
11377.0,65,1.0,63,1,0,0,120,64,100,80
11378.0,60,1.0,63,1,0,0,120,64,100,80
11379.0,69,1.0,63,1,0,0,120,64,100,80
11380.0,62,1.0,63,1,0,0,120,64,100,80
11381.0,60,1.0,63,1,0,0,120,64,100,80
11382.0,69,1.0,63,1,0,0,120,64,100,80
11383.0,0,1.0,63,1,0,0,120,64,100,80
11384.0,62,1.0,63,1,0,0,120,64,100,80
11385.0,64,1.0,63,1,0,0,120,64,100,80
11386.0,65,1.0,63,1,0,0,120,64,100,80
11387.0,62,1.0,63,1,0,0,120,64,100,80
11388.0,62,1.0,63,1,0,0,120,64,100,80
11389.0,64,1.0,63,1,0,0,120,64,100,80
11390.0,60,1.0,63,1,0,0,120,64,100,80
11391.0,62,1.0,63,1,0,0,120,64,100,80
11392.0,62,1.0,63,1,0,0,120,64,100,80
11393.0,64,1.0,63,1,0,0,120,64,100,80
11394.0,65,1.0,63,1,0,0,120,64,100,80
11395.0,71,1.0,63,1,0,0,120,64,100,80
11396.0,64,1.0,63,1,0,0,120,64,100,80
11397.0,62,1.0,63,1,0,0,120,64,100,80
11398.0,60,1.0,63,1,0,0,120,64,100,80
11399.0,62,1.0,63,1,0,0,120,64,100,80
11400.0,64,1.0,63,1,0,0,120,64,100,80
11401.0,65,1.0,63,1,0,0,120,64,100,80
11402.0,60,1.0,63,1,0,0,120,64,100,80
11403.0,67,1.0,63,1,0,0,120,64,100,80
11404.0,65,1.0,63,1,0,0,120,64,100,80
11405.0,67,1.0,63,1,0,0,120,64,100,80
11406.0,62,1.0,63,1,0,0,120,64,100,80
11407.0,67,1.0,63,1,0,0,120,64,100,80
11408.0,71,1.0,63,1,0,0,120,64,100,80
11409.0,62,1.0,63,1,0,0,120,64,100,80
11410.0,62,1.0,63,1,0,0,120,64,100,80
11411.0,62,1.0,63,1,0,0,120,64,100,80
11412.0,60,1.0,63,1,0,0,120,64,100,80
11413.0,60,1.0,63,1,0,0,120,64,100,80
11414.0,69,1.0,63,1,0,0,120,64,100,80
11415.0,64,1.0,63,1,0,0,120,64,100,80
11416.0,69,1.0,63,1,0,0,120,64,100,80
11417.0,60,1.0,63,1,0,0,120,64,100,80
11418.0,64,1.0,63,1,0,0,120,64,100,80
11419.0,64,1.0,63,1,0,0,120,64,100,80
11420.0,64,1.0,63,1,0,0,120,64,100,80
11421.0,60,1.0,63,1,0,0,120,64,100,80
11422.0,60,1.0,63,1,0,0,120,64,100,80
11423.0,67,1.0,63,1,0,0,120,64,100,80
11424.0,65,1.0,63,1,0,0,120,64,100,80
11425.0,65,1.0,63,1,0,0,120,64,100,80
11426.0,67,1.0,63,1,0,0,120,64,100,80
11427.0,64,1.0,63,1,0,0,120,64,100,80
11428.0,62,1.0,63,1,0,0,120,64,100,80
11429.0,67,1.0,63,1,0,0,120,64,100,80
11430.0,69,1.0,63,1,0,0,120,64,100,80
11431.0,67,1.0,63,1,0,0,120,64,100,80
11432.0,67,1.0,63,1,0,0,120,64,100,80
11433.0,67,1.0,63,1,0,0,120,64,100,80
11434.0,60,1.0,63,1,0,0,120,64,100,80
11435.0,65,1.0,63,1,0,0,120,64,100,80
11436.0,62,1.0,63,1,0,0,120,64,100,80
11437.0,71,1.0,63,1,0,0,120,64,100,80
11438.0,67,1.0,63,1,0,0,120,64,100,80
11439.0,65,1.0,63,1,0,0,120,64,100,80
11440.0,60,1.0,63,1,0,0,120,64,100,80
11441.0,62,1.0,63,1,0,0,120,64,100,80
11442.0,67,1.0,63,1,0,0,120,64,100,80
11443.0,62,1.0,63,1,0,0,120,64,100,80
11444.0,62,1.0,63,1,0,0,120,64,100,80
11445.0,67,1.0,63,1,0,0,120,64,100,80
11446.0,62,1.0,63,1,0,0,120,64,100,80
11447.0,67,1.0,63,1,0,0,120,64,100,80
11448.0,69,1.0,63,1,0,0,120,64,100,80
11449.0,62,1.0,63,1,0,0,120,64,100,80
11450.0,71,1.0,63,1,0,0,120,64,100,80
11451.0,62,1.0,63,1,0,0,120,64,100,80
11452.0,65,1.0,63,1,0,0,120,64,100,80
11453.0,64,1.0,63,1,0,0,120,64,100,80
11454.0,64,1.0,63,1,0,0,120,64,100,80
11455.0,67,1.0,63,1,0,0,120,64,100,80
11456.0,69,1.0,63,1,0,0,120,64,100,80
11457.0,60,1.0,63,1,0,0,120,64,100,80
11458.0,69,1.0,63,1,0,0,120,64,100,80
11459.0,65,1.0,63,1,0,0,120,64,100,80
11460.0,69,1.0,63,1,0,0,120,64,100,80
11461.0,64,1.0,63,1,0,0,120,64,100,80
11462.0,64,1.0,63,1,0,0,120,64,100,80
11463.0,62,1.0,63,1,0,0,120,64,100,80
11464.0,60,1.0,63,1,0,0,120,64,100,80
11465.0,60,1.0,63,1,0,0,120,64,100,80
11466.0,67,1.0,63,1,0,0,120,64,100,80
11467.0,64,1.0,63,1,0,0,120,64,100,80
11468.0,65,1.0,63,1,0,0,120,64,100,80
11469.0,62,1.0,63,1,0,0,120,64,100,80
11470.0,64,1.0,63,1,0,0,120,64,100,80
11471.0,69,1.0,63,1,0,0,120,64,100,80
11472.0,60,1.0,63,1,0,0,120,64,100,80
11473.0,62,1.0,63,1,0,0,120,64,100,80
11474.0,69,1.0,63,1,0,0,120,64,100,80
11475.0,65,1.0,63,1,0,0,120,64,100,80
11476.0,60,1.0,63,1,0,0,120,64,100,80
11477.0,65,1.0,63,1,0,0,120,64,100,80
11478.0,65,1.0,63,1,0,0,120,64,100,80
11479.0,69,1.0,63,1,0,0,120,64,100,80
11480.0,64,1.0,63,1,0,0,120,64,100,80
11481.0,64,1.0,63,1,0,0,120,64,100,80
11482.0,71,1.0,63,1,0,0,120,64,100,80
11483.0,71,1.0,63,1,0,0,120,64,100,80
11484.0,60,1.0,63,1,0,0,120,64,100,80
11485.0,65,1.0,63,1,0,0,120,64,100,80
11486.0,64,1.0,63,1,0,0,120,64,100,80
11487.0,64,1.0,63,1,0,0,120,64,100,80
11488.0,60,1.0,63,1,0,0,120,64,100,80
11489.0,60,1.0,63,1,0,0,120,64,100,80
11490.0,60,1.0,63,1,0,0,120,64,100,80
11491.0,62,1.0,63,1,0,0,120,64,100,80
11492.0,67,1.0,63,1,0,0,120,64,100,80
11493.0,67,1.0,63,1,0,0,120,64,100,80
11494.0,60,1.0,63,1,0,0,120,64,100,80
11495.0,69,1.0,63,1,0,0,120,64,100,80
11496.0,65,1.0,63,1,0,0,120,64,100,80
11497.0,62,1.0,63,1,0,0,120,64,100,80
11498.0,60,1.0,63,1,0,0,120,64,100,80
11499.0,64,1.0,63,1,0,0,120,64,100,80
11500.0,64,1.0,63,1,0,0,120,64,100,80
11501.0,65,1.0,63,1,0,0,120,64,100,80
11502.0,65,1.0,63,1,0,0,120,64,100,80
11503.0,69,1.0,63,1,0,0,120,64,100,80
11504.0,71,1.0,63,1,0,0,120,64,100,80
11505.0,67,1.0,63,1,0,0,120,64,100,80
11506.0,64,1.0,63,1,0,0,120,64,100,80
11507.0,65,1.0,63,1,0,0,120,64,100,80
11508.0,65,1.0,63,1,0,0,120,64,100,80
11509.0,69,1.0,63,1,0,0,120,64,100,80
11510.0,64,1.0,63,1,0,0,120,64,100,80
11511.0,62,1.0,63,1,0,0,120,64,100,80
11512.0,67,1.0,63,1,0,0,120,64,100,80
11513.0,65,1.0,63,1,0,0,120,64,100,80
11514.0,64,1.0,63,1,0,0,120,64,100,80
11515.0,65,1.0,63,1,0,0,120,64,100,80
11516.0,71,1.0,63,1,0,0,120,64,100,80
11517.0,60,1.0,63,1,0,0,120,64,100,80
11518.0,62,1.0,63,1,0,0,120,64,100,80
11519.0,64,1.0,63,1,0,0,120,64,100,80
11520.0,64,1.0,63,1,0,0,120,64,100,80
11521.0,65,1.0,63,1,0,0,120,64,100,80
11522.0,60,1.0,63,1,0,0,120,64,100,80
11523.0,60,1.0,63,1,0,0,120,64,100,80
11524.0,64,1.0,63,1,0,0,120,64,100,80
11525.0,62,1.0,63,1,0,0,120,64,100,80
11526.0,62,1.0,63,1,0,0,120,64,100,80
11527.0,60,1.0,63,1,0,0,120,64,100,80
11528.0,62,1.0,63,1,0,0,120,64,100,80
11529.0,60,1.0,63,1,0,0,120,64,100,80
11530.0,62,1.0,63,1,0,0,120,64,100,80
11531.0,64,1.0,63,1,0,0,120,64,100,80
11532.0,64,1.0,63,1,0,0,120,64,100,80
11533.0,69,1.0,63,1,0,0,120,64,100,80
11534.0,64,1.0,63,1,0,0,120,64,100,80
11535.0,69,1.0,63,1,0,0,120,64,100,80
11536.0,60,1.0,63,1,0,0,120,64,100,80
11537.0,65,1.0,63,1,0,0,120,64,100,80
11538.0,60,1.0,63,1,0,0,120,64,100,80
11539.0,60,1.0,63,1,0,0,120,64,100,80
11540.0,67,1.0,63,1,0,0,120,64,100,80
11541.0,65,1.0,63,1,0,0,120,64,100,80
11542.0,69,1.0,63,1,0,0,120,64,100,80
11543.0,60,1.0,63,1,0,0,120,64,100,80
11544.0,67,1.0,63,1,0,0,120,64,100,80
11545.0,67,1.0,63,1,0,0,120,64,100,80
11546.0,60,1.0,63,1,0,0,120,64,100,80
11547.0,60,1.0,63,1,0,0,120,64,100,80
11548.0,67,1.0,63,1,0,0,120,64,100,80
11549.0,64,1.0,63,1,0,0,120,64,100,80
11550.0,62,1.0,63,1,0,0,120,64,100,80
11551.0,65,1.0,63,1,0,0,120,64,100,80
11552.0,64,1.0,63,1,0,0,120,64,100,80
11553.0,64,1.0,63,1,0,0,120,64,100,80
11554.0,62,1.0,63,1,0,0,120,64,100,80
11555.0,65,1.0,63,1,0,0,120,64,100,80
11556.0,69,1.0,63,1,0,0,120,64,100,80
11557.0,71,1.0,63,1,0,0,120,64,100,80
11558.0,69,1.0,63,1,0,0,120,64,100,80
11559.0,60,1.0,63,1,0,0,120,64,100,80
11560.0,60,1.0,63,1,0,0,120,64,100,80
11561.0,69,1.0,63,1,0,0,120,64,100,80
11562.0,64,1.0,63,1,0,0,120,64,100,80
11563.0,60,1.0,63,1,0,0,120,64,100,80
11564.0,69,1.0,63,1,0,0,120,64,100,80
11565.0,65,1.0,63,1,0,0,120,64,100,80
11566.0,64,1.0,63,1,0,0,120,64,100,80
11567.0,62,1.0,63,1,0,0,120,64,100,80
11568.0,60,1.0,63,1,0,0,120,64,100,80
11569.0,62,1.0,63,1,0,0,120,64,100,80
11570.0,64,1.0,63,1,0,0,120,64,100,80
11571.0,65,1.0,63,1,0,0,120,64,100,80
11572.0,62,1.0,63,1,0,0,120,64,100,80
11573.0,60,1.0,63,1,0,0,120,64,100,80
11574.0,69,1.0,63,1,0,0,120,64,100,80
11575.0,67,1.0,63,1,0,0,120,64,100,80
11576.0,65,1.0,63,1,0,0,120,64,100,80
11577.0,65,1.0,63,1,0,0,120,64,100,80
11578.0,65,1.0,63,1,0,0,120,64,100,80
11579.0,65,1.0,63,1,0,0,120,64,100,80
11580.0,60,1.0,63,1,0,0,120,64,100,80
11581.0,62,1.0,63,1,0,0,120,64,100,80
11582.0,69,1.0,63,1,0,0,120,64,100,80
11583.0,60,1.0,63,1,0,0,120,64,100,80
11584.0,64,1.0,63,1,0,0,120,64,100,80
11585.0,60,1.0,63,1,0,0,120,64,100,80
11586.0,64,1.0,63,1,0,0,120,64,100,80
11587.0,69,1.0,63,1,0,0,120,64,100,80
11588.0,67,1.0,63,1,0,0,120,64,100,80
11589.0,65,1.0,63,1,0,0,120,64,100,80
11590.0,65,1.0,63,1,0,0,120,64,100,80
11591.0,60,1.0,63,1,0,0,120,64,100,80
11592.0,65,1.0,63,1,0,0,120,64,100,80
11593.0,60,1.0,63,1,0,0,120,64,100,80
11594.0,67,1.0,63,1,0,0,120,64,100,80
11595.0,62,1.0,63,1,0,0,120,64,100,80
11596.0,67,1.0,63,1,0,0,120,64,100,80
11597.0,60,1.0,63,1,0,0,120,64,100,80
11598.0,69,1.0,63,1,0,0,120,64,100,80
11599.0,67,1.0,63,1,0,0,120,64,100,80
11600.0,62,1.0,63,1,0,0,120,64,100,80
11601.0,62,1.0,63,1,0,0,120,64,100,80
11602.0,69,1.0,63,1,0,0,120,64,100,80
11603.0,65,1.0,63,1,0,0,120,64,100,80
11604.0,69,1.0,63,1,0,0,120,64,100,80
11605.0,62,1.0,63,1,0,0,120,64,100,80
11606.0,71,1.0,63,1,0,0,120,64,100,80
11607.0,67,1.0,63,1,0,0,120,64,100,80
11608.0,62,1.0,63,1,0,0,120,64,100,80
11609.0,64,1.0,63,1,0,0,120,64,100,80
11610.0,65,1.0,63,1,0,0,120,64,100,80
11611.0,64,1.0,63,1,0,0,120,64,100,80
11612.0,67,1.0,63,1,0,0,120,64,100,80
11613.0,64,1.0,63,1,0,0,120,64,100,80
11614.0,62,1.0,63,1,0,0,120,64,100,80
11615.0,60,1.0,63,1,0,0,120,64,100,80
11616.0,60,1.0,63,1,0,0,120,64,100,80
11617.0,67,1.0,63,1,0,0,120,64,100,80
11618.0,69,1.0,63,1,0,0,120,64,100,80
11619.0,65,1.0,63,1,0,0,120,64,100,80
11620.0,62,1.0,63,1,0,0,120,64,100,80
11621.0,64,1.0,63,1,0,0,120,64,100,80
11622.0,65,1.0,63,1,0,0,120,64,100,80
11623.0,64,1.0,63,1,0,0,120,64,100,80
11624.0,64,1.0,63,1,0,0,120,64,100,80
11625.0,64,1.0,63,1,0,0,120,64,100,80
11626.0,67,1.0,63,1,0,0,120,64,100,80
11627.0,64,1.0,63,1,0,0,120,64,100,80
11628.0,60,1.0,63,1,0,0,120,64,100,80
11629.0,60,1.0,63,1,0,0,120,64,100,80
11630.0,64,1.0,63,1,0,0,120,64,100,80
11631.0,67,1.0,63,1,0,0,120,64,100,80
11632.0,69,1.0,63,1,0,0,120,64,100,80
11633.0,62,1.0,63,1,0,0,120,64,100,80
11634.0,67,1.0,63,1,0,0,120,64,100,80
11635.0,60,1.0,63,1,0,0,120,64,100,80
11636.0,64,1.0,63,1,0,0,120,64,100,80
11637.0,60,1.0,63,1,0,0,120,64,100,80
11638.0,60,1.0,63,1,0,0,120,64,100,80
11639.0,60,1.0,63,1,0,0,120,64,100,80
11640.0,62,1.0,63,1,0,0,120,64,100,80
11641.0,69,1.0,63,1,0,0,120,64,100,80
11642.0,60,1.0,63,1,0,0,120,64,100,80
11643.0,67,1.0,63,1,0,0,120,64,100,80
11644.0,65,1.0,63,1,0,0,120,64,100,80
11645.0,67,1.0,63,1,0,0,120,64,100,80
11646.0,62,1.0,63,1,0,0,120,64,100,80
11647.0,0,1.0,63,1,0,0,120,64,100,80
11648.0,65,1.0,63,1,0,0,120,64,100,80
11649.0,69,1.0,63,1,0,0,120,64,100,80
11650.0,71,1.0,63,1,0,0,120,64,100,80
11651.0,71,1.0,63,1,0,0,120,64,100,80
11652.0,64,1.0,63,1,0,0,120,64,100,80
11653.0,67,1.0,63,1,0,0,120,64,100,80
11654.0,62,1.0,63,1,0,0,120,64,100,80
11655.0,60,1.0,63,1,0,0,120,64,100,80
11656.0,62,1.0,63,1,0,0,120,64,100,80
11657.0,64,1.0,63,1,0,0,120,64,100,80
11658.0,64,1.0,63,1,0,0,120,64,100,80
11659.0,67,1.0,63,1,0,0,120,64,100,80
11660.0,65,1.0,63,1,0,0,120,64,100,80
11661.0,67,1.0,63,1,0,0,120,64,100,80
11662.0,62,1.0,63,1,0,0,120,64,100,80
11663.0,60,1.0,63,1,0,0,120,64,100,80
11664.0,64,1.0,63,1,0,0,120,64,100,80
11665.0,64,1.0,63,1,0,0,120,64,100,80
11666.0,64,1.0,63,1,0,0,120,64,100,80
11667.0,62,1.0,63,1,0,0,120,64,100,80
11668.0,69,1.0,63,1,0,0,120,64,100,80
11669.0,64,1.0,63,1,0,0,120,64,100,80
11670.0,64,1.0,63,1,0,0,120,64,100,80
11671.0,65,1.0,63,1,0,0,120,64,100,80
11672.0,60,1.0,63,1,0,0,120,64,100,80
11673.0,0,1.0,63,1,0,0,120,64,100,80
11674.0,60,1.0,63,1,0,0,120,64,100,80
11675.0,64,1.0,63,1,0,0,120,64,100,80
11676.0,62,1.0,63,1,0,0,120,64,100,80
11677.0,60,1.0,63,1,0,0,120,64,100,80
11678.0,69,1.0,63,1,0,0,120,64,100,80
11679.0,62,1.0,63,1,0,0,120,64,100,80
11680.0,67,1.0,63,1,0,0,120,64,100,80
11681.0,65,1.0,63,1,0,0,120,64,100,80
11682.0,69,1.0,63,1,0,0,120,64,100,80
11683.0,60,1.0,63,1,0,0,120,64,100,80
11684.0,62,1.0,63,1,0,0,120,64,100,80
11685.0,62,1.0,63,1,0,0,120,64,100,80
11686.0,65,1.0,63,1,0,0,120,64,100,80
11687.0,64,1.0,63,1,0,0,120,64,100,80
11688.0,0,1.0,63,1,0,0,120,64,100,80
11689.0,69,1.0,63,1,0,0,120,64,100,80
11690.0,65,1.0,63,1,0,0,120,64,100,80
11691.0,71,1.0,63,1,0,0,120,64,100,80
11692.0,71,1.0,63,1,0,0,120,64,100,80
11693.0,67,1.0,63,1,0,0,120,64,100,80
11694.0,64,1.0,63,1,0,0,120,64,100,80
11695.0,67,1.0,63,1,0,0,120,64,100,80
11696.0,62,1.0,63,1,0,0,120,64,100,80
11697.0,62,1.0,63,1,0,0,120,64,100,80
11698.0,69,1.0,63,1,0,0,120,64,100,80
11699.0,69,1.0,63,1,0,0,120,64,100,80
11700.0,69,1.0,63,1,0,0,120,64,100,80
11701.0,65,1.0,63,1,0,0,120,64,100,80
11702.0,69,1.0,63,1,0,0,120,64,100,80
11703.0,69,1.0,63,1,0,0,120,64,100,80
11704.0,67,1.0,63,1,0,0,120,64,100,80
11705.0,67,1.0,63,1,0,0,120,64,100,80
11706.0,69,1.0,63,1,0,0,120,64,100,80
11707.0,60,1.0,63,1,0,0,120,64,100,80
11708.0,64,1.0,63,1,0,0,120,64,100,80
11709.0,65,1.0,63,1,0,0,120,64,100,80
11710.0,64,1.0,63,1,0,0,120,64,100,80
11711.0,65,1.0,63,1,0,0,120,64,100,80
11712.0,60,1.0,63,1,0,0,120,64,100,80
11713.0,60,1.0,63,1,0,0,120,64,100,80
11714.0,0,1.0,63,1,0,0,120,64,100,80
11715.0,69,1.0,63,1,0,0,120,64,100,80
11716.0,60,1.0,63,1,0,0,120,64,100,80
11717.0,69,1.0,63,1,0,0,120,64,100,80
11718.0,62,1.0,63,1,0,0,120,64,100,80
11719.0,60,1.0,63,1,0,0,120,64,100,80
11720.0,62,1.0,63,1,0,0,120,64,100,80
11721.0,60,1.0,63,1,0,0,120,64,100,80
11722.0,60,1.0,63,1,0,0,120,64,100,80
11723.0,67,1.0,63,1,0,0,120,64,100,80
11724.0,62,1.0,63,1,0,0,120,64,100,80
11725.0,60,1.0,63,1,0,0,120,64,100,80
11726.0,67,1.0,63,1,0,0,120,64,100,80
11727.0,0,1.0,63,1,0,0,120,64,100,80
11728.0,60,1.0,63,1,0,0,120,64,100,80
11729.0,65,1.0,63,1,0,0,120,64,100,80
11730.0,64,1.0,63,1,0,0,120,64,100,80
11731.0,62,1.0,63,1,0,0,120,64,100,80
11732.0,64,1.0,63,1,0,0,120,64,100,80
11733.0,64,1.0,63,1,0,0,120,64,100,80
11734.0,60,1.0,63,1,0,0,120,64,100,80
11735.0,0,1.0,63,1,0,0,120,64,100,80
11736.0,67,1.0,63,1,0,0,120,64,100,80
11737.0,64,1.0,63,1,0,0,120,64,100,80
11738.0,64,1.0,63,1,0,0,120,64,100,80
11739.0,67,1.0,63,1,0,0,120,64,100,80
11740.0,60,1.0,63,1,0,0,120,64,100,80
11741.0,60,1.0,63,1,0,0,120,64,100,80
11742.0,71,1.0,63,1,0,0,120,64,100,80
11743.0,60,1.0,63,1,0,0,120,64,100,80
11744.0,60,1.0,63,1,0,0,120,64,100,80
11745.0,69,1.0,63,1,0,0,120,64,100,80
11746.0,69,1.0,63,1,0,0,120,64,100,80
11747.0,62,1.0,63,1,0,0,120,64,100,80
11748.0,60,1.0,63,1,0,0,120,64,100,80
11749.0,62,1.0,63,1,0,0,120,64,100,80
11750.0,64,1.0,63,1,0,0,120,64,100,80
11751.0,60,1.0,63,1,0,0,120,64,100,80
11752.0,60,1.0,63,1,0,0,120,64,100,80
11753.0,0,1.0,63,1,0,0,120,64,100,80
11754.0,60,1.0,63,1,0,0,120,64,100,80
11755.0,65,1.0,63,1,0,0,120,64,100,80
11756.0,62,1.0,63,1,0,0,120,64,100,80
11757.0,65,1.0,63,1,0,0,120,64,100,80
11758.0,62,1.0,63,1,0,0,120,64,100,80
11759.0,65,1.0,63,1,0,0,120,64,100,80
11760.0,65,1.0,63,1,0,0,120,64,100,80
11761.0,62,1.0,63,1,0,0,120,64,100,80
11762.0,67,1.0,63,1,0,0,120,64,100,80
11763.0,60,1.0,63,1,0,0,120,64,100,80
11764.0,65,1.0,63,1,0,0,120,64,100,80
11765.0,69,1.0,63,1,0,0,120,64,100,80
11766.0,69,1.0,63,1,0,0,120,64,100,80
11767.0,67,1.0,63,1,0,0,120,64,100,80
11768.0,62,1.0,63,1,0,0,120,64,100,80
11769.0,65,1.0,63,1,0,0,120,64,100,80
11770.0,65,1.0,63,1,0,0,120,64,100,80
11771.0,0,1.0,63,1,0,0,120,64,100,80
11772.0,62,1.0,63,1,0,0,120,64,100,80
11773.0,65,1.0,63,1,0,0,120,64,100,80
11774.0,60,1.0,63,1,0,0,120,64,100,80
11775.0,0,1.0,63,1,0,0,120,64,100,80
11776.0,60,1.0,63,1,0,0,120,64,100,80
11777.0,69,1.0,63,1,0,0,120,64,100,80
11778.0,62,1.0,63,1,0,0,120,64,100,80
11779.0,60,1.0,63,1,0,0,120,64,100,80
11780.0,60,1.0,63,1,0,0,120,64,100,80
11781.0,64,1.0,63,1,0,0,120,64,100,80
11782.0,62,1.0,63,1,0,0,120,64,100,80
11783.0,60,1.0,63,1,0,0,120,64,100,80
11784.0,69,1.0,63,1,0,0,120,64,100,80
11785.0,69,1.0,63,1,0,0,120,64,100,80
11786.0,65,1.0,63,1,0,0,120,64,100,80
11787.0,65,1.0,63,1,0,0,120,64,100,80
11788.0,62,1.0,63,1,0,0,120,64,100,80
11789.0,65,1.0,63,1,0,0,120,64,100,80
11790.0,60,1.0,63,1,0,0,120,64,100,80
11791.0,69,1.0,63,1,0,0,120,64,100,80
11792.0,60,1.0,63,1,0,0,120,64,100,80
11793.0,62,1.0,63,1,0,0,120,64,100,80
11794.0,60,1.0,63,1,0,0,120,64,100,80
11795.0,62,1.0,63,1,0,0,120,64,100,80
11796.0,62,1.0,63,1,0,0,120,64,100,80
11797.0,62,1.0,63,1,0,0,120,64,100,80
11798.0,60,1.0,63,1,0,0,120,64,100,80
11799.0,67,1.0,63,1,0,0,120,64,100,80
11800.0,64,1.0,63,1,0,0,120,64,100,80
11801.0,62,1.0,63,1,0,0,120,64,100,80
11802.0,64,1.0,63,1,0,0,120,64,100,80
11803.0,67,1.0,63,1,0,0,120,64,100,80
11804.0,60,1.0,63,1,0,0,120,64,100,80
11805.0,60,1.0,63,1,0,0,120,64,100,80
11806.0,62,1.0,63,1,0,0,120,64,100,80
11807.0,62,1.0,63,1,0,0,120,64,100,80
11808.0,62,1.0,63,1,0,0,120,64,100,80
11809.0,60,1.0,63,1,0,0,120,64,100,80
11810.0,64,1.0,63,1,0,0,120,64,100,80
11811.0,60,1.0,63,1,0,0,120,64,100,80
11812.0,64,1.0,63,1,0,0,120,64,100,80
11813.0,60,1.0,63,1,0,0,120,64,100,80
11814.0,67,1.0,63,1,0,0,120,64,100,80
11815.0,64,1.0,63,1,0,0,120,64,100,80
11816.0,60,1.0,63,1,0,0,120,64,100,80
11817.0,62,1.0,63,1,0,0,120,64,100,80
11818.0,62,1.0,63,1,0,0,120,64,100,80
11819.0,60,1.0,63,1,0,0,120,64,100,80
11820.0,65,1.0,63,1,0,0,120,64,100,80
11821.0,60,1.0,63,1,0,0,120,64,100,80
11822.0,65,1.0,63,1,0,0,120,64,100,80
11823.0,62,1.0,63,1,0,0,120,64,100,80
11824.0,60,1.0,63,1,0,0,120,64,100,80
11825.0,60,1.0,63,1,0,0,120,64,100,80
11826.0,69,1.0,63,1,0,0,120,64,100,80
11827.0,64,1.0,63,1,0,0,120,64,100,80
11828.0,65,1.0,63,1,0,0,120,64,100,80
11829.0,62,1.0,63,1,0,0,120,64,100,80
11830.0,62,1.0,63,1,0,0,120,64,100,80
11831.0,69,1.0,63,1,0,0,120,64,100,80
11832.0,71,1.0,63,1,0,0,120,64,100,80
11833.0,62,1.0,63,1,0,0,120,64,100,80
11834.0,69,1.0,63,1,0,0,120,64,100,80
11835.0,69,1.0,63,1,0,0,120,64,100,80
11836.0,60,1.0,63,1,0,0,120,64,100,80
11837.0,62,1.0,63,1,0,0,120,64,100,80
11838.0,62,1.0,63,1,0,0,120,64,100,80
11839.0,60,1.0,63,1,0,0,120,64,100,80
11840.0,64,1.0,63,1,0,0,120,64,100,80
11841.0,60,1.0,63,1,0,0,120,64,100,80
11842.0,71,1.0,63,1,0,0,120,64,100,80
11843.0,64,1.0,63,1,0,0,120,64,100,80
11844.0,65,1.0,63,1,0,0,120,64,100,80
11845.0,64,1.0,63,1,0,0,120,64,100,80
11846.0,60,1.0,63,1,0,0,120,64,100,80
11847.0,69,1.0,63,1,0,0,120,64,100,80
11848.0,0,1.0,63,1,0,0,120,64,100,80
11849.0,62,1.0,63,1,0,0,120,64,100,80
11850.0,60,1.0,63,1,0,0,120,64,100,80
11851.0,69,1.0,63,1,0,0,120,64,100,80
11852.0,69,1.0,63,1,0,0,120,64,100,80
11853.0,62,1.0,63,1,0,0,120,64,100,80
11854.0,67,1.0,63,1,0,0,120,64,100,80
11855.0,64,1.0,63,1,0,0,120,64,100,80
11856.0,60,1.0,63,1,0,0,120,64,100,80
11857.0,64,1.0,63,1,0,0,120,64,100,80
11858.0,65,1.0,63,1,0,0,120,64,100,80
11859.0,60,1.0,63,1,0,0,120,64,100,80
11860.0,64,1.0,63,1,0,0,120,64,100,80
11861.0,0,1.0,63,1,0,0,120,64,100,80
11862.0,62,1.0,63,1,0,0,120,64,100,80
11863.0,60,1.0,63,1,0,0,120,64,100,80
11864.0,62,1.0,63,1,0,0,120,64,100,80
11865.0,65,1.0,63,1,0,0,120,64,100,80
11866.0,62,1.0,63,1,0,0,120,64,100,80
11867.0,60,1.0,63,1,0,0,120,64,100,80
11868.0,64,1.0,63,1,0,0,120,64,100,80
11869.0,64,1.0,63,1,0,0,120,64,100,80
11870.0,69,1.0,63,1,0,0,120,64,100,80
11871.0,60,1.0,63,1,0,0,120,64,100,80
11872.0,60,1.0,63,1,0,0,120,64,100,80
11873.0,64,1.0,63,1,0,0,120,64,100,80
11874.0,67,1.0,63,1,0,0,120,64,100,80
11875.0,60,1.0,63,1,0,0,120,64,100,80
11876.0,64,1.0,63,1,0,0,120,64,100,80
11877.0,60,1.0,63,1,0,0,120,64,100,80
11878.0,0,1.0,63,1,0,0,120,64,100,80
11879.0,60,1.0,63,1,0,0,120,64,100,80
11880.0,60,1.0,63,1,0,0,120,64,100,80
11881.0,62,1.0,63,1,0,0,120,64,100,80
11882.0,67,1.0,63,1,0,0,120,64,100,80
11883.0,67,1.0,63,1,0,0,120,64,100,80
11884.0,60,1.0,63,1,0,0,120,64,100,80
11885.0,60,1.0,63,1,0,0,120,64,100,80
11886.0,71,1.0,63,1,0,0,120,64,100,80
11887.0,64,1.0,63,1,0,0,120,64,100,80
11888.0,60,1.0,63,1,0,0,120,64,100,80
11889.0,60,1.0,63,1,0,0,120,64,100,80
11890.0,62,1.0,63,1,0,0,120,64,100,80
11891.0,60,1.0,63,1,0,0,120,64,100,80
11892.0,65,1.0,63,1,0,0,120,64,100,80
11893.0,60,1.0,63,1,0,0,120,64,100,80
11894.0,69,1.0,63,1,0,0,120,64,100,80
11895.0,69,1.0,63,1,0,0,120,64,100,80
11896.0,64,1.0,63,1,0,0,120,64,100,80
11897.0,71,1.0,63,1,0,0,120,64,100,80
11898.0,67,1.0,63,1,0,0,120,64,100,80
11899.0,62,1.0,63,1,0,0,120,64,100,80
11900.0,69,1.0,63,1,0,0,120,64,100,80
11901.0,67,1.0,63,1,0,0,120,64,100,80
11902.0,65,1.0,63,1,0,0,120,64,100,80
11903.0,60,1.0,63,1,0,0,120,64,100,80
11904.0,0,1.0,63,1,0,0,120,64,100,80
11905.0,60,1.0,63,1,0,0,120,64,100,80
11906.0,60,1.0,63,1,0,0,120,64,100,80
11907.0,62,1.0,63,1,0,0,120,64,100,80
11908.0,62,1.0,63,1,0,0,120,64,100,80
11909.0,64,1.0,63,1,0,0,120,64,100,80
11910.0,64,1.0,63,1,0,0,120,64,100,80
11911.0,69,1.0,63,1,0,0,120,64,100,80
11912.0,64,1.0,63,1,0,0,120,64,100,80
11913.0,0,1.0,63,1,0,0,120,64,100,80
11914.0,60,1.0,63,1,0,0,120,64,100,80
11915.0,62,1.0,63,1,0,0,120,64,100,80
11916.0,60,1.0,63,1,0,0,120,64,100,80
11917.0,69,1.0,63,1,0,0,120,64,100,80
11918.0,64,1.0,63,1,0,0,120,64,100,80
11919.0,60,1.0,63,1,0,0,120,64,100,80
11920.0,60,1.0,63,1,0,0,120,64,100,80
11921.0,60,1.0,63,1,0,0,120,64,100,80
11922.0,69,1.0,63,1,0,0,120,64,100,80
11923.0,64,1.0,63,1,0,0,120,64,100,80
11924.0,60,1.0,63,1,0,0,120,64,100,80
11925.0,64,1.0,63,1,0,0,120,64,100,80
11926.0,62,1.0,63,1,0,0,120,64,100,80
11927.0,67,1.0,63,1,0,0,120,64,100,80
11928.0,60,1.0,63,1,0,0,120,64,100,80
11929.0,64,1.0,63,1,0,0,120,64,100,80
11930.0,69,1.0,63,1,0,0,120,64,100,80
11931.0,60,1.0,63,1,0,0,120,64,100,80
11932.0,60,1.0,63,1,0,0,120,64,100,80
11933.0,65,1.0,63,1,0,0,120,64,100,80
11934.0,69,1.0,63,1,0,0,120,64,100,80
11935.0,60,1.0,63,1,0,0,120,64,100,80
11936.0,69,1.0,63,1,0,0,120,64,100,80
11937.0,69,1.0,63,1,0,0,120,64,100,80
11938.0,69,1.0,63,1,0,0,120,64,100,80
11939.0,60,1.0,63,1,0,0,120,64,100,80
11940.0,62,1.0,63,1,0,0,120,64,100,80
11941.0,62,1.0,63,1,0,0,120,64,100,80
11942.0,65,1.0,63,1,0,0,120,64,100,80
11943.0,60,1.0,63,1,0,0,120,64,100,80
11944.0,69,1.0,63,1,0,0,120,64,100,80
11945.0,0,1.0,63,1,0,0,120,64,100,80
11946.0,71,1.0,63,1,0,0,120,64,100,80
11947.0,60,1.0,63,1,0,0,120,64,100,80
11948.0,64,1.0,63,1,0,0,120,64,100,80
11949.0,60,1.0,63,1,0,0,120,64,100,80
11950.0,60,1.0,63,1,0,0,120,64,100,80
11951.0,60,1.0,63,1,0,0,120,64,100,80
11952.0,60,1.0,63,1,0,0,120,64,100,80
11953.0,60,1.0,63,1,0,0,120,64,100,80
11954.0,71,1.0,63,1,0,0,120,64,100,80
11955.0,60,1.0,63,1,0,0,120,64,100,80
11956.0,62,1.0,63,1,0,0,120,64,100,80
11957.0,62,1.0,63,1,0,0,120,64,100,80
11958.0,65,1.0,63,1,0,0,120,64,100,80
11959.0,62,1.0,63,1,0,0,120,64,100,80
11960.0,69,1.0,63,1,0,0,120,64,100,80
11961.0,64,1.0,63,1,0,0,120,64,100,80
11962.0,62,1.0,63,1,0,0,120,64,100,80
11963.0,71,1.0,63,1,0,0,120,64,100,80
11964.0,62,1.0,63,1,0,0,120,64,100,80
11965.0,62,1.0,63,1,0,0,120,64,100,80
11966.0,60,1.0,63,1,0,0,120,64,100,80
11967.0,67,1.0,63,1,0,0,120,64,100,80
11968.0,64,1.0,63,1,0,0,120,64,100,80
11969.0,0,1.0,63,1,0,0,120,64,100,80
11970.0,62,1.0,63,1,0,0,120,64,100,80
11971.0,62,1.0,63,1,0,0,120,64,100,80
11972.0,69,1.0,63,1,0,0,120,64,100,80
11973.0,64,1.0,63,1,0,0,120,64,100,80
11974.0,64,1.0,63,1,0,0,120,64,100,80
11975.0,60,1.0,63,1,0,0,120,64,100,80
11976.0,62,1.0,63,1,0,0,120,64,100,80
11977.0,71,1.0,63,1,0,0,120,64,100,80
11978.0,60,1.0,63,1,0,0,120,64,100,80
11979.0,64,1.0,63,1,0,0,120,64,100,80
11980.0,64,1.0,63,1,0,0,120,64,100,80
11981.0,0,1.0,63,1,0,0,120,64,100,80
11982.0,60,1.0,63,1,0,0,120,64,100,80
11983.0,60,1.0,63,1,0,0,120,64,100,80
11984.0,62,1.0,63,1,0,0,120,64,100,80
11985.0,60,1.0,63,1,0,0,120,64,100,80
11986.0,60,1.0,63,1,0,0,120,64,100,80
11987.0,64,1.0,63,1,0,0,120,64,100,80
11988.0,62,1.0,63,1,0,0,120,64,100,80
11989.0,64,1.0,63,1,0,0,120,64,100,80
11990.0,60,1.0,63,1,0,0,120,64,100,80
11991.0,67,1.0,63,1,0,0,120,64,100,80
11992.0,0,1.0,63,1,0,0,120,64,100,80
11993.0,60,1.0,63,1,0,0,120,64,100,80
11994.0,60,1.0,63,1,0,0,120,64,100,80
11995.0,60,1.0,63,1,0,0,120,64,100,80
11996.0,71,1.0,63,1,0,0,120,64,100,80
11997.0,60,1.0,63,1,0,0,120,64,100,80
11998.0,64,1.0,63,1,0,0,120,64,100,80
11999.0,60,1.0,63,1,0,0,120,64,100,80
12000.0,62,1.0,63,1,0,0,120,64,100,80
12001.0,69,1.0,63,1,0,0,120,64,100,80
12002.0,62,1.0,63,1,0,0,120,64,100,80
12003.0,69,1.0,63,1,0,0,120,64,100,80
12004.0,64,1.0,63,1,0,0,120,64,100,80
12005.0,60,1.0,63,1,0,0,120,64,100,80
12006.0,60,1.0,63,1,0,0,120,64,100,80
12007.0,69,1.0,63,1,0,0,120,64,100,80
12008.0,67,1.0,63,1,0,0,120,64,100,80
12009.0,67,1.0,63,1,0,0,120,64,100,80
12010.0,60,1.0,63,1,0,0,120,64,100,80
12011.0,60,1.0,63,1,0,0,120,64,100,80
12012.0,62,1.0,63,1,0,0,120,64,100,80
12013.0,0,1.0,63,1,0,0,120,64,100,80
12014.0,60,1.0,63,1,0,0,120,64,100,80
12015.0,0,1.0,63,1,0,0,120,64,100,80
12016.0,60,1.0,63,1,0,0,120,64,100,80
12017.0,60,1.0,63,1,0,0,120,64,100,80
12018.0,64,1.0,63,1,0,0,120,64,100,80
12019.0,62,1.0,63,1,0,0,120,64,100,80
12020.0,69,1.0,63,1,0,0,120,64,100,80
12021.0,71,1.0,63,1,0,0,120,64,100,80
12022.0,64,1.0,63,1,0,0,120,64,100,80
12023.0,60,1.0,63,1,0,0,120,64,100,80
12024.0,67,1.0,63,1,0,0,120,64,100,80
12025.0,60,1.0,63,1,0,0,120,64,100,80
12026.0,64,1.0,63,1,0,0,120,64,100,80
12027.0,60,1.0,63,1,0,0,120,64,100,80
12028.0,0,1.0,63,1,0,0,120,64,100,80
12029.0,62,1.0,63,1,0,0,120,64,100,80
12030.0,60,1.0,63,1,0,0,120,64,100,80
12031.0,60,1.0,63,1,0,0,120,64,100,80
12032.0,60,1.0,63,1,0,0,120,64,100,80
12033.0,60,1.0,63,1,0,0,120,64,100,80
12034.0,62,1.0,63,1,0,0,120,64,100,80
12035.0,62,1.0,63,1,0,0,120,64,100,80
12036.0,60,1.0,63,1,0,0,120,64,100,80
12037.0,71,1.0,63,1,0,0,120,64,100,80
12038.0,60,1.0,63,1,0,0,120,64,100,80
12039.0,62,1.0,63,1,0,0,120,64,100,80
12040.0,64,1.0,63,1,0,0,120,64,100,80
12041.0,62,1.0,63,1,0,0,120,64,100,80
12042.0,0,1.0,63,1,0,0,120,64,100,80
12043.0,62,1.0,63,1,0,0,120,64,100,80
12044.0,69,1.0,63,1,0,0,120,64,100,80
12045.0,69,1.0,63,1,0,0,120,64,100,80
12046.0,60,1.0,63,1,0,0,120,64,100,80
12047.0,69,1.0,63,1,0,0,120,64,100,80
12048.0,65,1.0,63,1,0,0,120,64,100,80
12049.0,64,1.0,63,1,0,0,120,64,100,80
12050.0,60,1.0,63,1,0,0,120,64,100,80
12051.0,60,1.0,63,1,0,0,120,64,100,80
12052.0,65,1.0,63,1,0,0,120,64,100,80
12053.0,71,1.0,63,1,0,0,120,64,100,80
12054.0,62,1.0,63,1,0,0,120,64,100,80
12055.0,69,1.0,63,1,0,0,120,64,100,80
12056.0,67,1.0,63,1,0,0,120,64,100,80
12057.0,69,1.0,63,1,0,0,120,64,100,80
12058.0,64,1.0,63,1,0,0,120,64,100,80
12059.0,62,1.0,63,1,0,0,120,64,100,80
12060.0,64,1.0,63,1,0,0,120,64,100,80
12061.0,67,1.0,63,1,0,0,120,64,100,80
12062.0,60,1.0,63,1,0,0,120,64,100,80
12063.0,64,1.0,63,1,0,0,120,64,100,80
12064.0,62,1.0,63,1,0,0,120,64,100,80
12065.0,71,1.0,63,1,0,0,120,64,100,80
12066.0,60,1.0,63,1,0,0,120,64,100,80
12067.0,60,1.0,63,1,0,0,120,64,100,80
12068.0,65,1.0,63,1,0,0,120,64,100,80
12069.0,64,1.0,63,1,0,0,120,64,100,80
12070.0,65,1.0,63,1,0,0,120,64,100,80
12071.0,69,1.0,63,1,0,0,120,64,100,80
12072.0,62,1.0,63,1,0,0,120,64,100,80
12073.0,69,1.0,63,1,0,0,120,64,100,80
12074.0,71,1.0,63,1,0,0,120,64,100,80
12075.0,64,1.0,63,1,0,0,120,64,100,80
12076.0,64,1.0,63,1,0,0,120,64,100,80
12077.0,69,1.0,63,1,0,0,120,64,100,80
12078.0,62,1.0,63,1,0,0,120,64,100,80
12079.0,64,1.0,63,1,0,0,120,64,100,80
12080.0,60,1.0,63,1,0,0,120,64,100,80
12081.0,71,1.0,63,1,0,0,120,64,100,80
12082.0,71,1.0,63,1,0,0,120,64,100,80
12083.0,62,1.0,63,1,0,0,120,64,100,80
12084.0,69,1.0,63,1,0,0,120,64,100,80
12085.0,67,1.0,63,1,0,0,120,64,100,80
12086.0,69,1.0,63,1,0,0,120,64,100,80
12087.0,60,1.0,63,1,0,0,120,64,100,80
12088.0,62,1.0,63,1,0,0,120,64,100,80
12089.0,65,1.0,63,1,0,0,120,64,100,80
12090.0,60,1.0,63,1,0,0,120,64,100,80
12091.0,60,1.0,63,1,0,0,120,64,100,80
12092.0,64,1.0,63,1,0,0,120,64,100,80
12093.0,67,1.0,63,1,0,0,120,64,100,80
12094.0,60,1.0,63,1,0,0,120,64,100,80
12095.0,64,1.0,63,1,0,0,120,64,100,80
12096.0,69,1.0,63,1,0,0,120,64,100,80
12097.0,65,1.0,63,1,0,0,120,64,100,80
12098.0,64,1.0,63,1,0,0,120,64,100,80
12099.0,71,1.0,63,1,0,0,120,64,100,80
12100.0,71,1.0,63,1,0,0,120,64,100,80
12101.0,71,1.0,63,1,0,0,120,64,100,80
12102.0,60,1.0,63,1,0,0,120,64,100,80
12103.0,67,1.0,63,1,0,0,120,64,100,80
12104.0,64,1.0,63,1,0,0,120,64,100,80
12105.0,64,1.0,63,1,0,0,120,64,100,80
12106.0,60,1.0,63,1,0,0,120,64,100,80
12107.0,65,1.0,63,1,0,0,120,64,100,80
12108.0,69,1.0,63,1,0,0,120,64,100,80
12109.0,65,1.0,63,1,0,0,120,64,100,80
12110.0,69,1.0,63,1,0,0,120,64,100,80
12111.0,65,1.0,63,1,0,0,120,64,100,80
12112.0,65,1.0,63,1,0,0,120,64,100,80
12113.0,67,1.0,63,1,0,0,120,64,100,80
12114.0,71,1.0,63,1,0,0,120,64,100,80
12115.0,62,1.0,63,1,0,0,120,64,100,80
12116.0,71,1.0,63,1,0,0,120,64,100,80
12117.0,69,1.0,63,1,0,0,120,64,100,80
12118.0,64,1.0,63,1,0,0,120,64,100,80
12119.0,64,1.0,63,1,0,0,120,64,100,80
12120.0,64,1.0,63,1,0,0,120,64,100,80
12121.0,60,1.0,63,1,0,0,120,64,100,80
12122.0,60,1.0,63,1,0,0,120,64,100,80
12123.0,69,1.0,63,1,0,0,120,64,100,80
12124.0,67,1.0,63,1,0,0,120,64,100,80
12125.0,71,1.0,63,1,0,0,120,64,100,80
12126.0,60,1.0,63,1,0,0,120,64,100,80
12127.0,60,1.0,63,1,0,0,120,64,100,80
12128.0,60,1.0,63,1,0,0,120,64,100,80
12129.0,71,1.0,63,1,0,0,120,64,100,80
12130.0,64,1.0,63,1,0,0,120,64,100,80
12131.0,60,1.0,63,1,0,0,120,64,100,80
12132.0,67,1.0,63,1,0,0,120,64,100,80
12133.0,62,1.0,63,1,0,0,120,64,100,80
12134.0,64,1.0,63,1,0,0,120,64,100,80
12135.0,64,1.0,63,1,0,0,120,64,100,80
12136.0,64,1.0,63,1,0,0,120,64,100,80
12137.0,67,1.0,63,1,0,0,120,64,100,80
12138.0,64,1.0,63,1,0,0,120,64,100,80
12139.0,64,1.0,63,1,0,0,120,64,100,80
12140.0,65,1.0,63,1,0,0,120,64,100,80
12141.0,60,1.0,63,1,0,0,120,64,100,80
12142.0,69,1.0,63,1,0,0,120,64,100,80
12143.0,64,1.0,63,1,0,0,120,64,100,80
12144.0,60,1.0,63,1,0,0,120,64,100,80
12145.0,67,1.0,63,1,0,0,120,64,100,80
12146.0,62,1.0,63,1,0,0,120,64,100,80
12147.0,60,1.0,63,1,0,0,120,64,100,80
12148.0,62,1.0,63,1,0,0,120,64,100,80
12149.0,64,1.0,63,1,0,0,120,64,100,80
12150.0,67,1.0,63,1,0,0,120,64,100,80
12151.0,0,1.0,63,1,0,0,120,64,100,80
12152.0,60,1.0,63,1,0,0,120,64,100,80
12153.0,69,1.0,63,1,0,0,120,64,100,80
12154.0,65,1.0,63,1,0,0,120,64,100,80
12155.0,69,1.0,63,1,0,0,120,64,100,80
12156.0,62,1.0,63,1,0,0,120,64,100,80
12157.0,62,1.0,63,1,0,0,120,64,100,80
12158.0,62,1.0,63,1,0,0,120,64,100,80
12159.0,65,1.0,63,1,0,0,120,64,100,80
12160.0,62,1.0,63,1,0,0,120,64,100,80
12161.0,60,1.0,63,1,0,0,120,64,100,80
12162.0,60,1.0,63,1,0,0,120,64,100,80
12163.0,60,1.0,63,1,0,0,120,64,100,80
12164.0,62,1.0,63,1,0,0,120,64,100,80
12165.0,62,1.0,63,1,0,0,120,64,100,80
12166.0,60,1.0,63,1,0,0,120,64,100,80
12167.0,65,1.0,63,1,0,0,120,64,100,80
12168.0,62,1.0,63,1,0,0,120,64,100,80
12169.0,65,1.0,63,1,0,0,120,64,100,80
12170.0,69,1.0,63,1,0,0,120,64,100,80
12171.0,65,1.0,63,1,0,0,120,64,100,80
12172.0,62,1.0,63,1,0,0,120,64,100,80
12173.0,65,1.0,63,1,0,0,120,64,100,80
12174.0,67,1.0,63,1,0,0,120,64,100,80
12175.0,62,1.0,63,1,0,0,120,64,100,80
12176.0,65,1.0,63,1,0,0,120,64,100,80
12177.0,69,1.0,63,1,0,0,120,64,100,80
12178.0,71,1.0,63,1,0,0,120,64,100,80
12179.0,60,1.0,63,1,0,0,120,64,100,80
12180.0,64,1.0,63,1,0,0,120,64,100,80
12181.0,69,1.0,63,1,0,0,120,64,100,80
12182.0,60,1.0,63,1,0,0,120,64,100,80
12183.0,60,1.0,63,1,0,0,120,64,100,80
12184.0,69,1.0,63,1,0,0,120,64,100,80
12185.0,65,1.0,63,1,0,0,120,64,100,80
12186.0,0,1.0,63,1,0,0,120,64,100,80
12187.0,62,1.0,63,1,0,0,120,64,100,80
12188.0,69,1.0,63,1,0,0,120,64,100,80
12189.0,69,1.0,63,1,0,0,120,64,100,80
12190.0,0,1.0,63,1,0,0,120,64,100,80
12191.0,69,1.0,63,1,0,0,120,64,100,80
12192.0,62,1.0,63,1,0,0,120,64,100,80
12193.0,60,1.0,63,1,0,0,120,64,100,80
12194.0,67,1.0,63,1,0,0,120,64,100,80
12195.0,64,1.0,63,1,0,0,120,64,100,80
12196.0,60,1.0,63,1,0,0,120,64,100,80
12197.0,60,1.0,63,1,0,0,120,64,100,80
12198.0,69,1.0,63,1,0,0,120,64,100,80
12199.0,69,1.0,63,1,0,0,120,64,100,80
12200.0,64,1.0,63,1,0,0,120,64,100,80
12201.0,64,1.0,63,1,0,0,120,64,100,80
12202.0,60,1.0,63,1,0,0,120,64,100,80
12203.0,67,1.0,63,1,0,0,120,64,100,80
12204.0,71,1.0,63,1,0,0,120,64,100,80
12205.0,60,1.0,63,1,0,0,120,64,100,80
12206.0,67,1.0,63,1,0,0,120,64,100,80
12207.0,71,1.0,63,1,0,0,120,64,100,80
12208.0,64,1.0,63,1,0,0,120,64,100,80
12209.0,64,1.0,63,1,0,0,120,64,100,80
12210.0,64,1.0,63,1,0,0,120,64,100,80
12211.0,69,1.0,63,1,0,0,120,64,100,80
12212.0,60,1.0,63,1,0,0,120,64,100,80
12213.0,60,1.0,63,1,0,0,120,64,100,80
12214.0,65,1.0,63,1,0,0,120,64,100,80
12215.0,64,1.0,63,1,0,0,120,64,100,80
12216.0,60,1.0,63,1,0,0,120,64,100,80
12217.0,60,1.0,63,1,0,0,120,64,100,80
12218.0,64,1.0,63,1,0,0,120,64,100,80
12219.0,60,1.0,63,1,0,0,120,64,100,80
12220.0,60,1.0,63,1,0,0,120,64,100,80
12221.0,60,1.0,63,1,0,0,120,64,100,80
12222.0,60,1.0,63,1,0,0,120,64,100,80
12223.0,62,1.0,63,1,0,0,120,64,100,80
12224.0,64,1.0,63,1,0,0,120,64,100,80
12225.0,67,1.0,63,1,0,0,120,64,100,80
12226.0,69,1.0,63,1,0,0,120,64,100,80
12227.0,64,1.0,63,1,0,0,120,64,100,80
12228.0,64,1.0,63,1,0,0,120,64,100,80
12229.0,64,1.0,63,1,0,0,120,64,100,80
12230.0,60,1.0,63,1,0,0,120,64,100,80
12231.0,69,1.0,63,1,0,0,120,64,100,80
12232.0,60,1.0,63,1,0,0,120,64,100,80
12233.0,62,1.0,63,1,0,0,120,64,100,80
12234.0,60,1.0,63,1,0,0,120,64,100,80
12235.0,69,1.0,63,1,0,0,120,64,100,80
12236.0,69,1.0,63,1,0,0,120,64,100,80
12237.0,62,1.0,63,1,0,0,120,64,100,80
12238.0,60,1.0,63,1,0,0,120,64,100,80
12239.0,62,1.0,63,1,0,0,120,64,100,80
12240.0,60,1.0,63,1,0,0,120,64,100,80
12241.0,62,1.0,63,1,0,0,120,64,100,80
12242.0,60,1.0,63,1,0,0,120,64,100,80
12243.0,62,1.0,63,1,0,0,120,64,100,80
12244.0,0,1.0,63,1,0,0,120,64,100,80
12245.0,60,1.0,63,1,0,0,120,64,100,80
12246.0,60,1.0,63,1,0,0,120,64,100,80
12247.0,60,1.0,63,1,0,0,120,64,100,80
12248.0,69,1.0,63,1,0,0,120,64,100,80
12249.0,69,1.0,63,1,0,0,120,64,100,80
12250.0,65,1.0,63,1,0,0,120,64,100,80
12251.0,65,1.0,63,1,0,0,120,64,100,80
12252.0,62,1.0,63,1,0,0,120,64,100,80
12253.0,71,1.0,63,1,0,0,120,64,100,80
12254.0,64,1.0,63,1,0,0,120,64,100,80
12255.0,71,1.0,63,1,0,0,120,64,100,80
12256.0,62,1.0,63,1,0,0,120,64,100,80
12257.0,60,1.0,63,1,0,0,120,64,100,80
12258.0,60,1.0,63,1,0,0,120,64,100,80
12259.0,69,1.0,63,1,0,0,120,64,100,80
12260.0,60,1.0,63,1,0,0,120,64,100,80
12261.0,0,1.0,63,1,0,0,120,64,100,80
12262.0,60,1.0,63,1,0,0,120,64,100,80
12263.0,0,1.0,63,1,0,0,120,64,100,80
12264.0,69,1.0,63,1,0,0,120,64,100,80
12265.0,60,1.0,63,1,0,0,120,64,100,80
12266.0,69,1.0,63,1,0,0,120,64,100,80
12267.0,65,1.0,63,1,0,0,120,64,100,80
12268.0,69,1.0,63,1,0,0,120,64,100,80
12269.0,69,1.0,63,1,0,0,120,64,100,80
12270.0,62,1.0,63,1,0,0,120,64,100,80
12271.0,62,1.0,63,1,0,0,120,64,100,80
12272.0,62,1.0,63,1,0,0,120,64,100,80
12273.0,65,1.0,63,1,0,0,120,64,100,80
12274.0,65,1.0,63,1,0,0,120,64,100,80
12275.0,67,1.0,63,1,0,0,120,64,100,80
12276.0,60,1.0,63,1,0,0,120,64,100,80
12277.0,62,1.0,63,1,0,0,120,64,100,80
12278.0,69,1.0,63,1,0,0,120,64,100,80
12279.0,69,1.0,63,1,0,0,120,64,100,80
12280.0,62,1.0,63,1,0,0,120,64,100,80
12281.0,60,1.0,63,1,0,0,120,64,100,80
12282.0,64,1.0,63,1,0,0,120,64,100,80
12283.0,71,1.0,63,1,0,0,120,64,100,80
12284.0,65,1.0,63,1,0,0,120,64,100,80
12285.0,69,1.0,63,1,0,0,120,64,100,80
12286.0,64,1.0,63,1,0,0,120,64,100,80
12287.0,69,1.0,63,1,0,0,120,64,100,80
12288.0,62,1.0,63,1,0,0,120,64,100,80
12289.0,69,1.0,63,1,0,0,120,64,100,80
12290.0,0,1.0,63,1,0,0,120,64,100,80
12291.0,67,1.0,63,1,0,0,120,64,100,80
12292.0,60,1.0,63,1,0,0,120,64,100,80
12293.0,71,1.0,63,1,0,0,120,64,100,80
12294.0,62,1.0,63,1,0,0,120,64,100,80
12295.0,62,1.0,63,1,0,0,120,64,100,80
12296.0,64,1.0,63,1,0,0,120,64,100,80
12297.0,62,1.0,63,1,0,0,120,64,100,80
12298.0,62,1.0,63,1,0,0,120,64,100,80
12299.0,62,1.0,63,1,0,0,120,64,100,80
12300.0,62,1.0,63,1,0,0,120,64,100,80
12301.0,62,1.0,63,1,0,0,120,64,100,80
12302.0,62,1.0,63,1,0,0,120,64,100,80
12303.0,67,1.0,63,1,0,0,120,64,100,80
12304.0,71,1.0,63,1,0,0,120,64,100,80
12305.0,0,1.0,63,1,0,0,120,64,100,80
12306.0,60,1.0,63,1,0,0,120,64,100,80
12307.0,60,1.0,63,1,0,0,120,64,100,80
12308.0,60,1.0,63,1,0,0,120,64,100,80
12309.0,62,1.0,63,1,0,0,120,64,100,80
12310.0,60,1.0,63,1,0,0,120,64,100,80
12311.0,60,1.0,63,1,0,0,120,64,100,80
12312.0,69,1.0,63,1,0,0,120,64,100,80
12313.0,71,1.0,63,1,0,0,120,64,100,80
12314.0,64,1.0,63,1,0,0,120,64,100,80
12315.0,67,1.0,63,1,0,0,120,64,100,80
12316.0,67,1.0,63,1,0,0,120,64,100,80
12317.0,69,1.0,63,1,0,0,120,64,100,80
12318.0,0,1.0,63,1,0,0,120,64,100,80
12319.0,60,1.0,63,1,0,0,120,64,100,80
12320.0,60,1.0,63,1,0,0,120,64,100,80
12321.0,62,1.0,63,1,0,0,120,64,100,80
12322.0,65,1.0,63,1,0,0,120,64,100,80
12323.0,60,1.0,63,1,0,0,120,64,100,80
12324.0,67,1.0,63,1,0,0,120,64,100,80
12325.0,62,1.0,63,1,0,0,120,64,100,80
12326.0,71,1.0,63,1,0,0,120,64,100,80
12327.0,71,1.0,63,1,0,0,120,64,100,80
12328.0,60,1.0,63,1,0,0,120,64,100,80
12329.0,71,1.0,63,1,0,0,120,64,100,80
12330.0,60,1.0,63,1,0,0,120,64,100,80
12331.0,69,1.0,63,1,0,0,120,64,100,80
12332.0,60,1.0,63,1,0,0,120,64,100,80
12333.0,67,1.0,63,1,0,0,120,64,100,80
12334.0,62,1.0,63,1,0,0,120,64,100,80
12335.0,71,1.0,63,1,0,0,120,64,100,80
12336.0,60,1.0,63,1,0,0,120,64,100,80
12337.0,64,1.0,63,1,0,0,120,64,100,80
12338.0,60,1.0,63,1,0,0,120,64,100,80
12339.0,60,1.0,63,1,0,0,120,64,100,80
12340.0,69,1.0,63,1,0,0,120,64,100,80
12341.0,60,1.0,63,1,0,0,120,64,100,80
12342.0,60,1.0,63,1,0,0,120,64,100,80
12343.0,62,1.0,63,1,0,0,120,64,100,80
12344.0,69,1.0,63,1,0,0,120,64,100,80
12345.0,62,1.0,63,1,0,0,120,64,100,80
12346.0,60,1.0,63,1,0,0,120,64,100,80
12347.0,60,1.0,63,1,0,0,120,64,100,80
12348.0,64,1.0,63,1,0,0,120,64,100,80
12349.0,67,1.0,63,1,0,0,120,64,100,80
12350.0,60,1.0,63,1,0,0,120,64,100,80
12351.0,60,1.0,63,1,0,0,120,64,100,80
12352.0,60,1.0,63,1,0,0,120,64,100,80
12353.0,69,1.0,63,1,0,0,120,64,100,80
12354.0,60,1.0,63,1,0,0,120,64,100,80
12355.0,60,1.0,63,1,0,0,120,64,100,80
12356.0,69,1.0,63,1,0,0,120,64,100,80
12357.0,60,1.0,63,1,0,0,120,64,100,80
12358.0,60,1.0,63,1,0,0,120,64,100,80
12359.0,67,1.0,63,1,0,0,120,64,100,80
12360.0,60,1.0,63,1,0,0,120,64,100,80
12361.0,71,1.0,63,1,0,0,120,64,100,80
12362.0,60,1.0,63,1,0,0,120,64,100,80
12363.0,62,1.0,63,1,0,0,120,64,100,80
12364.0,69,1.0,63,1,0,0,120,64,100,80
12365.0,60,1.0,63,1,0,0,120,64,100,80
12366.0,62,1.0,63,1,0,0,120,64,100,80
12367.0,60,1.0,63,1,0,0,120,64,100,80
12368.0,64,1.0,63,1,0,0,120,64,100,80
12369.0,60,1.0,63,1,0,0,120,64,100,80
12370.0,65,1.0,63,1,0,0,120,64,100,80
12371.0,69,1.0,63,1,0,0,120,64,100,80
12372.0,69,1.0,63,1,0,0,120,64,100,80
12373.0,60,1.0,63,1,0,0,120,64,100,80
12374.0,60,1.0,63,1,0,0,120,64,100,80
12375.0,69,1.0,63,1,0,0,120,64,100,80
12376.0,64,1.0,63,1,0,0,120,64,100,80
12377.0,69,1.0,63,1,0,0,120,64,100,80
12378.0,69,1.0,63,1,0,0,120,64,100,80
12379.0,65,1.0,63,1,0,0,120,64,100,80
12380.0,0,1.0,63,1,0,0,120,64,100,80
12381.0,64,1.0,63,1,0,0,120,64,100,80
12382.0,62,1.0,63,1,0,0,120,64,100,80
12383.0,64,1.0,63,1,0,0,120,64,100,80
12384.0,60,1.0,63,1,0,0,120,64,100,80
12385.0,71,1.0,63,1,0,0,120,64,100,80
12386.0,71,1.0,63,1,0,0,120,64,100,80
12387.0,64,1.0,63,1,0,0,120,64,100,80
12388.0,62,1.0,63,1,0,0,120,64,100,80
12389.0,64,1.0,63,1,0,0,120,64,100,80
12390.0,60,1.0,63,1,0,0,120,64,100,80
12391.0,0,1.0,63,1,0,0,120,64,100,80
12392.0,60,1.0,63,1,0,0,120,64,100,80
12393.0,65,1.0,63,1,0,0,120,64,100,80
12394.0,67,1.0,63,1,0,0,120,64,100,80
12395.0,60,1.0,63,1,0,0,120,64,100,80
12396.0,69,1.0,63,1,0,0,120,64,100,80
12397.0,65,1.0,63,1,0,0,120,64,100,80
12398.0,62,1.0,63,1,0,0,120,64,100,80
12399.0,64,1.0,63,1,0,0,120,64,100,80
12400.0,69,1.0,63,1,0,0,120,64,100,80
12401.0,64,1.0,63,1,0,0,120,64,100,80
12402.0,64,1.0,63,1,0,0,120,64,100,80
12403.0,62,1.0,63,1,0,0,120,64,100,80
12404.0,65,1.0,63,1,0,0,120,64,100,80
12405.0,62,1.0,63,1,0,0,120,64,100,80
12406.0,64,1.0,63,1,0,0,120,64,100,80
12407.0,62,1.0,63,1,0,0,120,64,100,80
12408.0,60,1.0,63,1,0,0,120,64,100,80
12409.0,60,1.0,63,1,0,0,120,64,100,80
12410.0,69,1.0,63,1,0,0,120,64,100,80
12411.0,64,1.0,63,1,0,0,120,64,100,80
12412.0,65,1.0,63,1,0,0,120,64,100,80
12413.0,65,1.0,63,1,0,0,120,64,100,80
12414.0,64,1.0,63,1,0,0,120,64,100,80
12415.0,64,1.0,63,1,0,0,120,64,100,80
12416.0,64,1.0,63,1,0,0,120,64,100,80
12417.0,64,1.0,63,1,0,0,120,64,100,80
12418.0,69,1.0,63,1,0,0,120,64,100,80
12419.0,69,1.0,63,1,0,0,120,64,100,80
12420.0,69,1.0,63,1,0,0,120,64,100,80
12421.0,60,1.0,63,1,0,0,120,64,100,80
12422.0,64,1.0,63,1,0,0,120,64,100,80
12423.0,0,1.0,63,1,0,0,120,64,100,80
12424.0,64,1.0,63,1,0,0,120,64,100,80
12425.0,62,1.0,63,1,0,0,120,64,100,80
12426.0,64,1.0,63,1,0,0,120,64,100,80
12427.0,67,1.0,63,1,0,0,120,64,100,80
12428.0,60,1.0,63,1,0,0,120,64,100,80
12429.0,60,1.0,63,1,0,0,120,64,100,80
12430.0,65,1.0,63,1,0,0,120,64,100,80
12431.0,64,1.0,63,1,0,0,120,64,100,80
12432.0,60,1.0,63,1,0,0,120,64,100,80
12433.0,62,1.0,63,1,0,0,120,64,100,80
12434.0,69,1.0,63,1,0,0,120,64,100,80
12435.0,64,1.0,63,1,0,0,120,64,100,80
12436.0,67,1.0,63,1,0,0,120,64,100,80
12437.0,60,1.0,63,1,0,0,120,64,100,80
12438.0,62,1.0,63,1,0,0,120,64,100,80
12439.0,64,1.0,63,1,0,0,120,64,100,80
12440.0,64,1.0,63,1,0,0,120,64,100,80
12441.0,60,1.0,63,1,0,0,120,64,100,80
12442.0,62,1.0,63,1,0,0,120,64,100,80
12443.0,62,1.0,63,1,0,0,120,64,100,80
12444.0,60,1.0,63,1,0,0,120,64,100,80
12445.0,64,1.0,63,1,0,0,120,64,100,80
12446.0,60,1.0,63,1,0,0,120,64,100,80
12447.0,62,1.0,63,1,0,0,120,64,100,80
12448.0,65,1.0,63,1,0,0,120,64,100,80
12449.0,62,1.0,63,1,0,0,120,64,100,80
12450.0,64,1.0,63,1,0,0,120,64,100,80
12451.0,64,1.0,63,1,0,0,120,64,100,80
12452.0,67,1.0,63,1,0,0,120,64,100,80
12453.0,62,1.0,63,1,0,0,120,64,100,80
12454.0,60,1.0,63,1,0,0,120,64,100,80
12455.0,60,1.0,63,1,0,0,120,64,100,80
12456.0,62,1.0,63,1,0,0,120,64,100,80
12457.0,65,1.0,63,1,0,0,120,64,100,80
12458.0,67,1.0,63,1,0,0,120,64,100,80
12459.0,60,1.0,63,1,0,0,120,64,100,80
12460.0,64,1.0,63,1,0,0,120,64,100,80
12461.0,60,1.0,63,1,0,0,120,64,100,80
12462.0,0,1.0,63,1,0,0,120,64,100,80
12463.0,65,1.0,63,1,0,0,120,64,100,80
12464.0,69,1.0,63,1,0,0,120,64,100,80
12465.0,64,1.0,63,1,0,0,120,64,100,80
12466.0,0,1.0,63,1,0,0,120,64,100,80
12467.0,64,1.0,63,1,0,0,120,64,100,80
12468.0,64,1.0,63,1,0,0,120,64,100,80
12469.0,64,1.0,63,1,0,0,120,64,100,80
12470.0,62,1.0,63,1,0,0,120,64,100,80
12471.0,64,1.0,63,1,0,0,120,64,100,80
12472.0,64,1.0,63,1,0,0,120,64,100,80
12473.0,62,1.0,63,1,0,0,120,64,100,80
12474.0,65,1.0,63,1,0,0,120,64,100,80
12475.0,71,1.0,63,1,0,0,120,64,100,80
12476.0,67,1.0,63,1,0,0,120,64,100,80
12477.0,62,1.0,63,1,0,0,120,64,100,80
12478.0,71,1.0,63,1,0,0,120,64,100,80
12479.0,65,1.0,63,1,0,0,120,64,100,80
12480.0,60,1.0,63,1,0,0,120,64,100,80
12481.0,62,1.0,63,1,0,0,120,64,100,80
12482.0,64,1.0,63,1,0,0,120,64,100,80
12483.0,69,1.0,63,1,0,0,120,64,100,80
12484.0,60,1.0,63,1,0,0,120,64,100,80
12485.0,60,1.0,63,1,0,0,120,64,100,80
12486.0,69,1.0,63,1,0,0,120,64,100,80
12487.0,69,1.0,63,1,0,0,120,64,100,80
12488.0,60,1.0,63,1,0,0,120,64,100,80
12489.0,60,1.0,63,1,0,0,120,64,100,80
12490.0,71,1.0,63,1,0,0,120,64,100,80
12491.0,0,1.0,63,1,0,0,120,64,100,80
12492.0,67,1.0,63,1,0,0,120,64,100,80
12493.0,60,1.0,63,1,0,0,120,64,100,80
12494.0,71,1.0,63,1,0,0,120,64,100,80
12495.0,60,1.0,63,1,0,0,120,64,100,80
12496.0,65,1.0,63,1,0,0,120,64,100,80
12497.0,62,1.0,63,1,0,0,120,64,100,80
12498.0,67,1.0,63,1,0,0,120,64,100,80
12499.0,60,1.0,63,1,0,0,120,64,100,80
12500.0,64,1.0,63,1,0,0,120,64,100,80
12501.0,71,1.0,63,1,0,0,120,64,100,80
12502.0,0,1.0,63,1,0,0,120,64,100,80
12503.0,69,1.0,63,1,0,0,120,64,100,80
12504.0,60,1.0,63,1,0,0,120,64,100,80
12505.0,69,1.0,63,1,0,0,120,64,100,80
12506.0,69,1.0,63,1,0,0,120,64,100,80
12507.0,60,1.0,63,1,0,0,120,64,100,80
12508.0,71,1.0,63,1,0,0,120,64,100,80
12509.0,60,1.0,63,1,0,0,120,64,100,80
12510.0,65,1.0,63,1,0,0,120,64,100,80
12511.0,64,1.0,63,1,0,0,120,64,100,80
12512.0,62,1.0,63,1,0,0,120,64,100,80
12513.0,60,1.0,63,1,0,0,120,64,100,80
12514.0,69,1.0,63,1,0,0,120,64,100,80
12515.0,62,1.0,63,1,0,0,120,64,100,80
12516.0,0,1.0,63,1,0,0,120,64,100,80
12517.0,67,1.0,63,1,0,0,120,64,100,80
12518.0,62,1.0,63,1,0,0,120,64,100,80
12519.0,62,1.0,63,1,0,0,120,64,100,80
12520.0,62,1.0,63,1,0,0,120,64,100,80
12521.0,65,1.0,63,1,0,0,120,64,100,80
12522.0,64,1.0,63,1,0,0,120,64,100,80
12523.0,65,1.0,63,1,0,0,120,64,100,80
12524.0,62,1.0,63,1,0,0,120,64,100,80
12525.0,69,1.0,63,1,0,0,120,64,100,80
12526.0,67,1.0,63,1,0,0,120,64,100,80
12527.0,62,1.0,63,1,0,0,120,64,100,80
12528.0,64,1.0,63,1,0,0,120,64,100,80
12529.0,67,1.0,63,1,0,0,120,64,100,80
12530.0,60,1.0,63,1,0,0,120,64,100,80
12531.0,60,1.0,63,1,0,0,120,64,100,80
12532.0,67,1.0,63,1,0,0,120,64,100,80
12533.0,71,1.0,63,1,0,0,120,64,100,80
12534.0,71,1.0,63,1,0,0,120,64,100,80
12535.0,62,1.0,63,1,0,0,120,64,100,80
12536.0,60,1.0,63,1,0,0,120,64,100,80
12537.0,65,1.0,63,1,0,0,120,64,100,80
12538.0,65,1.0,63,1,0,0,120,64,100,80
12539.0,60,1.0,63,1,0,0,120,64,100,80
12540.0,60,1.0,63,1,0,0,120,64,100,80
12541.0,65,1.0,63,1,0,0,120,64,100,80
12542.0,60,1.0,63,1,0,0,120,64,100,80
12543.0,62,1.0,63,1,0,0,120,64,100,80
12544.0,62,1.0,63,1,0,0,120,64,100,80
12545.0,69,1.0,63,1,0,0,120,64,100,80
12546.0,69,1.0,63,1,0,0,120,64,100,80
12547.0,69,1.0,63,1,0,0,120,64,100,80
12548.0,0,1.0,63,1,0,0,120,64,100,80
12549.0,62,1.0,63,1,0,0,120,64,100,80
12550.0,64,1.0,63,1,0,0,120,64,100,80
12551.0,60,1.0,63,1,0,0,120,64,100,80
12552.0,64,1.0,63,1,0,0,120,64,100,80
12553.0,69,1.0,63,1,0,0,120,64,100,80
12554.0,62,1.0,63,1,0,0,120,64,100,80
12555.0,65,1.0,63,1,0,0,120,64,100,80
12556.0,69,1.0,63,1,0,0,120,64,100,80
12557.0,64,1.0,63,1,0,0,120,64,100,80
12558.0,62,1.0,63,1,0,0,120,64,100,80
12559.0,69,1.0,63,1,0,0,120,64,100,80
12560.0,0,1.0,63,1,0,0,120,64,100,80
12561.0,65,1.0,63,1,0,0,120,64,100,80
12562.0,62,1.0,63,1,0,0,120,64,100,80
12563.0,60,1.0,63,1,0,0,120,64,100,80
12564.0,71,1.0,63,1,0,0,120,64,100,80
12565.0,62,1.0,63,1,0,0,120,64,100,80
12566.0,64,1.0,63,1,0,0,120,64,100,80
12567.0,62,1.0,63,1,0,0,120,64,100,80
12568.0,62,1.0,63,1,0,0,120,64,100,80
12569.0,62,1.0,63,1,0,0,120,64,100,80
12570.0,65,1.0,63,1,0,0,120,64,100,80
12571.0,60,1.0,63,1,0,0,120,64,100,80
12572.0,67,1.0,63,1,0,0,120,64,100,80
12573.0,65,1.0,63,1,0,0,120,64,100,80
12574.0,60,1.0,63,1,0,0,120,64,100,80
12575.0,60,1.0,63,1,0,0,120,64,100,80
12576.0,62,1.0,63,1,0,0,120,64,100,80
12577.0,69,1.0,63,1,0,0,120,64,100,80
12578.0,60,1.0,63,1,0,0,120,64,100,80
12579.0,60,1.0,63,1,0,0,120,64,100,80
12580.0,62,1.0,63,1,0,0,120,64,100,80
12581.0,62,1.0,63,1,0,0,120,64,100,80
12582.0,64,1.0,63,1,0,0,120,64,100,80
12583.0,62,1.0,63,1,0,0,120,64,100,80
12584.0,62,1.0,63,1,0,0,120,64,100,80
12585.0,60,1.0,63,1,0,0,120,64,100,80
12586.0,64,1.0,63,1,0,0,120,64,100,80
12587.0,64,1.0,63,1,0,0,120,64,100,80
12588.0,60,1.0,63,1,0,0,120,64,100,80
12589.0,62,1.0,63,1,0,0,120,64,100,80
12590.0,60,1.0,63,1,0,0,120,64,100,80
12591.0,62,1.0,63,1,0,0,120,64,100,80
12592.0,65,1.0,63,1,0,0,120,64,100,80
12593.0,62,1.0,63,1,0,0,120,64,100,80
12594.0,62,1.0,63,1,0,0,120,64,100,80
12595.0,60,1.0,63,1,0,0,120,64,100,80
12596.0,62,1.0,63,1,0,0,120,64,100,80
12597.0,60,1.0,63,1,0,0,120,64,100,80
12598.0,60,1.0,63,1,0,0,120,64,100,80
12599.0,69,1.0,63,1,0,0,120,64,100,80
12600.0,62,1.0,63,1,0,0,120,64,100,80
12601.0,62,1.0,63,1,0,0,120,64,100,80
12602.0,60,1.0,63,1,0,0,120,64,100,80
12603.0,60,1.0,63,1,0,0,120,64,100,80
12604.0,60,1.0,63,1,0,0,120,64,100,80
12605.0,64,1.0,63,1,0,0,120,64,100,80
12606.0,62,1.0,63,1,0,0,120,64,100,80
12607.0,64,1.0,63,1,0,0,120,64,100,80
12608.0,62,1.0,63,1,0,0,120,64,100,80
12609.0,62,1.0,63,1,0,0,120,64,100,80
12610.0,71,1.0,63,1,0,0,120,64,100,80
12611.0,69,1.0,63,1,0,0,120,64,100,80
12612.0,60,1.0,63,1,0,0,120,64,100,80
12613.0,62,1.0,63,1,0,0,120,64,100,80
12614.0,60,1.0,63,1,0,0,120,64,100,80
12615.0,67,1.0,63,1,0,0,120,64,100,80
12616.0,60,1.0,63,1,0,0,120,64,100,80
12617.0,62,1.0,63,1,0,0,120,64,100,80
12618.0,65,1.0,63,1,0,0,120,64,100,80
12619.0,69,1.0,63,1,0,0,120,64,100,80
12620.0,69,1.0,63,1,0,0,120,64,100,80
12621.0,62,1.0,63,1,0,0,120,64,100,80
12622.0,69,1.0,63,1,0,0,120,64,100,80
12623.0,62,1.0,63,1,0,0,120,64,100,80
12624.0,60,1.0,63,1,0,0,120,64,100,80
12625.0,60,1.0,63,1,0,0,120,64,100,80
12626.0,0,1.0,63,1,0,0,120,64,100,80
12627.0,62,1.0,63,1,0,0,120,64,100,80
12628.0,0,1.0,63,1,0,0,120,64,100,80
12629.0,62,1.0,63,1,0,0,120,64,100,80
12630.0,67,1.0,63,1,0,0,120,64,100,80
12631.0,65,1.0,63,1,0,0,120,64,100,80
12632.0,60,1.0,63,1,0,0,120,64,100,80
12633.0,62,1.0,63,1,0,0,120,64,100,80
12634.0,64,1.0,63,1,0,0,120,64,100,80
12635.0,69,1.0,63,1,0,0,120,64,100,80
12636.0,64,1.0,63,1,0,0,120,64,100,80
12637.0,62,1.0,63,1,0,0,120,64,100,80
12638.0,60,1.0,63,1,0,0,120,64,100,80
12639.0,64,1.0,63,1,0,0,120,64,100,80
12640.0,62,1.0,63,1,0,0,120,64,100,80
12641.0,69,1.0,63,1,0,0,120,64,100,80
12642.0,64,1.0,63,1,0,0,120,64,100,80
12643.0,64,1.0,63,1,0,0,120,64,100,80
12644.0,62,1.0,63,1,0,0,120,64,100,80
12645.0,64,1.0,63,1,0,0,120,64,100,80
12646.0,64,1.0,63,1,0,0,120,64,100,80
12647.0,64,1.0,63,1,0,0,120,64,100,80
12648.0,0,1.0,63,1,0,0,120,64,100,80
12649.0,67,1.0,63,1,0,0,120,64,100,80
12650.0,71,1.0,63,1,0,0,120,64,100,80
12651.0,62,1.0,63,1,0,0,120,64,100,80
12652.0,60,1.0,63,1,0,0,120,64,100,80
12653.0,62,1.0,63,1,0,0,120,64,100,80
12654.0,64,1.0,63,1,0,0,120,64,100,80
12655.0,62,1.0,63,1,0,0,120,64,100,80
12656.0,60,1.0,63,1,0,0,120,64,100,80
12657.0,64,1.0,63,1,0,0,120,64,100,80
12658.0,65,1.0,63,1,0,0,120,64,100,80
12659.0,67,1.0,63,1,0,0,120,64,100,80
12660.0,69,1.0,63,1,0,0,120,64,100,80
12661.0,60,1.0,63,1,0,0,120,64,100,80
12662.0,71,1.0,63,1,0,0,120,64,100,80
12663.0,67,1.0,63,1,0,0,120,64,100,80
12664.0,60,1.0,63,1,0,0,120,64,100,80
12665.0,64,1.0,63,1,0,0,120,64,100,80
12666.0,69,1.0,63,1,0,0,120,64,100,80
12667.0,0,1.0,63,1,0,0,120,64,100,80
12668.0,62,1.0,63,1,0,0,120,64,100,80
12669.0,60,1.0,63,1,0,0,120,64,100,80
12670.0,62,1.0,63,1,0,0,120,64,100,80
12671.0,64,1.0,63,1,0,0,120,64,100,80
12672.0,62,1.0,63,1,0,0,120,64,100,80
12673.0,60,1.0,63,1,0,0,120,64,100,80
12674.0,71,1.0,63,1,0,0,120,64,100,80
12675.0,60,1.0,63,1,0,0,120,64,100,80
12676.0,62,1.0,63,1,0,0,120,64,100,80
12677.0,62,1.0,63,1,0,0,120,64,100,80
12678.0,62,1.0,63,1,0,0,120,64,100,80
12679.0,62,1.0,63,1,0,0,120,64,100,80
12680.0,65,1.0,63,1,0,0,120,64,100,80
12681.0,60,1.0,63,1,0,0,120,64,100,80
12682.0,60,1.0,63,1,0,0,120,64,100,80
12683.0,60,1.0,63,1,0,0,120,64,100,80
12684.0,62,1.0,63,1,0,0,120,64,100,80
12685.0,67,1.0,63,1,0,0,120,64,100,80
12686.0,60,1.0,63,1,0,0,120,64,100,80
12687.0,69,1.0,63,1,0,0,120,64,100,80
12688.0,62,1.0,63,1,0,0,120,64,100,80
12689.0,60,1.0,63,1,0,0,120,64,100,80
12690.0,60,1.0,63,1,0,0,120,64,100,80
12691.0,0,1.0,63,1,0,0,120,64,100,80
12692.0,64,1.0,63,1,0,0,120,64,100,80
12693.0,62,1.0,63,1,0,0,120,64,100,80
12694.0,69,1.0,63,1,0,0,120,64,100,80
12695.0,62,1.0,63,1,0,0,120,64,100,80
12696.0,62,1.0,63,1,0,0,120,64,100,80
12697.0,60,1.0,63,1,0,0,120,64,100,80
12698.0,62,1.0,63,1,0,0,120,64,100,80
12699.0,0,1.0,63,1,0,0,120,64,100,80
12700.0,67,1.0,63,1,0,0,120,64,100,80
12701.0,60,1.0,63,1,0,0,120,64,100,80
12702.0,62,1.0,63,1,0,0,120,64,100,80
12703.0,67,1.0,63,1,0,0,120,64,100,80
12704.0,62,1.0,63,1,0,0,120,64,100,80
12705.0,69,1.0,63,1,0,0,120,64,100,80
12706.0,69,1.0,63,1,0,0,120,64,100,80
12707.0,67,1.0,63,1,0,0,120,64,100,80
12708.0,69,1.0,63,1,0,0,120,64,100,80
12709.0,60,1.0,63,1,0,0,120,64,100,80
12710.0,62,1.0,63,1,0,0,120,64,100,80
12711.0,60,1.0,63,1,0,0,120,64,100,80
12712.0,60,1.0,63,1,0,0,120,64,100,80
12713.0,60,1.0,63,1,0,0,120,64,100,80
12714.0,69,1.0,63,1,0,0,120,64,100,80
12715.0,71,1.0,63,1,0,0,120,64,100,80
12716.0,64,1.0,63,1,0,0,120,64,100,80
12717.0,71,1.0,63,1,0,0,120,64,100,80
12718.0,65,1.0,63,1,0,0,120,64,100,80
12719.0,67,1.0,63,1,0,0,120,64,100,80
12720.0,69,1.0,63,1,0,0,120,64,100,80
12721.0,71,1.0,63,1,0,0,120,64,100,80
12722.0,62,1.0,63,1,0,0,120,64,100,80
12723.0,65,1.0,63,1,0,0,120,64,100,80
12724.0,60,1.0,63,1,0,0,120,64,100,80
12725.0,67,1.0,63,1,0,0,120,64,100,80
12726.0,62,1.0,63,1,0,0,120,64,100,80
12727.0,65,1.0,63,1,0,0,120,64,100,80
12728.0,67,1.0,63,1,0,0,120,64,100,80
12729.0,60,1.0,63,1,0,0,120,64,100,80
12730.0,64,1.0,63,1,0,0,120,64,100,80
12731.0,69,1.0,63,1,0,0,120,64,100,80
12732.0,60,1.0,63,1,0,0,120,64,100,80
12733.0,62,1.0,63,1,0,0,120,64,100,80
12734.0,69,1.0,63,1,0,0,120,64,100,80
12735.0,69,1.0,63,1,0,0,120,64,100,80
12736.0,64,1.0,63,1,0,0,120,64,100,80
12737.0,60,1.0,63,1,0,0,120,64,100,80
12738.0,60,1.0,63,1,0,0,120,64,100,80
12739.0,65,1.0,63,1,0,0,120,64,100,80
12740.0,60,1.0,63,1,0,0,120,64,100,80
12741.0,71,1.0,63,1,0,0,120,64,100,80
12742.0,64,1.0,63,1,0,0,120,64,100,80
12743.0,60,1.0,63,1,0,0,120,64,100,80
12744.0,60,1.0,63,1,0,0,120,64,100,80
12745.0,67,1.0,63,1,0,0,120,64,100,80
12746.0,60,1.0,63,1,0,0,120,64,100,80
12747.0,64,1.0,63,1,0,0,120,64,100,80
12748.0,60,1.0,63,1,0,0,120,64,100,80
12749.0,69,1.0,63,1,0,0,120,64,100,80
12750.0,69,1.0,63,1,0,0,120,64,100,80
12751.0,62,1.0,63,1,0,0,120,64,100,80
12752.0,62,1.0,63,1,0,0,120,64,100,80
12753.0,64,1.0,63,1,0,0,120,64,100,80
12754.0,62,1.0,63,1,0,0,120,64,100,80
12755.0,60,1.0,63,1,0,0,120,64,100,80
12756.0,62,1.0,63,1,0,0,120,64,100,80
12757.0,62,1.0,63,1,0,0,120,64,100,80
12758.0,64,1.0,63,1,0,0,120,64,100,80
12759.0,62,1.0,63,1,0,0,120,64,100,80
12760.0,60,1.0,63,1,0,0,120,64,100,80
12761.0,64,1.0,63,1,0,0,120,64,100,80
12762.0,60,1.0,63,1,0,0,120,64,100,80
12763.0,62,1.0,63,1,0,0,120,64,100,80
12764.0,62,1.0,63,1,0,0,120,64,100,80
12765.0,60,1.0,63,1,0,0,120,64,100,80
12766.0,64,1.0,63,1,0,0,120,64,100,80
12767.0,0,1.0,63,1,0,0,120,64,100,80
12768.0,64,1.0,63,1,0,0,120,64,100,80
12769.0,69,1.0,63,1,0,0,120,64,100,80
12770.0,60,1.0,63,1,0,0,120,64,100,80
12771.0,62,1.0,63,1,0,0,120,64,100,80
12772.0,71,1.0,63,1,0,0,120,64,100,80
12773.0,64,1.0,63,1,0,0,120,64,100,80
12774.0,62,1.0,63,1,0,0,120,64,100,80
12775.0,62,1.0,63,1,0,0,120,64,100,80
12776.0,69,1.0,63,1,0,0,120,64,100,80
12777.0,65,1.0,63,1,0,0,120,64,100,80
12778.0,62,1.0,63,1,0,0,120,64,100,80
12779.0,71,1.0,63,1,0,0,120,64,100,80
12780.0,67,1.0,63,1,0,0,120,64,100,80
12781.0,60,1.0,63,1,0,0,120,64,100,80
12782.0,65,1.0,63,1,0,0,120,64,100,80
12783.0,62,1.0,63,1,0,0,120,64,100,80
12784.0,64,1.0,63,1,0,0,120,64,100,80
12785.0,67,1.0,63,1,0,0,120,64,100,80
12786.0,60,1.0,63,1,0,0,120,64,100,80
12787.0,71,1.0,63,1,0,0,120,64,100,80
12788.0,62,1.0,63,1,0,0,120,64,100,80
12789.0,60,1.0,63,1,0,0,120,64,100,80
12790.0,60,1.0,63,1,0,0,120,64,100,80
12791.0,62,1.0,63,1,0,0,120,64,100,80
12792.0,60,1.0,63,1,0,0,120,64,100,80
12793.0,64,1.0,63,1,0,0,120,64,100,80
12794.0,64,1.0,63,1,0,0,120,64,100,80
12795.0,67,1.0,63,1,0,0,120,64,100,80
12796.0,65,1.0,63,1,0,0,120,64,100,80
12797.0,71,1.0,63,1,0,0,120,64,100,80
12798.0,60,1.0,63,1,0,0,120,64,100,80
12799.0,62,1.0,63,1,0,0,120,64,100,80
12800.0,67,1.0,63,1,0,0,120,64,100,80
12801.0,69,1.0,63,1,0,0,120,64,100,80
12802.0,62,1.0,63,1,0,0,120,64,100,80
12803.0,62,1.0,63,1,0,0,120,64,100,80
12804.0,62,1.0,63,1,0,0,120,64,100,80
12805.0,60,1.0,63,1,0,0,120,64,100,80
12806.0,60,1.0,63,1,0,0,120,64,100,80
12807.0,67,1.0,63,1,0,0,120,64,100,80
12808.0,60,1.0,63,1,0,0,120,64,100,80
12809.0,65,1.0,63,1,0,0,120,64,100,80
12810.0,62,1.0,63,1,0,0,120,64,100,80
12811.0,71,1.0,63,1,0,0,120,64,100,80
12812.0,60,1.0,63,1,0,0,120,64,100,80
12813.0,60,1.0,63,1,0,0,120,64,100,80
12814.0,62,1.0,63,1,0,0,120,64,100,80
12815.0,65,1.0,63,1,0,0,120,64,100,80
12816.0,60,1.0,63,1,0,0,120,64,100,80
12817.0,69,1.0,63,1,0,0,120,64,100,80
12818.0,60,1.0,63,1,0,0,120,64,100,80
12819.0,60,1.0,63,1,0,0,120,64,100,80
12820.0,64,1.0,63,1,0,0,120,64,100,80
12821.0,60,1.0,63,1,0,0,120,64,100,80
12822.0,62,1.0,63,1,0,0,120,64,100,80
12823.0,62,1.0,63,1,0,0,120,64,100,80
12824.0,64,1.0,63,1,0,0,120,64,100,80
12825.0,65,1.0,63,1,0,0,120,64,100,80
12826.0,67,1.0,63,1,0,0,120,64,100,80
12827.0,65,1.0,63,1,0,0,120,64,100,80
12828.0,60,1.0,63,1,0,0,120,64,100,80
12829.0,67,1.0,63,1,0,0,120,64,100,80
12830.0,65,1.0,63,1,0,0,120,64,100,80
12831.0,60,1.0,63,1,0,0,120,64,100,80
12832.0,60,1.0,63,1,0,0,120,64,100,80
12833.0,62,1.0,63,1,0,0,120,64,100,80
12834.0,60,1.0,63,1,0,0,120,64,100,80
12835.0,62,1.0,63,1,0,0,120,64,100,80
12836.0,65,1.0,63,1,0,0,120,64,100,80
12837.0,69,1.0,63,1,0,0,120,64,100,80
12838.0,69,1.0,63,1,0,0,120,64,100,80
12839.0,60,1.0,63,1,0,0,120,64,100,80
12840.0,62,1.0,63,1,0,0,120,64,100,80
12841.0,69,1.0,63,1,0,0,120,64,100,80
12842.0,67,1.0,63,1,0,0,120,64,100,80
12843.0,64,1.0,63,1,0,0,120,64,100,80
12844.0,0,1.0,63,1,0,0,120,64,100,80
12845.0,62,1.0,63,1,0,0,120,64,100,80
12846.0,65,1.0,63,1,0,0,120,64,100,80
12847.0,60,1.0,63,1,0,0,120,64,100,80
12848.0,69,1.0,63,1,0,0,120,64,100,80
12849.0,60,1.0,63,1,0,0,120,64,100,80
12850.0,62,1.0,63,1,0,0,120,64,100,80
12851.0,60,1.0,63,1,0,0,120,64,100,80
12852.0,60,1.0,63,1,0,0,120,64,100,80
12853.0,69,1.0,63,1,0,0,120,64,100,80
12854.0,62,1.0,63,1,0,0,120,64,100,80
12855.0,65,1.0,63,1,0,0,120,64,100,80
12856.0,62,1.0,63,1,0,0,120,64,100,80
12857.0,62,1.0,63,1,0,0,120,64,100,80
12858.0,69,1.0,63,1,0,0,120,64,100,80
12859.0,69,1.0,63,1,0,0,120,64,100,80
12860.0,67,1.0,63,1,0,0,120,64,100,80
12861.0,60,1.0,63,1,0,0,120,64,100,80
12862.0,71,1.0,63,1,0,0,120,64,100,80
12863.0,60,1.0,63,1,0,0,120,64,100,80
12864.0,64,1.0,63,1,0,0,120,64,100,80
12865.0,62,1.0,63,1,0,0,120,64,100,80
12866.0,62,1.0,63,1,0,0,120,64,100,80
12867.0,69,1.0,63,1,0,0,120,64,100,80
12868.0,69,1.0,63,1,0,0,120,64,100,80
12869.0,64,1.0,63,1,0,0,120,64,100,80
12870.0,64,1.0,63,1,0,0,120,64,100,80
12871.0,60,1.0,63,1,0,0,120,64,100,80
12872.0,60,1.0,63,1,0,0,120,64,100,80
12873.0,67,1.0,63,1,0,0,120,64,100,80
12874.0,62,1.0,63,1,0,0,120,64,100,80
12875.0,69,1.0,63,1,0,0,120,64,100,80
12876.0,62,1.0,63,1,0,0,120,64,100,80
12877.0,69,1.0,63,1,0,0,120,64,100,80
12878.0,60,1.0,63,1,0,0,120,64,100,80
12879.0,64,1.0,63,1,0,0,120,64,100,80
12880.0,60,1.0,63,1,0,0,120,64,100,80
12881.0,62,1.0,63,1,0,0,120,64,100,80
12882.0,62,1.0,63,1,0,0,120,64,100,80
12883.0,62,1.0,63,1,0,0,120,64,100,80
12884.0,64,1.0,63,1,0,0,120,64,100,80
12885.0,67,1.0,63,1,0,0,120,64,100,80
12886.0,60,1.0,63,1,0,0,120,64,100,80
12887.0,69,1.0,63,1,0,0,120,64,100,80
12888.0,60,1.0,63,1,0,0,120,64,100,80
12889.0,65,1.0,63,1,0,0,120,64,100,80
12890.0,62,1.0,63,1,0,0,120,64,100,80
12891.0,64,1.0,63,1,0,0,120,64,100,80
12892.0,62,1.0,63,1,0,0,120,64,100,80
12893.0,60,1.0,63,1,0,0,120,64,100,80
12894.0,69,1.0,63,1,0,0,120,64,100,80
12895.0,65,1.0,63,1,0,0,120,64,100,80
12896.0,71,1.0,63,1,0,0,120,64,100,80
12897.0,60,1.0,63,1,0,0,120,64,100,80
12898.0,62,1.0,63,1,0,0,120,64,100,80
12899.0,0,1.0,63,1,0,0,120,64,100,80
12900.0,64,1.0,63,1,0,0,120,64,100,80
12901.0,65,1.0,63,1,0,0,120,64,100,80
12902.0,67,1.0,63,1,0,0,120,64,100,80
12903.0,65,1.0,63,1,0,0,120,64,100,80
12904.0,60,1.0,63,1,0,0,120,64,100,80
12905.0,69,1.0,63,1,0,0,120,64,100,80
12906.0,64,1.0,63,1,0,0,120,64,100,80
12907.0,67,1.0,63,1,0,0,120,64,100,80
12908.0,71,1.0,63,1,0,0,120,64,100,80
12909.0,69,1.0,63,1,0,0,120,64,100,80
12910.0,62,1.0,63,1,0,0,120,64,100,80
12911.0,69,1.0,63,1,0,0,120,64,100,80
12912.0,65,1.0,63,1,0,0,120,64,100,80
12913.0,62,1.0,63,1,0,0,120,64,100,80
12914.0,71,1.0,63,1,0,0,120,64,100,80
12915.0,64,1.0,63,1,0,0,120,64,100,80
12916.0,67,1.0,63,1,0,0,120,64,100,80
12917.0,69,1.0,63,1,0,0,120,64,100,80
12918.0,69,1.0,63,1,0,0,120,64,100,80
12919.0,69,1.0,63,1,0,0,120,64,100,80
12920.0,60,1.0,63,1,0,0,120,64,100,80
12921.0,71,1.0,63,1,0,0,120,64,100,80
12922.0,62,1.0,63,1,0,0,120,64,100,80
12923.0,69,1.0,63,1,0,0,120,64,100,80
12924.0,64,1.0,63,1,0,0,120,64,100,80
12925.0,67,1.0,63,1,0,0,120,64,100,80
12926.0,60,1.0,63,1,0,0,120,64,100,80
12927.0,62,1.0,63,1,0,0,120,64,100,80
12928.0,60,1.0,63,1,0,0,120,64,100,80
12929.0,71,1.0,63,1,0,0,120,64,100,80
12930.0,71,1.0,63,1,0,0,120,64,100,80
12931.0,60,1.0,63,1,0,0,120,64,100,80
12932.0,69,1.0,63,1,0,0,120,64,100,80
12933.0,0,1.0,63,1,0,0,120,64,100,80
12934.0,69,1.0,63,1,0,0,120,64,100,80
12935.0,65,1.0,63,1,0,0,120,64,100,80
12936.0,64,1.0,63,1,0,0,120,64,100,80
12937.0,60,1.0,63,1,0,0,120,64,100,80
12938.0,60,1.0,63,1,0,0,120,64,100,80
12939.0,60,1.0,63,1,0,0,120,64,100,80
12940.0,67,1.0,63,1,0,0,120,64,100,80
12941.0,65,1.0,63,1,0,0,120,64,100,80
12942.0,62,1.0,63,1,0,0,120,64,100,80
12943.0,65,1.0,63,1,0,0,120,64,100,80
12944.0,62,1.0,63,1,0,0,120,64,100,80
12945.0,60,1.0,63,1,0,0,120,64,100,80
12946.0,64,1.0,63,1,0,0,120,64,100,80
12947.0,65,1.0,63,1,0,0,120,64,100,80
12948.0,67,1.0,63,1,0,0,120,64,100,80
12949.0,60,1.0,63,1,0,0,120,64,100,80
12950.0,65,1.0,63,1,0,0,120,64,100,80
12951.0,60,1.0,63,1,0,0,120,64,100,80
12952.0,62,1.0,63,1,0,0,120,64,100,80
12953.0,65,1.0,63,1,0,0,120,64,100,80
12954.0,64,1.0,63,1,0,0,120,64,100,80
12955.0,60,1.0,63,1,0,0,120,64,100,80
12956.0,71,1.0,63,1,0,0,120,64,100,80
12957.0,62,1.0,63,1,0,0,120,64,100,80
12958.0,69,1.0,63,1,0,0,120,64,100,80
12959.0,65,1.0,63,1,0,0,120,64,100,80
12960.0,69,1.0,63,1,0,0,120,64,100,80
12961.0,60,1.0,63,1,0,0,120,64,100,80
12962.0,69,1.0,63,1,0,0,120,64,100,80
12963.0,60,1.0,63,1,0,0,120,64,100,80
12964.0,0,1.0,63,1,0,0,120,64,100,80
12965.0,64,1.0,63,1,0,0,120,64,100,80
12966.0,67,1.0,63,1,0,0,120,64,100,80
12967.0,64,1.0,63,1,0,0,120,64,100,80
12968.0,60,1.0,63,1,0,0,120,64,100,80
12969.0,60,1.0,63,1,0,0,120,64,100,80
12970.0,62,1.0,63,1,0,0,120,64,100,80
12971.0,67,1.0,63,1,0,0,120,64,100,80
12972.0,67,1.0,63,1,0,0,120,64,100,80
12973.0,69,1.0,63,1,0,0,120,64,100,80
12974.0,62,1.0,63,1,0,0,120,64,100,80
12975.0,65,1.0,63,1,0,0,120,64,100,80
12976.0,60,1.0,63,1,0,0,120,64,100,80
12977.0,65,1.0,63,1,0,0,120,64,100,80
12978.0,64,1.0,63,1,0,0,120,64,100,80
12979.0,71,1.0,63,1,0,0,120,64,100,80
12980.0,67,1.0,63,1,0,0,120,64,100,80
12981.0,64,1.0,63,1,0,0,120,64,100,80
12982.0,60,1.0,63,1,0,0,120,64,100,80
12983.0,64,1.0,63,1,0,0,120,64,100,80
12984.0,62,1.0,63,1,0,0,120,64,100,80
12985.0,69,1.0,63,1,0,0,120,64,100,80
12986.0,64,1.0,63,1,0,0,120,64,100,80
12987.0,69,1.0,63,1,0,0,120,64,100,80
12988.0,60,1.0,63,1,0,0,120,64,100,80
12989.0,65,1.0,63,1,0,0,120,64,100,80
12990.0,71,1.0,63,1,0,0,120,64,100,80
12991.0,64,1.0,63,1,0,0,120,64,100,80
12992.0,64,1.0,63,1,0,0,120,64,100,80
12993.0,60,1.0,63,1,0,0,120,64,100,80
12994.0,71,1.0,63,1,0,0,120,64,100,80
12995.0,67,1.0,63,1,0,0,120,64,100,80
12996.0,65,1.0,63,1,0,0,120,64,100,80
12997.0,62,1.0,63,1,0,0,120,64,100,80
12998.0,62,1.0,63,1,0,0,120,64,100,80
12999.0,62,1.0,63,1,0,0,120,64,100,80
13000.0,60,1.0,63,1,0,0,120,64,100,80
13001.0,69,1.0,63,1,0,0,120,64,100,80
13002.0,64,1.0,63,1,0,0,120,64,100,80
13003.0,67,1.0,63,1,0,0,120,64,100,80
13004.0,60,1.0,63,1,0,0,120,64,100,80
13005.0,69,1.0,63,1,0,0,120,64,100,80
13006.0,64,1.0,63,1,0,0,120,64,100,80
13007.0,69,1.0,63,1,0,0,120,64,100,80
13008.0,62,1.0,63,1,0,0,120,64,100,80
13009.0,62,1.0,63,1,0,0,120,64,100,80
13010.0,62,1.0,63,1,0,0,120,64,100,80
13011.0,60,1.0,63,1,0,0,120,64,100,80
13012.0,60,1.0,63,1,0,0,120,64,100,80
13013.0,64,1.0,63,1,0,0,120,64,100,80
13014.0,60,1.0,63,1,0,0,120,64,100,80
13015.0,71,1.0,63,1,0,0,120,64,100,80
13016.0,71,1.0,63,1,0,0,120,64,100,80
13017.0,62,1.0,63,1,0,0,120,64,100,80
13018.0,69,1.0,63,1,0,0,120,64,100,80
13019.0,60,1.0,63,1,0,0,120,64,100,80
13020.0,60,1.0,63,1,0,0,120,64,100,80
13021.0,65,1.0,63,1,0,0,120,64,100,80
13022.0,65,1.0,63,1,0,0,120,64,100,80
13023.0,62,1.0,63,1,0,0,120,64,100,80
13024.0,69,1.0,63,1,0,0,120,64,100,80
13025.0,64,1.0,63,1,0,0,120,64,100,80
13026.0,60,1.0,63,1,0,0,120,64,100,80
13027.0,62,1.0,63,1,0,0,120,64,100,80
13028.0,62,1.0,63,1,0,0,120,64,100,80
13029.0,62,1.0,63,1,0,0,120,64,100,80
13030.0,60,1.0,63,1,0,0,120,64,100,80
13031.0,67,1.0,63,1,0,0,120,64,100,80
13032.0,64,1.0,63,1,0,0,120,64,100,80
13033.0,60,1.0,63,1,0,0,120,64,100,80
13034.0,60,1.0,63,1,0,0,120,64,100,80
13035.0,62,1.0,63,1,0,0,120,64,100,80
13036.0,62,1.0,63,1,0,0,120,64,100,80
13037.0,60,1.0,63,1,0,0,120,64,100,80
13038.0,62,1.0,63,1,0,0,120,64,100,80
13039.0,64,1.0,63,1,0,0,120,64,100,80
13040.0,69,1.0,63,1,0,0,120,64,100,80
13041.0,62,1.0,63,1,0,0,120,64,100,80
13042.0,64,1.0,63,1,0,0,120,64,100,80
13043.0,64,1.0,63,1,0,0,120,64,100,80
13044.0,69,1.0,63,1,0,0,120,64,100,80
13045.0,60,1.0,63,1,0,0,120,64,100,80
13046.0,60,1.0,63,1,0,0,120,64,100,80
13047.0,62,1.0,63,1,0,0,120,64,100,80
13048.0,69,1.0,63,1,0,0,120,64,100,80
13049.0,62,1.0,63,1,0,0,120,64,100,80
13050.0,64,1.0,63,1,0,0,120,64,100,80
13051.0,62,1.0,63,1,0,0,120,64,100,80
13052.0,64,1.0,63,1,0,0,120,64,100,80
13053.0,67,1.0,63,1,0,0,120,64,100,80
13054.0,64,1.0,63,1,0,0,120,64,100,80
13055.0,69,1.0,63,1,0,0,120,64,100,80
13056.0,60,1.0,63,1,0,0,120,64,100,80
13057.0,60,1.0,63,1,0,0,120,64,100,80
13058.0,62,1.0,63,1,0,0,120,64,100,80
13059.0,0,1.0,63,1,0,0,120,64,100,80
13060.0,64,1.0,63,1,0,0,120,64,100,80
13061.0,69,1.0,63,1,0,0,120,64,100,80
13062.0,60,1.0,63,1,0,0,120,64,100,80
13063.0,64,1.0,63,1,0,0,120,64,100,80
13064.0,64,1.0,63,1,0,0,120,64,100,80
13065.0,60,1.0,63,1,0,0,120,64,100,80
13066.0,67,1.0,63,1,0,0,120,64,100,80
13067.0,60,1.0,63,1,0,0,120,64,100,80
13068.0,62,1.0,63,1,0,0,120,64,100,80
13069.0,60,1.0,63,1,0,0,120,64,100,80
13070.0,62,1.0,63,1,0,0,120,64,100,80
13071.0,60,1.0,63,1,0,0,120,64,100,80
13072.0,62,1.0,63,1,0,0,120,64,100,80
13073.0,60,1.0,63,1,0,0,120,64,100,80
13074.0,60,1.0,63,1,0,0,120,64,100,80
13075.0,60,1.0,63,1,0,0,120,64,100,80
13076.0,71,1.0,63,1,0,0,120,64,100,80
13077.0,64,1.0,63,1,0,0,120,64,100,80
13078.0,62,1.0,63,1,0,0,120,64,100,80
13079.0,64,1.0,63,1,0,0,120,64,100,80
13080.0,67,1.0,63,1,0,0,120,64,100,80
13081.0,69,1.0,63,1,0,0,120,64,100,80
13082.0,64,1.0,63,1,0,0,120,64,100,80
13083.0,69,1.0,63,1,0,0,120,64,100,80
13084.0,69,1.0,63,1,0,0,120,64,100,80
13085.0,62,1.0,63,1,0,0,120,64,100,80
13086.0,62,1.0,63,1,0,0,120,64,100,80
13087.0,69,1.0,63,1,0,0,120,64,100,80
13088.0,65,1.0,63,1,0,0,120,64,100,80
13089.0,65,1.0,63,1,0,0,120,64,100,80
13090.0,64,1.0,63,1,0,0,120,64,100,80
13091.0,69,1.0,63,1,0,0,120,64,100,80
13092.0,62,1.0,63,1,0,0,120,64,100,80
13093.0,64,1.0,63,1,0,0,120,64,100,80
13094.0,62,1.0,63,1,0,0,120,64,100,80
13095.0,65,1.0,63,1,0,0,120,64,100,80
13096.0,71,1.0,63,1,0,0,120,64,100,80
13097.0,64,1.0,63,1,0,0,120,64,100,80
13098.0,64,1.0,63,1,0,0,120,64,100,80
13099.0,60,1.0,63,1,0,0,120,64,100,80
13100.0,62,1.0,63,1,0,0,120,64,100,80
13101.0,62,1.0,63,1,0,0,120,64,100,80
13102.0,60,1.0,63,1,0,0,120,64,100,80
13103.0,62,1.0,63,1,0,0,120,64,100,80
13104.0,71,1.0,63,1,0,0,120,64,100,80
13105.0,64,1.0,63,1,0,0,120,64,100,80
13106.0,64,1.0,63,1,0,0,120,64,100,80
13107.0,60,1.0,63,1,0,0,120,64,100,80
13108.0,69,1.0,63,1,0,0,120,64,100,80
13109.0,62,1.0,63,1,0,0,120,64,100,80
13110.0,60,1.0,63,1,0,0,120,64,100,80
13111.0,65,1.0,63,1,0,0,120,64,100,80
13112.0,69,1.0,63,1,0,0,120,64,100,80
13113.0,60,1.0,63,1,0,0,120,64,100,80
13114.0,67,1.0,63,1,0,0,120,64,100,80
13115.0,60,1.0,63,1,0,0,120,64,100,80
13116.0,62,1.0,63,1,0,0,120,64,100,80
13117.0,64,1.0,63,1,0,0,120,64,100,80
13118.0,62,1.0,63,1,0,0,120,64,100,80
13119.0,60,1.0,63,1,0,0,120,64,100,80
13120.0,60,1.0,63,1,0,0,120,64,100,80
13121.0,60,1.0,63,1,0,0,120,64,100,80
13122.0,67,1.0,63,1,0,0,120,64,100,80
13123.0,60,1.0,63,1,0,0,120,64,100,80
13124.0,0,1.0,63,1,0,0,120,64,100,80
13125.0,64,1.0,63,1,0,0,120,64,100,80
13126.0,69,1.0,63,1,0,0,120,64,100,80
13127.0,69,1.0,63,1,0,0,120,64,100,80
13128.0,0,1.0,63,1,0,0,120,64,100,80
13129.0,62,1.0,63,1,0,0,120,64,100,80
13130.0,62,1.0,63,1,0,0,120,64,100,80
13131.0,64,1.0,63,1,0,0,120,64,100,80
13132.0,60,1.0,63,1,0,0,120,64,100,80
13133.0,65,1.0,63,1,0,0,120,64,100,80
13134.0,71,1.0,63,1,0,0,120,64,100,80
13135.0,62,1.0,63,1,0,0,120,64,100,80
13136.0,0,1.0,63,1,0,0,120,64,100,80
13137.0,62,1.0,63,1,0,0,120,64,100,80
13138.0,64,1.0,63,1,0,0,120,64,100,80
13139.0,65,1.0,63,1,0,0,120,64,100,80
13140.0,64,1.0,63,1,0,0,120,64,100,80
13141.0,65,1.0,63,1,0,0,120,64,100,80
13142.0,62,1.0,63,1,0,0,120,64,100,80
13143.0,60,1.0,63,1,0,0,120,64,100,80
13144.0,71,1.0,63,1,0,0,120,64,100,80
13145.0,65,1.0,63,1,0,0,120,64,100,80
13146.0,64,1.0,63,1,0,0,120,64,100,80
13147.0,62,1.0,63,1,0,0,120,64,100,80
13148.0,69,1.0,63,1,0,0,120,64,100,80
13149.0,71,1.0,63,1,0,0,120,64,100,80
13150.0,62,1.0,63,1,0,0,120,64,100,80
13151.0,69,1.0,63,1,0,0,120,64,100,80
13152.0,64,1.0,63,1,0,0,120,64,100,80
13153.0,71,1.0,63,1,0,0,120,64,100,80
13154.0,62,1.0,63,1,0,0,120,64,100,80
13155.0,69,1.0,63,1,0,0,120,64,100,80
13156.0,65,1.0,63,1,0,0,120,64,100,80
13157.0,60,1.0,63,1,0,0,120,64,100,80
13158.0,65,1.0,63,1,0,0,120,64,100,80
13159.0,0,1.0,63,1,0,0,120,64,100,80
13160.0,67,1.0,63,1,0,0,120,64,100,80
13161.0,64,1.0,63,1,0,0,120,64,100,80
13162.0,60,1.0,63,1,0,0,120,64,100,80
13163.0,60,1.0,63,1,0,0,120,64,100,80
13164.0,60,1.0,63,1,0,0,120,64,100,80
13165.0,64,1.0,63,1,0,0,120,64,100,80
13166.0,67,1.0,63,1,0,0,120,64,100,80
13167.0,64,1.0,63,1,0,0,120,64,100,80
13168.0,64,1.0,63,1,0,0,120,64,100,80
13169.0,60,1.0,63,1,0,0,120,64,100,80
13170.0,62,1.0,63,1,0,0,120,64,100,80
13171.0,67,1.0,63,1,0,0,120,64,100,80
13172.0,67,1.0,63,1,0,0,120,64,100,80
13173.0,64,1.0,63,1,0,0,120,64,100,80
13174.0,71,1.0,63,1,0,0,120,64,100,80
13175.0,60,1.0,63,1,0,0,120,64,100,80
13176.0,71,1.0,63,1,0,0,120,64,100,80
13177.0,62,1.0,63,1,0,0,120,64,100,80
13178.0,62,1.0,63,1,0,0,120,64,100,80
13179.0,71,1.0,63,1,0,0,120,64,100,80
13180.0,71,1.0,63,1,0,0,120,64,100,80
13181.0,62,1.0,63,1,0,0,120,64,100,80
13182.0,60,1.0,63,1,0,0,120,64,100,80
13183.0,62,1.0,63,1,0,0,120,64,100,80
13184.0,62,1.0,63,1,0,0,120,64,100,80
13185.0,0,1.0,63,1,0,0,120,64,100,80
13186.0,60,1.0,63,1,0,0,120,64,100,80
13187.0,69,1.0,63,1,0,0,120,64,100,80
13188.0,60,1.0,63,1,0,0,120,64,100,80
13189.0,64,1.0,63,1,0,0,120,64,100,80
13190.0,67,1.0,63,1,0,0,120,64,100,80
13191.0,60,1.0,63,1,0,0,120,64,100,80
13192.0,60,1.0,63,1,0,0,120,64,100,80
13193.0,71,1.0,63,1,0,0,120,64,100,80
13194.0,60,1.0,63,1,0,0,120,64,100,80
13195.0,64,1.0,63,1,0,0,120,64,100,80
13196.0,64,1.0,63,1,0,0,120,64,100,80
13197.0,60,1.0,63,1,0,0,120,64,100,80
13198.0,69,1.0,63,1,0,0,120,64,100,80
13199.0,0,1.0,63,1,0,0,120,64,100,80
13200.0,60,1.0,63,1,0,0,120,64,100,80
13201.0,60,1.0,63,1,0,0,120,64,100,80
13202.0,69,1.0,63,1,0,0,120,64,100,80
13203.0,69,1.0,63,1,0,0,120,64,100,80
13204.0,64,1.0,63,1,0,0,120,64,100,80
13205.0,62,1.0,63,1,0,0,120,64,100,80
13206.0,64,1.0,63,1,0,0,120,64,100,80
13207.0,62,1.0,63,1,0,0,120,64,100,80
13208.0,62,1.0,63,1,0,0,120,64,100,80
13209.0,62,1.0,63,1,0,0,120,64,100,80
13210.0,64,1.0,63,1,0,0,120,64,100,80
13211.0,64,1.0,63,1,0,0,120,64,100,80
13212.0,62,1.0,63,1,0,0,120,64,100,80
13213.0,71,1.0,63,1,0,0,120,64,100,80
13214.0,69,1.0,63,1,0,0,120,64,100,80
13215.0,60,1.0,63,1,0,0,120,64,100,80
13216.0,60,1.0,63,1,0,0,120,64,100,80
13217.0,71,1.0,63,1,0,0,120,64,100,80
13218.0,69,1.0,63,1,0,0,120,64,100,80
13219.0,71,1.0,63,1,0,0,120,64,100,80
13220.0,60,1.0,63,1,0,0,120,64,100,80
13221.0,65,1.0,63,1,0,0,120,64,100,80
13222.0,71,1.0,63,1,0,0,120,64,100,80
13223.0,62,1.0,63,1,0,0,120,64,100,80
13224.0,71,1.0,63,1,0,0,120,64,100,80
13225.0,64,1.0,63,1,0,0,120,64,100,80
13226.0,69,1.0,63,1,0,0,120,64,100,80
13227.0,60,1.0,63,1,0,0,120,64,100,80
13228.0,62,1.0,63,1,0,0,120,64,100,80
13229.0,69,1.0,63,1,0,0,120,64,100,80
13230.0,62,1.0,63,1,0,0,120,64,100,80
13231.0,67,1.0,63,1,0,0,120,64,100,80
13232.0,0,1.0,63,1,0,0,120,64,100,80
13233.0,71,1.0,63,1,0,0,120,64,100,80
13234.0,62,1.0,63,1,0,0,120,64,100,80
13235.0,62,1.0,63,1,0,0,120,64,100,80
13236.0,64,1.0,63,1,0,0,120,64,100,80
13237.0,62,1.0,63,1,0,0,120,64,100,80
13238.0,69,1.0,63,1,0,0,120,64,100,80
13239.0,60,1.0,63,1,0,0,120,64,100,80
13240.0,62,1.0,63,1,0,0,120,64,100,80
13241.0,60,1.0,63,1,0,0,120,64,100,80
13242.0,69,1.0,63,1,0,0,120,64,100,80
13243.0,60,1.0,63,1,0,0,120,64,100,80
13244.0,69,1.0,63,1,0,0,120,64,100,80
13245.0,62,1.0,63,1,0,0,120,64,100,80
13246.0,60,1.0,63,1,0,0,120,64,100,80
13247.0,64,1.0,63,1,0,0,120,64,100,80
13248.0,60,1.0,63,1,0,0,120,64,100,80
13249.0,64,1.0,63,1,0,0,120,64,100,80
13250.0,60,1.0,63,1,0,0,120,64,100,80
13251.0,62,1.0,63,1,0,0,120,64,100,80
13252.0,65,1.0,63,1,0,0,120,64,100,80
13253.0,64,1.0,63,1,0,0,120,64,100,80
13254.0,60,1.0,63,1,0,0,120,64,100,80
13255.0,62,1.0,63,1,0,0,120,64,100,80
13256.0,60,1.0,63,1,0,0,120,64,100,80
13257.0,0,1.0,63,1,0,0,120,64,100,80
13258.0,62,1.0,63,1,0,0,120,64,100,80
13259.0,71,1.0,63,1,0,0,120,64,100,80
13260.0,69,1.0,63,1,0,0,120,64,100,80
13261.0,60,1.0,63,1,0,0,120,64,100,80
13262.0,62,1.0,63,1,0,0,120,64,100,80
13263.0,60,1.0,63,1,0,0,120,64,100,80
13264.0,0,1.0,63,1,0,0,120,64,100,80
13265.0,67,1.0,63,1,0,0,120,64,100,80
13266.0,0,1.0,63,1,0,0,120,64,100,80
13267.0,60,1.0,63,1,0,0,120,64,100,80
13268.0,65,1.0,63,1,0,0,120,64,100,80
13269.0,71,1.0,63,1,0,0,120,64,100,80
13270.0,65,1.0,63,1,0,0,120,64,100,80
13271.0,65,1.0,63,1,0,0,120,64,100,80
13272.0,64,1.0,63,1,0,0,120,64,100,80
13273.0,69,1.0,63,1,0,0,120,64,100,80
13274.0,71,1.0,63,1,0,0,120,64,100,80
13275.0,69,1.0,63,1,0,0,120,64,100,80
13276.0,62,1.0,63,1,0,0,120,64,100,80
13277.0,60,1.0,63,1,0,0,120,64,100,80
13278.0,69,1.0,63,1,0,0,120,64,100,80
13279.0,0,1.0,63,1,0,0,120,64,100,80
13280.0,60,1.0,63,1,0,0,120,64,100,80
13281.0,67,1.0,63,1,0,0,120,64,100,80
13282.0,67,1.0,63,1,0,0,120,64,100,80
13283.0,71,1.0,63,1,0,0,120,64,100,80
13284.0,67,1.0,63,1,0,0,120,64,100,80
13285.0,62,1.0,63,1,0,0,120,64,100,80
13286.0,71,1.0,63,1,0,0,120,64,100,80
13287.0,64,1.0,63,1,0,0,120,64,100,80
13288.0,69,1.0,63,1,0,0,120,64,100,80
13289.0,60,1.0,63,1,0,0,120,64,100,80
13290.0,64,1.0,63,1,0,0,120,64,100,80
13291.0,65,1.0,63,1,0,0,120,64,100,80
13292.0,60,1.0,63,1,0,0,120,64,100,80
13293.0,69,1.0,63,1,0,0,120,64,100,80
13294.0,62,1.0,63,1,0,0,120,64,100,80
13295.0,64,1.0,63,1,0,0,120,64,100,80
13296.0,69,1.0,63,1,0,0,120,64,100,80
13297.0,60,1.0,63,1,0,0,120,64,100,80
13298.0,69,1.0,63,1,0,0,120,64,100,80
13299.0,60,1.0,63,1,0,0,120,64,100,80
13300.0,62,1.0,63,1,0,0,120,64,100,80
13301.0,65,1.0,63,1,0,0,120,64,100,80
13302.0,65,1.0,63,1,0,0,120,64,100,80
13303.0,67,1.0,63,1,0,0,120,64,100,80
13304.0,65,1.0,63,1,0,0,120,64,100,80
13305.0,60,1.0,63,1,0,0,120,64,100,80
13306.0,60,1.0,63,1,0,0,120,64,100,80
13307.0,0,1.0,63,1,0,0,120,64,100,80
13308.0,60,1.0,63,1,0,0,120,64,100,80
13309.0,64,1.0,63,1,0,0,120,64,100,80
13310.0,64,1.0,63,1,0,0,120,64,100,80
13311.0,71,1.0,63,1,0,0,120,64,100,80
13312.0,69,1.0,63,1,0,0,120,64,100,80
13313.0,62,1.0,63,1,0,0,120,64,100,80
13314.0,64,1.0,63,1,0,0,120,64,100,80
13315.0,60,1.0,63,1,0,0,120,64,100,80
13316.0,62,1.0,63,1,0,0,120,64,100,80
13317.0,64,1.0,63,1,0,0,120,64,100,80
13318.0,69,1.0,63,1,0,0,120,64,100,80
13319.0,62,1.0,63,1,0,0,120,64,100,80
13320.0,67,1.0,63,1,0,0,120,64,100,80
13321.0,65,1.0,63,1,0,0,120,64,100,80
13322.0,69,1.0,63,1,0,0,120,64,100,80
13323.0,62,1.0,63,1,0,0,120,64,100,80
13324.0,65,1.0,63,1,0,0,120,64,100,80
13325.0,65,1.0,63,1,0,0,120,64,100,80
13326.0,69,1.0,63,1,0,0,120,64,100,80
13327.0,64,1.0,63,1,0,0,120,64,100,80
13328.0,62,1.0,63,1,0,0,120,64,100,80
13329.0,62,1.0,63,1,0,0,120,64,100,80
13330.0,69,1.0,63,1,0,0,120,64,100,80
13331.0,62,1.0,63,1,0,0,120,64,100,80
13332.0,60,1.0,63,1,0,0,120,64,100,80
13333.0,62,1.0,63,1,0,0,120,64,100,80
13334.0,64,1.0,63,1,0,0,120,64,100,80
13335.0,64,1.0,63,1,0,0,120,64,100,80
13336.0,64,1.0,63,1,0,0,120,64,100,80
13337.0,64,1.0,63,1,0,0,120,64,100,80
13338.0,60,1.0,63,1,0,0,120,64,100,80
13339.0,60,1.0,63,1,0,0,120,64,100,80
13340.0,65,1.0,63,1,0,0,120,64,100,80
13341.0,67,1.0,63,1,0,0,120,64,100,80
13342.0,60,1.0,63,1,0,0,120,64,100,80
13343.0,62,1.0,63,1,0,0,120,64,100,80
13344.0,60,1.0,63,1,0,0,120,64,100,80
13345.0,62,1.0,63,1,0,0,120,64,100,80
13346.0,67,1.0,63,1,0,0,120,64,100,80
13347.0,69,1.0,63,1,0,0,120,64,100,80
13348.0,71,1.0,63,1,0,0,120,64,100,80
13349.0,60,1.0,63,1,0,0,120,64,100,80
13350.0,69,1.0,63,1,0,0,120,64,100,80
13351.0,0,1.0,63,1,0,0,120,64,100,80
13352.0,69,1.0,63,1,0,0,120,64,100,80
13353.0,67,1.0,63,1,0,0,120,64,100,80
13354.0,65,1.0,63,1,0,0,120,64,100,80
13355.0,69,1.0,63,1,0,0,120,64,100,80
13356.0,60,1.0,63,1,0,0,120,64,100,80
13357.0,64,1.0,63,1,0,0,120,64,100,80
13358.0,69,1.0,63,1,0,0,120,64,100,80
13359.0,60,1.0,63,1,0,0,120,64,100,80
13360.0,69,1.0,63,1,0,0,120,64,100,80
13361.0,60,1.0,63,1,0,0,120,64,100,80
13362.0,71,1.0,63,1,0,0,120,64,100,80
13363.0,60,1.0,63,1,0,0,120,64,100,80
13364.0,65,1.0,63,1,0,0,120,64,100,80
13365.0,67,1.0,63,1,0,0,120,64,100,80
13366.0,60,1.0,63,1,0,0,120,64,100,80
13367.0,65,1.0,63,1,0,0,120,64,100,80
13368.0,60,1.0,63,1,0,0,120,64,100,80
13369.0,60,1.0,63,1,0,0,120,64,100,80
13370.0,64,1.0,63,1,0,0,120,64,100,80
13371.0,69,1.0,63,1,0,0,120,64,100,80
13372.0,71,1.0,63,1,0,0,120,64,100,80
13373.0,60,1.0,63,1,0,0,120,64,100,80
13374.0,65,1.0,63,1,0,0,120,64,100,80
13375.0,60,1.0,63,1,0,0,120,64,100,80
13376.0,64,1.0,63,1,0,0,120,64,100,80
13377.0,62,1.0,63,1,0,0,120,64,100,80
13378.0,64,1.0,63,1,0,0,120,64,100,80
13379.0,60,1.0,63,1,0,0,120,64,100,80
13380.0,60,1.0,63,1,0,0,120,64,100,80
13381.0,64,1.0,63,1,0,0,120,64,100,80
13382.0,71,1.0,63,1,0,0,120,64,100,80
13383.0,60,1.0,63,1,0,0,120,64,100,80
13384.0,69,1.0,63,1,0,0,120,64,100,80
13385.0,65,1.0,63,1,0,0,120,64,100,80
13386.0,62,1.0,63,1,0,0,120,64,100,80
13387.0,60,1.0,63,1,0,0,120,64,100,80
13388.0,65,1.0,63,1,0,0,120,64,100,80
13389.0,60,1.0,63,1,0,0,120,64,100,80
13390.0,69,1.0,63,1,0,0,120,64,100,80
13391.0,71,1.0,63,1,0,0,120,64,100,80
13392.0,64,1.0,63,1,0,0,120,64,100,80
13393.0,60,1.0,63,1,0,0,120,64,100,80
13394.0,69,1.0,63,1,0,0,120,64,100,80
13395.0,62,1.0,63,1,0,0,120,64,100,80
13396.0,67,1.0,63,1,0,0,120,64,100,80
13397.0,0,1.0,63,1,0,0,120,64,100,80
13398.0,71,1.0,63,1,0,0,120,64,100,80
13399.0,64,1.0,63,1,0,0,120,64,100,80
13400.0,60,1.0,63,1,0,0,120,64,100,80
13401.0,71,1.0,63,1,0,0,120,64,100,80
13402.0,71,1.0,63,1,0,0,120,64,100,80
13403.0,69,1.0,63,1,0,0,120,64,100,80
13404.0,67,1.0,63,1,0,0,120,64,100,80
13405.0,62,1.0,63,1,0,0,120,64,100,80
13406.0,62,1.0,63,1,0,0,120,64,100,80
13407.0,65,1.0,63,1,0,0,120,64,100,80
13408.0,62,1.0,63,1,0,0,120,64,100,80
13409.0,67,1.0,63,1,0,0,120,64,100,80
13410.0,62,1.0,63,1,0,0,120,64,100,80
13411.0,0,1.0,63,1,0,0,120,64,100,80
13412.0,64,1.0,63,1,0,0,120,64,100,80
13413.0,60,1.0,63,1,0,0,120,64,100,80
13414.0,62,1.0,63,1,0,0,120,64,100,80
13415.0,0,1.0,63,1,0,0,120,64,100,80
13416.0,71,1.0,63,1,0,0,120,64,100,80
13417.0,60,1.0,63,1,0,0,120,64,100,80
13418.0,64,1.0,63,1,0,0,120,64,100,80
13419.0,69,1.0,63,1,0,0,120,64,100,80
13420.0,0,1.0,63,1,0,0,120,64,100,80
13421.0,60,1.0,63,1,0,0,120,64,100,80
13422.0,62,1.0,63,1,0,0,120,64,100,80
13423.0,0,1.0,63,1,0,0,120,64,100,80
13424.0,64,1.0,63,1,0,0,120,64,100,80
13425.0,60,1.0,63,1,0,0,120,64,100,80
13426.0,64,1.0,63,1,0,0,120,64,100,80
13427.0,62,1.0,63,1,0,0,120,64,100,80
13428.0,65,1.0,63,1,0,0,120,64,100,80
13429.0,69,1.0,63,1,0,0,120,64,100,80
13430.0,65,1.0,63,1,0,0,120,64,100,80
13431.0,71,1.0,63,1,0,0,120,64,100,80
13432.0,64,1.0,63,1,0,0,120,64,100,80
13433.0,71,1.0,63,1,0,0,120,64,100,80
13434.0,60,1.0,63,1,0,0,120,64,100,80
13435.0,67,1.0,63,1,0,0,120,64,100,80
13436.0,64,1.0,63,1,0,0,120,64,100,80
13437.0,62,1.0,63,1,0,0,120,64,100,80
13438.0,69,1.0,63,1,0,0,120,64,100,80
13439.0,64,1.0,63,1,0,0,120,64,100,80
13440.0,71,1.0,63,1,0,0,120,64,100,80
13441.0,60,1.0,63,1,0,0,120,64,100,80
13442.0,71,1.0,63,1,0,0,120,64,100,80
13443.0,71,1.0,63,1,0,0,120,64,100,80
13444.0,64,1.0,63,1,0,0,120,64,100,80
13445.0,65,1.0,63,1,0,0,120,64,100,80
13446.0,0,1.0,63,1,0,0,120,64,100,80
13447.0,64,1.0,63,1,0,0,120,64,100,80
13448.0,60,1.0,63,1,0,0,120,64,100,80
13449.0,60,1.0,63,1,0,0,120,64,100,80
13450.0,67,1.0,63,1,0,0,120,64,100,80
13451.0,64,1.0,63,1,0,0,120,64,100,80
13452.0,64,1.0,63,1,0,0,120,64,100,80
13453.0,62,1.0,63,1,0,0,120,64,100,80
13454.0,65,1.0,63,1,0,0,120,64,100,80
13455.0,64,1.0,63,1,0,0,120,64,100,80
13456.0,62,1.0,63,1,0,0,120,64,100,80
13457.0,60,1.0,63,1,0,0,120,64,100,80
13458.0,65,1.0,63,1,0,0,120,64,100,80
13459.0,65,1.0,63,1,0,0,120,64,100,80
13460.0,62,1.0,63,1,0,0,120,64,100,80
13461.0,60,1.0,63,1,0,0,120,64,100,80
13462.0,69,1.0,63,1,0,0,120,64,100,80
13463.0,67,1.0,63,1,0,0,120,64,100,80
13464.0,69,1.0,63,1,0,0,120,64,100,80
13465.0,64,1.0,63,1,0,0,120,64,100,80
13466.0,69,1.0,63,1,0,0,120,64,100,80
13467.0,67,1.0,63,1,0,0,120,64,100,80
13468.0,60,1.0,63,1,0,0,120,64,100,80
13469.0,64,1.0,63,1,0,0,120,64,100,80
13470.0,60,1.0,63,1,0,0,120,64,100,80
13471.0,65,1.0,63,1,0,0,120,64,100,80
13472.0,62,1.0,63,1,0,0,120,64,100,80
13473.0,64,1.0,63,1,0,0,120,64,100,80
13474.0,71,1.0,63,1,0,0,120,64,100,80
13475.0,60,1.0,63,1,0,0,120,64,100,80
13476.0,62,1.0,63,1,0,0,120,64,100,80
13477.0,71,1.0,63,1,0,0,120,64,100,80
13478.0,62,1.0,63,1,0,0,120,64,100,80
13479.0,60,1.0,63,1,0,0,120,64,100,80
13480.0,62,1.0,63,1,0,0,120,64,100,80
13481.0,67,1.0,63,1,0,0,120,64,100,80
13482.0,69,1.0,63,1,0,0,120,64,100,80
13483.0,64,1.0,63,1,0,0,120,64,100,80
13484.0,60,1.0,63,1,0,0,120,64,100,80
13485.0,67,1.0,63,1,0,0,120,64,100,80
13486.0,69,1.0,63,1,0,0,120,64,100,80
13487.0,69,1.0,63,1,0,0,120,64,100,80
13488.0,65,1.0,63,1,0,0,120,64,100,80
13489.0,60,1.0,63,1,0,0,120,64,100,80
13490.0,64,1.0,63,1,0,0,120,64,100,80
13491.0,67,1.0,63,1,0,0,120,64,100,80
13492.0,69,1.0,63,1,0,0,120,64,100,80
13493.0,69,1.0,63,1,0,0,120,64,100,80
13494.0,69,1.0,63,1,0,0,120,64,100,80
13495.0,69,1.0,63,1,0,0,120,64,100,80
13496.0,62,1.0,63,1,0,0,120,64,100,80
13497.0,69,1.0,63,1,0,0,120,64,100,80
13498.0,60,1.0,63,1,0,0,120,64,100,80
13499.0,65,1.0,63,1,0,0,120,64,100,80
13500.0,0,1.0,63,1,0,0,120,64,100,80
13501.0,60,1.0,63,1,0,0,120,64,100,80
13502.0,62,1.0,63,1,0,0,120,64,100,80
13503.0,67,1.0,63,1,0,0,120,64,100,80
13504.0,69,1.0,63,1,0,0,120,64,100,80
13505.0,60,1.0,63,1,0,0,120,64,100,80
13506.0,71,1.0,63,1,0,0,120,64,100,80
13507.0,62,1.0,63,1,0,0,120,64,100,80
13508.0,71,1.0,63,1,0,0,120,64,100,80
13509.0,65,1.0,63,1,0,0,120,64,100,80
13510.0,64,1.0,63,1,0,0,120,64,100,80
13511.0,60,1.0,63,1,0,0,120,64,100,80
13512.0,65,1.0,63,1,0,0,120,64,100,80
13513.0,67,1.0,63,1,0,0,120,64,100,80
13514.0,60,1.0,63,1,0,0,120,64,100,80
13515.0,60,1.0,63,1,0,0,120,64,100,80
13516.0,69,1.0,63,1,0,0,120,64,100,80
13517.0,62,1.0,63,1,0,0,120,64,100,80
13518.0,67,1.0,63,1,0,0,120,64,100,80
13519.0,60,1.0,63,1,0,0,120,64,100,80
13520.0,65,1.0,63,1,0,0,120,64,100,80
13521.0,62,1.0,63,1,0,0,120,64,100,80
13522.0,65,1.0,63,1,0,0,120,64,100,80
13523.0,65,1.0,63,1,0,0,120,64,100,80
13524.0,65,1.0,63,1,0,0,120,64,100,80
13525.0,64,1.0,63,1,0,0,120,64,100,80
13526.0,60,1.0,63,1,0,0,120,64,100,80
13527.0,71,1.0,63,1,0,0,120,64,100,80
13528.0,64,1.0,63,1,0,0,120,64,100,80
13529.0,64,1.0,63,1,0,0,120,64,100,80
13530.0,62,1.0,63,1,0,0,120,64,100,80
13531.0,62,1.0,63,1,0,0,120,64,100,80
13532.0,60,1.0,63,1,0,0,120,64,100,80
13533.0,62,1.0,63,1,0,0,120,64,100,80
13534.0,64,1.0,63,1,0,0,120,64,100,80
13535.0,62,1.0,63,1,0,0,120,64,100,80
13536.0,60,1.0,63,1,0,0,120,64,100,80
13537.0,60,1.0,63,1,0,0,120,64,100,80
13538.0,60,1.0,63,1,0,0,120,64,100,80
13539.0,62,1.0,63,1,0,0,120,64,100,80
13540.0,64,1.0,63,1,0,0,120,64,100,80
13541.0,0,1.0,63,1,0,0,120,64,100,80
13542.0,60,1.0,63,1,0,0,120,64,100,80
13543.0,64,1.0,63,1,0,0,120,64,100,80
13544.0,67,1.0,63,1,0,0,120,64,100,80
13545.0,69,1.0,63,1,0,0,120,64,100,80
13546.0,71,1.0,63,1,0,0,120,64,100,80
13547.0,60,1.0,63,1,0,0,120,64,100,80
13548.0,62,1.0,63,1,0,0,120,64,100,80
13549.0,60,1.0,63,1,0,0,120,64,100,80
13550.0,60,1.0,63,1,0,0,120,64,100,80
13551.0,62,1.0,63,1,0,0,120,64,100,80
13552.0,60,1.0,63,1,0,0,120,64,100,80
13553.0,64,1.0,63,1,0,0,120,64,100,80
13554.0,62,1.0,63,1,0,0,120,64,100,80
13555.0,60,1.0,63,1,0,0,120,64,100,80
13556.0,60,1.0,63,1,0,0,120,64,100,80
13557.0,69,1.0,63,1,0,0,120,64,100,80
13558.0,71,1.0,63,1,0,0,120,64,100,80
13559.0,71,1.0,63,1,0,0,120,64,100,80
13560.0,69,1.0,63,1,0,0,120,64,100,80
13561.0,67,1.0,63,1,0,0,120,64,100,80
13562.0,69,1.0,63,1,0,0,120,64,100,80
13563.0,64,1.0,63,1,0,0,120,64,100,80
13564.0,64,1.0,63,1,0,0,120,64,100,80
13565.0,64,1.0,63,1,0,0,120,64,100,80
13566.0,71,1.0,63,1,0,0,120,64,100,80
13567.0,65,1.0,63,1,0,0,120,64,100,80
13568.0,67,1.0,63,1,0,0,120,64,100,80
13569.0,69,1.0,63,1,0,0,120,64,100,80
13570.0,64,1.0,63,1,0,0,120,64,100,80
13571.0,62,1.0,63,1,0,0,120,64,100,80
13572.0,60,1.0,63,1,0,0,120,64,100,80
13573.0,60,1.0,63,1,0,0,120,64,100,80
13574.0,64,1.0,63,1,0,0,120,64,100,80
13575.0,71,1.0,63,1,0,0,120,64,100,80
13576.0,65,1.0,63,1,0,0,120,64,100,80
13577.0,62,1.0,63,1,0,0,120,64,100,80
13578.0,62,1.0,63,1,0,0,120,64,100,80
13579.0,64,1.0,63,1,0,0,120,64,100,80
13580.0,67,1.0,63,1,0,0,120,64,100,80
13581.0,71,1.0,63,1,0,0,120,64,100,80
13582.0,65,1.0,63,1,0,0,120,64,100,80
13583.0,71,1.0,63,1,0,0,120,64,100,80
13584.0,60,1.0,63,1,0,0,120,64,100,80
13585.0,65,1.0,63,1,0,0,120,64,100,80
13586.0,60,1.0,63,1,0,0,120,64,100,80
13587.0,65,1.0,63,1,0,0,120,64,100,80
13588.0,64,1.0,63,1,0,0,120,64,100,80
13589.0,64,1.0,63,1,0,0,120,64,100,80
13590.0,64,1.0,63,1,0,0,120,64,100,80
13591.0,67,1.0,63,1,0,0,120,64,100,80
13592.0,60,1.0,63,1,0,0,120,64,100,80
13593.0,67,1.0,63,1,0,0,120,64,100,80
13594.0,60,1.0,63,1,0,0,120,64,100,80
13595.0,67,1.0,63,1,0,0,120,64,100,80
13596.0,64,1.0,63,1,0,0,120,64,100,80
13597.0,60,1.0,63,1,0,0,120,64,100,80
13598.0,65,1.0,63,1,0,0,120,64,100,80
13599.0,64,1.0,63,1,0,0,120,64,100,80
13600.0,65,1.0,63,1,0,0,120,64,100,80
13601.0,62,1.0,63,1,0,0,120,64,100,80
13602.0,60,1.0,63,1,0,0,120,64,100,80
13603.0,60,1.0,63,1,0,0,120,64,100,80
13604.0,67,1.0,63,1,0,0,120,64,100,80
13605.0,60,1.0,63,1,0,0,120,64,100,80
13606.0,60,1.0,63,1,0,0,120,64,100,80
13607.0,67,1.0,63,1,0,0,120,64,100,80
13608.0,71,1.0,63,1,0,0,120,64,100,80
13609.0,64,1.0,63,1,0,0,120,64,100,80
13610.0,64,1.0,63,1,0,0,120,64,100,80
13611.0,60,1.0,63,1,0,0,120,64,100,80
13612.0,65,1.0,63,1,0,0,120,64,100,80
13613.0,60,1.0,63,1,0,0,120,64,100,80
13614.0,65,1.0,63,1,0,0,120,64,100,80
13615.0,64,1.0,63,1,0,0,120,64,100,80
13616.0,64,1.0,63,1,0,0,120,64,100,80
13617.0,65,1.0,63,1,0,0,120,64,100,80
13618.0,60,1.0,63,1,0,0,120,64,100,80
13619.0,64,1.0,63,1,0,0,120,64,100,80
13620.0,64,1.0,63,1,0,0,120,64,100,80
13621.0,64,1.0,63,1,0,0,120,64,100,80
13622.0,62,1.0,63,1,0,0,120,64,100,80
13623.0,69,1.0,63,1,0,0,120,64,100,80
13624.0,69,1.0,63,1,0,0,120,64,100,80
13625.0,62,1.0,63,1,0,0,120,64,100,80
13626.0,71,1.0,63,1,0,0,120,64,100,80
13627.0,65,1.0,63,1,0,0,120,64,100,80
13628.0,60,1.0,63,1,0,0,120,64,100,80
13629.0,60,1.0,63,1,0,0,120,64,100,80
13630.0,60,1.0,63,1,0,0,120,64,100,80
13631.0,60,1.0,63,1,0,0,120,64,100,80
13632.0,62,1.0,63,1,0,0,120,64,100,80
13633.0,60,1.0,63,1,0,0,120,64,100,80
13634.0,67,1.0,63,1,0,0,120,64,100,80
13635.0,60,1.0,63,1,0,0,120,64,100,80
13636.0,60,1.0,63,1,0,0,120,64,100,80
13637.0,69,1.0,63,1,0,0,120,64,100,80
13638.0,71,1.0,63,1,0,0,120,64,100,80
13639.0,67,1.0,63,1,0,0,120,64,100,80
13640.0,62,1.0,63,1,0,0,120,64,100,80
13641.0,64,1.0,63,1,0,0,120,64,100,80
13642.0,64,1.0,63,1,0,0,120,64,100,80
13643.0,60,1.0,63,1,0,0,120,64,100,80
13644.0,65,1.0,63,1,0,0,120,64,100,80
13645.0,60,1.0,63,1,0,0,120,64,100,80
13646.0,69,1.0,63,1,0,0,120,64,100,80
13647.0,69,1.0,63,1,0,0,120,64,100,80
13648.0,65,1.0,63,1,0,0,120,64,100,80
13649.0,62,1.0,63,1,0,0,120,64,100,80
13650.0,62,1.0,63,1,0,0,120,64,100,80
13651.0,60,1.0,63,1,0,0,120,64,100,80
13652.0,65,1.0,63,1,0,0,120,64,100,80
13653.0,67,1.0,63,1,0,0,120,64,100,80
13654.0,62,1.0,63,1,0,0,120,64,100,80
13655.0,62,1.0,63,1,0,0,120,64,100,80
13656.0,67,1.0,63,1,0,0,120,64,100,80
13657.0,62,1.0,63,1,0,0,120,64,100,80
13658.0,69,1.0,63,1,0,0,120,64,100,80
13659.0,60,1.0,63,1,0,0,120,64,100,80
13660.0,64,1.0,63,1,0,0,120,64,100,80
13661.0,60,1.0,63,1,0,0,120,64,100,80
13662.0,65,1.0,63,1,0,0,120,64,100,80
13663.0,62,1.0,63,1,0,0,120,64,100,80
13664.0,67,1.0,63,1,0,0,120,64,100,80
13665.0,65,1.0,63,1,0,0,120,64,100,80
13666.0,64,1.0,63,1,0,0,120,64,100,80
13667.0,65,1.0,63,1,0,0,120,64,100,80
13668.0,62,1.0,63,1,0,0,120,64,100,80
13669.0,62,1.0,63,1,0,0,120,64,100,80
13670.0,62,1.0,63,1,0,0,120,64,100,80
13671.0,62,1.0,63,1,0,0,120,64,100,80
13672.0,0,1.0,63,1,0,0,120,64,100,80
13673.0,0,1.0,63,1,0,0,120,64,100,80
13674.0,67,1.0,63,1,0,0,120,64,100,80
13675.0,67,1.0,63,1,0,0,120,64,100,80
13676.0,62,1.0,63,1,0,0,120,64,100,80
13677.0,60,1.0,63,1,0,0,120,64,100,80
13678.0,64,1.0,63,1,0,0,120,64,100,80
13679.0,60,1.0,63,1,0,0,120,64,100,80
13680.0,64,1.0,63,1,0,0,120,64,100,80
13681.0,64,1.0,63,1,0,0,120,64,100,80
13682.0,69,1.0,63,1,0,0,120,64,100,80
13683.0,60,1.0,63,1,0,0,120,64,100,80
13684.0,60,1.0,63,1,0,0,120,64,100,80
13685.0,64,1.0,63,1,0,0,120,64,100,80
13686.0,60,1.0,63,1,0,0,120,64,100,80
13687.0,60,1.0,63,1,0,0,120,64,100,80
13688.0,69,1.0,63,1,0,0,120,64,100,80
13689.0,62,1.0,63,1,0,0,120,64,100,80
13690.0,67,1.0,63,1,0,0,120,64,100,80
13691.0,62,1.0,63,1,0,0,120,64,100,80
13692.0,65,1.0,63,1,0,0,120,64,100,80
13693.0,64,1.0,63,1,0,0,120,64,100,80
13694.0,60,1.0,63,1,0,0,120,64,100,80
13695.0,69,1.0,63,1,0,0,120,64,100,80
13696.0,69,1.0,63,1,0,0,120,64,100,80
13697.0,69,1.0,63,1,0,0,120,64,100,80
13698.0,64,1.0,63,1,0,0,120,64,100,80
13699.0,67,1.0,63,1,0,0,120,64,100,80
13700.0,69,1.0,63,1,0,0,120,64,100,80
13701.0,71,1.0,63,1,0,0,120,64,100,80
13702.0,69,1.0,63,1,0,0,120,64,100,80
13703.0,62,1.0,63,1,0,0,120,64,100,80
13704.0,69,1.0,63,1,0,0,120,64,100,80
13705.0,69,1.0,63,1,0,0,120,64,100,80
13706.0,67,1.0,63,1,0,0,120,64,100,80
13707.0,65,1.0,63,1,0,0,120,64,100,80
13708.0,65,1.0,63,1,0,0,120,64,100,80
13709.0,69,1.0,63,1,0,0,120,64,100,80
13710.0,64,1.0,63,1,0,0,120,64,100,80
13711.0,64,1.0,63,1,0,0,120,64,100,80
13712.0,60,1.0,63,1,0,0,120,64,100,80
13713.0,64,1.0,63,1,0,0,120,64,100,80
13714.0,67,1.0,63,1,0,0,120,64,100,80
13715.0,67,1.0,63,1,0,0,120,64,100,80
13716.0,69,1.0,63,1,0,0,120,64,100,80
13717.0,69,1.0,63,1,0,0,120,64,100,80
13718.0,64,1.0,63,1,0,0,120,64,100,80
13719.0,62,1.0,63,1,0,0,120,64,100,80
13720.0,64,1.0,63,1,0,0,120,64,100,80
13721.0,64,1.0,63,1,0,0,120,64,100,80
13722.0,65,1.0,63,1,0,0,120,64,100,80
13723.0,64,1.0,63,1,0,0,120,64,100,80
13724.0,62,1.0,63,1,0,0,120,64,100,80
13725.0,62,1.0,63,1,0,0,120,64,100,80
13726.0,71,1.0,63,1,0,0,120,64,100,80
